{
  "header": {
    "keySignatures": [],
    "meta": [],
    "name": "The Jean Genie",
    "ppq": 384,
    "tempos": [
      {
        "bpm": 130.00013000013,
        "ticks": 0
      },
      {
        "bpm": 130.00013000013,
        "ticks": 39936
      },
      {
        "bpm": 130.00013000013,
        "ticks": 86016
      },
      {
        "bpm": 130.00013000013,
        "ticks": 125952
      },
      {
        "bpm": 130.00013000013,
        "ticks": 162816
      }
    ],
    "timeSignatures": [
      {
        "ticks": 0,
        "timeSignature": [
          4,
          4
        ],
        "measures": 0
      }
    ]
  },
  "tracks": [
    {
      "channel": 0,
      "controlChanges": {
        "0": [
          {
            "number": 0,
            "ticks": 0,
            "time": 0,
            "value": 0
          }
        ]
      },
      "pitchBends": [],
      "instrument": {
        "family": "piano",
        "number": 0,
        "name": "acoustic grand piano"
      },
      "name": "The Jean Genie",
      "notes": [],
      "endOfTrackTicks": 182784
    },
    {
      "channel": 0,
      "controlChanges": {
        "7": [
          {
            "number": 7,
            "ticks": 0,
            "time": 0,
            "value": 0.5511811023622047
          }
        ]
      },
      "pitchBends": [
        {
          "ticks": 2948,
          "time": 3.5432656874999995,
          "value": 0.015625
        },
        {
          "ticks": 2964,
          "time": 3.5624964374999997,
          "value": 0
        },
        {
          "ticks": 2980,
          "time": 3.5817271875,
          "value": -0.015625
        },
        {
          "ticks": 2996,
          "time": 3.6009579374999996,
          "value": -0.03125
        },
        {
          "ticks": 3012,
          "time": 3.6201886875,
          "value": -0.046875
        },
        {
          "ticks": 3028,
          "time": 3.6394194374999995,
          "value": -0.0625
        },
        {
          "ticks": 3044,
          "time": 3.6586501874999993,
          "value": -0.078125
        },
        {
          "ticks": 3060,
          "time": 3.6778809374999994,
          "value": -0.09375
        },
        {
          "ticks": 3072,
          "time": 3.6923039999999996,
          "value": 0
        },
        {
          "ticks": 4608,
          "time": 5.538455999999999,
          "value": 0
        },
        {
          "ticks": 6144,
          "time": 7.384607999999999,
          "value": 0
        },
        {
          "ticks": 7680,
          "time": 9.230759999999998,
          "value": 0
        },
        {
          "ticks": 9216,
          "time": 11.076911999999998,
          "value": 0
        },
        {
          "ticks": 10752,
          "time": 12.923063999999998,
          "value": 0
        },
        {
          "ticks": 12288,
          "time": 14.769215999999998,
          "value": 0
        },
        {
          "ticks": 13824,
          "time": 16.615367999999997,
          "value": 0
        },
        {
          "ticks": 15360,
          "time": 18.461519999999997,
          "value": 0
        },
        {
          "ticks": 16896,
          "time": 20.307671999999997,
          "value": 0
        },
        {
          "ticks": 18432,
          "time": 22.153823999999997,
          "value": 0
        },
        {
          "ticks": 19968,
          "time": 23.999975999999997,
          "value": 0
        },
        {
          "ticks": 21504,
          "time": 25.846127999999997,
          "value": 0
        },
        {
          "ticks": 23040,
          "time": 27.692279999999997,
          "value": 0
        },
        {
          "ticks": 24576,
          "time": 29.538431999999997,
          "value": 0
        },
        {
          "ticks": 26112,
          "time": 31.384583999999997,
          "value": 0
        },
        {
          "ticks": 27648,
          "time": 33.23073599999999,
          "value": 0
        },
        {
          "ticks": 29184,
          "time": 35.076888,
          "value": 0
        },
        {
          "ticks": 30720,
          "time": 36.92303999999999,
          "value": 0
        },
        {
          "ticks": 50688,
          "time": 60.92301599999999,
          "value": 0
        },
        {
          "ticks": 52224,
          "time": 62.76916799999999,
          "value": 0
        },
        {
          "ticks": 53760,
          "time": 64.61532,
          "value": 0
        },
        {
          "ticks": 55296,
          "time": 66.46147199999999,
          "value": 0
        },
        {
          "ticks": 56832,
          "time": 68.30762399999999,
          "value": 0
        },
        {
          "ticks": 58368,
          "time": 70.153776,
          "value": 0
        },
        {
          "ticks": 59904,
          "time": 71.99992799999998,
          "value": 0
        },
        {
          "ticks": 61440,
          "time": 73.84607999999999,
          "value": 0
        },
        {
          "ticks": 62976,
          "time": 75.69223199999999,
          "value": 0
        },
        {
          "ticks": 64512,
          "time": 77.538384,
          "value": 0
        },
        {
          "ticks": 66048,
          "time": 79.384536,
          "value": 0
        },
        {
          "ticks": 67584,
          "time": 81.23068799999999,
          "value": 0
        },
        {
          "ticks": 69120,
          "time": 83.07683999999999,
          "value": 0
        },
        {
          "ticks": 70656,
          "time": 84.922992,
          "value": 0
        },
        {
          "ticks": 72192,
          "time": 86.76914399999998,
          "value": 0
        },
        {
          "ticks": 73728,
          "time": 88.61529599999999,
          "value": 0
        },
        {
          "ticks": 75264,
          "time": 90.46144799999999,
          "value": 0
        },
        {
          "ticks": 76800,
          "time": 92.30759999999998,
          "value": 0
        },
        {
          "ticks": 78336,
          "time": 94.153752,
          "value": 0
        },
        {
          "ticks": 98304,
          "time": 118.15372799999999,
          "value": 0
        },
        {
          "ticks": 99840,
          "time": 119.99987999999999,
          "value": 0
        },
        {
          "ticks": 101376,
          "time": 121.84603199999998,
          "value": 0
        },
        {
          "ticks": 102912,
          "time": 123.69218399999998,
          "value": 0
        },
        {
          "ticks": 104448,
          "time": 125.53833599999999,
          "value": 0
        },
        {
          "ticks": 105984,
          "time": 127.38448799999998,
          "value": 0
        },
        {
          "ticks": 107520,
          "time": 129.23064,
          "value": 0
        },
        {
          "ticks": 109056,
          "time": 131.07679199999998,
          "value": 0
        },
        {
          "ticks": 110592,
          "time": 132.92294399999997,
          "value": 0
        },
        {
          "ticks": 112128,
          "time": 134.769096,
          "value": 0
        },
        {
          "ticks": 113664,
          "time": 136.61524799999998,
          "value": 0
        },
        {
          "ticks": 116736,
          "time": 140.307552,
          "value": 0
        },
        {
          "ticks": 118272,
          "time": 142.15370399999998,
          "value": 0
        },
        {
          "ticks": 119808,
          "time": 143.99985599999997,
          "value": 0
        },
        {
          "ticks": 121344,
          "time": 145.84600799999998,
          "value": 0
        },
        {
          "ticks": 122880,
          "time": 147.69215999999997,
          "value": 0
        },
        {
          "ticks": 124416,
          "time": 149.538312,
          "value": 0
        },
        {
          "ticks": 125952,
          "time": 151.38446399999998,
          "value": 0
        },
        {
          "ticks": 127488,
          "time": 153.23061599999997,
          "value": 0
        },
        {
          "ticks": 129024,
          "time": 155.076768,
          "value": 0
        },
        {
          "ticks": 130560,
          "time": 156.92291999999998,
          "value": 0
        },
        {
          "ticks": 132096,
          "time": 158.76907199999997,
          "value": 0
        },
        {
          "ticks": 155136,
          "time": 186.46135199999998,
          "value": 0
        },
        {
          "ticks": 156672,
          "time": 188.30750399999997,
          "value": 0
        },
        {
          "ticks": 158208,
          "time": 190.15365599999998,
          "value": 0
        },
        {
          "ticks": 159744,
          "time": 191.99980799999997,
          "value": 0
        },
        {
          "ticks": 161280,
          "time": 193.84596,
          "value": 0
        },
        {
          "ticks": 162816,
          "time": 195.69211199999998,
          "value": 0
        },
        {
          "ticks": 164352,
          "time": 197.53826399999997,
          "value": 0
        },
        {
          "ticks": 165888,
          "time": 199.384416,
          "value": 0
        },
        {
          "ticks": 167424,
          "time": 201.23056799999998,
          "value": 0
        },
        {
          "ticks": 168960,
          "time": 203.07671999999997,
          "value": 0
        },
        {
          "ticks": 170496,
          "time": 204.92287199999998,
          "value": 0
        },
        {
          "ticks": 172032,
          "time": 206.76902399999997,
          "value": 0
        }
      ],
      "instrument": {
        "family": "guitar",
        "number": 30,
        "name": "distortion guitar"
      },
      "name": "",
      "notes": [
        {
          "duration": 0.15384599999999998,
          "durationTicks": 128,
          "midi": 83,
          "name": "B5",
          "ticks": 0,
          "time": 0,
          "velocity": 0.6929133858267716
        },
        {
          "duration": 0.15384599999999998,
          "durationTicks": 128,
          "midi": 80,
          "name": "G#5",
          "ticks": 0,
          "time": 0,
          "velocity": 0.6929133858267716
        },
        {
          "duration": 0.15384599999999998,
          "durationTicks": 128,
          "midi": 76,
          "name": "E5",
          "ticks": 0,
          "time": 0,
          "velocity": 0.6929133858267716
        },
        {
          "duration": 0.15384599999999998,
          "durationTicks": 128,
          "midi": 71,
          "name": "B4",
          "ticks": 0,
          "time": 0,
          "velocity": 0.6929133858267716
        },
        {
          "duration": 0.15384599999999998,
          "durationTicks": 128,
          "midi": 64,
          "name": "E4",
          "ticks": 0,
          "time": 0,
          "velocity": 0.6929133858267716
        },
        {
          "duration": 0.15384599999999998,
          "durationTicks": 128,
          "midi": 83,
          "name": "B5",
          "ticks": 128,
          "time": 0.15384599999999998,
          "velocity": 0.6929133858267716
        },
        {
          "duration": 0.15384599999999998,
          "durationTicks": 128,
          "midi": 80,
          "name": "G#5",
          "ticks": 128,
          "time": 0.15384599999999998,
          "velocity": 0.6929133858267716
        },
        {
          "duration": 0.15384599999999998,
          "durationTicks": 128,
          "midi": 76,
          "name": "E5",
          "ticks": 128,
          "time": 0.15384599999999998,
          "velocity": 0.6929133858267716
        },
        {
          "duration": 0.15384599999999998,
          "durationTicks": 128,
          "midi": 71,
          "name": "B4",
          "ticks": 128,
          "time": 0.15384599999999998,
          "velocity": 0.6929133858267716
        },
        {
          "duration": 0.15384599999999998,
          "durationTicks": 128,
          "midi": 64,
          "name": "E4",
          "ticks": 128,
          "time": 0.15384599999999998,
          "velocity": 0.6929133858267716
        },
        {
          "duration": 0.15384599999999998,
          "durationTicks": 128,
          "midi": 83,
          "name": "B5",
          "ticks": 256,
          "time": 0.30769199999999997,
          "velocity": 0.6929133858267716
        },
        {
          "duration": 0.15384599999999998,
          "durationTicks": 128,
          "midi": 80,
          "name": "G#5",
          "ticks": 256,
          "time": 0.30769199999999997,
          "velocity": 0.6929133858267716
        },
        {
          "duration": 0.15384599999999998,
          "durationTicks": 128,
          "midi": 76,
          "name": "E5",
          "ticks": 256,
          "time": 0.30769199999999997,
          "velocity": 0.6929133858267716
        },
        {
          "duration": 0.15384599999999998,
          "durationTicks": 128,
          "midi": 71,
          "name": "B4",
          "ticks": 256,
          "time": 0.30769199999999997,
          "velocity": 0.6929133858267716
        },
        {
          "duration": 0.15384599999999998,
          "durationTicks": 128,
          "midi": 64,
          "name": "E4",
          "ticks": 256,
          "time": 0.30769199999999997,
          "velocity": 0.6929133858267716
        },
        {
          "duration": 0.15384599999999998,
          "durationTicks": 128,
          "midi": 83,
          "name": "B5",
          "ticks": 384,
          "time": 0.46153799999999995,
          "velocity": 0.6929133858267716
        },
        {
          "duration": 0.15384599999999998,
          "durationTicks": 128,
          "midi": 80,
          "name": "G#5",
          "ticks": 384,
          "time": 0.46153799999999995,
          "velocity": 0.6929133858267716
        },
        {
          "duration": 0.15384599999999998,
          "durationTicks": 128,
          "midi": 76,
          "name": "E5",
          "ticks": 384,
          "time": 0.46153799999999995,
          "velocity": 0.6929133858267716
        },
        {
          "duration": 0.15384599999999998,
          "durationTicks": 128,
          "midi": 71,
          "name": "B4",
          "ticks": 384,
          "time": 0.46153799999999995,
          "velocity": 0.6929133858267716
        },
        {
          "duration": 0.15384599999999998,
          "durationTicks": 128,
          "midi": 64,
          "name": "E4",
          "ticks": 384,
          "time": 0.46153799999999995,
          "velocity": 0.6929133858267716
        },
        {
          "duration": 0.15384600000000004,
          "durationTicks": 128,
          "midi": 83,
          "name": "B5",
          "ticks": 512,
          "time": 0.6153839999999999,
          "velocity": 0.6929133858267716
        },
        {
          "duration": 0.15384600000000004,
          "durationTicks": 128,
          "midi": 80,
          "name": "G#5",
          "ticks": 512,
          "time": 0.6153839999999999,
          "velocity": 0.6929133858267716
        },
        {
          "duration": 0.15384600000000004,
          "durationTicks": 128,
          "midi": 76,
          "name": "E5",
          "ticks": 512,
          "time": 0.6153839999999999,
          "velocity": 0.6929133858267716
        },
        {
          "duration": 0.15384600000000004,
          "durationTicks": 128,
          "midi": 71,
          "name": "B4",
          "ticks": 512,
          "time": 0.6153839999999999,
          "velocity": 0.6929133858267716
        },
        {
          "duration": 0.15384600000000004,
          "durationTicks": 128,
          "midi": 64,
          "name": "E4",
          "ticks": 512,
          "time": 0.6153839999999999,
          "velocity": 0.6929133858267716
        },
        {
          "duration": 0.15384599999999993,
          "durationTicks": 128,
          "midi": 83,
          "name": "B5",
          "ticks": 640,
          "time": 0.76923,
          "velocity": 0.6929133858267716
        },
        {
          "duration": 0.15384599999999993,
          "durationTicks": 128,
          "midi": 80,
          "name": "G#5",
          "ticks": 640,
          "time": 0.76923,
          "velocity": 0.6929133858267716
        },
        {
          "duration": 0.15384599999999993,
          "durationTicks": 128,
          "midi": 76,
          "name": "E5",
          "ticks": 640,
          "time": 0.76923,
          "velocity": 0.6929133858267716
        },
        {
          "duration": 0.15384599999999993,
          "durationTicks": 128,
          "midi": 71,
          "name": "B4",
          "ticks": 640,
          "time": 0.76923,
          "velocity": 0.6929133858267716
        },
        {
          "duration": 0.15384599999999993,
          "durationTicks": 128,
          "midi": 64,
          "name": "E4",
          "ticks": 640,
          "time": 0.76923,
          "velocity": 0.6929133858267716
        },
        {
          "duration": 0.15384600000000004,
          "durationTicks": 128,
          "midi": 83,
          "name": "B5",
          "ticks": 768,
          "time": 0.9230759999999999,
          "velocity": 0.6929133858267716
        },
        {
          "duration": 0.15384600000000004,
          "durationTicks": 128,
          "midi": 80,
          "name": "G#5",
          "ticks": 768,
          "time": 0.9230759999999999,
          "velocity": 0.6929133858267716
        },
        {
          "duration": 0.15384600000000004,
          "durationTicks": 128,
          "midi": 76,
          "name": "E5",
          "ticks": 768,
          "time": 0.9230759999999999,
          "velocity": 0.6929133858267716
        },
        {
          "duration": 0.15384600000000004,
          "durationTicks": 128,
          "midi": 71,
          "name": "B4",
          "ticks": 768,
          "time": 0.9230759999999999,
          "velocity": 0.6929133858267716
        },
        {
          "duration": 0.15384600000000004,
          "durationTicks": 128,
          "midi": 64,
          "name": "E4",
          "ticks": 768,
          "time": 0.9230759999999999,
          "velocity": 0.6929133858267716
        },
        {
          "duration": 0.15384599999999993,
          "durationTicks": 128,
          "midi": 83,
          "name": "B5",
          "ticks": 896,
          "time": 1.076922,
          "velocity": 0.6929133858267716
        },
        {
          "duration": 0.15384599999999993,
          "durationTicks": 128,
          "midi": 80,
          "name": "G#5",
          "ticks": 896,
          "time": 1.076922,
          "velocity": 0.6929133858267716
        },
        {
          "duration": 0.15384599999999993,
          "durationTicks": 128,
          "midi": 76,
          "name": "E5",
          "ticks": 896,
          "time": 1.076922,
          "velocity": 0.6929133858267716
        },
        {
          "duration": 0.15384599999999993,
          "durationTicks": 128,
          "midi": 71,
          "name": "B4",
          "ticks": 896,
          "time": 1.076922,
          "velocity": 0.6929133858267716
        },
        {
          "duration": 0.15384599999999993,
          "durationTicks": 128,
          "midi": 64,
          "name": "E4",
          "ticks": 896,
          "time": 1.076922,
          "velocity": 0.6929133858267716
        },
        {
          "duration": 0.15384599999999993,
          "durationTicks": 128,
          "midi": 83,
          "name": "B5",
          "ticks": 1024,
          "time": 1.2307679999999999,
          "velocity": 0.6929133858267716
        },
        {
          "duration": 0.15384599999999993,
          "durationTicks": 128,
          "midi": 80,
          "name": "G#5",
          "ticks": 1024,
          "time": 1.2307679999999999,
          "velocity": 0.6929133858267716
        },
        {
          "duration": 0.15384599999999993,
          "durationTicks": 128,
          "midi": 76,
          "name": "E5",
          "ticks": 1024,
          "time": 1.2307679999999999,
          "velocity": 0.6929133858267716
        },
        {
          "duration": 0.15384599999999993,
          "durationTicks": 128,
          "midi": 71,
          "name": "B4",
          "ticks": 1024,
          "time": 1.2307679999999999,
          "velocity": 0.6929133858267716
        },
        {
          "duration": 0.15384599999999993,
          "durationTicks": 128,
          "midi": 64,
          "name": "E4",
          "ticks": 1024,
          "time": 1.2307679999999999,
          "velocity": 0.6929133858267716
        },
        {
          "duration": 0.15384600000000015,
          "durationTicks": 128,
          "midi": 83,
          "name": "B5",
          "ticks": 1152,
          "time": 1.3846139999999998,
          "velocity": 0.6929133858267716
        },
        {
          "duration": 0.15384600000000015,
          "durationTicks": 128,
          "midi": 80,
          "name": "G#5",
          "ticks": 1152,
          "time": 1.3846139999999998,
          "velocity": 0.6929133858267716
        },
        {
          "duration": 0.15384600000000015,
          "durationTicks": 128,
          "midi": 76,
          "name": "E5",
          "ticks": 1152,
          "time": 1.3846139999999998,
          "velocity": 0.6929133858267716
        },
        {
          "duration": 0.15384600000000015,
          "durationTicks": 128,
          "midi": 71,
          "name": "B4",
          "ticks": 1152,
          "time": 1.3846139999999998,
          "velocity": 0.6929133858267716
        },
        {
          "duration": 0.15384600000000015,
          "durationTicks": 128,
          "midi": 64,
          "name": "E4",
          "ticks": 1152,
          "time": 1.3846139999999998,
          "velocity": 0.6929133858267716
        },
        {
          "duration": 0.1538459999999997,
          "durationTicks": 128,
          "midi": 83,
          "name": "B5",
          "ticks": 1280,
          "time": 1.53846,
          "velocity": 0.6929133858267716
        },
        {
          "duration": 0.1538459999999997,
          "durationTicks": 128,
          "midi": 80,
          "name": "G#5",
          "ticks": 1280,
          "time": 1.53846,
          "velocity": 0.6929133858267716
        },
        {
          "duration": 0.1538459999999997,
          "durationTicks": 128,
          "midi": 76,
          "name": "E5",
          "ticks": 1280,
          "time": 1.53846,
          "velocity": 0.6929133858267716
        },
        {
          "duration": 0.1538459999999997,
          "durationTicks": 128,
          "midi": 71,
          "name": "B4",
          "ticks": 1280,
          "time": 1.53846,
          "velocity": 0.6929133858267716
        },
        {
          "duration": 0.1538459999999997,
          "durationTicks": 128,
          "midi": 64,
          "name": "E4",
          "ticks": 1280,
          "time": 1.53846,
          "velocity": 0.6929133858267716
        },
        {
          "duration": 0.15384600000000015,
          "durationTicks": 128,
          "midi": 83,
          "name": "B5",
          "ticks": 1408,
          "time": 1.6923059999999996,
          "velocity": 0.6929133858267716
        },
        {
          "duration": 0.15384600000000015,
          "durationTicks": 128,
          "midi": 80,
          "name": "G#5",
          "ticks": 1408,
          "time": 1.6923059999999996,
          "velocity": 0.6929133858267716
        },
        {
          "duration": 0.15384600000000015,
          "durationTicks": 128,
          "midi": 76,
          "name": "E5",
          "ticks": 1408,
          "time": 1.6923059999999996,
          "velocity": 0.6929133858267716
        },
        {
          "duration": 0.15384600000000015,
          "durationTicks": 128,
          "midi": 71,
          "name": "B4",
          "ticks": 1408,
          "time": 1.6923059999999996,
          "velocity": 0.6929133858267716
        },
        {
          "duration": 0.15384600000000015,
          "durationTicks": 128,
          "midi": 64,
          "name": "E4",
          "ticks": 1408,
          "time": 1.6923059999999996,
          "velocity": 0.6929133858267716
        },
        {
          "duration": 0.15384599999999993,
          "durationTicks": 128,
          "midi": 83,
          "name": "B5",
          "ticks": 1536,
          "time": 1.8461519999999998,
          "velocity": 0.6929133858267716
        },
        {
          "duration": 0.15384599999999993,
          "durationTicks": 128,
          "midi": 80,
          "name": "G#5",
          "ticks": 1536,
          "time": 1.8461519999999998,
          "velocity": 0.6929133858267716
        },
        {
          "duration": 0.15384599999999993,
          "durationTicks": 128,
          "midi": 76,
          "name": "E5",
          "ticks": 1536,
          "time": 1.8461519999999998,
          "velocity": 0.6929133858267716
        },
        {
          "duration": 0.15384599999999993,
          "durationTicks": 128,
          "midi": 71,
          "name": "B4",
          "ticks": 1536,
          "time": 1.8461519999999998,
          "velocity": 0.6929133858267716
        },
        {
          "duration": 0.15384599999999993,
          "durationTicks": 128,
          "midi": 64,
          "name": "E4",
          "ticks": 1536,
          "time": 1.8461519999999998,
          "velocity": 0.6929133858267716
        },
        {
          "duration": 0.15384600000000015,
          "durationTicks": 128,
          "midi": 83,
          "name": "B5",
          "ticks": 1664,
          "time": 1.9999979999999997,
          "velocity": 0.6929133858267716
        },
        {
          "duration": 0.15384600000000015,
          "durationTicks": 128,
          "midi": 80,
          "name": "G#5",
          "ticks": 1664,
          "time": 1.9999979999999997,
          "velocity": 0.6929133858267716
        },
        {
          "duration": 0.15384600000000015,
          "durationTicks": 128,
          "midi": 76,
          "name": "E5",
          "ticks": 1664,
          "time": 1.9999979999999997,
          "velocity": 0.6929133858267716
        },
        {
          "duration": 0.15384600000000015,
          "durationTicks": 128,
          "midi": 71,
          "name": "B4",
          "ticks": 1664,
          "time": 1.9999979999999997,
          "velocity": 0.6929133858267716
        },
        {
          "duration": 0.15384600000000015,
          "durationTicks": 128,
          "midi": 64,
          "name": "E4",
          "ticks": 1664,
          "time": 1.9999979999999997,
          "velocity": 0.6929133858267716
        },
        {
          "duration": 0.1538459999999997,
          "durationTicks": 128,
          "midi": 83,
          "name": "B5",
          "ticks": 1792,
          "time": 2.153844,
          "velocity": 0.6929133858267716
        },
        {
          "duration": 0.1538459999999997,
          "durationTicks": 128,
          "midi": 80,
          "name": "G#5",
          "ticks": 1792,
          "time": 2.153844,
          "velocity": 0.6929133858267716
        },
        {
          "duration": 0.1538459999999997,
          "durationTicks": 128,
          "midi": 76,
          "name": "E5",
          "ticks": 1792,
          "time": 2.153844,
          "velocity": 0.6929133858267716
        },
        {
          "duration": 0.1538459999999997,
          "durationTicks": 128,
          "midi": 71,
          "name": "B4",
          "ticks": 1792,
          "time": 2.153844,
          "velocity": 0.6929133858267716
        },
        {
          "duration": 0.1538459999999997,
          "durationTicks": 128,
          "midi": 64,
          "name": "E4",
          "ticks": 1792,
          "time": 2.153844,
          "velocity": 0.6929133858267716
        },
        {
          "duration": 0.15384600000000015,
          "durationTicks": 128,
          "midi": 83,
          "name": "B5",
          "ticks": 1920,
          "time": 2.3076899999999996,
          "velocity": 0.6929133858267716
        },
        {
          "duration": 0.15384600000000015,
          "durationTicks": 128,
          "midi": 80,
          "name": "G#5",
          "ticks": 1920,
          "time": 2.3076899999999996,
          "velocity": 0.6929133858267716
        },
        {
          "duration": 0.15384600000000015,
          "durationTicks": 128,
          "midi": 76,
          "name": "E5",
          "ticks": 1920,
          "time": 2.3076899999999996,
          "velocity": 0.6929133858267716
        },
        {
          "duration": 0.15384600000000015,
          "durationTicks": 128,
          "midi": 71,
          "name": "B4",
          "ticks": 1920,
          "time": 2.3076899999999996,
          "velocity": 0.6929133858267716
        },
        {
          "duration": 0.15384600000000015,
          "durationTicks": 128,
          "midi": 64,
          "name": "E4",
          "ticks": 1920,
          "time": 2.3076899999999996,
          "velocity": 0.6929133858267716
        },
        {
          "duration": 0.15384600000000015,
          "durationTicks": 128,
          "midi": 83,
          "name": "B5",
          "ticks": 2048,
          "time": 2.4615359999999997,
          "velocity": 0.6929133858267716
        },
        {
          "duration": 0.15384600000000015,
          "durationTicks": 128,
          "midi": 80,
          "name": "G#5",
          "ticks": 2048,
          "time": 2.4615359999999997,
          "velocity": 0.6929133858267716
        },
        {
          "duration": 0.15384600000000015,
          "durationTicks": 128,
          "midi": 76,
          "name": "E5",
          "ticks": 2048,
          "time": 2.4615359999999997,
          "velocity": 0.6929133858267716
        },
        {
          "duration": 0.15384600000000015,
          "durationTicks": 128,
          "midi": 71,
          "name": "B4",
          "ticks": 2048,
          "time": 2.4615359999999997,
          "velocity": 0.6929133858267716
        },
        {
          "duration": 0.15384600000000015,
          "durationTicks": 128,
          "midi": 64,
          "name": "E4",
          "ticks": 2048,
          "time": 2.4615359999999997,
          "velocity": 0.6929133858267716
        },
        {
          "duration": 0.1538459999999997,
          "durationTicks": 128,
          "midi": 83,
          "name": "B5",
          "ticks": 2176,
          "time": 2.615382,
          "velocity": 0.6929133858267716
        },
        {
          "duration": 0.1538459999999997,
          "durationTicks": 128,
          "midi": 80,
          "name": "G#5",
          "ticks": 2176,
          "time": 2.615382,
          "velocity": 0.6929133858267716
        },
        {
          "duration": 0.1538459999999997,
          "durationTicks": 128,
          "midi": 76,
          "name": "E5",
          "ticks": 2176,
          "time": 2.615382,
          "velocity": 0.6929133858267716
        },
        {
          "duration": 0.1538459999999997,
          "durationTicks": 128,
          "midi": 71,
          "name": "B4",
          "ticks": 2176,
          "time": 2.615382,
          "velocity": 0.6929133858267716
        },
        {
          "duration": 0.1538459999999997,
          "durationTicks": 128,
          "midi": 64,
          "name": "E4",
          "ticks": 2176,
          "time": 2.615382,
          "velocity": 0.6929133858267716
        },
        {
          "duration": 0.15384600000000015,
          "durationTicks": 128,
          "midi": 80,
          "name": "G#5",
          "ticks": 2304,
          "time": 2.7692279999999996,
          "velocity": 0.6929133858267716
        },
        {
          "duration": 0.15384600000000015,
          "durationTicks": 128,
          "midi": 76,
          "name": "E5",
          "ticks": 2304,
          "time": 2.7692279999999996,
          "velocity": 0.6929133858267716
        },
        {
          "duration": 0.15384600000000015,
          "durationTicks": 128,
          "midi": 71,
          "name": "B4",
          "ticks": 2304,
          "time": 2.7692279999999996,
          "velocity": 0.6929133858267716
        },
        {
          "duration": 0.15384600000000015,
          "durationTicks": 128,
          "midi": 64,
          "name": "E4",
          "ticks": 2304,
          "time": 2.7692279999999996,
          "velocity": 0.6929133858267716
        },
        {
          "duration": 0.15384600000000015,
          "durationTicks": 128,
          "midi": 83,
          "name": "B5",
          "ticks": 2304,
          "time": 2.7692279999999996,
          "velocity": 0.6929133858267716
        },
        {
          "duration": 0.15384600000000015,
          "durationTicks": 128,
          "midi": 83,
          "name": "B5",
          "ticks": 2432,
          "time": 2.9230739999999997,
          "velocity": 0.6929133858267716
        },
        {
          "duration": 0.15384600000000015,
          "durationTicks": 128,
          "midi": 71,
          "name": "B4",
          "ticks": 2432,
          "time": 2.9230739999999997,
          "velocity": 0.6929133858267716
        },
        {
          "duration": 0.15384600000000015,
          "durationTicks": 128,
          "midi": 64,
          "name": "E4",
          "ticks": 2432,
          "time": 2.9230739999999997,
          "velocity": 0.6929133858267716
        },
        {
          "duration": 0.15384600000000015,
          "durationTicks": 128,
          "midi": 80,
          "name": "G#5",
          "ticks": 2432,
          "time": 2.9230739999999997,
          "velocity": 0.6929133858267716
        },
        {
          "duration": 0.15384600000000015,
          "durationTicks": 128,
          "midi": 76,
          "name": "E5",
          "ticks": 2432,
          "time": 2.9230739999999997,
          "velocity": 0.6929133858267716
        },
        {
          "duration": 0.1538459999999997,
          "durationTicks": 128,
          "midi": 76,
          "name": "E5",
          "ticks": 2560,
          "time": 3.07692,
          "velocity": 0.6929133858267716
        },
        {
          "duration": 0.1538459999999997,
          "durationTicks": 128,
          "midi": 83,
          "name": "B5",
          "ticks": 2560,
          "time": 3.07692,
          "velocity": 0.6929133858267716
        },
        {
          "duration": 0.1538459999999997,
          "durationTicks": 128,
          "midi": 80,
          "name": "G#5",
          "ticks": 2560,
          "time": 3.07692,
          "velocity": 0.6929133858267716
        },
        {
          "duration": 0.1538459999999997,
          "durationTicks": 128,
          "midi": 64,
          "name": "E4",
          "ticks": 2560,
          "time": 3.07692,
          "velocity": 0.6929133858267716
        },
        {
          "duration": 0.1538459999999997,
          "durationTicks": 128,
          "midi": 71,
          "name": "B4",
          "ticks": 2560,
          "time": 3.07692,
          "velocity": 0.6929133858267716
        },
        {
          "duration": 0.461538,
          "durationTicks": 384,
          "midi": 80,
          "name": "G#5",
          "ticks": 2688,
          "time": 3.2307659999999996,
          "velocity": 0.6929133858267716
        },
        {
          "duration": 0.461538,
          "durationTicks": 384,
          "midi": 71,
          "name": "B4",
          "ticks": 2688,
          "time": 3.2307659999999996,
          "velocity": 0.6929133858267716
        },
        {
          "duration": 0.461538,
          "durationTicks": 384,
          "midi": 64,
          "name": "E4",
          "ticks": 2688,
          "time": 3.2307659999999996,
          "velocity": 0.6929133858267716
        },
        {
          "duration": 0.461538,
          "durationTicks": 384,
          "midi": 76,
          "name": "E5",
          "ticks": 2688,
          "time": 3.2307659999999996,
          "velocity": 0.6929133858267716
        },
        {
          "duration": 0.461538,
          "durationTicks": 384,
          "midi": 83,
          "name": "B5",
          "ticks": 2688,
          "time": 3.2307659999999996,
          "velocity": 0.6929133858267716
        },
        {
          "duration": 0.230769,
          "durationTicks": 192,
          "midi": 59,
          "name": "B3",
          "ticks": 3072,
          "time": 3.6923039999999996,
          "velocity": 0.6929133858267716
        },
        {
          "duration": 0.230769,
          "durationTicks": 192,
          "midi": 52,
          "name": "E3",
          "ticks": 3072,
          "time": 3.6923039999999996,
          "velocity": 0.6929133858267716
        },
        {
          "duration": 0.23076900000000045,
          "durationTicks": 192,
          "midi": 59,
          "name": "B3",
          "ticks": 3456,
          "time": 4.153841999999999,
          "velocity": 0.6929133858267716
        },
        {
          "duration": 0.23076900000000045,
          "durationTicks": 192,
          "midi": 52,
          "name": "E3",
          "ticks": 3456,
          "time": 4.153841999999999,
          "velocity": 0.6929133858267716
        },
        {
          "duration": 0.34615350000000067,
          "durationTicks": 288,
          "midi": 59,
          "name": "B3",
          "ticks": 3840,
          "time": 4.615379999999999,
          "velocity": 0.6929133858267716
        },
        {
          "duration": 0.34615350000000067,
          "durationTicks": 288,
          "midi": 52,
          "name": "E3",
          "ticks": 3840,
          "time": 4.615379999999999,
          "velocity": 0.6929133858267716
        },
        {
          "duration": 0.11538449999999933,
          "durationTicks": 96,
          "midi": 67,
          "name": "G4",
          "ticks": 4128,
          "time": 4.9615335,
          "velocity": 0.6929133858267716
        },
        {
          "duration": 0.11538449999999933,
          "durationTicks": 96,
          "midi": 62,
          "name": "D4",
          "ticks": 4128,
          "time": 4.9615335,
          "velocity": 0.6929133858267716
        },
        {
          "duration": 0.34615350000000067,
          "durationTicks": 288,
          "midi": 69,
          "name": "A4",
          "ticks": 4224,
          "time": 5.076917999999999,
          "velocity": 0.6929133858267716
        },
        {
          "duration": 0.34615350000000067,
          "durationTicks": 288,
          "midi": 64,
          "name": "E4",
          "ticks": 4224,
          "time": 5.076917999999999,
          "velocity": 0.6929133858267716
        },
        {
          "duration": 0.11538449999999933,
          "durationTicks": 96,
          "midi": 67,
          "name": "G4",
          "ticks": 4512,
          "time": 5.4230715,
          "velocity": 0.6929133858267716
        },
        {
          "duration": 0.11538449999999933,
          "durationTicks": 96,
          "midi": 62,
          "name": "D4",
          "ticks": 4512,
          "time": 5.4230715,
          "velocity": 0.6929133858267716
        },
        {
          "duration": 0.23076900000000045,
          "durationTicks": 192,
          "midi": 59,
          "name": "B3",
          "ticks": 4608,
          "time": 5.538455999999999,
          "velocity": 0.6929133858267716
        },
        {
          "duration": 0.23076900000000045,
          "durationTicks": 192,
          "midi": 52,
          "name": "E3",
          "ticks": 4608,
          "time": 5.538455999999999,
          "velocity": 0.6929133858267716
        },
        {
          "duration": 0.23076900000000045,
          "durationTicks": 192,
          "midi": 59,
          "name": "B3",
          "ticks": 4992,
          "time": 5.999993999999999,
          "velocity": 0.6929133858267716
        },
        {
          "duration": 0.23076900000000045,
          "durationTicks": 192,
          "midi": 52,
          "name": "E3",
          "ticks": 4992,
          "time": 5.999993999999999,
          "velocity": 0.6929133858267716
        },
        {
          "duration": 0.3461534999999998,
          "durationTicks": 288,
          "midi": 59,
          "name": "B3",
          "ticks": 5376,
          "time": 6.461531999999999,
          "velocity": 0.6929133858267716
        },
        {
          "duration": 0.3461534999999998,
          "durationTicks": 288,
          "midi": 52,
          "name": "E3",
          "ticks": 5376,
          "time": 6.461531999999999,
          "velocity": 0.6929133858267716
        },
        {
          "duration": 0.11538450000000022,
          "durationTicks": 96,
          "midi": 67,
          "name": "G4",
          "ticks": 5664,
          "time": 6.807685499999999,
          "velocity": 0.6929133858267716
        },
        {
          "duration": 0.11538450000000022,
          "durationTicks": 96,
          "midi": 62,
          "name": "D4",
          "ticks": 5664,
          "time": 6.807685499999999,
          "velocity": 0.6929133858267716
        },
        {
          "duration": 0.3461534999999998,
          "durationTicks": 288,
          "midi": 69,
          "name": "A4",
          "ticks": 5760,
          "time": 6.923069999999999,
          "velocity": 0.6929133858267716
        },
        {
          "duration": 0.3461534999999998,
          "durationTicks": 288,
          "midi": 64,
          "name": "E4",
          "ticks": 5760,
          "time": 6.923069999999999,
          "velocity": 0.6929133858267716
        },
        {
          "duration": 0.11538450000000022,
          "durationTicks": 96,
          "midi": 67,
          "name": "G4",
          "ticks": 6048,
          "time": 7.269223499999999,
          "velocity": 0.6929133858267716
        },
        {
          "duration": 0.11538450000000022,
          "durationTicks": 96,
          "midi": 62,
          "name": "D4",
          "ticks": 6048,
          "time": 7.269223499999999,
          "velocity": 0.6929133858267716
        },
        {
          "duration": 0.23076899999999956,
          "durationTicks": 192,
          "midi": 59,
          "name": "B3",
          "ticks": 6144,
          "time": 7.384607999999999,
          "velocity": 0.6929133858267716
        },
        {
          "duration": 0.23076899999999956,
          "durationTicks": 192,
          "midi": 52,
          "name": "E3",
          "ticks": 6144,
          "time": 7.384607999999999,
          "velocity": 0.6929133858267716
        },
        {
          "duration": 0.23076900000000045,
          "durationTicks": 192,
          "midi": 59,
          "name": "B3",
          "ticks": 6528,
          "time": 7.846145999999999,
          "velocity": 0.6929133858267716
        },
        {
          "duration": 0.23076900000000045,
          "durationTicks": 192,
          "midi": 52,
          "name": "E3",
          "ticks": 6528,
          "time": 7.846145999999999,
          "velocity": 0.6929133858267716
        },
        {
          "duration": 0.34615350000000156,
          "durationTicks": 288,
          "midi": 59,
          "name": "B3",
          "ticks": 6912,
          "time": 8.307683999999998,
          "velocity": 0.6929133858267716
        },
        {
          "duration": 0.34615350000000156,
          "durationTicks": 288,
          "midi": 52,
          "name": "E3",
          "ticks": 6912,
          "time": 8.307683999999998,
          "velocity": 0.6929133858267716
        },
        {
          "duration": 0.11538449999999933,
          "durationTicks": 96,
          "midi": 67,
          "name": "G4",
          "ticks": 7200,
          "time": 8.6538375,
          "velocity": 0.6929133858267716
        },
        {
          "duration": 0.11538449999999933,
          "durationTicks": 96,
          "midi": 62,
          "name": "D4",
          "ticks": 7200,
          "time": 8.6538375,
          "velocity": 0.6929133858267716
        },
        {
          "duration": 0.3461534999999998,
          "durationTicks": 288,
          "midi": 69,
          "name": "A4",
          "ticks": 7296,
          "time": 8.769222,
          "velocity": 0.6929133858267716
        },
        {
          "duration": 0.3461534999999998,
          "durationTicks": 288,
          "midi": 64,
          "name": "E4",
          "ticks": 7296,
          "time": 8.769222,
          "velocity": 0.6929133858267716
        },
        {
          "duration": 0.11538449999999933,
          "durationTicks": 96,
          "midi": 67,
          "name": "G4",
          "ticks": 7584,
          "time": 9.115375499999999,
          "velocity": 0.6929133858267716
        },
        {
          "duration": 0.11538449999999933,
          "durationTicks": 96,
          "midi": 62,
          "name": "D4",
          "ticks": 7584,
          "time": 9.115375499999999,
          "velocity": 0.6929133858267716
        },
        {
          "duration": 0.23076900000000045,
          "durationTicks": 192,
          "midi": 59,
          "name": "B3",
          "ticks": 7680,
          "time": 9.230759999999998,
          "velocity": 0.6929133858267716
        },
        {
          "duration": 0.23076900000000045,
          "durationTicks": 192,
          "midi": 52,
          "name": "E3",
          "ticks": 7680,
          "time": 9.230759999999998,
          "velocity": 0.6929133858267716
        },
        {
          "duration": 0.23076900000000045,
          "durationTicks": 192,
          "midi": 59,
          "name": "B3",
          "ticks": 8064,
          "time": 9.692298,
          "velocity": 0.6929133858267716
        },
        {
          "duration": 0.23076900000000045,
          "durationTicks": 192,
          "midi": 52,
          "name": "E3",
          "ticks": 8064,
          "time": 9.692298,
          "velocity": 0.6929133858267716
        },
        {
          "duration": 0.3461534999999998,
          "durationTicks": 288,
          "midi": 59,
          "name": "B3",
          "ticks": 8448,
          "time": 10.153835999999998,
          "velocity": 0.6929133858267716
        },
        {
          "duration": 0.3461534999999998,
          "durationTicks": 288,
          "midi": 52,
          "name": "E3",
          "ticks": 8448,
          "time": 10.153835999999998,
          "velocity": 0.6929133858267716
        },
        {
          "duration": 0.11538450000000111,
          "durationTicks": 96,
          "midi": 67,
          "name": "G4",
          "ticks": 8736,
          "time": 10.499989499999998,
          "velocity": 0.6929133858267716
        },
        {
          "duration": 0.11538450000000111,
          "durationTicks": 96,
          "midi": 62,
          "name": "D4",
          "ticks": 8736,
          "time": 10.499989499999998,
          "velocity": 0.6929133858267716
        },
        {
          "duration": 0.3461534999999998,
          "durationTicks": 288,
          "midi": 69,
          "name": "A4",
          "ticks": 8832,
          "time": 10.615374,
          "velocity": 0.6929133858267716
        },
        {
          "duration": 0.3461534999999998,
          "durationTicks": 288,
          "midi": 64,
          "name": "E4",
          "ticks": 8832,
          "time": 10.615374,
          "velocity": 0.6929133858267716
        },
        {
          "duration": 0.11538449999999933,
          "durationTicks": 96,
          "midi": 67,
          "name": "G4",
          "ticks": 9120,
          "time": 10.961527499999999,
          "velocity": 0.6929133858267716
        },
        {
          "duration": 0.11538449999999933,
          "durationTicks": 96,
          "midi": 62,
          "name": "D4",
          "ticks": 9120,
          "time": 10.961527499999999,
          "velocity": 0.6929133858267716
        },
        {
          "duration": 0.23076900000000045,
          "durationTicks": 192,
          "midi": 59,
          "name": "B3",
          "ticks": 9216,
          "time": 11.076911999999998,
          "velocity": 0.6929133858267716
        },
        {
          "duration": 0.23076900000000045,
          "durationTicks": 192,
          "midi": 52,
          "name": "E3",
          "ticks": 9216,
          "time": 11.076911999999998,
          "velocity": 0.6929133858267716
        },
        {
          "duration": 0.23076899999999867,
          "durationTicks": 192,
          "midi": 59,
          "name": "B3",
          "ticks": 9600,
          "time": 11.53845,
          "velocity": 0.6929133858267716
        },
        {
          "duration": 0.23076899999999867,
          "durationTicks": 192,
          "midi": 52,
          "name": "E3",
          "ticks": 9600,
          "time": 11.53845,
          "velocity": 0.6929133858267716
        },
        {
          "duration": 0.3461534999999998,
          "durationTicks": 288,
          "midi": 59,
          "name": "B3",
          "ticks": 9984,
          "time": 11.999987999999998,
          "velocity": 0.6929133858267716
        },
        {
          "duration": 0.3461534999999998,
          "durationTicks": 288,
          "midi": 52,
          "name": "E3",
          "ticks": 9984,
          "time": 11.999987999999998,
          "velocity": 0.6929133858267716
        },
        {
          "duration": 0.11538450000000111,
          "durationTicks": 96,
          "midi": 67,
          "name": "G4",
          "ticks": 10272,
          "time": 12.346141499999998,
          "velocity": 0.6929133858267716
        },
        {
          "duration": 0.11538450000000111,
          "durationTicks": 96,
          "midi": 62,
          "name": "D4",
          "ticks": 10272,
          "time": 12.346141499999998,
          "velocity": 0.6929133858267716
        },
        {
          "duration": 0.3461534999999998,
          "durationTicks": 288,
          "midi": 69,
          "name": "A4",
          "ticks": 10368,
          "time": 12.461526,
          "velocity": 0.6929133858267716
        },
        {
          "duration": 0.3461534999999998,
          "durationTicks": 288,
          "midi": 64,
          "name": "E4",
          "ticks": 10368,
          "time": 12.461526,
          "velocity": 0.6929133858267716
        },
        {
          "duration": 0.11538449999999933,
          "durationTicks": 96,
          "midi": 67,
          "name": "G4",
          "ticks": 10656,
          "time": 12.807679499999999,
          "velocity": 0.6929133858267716
        },
        {
          "duration": 0.11538449999999933,
          "durationTicks": 96,
          "midi": 62,
          "name": "D4",
          "ticks": 10656,
          "time": 12.807679499999999,
          "velocity": 0.6929133858267716
        },
        {
          "duration": 0.23076900000000045,
          "durationTicks": 192,
          "midi": 59,
          "name": "B3",
          "ticks": 10752,
          "time": 12.923063999999998,
          "velocity": 0.6929133858267716
        },
        {
          "duration": 0.23076900000000045,
          "durationTicks": 192,
          "midi": 52,
          "name": "E3",
          "ticks": 10752,
          "time": 12.923063999999998,
          "velocity": 0.6929133858267716
        },
        {
          "duration": 0.23076899999999867,
          "durationTicks": 192,
          "midi": 59,
          "name": "B3",
          "ticks": 11136,
          "time": 13.384602,
          "velocity": 0.6929133858267716
        },
        {
          "duration": 0.23076899999999867,
          "durationTicks": 192,
          "midi": 52,
          "name": "E3",
          "ticks": 11136,
          "time": 13.384602,
          "velocity": 0.6929133858267716
        },
        {
          "duration": 0.3461534999999998,
          "durationTicks": 288,
          "midi": 59,
          "name": "B3",
          "ticks": 11520,
          "time": 13.846139999999998,
          "velocity": 0.6929133858267716
        },
        {
          "duration": 0.3461534999999998,
          "durationTicks": 288,
          "midi": 52,
          "name": "E3",
          "ticks": 11520,
          "time": 13.846139999999998,
          "velocity": 0.6929133858267716
        },
        {
          "duration": 0.11538450000000111,
          "durationTicks": 96,
          "midi": 67,
          "name": "G4",
          "ticks": 11808,
          "time": 14.192293499999998,
          "velocity": 0.6929133858267716
        },
        {
          "duration": 0.11538450000000111,
          "durationTicks": 96,
          "midi": 62,
          "name": "D4",
          "ticks": 11808,
          "time": 14.192293499999998,
          "velocity": 0.6929133858267716
        },
        {
          "duration": 0.3461534999999998,
          "durationTicks": 288,
          "midi": 69,
          "name": "A4",
          "ticks": 11904,
          "time": 14.307678,
          "velocity": 0.6929133858267716
        },
        {
          "duration": 0.3461534999999998,
          "durationTicks": 288,
          "midi": 64,
          "name": "E4",
          "ticks": 11904,
          "time": 14.307678,
          "velocity": 0.6929133858267716
        },
        {
          "duration": 0.11538449999999933,
          "durationTicks": 96,
          "midi": 67,
          "name": "G4",
          "ticks": 12192,
          "time": 14.653831499999999,
          "velocity": 0.6929133858267716
        },
        {
          "duration": 0.11538449999999933,
          "durationTicks": 96,
          "midi": 62,
          "name": "D4",
          "ticks": 12192,
          "time": 14.653831499999999,
          "velocity": 0.6929133858267716
        },
        {
          "duration": 0.23076900000000045,
          "durationTicks": 192,
          "midi": 59,
          "name": "B3",
          "ticks": 12288,
          "time": 14.769215999999998,
          "velocity": 0.6929133858267716
        },
        {
          "duration": 0.23076900000000045,
          "durationTicks": 192,
          "midi": 52,
          "name": "E3",
          "ticks": 12288,
          "time": 14.769215999999998,
          "velocity": 0.6929133858267716
        },
        {
          "duration": 0.23076900000000045,
          "durationTicks": 192,
          "midi": 59,
          "name": "B3",
          "ticks": 12672,
          "time": 15.230753999999997,
          "velocity": 0.6929133858267716
        },
        {
          "duration": 0.23076900000000045,
          "durationTicks": 192,
          "midi": 52,
          "name": "E3",
          "ticks": 12672,
          "time": 15.230753999999997,
          "velocity": 0.6929133858267716
        },
        {
          "duration": 0.3461534999999998,
          "durationTicks": 288,
          "midi": 59,
          "name": "B3",
          "ticks": 13056,
          "time": 15.692291999999998,
          "velocity": 0.6929133858267716
        },
        {
          "duration": 0.3461534999999998,
          "durationTicks": 288,
          "midi": 52,
          "name": "E3",
          "ticks": 13056,
          "time": 15.692291999999998,
          "velocity": 0.6929133858267716
        },
        {
          "duration": 0.11538450000000111,
          "durationTicks": 96,
          "midi": 67,
          "name": "G4",
          "ticks": 13344,
          "time": 16.038445499999998,
          "velocity": 0.6929133858267716
        },
        {
          "duration": 0.11538450000000111,
          "durationTicks": 96,
          "midi": 62,
          "name": "D4",
          "ticks": 13344,
          "time": 16.038445499999998,
          "velocity": 0.6929133858267716
        },
        {
          "duration": 0.3461534999999998,
          "durationTicks": 288,
          "midi": 69,
          "name": "A4",
          "ticks": 13440,
          "time": 16.15383,
          "velocity": 0.6929133858267716
        },
        {
          "duration": 0.3461534999999998,
          "durationTicks": 288,
          "midi": 64,
          "name": "E4",
          "ticks": 13440,
          "time": 16.15383,
          "velocity": 0.6929133858267716
        },
        {
          "duration": 0.11538449999999756,
          "durationTicks": 96,
          "midi": 67,
          "name": "G4",
          "ticks": 13728,
          "time": 16.4999835,
          "velocity": 0.6929133858267716
        },
        {
          "duration": 0.11538449999999756,
          "durationTicks": 96,
          "midi": 62,
          "name": "D4",
          "ticks": 13728,
          "time": 16.4999835,
          "velocity": 0.6929133858267716
        },
        {
          "duration": 0.23076900000000222,
          "durationTicks": 192,
          "midi": 59,
          "name": "B3",
          "ticks": 13824,
          "time": 16.615367999999997,
          "velocity": 0.6929133858267716
        },
        {
          "duration": 0.23076900000000222,
          "durationTicks": 192,
          "midi": 52,
          "name": "E3",
          "ticks": 13824,
          "time": 16.615367999999997,
          "velocity": 0.6929133858267716
        },
        {
          "duration": 0.23076900000000222,
          "durationTicks": 192,
          "midi": 59,
          "name": "B3",
          "ticks": 14208,
          "time": 17.076905999999997,
          "velocity": 0.6929133858267716
        },
        {
          "duration": 0.23076900000000222,
          "durationTicks": 192,
          "midi": 52,
          "name": "E3",
          "ticks": 14208,
          "time": 17.076905999999997,
          "velocity": 0.6929133858267716
        },
        {
          "duration": 0.3461534999999998,
          "durationTicks": 288,
          "midi": 59,
          "name": "B3",
          "ticks": 14592,
          "time": 17.538444,
          "velocity": 0.6929133858267716
        },
        {
          "duration": 0.3461534999999998,
          "durationTicks": 288,
          "midi": 52,
          "name": "E3",
          "ticks": 14592,
          "time": 17.538444,
          "velocity": 0.6929133858267716
        },
        {
          "duration": 0.11538450000000111,
          "durationTicks": 96,
          "midi": 67,
          "name": "G4",
          "ticks": 14880,
          "time": 17.884597499999998,
          "velocity": 0.6929133858267716
        },
        {
          "duration": 0.11538450000000111,
          "durationTicks": 96,
          "midi": 62,
          "name": "D4",
          "ticks": 14880,
          "time": 17.884597499999998,
          "velocity": 0.6929133858267716
        },
        {
          "duration": 0.3461534999999998,
          "durationTicks": 288,
          "midi": 69,
          "name": "A4",
          "ticks": 14976,
          "time": 17.999982,
          "velocity": 0.6929133858267716
        },
        {
          "duration": 0.3461534999999998,
          "durationTicks": 288,
          "midi": 64,
          "name": "E4",
          "ticks": 14976,
          "time": 17.999982,
          "velocity": 0.6929133858267716
        },
        {
          "duration": 0.11538449999999756,
          "durationTicks": 96,
          "midi": 67,
          "name": "G4",
          "ticks": 15264,
          "time": 18.3461355,
          "velocity": 0.6929133858267716
        },
        {
          "duration": 0.11538449999999756,
          "durationTicks": 96,
          "midi": 62,
          "name": "D4",
          "ticks": 15264,
          "time": 18.3461355,
          "velocity": 0.6929133858267716
        },
        {
          "duration": 0.23076900000000222,
          "durationTicks": 192,
          "midi": 59,
          "name": "B3",
          "ticks": 15360,
          "time": 18.461519999999997,
          "velocity": 0.6929133858267716
        },
        {
          "duration": 0.23076900000000222,
          "durationTicks": 192,
          "midi": 52,
          "name": "E3",
          "ticks": 15360,
          "time": 18.461519999999997,
          "velocity": 0.6929133858267716
        },
        {
          "duration": 0.23076899999999867,
          "durationTicks": 192,
          "midi": 59,
          "name": "B3",
          "ticks": 15744,
          "time": 18.923057999999997,
          "velocity": 0.6929133858267716
        },
        {
          "duration": 0.23076899999999867,
          "durationTicks": 192,
          "midi": 52,
          "name": "E3",
          "ticks": 15744,
          "time": 18.923057999999997,
          "velocity": 0.6929133858267716
        },
        {
          "duration": 0.3461534999999998,
          "durationTicks": 288,
          "midi": 59,
          "name": "B3",
          "ticks": 16128,
          "time": 19.384596,
          "velocity": 0.6929133858267716
        },
        {
          "duration": 0.3461534999999998,
          "durationTicks": 288,
          "midi": 52,
          "name": "E3",
          "ticks": 16128,
          "time": 19.384596,
          "velocity": 0.6929133858267716
        },
        {
          "duration": 0.11538450000000111,
          "durationTicks": 96,
          "midi": 67,
          "name": "G4",
          "ticks": 16416,
          "time": 19.730749499999998,
          "velocity": 0.6929133858267716
        },
        {
          "duration": 0.11538450000000111,
          "durationTicks": 96,
          "midi": 62,
          "name": "D4",
          "ticks": 16416,
          "time": 19.730749499999998,
          "velocity": 0.6929133858267716
        },
        {
          "duration": 0.3461534999999998,
          "durationTicks": 288,
          "midi": 69,
          "name": "A4",
          "ticks": 16512,
          "time": 19.846134,
          "velocity": 0.6929133858267716
        },
        {
          "duration": 0.3461534999999998,
          "durationTicks": 288,
          "midi": 64,
          "name": "E4",
          "ticks": 16512,
          "time": 19.846134,
          "velocity": 0.6929133858267716
        },
        {
          "duration": 0.11538449999999756,
          "durationTicks": 96,
          "midi": 67,
          "name": "G4",
          "ticks": 16800,
          "time": 20.1922875,
          "velocity": 0.6929133858267716
        },
        {
          "duration": 0.11538449999999756,
          "durationTicks": 96,
          "midi": 62,
          "name": "D4",
          "ticks": 16800,
          "time": 20.1922875,
          "velocity": 0.6929133858267716
        },
        {
          "duration": 0.23076900000000222,
          "durationTicks": 192,
          "midi": 59,
          "name": "B3",
          "ticks": 16896,
          "time": 20.307671999999997,
          "velocity": 0.6929133858267716
        },
        {
          "duration": 0.23076900000000222,
          "durationTicks": 192,
          "midi": 52,
          "name": "E3",
          "ticks": 16896,
          "time": 20.307671999999997,
          "velocity": 0.6929133858267716
        },
        {
          "duration": 0.23076899999999867,
          "durationTicks": 192,
          "midi": 59,
          "name": "B3",
          "ticks": 17280,
          "time": 20.769209999999998,
          "velocity": 0.6929133858267716
        },
        {
          "duration": 0.23076899999999867,
          "durationTicks": 192,
          "midi": 52,
          "name": "E3",
          "ticks": 17280,
          "time": 20.769209999999998,
          "velocity": 0.6929133858267716
        },
        {
          "duration": 0.3461534999999998,
          "durationTicks": 288,
          "midi": 59,
          "name": "B3",
          "ticks": 17664,
          "time": 21.230748,
          "velocity": 0.6929133858267716
        },
        {
          "duration": 0.3461534999999998,
          "durationTicks": 288,
          "midi": 52,
          "name": "E3",
          "ticks": 17664,
          "time": 21.230748,
          "velocity": 0.6929133858267716
        },
        {
          "duration": 0.11538450000000111,
          "durationTicks": 96,
          "midi": 67,
          "name": "G4",
          "ticks": 17952,
          "time": 21.576901499999998,
          "velocity": 0.6929133858267716
        },
        {
          "duration": 0.11538450000000111,
          "durationTicks": 96,
          "midi": 62,
          "name": "D4",
          "ticks": 17952,
          "time": 21.576901499999998,
          "velocity": 0.6929133858267716
        },
        {
          "duration": 0.3461534999999998,
          "durationTicks": 288,
          "midi": 69,
          "name": "A4",
          "ticks": 18048,
          "time": 21.692286,
          "velocity": 0.6929133858267716
        },
        {
          "duration": 0.3461534999999998,
          "durationTicks": 288,
          "midi": 64,
          "name": "E4",
          "ticks": 18048,
          "time": 21.692286,
          "velocity": 0.6929133858267716
        },
        {
          "duration": 0.11538449999999756,
          "durationTicks": 96,
          "midi": 67,
          "name": "G4",
          "ticks": 18336,
          "time": 22.0384395,
          "velocity": 0.6929133858267716
        },
        {
          "duration": 0.11538449999999756,
          "durationTicks": 96,
          "midi": 62,
          "name": "D4",
          "ticks": 18336,
          "time": 22.0384395,
          "velocity": 0.6929133858267716
        },
        {
          "duration": 0.23076900000000222,
          "durationTicks": 192,
          "midi": 59,
          "name": "B3",
          "ticks": 18432,
          "time": 22.153823999999997,
          "velocity": 0.6929133858267716
        },
        {
          "duration": 0.23076900000000222,
          "durationTicks": 192,
          "midi": 52,
          "name": "E3",
          "ticks": 18432,
          "time": 22.153823999999997,
          "velocity": 0.6929133858267716
        },
        {
          "duration": 0.23076899999999867,
          "durationTicks": 192,
          "midi": 59,
          "name": "B3",
          "ticks": 18816,
          "time": 22.615361999999998,
          "velocity": 0.6929133858267716
        },
        {
          "duration": 0.23076899999999867,
          "durationTicks": 192,
          "midi": 52,
          "name": "E3",
          "ticks": 18816,
          "time": 22.615361999999998,
          "velocity": 0.6929133858267716
        },
        {
          "duration": 0.3461534999999998,
          "durationTicks": 288,
          "midi": 59,
          "name": "B3",
          "ticks": 19200,
          "time": 23.0769,
          "velocity": 0.6929133858267716
        },
        {
          "duration": 0.3461534999999998,
          "durationTicks": 288,
          "midi": 52,
          "name": "E3",
          "ticks": 19200,
          "time": 23.0769,
          "velocity": 0.6929133858267716
        },
        {
          "duration": 0.11538449999999756,
          "durationTicks": 96,
          "midi": 67,
          "name": "G4",
          "ticks": 19488,
          "time": 23.423053499999998,
          "velocity": 0.6929133858267716
        },
        {
          "duration": 0.11538449999999756,
          "durationTicks": 96,
          "midi": 62,
          "name": "D4",
          "ticks": 19488,
          "time": 23.423053499999998,
          "velocity": 0.6929133858267716
        },
        {
          "duration": 0.34615350000000333,
          "durationTicks": 288,
          "midi": 69,
          "name": "A4",
          "ticks": 19584,
          "time": 23.538437999999996,
          "velocity": 0.6929133858267716
        },
        {
          "duration": 0.34615350000000333,
          "durationTicks": 288,
          "midi": 64,
          "name": "E4",
          "ticks": 19584,
          "time": 23.538437999999996,
          "velocity": 0.6929133858267716
        },
        {
          "duration": 0.11538449999999756,
          "durationTicks": 96,
          "midi": 67,
          "name": "G4",
          "ticks": 19872,
          "time": 23.8845915,
          "velocity": 0.6929133858267716
        },
        {
          "duration": 0.11538449999999756,
          "durationTicks": 96,
          "midi": 62,
          "name": "D4",
          "ticks": 19872,
          "time": 23.8845915,
          "velocity": 0.6929133858267716
        },
        {
          "duration": 0.23076900000000222,
          "durationTicks": 192,
          "midi": 59,
          "name": "B3",
          "ticks": 19968,
          "time": 23.999975999999997,
          "velocity": 0.6929133858267716
        },
        {
          "duration": 0.23076900000000222,
          "durationTicks": 192,
          "midi": 52,
          "name": "E3",
          "ticks": 19968,
          "time": 23.999975999999997,
          "velocity": 0.6929133858267716
        },
        {
          "duration": 0.23076899999999867,
          "durationTicks": 192,
          "midi": 59,
          "name": "B3",
          "ticks": 20352,
          "time": 24.461513999999998,
          "velocity": 0.6929133858267716
        },
        {
          "duration": 0.23076899999999867,
          "durationTicks": 192,
          "midi": 52,
          "name": "E3",
          "ticks": 20352,
          "time": 24.461513999999998,
          "velocity": 0.6929133858267716
        },
        {
          "duration": 0.3461534999999998,
          "durationTicks": 288,
          "midi": 59,
          "name": "B3",
          "ticks": 20736,
          "time": 24.923052,
          "velocity": 0.6929133858267716
        },
        {
          "duration": 0.3461534999999998,
          "durationTicks": 288,
          "midi": 52,
          "name": "E3",
          "ticks": 20736,
          "time": 24.923052,
          "velocity": 0.6929133858267716
        },
        {
          "duration": 0.11538449999999756,
          "durationTicks": 96,
          "midi": 67,
          "name": "G4",
          "ticks": 21024,
          "time": 25.269205499999998,
          "velocity": 0.6929133858267716
        },
        {
          "duration": 0.11538449999999756,
          "durationTicks": 96,
          "midi": 62,
          "name": "D4",
          "ticks": 21024,
          "time": 25.269205499999998,
          "velocity": 0.6929133858267716
        },
        {
          "duration": 0.3461534999999998,
          "durationTicks": 288,
          "midi": 69,
          "name": "A4",
          "ticks": 21120,
          "time": 25.384589999999996,
          "velocity": 0.6929133858267716
        },
        {
          "duration": 0.3461534999999998,
          "durationTicks": 288,
          "midi": 64,
          "name": "E4",
          "ticks": 21120,
          "time": 25.384589999999996,
          "velocity": 0.6929133858267716
        },
        {
          "duration": 0.11538450000000111,
          "durationTicks": 96,
          "midi": 67,
          "name": "G4",
          "ticks": 21408,
          "time": 25.730743499999996,
          "velocity": 0.6929133858267716
        },
        {
          "duration": 0.11538450000000111,
          "durationTicks": 96,
          "midi": 62,
          "name": "D4",
          "ticks": 21408,
          "time": 25.730743499999996,
          "velocity": 0.6929133858267716
        },
        {
          "duration": 0.23076899999999867,
          "durationTicks": 192,
          "midi": 59,
          "name": "B3",
          "ticks": 21504,
          "time": 25.846127999999997,
          "velocity": 0.6929133858267716
        },
        {
          "duration": 0.23076899999999867,
          "durationTicks": 192,
          "midi": 52,
          "name": "E3",
          "ticks": 21504,
          "time": 25.846127999999997,
          "velocity": 0.6929133858267716
        },
        {
          "duration": 0.23076899999999867,
          "durationTicks": 192,
          "midi": 59,
          "name": "B3",
          "ticks": 21888,
          "time": 26.307665999999998,
          "velocity": 0.6929133858267716
        },
        {
          "duration": 0.23076899999999867,
          "durationTicks": 192,
          "midi": 52,
          "name": "E3",
          "ticks": 21888,
          "time": 26.307665999999998,
          "velocity": 0.6929133858267716
        },
        {
          "duration": 0.3461534999999998,
          "durationTicks": 288,
          "midi": 59,
          "name": "B3",
          "ticks": 22272,
          "time": 26.769204,
          "velocity": 0.6929133858267716
        },
        {
          "duration": 0.3461534999999998,
          "durationTicks": 288,
          "midi": 52,
          "name": "E3",
          "ticks": 22272,
          "time": 26.769204,
          "velocity": 0.6929133858267716
        },
        {
          "duration": 0.11538449999999756,
          "durationTicks": 96,
          "midi": 67,
          "name": "G4",
          "ticks": 22560,
          "time": 27.1153575,
          "velocity": 0.6929133858267716
        },
        {
          "duration": 0.11538449999999756,
          "durationTicks": 96,
          "midi": 62,
          "name": "D4",
          "ticks": 22560,
          "time": 27.1153575,
          "velocity": 0.6929133858267716
        },
        {
          "duration": 0.3461534999999998,
          "durationTicks": 288,
          "midi": 69,
          "name": "A4",
          "ticks": 22656,
          "time": 27.230741999999996,
          "velocity": 0.6929133858267716
        },
        {
          "duration": 0.3461534999999998,
          "durationTicks": 288,
          "midi": 64,
          "name": "E4",
          "ticks": 22656,
          "time": 27.230741999999996,
          "velocity": 0.6929133858267716
        },
        {
          "duration": 0.11538450000000111,
          "durationTicks": 96,
          "midi": 67,
          "name": "G4",
          "ticks": 22944,
          "time": 27.576895499999996,
          "velocity": 0.6929133858267716
        },
        {
          "duration": 0.11538450000000111,
          "durationTicks": 96,
          "midi": 62,
          "name": "D4",
          "ticks": 22944,
          "time": 27.576895499999996,
          "velocity": 0.6929133858267716
        },
        {
          "duration": 0.23076899999999867,
          "durationTicks": 192,
          "midi": 59,
          "name": "B3",
          "ticks": 23040,
          "time": 27.692279999999997,
          "velocity": 0.6929133858267716
        },
        {
          "duration": 0.23076899999999867,
          "durationTicks": 192,
          "midi": 52,
          "name": "E3",
          "ticks": 23040,
          "time": 27.692279999999997,
          "velocity": 0.6929133858267716
        },
        {
          "duration": 0.23076899999999867,
          "durationTicks": 192,
          "midi": 59,
          "name": "B3",
          "ticks": 23424,
          "time": 28.153817999999998,
          "velocity": 0.6929133858267716
        },
        {
          "duration": 0.23076899999999867,
          "durationTicks": 192,
          "midi": 52,
          "name": "E3",
          "ticks": 23424,
          "time": 28.153817999999998,
          "velocity": 0.6929133858267716
        },
        {
          "duration": 0.3461534999999998,
          "durationTicks": 288,
          "midi": 59,
          "name": "B3",
          "ticks": 23808,
          "time": 28.615356,
          "velocity": 0.6929133858267716
        },
        {
          "duration": 0.3461534999999998,
          "durationTicks": 288,
          "midi": 52,
          "name": "E3",
          "ticks": 23808,
          "time": 28.615356,
          "velocity": 0.6929133858267716
        },
        {
          "duration": 0.11538449999999756,
          "durationTicks": 96,
          "midi": 67,
          "name": "G4",
          "ticks": 24096,
          "time": 28.9615095,
          "velocity": 0.6929133858267716
        },
        {
          "duration": 0.11538449999999756,
          "durationTicks": 96,
          "midi": 62,
          "name": "D4",
          "ticks": 24096,
          "time": 28.9615095,
          "velocity": 0.6929133858267716
        },
        {
          "duration": 0.3461534999999998,
          "durationTicks": 288,
          "midi": 69,
          "name": "A4",
          "ticks": 24192,
          "time": 29.076893999999996,
          "velocity": 0.6929133858267716
        },
        {
          "duration": 0.3461534999999998,
          "durationTicks": 288,
          "midi": 64,
          "name": "E4",
          "ticks": 24192,
          "time": 29.076893999999996,
          "velocity": 0.6929133858267716
        },
        {
          "duration": 0.11538450000000111,
          "durationTicks": 96,
          "midi": 67,
          "name": "G4",
          "ticks": 24480,
          "time": 29.423047499999996,
          "velocity": 0.6929133858267716
        },
        {
          "duration": 0.11538450000000111,
          "durationTicks": 96,
          "midi": 62,
          "name": "D4",
          "ticks": 24480,
          "time": 29.423047499999996,
          "velocity": 0.6929133858267716
        },
        {
          "duration": 0.23076899999999867,
          "durationTicks": 192,
          "midi": 59,
          "name": "B3",
          "ticks": 24576,
          "time": 29.538431999999997,
          "velocity": 0.6929133858267716
        },
        {
          "duration": 0.23076899999999867,
          "durationTicks": 192,
          "midi": 52,
          "name": "E3",
          "ticks": 24576,
          "time": 29.538431999999997,
          "velocity": 0.6929133858267716
        },
        {
          "duration": 0.23076899999999867,
          "durationTicks": 192,
          "midi": 59,
          "name": "B3",
          "ticks": 24960,
          "time": 29.999969999999998,
          "velocity": 0.6929133858267716
        },
        {
          "duration": 0.23076899999999867,
          "durationTicks": 192,
          "midi": 52,
          "name": "E3",
          "ticks": 24960,
          "time": 29.999969999999998,
          "velocity": 0.6929133858267716
        },
        {
          "duration": 0.34615350000000333,
          "durationTicks": 288,
          "midi": 59,
          "name": "B3",
          "ticks": 25344,
          "time": 30.461507999999995,
          "velocity": 0.6929133858267716
        },
        {
          "duration": 0.34615350000000333,
          "durationTicks": 288,
          "midi": 52,
          "name": "E3",
          "ticks": 25344,
          "time": 30.461507999999995,
          "velocity": 0.6929133858267716
        },
        {
          "duration": 0.11538449999999756,
          "durationTicks": 96,
          "midi": 67,
          "name": "G4",
          "ticks": 25632,
          "time": 30.8076615,
          "velocity": 0.6929133858267716
        },
        {
          "duration": 0.11538449999999756,
          "durationTicks": 96,
          "midi": 62,
          "name": "D4",
          "ticks": 25632,
          "time": 30.8076615,
          "velocity": 0.6929133858267716
        },
        {
          "duration": 0.3461534999999998,
          "durationTicks": 288,
          "midi": 69,
          "name": "A4",
          "ticks": 25728,
          "time": 30.923045999999996,
          "velocity": 0.6929133858267716
        },
        {
          "duration": 0.3461534999999998,
          "durationTicks": 288,
          "midi": 64,
          "name": "E4",
          "ticks": 25728,
          "time": 30.923045999999996,
          "velocity": 0.6929133858267716
        },
        {
          "duration": 0.11538450000000111,
          "durationTicks": 96,
          "midi": 67,
          "name": "G4",
          "ticks": 26016,
          "time": 31.269199499999996,
          "velocity": 0.6929133858267716
        },
        {
          "duration": 0.11538450000000111,
          "durationTicks": 96,
          "midi": 62,
          "name": "D4",
          "ticks": 26016,
          "time": 31.269199499999996,
          "velocity": 0.6929133858267716
        },
        {
          "duration": 0.23076899999999867,
          "durationTicks": 192,
          "midi": 59,
          "name": "B3",
          "ticks": 26112,
          "time": 31.384583999999997,
          "velocity": 0.6929133858267716
        },
        {
          "duration": 0.23076899999999867,
          "durationTicks": 192,
          "midi": 52,
          "name": "E3",
          "ticks": 26112,
          "time": 31.384583999999997,
          "velocity": 0.6929133858267716
        },
        {
          "duration": 0.23076899999999867,
          "durationTicks": 192,
          "midi": 59,
          "name": "B3",
          "ticks": 26496,
          "time": 31.846121999999998,
          "velocity": 0.6929133858267716
        },
        {
          "duration": 0.23076899999999867,
          "durationTicks": 192,
          "midi": 52,
          "name": "E3",
          "ticks": 26496,
          "time": 31.846121999999998,
          "velocity": 0.6929133858267716
        },
        {
          "duration": 0.3461534999999998,
          "durationTicks": 288,
          "midi": 59,
          "name": "B3",
          "ticks": 26880,
          "time": 32.30766,
          "velocity": 0.6929133858267716
        },
        {
          "duration": 0.3461534999999998,
          "durationTicks": 288,
          "midi": 52,
          "name": "E3",
          "ticks": 26880,
          "time": 32.30766,
          "velocity": 0.6929133858267716
        },
        {
          "duration": 0.11538449999999756,
          "durationTicks": 96,
          "midi": 67,
          "name": "G4",
          "ticks": 27168,
          "time": 32.6538135,
          "velocity": 0.6929133858267716
        },
        {
          "duration": 0.11538449999999756,
          "durationTicks": 96,
          "midi": 62,
          "name": "D4",
          "ticks": 27168,
          "time": 32.6538135,
          "velocity": 0.6929133858267716
        },
        {
          "duration": 0.3461534999999998,
          "durationTicks": 288,
          "midi": 69,
          "name": "A4",
          "ticks": 27264,
          "time": 32.769197999999996,
          "velocity": 0.6929133858267716
        },
        {
          "duration": 0.3461534999999998,
          "durationTicks": 288,
          "midi": 64,
          "name": "E4",
          "ticks": 27264,
          "time": 32.769197999999996,
          "velocity": 0.6929133858267716
        },
        {
          "duration": 0.11538449999999756,
          "durationTicks": 96,
          "midi": 67,
          "name": "G4",
          "ticks": 27552,
          "time": 33.115351499999996,
          "velocity": 0.6929133858267716
        },
        {
          "duration": 0.11538449999999756,
          "durationTicks": 96,
          "midi": 62,
          "name": "D4",
          "ticks": 27552,
          "time": 33.115351499999996,
          "velocity": 0.6929133858267716
        },
        {
          "duration": 0.23076900000000222,
          "durationTicks": 192,
          "midi": 59,
          "name": "B3",
          "ticks": 27648,
          "time": 33.23073599999999,
          "velocity": 0.6929133858267716
        },
        {
          "duration": 0.23076900000000222,
          "durationTicks": 192,
          "midi": 52,
          "name": "E3",
          "ticks": 27648,
          "time": 33.23073599999999,
          "velocity": 0.6929133858267716
        },
        {
          "duration": 0.23076899999999512,
          "durationTicks": 192,
          "midi": 59,
          "name": "B3",
          "ticks": 28032,
          "time": 33.692274,
          "velocity": 0.6929133858267716
        },
        {
          "duration": 0.23076899999999512,
          "durationTicks": 192,
          "midi": 52,
          "name": "E3",
          "ticks": 28032,
          "time": 33.692274,
          "velocity": 0.6929133858267716
        },
        {
          "duration": 0.3461534999999998,
          "durationTicks": 288,
          "midi": 59,
          "name": "B3",
          "ticks": 28416,
          "time": 34.153811999999995,
          "velocity": 0.6929133858267716
        },
        {
          "duration": 0.3461534999999998,
          "durationTicks": 288,
          "midi": 52,
          "name": "E3",
          "ticks": 28416,
          "time": 34.153811999999995,
          "velocity": 0.6929133858267716
        },
        {
          "duration": 0.11538450000000466,
          "durationTicks": 96,
          "midi": 67,
          "name": "G4",
          "ticks": 28704,
          "time": 34.499965499999995,
          "velocity": 0.6929133858267716
        },
        {
          "duration": 0.11538450000000466,
          "durationTicks": 96,
          "midi": 62,
          "name": "D4",
          "ticks": 28704,
          "time": 34.499965499999995,
          "velocity": 0.6929133858267716
        },
        {
          "duration": 0.3461534999999998,
          "durationTicks": 288,
          "midi": 69,
          "name": "A4",
          "ticks": 28800,
          "time": 34.61535,
          "velocity": 0.6929133858267716
        },
        {
          "duration": 0.3461534999999998,
          "durationTicks": 288,
          "midi": 64,
          "name": "E4",
          "ticks": 28800,
          "time": 34.61535,
          "velocity": 0.6929133858267716
        },
        {
          "duration": 0.11538449999999756,
          "durationTicks": 96,
          "midi": 67,
          "name": "G4",
          "ticks": 29088,
          "time": 34.9615035,
          "velocity": 0.6929133858267716
        },
        {
          "duration": 0.11538449999999756,
          "durationTicks": 96,
          "midi": 62,
          "name": "D4",
          "ticks": 29088,
          "time": 34.9615035,
          "velocity": 0.6929133858267716
        },
        {
          "duration": 0.23076900000000222,
          "durationTicks": 192,
          "midi": 59,
          "name": "B3",
          "ticks": 29184,
          "time": 35.076888,
          "velocity": 0.6929133858267716
        },
        {
          "duration": 0.23076900000000222,
          "durationTicks": 192,
          "midi": 52,
          "name": "E3",
          "ticks": 29184,
          "time": 35.076888,
          "velocity": 0.6929133858267716
        },
        {
          "duration": 0.23076900000000222,
          "durationTicks": 192,
          "midi": 59,
          "name": "B3",
          "ticks": 29568,
          "time": 35.538425999999994,
          "velocity": 0.6929133858267716
        },
        {
          "duration": 0.23076900000000222,
          "durationTicks": 192,
          "midi": 52,
          "name": "E3",
          "ticks": 29568,
          "time": 35.538425999999994,
          "velocity": 0.6929133858267716
        },
        {
          "duration": 0.3461534999999998,
          "durationTicks": 288,
          "midi": 59,
          "name": "B3",
          "ticks": 29952,
          "time": 35.999964,
          "velocity": 0.6929133858267716
        },
        {
          "duration": 0.3461534999999998,
          "durationTicks": 288,
          "midi": 52,
          "name": "E3",
          "ticks": 29952,
          "time": 35.999964,
          "velocity": 0.6929133858267716
        },
        {
          "duration": 0.11538449999999756,
          "durationTicks": 96,
          "midi": 67,
          "name": "G4",
          "ticks": 30240,
          "time": 36.3461175,
          "velocity": 0.6929133858267716
        },
        {
          "duration": 0.11538449999999756,
          "durationTicks": 96,
          "midi": 62,
          "name": "D4",
          "ticks": 30240,
          "time": 36.3461175,
          "velocity": 0.6929133858267716
        },
        {
          "duration": 0.3461534999999998,
          "durationTicks": 288,
          "midi": 69,
          "name": "A4",
          "ticks": 30336,
          "time": 36.461501999999996,
          "velocity": 0.6929133858267716
        },
        {
          "duration": 0.3461534999999998,
          "durationTicks": 288,
          "midi": 64,
          "name": "E4",
          "ticks": 30336,
          "time": 36.461501999999996,
          "velocity": 0.6929133858267716
        },
        {
          "duration": 0.11538449999999756,
          "durationTicks": 96,
          "midi": 67,
          "name": "G4",
          "ticks": 30624,
          "time": 36.807655499999996,
          "velocity": 0.6929133858267716
        },
        {
          "duration": 0.11538449999999756,
          "durationTicks": 96,
          "midi": 62,
          "name": "D4",
          "ticks": 30624,
          "time": 36.807655499999996,
          "velocity": 0.6929133858267716
        },
        {
          "duration": 0.46153800000000444,
          "durationTicks": 384,
          "midi": 68,
          "name": "G#4",
          "ticks": 30720,
          "time": 36.92303999999999,
          "velocity": 0.6929133858267716
        },
        {
          "duration": 0.46153800000000444,
          "durationTicks": 384,
          "midi": 59,
          "name": "B3",
          "ticks": 30720,
          "time": 36.92303999999999,
          "velocity": 0.6929133858267716
        },
        {
          "duration": 0.46153800000000444,
          "durationTicks": 384,
          "midi": 52,
          "name": "E3",
          "ticks": 30720,
          "time": 36.92303999999999,
          "velocity": 0.6929133858267716
        },
        {
          "duration": 0.46153799999999734,
          "durationTicks": 384,
          "midi": 59,
          "name": "B3",
          "ticks": 31104,
          "time": 37.384578,
          "velocity": 0.6929133858267716
        },
        {
          "duration": 0.46153799999999734,
          "durationTicks": 384,
          "midi": 52,
          "name": "E3",
          "ticks": 31104,
          "time": 37.384578,
          "velocity": 0.6929133858267716
        },
        {
          "duration": 0.46153799999999734,
          "durationTicks": 384,
          "midi": 59,
          "name": "B3",
          "ticks": 31488,
          "time": 37.846115999999995,
          "velocity": 0.6929133858267716
        },
        {
          "duration": 0.46153799999999734,
          "durationTicks": 384,
          "midi": 52,
          "name": "E3",
          "ticks": 31488,
          "time": 37.846115999999995,
          "velocity": 0.6929133858267716
        },
        {
          "duration": 0.46153800000000444,
          "durationTicks": 384,
          "midi": 52,
          "name": "E3",
          "ticks": 31872,
          "time": 38.30765399999999,
          "velocity": 0.6929133858267716
        },
        {
          "duration": 0.46153800000000444,
          "durationTicks": 384,
          "midi": 59,
          "name": "B3",
          "ticks": 31872,
          "time": 38.30765399999999,
          "velocity": 0.6929133858267716
        },
        {
          "duration": 0.46153799999999734,
          "durationTicks": 384,
          "midi": 66,
          "name": "F#4",
          "ticks": 32256,
          "time": 38.769192,
          "velocity": 0.6929133858267716
        },
        {
          "duration": 0.46153799999999734,
          "durationTicks": 384,
          "midi": 59,
          "name": "B3",
          "ticks": 32256,
          "time": 38.769192,
          "velocity": 0.6929133858267716
        },
        {
          "duration": 0.46153800000000444,
          "durationTicks": 384,
          "midi": 68,
          "name": "G#4",
          "ticks": 32640,
          "time": 39.230729999999994,
          "velocity": 0.6929133858267716
        },
        {
          "duration": 0.46153800000000444,
          "durationTicks": 384,
          "midi": 59,
          "name": "B3",
          "ticks": 32640,
          "time": 39.230729999999994,
          "velocity": 0.6929133858267716
        },
        {
          "duration": 0.30769199999999586,
          "durationTicks": 256,
          "midi": 59,
          "name": "B3",
          "ticks": 33024,
          "time": 39.692268,
          "velocity": 0.6929133858267716
        },
        {
          "duration": 0.30769199999999586,
          "durationTicks": 256,
          "midi": 68,
          "name": "G#4",
          "ticks": 33024,
          "time": 39.692268,
          "velocity": 0.6929133858267716
        },
        {
          "duration": 0.30769199999999586,
          "durationTicks": 256,
          "midi": 66,
          "name": "F#4",
          "ticks": 33280,
          "time": 39.999959999999994,
          "velocity": 0.6929133858267716
        },
        {
          "duration": 0.30769199999999586,
          "durationTicks": 256,
          "midi": 59,
          "name": "B3",
          "ticks": 33280,
          "time": 39.999959999999994,
          "velocity": 0.6929133858267716
        },
        {
          "duration": 0.15384599999999438,
          "durationTicks": 128,
          "midi": 66,
          "name": "F#4",
          "ticks": 33664,
          "time": 40.461498,
          "velocity": 0.6929133858267716
        },
        {
          "duration": 0.15384599999999438,
          "durationTicks": 128,
          "midi": 59,
          "name": "B3",
          "ticks": 33664,
          "time": 40.461498,
          "velocity": 0.6929133858267716
        },
        {
          "duration": 0.30769200000000296,
          "durationTicks": 256,
          "midi": 68,
          "name": "G#4",
          "ticks": 33792,
          "time": 40.61534399999999,
          "velocity": 0.6929133858267716
        },
        {
          "duration": 0.30769200000000296,
          "durationTicks": 256,
          "midi": 59,
          "name": "B3",
          "ticks": 33792,
          "time": 40.61534399999999,
          "velocity": 0.6929133858267716
        },
        {
          "duration": 0.15384600000000148,
          "durationTicks": 128,
          "midi": 59,
          "name": "B3",
          "ticks": 34048,
          "time": 40.923035999999996,
          "velocity": 0.6929133858267716
        },
        {
          "duration": 0.15384600000000148,
          "durationTicks": 128,
          "midi": 66,
          "name": "F#4",
          "ticks": 34048,
          "time": 40.923035999999996,
          "velocity": 0.6929133858267716
        },
        {
          "duration": 0.30769200000000296,
          "durationTicks": 256,
          "midi": 68,
          "name": "G#4",
          "ticks": 34176,
          "time": 41.076882,
          "velocity": 0.6929133858267716
        },
        {
          "duration": 0.30769200000000296,
          "durationTicks": 256,
          "midi": 59,
          "name": "B3",
          "ticks": 34176,
          "time": 41.076882,
          "velocity": 0.6929133858267716
        },
        {
          "duration": 0.46153799999999734,
          "durationTicks": 384,
          "midi": 71,
          "name": "B4",
          "ticks": 34416,
          "time": 41.365343249999995,
          "velocity": 0.6929133858267716
        },
        {
          "duration": 0.46153799999999734,
          "durationTicks": 384,
          "midi": 66,
          "name": "F#4",
          "ticks": 34416,
          "time": 41.365343249999995,
          "velocity": 0.6929133858267716
        },
        {
          "duration": 0.46153799999999734,
          "durationTicks": 384,
          "midi": 59,
          "name": "B3",
          "ticks": 34416,
          "time": 41.365343249999995,
          "velocity": 0.6929133858267716
        },
        {
          "duration": 0.15384599999999438,
          "durationTicks": 128,
          "midi": 66,
          "name": "F#4",
          "ticks": 34816,
          "time": 41.846112,
          "velocity": 0.6929133858267716
        },
        {
          "duration": 0.15384599999999438,
          "durationTicks": 128,
          "midi": 59,
          "name": "B3",
          "ticks": 34816,
          "time": 41.846112,
          "velocity": 0.6929133858267716
        },
        {
          "duration": 0.30769200000000296,
          "durationTicks": 256,
          "midi": 68,
          "name": "G#4",
          "ticks": 34944,
          "time": 41.99995799999999,
          "velocity": 0.6929133858267716
        },
        {
          "duration": 0.30769200000000296,
          "durationTicks": 256,
          "midi": 59,
          "name": "B3",
          "ticks": 34944,
          "time": 41.99995799999999,
          "velocity": 0.6929133858267716
        },
        {
          "duration": 0.15384600000000148,
          "durationTicks": 128,
          "midi": 66,
          "name": "F#4",
          "ticks": 35200,
          "time": 42.307649999999995,
          "velocity": 0.6929133858267716
        },
        {
          "duration": 0.15384600000000148,
          "durationTicks": 128,
          "midi": 59,
          "name": "B3",
          "ticks": 35200,
          "time": 42.307649999999995,
          "velocity": 0.6929133858267716
        },
        {
          "duration": 0.46153799999999734,
          "durationTicks": 384,
          "midi": 66,
          "name": "F#4",
          "ticks": 35328,
          "time": 42.461496,
          "velocity": 0.6929133858267716
        },
        {
          "duration": 0.46153799999999734,
          "durationTicks": 384,
          "midi": 59,
          "name": "B3",
          "ticks": 35328,
          "time": 42.461496,
          "velocity": 0.6929133858267716
        },
        {
          "duration": 0.46153800000000444,
          "durationTicks": 384,
          "midi": 68,
          "name": "G#4",
          "ticks": 35712,
          "time": 42.923033999999994,
          "velocity": 0.6929133858267716
        },
        {
          "duration": 0.46153800000000444,
          "durationTicks": 384,
          "midi": 59,
          "name": "B3",
          "ticks": 35712,
          "time": 42.923033999999994,
          "velocity": 0.6929133858267716
        },
        {
          "duration": 0.30769199999999586,
          "durationTicks": 256,
          "midi": 59,
          "name": "B3",
          "ticks": 36096,
          "time": 43.384572,
          "velocity": 0.6929133858267716
        },
        {
          "duration": 0.30769199999999586,
          "durationTicks": 256,
          "midi": 68,
          "name": "G#4",
          "ticks": 36096,
          "time": 43.384572,
          "velocity": 0.6929133858267716
        },
        {
          "duration": 0.30769199999999586,
          "durationTicks": 256,
          "midi": 66,
          "name": "F#4",
          "ticks": 36352,
          "time": 43.692263999999994,
          "velocity": 0.6929133858267716
        },
        {
          "duration": 0.30769199999999586,
          "durationTicks": 256,
          "midi": 59,
          "name": "B3",
          "ticks": 36352,
          "time": 43.692263999999994,
          "velocity": 0.6929133858267716
        },
        {
          "duration": 0.15384599999999438,
          "durationTicks": 128,
          "midi": 66,
          "name": "F#4",
          "ticks": 36736,
          "time": 44.153802,
          "velocity": 0.6929133858267716
        },
        {
          "duration": 0.15384599999999438,
          "durationTicks": 128,
          "midi": 59,
          "name": "B3",
          "ticks": 36736,
          "time": 44.153802,
          "velocity": 0.6929133858267716
        },
        {
          "duration": 0.30769200000000296,
          "durationTicks": 256,
          "midi": 68,
          "name": "G#4",
          "ticks": 36864,
          "time": 44.30764799999999,
          "velocity": 0.6929133858267716
        },
        {
          "duration": 0.30769200000000296,
          "durationTicks": 256,
          "midi": 59,
          "name": "B3",
          "ticks": 36864,
          "time": 44.30764799999999,
          "velocity": 0.6929133858267716
        },
        {
          "duration": 0.15384600000000148,
          "durationTicks": 128,
          "midi": 59,
          "name": "B3",
          "ticks": 37120,
          "time": 44.615339999999996,
          "velocity": 0.6929133858267716
        },
        {
          "duration": 0.15384600000000148,
          "durationTicks": 128,
          "midi": 66,
          "name": "F#4",
          "ticks": 37120,
          "time": 44.615339999999996,
          "velocity": 0.6929133858267716
        },
        {
          "duration": 0.30769200000000296,
          "durationTicks": 256,
          "midi": 68,
          "name": "G#4",
          "ticks": 37248,
          "time": 44.769186,
          "velocity": 0.6929133858267716
        },
        {
          "duration": 0.30769200000000296,
          "durationTicks": 256,
          "midi": 59,
          "name": "B3",
          "ticks": 37248,
          "time": 44.769186,
          "velocity": 0.6929133858267716
        },
        {
          "duration": 0.46153799999999734,
          "durationTicks": 384,
          "midi": 71,
          "name": "B4",
          "ticks": 37488,
          "time": 45.057647249999995,
          "velocity": 0.6929133858267716
        },
        {
          "duration": 0.46153799999999734,
          "durationTicks": 384,
          "midi": 66,
          "name": "F#4",
          "ticks": 37488,
          "time": 45.057647249999995,
          "velocity": 0.6929133858267716
        },
        {
          "duration": 0.46153799999999734,
          "durationTicks": 384,
          "midi": 59,
          "name": "B3",
          "ticks": 37488,
          "time": 45.057647249999995,
          "velocity": 0.6929133858267716
        },
        {
          "duration": 0.15384599999999438,
          "durationTicks": 128,
          "midi": 66,
          "name": "F#4",
          "ticks": 37888,
          "time": 45.538416,
          "velocity": 0.6929133858267716
        },
        {
          "duration": 0.15384599999999438,
          "durationTicks": 128,
          "midi": 59,
          "name": "B3",
          "ticks": 37888,
          "time": 45.538416,
          "velocity": 0.6929133858267716
        },
        {
          "duration": 0.30769200000000296,
          "durationTicks": 256,
          "midi": 68,
          "name": "G#4",
          "ticks": 38016,
          "time": 45.69226199999999,
          "velocity": 0.6929133858267716
        },
        {
          "duration": 0.30769200000000296,
          "durationTicks": 256,
          "midi": 59,
          "name": "B3",
          "ticks": 38016,
          "time": 45.69226199999999,
          "velocity": 0.6929133858267716
        },
        {
          "duration": 0.15384600000000148,
          "durationTicks": 128,
          "midi": 66,
          "name": "F#4",
          "ticks": 38272,
          "time": 45.999953999999995,
          "velocity": 0.6929133858267716
        },
        {
          "duration": 0.15384600000000148,
          "durationTicks": 128,
          "midi": 59,
          "name": "B3",
          "ticks": 38272,
          "time": 45.999953999999995,
          "velocity": 0.6929133858267716
        },
        {
          "duration": 0.46153799999999734,
          "durationTicks": 384,
          "midi": 66,
          "name": "F#4",
          "ticks": 38400,
          "time": 46.1538,
          "velocity": 0.6929133858267716
        },
        {
          "duration": 0.46153799999999734,
          "durationTicks": 384,
          "midi": 59,
          "name": "B3",
          "ticks": 38400,
          "time": 46.1538,
          "velocity": 0.6929133858267716
        },
        {
          "duration": 0.46153799999999734,
          "durationTicks": 384,
          "midi": 68,
          "name": "G#4",
          "ticks": 38784,
          "time": 46.615337999999994,
          "velocity": 0.6929133858267716
        },
        {
          "duration": 0.46153799999999734,
          "durationTicks": 384,
          "midi": 59,
          "name": "B3",
          "ticks": 38784,
          "time": 46.615337999999994,
          "velocity": 0.6929133858267716
        },
        {
          "duration": 0.30769200000000296,
          "durationTicks": 256,
          "midi": 59,
          "name": "B3",
          "ticks": 39168,
          "time": 47.07687599999999,
          "velocity": 0.6929133858267716
        },
        {
          "duration": 0.30769200000000296,
          "durationTicks": 256,
          "midi": 68,
          "name": "G#4",
          "ticks": 39168,
          "time": 47.07687599999999,
          "velocity": 0.6929133858267716
        },
        {
          "duration": 0.30769199999999586,
          "durationTicks": 256,
          "midi": 66,
          "name": "F#4",
          "ticks": 39424,
          "time": 47.384567999999994,
          "velocity": 0.6929133858267716
        },
        {
          "duration": 0.30769199999999586,
          "durationTicks": 256,
          "midi": 59,
          "name": "B3",
          "ticks": 39424,
          "time": 47.384567999999994,
          "velocity": 0.6929133858267716
        },
        {
          "duration": 0.15384599999999438,
          "durationTicks": 128,
          "midi": 66,
          "name": "F#4",
          "ticks": 39808,
          "time": 47.846106,
          "velocity": 0.6929133858267716
        },
        {
          "duration": 0.15384599999999438,
          "durationTicks": 128,
          "midi": 59,
          "name": "B3",
          "ticks": 39808,
          "time": 47.846106,
          "velocity": 0.6929133858267716
        },
        {
          "duration": 0.30769200000000296,
          "durationTicks": 256,
          "midi": 68,
          "name": "G#4",
          "ticks": 39936,
          "time": 47.99995199999999,
          "velocity": 0.6929133858267716
        },
        {
          "duration": 0.30769200000000296,
          "durationTicks": 256,
          "midi": 59,
          "name": "B3",
          "ticks": 39936,
          "time": 47.99995199999999,
          "velocity": 0.6929133858267716
        },
        {
          "duration": 0.15384599999999438,
          "durationTicks": 128,
          "midi": 59,
          "name": "B3",
          "ticks": 40192,
          "time": 48.307643999999996,
          "velocity": 0.6929133858267716
        },
        {
          "duration": 0.15384599999999438,
          "durationTicks": 128,
          "midi": 66,
          "name": "F#4",
          "ticks": 40192,
          "time": 48.307643999999996,
          "velocity": 0.6929133858267716
        },
        {
          "duration": 0.30769200000000296,
          "durationTicks": 256,
          "midi": 68,
          "name": "G#4",
          "ticks": 40320,
          "time": 48.46148999999999,
          "velocity": 0.6929133858267716
        },
        {
          "duration": 0.30769200000000296,
          "durationTicks": 256,
          "midi": 59,
          "name": "B3",
          "ticks": 40320,
          "time": 48.46148999999999,
          "velocity": 0.6929133858267716
        },
        {
          "duration": 0.46153799999999734,
          "durationTicks": 384,
          "midi": 71,
          "name": "B4",
          "ticks": 40560,
          "time": 48.749951249999995,
          "velocity": 0.6929133858267716
        },
        {
          "duration": 0.46153799999999734,
          "durationTicks": 384,
          "midi": 66,
          "name": "F#4",
          "ticks": 40560,
          "time": 48.749951249999995,
          "velocity": 0.6929133858267716
        },
        {
          "duration": 0.46153799999999734,
          "durationTicks": 384,
          "midi": 59,
          "name": "B3",
          "ticks": 40560,
          "time": 48.749951249999995,
          "velocity": 0.6929133858267716
        },
        {
          "duration": 0.15384600000000148,
          "durationTicks": 128,
          "midi": 66,
          "name": "F#4",
          "ticks": 40960,
          "time": 49.23071999999999,
          "velocity": 0.6929133858267716
        },
        {
          "duration": 0.15384600000000148,
          "durationTicks": 128,
          "midi": 59,
          "name": "B3",
          "ticks": 40960,
          "time": 49.23071999999999,
          "velocity": 0.6929133858267716
        },
        {
          "duration": 0.30769200000000296,
          "durationTicks": 256,
          "midi": 68,
          "name": "G#4",
          "ticks": 41088,
          "time": 49.38456599999999,
          "velocity": 0.6929133858267716
        },
        {
          "duration": 0.30769200000000296,
          "durationTicks": 256,
          "midi": 59,
          "name": "B3",
          "ticks": 41088,
          "time": 49.38456599999999,
          "velocity": 0.6929133858267716
        },
        {
          "duration": 0.15384599999999438,
          "durationTicks": 128,
          "midi": 66,
          "name": "F#4",
          "ticks": 41344,
          "time": 49.692257999999995,
          "velocity": 0.6929133858267716
        },
        {
          "duration": 0.15384599999999438,
          "durationTicks": 128,
          "midi": 59,
          "name": "B3",
          "ticks": 41344,
          "time": 49.692257999999995,
          "velocity": 0.6929133858267716
        },
        {
          "duration": 0.46153800000000444,
          "durationTicks": 384,
          "midi": 66,
          "name": "F#4",
          "ticks": 41472,
          "time": 49.84610399999999,
          "velocity": 0.6929133858267716
        },
        {
          "duration": 0.46153800000000444,
          "durationTicks": 384,
          "midi": 59,
          "name": "B3",
          "ticks": 41472,
          "time": 49.84610399999999,
          "velocity": 0.6929133858267716
        },
        {
          "duration": 0.46153799999999734,
          "durationTicks": 384,
          "midi": 68,
          "name": "G#4",
          "ticks": 41856,
          "time": 50.307641999999994,
          "velocity": 0.6929133858267716
        },
        {
          "duration": 0.46153799999999734,
          "durationTicks": 384,
          "midi": 59,
          "name": "B3",
          "ticks": 41856,
          "time": 50.307641999999994,
          "velocity": 0.6929133858267716
        },
        {
          "duration": 0.30769200000000296,
          "durationTicks": 256,
          "midi": 59,
          "name": "B3",
          "ticks": 42240,
          "time": 50.76917999999999,
          "velocity": 0.6929133858267716
        },
        {
          "duration": 0.30769200000000296,
          "durationTicks": 256,
          "midi": 68,
          "name": "G#4",
          "ticks": 42240,
          "time": 50.76917999999999,
          "velocity": 0.6929133858267716
        },
        {
          "duration": 0.30769199999999586,
          "durationTicks": 256,
          "midi": 66,
          "name": "F#4",
          "ticks": 42496,
          "time": 51.076871999999995,
          "velocity": 0.6929133858267716
        },
        {
          "duration": 0.30769199999999586,
          "durationTicks": 256,
          "midi": 59,
          "name": "B3",
          "ticks": 42496,
          "time": 51.076871999999995,
          "velocity": 0.6929133858267716
        },
        {
          "duration": 0.15384600000000148,
          "durationTicks": 128,
          "midi": 66,
          "name": "F#4",
          "ticks": 42880,
          "time": 51.53840999999999,
          "velocity": 0.6929133858267716
        },
        {
          "duration": 0.15384600000000148,
          "durationTicks": 128,
          "midi": 59,
          "name": "B3",
          "ticks": 42880,
          "time": 51.53840999999999,
          "velocity": 0.6929133858267716
        },
        {
          "duration": 0.30769199999999586,
          "durationTicks": 256,
          "midi": 68,
          "name": "G#4",
          "ticks": 43008,
          "time": 51.69225599999999,
          "velocity": 0.6929133858267716
        },
        {
          "duration": 0.30769199999999586,
          "durationTicks": 256,
          "midi": 59,
          "name": "B3",
          "ticks": 43008,
          "time": 51.69225599999999,
          "velocity": 0.6929133858267716
        },
        {
          "duration": 0.15384600000000148,
          "durationTicks": 128,
          "midi": 59,
          "name": "B3",
          "ticks": 43264,
          "time": 51.99994799999999,
          "velocity": 0.6929133858267716
        },
        {
          "duration": 0.15384600000000148,
          "durationTicks": 128,
          "midi": 66,
          "name": "F#4",
          "ticks": 43264,
          "time": 51.99994799999999,
          "velocity": 0.6929133858267716
        },
        {
          "duration": 0.30769200000000296,
          "durationTicks": 256,
          "midi": 68,
          "name": "G#4",
          "ticks": 43392,
          "time": 52.15379399999999,
          "velocity": 0.6929133858267716
        },
        {
          "duration": 0.30769200000000296,
          "durationTicks": 256,
          "midi": 59,
          "name": "B3",
          "ticks": 43392,
          "time": 52.15379399999999,
          "velocity": 0.6929133858267716
        },
        {
          "duration": 0.46153799999999734,
          "durationTicks": 384,
          "midi": 71,
          "name": "B4",
          "ticks": 43632,
          "time": 52.442255249999995,
          "velocity": 0.6929133858267716
        },
        {
          "duration": 0.46153799999999734,
          "durationTicks": 384,
          "midi": 66,
          "name": "F#4",
          "ticks": 43632,
          "time": 52.442255249999995,
          "velocity": 0.6929133858267716
        },
        {
          "duration": 0.46153799999999734,
          "durationTicks": 384,
          "midi": 59,
          "name": "B3",
          "ticks": 43632,
          "time": 52.442255249999995,
          "velocity": 0.6929133858267716
        },
        {
          "duration": 0.15384600000000148,
          "durationTicks": 128,
          "midi": 66,
          "name": "F#4",
          "ticks": 44032,
          "time": 52.92302399999999,
          "velocity": 0.6929133858267716
        },
        {
          "duration": 0.15384600000000148,
          "durationTicks": 128,
          "midi": 59,
          "name": "B3",
          "ticks": 44032,
          "time": 52.92302399999999,
          "velocity": 0.6929133858267716
        },
        {
          "duration": 0.30769200000000296,
          "durationTicks": 256,
          "midi": 68,
          "name": "G#4",
          "ticks": 44160,
          "time": 53.07686999999999,
          "velocity": 0.6929133858267716
        },
        {
          "duration": 0.30769200000000296,
          "durationTicks": 256,
          "midi": 59,
          "name": "B3",
          "ticks": 44160,
          "time": 53.07686999999999,
          "velocity": 0.6929133858267716
        },
        {
          "duration": 0.15384599999999438,
          "durationTicks": 128,
          "midi": 66,
          "name": "F#4",
          "ticks": 44416,
          "time": 53.384561999999995,
          "velocity": 0.6929133858267716
        },
        {
          "duration": 0.15384599999999438,
          "durationTicks": 128,
          "midi": 59,
          "name": "B3",
          "ticks": 44416,
          "time": 53.384561999999995,
          "velocity": 0.6929133858267716
        },
        {
          "duration": 0.46153800000000444,
          "durationTicks": 384,
          "midi": 64,
          "name": "E4",
          "ticks": 44544,
          "time": 53.53840799999999,
          "velocity": 0.6929133858267716
        },
        {
          "duration": 0.46153800000000444,
          "durationTicks": 384,
          "midi": 57,
          "name": "A3",
          "ticks": 44544,
          "time": 53.53840799999999,
          "velocity": 0.6929133858267716
        },
        {
          "duration": 0.46153799999999734,
          "durationTicks": 384,
          "midi": 66,
          "name": "F#4",
          "ticks": 44928,
          "time": 53.999945999999994,
          "velocity": 0.6929133858267716
        },
        {
          "duration": 0.46153799999999734,
          "durationTicks": 384,
          "midi": 57,
          "name": "A3",
          "ticks": 44928,
          "time": 53.999945999999994,
          "velocity": 0.6929133858267716
        },
        {
          "duration": 0.30769200000000296,
          "durationTicks": 256,
          "midi": 57,
          "name": "A3",
          "ticks": 45312,
          "time": 54.46148399999999,
          "velocity": 0.6929133858267716
        },
        {
          "duration": 0.30769200000000296,
          "durationTicks": 256,
          "midi": 66,
          "name": "F#4",
          "ticks": 45312,
          "time": 54.46148399999999,
          "velocity": 0.6929133858267716
        },
        {
          "duration": 0.30769199999999586,
          "durationTicks": 256,
          "midi": 64,
          "name": "E4",
          "ticks": 45568,
          "time": 54.769175999999995,
          "velocity": 0.6929133858267716
        },
        {
          "duration": 0.30769199999999586,
          "durationTicks": 256,
          "midi": 57,
          "name": "A3",
          "ticks": 45568,
          "time": 54.769175999999995,
          "velocity": 0.6929133858267716
        },
        {
          "duration": 0.15384600000000148,
          "durationTicks": 128,
          "midi": 64,
          "name": "E4",
          "ticks": 45952,
          "time": 55.23071399999999,
          "velocity": 0.6929133858267716
        },
        {
          "duration": 0.15384600000000148,
          "durationTicks": 128,
          "midi": 57,
          "name": "A3",
          "ticks": 45952,
          "time": 55.23071399999999,
          "velocity": 0.6929133858267716
        },
        {
          "duration": 0.30769200000000296,
          "durationTicks": 256,
          "midi": 66,
          "name": "F#4",
          "ticks": 46080,
          "time": 55.38455999999999,
          "velocity": 0.6929133858267716
        },
        {
          "duration": 0.30769200000000296,
          "durationTicks": 256,
          "midi": 57,
          "name": "A3",
          "ticks": 46080,
          "time": 55.38455999999999,
          "velocity": 0.6929133858267716
        },
        {
          "duration": 0.30769200000000296,
          "durationTicks": 256,
          "midi": 73,
          "name": "C#5",
          "ticks": 46080,
          "time": 55.38455999999999,
          "velocity": 0.6929133858267716
        },
        {
          "duration": 0.15384599999999438,
          "durationTicks": 128,
          "midi": 57,
          "name": "A3",
          "ticks": 46336,
          "time": 55.692251999999996,
          "velocity": 0.6929133858267716
        },
        {
          "duration": 0.15384599999999438,
          "durationTicks": 128,
          "midi": 64,
          "name": "E4",
          "ticks": 46336,
          "time": 55.692251999999996,
          "velocity": 0.6929133858267716
        },
        {
          "duration": 0.15384599999999438,
          "durationTicks": 128,
          "midi": 76,
          "name": "E5",
          "ticks": 46336,
          "time": 55.692251999999996,
          "velocity": 0.6929133858267716
        },
        {
          "duration": 0.30769200000000296,
          "durationTicks": 256,
          "midi": 66,
          "name": "F#4",
          "ticks": 46464,
          "time": 55.84609799999999,
          "velocity": 0.6929133858267716
        },
        {
          "duration": 0.30769200000000296,
          "durationTicks": 256,
          "midi": 57,
          "name": "A3",
          "ticks": 46464,
          "time": 55.84609799999999,
          "velocity": 0.6929133858267716
        },
        {
          "duration": 0.30769200000000296,
          "durationTicks": 256,
          "midi": 79,
          "name": "G5",
          "ticks": 46464,
          "time": 55.84609799999999,
          "velocity": 0.6929133858267716
        },
        {
          "duration": 0.46153799999999734,
          "durationTicks": 384,
          "midi": 69,
          "name": "A4",
          "ticks": 46704,
          "time": 56.134559249999995,
          "velocity": 0.6929133858267716
        },
        {
          "duration": 0.46153799999999734,
          "durationTicks": 384,
          "midi": 64,
          "name": "E4",
          "ticks": 46704,
          "time": 56.134559249999995,
          "velocity": 0.6929133858267716
        },
        {
          "duration": 0.46153799999999734,
          "durationTicks": 384,
          "midi": 57,
          "name": "A3",
          "ticks": 46704,
          "time": 56.134559249999995,
          "velocity": 0.6929133858267716
        },
        {
          "duration": 0.6923069999999996,
          "durationTicks": 576,
          "midi": 78,
          "name": "F#5",
          "ticks": 46704,
          "time": 56.134559249999995,
          "velocity": 0.6929133858267716
        },
        {
          "duration": 0.15384600000000148,
          "durationTicks": 128,
          "midi": 64,
          "name": "E4",
          "ticks": 47104,
          "time": 56.61532799999999,
          "velocity": 0.6929133858267716
        },
        {
          "duration": 0.15384600000000148,
          "durationTicks": 128,
          "midi": 57,
          "name": "A3",
          "ticks": 47104,
          "time": 56.61532799999999,
          "velocity": 0.6929133858267716
        },
        {
          "duration": 0.30769200000000296,
          "durationTicks": 256,
          "midi": 66,
          "name": "F#4",
          "ticks": 47232,
          "time": 56.76917399999999,
          "velocity": 0.6929133858267716
        },
        {
          "duration": 0.30769200000000296,
          "durationTicks": 256,
          "midi": 57,
          "name": "A3",
          "ticks": 47232,
          "time": 56.76917399999999,
          "velocity": 0.6929133858267716
        },
        {
          "duration": 0.15384599999999438,
          "durationTicks": 128,
          "midi": 64,
          "name": "E4",
          "ticks": 47488,
          "time": 57.076865999999995,
          "velocity": 0.6929133858267716
        },
        {
          "duration": 0.15384599999999438,
          "durationTicks": 128,
          "midi": 57,
          "name": "A3",
          "ticks": 47488,
          "time": 57.076865999999995,
          "velocity": 0.6929133858267716
        },
        {
          "duration": 0.46153800000000444,
          "durationTicks": 384,
          "midi": 64,
          "name": "E4",
          "ticks": 47616,
          "time": 57.23071199999999,
          "velocity": 0.6929133858267716
        },
        {
          "duration": 0.46153800000000444,
          "durationTicks": 384,
          "midi": 57,
          "name": "A3",
          "ticks": 47616,
          "time": 57.23071199999999,
          "velocity": 0.6929133858267716
        },
        {
          "duration": 0.46153799999999734,
          "durationTicks": 384,
          "midi": 66,
          "name": "F#4",
          "ticks": 48000,
          "time": 57.692249999999994,
          "velocity": 0.6929133858267716
        },
        {
          "duration": 0.46153799999999734,
          "durationTicks": 384,
          "midi": 57,
          "name": "A3",
          "ticks": 48000,
          "time": 57.692249999999994,
          "velocity": 0.6929133858267716
        },
        {
          "duration": 0.30769200000000296,
          "durationTicks": 256,
          "midi": 57,
          "name": "A3",
          "ticks": 48384,
          "time": 58.15378799999999,
          "velocity": 0.6929133858267716
        },
        {
          "duration": 0.30769200000000296,
          "durationTicks": 256,
          "midi": 66,
          "name": "F#4",
          "ticks": 48384,
          "time": 58.15378799999999,
          "velocity": 0.6929133858267716
        },
        {
          "duration": 0.30769199999999586,
          "durationTicks": 256,
          "midi": 64,
          "name": "E4",
          "ticks": 48640,
          "time": 58.461479999999995,
          "velocity": 0.6929133858267716
        },
        {
          "duration": 0.30769199999999586,
          "durationTicks": 256,
          "midi": 57,
          "name": "A3",
          "ticks": 48640,
          "time": 58.461479999999995,
          "velocity": 0.6929133858267716
        },
        {
          "duration": 0.15384600000000148,
          "durationTicks": 128,
          "midi": 64,
          "name": "E4",
          "ticks": 49024,
          "time": 58.92301799999999,
          "velocity": 0.6929133858267716
        },
        {
          "duration": 0.15384600000000148,
          "durationTicks": 128,
          "midi": 57,
          "name": "A3",
          "ticks": 49024,
          "time": 58.92301799999999,
          "velocity": 0.6929133858267716
        },
        {
          "duration": 0.30769199999999586,
          "durationTicks": 256,
          "midi": 66,
          "name": "F#4",
          "ticks": 49152,
          "time": 59.07686399999999,
          "velocity": 0.6929133858267716
        },
        {
          "duration": 0.30769199999999586,
          "durationTicks": 256,
          "midi": 57,
          "name": "A3",
          "ticks": 49152,
          "time": 59.07686399999999,
          "velocity": 0.6929133858267716
        },
        {
          "duration": 0.30769199999999586,
          "durationTicks": 256,
          "midi": 73,
          "name": "C#5",
          "ticks": 49152,
          "time": 59.07686399999999,
          "velocity": 0.6929133858267716
        },
        {
          "duration": 0.15384600000000148,
          "durationTicks": 128,
          "midi": 57,
          "name": "A3",
          "ticks": 49408,
          "time": 59.38455599999999,
          "velocity": 0.6929133858267716
        },
        {
          "duration": 0.15384600000000148,
          "durationTicks": 128,
          "midi": 64,
          "name": "E4",
          "ticks": 49408,
          "time": 59.38455599999999,
          "velocity": 0.6929133858267716
        },
        {
          "duration": 0.15384600000000148,
          "durationTicks": 128,
          "midi": 76,
          "name": "E5",
          "ticks": 49408,
          "time": 59.38455599999999,
          "velocity": 0.6929133858267716
        },
        {
          "duration": 0.30769200000000296,
          "durationTicks": 256,
          "midi": 66,
          "name": "F#4",
          "ticks": 49536,
          "time": 59.53840199999999,
          "velocity": 0.6929133858267716
        },
        {
          "duration": 0.30769200000000296,
          "durationTicks": 256,
          "midi": 57,
          "name": "A3",
          "ticks": 49536,
          "time": 59.53840199999999,
          "velocity": 0.6929133858267716
        },
        {
          "duration": 0.30769200000000296,
          "durationTicks": 256,
          "midi": 79,
          "name": "G5",
          "ticks": 49536,
          "time": 59.53840199999999,
          "velocity": 0.6929133858267716
        },
        {
          "duration": 0.46153800000000444,
          "durationTicks": 384,
          "midi": 69,
          "name": "A4",
          "ticks": 49776,
          "time": 59.82686324999999,
          "velocity": 0.6929133858267716
        },
        {
          "duration": 0.46153800000000444,
          "durationTicks": 384,
          "midi": 64,
          "name": "E4",
          "ticks": 49776,
          "time": 59.82686324999999,
          "velocity": 0.6929133858267716
        },
        {
          "duration": 0.46153800000000444,
          "durationTicks": 384,
          "midi": 57,
          "name": "A3",
          "ticks": 49776,
          "time": 59.82686324999999,
          "velocity": 0.6929133858267716
        },
        {
          "duration": 0.6923069999999996,
          "durationTicks": 576,
          "midi": 78,
          "name": "F#5",
          "ticks": 49776,
          "time": 59.82686324999999,
          "velocity": 0.6929133858267716
        },
        {
          "duration": 0.15384600000000148,
          "durationTicks": 128,
          "midi": 64,
          "name": "E4",
          "ticks": 50176,
          "time": 60.30763199999999,
          "velocity": 0.6929133858267716
        },
        {
          "duration": 0.15384600000000148,
          "durationTicks": 128,
          "midi": 57,
          "name": "A3",
          "ticks": 50176,
          "time": 60.30763199999999,
          "velocity": 0.6929133858267716
        },
        {
          "duration": 0.30769199999999586,
          "durationTicks": 256,
          "midi": 66,
          "name": "F#4",
          "ticks": 50304,
          "time": 60.46147799999999,
          "velocity": 0.6929133858267716
        },
        {
          "duration": 0.30769199999999586,
          "durationTicks": 256,
          "midi": 57,
          "name": "A3",
          "ticks": 50304,
          "time": 60.46147799999999,
          "velocity": 0.6929133858267716
        },
        {
          "duration": 0.15384600000000148,
          "durationTicks": 128,
          "midi": 64,
          "name": "E4",
          "ticks": 50560,
          "time": 60.76916999999999,
          "velocity": 0.6929133858267716
        },
        {
          "duration": 0.15384600000000148,
          "durationTicks": 128,
          "midi": 57,
          "name": "A3",
          "ticks": 50560,
          "time": 60.76916999999999,
          "velocity": 0.6929133858267716
        },
        {
          "duration": 0.23076900000000222,
          "durationTicks": 192,
          "midi": 59,
          "name": "B3",
          "ticks": 50688,
          "time": 60.92301599999999,
          "velocity": 0.6929133858267716
        },
        {
          "duration": 0.23076900000000222,
          "durationTicks": 192,
          "midi": 52,
          "name": "E3",
          "ticks": 50688,
          "time": 60.92301599999999,
          "velocity": 0.6929133858267716
        },
        {
          "duration": 0.23076899999999512,
          "durationTicks": 192,
          "midi": 59,
          "name": "B3",
          "ticks": 51072,
          "time": 61.384553999999994,
          "velocity": 0.6929133858267716
        },
        {
          "duration": 0.23076899999999512,
          "durationTicks": 192,
          "midi": 52,
          "name": "E3",
          "ticks": 51072,
          "time": 61.384553999999994,
          "velocity": 0.6929133858267716
        },
        {
          "duration": 0.3461534999999998,
          "durationTicks": 288,
          "midi": 59,
          "name": "B3",
          "ticks": 51456,
          "time": 61.84609199999999,
          "velocity": 0.6929133858267716
        },
        {
          "duration": 0.3461534999999998,
          "durationTicks": 288,
          "midi": 52,
          "name": "E3",
          "ticks": 51456,
          "time": 61.84609199999999,
          "velocity": 0.6929133858267716
        },
        {
          "duration": 0.11538449999999756,
          "durationTicks": 96,
          "midi": 67,
          "name": "G4",
          "ticks": 51744,
          "time": 62.19224549999999,
          "velocity": 0.6929133858267716
        },
        {
          "duration": 0.11538449999999756,
          "durationTicks": 96,
          "midi": 62,
          "name": "D4",
          "ticks": 51744,
          "time": 62.19224549999999,
          "velocity": 0.6929133858267716
        },
        {
          "duration": 0.3461534999999998,
          "durationTicks": 288,
          "midi": 69,
          "name": "A4",
          "ticks": 51840,
          "time": 62.30762999999999,
          "velocity": 0.6929133858267716
        },
        {
          "duration": 0.3461534999999998,
          "durationTicks": 288,
          "midi": 64,
          "name": "E4",
          "ticks": 51840,
          "time": 62.30762999999999,
          "velocity": 0.6929133858267716
        },
        {
          "duration": 0.11538450000000466,
          "durationTicks": 96,
          "midi": 67,
          "name": "G4",
          "ticks": 52128,
          "time": 62.65378349999999,
          "velocity": 0.6929133858267716
        },
        {
          "duration": 0.11538450000000466,
          "durationTicks": 96,
          "midi": 62,
          "name": "D4",
          "ticks": 52128,
          "time": 62.65378349999999,
          "velocity": 0.6929133858267716
        },
        {
          "duration": 0.23076899999999512,
          "durationTicks": 192,
          "midi": 59,
          "name": "B3",
          "ticks": 52224,
          "time": 62.76916799999999,
          "velocity": 0.6929133858267716
        },
        {
          "duration": 0.23076899999999512,
          "durationTicks": 192,
          "midi": 52,
          "name": "E3",
          "ticks": 52224,
          "time": 62.76916799999999,
          "velocity": 0.6929133858267716
        },
        {
          "duration": 0.23076900000000222,
          "durationTicks": 192,
          "midi": 59,
          "name": "B3",
          "ticks": 52608,
          "time": 63.23070599999999,
          "velocity": 0.6929133858267716
        },
        {
          "duration": 0.23076900000000222,
          "durationTicks": 192,
          "midi": 52,
          "name": "E3",
          "ticks": 52608,
          "time": 63.23070599999999,
          "velocity": 0.6929133858267716
        },
        {
          "duration": 0.3461534999999998,
          "durationTicks": 288,
          "midi": 59,
          "name": "B3",
          "ticks": 52992,
          "time": 63.69224399999999,
          "velocity": 0.6929133858267716
        },
        {
          "duration": 0.3461534999999998,
          "durationTicks": 288,
          "midi": 52,
          "name": "E3",
          "ticks": 52992,
          "time": 63.69224399999999,
          "velocity": 0.6929133858267716
        },
        {
          "duration": 0.11538450000000466,
          "durationTicks": 96,
          "midi": 67,
          "name": "G4",
          "ticks": 53280,
          "time": 64.03839749999999,
          "velocity": 0.6929133858267716
        },
        {
          "duration": 0.11538450000000466,
          "durationTicks": 96,
          "midi": 62,
          "name": "D4",
          "ticks": 53280,
          "time": 64.03839749999999,
          "velocity": 0.6929133858267716
        },
        {
          "duration": 0.3461534999999998,
          "durationTicks": 288,
          "midi": 69,
          "name": "A4",
          "ticks": 53376,
          "time": 64.15378199999999,
          "velocity": 0.6929133858267716
        },
        {
          "duration": 0.3461534999999998,
          "durationTicks": 288,
          "midi": 64,
          "name": "E4",
          "ticks": 53376,
          "time": 64.15378199999999,
          "velocity": 0.6929133858267716
        },
        {
          "duration": 0.11538450000000466,
          "durationTicks": 96,
          "midi": 67,
          "name": "G4",
          "ticks": 53664,
          "time": 64.49993549999999,
          "velocity": 0.6929133858267716
        },
        {
          "duration": 0.11538450000000466,
          "durationTicks": 96,
          "midi": 62,
          "name": "D4",
          "ticks": 53664,
          "time": 64.49993549999999,
          "velocity": 0.6929133858267716
        },
        {
          "duration": 0.23076899999999512,
          "durationTicks": 192,
          "midi": 59,
          "name": "B3",
          "ticks": 53760,
          "time": 64.61532,
          "velocity": 0.6929133858267716
        },
        {
          "duration": 0.23076899999999512,
          "durationTicks": 192,
          "midi": 52,
          "name": "E3",
          "ticks": 53760,
          "time": 64.61532,
          "velocity": 0.6929133858267716
        },
        {
          "duration": 0.23076900000000933,
          "durationTicks": 192,
          "midi": 59,
          "name": "B3",
          "ticks": 54144,
          "time": 65.07685799999999,
          "velocity": 0.6929133858267716
        },
        {
          "duration": 0.23076900000000933,
          "durationTicks": 192,
          "midi": 52,
          "name": "E3",
          "ticks": 54144,
          "time": 65.07685799999999,
          "velocity": 0.6929133858267716
        },
        {
          "duration": 0.3461534999999998,
          "durationTicks": 288,
          "midi": 59,
          "name": "B3",
          "ticks": 54528,
          "time": 65.53839599999999,
          "velocity": 0.6929133858267716
        },
        {
          "duration": 0.3461534999999998,
          "durationTicks": 288,
          "midi": 52,
          "name": "E3",
          "ticks": 54528,
          "time": 65.53839599999999,
          "velocity": 0.6929133858267716
        },
        {
          "duration": 0.11538450000000466,
          "durationTicks": 96,
          "midi": 67,
          "name": "G4",
          "ticks": 54816,
          "time": 65.88454949999999,
          "velocity": 0.6929133858267716
        },
        {
          "duration": 0.11538450000000466,
          "durationTicks": 96,
          "midi": 62,
          "name": "D4",
          "ticks": 54816,
          "time": 65.88454949999999,
          "velocity": 0.6929133858267716
        },
        {
          "duration": 0.3461534999999998,
          "durationTicks": 288,
          "midi": 69,
          "name": "A4",
          "ticks": 54912,
          "time": 65.999934,
          "velocity": 0.6929133858267716
        },
        {
          "duration": 0.3461534999999998,
          "durationTicks": 288,
          "midi": 64,
          "name": "E4",
          "ticks": 54912,
          "time": 65.999934,
          "velocity": 0.6929133858267716
        },
        {
          "duration": 0.11538449999999045,
          "durationTicks": 96,
          "midi": 67,
          "name": "G4",
          "ticks": 55200,
          "time": 66.3460875,
          "velocity": 0.6929133858267716
        },
        {
          "duration": 0.11538449999999045,
          "durationTicks": 96,
          "midi": 62,
          "name": "D4",
          "ticks": 55200,
          "time": 66.3460875,
          "velocity": 0.6929133858267716
        },
        {
          "duration": 0.23076900000000933,
          "durationTicks": 192,
          "midi": 59,
          "name": "B3",
          "ticks": 55296,
          "time": 66.46147199999999,
          "velocity": 0.6929133858267716
        },
        {
          "duration": 0.23076900000000933,
          "durationTicks": 192,
          "midi": 52,
          "name": "E3",
          "ticks": 55296,
          "time": 66.46147199999999,
          "velocity": 0.6929133858267716
        },
        {
          "duration": 0.23076899999999512,
          "durationTicks": 192,
          "midi": 59,
          "name": "B3",
          "ticks": 55680,
          "time": 66.92300999999999,
          "velocity": 0.6929133858267716
        },
        {
          "duration": 0.23076899999999512,
          "durationTicks": 192,
          "midi": 52,
          "name": "E3",
          "ticks": 55680,
          "time": 66.92300999999999,
          "velocity": 0.6929133858267716
        },
        {
          "duration": 0.3461534999999998,
          "durationTicks": 288,
          "midi": 59,
          "name": "B3",
          "ticks": 56064,
          "time": 67.384548,
          "velocity": 0.6929133858267716
        },
        {
          "duration": 0.3461534999999998,
          "durationTicks": 288,
          "midi": 52,
          "name": "E3",
          "ticks": 56064,
          "time": 67.384548,
          "velocity": 0.6929133858267716
        },
        {
          "duration": 0.11538449999999045,
          "durationTicks": 96,
          "midi": 67,
          "name": "G4",
          "ticks": 56352,
          "time": 67.7307015,
          "velocity": 0.6929133858267716
        },
        {
          "duration": 0.11538449999999045,
          "durationTicks": 96,
          "midi": 62,
          "name": "D4",
          "ticks": 56352,
          "time": 67.7307015,
          "velocity": 0.6929133858267716
        },
        {
          "duration": 0.346153500000014,
          "durationTicks": 288,
          "midi": 69,
          "name": "A4",
          "ticks": 56448,
          "time": 67.84608599999999,
          "velocity": 0.6929133858267716
        },
        {
          "duration": 0.346153500000014,
          "durationTicks": 288,
          "midi": 64,
          "name": "E4",
          "ticks": 56448,
          "time": 67.84608599999999,
          "velocity": 0.6929133858267716
        },
        {
          "duration": 0.11538449999999045,
          "durationTicks": 96,
          "midi": 67,
          "name": "G4",
          "ticks": 56736,
          "time": 68.1922395,
          "velocity": 0.6929133858267716
        },
        {
          "duration": 0.11538449999999045,
          "durationTicks": 96,
          "midi": 62,
          "name": "D4",
          "ticks": 56736,
          "time": 68.1922395,
          "velocity": 0.6929133858267716
        },
        {
          "duration": 0.23076899999999512,
          "durationTicks": 192,
          "midi": 59,
          "name": "B3",
          "ticks": 56832,
          "time": 68.30762399999999,
          "velocity": 0.6929133858267716
        },
        {
          "duration": 0.23076899999999512,
          "durationTicks": 192,
          "midi": 52,
          "name": "E3",
          "ticks": 56832,
          "time": 68.30762399999999,
          "velocity": 0.6929133858267716
        },
        {
          "duration": 0.23076899999999512,
          "durationTicks": 192,
          "midi": 59,
          "name": "B3",
          "ticks": 57216,
          "time": 68.769162,
          "velocity": 0.6929133858267716
        },
        {
          "duration": 0.23076899999999512,
          "durationTicks": 192,
          "midi": 52,
          "name": "E3",
          "ticks": 57216,
          "time": 68.769162,
          "velocity": 0.6929133858267716
        },
        {
          "duration": 0.346153500000014,
          "durationTicks": 288,
          "midi": 59,
          "name": "B3",
          "ticks": 57600,
          "time": 69.23069999999998,
          "velocity": 0.6929133858267716
        },
        {
          "duration": 0.346153500000014,
          "durationTicks": 288,
          "midi": 52,
          "name": "E3",
          "ticks": 57600,
          "time": 69.23069999999998,
          "velocity": 0.6929133858267716
        },
        {
          "duration": 0.11538449999999045,
          "durationTicks": 96,
          "midi": 67,
          "name": "G4",
          "ticks": 57888,
          "time": 69.5768535,
          "velocity": 0.6929133858267716
        },
        {
          "duration": 0.11538449999999045,
          "durationTicks": 96,
          "midi": 62,
          "name": "D4",
          "ticks": 57888,
          "time": 69.5768535,
          "velocity": 0.6929133858267716
        },
        {
          "duration": 0.3461534999999998,
          "durationTicks": 288,
          "midi": 69,
          "name": "A4",
          "ticks": 57984,
          "time": 69.69223799999999,
          "velocity": 0.6929133858267716
        },
        {
          "duration": 0.3461534999999998,
          "durationTicks": 288,
          "midi": 64,
          "name": "E4",
          "ticks": 57984,
          "time": 69.69223799999999,
          "velocity": 0.6929133858267716
        },
        {
          "duration": 0.11538450000000466,
          "durationTicks": 96,
          "midi": 67,
          "name": "G4",
          "ticks": 58272,
          "time": 70.03839149999999,
          "velocity": 0.6929133858267716
        },
        {
          "duration": 0.11538450000000466,
          "durationTicks": 96,
          "midi": 62,
          "name": "D4",
          "ticks": 58272,
          "time": 70.03839149999999,
          "velocity": 0.6929133858267716
        },
        {
          "duration": 0.23076899999999512,
          "durationTicks": 192,
          "midi": 59,
          "name": "B3",
          "ticks": 58368,
          "time": 70.153776,
          "velocity": 0.6929133858267716
        },
        {
          "duration": 0.23076899999999512,
          "durationTicks": 192,
          "midi": 52,
          "name": "E3",
          "ticks": 58368,
          "time": 70.153776,
          "velocity": 0.6929133858267716
        },
        {
          "duration": 0.23076900000000933,
          "durationTicks": 192,
          "midi": 59,
          "name": "B3",
          "ticks": 58752,
          "time": 70.61531399999998,
          "velocity": 0.6929133858267716
        },
        {
          "duration": 0.23076900000000933,
          "durationTicks": 192,
          "midi": 52,
          "name": "E3",
          "ticks": 58752,
          "time": 70.61531399999998,
          "velocity": 0.6929133858267716
        },
        {
          "duration": 0.3461534999999998,
          "durationTicks": 288,
          "midi": 59,
          "name": "B3",
          "ticks": 59136,
          "time": 71.07685199999999,
          "velocity": 0.6929133858267716
        },
        {
          "duration": 0.3461534999999998,
          "durationTicks": 288,
          "midi": 52,
          "name": "E3",
          "ticks": 59136,
          "time": 71.07685199999999,
          "velocity": 0.6929133858267716
        },
        {
          "duration": 0.11538450000000466,
          "durationTicks": 96,
          "midi": 67,
          "name": "G4",
          "ticks": 59424,
          "time": 71.42300549999999,
          "velocity": 0.6929133858267716
        },
        {
          "duration": 0.11538450000000466,
          "durationTicks": 96,
          "midi": 62,
          "name": "D4",
          "ticks": 59424,
          "time": 71.42300549999999,
          "velocity": 0.6929133858267716
        },
        {
          "duration": 0.3461534999999998,
          "durationTicks": 288,
          "midi": 69,
          "name": "A4",
          "ticks": 59520,
          "time": 71.53838999999999,
          "velocity": 0.6929133858267716
        },
        {
          "duration": 0.3461534999999998,
          "durationTicks": 288,
          "midi": 64,
          "name": "E4",
          "ticks": 59520,
          "time": 71.53838999999999,
          "velocity": 0.6929133858267716
        },
        {
          "duration": 0.11538449999999045,
          "durationTicks": 96,
          "midi": 67,
          "name": "G4",
          "ticks": 59808,
          "time": 71.88454349999999,
          "velocity": 0.6929133858267716
        },
        {
          "duration": 0.11538449999999045,
          "durationTicks": 96,
          "midi": 62,
          "name": "D4",
          "ticks": 59808,
          "time": 71.88454349999999,
          "velocity": 0.6929133858267716
        },
        {
          "duration": 0.23076900000000933,
          "durationTicks": 192,
          "midi": 59,
          "name": "B3",
          "ticks": 59904,
          "time": 71.99992799999998,
          "velocity": 0.6929133858267716
        },
        {
          "duration": 0.23076900000000933,
          "durationTicks": 192,
          "midi": 52,
          "name": "E3",
          "ticks": 59904,
          "time": 71.99992799999998,
          "velocity": 0.6929133858267716
        },
        {
          "duration": 0.23076899999999512,
          "durationTicks": 192,
          "midi": 59,
          "name": "B3",
          "ticks": 60288,
          "time": 72.46146599999999,
          "velocity": 0.6929133858267716
        },
        {
          "duration": 0.23076899999999512,
          "durationTicks": 192,
          "midi": 52,
          "name": "E3",
          "ticks": 60288,
          "time": 72.46146599999999,
          "velocity": 0.6929133858267716
        },
        {
          "duration": 0.3461534999999998,
          "durationTicks": 288,
          "midi": 59,
          "name": "B3",
          "ticks": 60672,
          "time": 72.92300399999999,
          "velocity": 0.6929133858267716
        },
        {
          "duration": 0.3461534999999998,
          "durationTicks": 288,
          "midi": 52,
          "name": "E3",
          "ticks": 60672,
          "time": 72.92300399999999,
          "velocity": 0.6929133858267716
        },
        {
          "duration": 0.11538449999999045,
          "durationTicks": 96,
          "midi": 67,
          "name": "G4",
          "ticks": 60960,
          "time": 73.26915749999999,
          "velocity": 0.6929133858267716
        },
        {
          "duration": 0.11538449999999045,
          "durationTicks": 96,
          "midi": 62,
          "name": "D4",
          "ticks": 60960,
          "time": 73.26915749999999,
          "velocity": 0.6929133858267716
        },
        {
          "duration": 0.346153500000014,
          "durationTicks": 288,
          "midi": 69,
          "name": "A4",
          "ticks": 61056,
          "time": 73.38454199999998,
          "velocity": 0.6929133858267716
        },
        {
          "duration": 0.346153500000014,
          "durationTicks": 288,
          "midi": 64,
          "name": "E4",
          "ticks": 61056,
          "time": 73.38454199999998,
          "velocity": 0.6929133858267716
        },
        {
          "duration": 0.11538449999999045,
          "durationTicks": 96,
          "midi": 67,
          "name": "G4",
          "ticks": 61344,
          "time": 73.7306955,
          "velocity": 0.6929133858267716
        },
        {
          "duration": 0.11538449999999045,
          "durationTicks": 96,
          "midi": 62,
          "name": "D4",
          "ticks": 61344,
          "time": 73.7306955,
          "velocity": 0.6929133858267716
        },
        {
          "duration": 0.23076899999999512,
          "durationTicks": 192,
          "midi": 59,
          "name": "B3",
          "ticks": 61440,
          "time": 73.84607999999999,
          "velocity": 0.6929133858267716
        },
        {
          "duration": 0.23076899999999512,
          "durationTicks": 192,
          "midi": 52,
          "name": "E3",
          "ticks": 61440,
          "time": 73.84607999999999,
          "velocity": 0.6929133858267716
        },
        {
          "duration": 0.23076899999999512,
          "durationTicks": 192,
          "midi": 59,
          "name": "B3",
          "ticks": 61824,
          "time": 74.30761799999999,
          "velocity": 0.6929133858267716
        },
        {
          "duration": 0.23076899999999512,
          "durationTicks": 192,
          "midi": 52,
          "name": "E3",
          "ticks": 61824,
          "time": 74.30761799999999,
          "velocity": 0.6929133858267716
        },
        {
          "duration": 0.3461534999999998,
          "durationTicks": 288,
          "midi": 59,
          "name": "B3",
          "ticks": 62208,
          "time": 74.769156,
          "velocity": 0.6929133858267716
        },
        {
          "duration": 0.3461534999999998,
          "durationTicks": 288,
          "midi": 52,
          "name": "E3",
          "ticks": 62208,
          "time": 74.769156,
          "velocity": 0.6929133858267716
        },
        {
          "duration": 0.11538449999999045,
          "durationTicks": 96,
          "midi": 67,
          "name": "G4",
          "ticks": 62496,
          "time": 75.1153095,
          "velocity": 0.6929133858267716
        },
        {
          "duration": 0.11538449999999045,
          "durationTicks": 96,
          "midi": 62,
          "name": "D4",
          "ticks": 62496,
          "time": 75.1153095,
          "velocity": 0.6929133858267716
        },
        {
          "duration": 0.3461534999999998,
          "durationTicks": 288,
          "midi": 69,
          "name": "A4",
          "ticks": 62592,
          "time": 75.23069399999999,
          "velocity": 0.6929133858267716
        },
        {
          "duration": 0.3461534999999998,
          "durationTicks": 288,
          "midi": 64,
          "name": "E4",
          "ticks": 62592,
          "time": 75.23069399999999,
          "velocity": 0.6929133858267716
        },
        {
          "duration": 0.11538450000000466,
          "durationTicks": 96,
          "midi": 67,
          "name": "G4",
          "ticks": 62880,
          "time": 75.57684749999999,
          "velocity": 0.6929133858267716
        },
        {
          "duration": 0.11538450000000466,
          "durationTicks": 96,
          "midi": 62,
          "name": "D4",
          "ticks": 62880,
          "time": 75.57684749999999,
          "velocity": 0.6929133858267716
        },
        {
          "duration": 0.23076899999999512,
          "durationTicks": 192,
          "midi": 59,
          "name": "B3",
          "ticks": 62976,
          "time": 75.69223199999999,
          "velocity": 0.6929133858267716
        },
        {
          "duration": 0.23076899999999512,
          "durationTicks": 192,
          "midi": 52,
          "name": "E3",
          "ticks": 62976,
          "time": 75.69223199999999,
          "velocity": 0.6929133858267716
        },
        {
          "duration": 0.23076899999999512,
          "durationTicks": 192,
          "midi": 59,
          "name": "B3",
          "ticks": 63360,
          "time": 76.15377,
          "velocity": 0.6929133858267716
        },
        {
          "duration": 0.23076899999999512,
          "durationTicks": 192,
          "midi": 52,
          "name": "E3",
          "ticks": 63360,
          "time": 76.15377,
          "velocity": 0.6929133858267716
        },
        {
          "duration": 0.34615349999998557,
          "durationTicks": 288,
          "midi": 59,
          "name": "B3",
          "ticks": 63744,
          "time": 76.615308,
          "velocity": 0.6929133858267716
        },
        {
          "duration": 0.34615349999998557,
          "durationTicks": 288,
          "midi": 52,
          "name": "E3",
          "ticks": 63744,
          "time": 76.615308,
          "velocity": 0.6929133858267716
        },
        {
          "duration": 0.11538450000000466,
          "durationTicks": 96,
          "midi": 67,
          "name": "G4",
          "ticks": 64032,
          "time": 76.96146149999998,
          "velocity": 0.6929133858267716
        },
        {
          "duration": 0.11538450000000466,
          "durationTicks": 96,
          "midi": 62,
          "name": "D4",
          "ticks": 64032,
          "time": 76.96146149999998,
          "velocity": 0.6929133858267716
        },
        {
          "duration": 0.3461534999999998,
          "durationTicks": 288,
          "midi": 69,
          "name": "A4",
          "ticks": 64128,
          "time": 77.07684599999999,
          "velocity": 0.6929133858267716
        },
        {
          "duration": 0.3461534999999998,
          "durationTicks": 288,
          "midi": 64,
          "name": "E4",
          "ticks": 64128,
          "time": 77.07684599999999,
          "velocity": 0.6929133858267716
        },
        {
          "duration": 0.11538450000000466,
          "durationTicks": 96,
          "midi": 67,
          "name": "G4",
          "ticks": 64416,
          "time": 77.42299949999999,
          "velocity": 0.6929133858267716
        },
        {
          "duration": 0.11538450000000466,
          "durationTicks": 96,
          "midi": 62,
          "name": "D4",
          "ticks": 64416,
          "time": 77.42299949999999,
          "velocity": 0.6929133858267716
        },
        {
          "duration": 0.23076899999999512,
          "durationTicks": 192,
          "midi": 59,
          "name": "B3",
          "ticks": 64512,
          "time": 77.538384,
          "velocity": 0.6929133858267716
        },
        {
          "duration": 0.23076899999999512,
          "durationTicks": 192,
          "midi": 52,
          "name": "E3",
          "ticks": 64512,
          "time": 77.538384,
          "velocity": 0.6929133858267716
        },
        {
          "duration": 0.23076899999999512,
          "durationTicks": 192,
          "midi": 59,
          "name": "B3",
          "ticks": 64896,
          "time": 77.999922,
          "velocity": 0.6929133858267716
        },
        {
          "duration": 0.23076899999999512,
          "durationTicks": 192,
          "midi": 52,
          "name": "E3",
          "ticks": 64896,
          "time": 77.999922,
          "velocity": 0.6929133858267716
        },
        {
          "duration": 0.3461534999999998,
          "durationTicks": 288,
          "midi": 59,
          "name": "B3",
          "ticks": 65280,
          "time": 78.46145999999999,
          "velocity": 0.6929133858267716
        },
        {
          "duration": 0.3461534999999998,
          "durationTicks": 288,
          "midi": 52,
          "name": "E3",
          "ticks": 65280,
          "time": 78.46145999999999,
          "velocity": 0.6929133858267716
        },
        {
          "duration": 0.11538450000000466,
          "durationTicks": 96,
          "midi": 67,
          "name": "G4",
          "ticks": 65568,
          "time": 78.80761349999999,
          "velocity": 0.6929133858267716
        },
        {
          "duration": 0.11538450000000466,
          "durationTicks": 96,
          "midi": 62,
          "name": "D4",
          "ticks": 65568,
          "time": 78.80761349999999,
          "velocity": 0.6929133858267716
        },
        {
          "duration": 0.3461534999999998,
          "durationTicks": 288,
          "midi": 69,
          "name": "A4",
          "ticks": 65664,
          "time": 78.92299799999999,
          "velocity": 0.6929133858267716
        },
        {
          "duration": 0.3461534999999998,
          "durationTicks": 288,
          "midi": 64,
          "name": "E4",
          "ticks": 65664,
          "time": 78.92299799999999,
          "velocity": 0.6929133858267716
        },
        {
          "duration": 0.11538450000000466,
          "durationTicks": 96,
          "midi": 67,
          "name": "G4",
          "ticks": 65952,
          "time": 79.26915149999999,
          "velocity": 0.6929133858267716
        },
        {
          "duration": 0.11538450000000466,
          "durationTicks": 96,
          "midi": 62,
          "name": "D4",
          "ticks": 65952,
          "time": 79.26915149999999,
          "velocity": 0.6929133858267716
        },
        {
          "duration": 0.23076899999999512,
          "durationTicks": 192,
          "midi": 59,
          "name": "B3",
          "ticks": 66048,
          "time": 79.384536,
          "velocity": 0.6929133858267716
        },
        {
          "duration": 0.23076899999999512,
          "durationTicks": 192,
          "midi": 52,
          "name": "E3",
          "ticks": 66048,
          "time": 79.384536,
          "velocity": 0.6929133858267716
        },
        {
          "duration": 0.23076900000000933,
          "durationTicks": 192,
          "midi": 59,
          "name": "B3",
          "ticks": 66432,
          "time": 79.84607399999999,
          "velocity": 0.6929133858267716
        },
        {
          "duration": 0.23076900000000933,
          "durationTicks": 192,
          "midi": 52,
          "name": "E3",
          "ticks": 66432,
          "time": 79.84607399999999,
          "velocity": 0.6929133858267716
        },
        {
          "duration": 0.3461534999999998,
          "durationTicks": 288,
          "midi": 59,
          "name": "B3",
          "ticks": 66816,
          "time": 80.30761199999999,
          "velocity": 0.6929133858267716
        },
        {
          "duration": 0.3461534999999998,
          "durationTicks": 288,
          "midi": 52,
          "name": "E3",
          "ticks": 66816,
          "time": 80.30761199999999,
          "velocity": 0.6929133858267716
        },
        {
          "duration": 0.11538450000000466,
          "durationTicks": 96,
          "midi": 67,
          "name": "G4",
          "ticks": 67104,
          "time": 80.65376549999999,
          "velocity": 0.6929133858267716
        },
        {
          "duration": 0.11538450000000466,
          "durationTicks": 96,
          "midi": 62,
          "name": "D4",
          "ticks": 67104,
          "time": 80.65376549999999,
          "velocity": 0.6929133858267716
        },
        {
          "duration": 0.34615349999998557,
          "durationTicks": 288,
          "midi": 69,
          "name": "A4",
          "ticks": 67200,
          "time": 80.76915,
          "velocity": 0.6929133858267716
        },
        {
          "duration": 0.34615349999998557,
          "durationTicks": 288,
          "midi": 64,
          "name": "E4",
          "ticks": 67200,
          "time": 80.76915,
          "velocity": 0.6929133858267716
        },
        {
          "duration": 0.11538450000000466,
          "durationTicks": 96,
          "midi": 67,
          "name": "G4",
          "ticks": 67488,
          "time": 81.11530349999998,
          "velocity": 0.6929133858267716
        },
        {
          "duration": 0.11538450000000466,
          "durationTicks": 96,
          "midi": 62,
          "name": "D4",
          "ticks": 67488,
          "time": 81.11530349999998,
          "velocity": 0.6929133858267716
        },
        {
          "duration": 0.23076900000000933,
          "durationTicks": 192,
          "midi": 59,
          "name": "B3",
          "ticks": 67584,
          "time": 81.23068799999999,
          "velocity": 0.6929133858267716
        },
        {
          "duration": 0.23076900000000933,
          "durationTicks": 192,
          "midi": 52,
          "name": "E3",
          "ticks": 67584,
          "time": 81.23068799999999,
          "velocity": 0.6929133858267716
        },
        {
          "duration": 0.23076899999999512,
          "durationTicks": 192,
          "midi": 59,
          "name": "B3",
          "ticks": 67968,
          "time": 81.69222599999999,
          "velocity": 0.6929133858267716
        },
        {
          "duration": 0.23076899999999512,
          "durationTicks": 192,
          "midi": 52,
          "name": "E3",
          "ticks": 67968,
          "time": 81.69222599999999,
          "velocity": 0.6929133858267716
        },
        {
          "duration": 0.34615349999998557,
          "durationTicks": 288,
          "midi": 59,
          "name": "B3",
          "ticks": 68352,
          "time": 82.153764,
          "velocity": 0.6929133858267716
        },
        {
          "duration": 0.34615349999998557,
          "durationTicks": 288,
          "midi": 52,
          "name": "E3",
          "ticks": 68352,
          "time": 82.153764,
          "velocity": 0.6929133858267716
        },
        {
          "duration": 0.11538450000000466,
          "durationTicks": 96,
          "midi": 67,
          "name": "G4",
          "ticks": 68640,
          "time": 82.49991749999998,
          "velocity": 0.6929133858267716
        },
        {
          "duration": 0.11538450000000466,
          "durationTicks": 96,
          "midi": 62,
          "name": "D4",
          "ticks": 68640,
          "time": 82.49991749999998,
          "velocity": 0.6929133858267716
        },
        {
          "duration": 0.346153500000014,
          "durationTicks": 288,
          "midi": 69,
          "name": "A4",
          "ticks": 68736,
          "time": 82.61530199999999,
          "velocity": 0.6929133858267716
        },
        {
          "duration": 0.346153500000014,
          "durationTicks": 288,
          "midi": 64,
          "name": "E4",
          "ticks": 68736,
          "time": 82.61530199999999,
          "velocity": 0.6929133858267716
        },
        {
          "duration": 0.11538449999999045,
          "durationTicks": 96,
          "midi": 67,
          "name": "G4",
          "ticks": 69024,
          "time": 82.9614555,
          "velocity": 0.6929133858267716
        },
        {
          "duration": 0.11538449999999045,
          "durationTicks": 96,
          "midi": 62,
          "name": "D4",
          "ticks": 69024,
          "time": 82.9614555,
          "velocity": 0.6929133858267716
        },
        {
          "duration": 0.23076899999999512,
          "durationTicks": 192,
          "midi": 59,
          "name": "B3",
          "ticks": 69120,
          "time": 83.07683999999999,
          "velocity": 0.6929133858267716
        },
        {
          "duration": 0.23076899999999512,
          "durationTicks": 192,
          "midi": 52,
          "name": "E3",
          "ticks": 69120,
          "time": 83.07683999999999,
          "velocity": 0.6929133858267716
        },
        {
          "duration": 0.23076899999999512,
          "durationTicks": 192,
          "midi": 59,
          "name": "B3",
          "ticks": 69504,
          "time": 83.538378,
          "velocity": 0.6929133858267716
        },
        {
          "duration": 0.23076899999999512,
          "durationTicks": 192,
          "midi": 52,
          "name": "E3",
          "ticks": 69504,
          "time": 83.538378,
          "velocity": 0.6929133858267716
        },
        {
          "duration": 0.346153500000014,
          "durationTicks": 288,
          "midi": 59,
          "name": "B3",
          "ticks": 69888,
          "time": 83.99991599999998,
          "velocity": 0.6929133858267716
        },
        {
          "duration": 0.346153500000014,
          "durationTicks": 288,
          "midi": 52,
          "name": "E3",
          "ticks": 69888,
          "time": 83.99991599999998,
          "velocity": 0.6929133858267716
        },
        {
          "duration": 0.11538449999999045,
          "durationTicks": 96,
          "midi": 67,
          "name": "G4",
          "ticks": 70176,
          "time": 84.3460695,
          "velocity": 0.6929133858267716
        },
        {
          "duration": 0.11538449999999045,
          "durationTicks": 96,
          "midi": 62,
          "name": "D4",
          "ticks": 70176,
          "time": 84.3460695,
          "velocity": 0.6929133858267716
        },
        {
          "duration": 0.3461534999999998,
          "durationTicks": 288,
          "midi": 69,
          "name": "A4",
          "ticks": 70272,
          "time": 84.46145399999999,
          "velocity": 0.6929133858267716
        },
        {
          "duration": 0.3461534999999998,
          "durationTicks": 288,
          "midi": 64,
          "name": "E4",
          "ticks": 70272,
          "time": 84.46145399999999,
          "velocity": 0.6929133858267716
        },
        {
          "duration": 0.11538450000000466,
          "durationTicks": 96,
          "midi": 67,
          "name": "G4",
          "ticks": 70560,
          "time": 84.80760749999999,
          "velocity": 0.6929133858267716
        },
        {
          "duration": 0.11538450000000466,
          "durationTicks": 96,
          "midi": 62,
          "name": "D4",
          "ticks": 70560,
          "time": 84.80760749999999,
          "velocity": 0.6929133858267716
        },
        {
          "duration": 0.23076899999999512,
          "durationTicks": 192,
          "midi": 59,
          "name": "B3",
          "ticks": 70656,
          "time": 84.922992,
          "velocity": 0.6929133858267716
        },
        {
          "duration": 0.23076899999999512,
          "durationTicks": 192,
          "midi": 52,
          "name": "E3",
          "ticks": 70656,
          "time": 84.922992,
          "velocity": 0.6929133858267716
        },
        {
          "duration": 0.23076900000000933,
          "durationTicks": 192,
          "midi": 59,
          "name": "B3",
          "ticks": 71040,
          "time": 85.38452999999998,
          "velocity": 0.6929133858267716
        },
        {
          "duration": 0.23076900000000933,
          "durationTicks": 192,
          "midi": 52,
          "name": "E3",
          "ticks": 71040,
          "time": 85.38452999999998,
          "velocity": 0.6929133858267716
        },
        {
          "duration": 0.3461534999999998,
          "durationTicks": 288,
          "midi": 59,
          "name": "B3",
          "ticks": 71424,
          "time": 85.84606799999999,
          "velocity": 0.6929133858267716
        },
        {
          "duration": 0.3461534999999998,
          "durationTicks": 288,
          "midi": 52,
          "name": "E3",
          "ticks": 71424,
          "time": 85.84606799999999,
          "velocity": 0.6929133858267716
        },
        {
          "duration": 0.11538450000000466,
          "durationTicks": 96,
          "midi": 67,
          "name": "G4",
          "ticks": 71712,
          "time": 86.19222149999999,
          "velocity": 0.6929133858267716
        },
        {
          "duration": 0.11538450000000466,
          "durationTicks": 96,
          "midi": 62,
          "name": "D4",
          "ticks": 71712,
          "time": 86.19222149999999,
          "velocity": 0.6929133858267716
        },
        {
          "duration": 0.3461534999999998,
          "durationTicks": 288,
          "midi": 69,
          "name": "A4",
          "ticks": 71808,
          "time": 86.30760599999999,
          "velocity": 0.6929133858267716
        },
        {
          "duration": 0.3461534999999998,
          "durationTicks": 288,
          "midi": 64,
          "name": "E4",
          "ticks": 71808,
          "time": 86.30760599999999,
          "velocity": 0.6929133858267716
        },
        {
          "duration": 0.11538449999999045,
          "durationTicks": 96,
          "midi": 67,
          "name": "G4",
          "ticks": 72096,
          "time": 86.65375949999999,
          "velocity": 0.6929133858267716
        },
        {
          "duration": 0.11538449999999045,
          "durationTicks": 96,
          "midi": 62,
          "name": "D4",
          "ticks": 72096,
          "time": 86.65375949999999,
          "velocity": 0.6929133858267716
        },
        {
          "duration": 0.23076900000000933,
          "durationTicks": 192,
          "midi": 59,
          "name": "B3",
          "ticks": 72192,
          "time": 86.76914399999998,
          "velocity": 0.6929133858267716
        },
        {
          "duration": 0.23076900000000933,
          "durationTicks": 192,
          "midi": 52,
          "name": "E3",
          "ticks": 72192,
          "time": 86.76914399999998,
          "velocity": 0.6929133858267716
        },
        {
          "duration": 0.23076899999999512,
          "durationTicks": 192,
          "midi": 59,
          "name": "B3",
          "ticks": 72576,
          "time": 87.23068199999999,
          "velocity": 0.6929133858267716
        },
        {
          "duration": 0.23076899999999512,
          "durationTicks": 192,
          "midi": 52,
          "name": "E3",
          "ticks": 72576,
          "time": 87.23068199999999,
          "velocity": 0.6929133858267716
        },
        {
          "duration": 0.3461534999999998,
          "durationTicks": 288,
          "midi": 59,
          "name": "B3",
          "ticks": 72960,
          "time": 87.69221999999999,
          "velocity": 0.6929133858267716
        },
        {
          "duration": 0.3461534999999998,
          "durationTicks": 288,
          "midi": 52,
          "name": "E3",
          "ticks": 72960,
          "time": 87.69221999999999,
          "velocity": 0.6929133858267716
        },
        {
          "duration": 0.11538449999999045,
          "durationTicks": 96,
          "midi": 67,
          "name": "G4",
          "ticks": 73248,
          "time": 88.03837349999999,
          "velocity": 0.6929133858267716
        },
        {
          "duration": 0.11538449999999045,
          "durationTicks": 96,
          "midi": 62,
          "name": "D4",
          "ticks": 73248,
          "time": 88.03837349999999,
          "velocity": 0.6929133858267716
        },
        {
          "duration": 0.346153500000014,
          "durationTicks": 288,
          "midi": 69,
          "name": "A4",
          "ticks": 73344,
          "time": 88.15375799999998,
          "velocity": 0.6929133858267716
        },
        {
          "duration": 0.346153500000014,
          "durationTicks": 288,
          "midi": 64,
          "name": "E4",
          "ticks": 73344,
          "time": 88.15375799999998,
          "velocity": 0.6929133858267716
        },
        {
          "duration": 0.11538449999999045,
          "durationTicks": 96,
          "midi": 67,
          "name": "G4",
          "ticks": 73632,
          "time": 88.4999115,
          "velocity": 0.6929133858267716
        },
        {
          "duration": 0.11538449999999045,
          "durationTicks": 96,
          "midi": 62,
          "name": "D4",
          "ticks": 73632,
          "time": 88.4999115,
          "velocity": 0.6929133858267716
        },
        {
          "duration": 0.23076899999999512,
          "durationTicks": 192,
          "midi": 59,
          "name": "B3",
          "ticks": 73728,
          "time": 88.61529599999999,
          "velocity": 0.6929133858267716
        },
        {
          "duration": 0.23076899999999512,
          "durationTicks": 192,
          "midi": 52,
          "name": "E3",
          "ticks": 73728,
          "time": 88.61529599999999,
          "velocity": 0.6929133858267716
        },
        {
          "duration": 0.23076899999999512,
          "durationTicks": 192,
          "midi": 59,
          "name": "B3",
          "ticks": 74112,
          "time": 89.07683399999999,
          "velocity": 0.6929133858267716
        },
        {
          "duration": 0.23076899999999512,
          "durationTicks": 192,
          "midi": 52,
          "name": "E3",
          "ticks": 74112,
          "time": 89.07683399999999,
          "velocity": 0.6929133858267716
        },
        {
          "duration": 0.346153500000014,
          "durationTicks": 288,
          "midi": 59,
          "name": "B3",
          "ticks": 74496,
          "time": 89.53837199999998,
          "velocity": 0.6929133858267716
        },
        {
          "duration": 0.346153500000014,
          "durationTicks": 288,
          "midi": 52,
          "name": "E3",
          "ticks": 74496,
          "time": 89.53837199999998,
          "velocity": 0.6929133858267716
        },
        {
          "duration": 0.11538449999999045,
          "durationTicks": 96,
          "midi": 67,
          "name": "G4",
          "ticks": 74784,
          "time": 89.8845255,
          "velocity": 0.6929133858267716
        },
        {
          "duration": 0.11538449999999045,
          "durationTicks": 96,
          "midi": 62,
          "name": "D4",
          "ticks": 74784,
          "time": 89.8845255,
          "velocity": 0.6929133858267716
        },
        {
          "duration": 0.3461534999999998,
          "durationTicks": 288,
          "midi": 69,
          "name": "A4",
          "ticks": 74880,
          "time": 89.99990999999999,
          "velocity": 0.6929133858267716
        },
        {
          "duration": 0.3461534999999998,
          "durationTicks": 288,
          "midi": 64,
          "name": "E4",
          "ticks": 74880,
          "time": 89.99990999999999,
          "velocity": 0.6929133858267716
        },
        {
          "duration": 0.11538450000000466,
          "durationTicks": 96,
          "midi": 67,
          "name": "G4",
          "ticks": 75168,
          "time": 90.34606349999999,
          "velocity": 0.6929133858267716
        },
        {
          "duration": 0.11538450000000466,
          "durationTicks": 96,
          "midi": 62,
          "name": "D4",
          "ticks": 75168,
          "time": 90.34606349999999,
          "velocity": 0.6929133858267716
        },
        {
          "duration": 0.23076899999999512,
          "durationTicks": 192,
          "midi": 59,
          "name": "B3",
          "ticks": 75264,
          "time": 90.46144799999999,
          "velocity": 0.6929133858267716
        },
        {
          "duration": 0.23076899999999512,
          "durationTicks": 192,
          "midi": 52,
          "name": "E3",
          "ticks": 75264,
          "time": 90.46144799999999,
          "velocity": 0.6929133858267716
        },
        {
          "duration": 0.23076900000000933,
          "durationTicks": 192,
          "midi": 59,
          "name": "B3",
          "ticks": 75648,
          "time": 90.92298599999998,
          "velocity": 0.6929133858267716
        },
        {
          "duration": 0.23076900000000933,
          "durationTicks": 192,
          "midi": 52,
          "name": "E3",
          "ticks": 75648,
          "time": 90.92298599999998,
          "velocity": 0.6929133858267716
        },
        {
          "duration": 0.34615349999998557,
          "durationTicks": 288,
          "midi": 59,
          "name": "B3",
          "ticks": 76032,
          "time": 91.384524,
          "velocity": 0.6929133858267716
        },
        {
          "duration": 0.34615349999998557,
          "durationTicks": 288,
          "midi": 52,
          "name": "E3",
          "ticks": 76032,
          "time": 91.384524,
          "velocity": 0.6929133858267716
        },
        {
          "duration": 0.11538450000000466,
          "durationTicks": 96,
          "midi": 67,
          "name": "G4",
          "ticks": 76320,
          "time": 91.73067749999998,
          "velocity": 0.6929133858267716
        },
        {
          "duration": 0.11538450000000466,
          "durationTicks": 96,
          "midi": 62,
          "name": "D4",
          "ticks": 76320,
          "time": 91.73067749999998,
          "velocity": 0.6929133858267716
        },
        {
          "duration": 0.3461534999999998,
          "durationTicks": 288,
          "midi": 69,
          "name": "A4",
          "ticks": 76416,
          "time": 91.84606199999999,
          "velocity": 0.6929133858267716
        },
        {
          "duration": 0.3461534999999998,
          "durationTicks": 288,
          "midi": 64,
          "name": "E4",
          "ticks": 76416,
          "time": 91.84606199999999,
          "velocity": 0.6929133858267716
        },
        {
          "duration": 0.11538449999999045,
          "durationTicks": 96,
          "midi": 67,
          "name": "G4",
          "ticks": 76704,
          "time": 92.19221549999999,
          "velocity": 0.6929133858267716
        },
        {
          "duration": 0.11538449999999045,
          "durationTicks": 96,
          "midi": 62,
          "name": "D4",
          "ticks": 76704,
          "time": 92.19221549999999,
          "velocity": 0.6929133858267716
        },
        {
          "duration": 0.23076900000000933,
          "durationTicks": 192,
          "midi": 59,
          "name": "B3",
          "ticks": 76800,
          "time": 92.30759999999998,
          "velocity": 0.6929133858267716
        },
        {
          "duration": 0.23076900000000933,
          "durationTicks": 192,
          "midi": 52,
          "name": "E3",
          "ticks": 76800,
          "time": 92.30759999999998,
          "velocity": 0.6929133858267716
        },
        {
          "duration": 0.2307689999999809,
          "durationTicks": 192,
          "midi": 59,
          "name": "B3",
          "ticks": 77184,
          "time": 92.769138,
          "velocity": 0.6929133858267716
        },
        {
          "duration": 0.2307689999999809,
          "durationTicks": 192,
          "midi": 52,
          "name": "E3",
          "ticks": 77184,
          "time": 92.769138,
          "velocity": 0.6929133858267716
        },
        {
          "duration": 0.3461534999999998,
          "durationTicks": 288,
          "midi": 59,
          "name": "B3",
          "ticks": 77568,
          "time": 93.23067599999999,
          "velocity": 0.6929133858267716
        },
        {
          "duration": 0.3461534999999998,
          "durationTicks": 288,
          "midi": 52,
          "name": "E3",
          "ticks": 77568,
          "time": 93.23067599999999,
          "velocity": 0.6929133858267716
        },
        {
          "duration": 0.11538449999999045,
          "durationTicks": 96,
          "midi": 67,
          "name": "G4",
          "ticks": 77856,
          "time": 93.57682949999999,
          "velocity": 0.6929133858267716
        },
        {
          "duration": 0.11538449999999045,
          "durationTicks": 96,
          "midi": 62,
          "name": "D4",
          "ticks": 77856,
          "time": 93.57682949999999,
          "velocity": 0.6929133858267716
        },
        {
          "duration": 0.346153500000014,
          "durationTicks": 288,
          "midi": 69,
          "name": "A4",
          "ticks": 77952,
          "time": 93.69221399999998,
          "velocity": 0.6929133858267716
        },
        {
          "duration": 0.346153500000014,
          "durationTicks": 288,
          "midi": 64,
          "name": "E4",
          "ticks": 77952,
          "time": 93.69221399999998,
          "velocity": 0.6929133858267716
        },
        {
          "duration": 0.11538450000000466,
          "durationTicks": 96,
          "midi": 67,
          "name": "G4",
          "ticks": 78240,
          "time": 94.03836749999999,
          "velocity": 0.6929133858267716
        },
        {
          "duration": 0.11538450000000466,
          "durationTicks": 96,
          "midi": 62,
          "name": "D4",
          "ticks": 78240,
          "time": 94.03836749999999,
          "velocity": 0.6929133858267716
        },
        {
          "duration": 0.46153799999999023,
          "durationTicks": 384,
          "midi": 68,
          "name": "G#4",
          "ticks": 78336,
          "time": 94.153752,
          "velocity": 0.6929133858267716
        },
        {
          "duration": 0.46153799999999023,
          "durationTicks": 384,
          "midi": 59,
          "name": "B3",
          "ticks": 78336,
          "time": 94.153752,
          "velocity": 0.6929133858267716
        },
        {
          "duration": 0.46153799999999023,
          "durationTicks": 384,
          "midi": 52,
          "name": "E3",
          "ticks": 78336,
          "time": 94.153752,
          "velocity": 0.6929133858267716
        },
        {
          "duration": 0.46153799999999023,
          "durationTicks": 384,
          "midi": 59,
          "name": "B3",
          "ticks": 78720,
          "time": 94.61528999999999,
          "velocity": 0.6929133858267716
        },
        {
          "duration": 0.46153799999999023,
          "durationTicks": 384,
          "midi": 52,
          "name": "E3",
          "ticks": 78720,
          "time": 94.61528999999999,
          "velocity": 0.6929133858267716
        },
        {
          "duration": 0.46153800000001866,
          "durationTicks": 384,
          "midi": 59,
          "name": "B3",
          "ticks": 79104,
          "time": 95.07682799999998,
          "velocity": 0.6929133858267716
        },
        {
          "duration": 0.46153800000001866,
          "durationTicks": 384,
          "midi": 52,
          "name": "E3",
          "ticks": 79104,
          "time": 95.07682799999998,
          "velocity": 0.6929133858267716
        },
        {
          "duration": 0.46153799999999023,
          "durationTicks": 384,
          "midi": 52,
          "name": "E3",
          "ticks": 79488,
          "time": 95.538366,
          "velocity": 0.6929133858267716
        },
        {
          "duration": 0.46153799999999023,
          "durationTicks": 384,
          "midi": 59,
          "name": "B3",
          "ticks": 79488,
          "time": 95.538366,
          "velocity": 0.6929133858267716
        },
        {
          "duration": 0.46153800000000444,
          "durationTicks": 384,
          "midi": 66,
          "name": "F#4",
          "ticks": 79872,
          "time": 95.99990399999999,
          "velocity": 0.6929133858267716
        },
        {
          "duration": 0.46153800000000444,
          "durationTicks": 384,
          "midi": 59,
          "name": "B3",
          "ticks": 79872,
          "time": 95.99990399999999,
          "velocity": 0.6929133858267716
        },
        {
          "duration": 0.46153800000000444,
          "durationTicks": 384,
          "midi": 68,
          "name": "G#4",
          "ticks": 80256,
          "time": 96.46144199999999,
          "velocity": 0.6929133858267716
        },
        {
          "duration": 0.46153800000000444,
          "durationTicks": 384,
          "midi": 59,
          "name": "B3",
          "ticks": 80256,
          "time": 96.46144199999999,
          "velocity": 0.6929133858267716
        },
        {
          "duration": 0.30769200000000296,
          "durationTicks": 256,
          "midi": 59,
          "name": "B3",
          "ticks": 80640,
          "time": 96.92298,
          "velocity": 0.6929133858267716
        },
        {
          "duration": 0.30769200000000296,
          "durationTicks": 256,
          "midi": 68,
          "name": "G#4",
          "ticks": 80640,
          "time": 96.92298,
          "velocity": 0.6929133858267716
        },
        {
          "duration": 0.30769199999998875,
          "durationTicks": 256,
          "midi": 66,
          "name": "F#4",
          "ticks": 80896,
          "time": 97.230672,
          "velocity": 0.6929133858267716
        },
        {
          "duration": 0.30769199999998875,
          "durationTicks": 256,
          "midi": 59,
          "name": "B3",
          "ticks": 80896,
          "time": 97.230672,
          "velocity": 0.6929133858267716
        },
        {
          "duration": 0.15384600000000148,
          "durationTicks": 128,
          "midi": 66,
          "name": "F#4",
          "ticks": 81280,
          "time": 97.69220999999999,
          "velocity": 0.6929133858267716
        },
        {
          "duration": 0.15384600000000148,
          "durationTicks": 128,
          "midi": 59,
          "name": "B3",
          "ticks": 81280,
          "time": 97.69220999999999,
          "velocity": 0.6929133858267716
        },
        {
          "duration": 0.30769200000000296,
          "durationTicks": 256,
          "midi": 68,
          "name": "G#4",
          "ticks": 81408,
          "time": 97.84605599999999,
          "velocity": 0.6929133858267716
        },
        {
          "duration": 0.30769200000000296,
          "durationTicks": 256,
          "midi": 59,
          "name": "B3",
          "ticks": 81408,
          "time": 97.84605599999999,
          "velocity": 0.6929133858267716
        },
        {
          "duration": 0.15384600000000148,
          "durationTicks": 128,
          "midi": 59,
          "name": "B3",
          "ticks": 81664,
          "time": 98.153748,
          "velocity": 0.6929133858267716
        },
        {
          "duration": 0.15384600000000148,
          "durationTicks": 128,
          "midi": 66,
          "name": "F#4",
          "ticks": 81664,
          "time": 98.153748,
          "velocity": 0.6929133858267716
        },
        {
          "duration": 0.30769200000000296,
          "durationTicks": 256,
          "midi": 68,
          "name": "G#4",
          "ticks": 81792,
          "time": 98.307594,
          "velocity": 0.6929133858267716
        },
        {
          "duration": 0.30769200000000296,
          "durationTicks": 256,
          "midi": 59,
          "name": "B3",
          "ticks": 81792,
          "time": 98.307594,
          "velocity": 0.6929133858267716
        },
        {
          "duration": 0.46153800000001866,
          "durationTicks": 384,
          "midi": 71,
          "name": "B4",
          "ticks": 82032,
          "time": 98.59605524999998,
          "velocity": 0.6929133858267716
        },
        {
          "duration": 0.46153800000001866,
          "durationTicks": 384,
          "midi": 66,
          "name": "F#4",
          "ticks": 82032,
          "time": 98.59605524999998,
          "velocity": 0.6929133858267716
        },
        {
          "duration": 0.46153800000001866,
          "durationTicks": 384,
          "midi": 59,
          "name": "B3",
          "ticks": 82032,
          "time": 98.59605524999998,
          "velocity": 0.6929133858267716
        },
        {
          "duration": 0.15384600000000148,
          "durationTicks": 128,
          "midi": 66,
          "name": "F#4",
          "ticks": 82432,
          "time": 99.07682399999999,
          "velocity": 0.6929133858267716
        },
        {
          "duration": 0.15384600000000148,
          "durationTicks": 128,
          "midi": 59,
          "name": "B3",
          "ticks": 82432,
          "time": 99.07682399999999,
          "velocity": 0.6929133858267716
        },
        {
          "duration": 0.30769200000000296,
          "durationTicks": 256,
          "midi": 68,
          "name": "G#4",
          "ticks": 82560,
          "time": 99.23066999999999,
          "velocity": 0.6929133858267716
        },
        {
          "duration": 0.30769200000000296,
          "durationTicks": 256,
          "midi": 59,
          "name": "B3",
          "ticks": 82560,
          "time": 99.23066999999999,
          "velocity": 0.6929133858267716
        },
        {
          "duration": 0.15384600000000148,
          "durationTicks": 128,
          "midi": 66,
          "name": "F#4",
          "ticks": 82816,
          "time": 99.53836199999999,
          "velocity": 0.6929133858267716
        },
        {
          "duration": 0.15384600000000148,
          "durationTicks": 128,
          "midi": 59,
          "name": "B3",
          "ticks": 82816,
          "time": 99.53836199999999,
          "velocity": 0.6929133858267716
        },
        {
          "duration": 0.46153799999999023,
          "durationTicks": 384,
          "midi": 66,
          "name": "F#4",
          "ticks": 82944,
          "time": 99.692208,
          "velocity": 0.6929133858267716
        },
        {
          "duration": 0.46153799999999023,
          "durationTicks": 384,
          "midi": 59,
          "name": "B3",
          "ticks": 82944,
          "time": 99.692208,
          "velocity": 0.6929133858267716
        },
        {
          "duration": 0.46153800000000444,
          "durationTicks": 384,
          "midi": 68,
          "name": "G#4",
          "ticks": 83328,
          "time": 100.15374599999998,
          "velocity": 0.6929133858267716
        },
        {
          "duration": 0.46153800000000444,
          "durationTicks": 384,
          "midi": 59,
          "name": "B3",
          "ticks": 83328,
          "time": 100.15374599999998,
          "velocity": 0.6929133858267716
        },
        {
          "duration": 0.30769200000000296,
          "durationTicks": 256,
          "midi": 59,
          "name": "B3",
          "ticks": 83712,
          "time": 100.61528399999999,
          "velocity": 0.6929133858267716
        },
        {
          "duration": 0.30769200000000296,
          "durationTicks": 256,
          "midi": 68,
          "name": "G#4",
          "ticks": 83712,
          "time": 100.61528399999999,
          "velocity": 0.6929133858267716
        },
        {
          "duration": 0.30769199999998875,
          "durationTicks": 256,
          "midi": 66,
          "name": "F#4",
          "ticks": 83968,
          "time": 100.92297599999999,
          "velocity": 0.6929133858267716
        },
        {
          "duration": 0.30769199999998875,
          "durationTicks": 256,
          "midi": 59,
          "name": "B3",
          "ticks": 83968,
          "time": 100.92297599999999,
          "velocity": 0.6929133858267716
        },
        {
          "duration": 0.15384599999998727,
          "durationTicks": 128,
          "midi": 66,
          "name": "F#4",
          "ticks": 84352,
          "time": 101.384514,
          "velocity": 0.6929133858267716
        },
        {
          "duration": 0.15384599999998727,
          "durationTicks": 128,
          "midi": 59,
          "name": "B3",
          "ticks": 84352,
          "time": 101.384514,
          "velocity": 0.6929133858267716
        },
        {
          "duration": 0.30769200000000296,
          "durationTicks": 256,
          "midi": 68,
          "name": "G#4",
          "ticks": 84480,
          "time": 101.53835999999998,
          "velocity": 0.6929133858267716
        },
        {
          "duration": 0.30769200000000296,
          "durationTicks": 256,
          "midi": 59,
          "name": "B3",
          "ticks": 84480,
          "time": 101.53835999999998,
          "velocity": 0.6929133858267716
        },
        {
          "duration": 0.15384600000000148,
          "durationTicks": 128,
          "midi": 59,
          "name": "B3",
          "ticks": 84736,
          "time": 101.84605199999999,
          "velocity": 0.6929133858267716
        },
        {
          "duration": 0.15384600000000148,
          "durationTicks": 128,
          "midi": 66,
          "name": "F#4",
          "ticks": 84736,
          "time": 101.84605199999999,
          "velocity": 0.6929133858267716
        },
        {
          "duration": 0.30769200000000296,
          "durationTicks": 256,
          "midi": 68,
          "name": "G#4",
          "ticks": 84864,
          "time": 101.99989799999999,
          "velocity": 0.6929133858267716
        },
        {
          "duration": 0.30769200000000296,
          "durationTicks": 256,
          "midi": 59,
          "name": "B3",
          "ticks": 84864,
          "time": 101.99989799999999,
          "velocity": 0.6929133858267716
        },
        {
          "duration": 0.46153800000000444,
          "durationTicks": 384,
          "midi": 71,
          "name": "B4",
          "ticks": 85104,
          "time": 102.28835924999998,
          "velocity": 0.6929133858267716
        },
        {
          "duration": 0.46153800000000444,
          "durationTicks": 384,
          "midi": 66,
          "name": "F#4",
          "ticks": 85104,
          "time": 102.28835924999998,
          "velocity": 0.6929133858267716
        },
        {
          "duration": 0.46153800000000444,
          "durationTicks": 384,
          "midi": 59,
          "name": "B3",
          "ticks": 85104,
          "time": 102.28835924999998,
          "velocity": 0.6929133858267716
        },
        {
          "duration": 0.15384599999998727,
          "durationTicks": 128,
          "midi": 66,
          "name": "F#4",
          "ticks": 85504,
          "time": 102.769128,
          "velocity": 0.6929133858267716
        },
        {
          "duration": 0.15384599999998727,
          "durationTicks": 128,
          "midi": 59,
          "name": "B3",
          "ticks": 85504,
          "time": 102.769128,
          "velocity": 0.6929133858267716
        },
        {
          "duration": 0.30769200000000296,
          "durationTicks": 256,
          "midi": 68,
          "name": "G#4",
          "ticks": 85632,
          "time": 102.92297399999998,
          "velocity": 0.6929133858267716
        },
        {
          "duration": 0.30769200000000296,
          "durationTicks": 256,
          "midi": 59,
          "name": "B3",
          "ticks": 85632,
          "time": 102.92297399999998,
          "velocity": 0.6929133858267716
        },
        {
          "duration": 0.15384600000000148,
          "durationTicks": 128,
          "midi": 66,
          "name": "F#4",
          "ticks": 85888,
          "time": 103.23066599999999,
          "velocity": 0.6929133858267716
        },
        {
          "duration": 0.15384600000000148,
          "durationTicks": 128,
          "midi": 59,
          "name": "B3",
          "ticks": 85888,
          "time": 103.23066599999999,
          "velocity": 0.6929133858267716
        },
        {
          "duration": 0.46153800000000444,
          "durationTicks": 384,
          "midi": 66,
          "name": "F#4",
          "ticks": 86016,
          "time": 103.38451199999999,
          "velocity": 0.6929133858267716
        },
        {
          "duration": 0.46153800000000444,
          "durationTicks": 384,
          "midi": 59,
          "name": "B3",
          "ticks": 86016,
          "time": 103.38451199999999,
          "velocity": 0.6929133858267716
        },
        {
          "duration": 0.46153799999999023,
          "durationTicks": 384,
          "midi": 68,
          "name": "G#4",
          "ticks": 86400,
          "time": 103.84604999999999,
          "velocity": 0.6929133858267716
        },
        {
          "duration": 0.46153799999999023,
          "durationTicks": 384,
          "midi": 59,
          "name": "B3",
          "ticks": 86400,
          "time": 103.84604999999999,
          "velocity": 0.6929133858267716
        },
        {
          "duration": 0.30769200000000296,
          "durationTicks": 256,
          "midi": 59,
          "name": "B3",
          "ticks": 86784,
          "time": 104.30758799999998,
          "velocity": 0.6929133858267716
        },
        {
          "duration": 0.30769200000000296,
          "durationTicks": 256,
          "midi": 68,
          "name": "G#4",
          "ticks": 86784,
          "time": 104.30758799999998,
          "velocity": 0.6929133858267716
        },
        {
          "duration": 0.30769200000000296,
          "durationTicks": 256,
          "midi": 66,
          "name": "F#4",
          "ticks": 87040,
          "time": 104.61527999999998,
          "velocity": 0.6929133858267716
        },
        {
          "duration": 0.30769200000000296,
          "durationTicks": 256,
          "midi": 59,
          "name": "B3",
          "ticks": 87040,
          "time": 104.61527999999998,
          "velocity": 0.6929133858267716
        },
        {
          "duration": 0.15384600000000148,
          "durationTicks": 128,
          "midi": 66,
          "name": "F#4",
          "ticks": 87424,
          "time": 105.07681799999999,
          "velocity": 0.6929133858267716
        },
        {
          "duration": 0.15384600000000148,
          "durationTicks": 128,
          "midi": 59,
          "name": "B3",
          "ticks": 87424,
          "time": 105.07681799999999,
          "velocity": 0.6929133858267716
        },
        {
          "duration": 0.30769200000000296,
          "durationTicks": 256,
          "midi": 68,
          "name": "G#4",
          "ticks": 87552,
          "time": 105.23066399999999,
          "velocity": 0.6929133858267716
        },
        {
          "duration": 0.30769200000000296,
          "durationTicks": 256,
          "midi": 59,
          "name": "B3",
          "ticks": 87552,
          "time": 105.23066399999999,
          "velocity": 0.6929133858267716
        },
        {
          "duration": 0.15384599999998727,
          "durationTicks": 128,
          "midi": 59,
          "name": "B3",
          "ticks": 87808,
          "time": 105.538356,
          "velocity": 0.6929133858267716
        },
        {
          "duration": 0.15384599999998727,
          "durationTicks": 128,
          "midi": 66,
          "name": "F#4",
          "ticks": 87808,
          "time": 105.538356,
          "velocity": 0.6929133858267716
        },
        {
          "duration": 0.30769200000000296,
          "durationTicks": 256,
          "midi": 68,
          "name": "G#4",
          "ticks": 87936,
          "time": 105.69220199999998,
          "velocity": 0.6929133858267716
        },
        {
          "duration": 0.30769200000000296,
          "durationTicks": 256,
          "midi": 59,
          "name": "B3",
          "ticks": 87936,
          "time": 105.69220199999998,
          "velocity": 0.6929133858267716
        },
        {
          "duration": 0.46153799999999023,
          "durationTicks": 384,
          "midi": 71,
          "name": "B4",
          "ticks": 88176,
          "time": 105.98066324999999,
          "velocity": 0.6929133858267716
        },
        {
          "duration": 0.46153799999999023,
          "durationTicks": 384,
          "midi": 66,
          "name": "F#4",
          "ticks": 88176,
          "time": 105.98066324999999,
          "velocity": 0.6929133858267716
        },
        {
          "duration": 0.46153799999999023,
          "durationTicks": 384,
          "midi": 59,
          "name": "B3",
          "ticks": 88176,
          "time": 105.98066324999999,
          "velocity": 0.6929133858267716
        },
        {
          "duration": 0.15384600000000148,
          "durationTicks": 128,
          "midi": 66,
          "name": "F#4",
          "ticks": 88576,
          "time": 106.46143199999999,
          "velocity": 0.6929133858267716
        },
        {
          "duration": 0.15384600000000148,
          "durationTicks": 128,
          "midi": 59,
          "name": "B3",
          "ticks": 88576,
          "time": 106.46143199999999,
          "velocity": 0.6929133858267716
        },
        {
          "duration": 0.30769200000000296,
          "durationTicks": 256,
          "midi": 68,
          "name": "G#4",
          "ticks": 88704,
          "time": 106.61527799999999,
          "velocity": 0.6929133858267716
        },
        {
          "duration": 0.30769200000000296,
          "durationTicks": 256,
          "midi": 59,
          "name": "B3",
          "ticks": 88704,
          "time": 106.61527799999999,
          "velocity": 0.6929133858267716
        },
        {
          "duration": 0.15384599999998727,
          "durationTicks": 128,
          "midi": 66,
          "name": "F#4",
          "ticks": 88960,
          "time": 106.92296999999999,
          "velocity": 0.6929133858267716
        },
        {
          "duration": 0.15384599999998727,
          "durationTicks": 128,
          "midi": 59,
          "name": "B3",
          "ticks": 88960,
          "time": 106.92296999999999,
          "velocity": 0.6929133858267716
        },
        {
          "duration": 0.46153800000000444,
          "durationTicks": 384,
          "midi": 66,
          "name": "F#4",
          "ticks": 89088,
          "time": 107.07681599999998,
          "velocity": 0.6929133858267716
        },
        {
          "duration": 0.46153800000000444,
          "durationTicks": 384,
          "midi": 59,
          "name": "B3",
          "ticks": 89088,
          "time": 107.07681599999998,
          "velocity": 0.6929133858267716
        },
        {
          "duration": 0.46153800000000444,
          "durationTicks": 384,
          "midi": 68,
          "name": "G#4",
          "ticks": 89472,
          "time": 107.53835399999998,
          "velocity": 0.6929133858267716
        },
        {
          "duration": 0.46153800000000444,
          "durationTicks": 384,
          "midi": 59,
          "name": "B3",
          "ticks": 89472,
          "time": 107.53835399999998,
          "velocity": 0.6929133858267716
        },
        {
          "duration": 0.30769200000000296,
          "durationTicks": 256,
          "midi": 59,
          "name": "B3",
          "ticks": 89856,
          "time": 107.99989199999999,
          "velocity": 0.6929133858267716
        },
        {
          "duration": 0.30769200000000296,
          "durationTicks": 256,
          "midi": 68,
          "name": "G#4",
          "ticks": 89856,
          "time": 107.99989199999999,
          "velocity": 0.6929133858267716
        },
        {
          "duration": 0.30769199999998875,
          "durationTicks": 256,
          "midi": 66,
          "name": "F#4",
          "ticks": 90112,
          "time": 108.30758399999999,
          "velocity": 0.6929133858267716
        },
        {
          "duration": 0.30769199999998875,
          "durationTicks": 256,
          "midi": 59,
          "name": "B3",
          "ticks": 90112,
          "time": 108.30758399999999,
          "velocity": 0.6929133858267716
        },
        {
          "duration": 0.15384600000000148,
          "durationTicks": 128,
          "midi": 66,
          "name": "F#4",
          "ticks": 90496,
          "time": 108.76912199999998,
          "velocity": 0.6929133858267716
        },
        {
          "duration": 0.15384600000000148,
          "durationTicks": 128,
          "midi": 59,
          "name": "B3",
          "ticks": 90496,
          "time": 108.76912199999998,
          "velocity": 0.6929133858267716
        },
        {
          "duration": 0.30769200000000296,
          "durationTicks": 256,
          "midi": 68,
          "name": "G#4",
          "ticks": 90624,
          "time": 108.92296799999998,
          "velocity": 0.6929133858267716
        },
        {
          "duration": 0.30769200000000296,
          "durationTicks": 256,
          "midi": 59,
          "name": "B3",
          "ticks": 90624,
          "time": 108.92296799999998,
          "velocity": 0.6929133858267716
        },
        {
          "duration": 0.15384600000000148,
          "durationTicks": 128,
          "midi": 59,
          "name": "B3",
          "ticks": 90880,
          "time": 109.23065999999999,
          "velocity": 0.6929133858267716
        },
        {
          "duration": 0.15384600000000148,
          "durationTicks": 128,
          "midi": 66,
          "name": "F#4",
          "ticks": 90880,
          "time": 109.23065999999999,
          "velocity": 0.6929133858267716
        },
        {
          "duration": 0.30769200000000296,
          "durationTicks": 256,
          "midi": 68,
          "name": "G#4",
          "ticks": 91008,
          "time": 109.38450599999999,
          "velocity": 0.6929133858267716
        },
        {
          "duration": 0.30769200000000296,
          "durationTicks": 256,
          "midi": 59,
          "name": "B3",
          "ticks": 91008,
          "time": 109.38450599999999,
          "velocity": 0.6929133858267716
        },
        {
          "duration": 0.46153800000000444,
          "durationTicks": 384,
          "midi": 71,
          "name": "B4",
          "ticks": 91248,
          "time": 109.67296724999999,
          "velocity": 0.6929133858267716
        },
        {
          "duration": 0.46153800000000444,
          "durationTicks": 384,
          "midi": 66,
          "name": "F#4",
          "ticks": 91248,
          "time": 109.67296724999999,
          "velocity": 0.6929133858267716
        },
        {
          "duration": 0.46153800000000444,
          "durationTicks": 384,
          "midi": 59,
          "name": "B3",
          "ticks": 91248,
          "time": 109.67296724999999,
          "velocity": 0.6929133858267716
        },
        {
          "duration": 0.15384600000000148,
          "durationTicks": 128,
          "midi": 66,
          "name": "F#4",
          "ticks": 91648,
          "time": 110.15373599999998,
          "velocity": 0.6929133858267716
        },
        {
          "duration": 0.15384600000000148,
          "durationTicks": 128,
          "midi": 59,
          "name": "B3",
          "ticks": 91648,
          "time": 110.15373599999998,
          "velocity": 0.6929133858267716
        },
        {
          "duration": 0.30769200000000296,
          "durationTicks": 256,
          "midi": 68,
          "name": "G#4",
          "ticks": 91776,
          "time": 110.30758199999998,
          "velocity": 0.6929133858267716
        },
        {
          "duration": 0.30769200000000296,
          "durationTicks": 256,
          "midi": 59,
          "name": "B3",
          "ticks": 91776,
          "time": 110.30758199999998,
          "velocity": 0.6929133858267716
        },
        {
          "duration": 0.15384600000000148,
          "durationTicks": 128,
          "midi": 66,
          "name": "F#4",
          "ticks": 92032,
          "time": 110.61527399999999,
          "velocity": 0.6929133858267716
        },
        {
          "duration": 0.15384600000000148,
          "durationTicks": 128,
          "midi": 59,
          "name": "B3",
          "ticks": 92032,
          "time": 110.61527399999999,
          "velocity": 0.6929133858267716
        },
        {
          "duration": 0.46153800000000444,
          "durationTicks": 384,
          "midi": 64,
          "name": "E4",
          "ticks": 92160,
          "time": 110.76911999999999,
          "velocity": 0.6929133858267716
        },
        {
          "duration": 0.46153800000000444,
          "durationTicks": 384,
          "midi": 57,
          "name": "A3",
          "ticks": 92160,
          "time": 110.76911999999999,
          "velocity": 0.6929133858267716
        },
        {
          "duration": 0.46153799999999023,
          "durationTicks": 384,
          "midi": 66,
          "name": "F#4",
          "ticks": 92544,
          "time": 111.23065799999999,
          "velocity": 0.6929133858267716
        },
        {
          "duration": 0.46153799999999023,
          "durationTicks": 384,
          "midi": 57,
          "name": "A3",
          "ticks": 92544,
          "time": 111.23065799999999,
          "velocity": 0.6929133858267716
        },
        {
          "duration": 0.30769200000000296,
          "durationTicks": 256,
          "midi": 57,
          "name": "A3",
          "ticks": 92928,
          "time": 111.69219599999998,
          "velocity": 0.6929133858267716
        },
        {
          "duration": 0.30769200000000296,
          "durationTicks": 256,
          "midi": 66,
          "name": "F#4",
          "ticks": 92928,
          "time": 111.69219599999998,
          "velocity": 0.6929133858267716
        },
        {
          "duration": 0.30769200000000296,
          "durationTicks": 256,
          "midi": 64,
          "name": "E4",
          "ticks": 93184,
          "time": 111.99988799999998,
          "velocity": 0.6929133858267716
        },
        {
          "duration": 0.30769200000000296,
          "durationTicks": 256,
          "midi": 57,
          "name": "A3",
          "ticks": 93184,
          "time": 111.99988799999998,
          "velocity": 0.6929133858267716
        },
        {
          "duration": 0.15384600000000148,
          "durationTicks": 128,
          "midi": 64,
          "name": "E4",
          "ticks": 93568,
          "time": 112.46142599999999,
          "velocity": 0.6929133858267716
        },
        {
          "duration": 0.15384600000000148,
          "durationTicks": 128,
          "midi": 57,
          "name": "A3",
          "ticks": 93568,
          "time": 112.46142599999999,
          "velocity": 0.6929133858267716
        },
        {
          "duration": 0.30769199999998875,
          "durationTicks": 256,
          "midi": 66,
          "name": "F#4",
          "ticks": 93696,
          "time": 112.61527199999999,
          "velocity": 0.6929133858267716
        },
        {
          "duration": 0.30769199999998875,
          "durationTicks": 256,
          "midi": 57,
          "name": "A3",
          "ticks": 93696,
          "time": 112.61527199999999,
          "velocity": 0.6929133858267716
        },
        {
          "duration": 0.30769199999998875,
          "durationTicks": 256,
          "midi": 73,
          "name": "C#5",
          "ticks": 93696,
          "time": 112.61527199999999,
          "velocity": 0.6929133858267716
        },
        {
          "duration": 0.15384600000000148,
          "durationTicks": 128,
          "midi": 57,
          "name": "A3",
          "ticks": 93952,
          "time": 112.92296399999998,
          "velocity": 0.6929133858267716
        },
        {
          "duration": 0.15384600000000148,
          "durationTicks": 128,
          "midi": 64,
          "name": "E4",
          "ticks": 93952,
          "time": 112.92296399999998,
          "velocity": 0.6929133858267716
        },
        {
          "duration": 0.15384600000000148,
          "durationTicks": 128,
          "midi": 76,
          "name": "E5",
          "ticks": 93952,
          "time": 112.92296399999998,
          "velocity": 0.6929133858267716
        },
        {
          "duration": 0.30769200000000296,
          "durationTicks": 256,
          "midi": 66,
          "name": "F#4",
          "ticks": 94080,
          "time": 113.07680999999998,
          "velocity": 0.6929133858267716
        },
        {
          "duration": 0.30769200000000296,
          "durationTicks": 256,
          "midi": 57,
          "name": "A3",
          "ticks": 94080,
          "time": 113.07680999999998,
          "velocity": 0.6929133858267716
        },
        {
          "duration": 0.30769200000000296,
          "durationTicks": 256,
          "midi": 79,
          "name": "G5",
          "ticks": 94080,
          "time": 113.07680999999998,
          "velocity": 0.6929133858267716
        },
        {
          "duration": 0.46153800000000444,
          "durationTicks": 384,
          "midi": 69,
          "name": "A4",
          "ticks": 94320,
          "time": 113.36527124999998,
          "velocity": 0.6929133858267716
        },
        {
          "duration": 0.46153800000000444,
          "durationTicks": 384,
          "midi": 64,
          "name": "E4",
          "ticks": 94320,
          "time": 113.36527124999998,
          "velocity": 0.6929133858267716
        },
        {
          "duration": 0.46153800000000444,
          "durationTicks": 384,
          "midi": 57,
          "name": "A3",
          "ticks": 94320,
          "time": 113.36527124999998,
          "velocity": 0.6929133858267716
        },
        {
          "duration": 0.6923069999999996,
          "durationTicks": 576,
          "midi": 78,
          "name": "F#5",
          "ticks": 94320,
          "time": 113.36527124999998,
          "velocity": 0.6929133858267716
        },
        {
          "duration": 0.15384600000000148,
          "durationTicks": 128,
          "midi": 64,
          "name": "E4",
          "ticks": 94720,
          "time": 113.84603999999999,
          "velocity": 0.6929133858267716
        },
        {
          "duration": 0.15384600000000148,
          "durationTicks": 128,
          "midi": 57,
          "name": "A3",
          "ticks": 94720,
          "time": 113.84603999999999,
          "velocity": 0.6929133858267716
        },
        {
          "duration": 0.30769199999998875,
          "durationTicks": 256,
          "midi": 66,
          "name": "F#4",
          "ticks": 94848,
          "time": 113.99988599999999,
          "velocity": 0.6929133858267716
        },
        {
          "duration": 0.30769199999998875,
          "durationTicks": 256,
          "midi": 57,
          "name": "A3",
          "ticks": 94848,
          "time": 113.99988599999999,
          "velocity": 0.6929133858267716
        },
        {
          "duration": 0.15384600000000148,
          "durationTicks": 128,
          "midi": 64,
          "name": "E4",
          "ticks": 95104,
          "time": 114.30757799999998,
          "velocity": 0.6929133858267716
        },
        {
          "duration": 0.15384600000000148,
          "durationTicks": 128,
          "midi": 57,
          "name": "A3",
          "ticks": 95104,
          "time": 114.30757799999998,
          "velocity": 0.6929133858267716
        },
        {
          "duration": 0.46153800000000444,
          "durationTicks": 384,
          "midi": 64,
          "name": "E4",
          "ticks": 95232,
          "time": 114.46142399999998,
          "velocity": 0.6929133858267716
        },
        {
          "duration": 0.46153800000000444,
          "durationTicks": 384,
          "midi": 57,
          "name": "A3",
          "ticks": 95232,
          "time": 114.46142399999998,
          "velocity": 0.6929133858267716
        },
        {
          "duration": 0.46153800000000444,
          "durationTicks": 384,
          "midi": 66,
          "name": "F#4",
          "ticks": 95616,
          "time": 114.92296199999998,
          "velocity": 0.6929133858267716
        },
        {
          "duration": 0.46153800000000444,
          "durationTicks": 384,
          "midi": 57,
          "name": "A3",
          "ticks": 95616,
          "time": 114.92296199999998,
          "velocity": 0.6929133858267716
        },
        {
          "duration": 0.30769200000000296,
          "durationTicks": 256,
          "midi": 57,
          "name": "A3",
          "ticks": 96000,
          "time": 115.38449999999999,
          "velocity": 0.6929133858267716
        },
        {
          "duration": 0.30769200000000296,
          "durationTicks": 256,
          "midi": 66,
          "name": "F#4",
          "ticks": 96000,
          "time": 115.38449999999999,
          "velocity": 0.6929133858267716
        },
        {
          "duration": 0.30769199999998875,
          "durationTicks": 256,
          "midi": 64,
          "name": "E4",
          "ticks": 96256,
          "time": 115.69219199999999,
          "velocity": 0.6929133858267716
        },
        {
          "duration": 0.30769199999998875,
          "durationTicks": 256,
          "midi": 57,
          "name": "A3",
          "ticks": 96256,
          "time": 115.69219199999999,
          "velocity": 0.6929133858267716
        },
        {
          "duration": 0.15384600000000148,
          "durationTicks": 128,
          "midi": 64,
          "name": "E4",
          "ticks": 96640,
          "time": 116.15372999999998,
          "velocity": 0.6929133858267716
        },
        {
          "duration": 0.15384600000000148,
          "durationTicks": 128,
          "midi": 57,
          "name": "A3",
          "ticks": 96640,
          "time": 116.15372999999998,
          "velocity": 0.6929133858267716
        },
        {
          "duration": 0.30769200000000296,
          "durationTicks": 256,
          "midi": 66,
          "name": "F#4",
          "ticks": 96768,
          "time": 116.30757599999998,
          "velocity": 0.6929133858267716
        },
        {
          "duration": 0.30769200000000296,
          "durationTicks": 256,
          "midi": 57,
          "name": "A3",
          "ticks": 96768,
          "time": 116.30757599999998,
          "velocity": 0.6929133858267716
        },
        {
          "duration": 0.30769200000000296,
          "durationTicks": 256,
          "midi": 73,
          "name": "C#5",
          "ticks": 96768,
          "time": 116.30757599999998,
          "velocity": 0.6929133858267716
        },
        {
          "duration": 0.15384600000000148,
          "durationTicks": 128,
          "midi": 57,
          "name": "A3",
          "ticks": 97024,
          "time": 116.61526799999999,
          "velocity": 0.6929133858267716
        },
        {
          "duration": 0.15384600000000148,
          "durationTicks": 128,
          "midi": 64,
          "name": "E4",
          "ticks": 97024,
          "time": 116.61526799999999,
          "velocity": 0.6929133858267716
        },
        {
          "duration": 0.15384600000000148,
          "durationTicks": 128,
          "midi": 76,
          "name": "E5",
          "ticks": 97024,
          "time": 116.61526799999999,
          "velocity": 0.6929133858267716
        },
        {
          "duration": 0.30769200000000296,
          "durationTicks": 256,
          "midi": 66,
          "name": "F#4",
          "ticks": 97152,
          "time": 116.76911399999999,
          "velocity": 0.6929133858267716
        },
        {
          "duration": 0.30769200000000296,
          "durationTicks": 256,
          "midi": 57,
          "name": "A3",
          "ticks": 97152,
          "time": 116.76911399999999,
          "velocity": 0.6929133858267716
        },
        {
          "duration": 0.30769200000000296,
          "durationTicks": 256,
          "midi": 79,
          "name": "G5",
          "ticks": 97152,
          "time": 116.76911399999999,
          "velocity": 0.6929133858267716
        },
        {
          "duration": 0.46153800000000444,
          "durationTicks": 384,
          "midi": 69,
          "name": "A4",
          "ticks": 97392,
          "time": 117.05757524999999,
          "velocity": 0.6929133858267716
        },
        {
          "duration": 0.46153800000000444,
          "durationTicks": 384,
          "midi": 64,
          "name": "E4",
          "ticks": 97392,
          "time": 117.05757524999999,
          "velocity": 0.6929133858267716
        },
        {
          "duration": 0.46153800000000444,
          "durationTicks": 384,
          "midi": 57,
          "name": "A3",
          "ticks": 97392,
          "time": 117.05757524999999,
          "velocity": 0.6929133858267716
        },
        {
          "duration": 0.6923069999999996,
          "durationTicks": 576,
          "midi": 78,
          "name": "F#5",
          "ticks": 97392,
          "time": 117.05757524999999,
          "velocity": 0.6929133858267716
        },
        {
          "duration": 0.15384600000000148,
          "durationTicks": 128,
          "midi": 64,
          "name": "E4",
          "ticks": 97792,
          "time": 117.53834399999998,
          "velocity": 0.6929133858267716
        },
        {
          "duration": 0.15384600000000148,
          "durationTicks": 128,
          "midi": 57,
          "name": "A3",
          "ticks": 97792,
          "time": 117.53834399999998,
          "velocity": 0.6929133858267716
        },
        {
          "duration": 0.30769200000000296,
          "durationTicks": 256,
          "midi": 66,
          "name": "F#4",
          "ticks": 97920,
          "time": 117.69218999999998,
          "velocity": 0.6929133858267716
        },
        {
          "duration": 0.30769200000000296,
          "durationTicks": 256,
          "midi": 57,
          "name": "A3",
          "ticks": 97920,
          "time": 117.69218999999998,
          "velocity": 0.6929133858267716
        },
        {
          "duration": 0.15384600000000148,
          "durationTicks": 128,
          "midi": 64,
          "name": "E4",
          "ticks": 98176,
          "time": 117.99988199999999,
          "velocity": 0.6929133858267716
        },
        {
          "duration": 0.15384600000000148,
          "durationTicks": 128,
          "midi": 57,
          "name": "A3",
          "ticks": 98176,
          "time": 117.99988199999999,
          "velocity": 0.6929133858267716
        },
        {
          "duration": 0.23076899999999512,
          "durationTicks": 192,
          "midi": 59,
          "name": "B3",
          "ticks": 98304,
          "time": 118.15372799999999,
          "velocity": 0.6929133858267716
        },
        {
          "duration": 0.23076899999999512,
          "durationTicks": 192,
          "midi": 52,
          "name": "E3",
          "ticks": 98304,
          "time": 118.15372799999999,
          "velocity": 0.6929133858267716
        },
        {
          "duration": 0.23076899999999512,
          "durationTicks": 192,
          "midi": 59,
          "name": "B3",
          "ticks": 98688,
          "time": 118.61526599999999,
          "velocity": 0.6929133858267716
        },
        {
          "duration": 0.23076899999999512,
          "durationTicks": 192,
          "midi": 52,
          "name": "E3",
          "ticks": 98688,
          "time": 118.61526599999999,
          "velocity": 0.6929133858267716
        },
        {
          "duration": 0.3461534999999998,
          "durationTicks": 288,
          "midi": 59,
          "name": "B3",
          "ticks": 99072,
          "time": 119.07680399999998,
          "velocity": 0.6929133858267716
        },
        {
          "duration": 0.3461534999999998,
          "durationTicks": 288,
          "midi": 52,
          "name": "E3",
          "ticks": 99072,
          "time": 119.07680399999998,
          "velocity": 0.6929133858267716
        },
        {
          "duration": 0.11538450000000466,
          "durationTicks": 96,
          "midi": 67,
          "name": "G4",
          "ticks": 99360,
          "time": 119.42295749999998,
          "velocity": 0.6929133858267716
        },
        {
          "duration": 0.11538450000000466,
          "durationTicks": 96,
          "midi": 62,
          "name": "D4",
          "ticks": 99360,
          "time": 119.42295749999998,
          "velocity": 0.6929133858267716
        },
        {
          "duration": 0.3461534999999998,
          "durationTicks": 288,
          "midi": 69,
          "name": "A4",
          "ticks": 99456,
          "time": 119.53834199999999,
          "velocity": 0.6929133858267716
        },
        {
          "duration": 0.3461534999999998,
          "durationTicks": 288,
          "midi": 64,
          "name": "E4",
          "ticks": 99456,
          "time": 119.53834199999999,
          "velocity": 0.6929133858267716
        },
        {
          "duration": 0.11538450000000466,
          "durationTicks": 96,
          "midi": 67,
          "name": "G4",
          "ticks": 99744,
          "time": 119.88449549999999,
          "velocity": 0.6929133858267716
        },
        {
          "duration": 0.11538450000000466,
          "durationTicks": 96,
          "midi": 62,
          "name": "D4",
          "ticks": 99744,
          "time": 119.88449549999999,
          "velocity": 0.6929133858267716
        },
        {
          "duration": 0.23076899999999512,
          "durationTicks": 192,
          "midi": 59,
          "name": "B3",
          "ticks": 99840,
          "time": 119.99987999999999,
          "velocity": 0.6929133858267716
        },
        {
          "duration": 0.23076899999999512,
          "durationTicks": 192,
          "midi": 52,
          "name": "E3",
          "ticks": 99840,
          "time": 119.99987999999999,
          "velocity": 0.6929133858267716
        },
        {
          "duration": 0.23076900000000933,
          "durationTicks": 192,
          "midi": 59,
          "name": "B3",
          "ticks": 100224,
          "time": 120.46141799999998,
          "velocity": 0.6929133858267716
        },
        {
          "duration": 0.23076900000000933,
          "durationTicks": 192,
          "midi": 52,
          "name": "E3",
          "ticks": 100224,
          "time": 120.46141799999998,
          "velocity": 0.6929133858267716
        },
        {
          "duration": 0.3461534999999998,
          "durationTicks": 288,
          "midi": 59,
          "name": "B3",
          "ticks": 100608,
          "time": 120.92295599999999,
          "velocity": 0.6929133858267716
        },
        {
          "duration": 0.3461534999999998,
          "durationTicks": 288,
          "midi": 52,
          "name": "E3",
          "ticks": 100608,
          "time": 120.92295599999999,
          "velocity": 0.6929133858267716
        },
        {
          "duration": 0.11538450000000466,
          "durationTicks": 96,
          "midi": 67,
          "name": "G4",
          "ticks": 100896,
          "time": 121.26910949999998,
          "velocity": 0.6929133858267716
        },
        {
          "duration": 0.11538450000000466,
          "durationTicks": 96,
          "midi": 62,
          "name": "D4",
          "ticks": 100896,
          "time": 121.26910949999998,
          "velocity": 0.6929133858267716
        },
        {
          "duration": 0.3461534999999998,
          "durationTicks": 288,
          "midi": 69,
          "name": "A4",
          "ticks": 100992,
          "time": 121.38449399999999,
          "velocity": 0.6929133858267716
        },
        {
          "duration": 0.3461534999999998,
          "durationTicks": 288,
          "midi": 64,
          "name": "E4",
          "ticks": 100992,
          "time": 121.38449399999999,
          "velocity": 0.6929133858267716
        },
        {
          "duration": 0.11538449999999045,
          "durationTicks": 96,
          "midi": 67,
          "name": "G4",
          "ticks": 101280,
          "time": 121.73064749999999,
          "velocity": 0.6929133858267716
        },
        {
          "duration": 0.11538449999999045,
          "durationTicks": 96,
          "midi": 62,
          "name": "D4",
          "ticks": 101280,
          "time": 121.73064749999999,
          "velocity": 0.6929133858267716
        },
        {
          "duration": 0.23076900000000933,
          "durationTicks": 192,
          "midi": 59,
          "name": "B3",
          "ticks": 101376,
          "time": 121.84603199999998,
          "velocity": 0.6929133858267716
        },
        {
          "duration": 0.23076900000000933,
          "durationTicks": 192,
          "midi": 52,
          "name": "E3",
          "ticks": 101376,
          "time": 121.84603199999998,
          "velocity": 0.6929133858267716
        },
        {
          "duration": 0.23076899999999512,
          "durationTicks": 192,
          "midi": 59,
          "name": "B3",
          "ticks": 101760,
          "time": 122.30756999999998,
          "velocity": 0.6929133858267716
        },
        {
          "duration": 0.23076899999999512,
          "durationTicks": 192,
          "midi": 52,
          "name": "E3",
          "ticks": 101760,
          "time": 122.30756999999998,
          "velocity": 0.6929133858267716
        },
        {
          "duration": 0.3461534999999998,
          "durationTicks": 288,
          "midi": 59,
          "name": "B3",
          "ticks": 102144,
          "time": 122.76910799999999,
          "velocity": 0.6929133858267716
        },
        {
          "duration": 0.3461534999999998,
          "durationTicks": 288,
          "midi": 52,
          "name": "E3",
          "ticks": 102144,
          "time": 122.76910799999999,
          "velocity": 0.6929133858267716
        },
        {
          "duration": 0.11538449999999045,
          "durationTicks": 96,
          "midi": 67,
          "name": "G4",
          "ticks": 102432,
          "time": 123.11526149999999,
          "velocity": 0.6929133858267716
        },
        {
          "duration": 0.11538449999999045,
          "durationTicks": 96,
          "midi": 62,
          "name": "D4",
          "ticks": 102432,
          "time": 123.11526149999999,
          "velocity": 0.6929133858267716
        },
        {
          "duration": 0.346153500000014,
          "durationTicks": 288,
          "midi": 69,
          "name": "A4",
          "ticks": 102528,
          "time": 123.23064599999998,
          "velocity": 0.6929133858267716
        },
        {
          "duration": 0.346153500000014,
          "durationTicks": 288,
          "midi": 64,
          "name": "E4",
          "ticks": 102528,
          "time": 123.23064599999998,
          "velocity": 0.6929133858267716
        },
        {
          "duration": 0.11538449999999045,
          "durationTicks": 96,
          "midi": 67,
          "name": "G4",
          "ticks": 102816,
          "time": 123.57679949999999,
          "velocity": 0.6929133858267716
        },
        {
          "duration": 0.11538449999999045,
          "durationTicks": 96,
          "midi": 62,
          "name": "D4",
          "ticks": 102816,
          "time": 123.57679949999999,
          "velocity": 0.6929133858267716
        },
        {
          "duration": 0.23076899999999512,
          "durationTicks": 192,
          "midi": 59,
          "name": "B3",
          "ticks": 102912,
          "time": 123.69218399999998,
          "velocity": 0.6929133858267716
        },
        {
          "duration": 0.23076899999999512,
          "durationTicks": 192,
          "midi": 52,
          "name": "E3",
          "ticks": 102912,
          "time": 123.69218399999998,
          "velocity": 0.6929133858267716
        },
        {
          "duration": 0.23076899999999512,
          "durationTicks": 192,
          "midi": 59,
          "name": "B3",
          "ticks": 103296,
          "time": 124.15372199999999,
          "velocity": 0.6929133858267716
        },
        {
          "duration": 0.23076899999999512,
          "durationTicks": 192,
          "midi": 52,
          "name": "E3",
          "ticks": 103296,
          "time": 124.15372199999999,
          "velocity": 0.6929133858267716
        },
        {
          "duration": 0.346153500000014,
          "durationTicks": 288,
          "midi": 59,
          "name": "B3",
          "ticks": 103680,
          "time": 124.61525999999998,
          "velocity": 0.6929133858267716
        },
        {
          "duration": 0.346153500000014,
          "durationTicks": 288,
          "midi": 52,
          "name": "E3",
          "ticks": 103680,
          "time": 124.61525999999998,
          "velocity": 0.6929133858267716
        },
        {
          "duration": 0.11538449999999045,
          "durationTicks": 96,
          "midi": 67,
          "name": "G4",
          "ticks": 103968,
          "time": 124.96141349999999,
          "velocity": 0.6929133858267716
        },
        {
          "duration": 0.11538449999999045,
          "durationTicks": 96,
          "midi": 62,
          "name": "D4",
          "ticks": 103968,
          "time": 124.96141349999999,
          "velocity": 0.6929133858267716
        },
        {
          "duration": 0.3461534999999998,
          "durationTicks": 288,
          "midi": 69,
          "name": "A4",
          "ticks": 104064,
          "time": 125.07679799999998,
          "velocity": 0.6929133858267716
        },
        {
          "duration": 0.3461534999999998,
          "durationTicks": 288,
          "midi": 64,
          "name": "E4",
          "ticks": 104064,
          "time": 125.07679799999998,
          "velocity": 0.6929133858267716
        },
        {
          "duration": 0.11538450000000466,
          "durationTicks": 96,
          "midi": 67,
          "name": "G4",
          "ticks": 104352,
          "time": 125.42295149999998,
          "velocity": 0.6929133858267716
        },
        {
          "duration": 0.11538450000000466,
          "durationTicks": 96,
          "midi": 62,
          "name": "D4",
          "ticks": 104352,
          "time": 125.42295149999998,
          "velocity": 0.6929133858267716
        },
        {
          "duration": 0.23076899999999512,
          "durationTicks": 192,
          "midi": 59,
          "name": "B3",
          "ticks": 104448,
          "time": 125.53833599999999,
          "velocity": 0.6929133858267716
        },
        {
          "duration": 0.23076899999999512,
          "durationTicks": 192,
          "midi": 52,
          "name": "E3",
          "ticks": 104448,
          "time": 125.53833599999999,
          "velocity": 0.6929133858267716
        },
        {
          "duration": 0.23076900000000933,
          "durationTicks": 192,
          "midi": 59,
          "name": "B3",
          "ticks": 104832,
          "time": 125.99987399999998,
          "velocity": 0.6929133858267716
        },
        {
          "duration": 0.23076900000000933,
          "durationTicks": 192,
          "midi": 52,
          "name": "E3",
          "ticks": 104832,
          "time": 125.99987399999998,
          "velocity": 0.6929133858267716
        },
        {
          "duration": 0.3461534999999998,
          "durationTicks": 288,
          "midi": 59,
          "name": "B3",
          "ticks": 105216,
          "time": 126.46141199999998,
          "velocity": 0.6929133858267716
        },
        {
          "duration": 0.3461534999999998,
          "durationTicks": 288,
          "midi": 52,
          "name": "E3",
          "ticks": 105216,
          "time": 126.46141199999998,
          "velocity": 0.6929133858267716
        },
        {
          "duration": 0.11538450000000466,
          "durationTicks": 96,
          "midi": 67,
          "name": "G4",
          "ticks": 105504,
          "time": 126.80756549999998,
          "velocity": 0.6929133858267716
        },
        {
          "duration": 0.11538450000000466,
          "durationTicks": 96,
          "midi": 62,
          "name": "D4",
          "ticks": 105504,
          "time": 126.80756549999998,
          "velocity": 0.6929133858267716
        },
        {
          "duration": 0.3461534999999998,
          "durationTicks": 288,
          "midi": 69,
          "name": "A4",
          "ticks": 105600,
          "time": 126.92294999999999,
          "velocity": 0.6929133858267716
        },
        {
          "duration": 0.3461534999999998,
          "durationTicks": 288,
          "midi": 64,
          "name": "E4",
          "ticks": 105600,
          "time": 126.92294999999999,
          "velocity": 0.6929133858267716
        },
        {
          "duration": 0.11538449999999045,
          "durationTicks": 96,
          "midi": 67,
          "name": "G4",
          "ticks": 105888,
          "time": 127.26910349999999,
          "velocity": 0.6929133858267716
        },
        {
          "duration": 0.11538449999999045,
          "durationTicks": 96,
          "midi": 62,
          "name": "D4",
          "ticks": 105888,
          "time": 127.26910349999999,
          "velocity": 0.6929133858267716
        },
        {
          "duration": 0.23076900000000933,
          "durationTicks": 192,
          "midi": 59,
          "name": "B3",
          "ticks": 105984,
          "time": 127.38448799999998,
          "velocity": 0.6929133858267716
        },
        {
          "duration": 0.23076900000000933,
          "durationTicks": 192,
          "midi": 52,
          "name": "E3",
          "ticks": 105984,
          "time": 127.38448799999998,
          "velocity": 0.6929133858267716
        },
        {
          "duration": 0.23076899999999512,
          "durationTicks": 192,
          "midi": 59,
          "name": "B3",
          "ticks": 106368,
          "time": 127.84602599999998,
          "velocity": 0.6929133858267716
        },
        {
          "duration": 0.23076899999999512,
          "durationTicks": 192,
          "midi": 52,
          "name": "E3",
          "ticks": 106368,
          "time": 127.84602599999998,
          "velocity": 0.6929133858267716
        },
        {
          "duration": 0.34615349999998557,
          "durationTicks": 288,
          "midi": 59,
          "name": "B3",
          "ticks": 106752,
          "time": 128.30756399999999,
          "velocity": 0.6929133858267716
        },
        {
          "duration": 0.34615349999998557,
          "durationTicks": 288,
          "midi": 52,
          "name": "E3",
          "ticks": 106752,
          "time": 128.30756399999999,
          "velocity": 0.6929133858267716
        },
        {
          "duration": 0.11538450000000466,
          "durationTicks": 96,
          "midi": 67,
          "name": "G4",
          "ticks": 107040,
          "time": 128.65371749999997,
          "velocity": 0.6929133858267716
        },
        {
          "duration": 0.11538450000000466,
          "durationTicks": 96,
          "midi": 62,
          "name": "D4",
          "ticks": 107040,
          "time": 128.65371749999997,
          "velocity": 0.6929133858267716
        },
        {
          "duration": 0.346153500000014,
          "durationTicks": 288,
          "midi": 69,
          "name": "A4",
          "ticks": 107136,
          "time": 128.76910199999998,
          "velocity": 0.6929133858267716
        },
        {
          "duration": 0.346153500000014,
          "durationTicks": 288,
          "midi": 64,
          "name": "E4",
          "ticks": 107136,
          "time": 128.76910199999998,
          "velocity": 0.6929133858267716
        },
        {
          "duration": 0.11538450000000466,
          "durationTicks": 96,
          "midi": 67,
          "name": "G4",
          "ticks": 107424,
          "time": 129.1152555,
          "velocity": 0.6929133858267716
        },
        {
          "duration": 0.11538450000000466,
          "durationTicks": 96,
          "midi": 62,
          "name": "D4",
          "ticks": 107424,
          "time": 129.1152555,
          "velocity": 0.6929133858267716
        },
        {
          "duration": 0.2307689999999809,
          "durationTicks": 192,
          "midi": 59,
          "name": "B3",
          "ticks": 107520,
          "time": 129.23064,
          "velocity": 0.6929133858267716
        },
        {
          "duration": 0.2307689999999809,
          "durationTicks": 192,
          "midi": 52,
          "name": "E3",
          "ticks": 107520,
          "time": 129.23064,
          "velocity": 0.6929133858267716
        },
        {
          "duration": 0.23076900000000933,
          "durationTicks": 192,
          "midi": 59,
          "name": "B3",
          "ticks": 107904,
          "time": 129.69217799999998,
          "velocity": 0.6929133858267716
        },
        {
          "duration": 0.23076900000000933,
          "durationTicks": 192,
          "midi": 52,
          "name": "E3",
          "ticks": 107904,
          "time": 129.69217799999998,
          "velocity": 0.6929133858267716
        },
        {
          "duration": 0.346153500000014,
          "durationTicks": 288,
          "midi": 59,
          "name": "B3",
          "ticks": 108288,
          "time": 130.15371599999997,
          "velocity": 0.6929133858267716
        },
        {
          "duration": 0.346153500000014,
          "durationTicks": 288,
          "midi": 52,
          "name": "E3",
          "ticks": 108288,
          "time": 130.15371599999997,
          "velocity": 0.6929133858267716
        },
        {
          "duration": 0.11538450000000466,
          "durationTicks": 96,
          "midi": 67,
          "name": "G4",
          "ticks": 108576,
          "time": 130.4998695,
          "velocity": 0.6929133858267716
        },
        {
          "duration": 0.11538450000000466,
          "durationTicks": 96,
          "midi": 62,
          "name": "D4",
          "ticks": 108576,
          "time": 130.4998695,
          "velocity": 0.6929133858267716
        },
        {
          "duration": 0.34615349999998557,
          "durationTicks": 288,
          "midi": 69,
          "name": "A4",
          "ticks": 108672,
          "time": 130.615254,
          "velocity": 0.6929133858267716
        },
        {
          "duration": 0.34615349999998557,
          "durationTicks": 288,
          "midi": 64,
          "name": "E4",
          "ticks": 108672,
          "time": 130.615254,
          "velocity": 0.6929133858267716
        },
        {
          "duration": 0.11538450000000466,
          "durationTicks": 96,
          "midi": 67,
          "name": "G4",
          "ticks": 108960,
          "time": 130.96140749999998,
          "velocity": 0.6929133858267716
        },
        {
          "duration": 0.11538450000000466,
          "durationTicks": 96,
          "midi": 62,
          "name": "D4",
          "ticks": 108960,
          "time": 130.96140749999998,
          "velocity": 0.6929133858267716
        },
        {
          "duration": 0.23076900000000933,
          "durationTicks": 192,
          "midi": 59,
          "name": "B3",
          "ticks": 109056,
          "time": 131.07679199999998,
          "velocity": 0.6929133858267716
        },
        {
          "duration": 0.23076900000000933,
          "durationTicks": 192,
          "midi": 52,
          "name": "E3",
          "ticks": 109056,
          "time": 131.07679199999998,
          "velocity": 0.6929133858267716
        },
        {
          "duration": 0.23076900000000933,
          "durationTicks": 192,
          "midi": 59,
          "name": "B3",
          "ticks": 109440,
          "time": 131.53832999999997,
          "velocity": 0.6929133858267716
        },
        {
          "duration": 0.23076900000000933,
          "durationTicks": 192,
          "midi": 52,
          "name": "E3",
          "ticks": 109440,
          "time": 131.53832999999997,
          "velocity": 0.6929133858267716
        },
        {
          "duration": 0.34615349999998557,
          "durationTicks": 288,
          "midi": 59,
          "name": "B3",
          "ticks": 109824,
          "time": 131.999868,
          "velocity": 0.6929133858267716
        },
        {
          "duration": 0.34615349999998557,
          "durationTicks": 288,
          "midi": 52,
          "name": "E3",
          "ticks": 109824,
          "time": 131.999868,
          "velocity": 0.6929133858267716
        },
        {
          "duration": 0.11538450000000466,
          "durationTicks": 96,
          "midi": 67,
          "name": "G4",
          "ticks": 110112,
          "time": 132.34602149999998,
          "velocity": 0.6929133858267716
        },
        {
          "duration": 0.11538450000000466,
          "durationTicks": 96,
          "midi": 62,
          "name": "D4",
          "ticks": 110112,
          "time": 132.34602149999998,
          "velocity": 0.6929133858267716
        },
        {
          "duration": 0.34615349999998557,
          "durationTicks": 288,
          "midi": 69,
          "name": "A4",
          "ticks": 110208,
          "time": 132.46140599999998,
          "velocity": 0.6929133858267716
        },
        {
          "duration": 0.34615349999998557,
          "durationTicks": 288,
          "midi": 64,
          "name": "E4",
          "ticks": 110208,
          "time": 132.46140599999998,
          "velocity": 0.6929133858267716
        },
        {
          "duration": 0.11538450000000466,
          "durationTicks": 96,
          "midi": 67,
          "name": "G4",
          "ticks": 110496,
          "time": 132.80755949999997,
          "velocity": 0.6929133858267716
        },
        {
          "duration": 0.11538450000000466,
          "durationTicks": 96,
          "midi": 62,
          "name": "D4",
          "ticks": 110496,
          "time": 132.80755949999997,
          "velocity": 0.6929133858267716
        },
        {
          "duration": 0.23076900000000933,
          "durationTicks": 192,
          "midi": 59,
          "name": "B3",
          "ticks": 110592,
          "time": 132.92294399999997,
          "velocity": 0.6929133858267716
        },
        {
          "duration": 0.23076900000000933,
          "durationTicks": 192,
          "midi": 52,
          "name": "E3",
          "ticks": 110592,
          "time": 132.92294399999997,
          "velocity": 0.6929133858267716
        },
        {
          "duration": 0.2307689999999809,
          "durationTicks": 192,
          "midi": 59,
          "name": "B3",
          "ticks": 110976,
          "time": 133.384482,
          "velocity": 0.6929133858267716
        },
        {
          "duration": 0.2307689999999809,
          "durationTicks": 192,
          "midi": 52,
          "name": "E3",
          "ticks": 110976,
          "time": 133.384482,
          "velocity": 0.6929133858267716
        },
        {
          "duration": 0.346153500000014,
          "durationTicks": 288,
          "midi": 59,
          "name": "B3",
          "ticks": 111360,
          "time": 133.84601999999998,
          "velocity": 0.6929133858267716
        },
        {
          "duration": 0.346153500000014,
          "durationTicks": 288,
          "midi": 52,
          "name": "E3",
          "ticks": 111360,
          "time": 133.84601999999998,
          "velocity": 0.6929133858267716
        },
        {
          "duration": 0.11538449999997624,
          "durationTicks": 96,
          "midi": 67,
          "name": "G4",
          "ticks": 111648,
          "time": 134.1921735,
          "velocity": 0.6929133858267716
        },
        {
          "duration": 0.11538449999997624,
          "durationTicks": 96,
          "midi": 62,
          "name": "D4",
          "ticks": 111648,
          "time": 134.1921735,
          "velocity": 0.6929133858267716
        },
        {
          "duration": 0.346153500000014,
          "durationTicks": 288,
          "midi": 69,
          "name": "A4",
          "ticks": 111744,
          "time": 134.30755799999997,
          "velocity": 0.6929133858267716
        },
        {
          "duration": 0.346153500000014,
          "durationTicks": 288,
          "midi": 64,
          "name": "E4",
          "ticks": 111744,
          "time": 134.30755799999997,
          "velocity": 0.6929133858267716
        },
        {
          "duration": 0.11538450000000466,
          "durationTicks": 96,
          "midi": 67,
          "name": "G4",
          "ticks": 112032,
          "time": 134.6537115,
          "velocity": 0.6929133858267716
        },
        {
          "duration": 0.11538450000000466,
          "durationTicks": 96,
          "midi": 62,
          "name": "D4",
          "ticks": 112032,
          "time": 134.6537115,
          "velocity": 0.6929133858267716
        },
        {
          "duration": 0.2307689999999809,
          "durationTicks": 192,
          "midi": 59,
          "name": "B3",
          "ticks": 112128,
          "time": 134.769096,
          "velocity": 0.6929133858267716
        },
        {
          "duration": 0.2307689999999809,
          "durationTicks": 192,
          "midi": 52,
          "name": "E3",
          "ticks": 112128,
          "time": 134.769096,
          "velocity": 0.6929133858267716
        },
        {
          "duration": 0.23076900000000933,
          "durationTicks": 192,
          "midi": 59,
          "name": "B3",
          "ticks": 112512,
          "time": 135.23063399999998,
          "velocity": 0.6929133858267716
        },
        {
          "duration": 0.23076900000000933,
          "durationTicks": 192,
          "midi": 52,
          "name": "E3",
          "ticks": 112512,
          "time": 135.23063399999998,
          "velocity": 0.6929133858267716
        },
        {
          "duration": 0.346153500000014,
          "durationTicks": 288,
          "midi": 59,
          "name": "B3",
          "ticks": 112896,
          "time": 135.69217199999997,
          "velocity": 0.6929133858267716
        },
        {
          "duration": 0.346153500000014,
          "durationTicks": 288,
          "midi": 52,
          "name": "E3",
          "ticks": 112896,
          "time": 135.69217199999997,
          "velocity": 0.6929133858267716
        },
        {
          "duration": 0.11538450000000466,
          "durationTicks": 96,
          "midi": 67,
          "name": "G4",
          "ticks": 113184,
          "time": 136.03832549999998,
          "velocity": 0.6929133858267716
        },
        {
          "duration": 0.11538450000000466,
          "durationTicks": 96,
          "midi": 62,
          "name": "D4",
          "ticks": 113184,
          "time": 136.03832549999998,
          "velocity": 0.6929133858267716
        },
        {
          "duration": 0.34615349999998557,
          "durationTicks": 288,
          "midi": 69,
          "name": "A4",
          "ticks": 113280,
          "time": 136.15371,
          "velocity": 0.6929133858267716
        },
        {
          "duration": 0.34615349999998557,
          "durationTicks": 288,
          "midi": 64,
          "name": "E4",
          "ticks": 113280,
          "time": 136.15371,
          "velocity": 0.6929133858267716
        },
        {
          "duration": 0.11538450000000466,
          "durationTicks": 96,
          "midi": 67,
          "name": "G4",
          "ticks": 113568,
          "time": 136.49986349999998,
          "velocity": 0.6929133858267716
        },
        {
          "duration": 0.11538450000000466,
          "durationTicks": 96,
          "midi": 62,
          "name": "D4",
          "ticks": 113568,
          "time": 136.49986349999998,
          "velocity": 0.6929133858267716
        },
        {
          "duration": 0.23076900000000933,
          "durationTicks": 192,
          "midi": 59,
          "name": "B3",
          "ticks": 113664,
          "time": 136.61524799999998,
          "velocity": 0.6929133858267716
        },
        {
          "duration": 0.23076900000000933,
          "durationTicks": 192,
          "midi": 52,
          "name": "E3",
          "ticks": 113664,
          "time": 136.61524799999998,
          "velocity": 0.6929133858267716
        },
        {
          "duration": 0.23076900000000933,
          "durationTicks": 192,
          "midi": 59,
          "name": "B3",
          "ticks": 114048,
          "time": 137.07678599999997,
          "velocity": 0.6929133858267716
        },
        {
          "duration": 0.23076900000000933,
          "durationTicks": 192,
          "midi": 52,
          "name": "E3",
          "ticks": 114048,
          "time": 137.07678599999997,
          "velocity": 0.6929133858267716
        },
        {
          "duration": 0.34615349999998557,
          "durationTicks": 288,
          "midi": 59,
          "name": "B3",
          "ticks": 114432,
          "time": 137.538324,
          "velocity": 0.6929133858267716
        },
        {
          "duration": 0.34615349999998557,
          "durationTicks": 288,
          "midi": 52,
          "name": "E3",
          "ticks": 114432,
          "time": 137.538324,
          "velocity": 0.6929133858267716
        },
        {
          "duration": 0.11538450000000466,
          "durationTicks": 96,
          "midi": 67,
          "name": "G4",
          "ticks": 114720,
          "time": 137.88447749999997,
          "velocity": 0.6929133858267716
        },
        {
          "duration": 0.11538450000000466,
          "durationTicks": 96,
          "midi": 62,
          "name": "D4",
          "ticks": 114720,
          "time": 137.88447749999997,
          "velocity": 0.6929133858267716
        },
        {
          "duration": 0.346153500000014,
          "durationTicks": 288,
          "midi": 69,
          "name": "A4",
          "ticks": 114816,
          "time": 137.99986199999998,
          "velocity": 0.6929133858267716
        },
        {
          "duration": 0.346153500000014,
          "durationTicks": 288,
          "midi": 64,
          "name": "E4",
          "ticks": 114816,
          "time": 137.99986199999998,
          "velocity": 0.6929133858267716
        },
        {
          "duration": 0.11538449999997624,
          "durationTicks": 96,
          "midi": 67,
          "name": "G4",
          "ticks": 115104,
          "time": 138.3460155,
          "velocity": 0.6929133858267716
        },
        {
          "duration": 0.11538449999997624,
          "durationTicks": 96,
          "midi": 62,
          "name": "D4",
          "ticks": 115104,
          "time": 138.3460155,
          "velocity": 0.6929133858267716
        },
        {
          "duration": 0.23076900000000933,
          "durationTicks": 192,
          "midi": 59,
          "name": "B3",
          "ticks": 115200,
          "time": 138.46139999999997,
          "velocity": 0.6929133858267716
        },
        {
          "duration": 0.23076900000000933,
          "durationTicks": 192,
          "midi": 52,
          "name": "E3",
          "ticks": 115200,
          "time": 138.46139999999997,
          "velocity": 0.6929133858267716
        },
        {
          "duration": 0.46153799999999023,
          "durationTicks": 384,
          "midi": 59,
          "name": "B3",
          "ticks": 115584,
          "time": 138.922938,
          "velocity": 0.6929133858267716
        },
        {
          "duration": 0.46153799999999023,
          "durationTicks": 384,
          "midi": 52,
          "name": "E3",
          "ticks": 115584,
          "time": 138.922938,
          "velocity": 0.6929133858267716
        },
        {
          "duration": 0.346153500000014,
          "durationTicks": 288,
          "midi": 59,
          "name": "B3",
          "ticks": 115968,
          "time": 139.38447599999998,
          "velocity": 0.6929133858267716
        },
        {
          "duration": 0.346153500000014,
          "durationTicks": 288,
          "midi": 52,
          "name": "E3",
          "ticks": 115968,
          "time": 139.38447599999998,
          "velocity": 0.6929133858267716
        },
        {
          "duration": 0.11538449999997624,
          "durationTicks": 96,
          "midi": 67,
          "name": "G4",
          "ticks": 116256,
          "time": 139.7306295,
          "velocity": 0.6929133858267716
        },
        {
          "duration": 0.11538449999997624,
          "durationTicks": 96,
          "midi": 62,
          "name": "D4",
          "ticks": 116256,
          "time": 139.7306295,
          "velocity": 0.6929133858267716
        },
        {
          "duration": 0.346153500000014,
          "durationTicks": 288,
          "midi": 69,
          "name": "A4",
          "ticks": 116352,
          "time": 139.84601399999997,
          "velocity": 0.6929133858267716
        },
        {
          "duration": 0.346153500000014,
          "durationTicks": 288,
          "midi": 64,
          "name": "E4",
          "ticks": 116352,
          "time": 139.84601399999997,
          "velocity": 0.6929133858267716
        },
        {
          "duration": 0.11538450000000466,
          "durationTicks": 96,
          "midi": 67,
          "name": "G4",
          "ticks": 116640,
          "time": 140.19216749999998,
          "velocity": 0.6929133858267716
        },
        {
          "duration": 0.11538450000000466,
          "durationTicks": 96,
          "midi": 62,
          "name": "D4",
          "ticks": 116640,
          "time": 140.19216749999998,
          "velocity": 0.6929133858267716
        },
        {
          "duration": 0.15384599999998727,
          "durationTicks": 128,
          "midi": 71,
          "name": "B4",
          "ticks": 116736,
          "time": 140.307552,
          "velocity": 0.889763779527559
        },
        {
          "duration": 0.46153799999999023,
          "durationTicks": 384,
          "midi": 68,
          "name": "G#4",
          "ticks": 116736,
          "time": 140.307552,
          "velocity": 0.6929133858267716
        },
        {
          "duration": 0.46153799999999023,
          "durationTicks": 384,
          "midi": 59,
          "name": "B3",
          "ticks": 116736,
          "time": 140.307552,
          "velocity": 0.6929133858267716
        },
        {
          "duration": 0.46153799999999023,
          "durationTicks": 384,
          "midi": 52,
          "name": "E3",
          "ticks": 116736,
          "time": 140.307552,
          "velocity": 0.6929133858267716
        },
        {
          "duration": 0.1538460000000157,
          "durationTicks": 128,
          "midi": 74,
          "name": "D5",
          "ticks": 116864,
          "time": 140.46139799999997,
          "velocity": 0.8818897637795275
        },
        {
          "duration": 0.15384599999998727,
          "durationTicks": 128,
          "midi": 79,
          "name": "G5",
          "ticks": 116992,
          "time": 140.615244,
          "velocity": 0.8818897637795275
        },
        {
          "duration": 0.46153799999999023,
          "durationTicks": 384,
          "midi": 59,
          "name": "B3",
          "ticks": 117120,
          "time": 140.76908999999998,
          "velocity": 0.6929133858267716
        },
        {
          "duration": 0.46153799999999023,
          "durationTicks": 384,
          "midi": 52,
          "name": "E3",
          "ticks": 117120,
          "time": 140.76908999999998,
          "velocity": 0.6929133858267716
        },
        {
          "duration": 0.46153799999999023,
          "durationTicks": 384,
          "midi": 76,
          "name": "E5",
          "ticks": 117120,
          "time": 140.76908999999998,
          "velocity": 0.889763779527559
        },
        {
          "duration": 0.346153500000014,
          "durationTicks": 288,
          "midi": 59,
          "name": "B3",
          "ticks": 117504,
          "time": 141.23062799999997,
          "velocity": 0.6929133858267716
        },
        {
          "duration": 0.346153500000014,
          "durationTicks": 288,
          "midi": 52,
          "name": "E3",
          "ticks": 117504,
          "time": 141.23062799999997,
          "velocity": 0.6929133858267716
        },
        {
          "duration": 0.3076920000000314,
          "durationTicks": 256,
          "midi": 76,
          "name": "E5",
          "ticks": 117504,
          "time": 141.23062799999997,
          "velocity": 0.8503937007874016
        },
        {
          "duration": 0.15384599999998727,
          "durationTicks": 128,
          "midi": 75,
          "name": "D#5",
          "ticks": 117744,
          "time": 141.51908924999998,
          "velocity": 0.6929133858267716
        },
        {
          "duration": 0.11538450000000466,
          "durationTicks": 96,
          "midi": 67,
          "name": "G4",
          "ticks": 117792,
          "time": 141.57678149999998,
          "velocity": 0.6929133858267716
        },
        {
          "duration": 0.11538450000000466,
          "durationTicks": 96,
          "midi": 62,
          "name": "D4",
          "ticks": 117792,
          "time": 141.57678149999998,
          "velocity": 0.6929133858267716
        },
        {
          "duration": 0.346153500000014,
          "durationTicks": 288,
          "midi": 69,
          "name": "A4",
          "ticks": 117888,
          "time": 141.692166,
          "velocity": 0.6929133858267716
        },
        {
          "duration": 0.346153500000014,
          "durationTicks": 288,
          "midi": 64,
          "name": "E4",
          "ticks": 117888,
          "time": 141.692166,
          "velocity": 0.6929133858267716
        },
        {
          "duration": 0.30769200000000296,
          "durationTicks": 256,
          "midi": 73,
          "name": "C#5",
          "ticks": 117888,
          "time": 141.692166,
          "velocity": 0.6929133858267716
        },
        {
          "duration": 0.15384599999998727,
          "durationTicks": 128,
          "midi": 71,
          "name": "B4",
          "ticks": 118128,
          "time": 141.98062725,
          "velocity": 0.6929133858267716
        },
        {
          "duration": 0.11538449999997624,
          "durationTicks": 96,
          "midi": 67,
          "name": "G4",
          "ticks": 118176,
          "time": 142.0383195,
          "velocity": 0.6929133858267716
        },
        {
          "duration": 0.11538449999997624,
          "durationTicks": 96,
          "midi": 62,
          "name": "D4",
          "ticks": 118176,
          "time": 142.0383195,
          "velocity": 0.6929133858267716
        },
        {
          "duration": 0.23076900000000933,
          "durationTicks": 192,
          "midi": 69,
          "name": "A4",
          "ticks": 118272,
          "time": 142.15370399999998,
          "velocity": 0.6929133858267716
        },
        {
          "duration": 0.46153799999999023,
          "durationTicks": 384,
          "midi": 68,
          "name": "G#4",
          "ticks": 118272,
          "time": 142.15370399999998,
          "velocity": 0.6929133858267716
        },
        {
          "duration": 0.46153799999999023,
          "durationTicks": 384,
          "midi": 59,
          "name": "B3",
          "ticks": 118272,
          "time": 142.15370399999998,
          "velocity": 0.6929133858267716
        },
        {
          "duration": 0.46153799999999023,
          "durationTicks": 384,
          "midi": 52,
          "name": "E3",
          "ticks": 118272,
          "time": 142.15370399999998,
          "velocity": 0.6929133858267716
        },
        {
          "duration": 0.6923069999999996,
          "durationTicks": 576,
          "midi": 71,
          "name": "B4",
          "ticks": 118464,
          "time": 142.38447299999999,
          "velocity": 0.6929133858267716
        },
        {
          "duration": 0.46153800000001866,
          "durationTicks": 384,
          "midi": 59,
          "name": "B3",
          "ticks": 118656,
          "time": 142.61524199999997,
          "velocity": 0.6929133858267716
        },
        {
          "duration": 0.46153800000001866,
          "durationTicks": 384,
          "midi": 52,
          "name": "E3",
          "ticks": 118656,
          "time": 142.61524199999997,
          "velocity": 0.6929133858267716
        },
        {
          "duration": 0.346153500000014,
          "durationTicks": 288,
          "midi": 59,
          "name": "B3",
          "ticks": 119040,
          "time": 143.07677999999999,
          "velocity": 0.6929133858267716
        },
        {
          "duration": 0.346153500000014,
          "durationTicks": 288,
          "midi": 52,
          "name": "E3",
          "ticks": 119040,
          "time": 143.07677999999999,
          "velocity": 0.6929133858267716
        },
        {
          "duration": 0.11538449999997624,
          "durationTicks": 96,
          "midi": 67,
          "name": "G4",
          "ticks": 119328,
          "time": 143.4229335,
          "velocity": 0.6929133858267716
        },
        {
          "duration": 0.11538449999997624,
          "durationTicks": 96,
          "midi": 62,
          "name": "D4",
          "ticks": 119328,
          "time": 143.4229335,
          "velocity": 0.6929133858267716
        },
        {
          "duration": 0.1538460000000157,
          "durationTicks": 128,
          "midi": 73,
          "name": "C#5",
          "ticks": 119424,
          "time": 143.53831799999998,
          "velocity": 0.6929133858267716
        },
        {
          "duration": 0.346153500000014,
          "durationTicks": 288,
          "midi": 69,
          "name": "A4",
          "ticks": 119424,
          "time": 143.53831799999998,
          "velocity": 0.6929133858267716
        },
        {
          "duration": 0.346153500000014,
          "durationTicks": 288,
          "midi": 64,
          "name": "E4",
          "ticks": 119424,
          "time": 143.53831799999998,
          "velocity": 0.6929133858267716
        },
        {
          "duration": 0.15384599999998727,
          "durationTicks": 128,
          "midi": 71,
          "name": "B4",
          "ticks": 119552,
          "time": 143.692164,
          "velocity": 0.6929133858267716
        },
        {
          "duration": 0.15384599999998727,
          "durationTicks": 128,
          "midi": 73,
          "name": "C#5",
          "ticks": 119680,
          "time": 143.84600999999998,
          "velocity": 0.6929133858267716
        },
        {
          "duration": 0.11538449999997624,
          "durationTicks": 96,
          "midi": 67,
          "name": "G4",
          "ticks": 119712,
          "time": 143.8844715,
          "velocity": 0.6929133858267716
        },
        {
          "duration": 0.11538449999997624,
          "durationTicks": 96,
          "midi": 62,
          "name": "D4",
          "ticks": 119712,
          "time": 143.8844715,
          "velocity": 0.6929133858267716
        },
        {
          "duration": 0.1538460000000157,
          "durationTicks": 128,
          "midi": 71,
          "name": "B4",
          "ticks": 119808,
          "time": 143.99985599999997,
          "velocity": 0.6929133858267716
        },
        {
          "duration": 0.46153800000001866,
          "durationTicks": 384,
          "midi": 68,
          "name": "G#4",
          "ticks": 119808,
          "time": 143.99985599999997,
          "velocity": 0.6929133858267716
        },
        {
          "duration": 0.46153800000001866,
          "durationTicks": 384,
          "midi": 59,
          "name": "B3",
          "ticks": 119808,
          "time": 143.99985599999997,
          "velocity": 0.6929133858267716
        },
        {
          "duration": 0.46153800000001866,
          "durationTicks": 384,
          "midi": 52,
          "name": "E3",
          "ticks": 119808,
          "time": 143.99985599999997,
          "velocity": 0.6929133858267716
        },
        {
          "duration": 0.1538460000000157,
          "durationTicks": 128,
          "midi": 69,
          "name": "A4",
          "ticks": 119936,
          "time": 144.15370199999998,
          "velocity": 0.6929133858267716
        },
        {
          "duration": 0.15384599999998727,
          "durationTicks": 128,
          "midi": 71,
          "name": "B4",
          "ticks": 120064,
          "time": 144.307548,
          "velocity": 0.6929133858267716
        },
        {
          "duration": 0.30769200000000296,
          "durationTicks": 256,
          "midi": 71,
          "name": "B4",
          "ticks": 120192,
          "time": 144.46139399999998,
          "velocity": 0.6929133858267716
        },
        {
          "duration": 0.46153799999999023,
          "durationTicks": 384,
          "midi": 59,
          "name": "B3",
          "ticks": 120192,
          "time": 144.46139399999998,
          "velocity": 0.6929133858267716
        },
        {
          "duration": 0.46153799999999023,
          "durationTicks": 384,
          "midi": 52,
          "name": "E3",
          "ticks": 120192,
          "time": 144.46139399999998,
          "velocity": 0.6929133858267716
        },
        {
          "duration": 0.15384599999998727,
          "durationTicks": 128,
          "midi": 71,
          "name": "B4",
          "ticks": 120432,
          "time": 144.74985525,
          "velocity": 0.6929133858267716
        },
        {
          "duration": 0.346153500000014,
          "durationTicks": 288,
          "midi": 59,
          "name": "B3",
          "ticks": 120576,
          "time": 144.92293199999997,
          "velocity": 0.6929133858267716
        },
        {
          "duration": 0.346153500000014,
          "durationTicks": 288,
          "midi": 52,
          "name": "E3",
          "ticks": 120576,
          "time": 144.92293199999997,
          "velocity": 0.6929133858267716
        },
        {
          "duration": 0.11538449999997624,
          "durationTicks": 96,
          "midi": 67,
          "name": "G4",
          "ticks": 120864,
          "time": 145.2690855,
          "velocity": 0.6929133858267716
        },
        {
          "duration": 0.11538449999997624,
          "durationTicks": 96,
          "midi": 62,
          "name": "D4",
          "ticks": 120864,
          "time": 145.2690855,
          "velocity": 0.6929133858267716
        },
        {
          "duration": 0.3076920000000314,
          "durationTicks": 256,
          "midi": 74,
          "name": "D5",
          "ticks": 120960,
          "time": 145.38446999999996,
          "velocity": 0.6929133858267716
        },
        {
          "duration": 0.346153500000014,
          "durationTicks": 288,
          "midi": 69,
          "name": "A4",
          "ticks": 120960,
          "time": 145.38446999999996,
          "velocity": 0.6929133858267716
        },
        {
          "duration": 0.346153500000014,
          "durationTicks": 288,
          "midi": 64,
          "name": "E4",
          "ticks": 120960,
          "time": 145.38446999999996,
          "velocity": 0.6929133858267716
        },
        {
          "duration": 0.15384599999998727,
          "durationTicks": 128,
          "midi": 76,
          "name": "E5",
          "ticks": 121216,
          "time": 145.692162,
          "velocity": 0.8503937007874016
        },
        {
          "duration": 0.11538450000000466,
          "durationTicks": 96,
          "midi": 67,
          "name": "G4",
          "ticks": 121248,
          "time": 145.73062349999998,
          "velocity": 0.6929133858267716
        },
        {
          "duration": 0.11538450000000466,
          "durationTicks": 96,
          "midi": 62,
          "name": "D4",
          "ticks": 121248,
          "time": 145.73062349999998,
          "velocity": 0.6929133858267716
        },
        {
          "duration": 0.46153799999999023,
          "durationTicks": 384,
          "midi": 68,
          "name": "G#4",
          "ticks": 121344,
          "time": 145.84600799999998,
          "velocity": 0.6929133858267716
        },
        {
          "duration": 0.46153799999999023,
          "durationTicks": 384,
          "midi": 59,
          "name": "B3",
          "ticks": 121344,
          "time": 145.84600799999998,
          "velocity": 0.6929133858267716
        },
        {
          "duration": 0.46153799999999023,
          "durationTicks": 384,
          "midi": 52,
          "name": "E3",
          "ticks": 121344,
          "time": 145.84600799999998,
          "velocity": 0.6929133858267716
        },
        {
          "duration": 0.30769200000000296,
          "durationTicks": 256,
          "midi": 76,
          "name": "E5",
          "ticks": 121344,
          "time": 145.84600799999998,
          "velocity": 0.6929133858267716
        },
        {
          "duration": 0.15384599999998727,
          "durationTicks": 128,
          "midi": 76,
          "name": "E5",
          "ticks": 121600,
          "time": 146.1537,
          "velocity": 0.8503937007874016
        },
        {
          "duration": 0.1538460000000157,
          "durationTicks": 128,
          "midi": 76,
          "name": "E5",
          "ticks": 121728,
          "time": 146.30754599999997,
          "velocity": 0.8503937007874016
        },
        {
          "duration": 0.46153800000001866,
          "durationTicks": 384,
          "midi": 52,
          "name": "E3",
          "ticks": 121728,
          "time": 146.30754599999997,
          "velocity": 0.6929133858267716
        },
        {
          "duration": 0.46153800000001866,
          "durationTicks": 384,
          "midi": 59,
          "name": "B3",
          "ticks": 121728,
          "time": 146.30754599999997,
          "velocity": 0.6929133858267716
        },
        {
          "duration": 0.1538460000000157,
          "durationTicks": 128,
          "midi": 76,
          "name": "E5",
          "ticks": 121984,
          "time": 146.61523799999998,
          "velocity": 0.8503937007874016
        },
        {
          "duration": 0.46153799999999023,
          "durationTicks": 384,
          "midi": 76,
          "name": "E5",
          "ticks": 122112,
          "time": 146.769084,
          "velocity": 0.8503937007874016
        },
        {
          "duration": 0.34615349999998557,
          "durationTicks": 288,
          "midi": 59,
          "name": "B3",
          "ticks": 122112,
          "time": 146.769084,
          "velocity": 0.6929133858267716
        },
        {
          "duration": 0.34615349999998557,
          "durationTicks": 288,
          "midi": 52,
          "name": "E3",
          "ticks": 122112,
          "time": 146.769084,
          "velocity": 0.6929133858267716
        },
        {
          "duration": 0.11538450000000466,
          "durationTicks": 96,
          "midi": 62,
          "name": "D4",
          "ticks": 122400,
          "time": 147.11523749999998,
          "velocity": 0.6929133858267716
        },
        {
          "duration": 0.11538450000000466,
          "durationTicks": 96,
          "midi": 67,
          "name": "G4",
          "ticks": 122400,
          "time": 147.11523749999998,
          "velocity": 0.6929133858267716
        },
        {
          "duration": 0.30769200000000296,
          "durationTicks": 256,
          "midi": 73,
          "name": "C#5",
          "ticks": 122496,
          "time": 147.23062199999998,
          "velocity": 0.6929133858267716
        },
        {
          "duration": 0.346153500000014,
          "durationTicks": 288,
          "midi": 69,
          "name": "A4",
          "ticks": 122496,
          "time": 147.23062199999998,
          "velocity": 0.6929133858267716
        },
        {
          "duration": 0.346153500000014,
          "durationTicks": 288,
          "midi": 64,
          "name": "E4",
          "ticks": 122496,
          "time": 147.23062199999998,
          "velocity": 0.6929133858267716
        },
        {
          "duration": 0.15384599999998727,
          "durationTicks": 128,
          "midi": 76,
          "name": "E5",
          "ticks": 122752,
          "time": 147.53831399999999,
          "velocity": 0.8503937007874016
        },
        {
          "duration": 0.11538449999997624,
          "durationTicks": 96,
          "midi": 67,
          "name": "G4",
          "ticks": 122784,
          "time": 147.5767755,
          "velocity": 0.6929133858267716
        },
        {
          "duration": 0.11538449999997624,
          "durationTicks": 96,
          "midi": 62,
          "name": "D4",
          "ticks": 122784,
          "time": 147.5767755,
          "velocity": 0.6929133858267716
        },
        {
          "duration": 0.30769200000000296,
          "durationTicks": 256,
          "midi": 80,
          "name": "G#5",
          "ticks": 122880,
          "time": 147.69215999999997,
          "velocity": 0.8503937007874016
        },
        {
          "duration": 0.46153800000001866,
          "durationTicks": 384,
          "midi": 68,
          "name": "G#4",
          "ticks": 122880,
          "time": 147.69215999999997,
          "velocity": 0.6929133858267716
        },
        {
          "duration": 0.46153800000001866,
          "durationTicks": 384,
          "midi": 59,
          "name": "B3",
          "ticks": 122880,
          "time": 147.69215999999997,
          "velocity": 0.6929133858267716
        },
        {
          "duration": 0.46153800000001866,
          "durationTicks": 384,
          "midi": 52,
          "name": "E3",
          "ticks": 122880,
          "time": 147.69215999999997,
          "velocity": 0.6929133858267716
        },
        {
          "duration": 0.6923069999999996,
          "durationTicks": 576,
          "midi": 88,
          "name": "E6",
          "ticks": 123072,
          "time": 147.92292899999998,
          "velocity": 0.7716535433070866
        },
        {
          "duration": 0.46153799999999023,
          "durationTicks": 384,
          "midi": 59,
          "name": "B3",
          "ticks": 123264,
          "time": 148.153698,
          "velocity": 0.6929133858267716
        },
        {
          "duration": 0.46153799999999023,
          "durationTicks": 384,
          "midi": 52,
          "name": "E3",
          "ticks": 123264,
          "time": 148.153698,
          "velocity": 0.6929133858267716
        },
        {
          "duration": 0.346153500000014,
          "durationTicks": 288,
          "midi": 59,
          "name": "B3",
          "ticks": 123648,
          "time": 148.61523599999998,
          "velocity": 0.6929133858267716
        },
        {
          "duration": 0.346153500000014,
          "durationTicks": 288,
          "midi": 52,
          "name": "E3",
          "ticks": 123648,
          "time": 148.61523599999998,
          "velocity": 0.6929133858267716
        },
        {
          "duration": 0.11538449999997624,
          "durationTicks": 96,
          "midi": 67,
          "name": "G4",
          "ticks": 123936,
          "time": 148.9613895,
          "velocity": 0.6929133858267716
        },
        {
          "duration": 0.11538449999997624,
          "durationTicks": 96,
          "midi": 62,
          "name": "D4",
          "ticks": 123936,
          "time": 148.9613895,
          "velocity": 0.6929133858267716
        },
        {
          "duration": 0.30769200000000296,
          "durationTicks": 256,
          "midi": 76,
          "name": "E5",
          "ticks": 124032,
          "time": 149.07677399999997,
          "velocity": 0.8503937007874016
        },
        {
          "duration": 0.346153500000014,
          "durationTicks": 288,
          "midi": 69,
          "name": "A4",
          "ticks": 124032,
          "time": 149.07677399999997,
          "velocity": 0.6929133858267716
        },
        {
          "duration": 0.346153500000014,
          "durationTicks": 288,
          "midi": 64,
          "name": "E4",
          "ticks": 124032,
          "time": 149.07677399999997,
          "velocity": 0.6929133858267716
        },
        {
          "duration": 0.15384599999998727,
          "durationTicks": 128,
          "midi": 88,
          "name": "E6",
          "ticks": 124272,
          "time": 149.36523524999998,
          "velocity": 0.7716535433070866
        },
        {
          "duration": 0.11538450000000466,
          "durationTicks": 96,
          "midi": 67,
          "name": "G4",
          "ticks": 124320,
          "time": 149.4229275,
          "velocity": 0.6929133858267716
        },
        {
          "duration": 0.11538450000000466,
          "durationTicks": 96,
          "midi": 62,
          "name": "D4",
          "ticks": 124320,
          "time": 149.4229275,
          "velocity": 0.6929133858267716
        },
        {
          "duration": 0.15384599999998727,
          "durationTicks": 128,
          "midi": 80,
          "name": "G#5",
          "ticks": 124416,
          "time": 149.538312,
          "velocity": 0.8503937007874016
        },
        {
          "duration": 0.46153799999999023,
          "durationTicks": 384,
          "midi": 68,
          "name": "G#4",
          "ticks": 124416,
          "time": 149.538312,
          "velocity": 0.6929133858267716
        },
        {
          "duration": 0.46153799999999023,
          "durationTicks": 384,
          "midi": 59,
          "name": "B3",
          "ticks": 124416,
          "time": 149.538312,
          "velocity": 0.6929133858267716
        },
        {
          "duration": 0.46153799999999023,
          "durationTicks": 384,
          "midi": 52,
          "name": "E3",
          "ticks": 124416,
          "time": 149.538312,
          "velocity": 0.6929133858267716
        },
        {
          "duration": 0.1538460000000157,
          "durationTicks": 128,
          "midi": 88,
          "name": "E6",
          "ticks": 124544,
          "time": 149.69215799999998,
          "velocity": 0.8503937007874016
        },
        {
          "duration": 0.15384599999998727,
          "durationTicks": 128,
          "midi": 88,
          "name": "E6",
          "ticks": 124672,
          "time": 149.846004,
          "velocity": 0.8503937007874016
        },
        {
          "duration": 0.15384599999998727,
          "durationTicks": 128,
          "midi": 80,
          "name": "G#5",
          "ticks": 124800,
          "time": 149.99984999999998,
          "velocity": 0.8503937007874016
        },
        {
          "duration": 0.46153799999999023,
          "durationTicks": 384,
          "midi": 59,
          "name": "B3",
          "ticks": 124800,
          "time": 149.99984999999998,
          "velocity": 0.6929133858267716
        },
        {
          "duration": 0.46153799999999023,
          "durationTicks": 384,
          "midi": 52,
          "name": "E3",
          "ticks": 124800,
          "time": 149.99984999999998,
          "velocity": 0.6929133858267716
        },
        {
          "duration": 0.1538460000000157,
          "durationTicks": 128,
          "midi": 88,
          "name": "E6",
          "ticks": 124928,
          "time": 150.15369599999997,
          "velocity": 0.8503937007874016
        },
        {
          "duration": 0.15384599999998727,
          "durationTicks": 128,
          "midi": 88,
          "name": "E6",
          "ticks": 125056,
          "time": 150.30754199999998,
          "velocity": 0.8503937007874016
        },
        {
          "duration": 0.1538460000000157,
          "durationTicks": 128,
          "midi": 78,
          "name": "F#5",
          "ticks": 125184,
          "time": 150.46138799999997,
          "velocity": 0.8503937007874016
        },
        {
          "duration": 0.346153500000014,
          "durationTicks": 288,
          "midi": 59,
          "name": "B3",
          "ticks": 125184,
          "time": 150.46138799999997,
          "velocity": 0.6929133858267716
        },
        {
          "duration": 0.346153500000014,
          "durationTicks": 288,
          "midi": 52,
          "name": "E3",
          "ticks": 125184,
          "time": 150.46138799999997,
          "velocity": 0.6929133858267716
        },
        {
          "duration": 0.46153799999999023,
          "durationTicks": 384,
          "midi": 88,
          "name": "E6",
          "ticks": 125312,
          "time": 150.615234,
          "velocity": 0.8503937007874016
        },
        {
          "duration": 0.15384599999998727,
          "durationTicks": 128,
          "midi": 80,
          "name": "G#5",
          "ticks": 125312,
          "time": 150.615234,
          "velocity": 0.8503937007874016
        },
        {
          "duration": 0.1538460000000157,
          "durationTicks": 128,
          "midi": 78,
          "name": "F#5",
          "ticks": 125440,
          "time": 150.76907999999997,
          "velocity": 0.8503937007874016
        },
        {
          "duration": 0.11538450000000466,
          "durationTicks": 96,
          "midi": 67,
          "name": "G4",
          "ticks": 125472,
          "time": 150.80754149999999,
          "velocity": 0.6929133858267716
        },
        {
          "duration": 0.11538450000000466,
          "durationTicks": 96,
          "midi": 62,
          "name": "D4",
          "ticks": 125472,
          "time": 150.80754149999999,
          "velocity": 0.6929133858267716
        },
        {
          "duration": 0.30769200000000296,
          "durationTicks": 256,
          "midi": 76,
          "name": "E5",
          "ticks": 125568,
          "time": 150.922926,
          "velocity": 0.8503937007874016
        },
        {
          "duration": 0.34615349999998557,
          "durationTicks": 288,
          "midi": 69,
          "name": "A4",
          "ticks": 125568,
          "time": 150.922926,
          "velocity": 0.6929133858267716
        },
        {
          "duration": 0.34615349999998557,
          "durationTicks": 288,
          "midi": 64,
          "name": "E4",
          "ticks": 125568,
          "time": 150.922926,
          "velocity": 0.6929133858267716
        },
        {
          "duration": 0.15384599999998727,
          "durationTicks": 128,
          "midi": 76,
          "name": "E5",
          "ticks": 125824,
          "time": 151.230618,
          "velocity": 0.8503937007874016
        },
        {
          "duration": 0.11538450000000466,
          "durationTicks": 96,
          "midi": 67,
          "name": "G4",
          "ticks": 125856,
          "time": 151.26907949999998,
          "velocity": 0.6929133858267716
        },
        {
          "duration": 0.11538450000000466,
          "durationTicks": 96,
          "midi": 62,
          "name": "D4",
          "ticks": 125856,
          "time": 151.26907949999998,
          "velocity": 0.6929133858267716
        },
        {
          "duration": 0.30769200000000296,
          "durationTicks": 256,
          "midi": 76,
          "name": "E5",
          "ticks": 125952,
          "time": 151.38446399999998,
          "velocity": 0.8503937007874016
        },
        {
          "duration": 0.46153799999999023,
          "durationTicks": 384,
          "midi": 68,
          "name": "G#4",
          "ticks": 125952,
          "time": 151.38446399999998,
          "velocity": 0.6929133858267716
        },
        {
          "duration": 0.46153799999999023,
          "durationTicks": 384,
          "midi": 59,
          "name": "B3",
          "ticks": 125952,
          "time": 151.38446399999998,
          "velocity": 0.6929133858267716
        },
        {
          "duration": 0.46153799999999023,
          "durationTicks": 384,
          "midi": 52,
          "name": "E3",
          "ticks": 125952,
          "time": 151.38446399999998,
          "velocity": 0.6929133858267716
        },
        {
          "duration": 0.15384599999998727,
          "durationTicks": 128,
          "midi": 76,
          "name": "E5",
          "ticks": 126208,
          "time": 151.69215599999998,
          "velocity": 0.8503937007874016
        },
        {
          "duration": 0.46153800000001866,
          "durationTicks": 384,
          "midi": 83,
          "name": "B5",
          "ticks": 126336,
          "time": 151.84600199999997,
          "velocity": 0.8503937007874016
        },
        {
          "duration": 0.46153800000001866,
          "durationTicks": 384,
          "midi": 59,
          "name": "B3",
          "ticks": 126336,
          "time": 151.84600199999997,
          "velocity": 0.6929133858267716
        },
        {
          "duration": 0.46153800000001866,
          "durationTicks": 384,
          "midi": 52,
          "name": "E3",
          "ticks": 126336,
          "time": 151.84600199999997,
          "velocity": 0.6929133858267716
        },
        {
          "duration": 0.30769200000000296,
          "durationTicks": 256,
          "midi": 80,
          "name": "G#5",
          "ticks": 126720,
          "time": 152.30754,
          "velocity": 0.8503937007874016
        },
        {
          "duration": 0.34615349999998557,
          "durationTicks": 288,
          "midi": 59,
          "name": "B3",
          "ticks": 126720,
          "time": 152.30754,
          "velocity": 0.6929133858267716
        },
        {
          "duration": 0.34615349999998557,
          "durationTicks": 288,
          "midi": 52,
          "name": "E3",
          "ticks": 126720,
          "time": 152.30754,
          "velocity": 0.6929133858267716
        },
        {
          "duration": 0.1538460000000157,
          "durationTicks": 128,
          "midi": 88,
          "name": "E6",
          "ticks": 126960,
          "time": 152.59600124999997,
          "velocity": 0.8503937007874016
        },
        {
          "duration": 0.11538450000000466,
          "durationTicks": 96,
          "midi": 67,
          "name": "G4",
          "ticks": 127008,
          "time": 152.65369349999997,
          "velocity": 0.6929133858267716
        },
        {
          "duration": 0.11538450000000466,
          "durationTicks": 96,
          "midi": 62,
          "name": "D4",
          "ticks": 127008,
          "time": 152.65369349999997,
          "velocity": 0.6929133858267716
        },
        {
          "duration": 0.30769200000000296,
          "durationTicks": 256,
          "midi": 83,
          "name": "B5",
          "ticks": 127104,
          "time": 152.76907799999998,
          "velocity": 0.8503937007874016
        },
        {
          "duration": 0.346153500000014,
          "durationTicks": 288,
          "midi": 69,
          "name": "A4",
          "ticks": 127104,
          "time": 152.76907799999998,
          "velocity": 0.6929133858267716
        },
        {
          "duration": 0.346153500000014,
          "durationTicks": 288,
          "midi": 64,
          "name": "E4",
          "ticks": 127104,
          "time": 152.76907799999998,
          "velocity": 0.6929133858267716
        },
        {
          "duration": 0.15384599999998727,
          "durationTicks": 128,
          "midi": 80,
          "name": "G#5",
          "ticks": 127344,
          "time": 153.05753925,
          "velocity": 0.8503937007874016
        },
        {
          "duration": 0.11538449999997624,
          "durationTicks": 96,
          "midi": 67,
          "name": "G4",
          "ticks": 127392,
          "time": 153.1152315,
          "velocity": 0.6929133858267716
        },
        {
          "duration": 0.11538449999997624,
          "durationTicks": 96,
          "midi": 62,
          "name": "D4",
          "ticks": 127392,
          "time": 153.1152315,
          "velocity": 0.6929133858267716
        },
        {
          "duration": 0.30769200000000296,
          "durationTicks": 256,
          "midi": 80,
          "name": "G#5",
          "ticks": 127488,
          "time": 153.23061599999997,
          "velocity": 0.8503937007874016
        },
        {
          "duration": 0.46153800000001866,
          "durationTicks": 384,
          "midi": 68,
          "name": "G#4",
          "ticks": 127488,
          "time": 153.23061599999997,
          "velocity": 0.6929133858267716
        },
        {
          "duration": 0.46153800000001866,
          "durationTicks": 384,
          "midi": 59,
          "name": "B3",
          "ticks": 127488,
          "time": 153.23061599999997,
          "velocity": 0.6929133858267716
        },
        {
          "duration": 0.46153800000001866,
          "durationTicks": 384,
          "midi": 52,
          "name": "E3",
          "ticks": 127488,
          "time": 153.23061599999997,
          "velocity": 0.6929133858267716
        },
        {
          "duration": 0.1538460000000157,
          "durationTicks": 128,
          "midi": 78,
          "name": "F#5",
          "ticks": 127744,
          "time": 153.53830799999997,
          "velocity": 0.8503937007874016
        },
        {
          "duration": 0.15384599999998727,
          "durationTicks": 128,
          "midi": 76,
          "name": "E5",
          "ticks": 127872,
          "time": 153.692154,
          "velocity": 0.8503937007874016
        },
        {
          "duration": 0.46153799999999023,
          "durationTicks": 384,
          "midi": 59,
          "name": "B3",
          "ticks": 127872,
          "time": 153.692154,
          "velocity": 0.6929133858267716
        },
        {
          "duration": 0.46153799999999023,
          "durationTicks": 384,
          "midi": 52,
          "name": "E3",
          "ticks": 127872,
          "time": 153.692154,
          "velocity": 0.6929133858267716
        },
        {
          "duration": 0.1538460000000157,
          "durationTicks": 128,
          "midi": 78,
          "name": "F#5",
          "ticks": 128000,
          "time": 153.84599999999998,
          "velocity": 0.8503937007874016
        },
        {
          "duration": 0.15384599999998727,
          "durationTicks": 128,
          "midi": 76,
          "name": "E5",
          "ticks": 128128,
          "time": 153.999846,
          "velocity": 0.8503937007874016
        },
        {
          "duration": 0.46153799999999023,
          "durationTicks": 384,
          "midi": 76,
          "name": "E5",
          "ticks": 128256,
          "time": 154.15369199999998,
          "velocity": 0.8503937007874016
        },
        {
          "duration": 0.346153500000014,
          "durationTicks": 288,
          "midi": 59,
          "name": "B3",
          "ticks": 128256,
          "time": 154.15369199999998,
          "velocity": 0.6929133858267716
        },
        {
          "duration": 0.346153500000014,
          "durationTicks": 288,
          "midi": 52,
          "name": "E3",
          "ticks": 128256,
          "time": 154.15369199999998,
          "velocity": 0.6929133858267716
        },
        {
          "duration": 0.11538449999997624,
          "durationTicks": 96,
          "midi": 67,
          "name": "G4",
          "ticks": 128544,
          "time": 154.4998455,
          "velocity": 0.6929133858267716
        },
        {
          "duration": 0.11538449999997624,
          "durationTicks": 96,
          "midi": 62,
          "name": "D4",
          "ticks": 128544,
          "time": 154.4998455,
          "velocity": 0.6929133858267716
        },
        {
          "duration": 0.46153800000001866,
          "durationTicks": 384,
          "midi": 86,
          "name": "D6",
          "ticks": 128640,
          "time": 154.61522999999997,
          "velocity": 0.8503937007874016
        },
        {
          "duration": 0.346153500000014,
          "durationTicks": 288,
          "midi": 69,
          "name": "A4",
          "ticks": 128640,
          "time": 154.61522999999997,
          "velocity": 0.6929133858267716
        },
        {
          "duration": 0.346153500000014,
          "durationTicks": 288,
          "midi": 64,
          "name": "E4",
          "ticks": 128640,
          "time": 154.61522999999997,
          "velocity": 0.6929133858267716
        },
        {
          "duration": 0.11538450000000466,
          "durationTicks": 96,
          "midi": 67,
          "name": "G4",
          "ticks": 128928,
          "time": 154.96138349999998,
          "velocity": 0.6929133858267716
        },
        {
          "duration": 0.11538450000000466,
          "durationTicks": 96,
          "midi": 62,
          "name": "D4",
          "ticks": 128928,
          "time": 154.96138349999998,
          "velocity": 0.6929133858267716
        },
        {
          "duration": 0.46153799999999023,
          "durationTicks": 384,
          "midi": 68,
          "name": "G#4",
          "ticks": 129024,
          "time": 155.076768,
          "velocity": 0.6929133858267716
        },
        {
          "duration": 0.46153799999999023,
          "durationTicks": 384,
          "midi": 59,
          "name": "B3",
          "ticks": 129024,
          "time": 155.076768,
          "velocity": 0.6929133858267716
        },
        {
          "duration": 0.46153799999999023,
          "durationTicks": 384,
          "midi": 52,
          "name": "E3",
          "ticks": 129024,
          "time": 155.076768,
          "velocity": 0.6929133858267716
        },
        {
          "duration": 0.1538460000000157,
          "durationTicks": 128,
          "midi": 88,
          "name": "E6",
          "ticks": 129264,
          "time": 155.36522924999997,
          "velocity": 0.8503937007874016
        },
        {
          "duration": 0.1538460000000157,
          "durationTicks": 128,
          "midi": 83,
          "name": "B5",
          "ticks": 129408,
          "time": 155.53830599999998,
          "velocity": 0.8503937007874016
        },
        {
          "duration": 0.46153799999999023,
          "durationTicks": 384,
          "midi": 59,
          "name": "B3",
          "ticks": 129408,
          "time": 155.53830599999998,
          "velocity": 0.6929133858267716
        },
        {
          "duration": 0.46153799999999023,
          "durationTicks": 384,
          "midi": 52,
          "name": "E3",
          "ticks": 129408,
          "time": 155.53830599999998,
          "velocity": 0.6929133858267716
        },
        {
          "duration": 0.15384599999998727,
          "durationTicks": 128,
          "midi": 83,
          "name": "B5",
          "ticks": 129536,
          "time": 155.692152,
          "velocity": 0.8503937007874016
        },
        {
          "duration": 0.15384599999998727,
          "durationTicks": 128,
          "midi": 88,
          "name": "E6",
          "ticks": 129664,
          "time": 155.84599799999998,
          "velocity": 0.8503937007874016
        },
        {
          "duration": 0.1538460000000157,
          "durationTicks": 128,
          "midi": 83,
          "name": "B5",
          "ticks": 129792,
          "time": 155.99984399999997,
          "velocity": 0.8503937007874016
        },
        {
          "duration": 0.346153500000014,
          "durationTicks": 288,
          "midi": 59,
          "name": "B3",
          "ticks": 129792,
          "time": 155.99984399999997,
          "velocity": 0.6929133858267716
        },
        {
          "duration": 0.346153500000014,
          "durationTicks": 288,
          "midi": 52,
          "name": "E3",
          "ticks": 129792,
          "time": 155.99984399999997,
          "velocity": 0.6929133858267716
        },
        {
          "duration": 0.15384599999998727,
          "durationTicks": 128,
          "midi": 83,
          "name": "B5",
          "ticks": 129920,
          "time": 156.15368999999998,
          "velocity": 0.8503937007874016
        },
        {
          "duration": 0.1538460000000157,
          "durationTicks": 128,
          "midi": 88,
          "name": "E6",
          "ticks": 130048,
          "time": 156.30753599999997,
          "velocity": 0.8503937007874016
        },
        {
          "duration": 0.11538450000000466,
          "durationTicks": 96,
          "midi": 67,
          "name": "G4",
          "ticks": 130080,
          "time": 156.34599749999998,
          "velocity": 0.6929133858267716
        },
        {
          "duration": 0.11538450000000466,
          "durationTicks": 96,
          "midi": 62,
          "name": "D4",
          "ticks": 130080,
          "time": 156.34599749999998,
          "velocity": 0.6929133858267716
        },
        {
          "duration": 0.15384599999998727,
          "durationTicks": 128,
          "midi": 83,
          "name": "B5",
          "ticks": 130176,
          "time": 156.461382,
          "velocity": 0.8503937007874016
        },
        {
          "duration": 0.34615349999998557,
          "durationTicks": 288,
          "midi": 69,
          "name": "A4",
          "ticks": 130176,
          "time": 156.461382,
          "velocity": 0.6929133858267716
        },
        {
          "duration": 0.34615349999998557,
          "durationTicks": 288,
          "midi": 64,
          "name": "E4",
          "ticks": 130176,
          "time": 156.461382,
          "velocity": 0.6929133858267716
        },
        {
          "duration": 0.1538460000000157,
          "durationTicks": 128,
          "midi": 83,
          "name": "B5",
          "ticks": 130304,
          "time": 156.61522799999997,
          "velocity": 0.8503937007874016
        },
        {
          "duration": 0.15384599999998727,
          "durationTicks": 128,
          "midi": 88,
          "name": "E6",
          "ticks": 130432,
          "time": 156.769074,
          "velocity": 0.8503937007874016
        },
        {
          "duration": 0.11538450000000466,
          "durationTicks": 96,
          "midi": 67,
          "name": "G4",
          "ticks": 130464,
          "time": 156.80753549999997,
          "velocity": 0.6929133858267716
        },
        {
          "duration": 0.11538450000000466,
          "durationTicks": 96,
          "midi": 62,
          "name": "D4",
          "ticks": 130464,
          "time": 156.80753549999997,
          "velocity": 0.6929133858267716
        },
        {
          "duration": 0.1538460000000157,
          "durationTicks": 128,
          "midi": 83,
          "name": "B5",
          "ticks": 130560,
          "time": 156.92291999999998,
          "velocity": 0.8503937007874016
        },
        {
          "duration": 0.46153799999999023,
          "durationTicks": 384,
          "midi": 68,
          "name": "G#4",
          "ticks": 130560,
          "time": 156.92291999999998,
          "velocity": 0.6929133858267716
        },
        {
          "duration": 0.46153799999999023,
          "durationTicks": 384,
          "midi": 59,
          "name": "B3",
          "ticks": 130560,
          "time": 156.92291999999998,
          "velocity": 0.6929133858267716
        },
        {
          "duration": 0.46153799999999023,
          "durationTicks": 384,
          "midi": 52,
          "name": "E3",
          "ticks": 130560,
          "time": 156.92291999999998,
          "velocity": 0.6929133858267716
        },
        {
          "duration": 0.15384599999998727,
          "durationTicks": 128,
          "midi": 83,
          "name": "B5",
          "ticks": 130688,
          "time": 157.076766,
          "velocity": 0.8503937007874016
        },
        {
          "duration": 0.15384599999998727,
          "durationTicks": 128,
          "midi": 88,
          "name": "E6",
          "ticks": 130816,
          "time": 157.23061199999998,
          "velocity": 0.8503937007874016
        },
        {
          "duration": 0.1538460000000157,
          "durationTicks": 128,
          "midi": 83,
          "name": "B5",
          "ticks": 130944,
          "time": 157.38445799999997,
          "velocity": 0.8503937007874016
        },
        {
          "duration": 0.46153800000001866,
          "durationTicks": 384,
          "midi": 59,
          "name": "B3",
          "ticks": 130944,
          "time": 157.38445799999997,
          "velocity": 0.6929133858267716
        },
        {
          "duration": 0.46153800000001866,
          "durationTicks": 384,
          "midi": 52,
          "name": "E3",
          "ticks": 130944,
          "time": 157.38445799999997,
          "velocity": 0.6929133858267716
        },
        {
          "duration": 0.15384599999998727,
          "durationTicks": 128,
          "midi": 83,
          "name": "B5",
          "ticks": 131072,
          "time": 157.53830399999998,
          "velocity": 0.8503937007874016
        },
        {
          "duration": 0.1538460000000157,
          "durationTicks": 128,
          "midi": 88,
          "name": "E6",
          "ticks": 131200,
          "time": 157.69214999999997,
          "velocity": 0.8503937007874016
        },
        {
          "duration": 0.15384599999998727,
          "durationTicks": 128,
          "midi": 83,
          "name": "B5",
          "ticks": 131328,
          "time": 157.84599599999999,
          "velocity": 0.8503937007874016
        },
        {
          "duration": 0.34615349999998557,
          "durationTicks": 288,
          "midi": 59,
          "name": "B3",
          "ticks": 131328,
          "time": 157.84599599999999,
          "velocity": 0.6929133858267716
        },
        {
          "duration": 0.34615349999998557,
          "durationTicks": 288,
          "midi": 52,
          "name": "E3",
          "ticks": 131328,
          "time": 157.84599599999999,
          "velocity": 0.6929133858267716
        },
        {
          "duration": 0.1538460000000157,
          "durationTicks": 128,
          "midi": 83,
          "name": "B5",
          "ticks": 131456,
          "time": 157.99984199999997,
          "velocity": 0.8503937007874016
        },
        {
          "duration": 0.15384599999998727,
          "durationTicks": 128,
          "midi": 88,
          "name": "E6",
          "ticks": 131584,
          "time": 158.153688,
          "velocity": 0.8503937007874016
        },
        {
          "duration": 0.11538450000000466,
          "durationTicks": 96,
          "midi": 67,
          "name": "G4",
          "ticks": 131616,
          "time": 158.19214949999997,
          "velocity": 0.6929133858267716
        },
        {
          "duration": 0.11538450000000466,
          "durationTicks": 96,
          "midi": 62,
          "name": "D4",
          "ticks": 131616,
          "time": 158.19214949999997,
          "velocity": 0.6929133858267716
        },
        {
          "duration": 0.1538460000000157,
          "durationTicks": 128,
          "midi": 83,
          "name": "B5",
          "ticks": 131712,
          "time": 158.30753399999998,
          "velocity": 0.8503937007874016
        },
        {
          "duration": 0.346153500000014,
          "durationTicks": 288,
          "midi": 69,
          "name": "A4",
          "ticks": 131712,
          "time": 158.30753399999998,
          "velocity": 0.6929133858267716
        },
        {
          "duration": 0.346153500000014,
          "durationTicks": 288,
          "midi": 64,
          "name": "E4",
          "ticks": 131712,
          "time": 158.30753399999998,
          "velocity": 0.6929133858267716
        },
        {
          "duration": 0.15384599999998727,
          "durationTicks": 128,
          "midi": 83,
          "name": "B5",
          "ticks": 131840,
          "time": 158.46138,
          "velocity": 0.8503937007874016
        },
        {
          "duration": 0.15384599999998727,
          "durationTicks": 128,
          "midi": 88,
          "name": "E6",
          "ticks": 131968,
          "time": 158.61522599999998,
          "velocity": 0.8503937007874016
        },
        {
          "duration": 0.11538449999997624,
          "durationTicks": 96,
          "midi": 67,
          "name": "G4",
          "ticks": 132000,
          "time": 158.6536875,
          "velocity": 0.6929133858267716
        },
        {
          "duration": 0.11538449999997624,
          "durationTicks": 96,
          "midi": 62,
          "name": "D4",
          "ticks": 132000,
          "time": 158.6536875,
          "velocity": 0.6929133858267716
        },
        {
          "duration": 0.1538460000000157,
          "durationTicks": 128,
          "midi": 83,
          "name": "B5",
          "ticks": 132096,
          "time": 158.76907199999997,
          "velocity": 0.8503937007874016
        },
        {
          "duration": 0.46153800000001866,
          "durationTicks": 384,
          "midi": 68,
          "name": "G#4",
          "ticks": 132096,
          "time": 158.76907199999997,
          "velocity": 0.6929133858267716
        },
        {
          "duration": 0.46153800000001866,
          "durationTicks": 384,
          "midi": 59,
          "name": "B3",
          "ticks": 132096,
          "time": 158.76907199999997,
          "velocity": 0.6929133858267716
        },
        {
          "duration": 0.46153800000001866,
          "durationTicks": 384,
          "midi": 52,
          "name": "E3",
          "ticks": 132096,
          "time": 158.76907199999997,
          "velocity": 0.6929133858267716
        },
        {
          "duration": 0.15384599999998727,
          "durationTicks": 128,
          "midi": 83,
          "name": "B5",
          "ticks": 132224,
          "time": 158.92291799999998,
          "velocity": 0.8503937007874016
        },
        {
          "duration": 0.1538460000000157,
          "durationTicks": 128,
          "midi": 88,
          "name": "E6",
          "ticks": 132352,
          "time": 159.07676399999997,
          "velocity": 0.8503937007874016
        },
        {
          "duration": 0.15384599999998727,
          "durationTicks": 128,
          "midi": 83,
          "name": "B5",
          "ticks": 132480,
          "time": 159.23060999999998,
          "velocity": 0.8503937007874016
        },
        {
          "duration": 0.46153799999999023,
          "durationTicks": 384,
          "midi": 59,
          "name": "B3",
          "ticks": 132480,
          "time": 159.23060999999998,
          "velocity": 0.6929133858267716
        },
        {
          "duration": 0.46153799999999023,
          "durationTicks": 384,
          "midi": 52,
          "name": "E3",
          "ticks": 132480,
          "time": 159.23060999999998,
          "velocity": 0.6929133858267716
        },
        {
          "duration": 0.1538460000000157,
          "durationTicks": 128,
          "midi": 83,
          "name": "B5",
          "ticks": 132608,
          "time": 159.38445599999997,
          "velocity": 0.8503937007874016
        },
        {
          "duration": 0.15384599999998727,
          "durationTicks": 128,
          "midi": 88,
          "name": "E6",
          "ticks": 132736,
          "time": 159.538302,
          "velocity": 0.8503937007874016
        },
        {
          "duration": 0.1538460000000157,
          "durationTicks": 128,
          "midi": 83,
          "name": "B5",
          "ticks": 132864,
          "time": 159.69214799999997,
          "velocity": 0.8503937007874016
        },
        {
          "duration": 0.346153500000014,
          "durationTicks": 288,
          "midi": 59,
          "name": "B3",
          "ticks": 132864,
          "time": 159.69214799999997,
          "velocity": 0.6929133858267716
        },
        {
          "duration": 0.346153500000014,
          "durationTicks": 288,
          "midi": 52,
          "name": "E3",
          "ticks": 132864,
          "time": 159.69214799999997,
          "velocity": 0.6929133858267716
        },
        {
          "duration": 0.15384599999998727,
          "durationTicks": 128,
          "midi": 83,
          "name": "B5",
          "ticks": 132992,
          "time": 159.845994,
          "velocity": 0.8503937007874016
        },
        {
          "duration": 0.1538460000000157,
          "durationTicks": 128,
          "midi": 88,
          "name": "E6",
          "ticks": 133120,
          "time": 159.99983999999998,
          "velocity": 0.8503937007874016
        },
        {
          "duration": 0.11538450000000466,
          "durationTicks": 96,
          "midi": 67,
          "name": "G4",
          "ticks": 133152,
          "time": 160.0383015,
          "velocity": 0.6929133858267716
        },
        {
          "duration": 0.11538450000000466,
          "durationTicks": 96,
          "midi": 62,
          "name": "D4",
          "ticks": 133152,
          "time": 160.0383015,
          "velocity": 0.6929133858267716
        },
        {
          "duration": 0.15384599999998727,
          "durationTicks": 128,
          "midi": 83,
          "name": "B5",
          "ticks": 133248,
          "time": 160.153686,
          "velocity": 0.8503937007874016
        },
        {
          "duration": 0.34615349999998557,
          "durationTicks": 288,
          "midi": 69,
          "name": "A4",
          "ticks": 133248,
          "time": 160.153686,
          "velocity": 0.6929133858267716
        },
        {
          "duration": 0.34615349999998557,
          "durationTicks": 288,
          "midi": 64,
          "name": "E4",
          "ticks": 133248,
          "time": 160.153686,
          "velocity": 0.6929133858267716
        },
        {
          "duration": 0.15384599999998727,
          "durationTicks": 128,
          "midi": 83,
          "name": "B5",
          "ticks": 133376,
          "time": 160.30753199999998,
          "velocity": 0.8503937007874016
        },
        {
          "duration": 0.1538460000000157,
          "durationTicks": 128,
          "midi": 88,
          "name": "E6",
          "ticks": 133504,
          "time": 160.46137799999997,
          "velocity": 0.8503937007874016
        },
        {
          "duration": 0.11538450000000466,
          "durationTicks": 96,
          "midi": 67,
          "name": "G4",
          "ticks": 133536,
          "time": 160.49983949999998,
          "velocity": 0.6929133858267716
        },
        {
          "duration": 0.11538450000000466,
          "durationTicks": 96,
          "midi": 62,
          "name": "D4",
          "ticks": 133536,
          "time": 160.49983949999998,
          "velocity": 0.6929133858267716
        },
        {
          "duration": 0.15384599999998727,
          "durationTicks": 128,
          "midi": 83,
          "name": "B5",
          "ticks": 133632,
          "time": 160.61522399999998,
          "velocity": 0.6929133858267716
        },
        {
          "duration": 0.15384599999998727,
          "durationTicks": 128,
          "midi": 80,
          "name": "G#5",
          "ticks": 133632,
          "time": 160.61522399999998,
          "velocity": 0.6929133858267716
        },
        {
          "duration": 0.15384599999998727,
          "durationTicks": 128,
          "midi": 76,
          "name": "E5",
          "ticks": 133632,
          "time": 160.61522399999998,
          "velocity": 0.6929133858267716
        },
        {
          "duration": 0.15384599999998727,
          "durationTicks": 128,
          "midi": 71,
          "name": "B4",
          "ticks": 133632,
          "time": 160.61522399999998,
          "velocity": 0.6929133858267716
        },
        {
          "duration": 0.15384599999998727,
          "durationTicks": 128,
          "midi": 64,
          "name": "E4",
          "ticks": 133632,
          "time": 160.61522399999998,
          "velocity": 0.6929133858267716
        },
        {
          "duration": 0.1538460000000157,
          "durationTicks": 128,
          "midi": 83,
          "name": "B5",
          "ticks": 133760,
          "time": 160.76906999999997,
          "velocity": 0.6929133858267716
        },
        {
          "duration": 0.1538460000000157,
          "durationTicks": 128,
          "midi": 80,
          "name": "G#5",
          "ticks": 133760,
          "time": 160.76906999999997,
          "velocity": 0.6929133858267716
        },
        {
          "duration": 0.1538460000000157,
          "durationTicks": 128,
          "midi": 76,
          "name": "E5",
          "ticks": 133760,
          "time": 160.76906999999997,
          "velocity": 0.6929133858267716
        },
        {
          "duration": 0.1538460000000157,
          "durationTicks": 128,
          "midi": 71,
          "name": "B4",
          "ticks": 133760,
          "time": 160.76906999999997,
          "velocity": 0.6929133858267716
        },
        {
          "duration": 0.1538460000000157,
          "durationTicks": 128,
          "midi": 64,
          "name": "E4",
          "ticks": 133760,
          "time": 160.76906999999997,
          "velocity": 0.6929133858267716
        },
        {
          "duration": 0.15384599999998727,
          "durationTicks": 128,
          "midi": 88,
          "name": "E6",
          "ticks": 133888,
          "time": 160.922916,
          "velocity": 0.6929133858267716
        },
        {
          "duration": 0.15384599999998727,
          "durationTicks": 128,
          "midi": 80,
          "name": "G#5",
          "ticks": 133888,
          "time": 160.922916,
          "velocity": 0.6929133858267716
        },
        {
          "duration": 0.15384599999998727,
          "durationTicks": 128,
          "midi": 76,
          "name": "E5",
          "ticks": 133888,
          "time": 160.922916,
          "velocity": 0.6929133858267716
        },
        {
          "duration": 0.15384599999998727,
          "durationTicks": 128,
          "midi": 71,
          "name": "B4",
          "ticks": 133888,
          "time": 160.922916,
          "velocity": 0.6929133858267716
        },
        {
          "duration": 0.15384599999998727,
          "durationTicks": 128,
          "midi": 64,
          "name": "E4",
          "ticks": 133888,
          "time": 160.922916,
          "velocity": 0.6929133858267716
        },
        {
          "duration": 0.1538460000000157,
          "durationTicks": 128,
          "midi": 83,
          "name": "B5",
          "ticks": 134016,
          "time": 161.07676199999997,
          "velocity": 0.6929133858267716
        },
        {
          "duration": 0.1538460000000157,
          "durationTicks": 128,
          "midi": 80,
          "name": "G#5",
          "ticks": 134016,
          "time": 161.07676199999997,
          "velocity": 0.6929133858267716
        },
        {
          "duration": 0.1538460000000157,
          "durationTicks": 128,
          "midi": 76,
          "name": "E5",
          "ticks": 134016,
          "time": 161.07676199999997,
          "velocity": 0.6929133858267716
        },
        {
          "duration": 0.1538460000000157,
          "durationTicks": 128,
          "midi": 71,
          "name": "B4",
          "ticks": 134016,
          "time": 161.07676199999997,
          "velocity": 0.6929133858267716
        },
        {
          "duration": 0.1538460000000157,
          "durationTicks": 128,
          "midi": 64,
          "name": "E4",
          "ticks": 134016,
          "time": 161.07676199999997,
          "velocity": 0.6929133858267716
        },
        {
          "duration": 0.15384599999998727,
          "durationTicks": 128,
          "midi": 83,
          "name": "B5",
          "ticks": 134144,
          "time": 161.230608,
          "velocity": 0.6929133858267716
        },
        {
          "duration": 0.15384599999998727,
          "durationTicks": 128,
          "midi": 80,
          "name": "G#5",
          "ticks": 134144,
          "time": 161.230608,
          "velocity": 0.6929133858267716
        },
        {
          "duration": 0.15384599999998727,
          "durationTicks": 128,
          "midi": 76,
          "name": "E5",
          "ticks": 134144,
          "time": 161.230608,
          "velocity": 0.6929133858267716
        },
        {
          "duration": 0.15384599999998727,
          "durationTicks": 128,
          "midi": 71,
          "name": "B4",
          "ticks": 134144,
          "time": 161.230608,
          "velocity": 0.6929133858267716
        },
        {
          "duration": 0.15384599999998727,
          "durationTicks": 128,
          "midi": 64,
          "name": "E4",
          "ticks": 134144,
          "time": 161.230608,
          "velocity": 0.6929133858267716
        },
        {
          "duration": 0.1538460000000157,
          "durationTicks": 128,
          "midi": 88,
          "name": "E6",
          "ticks": 134272,
          "time": 161.38445399999998,
          "velocity": 0.6929133858267716
        },
        {
          "duration": 0.1538460000000157,
          "durationTicks": 128,
          "midi": 80,
          "name": "G#5",
          "ticks": 134272,
          "time": 161.38445399999998,
          "velocity": 0.6929133858267716
        },
        {
          "duration": 0.1538460000000157,
          "durationTicks": 128,
          "midi": 76,
          "name": "E5",
          "ticks": 134272,
          "time": 161.38445399999998,
          "velocity": 0.6929133858267716
        },
        {
          "duration": 0.1538460000000157,
          "durationTicks": 128,
          "midi": 71,
          "name": "B4",
          "ticks": 134272,
          "time": 161.38445399999998,
          "velocity": 0.6929133858267716
        },
        {
          "duration": 0.1538460000000157,
          "durationTicks": 128,
          "midi": 64,
          "name": "E4",
          "ticks": 134272,
          "time": 161.38445399999998,
          "velocity": 0.6929133858267716
        },
        {
          "duration": 0.15384599999998727,
          "durationTicks": 128,
          "midi": 83,
          "name": "B5",
          "ticks": 134400,
          "time": 161.5383,
          "velocity": 0.6929133858267716
        },
        {
          "duration": 0.15384599999998727,
          "durationTicks": 128,
          "midi": 80,
          "name": "G#5",
          "ticks": 134400,
          "time": 161.5383,
          "velocity": 0.6929133858267716
        },
        {
          "duration": 0.15384599999998727,
          "durationTicks": 128,
          "midi": 76,
          "name": "E5",
          "ticks": 134400,
          "time": 161.5383,
          "velocity": 0.6929133858267716
        },
        {
          "duration": 0.15384599999998727,
          "durationTicks": 128,
          "midi": 71,
          "name": "B4",
          "ticks": 134400,
          "time": 161.5383,
          "velocity": 0.6929133858267716
        },
        {
          "duration": 0.15384599999998727,
          "durationTicks": 128,
          "midi": 64,
          "name": "E4",
          "ticks": 134400,
          "time": 161.5383,
          "velocity": 0.6929133858267716
        },
        {
          "duration": 0.15384599999998727,
          "durationTicks": 128,
          "midi": 83,
          "name": "B5",
          "ticks": 134528,
          "time": 161.69214599999998,
          "velocity": 0.6929133858267716
        },
        {
          "duration": 0.15384599999998727,
          "durationTicks": 128,
          "midi": 80,
          "name": "G#5",
          "ticks": 134528,
          "time": 161.69214599999998,
          "velocity": 0.6929133858267716
        },
        {
          "duration": 0.15384599999998727,
          "durationTicks": 128,
          "midi": 76,
          "name": "E5",
          "ticks": 134528,
          "time": 161.69214599999998,
          "velocity": 0.6929133858267716
        },
        {
          "duration": 0.15384599999998727,
          "durationTicks": 128,
          "midi": 71,
          "name": "B4",
          "ticks": 134528,
          "time": 161.69214599999998,
          "velocity": 0.6929133858267716
        },
        {
          "duration": 0.15384599999998727,
          "durationTicks": 128,
          "midi": 64,
          "name": "E4",
          "ticks": 134528,
          "time": 161.69214599999998,
          "velocity": 0.6929133858267716
        },
        {
          "duration": 0.1538460000000157,
          "durationTicks": 128,
          "midi": 83,
          "name": "B5",
          "ticks": 134656,
          "time": 161.84599199999997,
          "velocity": 0.6929133858267716
        },
        {
          "duration": 0.1538460000000157,
          "durationTicks": 128,
          "midi": 80,
          "name": "G#5",
          "ticks": 134656,
          "time": 161.84599199999997,
          "velocity": 0.6929133858267716
        },
        {
          "duration": 0.1538460000000157,
          "durationTicks": 128,
          "midi": 76,
          "name": "E5",
          "ticks": 134656,
          "time": 161.84599199999997,
          "velocity": 0.6929133858267716
        },
        {
          "duration": 0.1538460000000157,
          "durationTicks": 128,
          "midi": 71,
          "name": "B4",
          "ticks": 134656,
          "time": 161.84599199999997,
          "velocity": 0.6929133858267716
        },
        {
          "duration": 0.1538460000000157,
          "durationTicks": 128,
          "midi": 64,
          "name": "E4",
          "ticks": 134656,
          "time": 161.84599199999997,
          "velocity": 0.6929133858267716
        },
        {
          "duration": 0.15384599999998727,
          "durationTicks": 128,
          "midi": 76,
          "name": "E5",
          "ticks": 134784,
          "time": 161.99983799999998,
          "velocity": 0.6929133858267716
        },
        {
          "duration": 0.15384599999998727,
          "durationTicks": 128,
          "midi": 71,
          "name": "B4",
          "ticks": 134784,
          "time": 161.99983799999998,
          "velocity": 0.6929133858267716
        },
        {
          "duration": 0.15384599999998727,
          "durationTicks": 128,
          "midi": 81,
          "name": "A5",
          "ticks": 134784,
          "time": 161.99983799999998,
          "velocity": 0.6929133858267716
        },
        {
          "duration": 0.15384599999998727,
          "durationTicks": 128,
          "midi": 80,
          "name": "G#5",
          "ticks": 134784,
          "time": 161.99983799999998,
          "velocity": 0.6929133858267716
        },
        {
          "duration": 0.15384599999998727,
          "durationTicks": 128,
          "midi": 76,
          "name": "E5",
          "ticks": 134784,
          "time": 161.99983799999998,
          "velocity": 0.6929133858267716
        },
        {
          "duration": 0.15384599999998727,
          "durationTicks": 128,
          "midi": 71,
          "name": "B4",
          "ticks": 134784,
          "time": 161.99983799999998,
          "velocity": 0.6929133858267716
        },
        {
          "duration": 0.15384599999998727,
          "durationTicks": 128,
          "midi": 64,
          "name": "E4",
          "ticks": 134784,
          "time": 161.99983799999998,
          "velocity": 0.6929133858267716
        },
        {
          "duration": 0.1538460000000157,
          "durationTicks": 128,
          "midi": 76,
          "name": "E5",
          "ticks": 134912,
          "time": 162.15368399999997,
          "velocity": 0.6929133858267716
        },
        {
          "duration": 0.1538460000000157,
          "durationTicks": 128,
          "midi": 71,
          "name": "B4",
          "ticks": 134912,
          "time": 162.15368399999997,
          "velocity": 0.6929133858267716
        },
        {
          "duration": 0.1538460000000157,
          "durationTicks": 128,
          "midi": 81,
          "name": "A5",
          "ticks": 134912,
          "time": 162.15368399999997,
          "velocity": 0.6929133858267716
        },
        {
          "duration": 0.1538460000000157,
          "durationTicks": 128,
          "midi": 80,
          "name": "G#5",
          "ticks": 134912,
          "time": 162.15368399999997,
          "velocity": 0.6929133858267716
        },
        {
          "duration": 0.1538460000000157,
          "durationTicks": 128,
          "midi": 76,
          "name": "E5",
          "ticks": 134912,
          "time": 162.15368399999997,
          "velocity": 0.6929133858267716
        },
        {
          "duration": 0.1538460000000157,
          "durationTicks": 128,
          "midi": 71,
          "name": "B4",
          "ticks": 134912,
          "time": 162.15368399999997,
          "velocity": 0.6929133858267716
        },
        {
          "duration": 0.1538460000000157,
          "durationTicks": 128,
          "midi": 64,
          "name": "E4",
          "ticks": 134912,
          "time": 162.15368399999997,
          "velocity": 0.6929133858267716
        },
        {
          "duration": 0.15384599999998727,
          "durationTicks": 128,
          "midi": 76,
          "name": "E5",
          "ticks": 135040,
          "time": 162.30752999999999,
          "velocity": 0.6929133858267716
        },
        {
          "duration": 0.15384599999998727,
          "durationTicks": 128,
          "midi": 71,
          "name": "B4",
          "ticks": 135040,
          "time": 162.30752999999999,
          "velocity": 0.6929133858267716
        },
        {
          "duration": 0.15384599999998727,
          "durationTicks": 128,
          "midi": 81,
          "name": "A5",
          "ticks": 135040,
          "time": 162.30752999999999,
          "velocity": 0.6929133858267716
        },
        {
          "duration": 0.15384599999998727,
          "durationTicks": 128,
          "midi": 80,
          "name": "G#5",
          "ticks": 135040,
          "time": 162.30752999999999,
          "velocity": 0.6929133858267716
        },
        {
          "duration": 0.15384599999998727,
          "durationTicks": 128,
          "midi": 76,
          "name": "E5",
          "ticks": 135040,
          "time": 162.30752999999999,
          "velocity": 0.6929133858267716
        },
        {
          "duration": 0.15384599999998727,
          "durationTicks": 128,
          "midi": 71,
          "name": "B4",
          "ticks": 135040,
          "time": 162.30752999999999,
          "velocity": 0.6929133858267716
        },
        {
          "duration": 0.15384599999998727,
          "durationTicks": 128,
          "midi": 64,
          "name": "E4",
          "ticks": 135040,
          "time": 162.30752999999999,
          "velocity": 0.6929133858267716
        },
        {
          "duration": 0.1538460000000157,
          "durationTicks": 128,
          "midi": 88,
          "name": "E6",
          "ticks": 135168,
          "time": 162.46137599999997,
          "velocity": 0.6929133858267716
        },
        {
          "duration": 0.1538460000000157,
          "durationTicks": 128,
          "midi": 83,
          "name": "B5",
          "ticks": 135168,
          "time": 162.46137599999997,
          "velocity": 0.6929133858267716
        },
        {
          "duration": 0.1538460000000157,
          "durationTicks": 128,
          "midi": 80,
          "name": "G#5",
          "ticks": 135168,
          "time": 162.46137599999997,
          "velocity": 0.6929133858267716
        },
        {
          "duration": 0.1538460000000157,
          "durationTicks": 128,
          "midi": 76,
          "name": "E5",
          "ticks": 135168,
          "time": 162.46137599999997,
          "velocity": 0.6929133858267716
        },
        {
          "duration": 0.15384599999998727,
          "durationTicks": 128,
          "midi": 88,
          "name": "E6",
          "ticks": 135296,
          "time": 162.615222,
          "velocity": 0.6929133858267716
        },
        {
          "duration": 0.15384599999998727,
          "durationTicks": 128,
          "midi": 83,
          "name": "B5",
          "ticks": 135296,
          "time": 162.615222,
          "velocity": 0.6929133858267716
        },
        {
          "duration": 0.15384599999998727,
          "durationTicks": 128,
          "midi": 80,
          "name": "G#5",
          "ticks": 135296,
          "time": 162.615222,
          "velocity": 0.6929133858267716
        },
        {
          "duration": 0.15384599999998727,
          "durationTicks": 128,
          "midi": 76,
          "name": "E5",
          "ticks": 135296,
          "time": 162.615222,
          "velocity": 0.6929133858267716
        },
        {
          "duration": 0.1538460000000157,
          "durationTicks": 128,
          "midi": 88,
          "name": "E6",
          "ticks": 135424,
          "time": 162.76906799999998,
          "velocity": 0.6929133858267716
        },
        {
          "duration": 0.1538460000000157,
          "durationTicks": 128,
          "midi": 83,
          "name": "B5",
          "ticks": 135424,
          "time": 162.76906799999998,
          "velocity": 0.6929133858267716
        },
        {
          "duration": 0.1538460000000157,
          "durationTicks": 128,
          "midi": 80,
          "name": "G#5",
          "ticks": 135424,
          "time": 162.76906799999998,
          "velocity": 0.6929133858267716
        },
        {
          "duration": 0.1538460000000157,
          "durationTicks": 128,
          "midi": 76,
          "name": "E5",
          "ticks": 135424,
          "time": 162.76906799999998,
          "velocity": 0.6929133858267716
        },
        {
          "duration": 0.15384599999998727,
          "durationTicks": 128,
          "midi": 88,
          "name": "E6",
          "ticks": 135552,
          "time": 162.922914,
          "velocity": 0.6929133858267716
        },
        {
          "duration": 0.15384599999998727,
          "durationTicks": 128,
          "midi": 83,
          "name": "B5",
          "ticks": 135552,
          "time": 162.922914,
          "velocity": 0.6929133858267716
        },
        {
          "duration": 0.15384599999998727,
          "durationTicks": 128,
          "midi": 80,
          "name": "G#5",
          "ticks": 135552,
          "time": 162.922914,
          "velocity": 0.6929133858267716
        },
        {
          "duration": 0.15384599999998727,
          "durationTicks": 128,
          "midi": 76,
          "name": "E5",
          "ticks": 135552,
          "time": 162.922914,
          "velocity": 0.6929133858267716
        },
        {
          "duration": 0.15384599999998727,
          "durationTicks": 128,
          "midi": 88,
          "name": "E6",
          "ticks": 135680,
          "time": 163.07675999999998,
          "velocity": 0.6929133858267716
        },
        {
          "duration": 0.15384599999998727,
          "durationTicks": 128,
          "midi": 83,
          "name": "B5",
          "ticks": 135680,
          "time": 163.07675999999998,
          "velocity": 0.6929133858267716
        },
        {
          "duration": 0.15384599999998727,
          "durationTicks": 128,
          "midi": 80,
          "name": "G#5",
          "ticks": 135680,
          "time": 163.07675999999998,
          "velocity": 0.6929133858267716
        },
        {
          "duration": 0.15384599999998727,
          "durationTicks": 128,
          "midi": 76,
          "name": "E5",
          "ticks": 135680,
          "time": 163.07675999999998,
          "velocity": 0.6929133858267716
        },
        {
          "duration": 0.1538460000000157,
          "durationTicks": 128,
          "midi": 88,
          "name": "E6",
          "ticks": 135808,
          "time": 163.23060599999997,
          "velocity": 0.6929133858267716
        },
        {
          "duration": 0.1538460000000157,
          "durationTicks": 128,
          "midi": 83,
          "name": "B5",
          "ticks": 135808,
          "time": 163.23060599999997,
          "velocity": 0.6929133858267716
        },
        {
          "duration": 0.1538460000000157,
          "durationTicks": 128,
          "midi": 80,
          "name": "G#5",
          "ticks": 135808,
          "time": 163.23060599999997,
          "velocity": 0.6929133858267716
        },
        {
          "duration": 0.1538460000000157,
          "durationTicks": 128,
          "midi": 76,
          "name": "E5",
          "ticks": 135808,
          "time": 163.23060599999997,
          "velocity": 0.6929133858267716
        },
        {
          "duration": 0.15384599999998727,
          "durationTicks": 128,
          "midi": 88,
          "name": "E6",
          "ticks": 135936,
          "time": 163.38445199999998,
          "velocity": 0.6929133858267716
        },
        {
          "duration": 0.15384599999998727,
          "durationTicks": 128,
          "midi": 83,
          "name": "B5",
          "ticks": 135936,
          "time": 163.38445199999998,
          "velocity": 0.6929133858267716
        },
        {
          "duration": 0.15384599999998727,
          "durationTicks": 128,
          "midi": 80,
          "name": "G#5",
          "ticks": 135936,
          "time": 163.38445199999998,
          "velocity": 0.6929133858267716
        },
        {
          "duration": 0.15384599999998727,
          "durationTicks": 128,
          "midi": 76,
          "name": "E5",
          "ticks": 135936,
          "time": 163.38445199999998,
          "velocity": 0.6929133858267716
        },
        {
          "duration": 0.1538460000000157,
          "durationTicks": 128,
          "midi": 88,
          "name": "E6",
          "ticks": 136064,
          "time": 163.53829799999997,
          "velocity": 0.6929133858267716
        },
        {
          "duration": 0.1538460000000157,
          "durationTicks": 128,
          "midi": 83,
          "name": "B5",
          "ticks": 136064,
          "time": 163.53829799999997,
          "velocity": 0.6929133858267716
        },
        {
          "duration": 0.1538460000000157,
          "durationTicks": 128,
          "midi": 80,
          "name": "G#5",
          "ticks": 136064,
          "time": 163.53829799999997,
          "velocity": 0.6929133858267716
        },
        {
          "duration": 0.1538460000000157,
          "durationTicks": 128,
          "midi": 76,
          "name": "E5",
          "ticks": 136064,
          "time": 163.53829799999997,
          "velocity": 0.6929133858267716
        },
        {
          "duration": 0.15384599999998727,
          "durationTicks": 128,
          "midi": 88,
          "name": "E6",
          "ticks": 136192,
          "time": 163.69214399999998,
          "velocity": 0.6929133858267716
        },
        {
          "duration": 0.15384599999998727,
          "durationTicks": 128,
          "midi": 83,
          "name": "B5",
          "ticks": 136192,
          "time": 163.69214399999998,
          "velocity": 0.6929133858267716
        },
        {
          "duration": 0.15384599999998727,
          "durationTicks": 128,
          "midi": 80,
          "name": "G#5",
          "ticks": 136192,
          "time": 163.69214399999998,
          "velocity": 0.6929133858267716
        },
        {
          "duration": 0.15384599999998727,
          "durationTicks": 128,
          "midi": 76,
          "name": "E5",
          "ticks": 136192,
          "time": 163.69214399999998,
          "velocity": 0.6929133858267716
        },
        {
          "duration": 0.1538460000000157,
          "durationTicks": 128,
          "midi": 88,
          "name": "E6",
          "ticks": 136320,
          "time": 163.84598999999997,
          "velocity": 0.6929133858267716
        },
        {
          "duration": 0.1538460000000157,
          "durationTicks": 128,
          "midi": 83,
          "name": "B5",
          "ticks": 136320,
          "time": 163.84598999999997,
          "velocity": 0.6929133858267716
        },
        {
          "duration": 0.1538460000000157,
          "durationTicks": 128,
          "midi": 80,
          "name": "G#5",
          "ticks": 136320,
          "time": 163.84598999999997,
          "velocity": 0.6929133858267716
        },
        {
          "duration": 0.1538460000000157,
          "durationTicks": 128,
          "midi": 76,
          "name": "E5",
          "ticks": 136320,
          "time": 163.84598999999997,
          "velocity": 0.6929133858267716
        },
        {
          "duration": 0.15384599999998727,
          "durationTicks": 128,
          "midi": 88,
          "name": "E6",
          "ticks": 136448,
          "time": 163.999836,
          "velocity": 0.6929133858267716
        },
        {
          "duration": 0.15384599999998727,
          "durationTicks": 128,
          "midi": 83,
          "name": "B5",
          "ticks": 136448,
          "time": 163.999836,
          "velocity": 0.6929133858267716
        },
        {
          "duration": 0.15384599999998727,
          "durationTicks": 128,
          "midi": 80,
          "name": "G#5",
          "ticks": 136448,
          "time": 163.999836,
          "velocity": 0.6929133858267716
        },
        {
          "duration": 0.15384599999998727,
          "durationTicks": 128,
          "midi": 76,
          "name": "E5",
          "ticks": 136448,
          "time": 163.999836,
          "velocity": 0.6929133858267716
        },
        {
          "duration": 0.1538460000000157,
          "durationTicks": 128,
          "midi": 88,
          "name": "E6",
          "ticks": 136576,
          "time": 164.15368199999998,
          "velocity": 0.6929133858267716
        },
        {
          "duration": 0.1538460000000157,
          "durationTicks": 128,
          "midi": 83,
          "name": "B5",
          "ticks": 136576,
          "time": 164.15368199999998,
          "velocity": 0.6929133858267716
        },
        {
          "duration": 0.1538460000000157,
          "durationTicks": 128,
          "midi": 80,
          "name": "G#5",
          "ticks": 136576,
          "time": 164.15368199999998,
          "velocity": 0.6929133858267716
        },
        {
          "duration": 0.1538460000000157,
          "durationTicks": 128,
          "midi": 76,
          "name": "E5",
          "ticks": 136576,
          "time": 164.15368199999998,
          "velocity": 0.6929133858267716
        },
        {
          "duration": 0.46153799999999023,
          "durationTicks": 384,
          "midi": 66,
          "name": "F#4",
          "ticks": 136704,
          "time": 164.307528,
          "velocity": 0.6929133858267716
        },
        {
          "duration": 0.46153799999999023,
          "durationTicks": 384,
          "midi": 59,
          "name": "B3",
          "ticks": 136704,
          "time": 164.307528,
          "velocity": 0.6929133858267716
        },
        {
          "duration": 0.46153799999999023,
          "durationTicks": 384,
          "midi": 68,
          "name": "G#4",
          "ticks": 137088,
          "time": 164.76906599999998,
          "velocity": 0.6929133858267716
        },
        {
          "duration": 0.46153799999999023,
          "durationTicks": 384,
          "midi": 59,
          "name": "B3",
          "ticks": 137088,
          "time": 164.76906599999998,
          "velocity": 0.6929133858267716
        },
        {
          "duration": 0.30769200000000296,
          "durationTicks": 256,
          "midi": 59,
          "name": "B3",
          "ticks": 137472,
          "time": 165.23060399999997,
          "velocity": 0.6929133858267716
        },
        {
          "duration": 0.30769200000000296,
          "durationTicks": 256,
          "midi": 68,
          "name": "G#4",
          "ticks": 137472,
          "time": 165.23060399999997,
          "velocity": 0.6929133858267716
        },
        {
          "duration": 0.30769200000000296,
          "durationTicks": 256,
          "midi": 66,
          "name": "F#4",
          "ticks": 137728,
          "time": 165.53829599999997,
          "velocity": 0.6929133858267716
        },
        {
          "duration": 0.30769200000000296,
          "durationTicks": 256,
          "midi": 59,
          "name": "B3",
          "ticks": 137728,
          "time": 165.53829599999997,
          "velocity": 0.6929133858267716
        },
        {
          "duration": 0.1538460000000157,
          "durationTicks": 128,
          "midi": 66,
          "name": "F#4",
          "ticks": 138112,
          "time": 165.99983399999996,
          "velocity": 0.6929133858267716
        },
        {
          "duration": 0.1538460000000157,
          "durationTicks": 128,
          "midi": 59,
          "name": "B3",
          "ticks": 138112,
          "time": 165.99983399999996,
          "velocity": 0.6929133858267716
        },
        {
          "duration": 0.30769200000000296,
          "durationTicks": 256,
          "midi": 68,
          "name": "G#4",
          "ticks": 138240,
          "time": 166.15367999999998,
          "velocity": 0.6929133858267716
        },
        {
          "duration": 0.30769200000000296,
          "durationTicks": 256,
          "midi": 59,
          "name": "B3",
          "ticks": 138240,
          "time": 166.15367999999998,
          "velocity": 0.6929133858267716
        },
        {
          "duration": 0.15384599999998727,
          "durationTicks": 128,
          "midi": 59,
          "name": "B3",
          "ticks": 138496,
          "time": 166.46137199999998,
          "velocity": 0.6929133858267716
        },
        {
          "duration": 0.15384599999998727,
          "durationTicks": 128,
          "midi": 66,
          "name": "F#4",
          "ticks": 138496,
          "time": 166.46137199999998,
          "velocity": 0.6929133858267716
        },
        {
          "duration": 0.30769200000000296,
          "durationTicks": 256,
          "midi": 68,
          "name": "G#4",
          "ticks": 138624,
          "time": 166.61521799999997,
          "velocity": 0.6929133858267716
        },
        {
          "duration": 0.30769200000000296,
          "durationTicks": 256,
          "midi": 59,
          "name": "B3",
          "ticks": 138624,
          "time": 166.61521799999997,
          "velocity": 0.6929133858267716
        },
        {
          "duration": 0.46153799999999023,
          "durationTicks": 384,
          "midi": 71,
          "name": "B4",
          "ticks": 138864,
          "time": 166.90367924999998,
          "velocity": 0.6929133858267716
        },
        {
          "duration": 0.46153799999999023,
          "durationTicks": 384,
          "midi": 66,
          "name": "F#4",
          "ticks": 138864,
          "time": 166.90367924999998,
          "velocity": 0.6929133858267716
        },
        {
          "duration": 0.46153799999999023,
          "durationTicks": 384,
          "midi": 59,
          "name": "B3",
          "ticks": 138864,
          "time": 166.90367924999998,
          "velocity": 0.6929133858267716
        },
        {
          "duration": 0.1538460000000157,
          "durationTicks": 128,
          "midi": 66,
          "name": "F#4",
          "ticks": 139264,
          "time": 167.38444799999996,
          "velocity": 0.6929133858267716
        },
        {
          "duration": 0.1538460000000157,
          "durationTicks": 128,
          "midi": 59,
          "name": "B3",
          "ticks": 139264,
          "time": 167.38444799999996,
          "velocity": 0.6929133858267716
        },
        {
          "duration": 0.30769200000000296,
          "durationTicks": 256,
          "midi": 68,
          "name": "G#4",
          "ticks": 139392,
          "time": 167.53829399999998,
          "velocity": 0.6929133858267716
        },
        {
          "duration": 0.30769200000000296,
          "durationTicks": 256,
          "midi": 59,
          "name": "B3",
          "ticks": 139392,
          "time": 167.53829399999998,
          "velocity": 0.6929133858267716
        },
        {
          "duration": 0.15384599999998727,
          "durationTicks": 128,
          "midi": 66,
          "name": "F#4",
          "ticks": 139648,
          "time": 167.84598599999998,
          "velocity": 0.6929133858267716
        },
        {
          "duration": 0.15384599999998727,
          "durationTicks": 128,
          "midi": 59,
          "name": "B3",
          "ticks": 139648,
          "time": 167.84598599999998,
          "velocity": 0.6929133858267716
        },
        {
          "duration": 0.46153800000001866,
          "durationTicks": 384,
          "midi": 66,
          "name": "F#4",
          "ticks": 139776,
          "time": 167.99983199999997,
          "velocity": 0.6929133858267716
        },
        {
          "duration": 0.46153800000001866,
          "durationTicks": 384,
          "midi": 59,
          "name": "B3",
          "ticks": 139776,
          "time": 167.99983199999997,
          "velocity": 0.6929133858267716
        },
        {
          "duration": 0.46153799999999023,
          "durationTicks": 384,
          "midi": 68,
          "name": "G#4",
          "ticks": 140160,
          "time": 168.46137,
          "velocity": 0.6929133858267716
        },
        {
          "duration": 0.46153799999999023,
          "durationTicks": 384,
          "midi": 59,
          "name": "B3",
          "ticks": 140160,
          "time": 168.46137,
          "velocity": 0.6929133858267716
        },
        {
          "duration": 0.30769200000000296,
          "durationTicks": 256,
          "midi": 59,
          "name": "B3",
          "ticks": 140544,
          "time": 168.92290799999998,
          "velocity": 0.6929133858267716
        },
        {
          "duration": 0.30769200000000296,
          "durationTicks": 256,
          "midi": 68,
          "name": "G#4",
          "ticks": 140544,
          "time": 168.92290799999998,
          "velocity": 0.6929133858267716
        },
        {
          "duration": 0.30769200000000296,
          "durationTicks": 256,
          "midi": 66,
          "name": "F#4",
          "ticks": 140800,
          "time": 169.23059999999998,
          "velocity": 0.6929133858267716
        },
        {
          "duration": 0.30769200000000296,
          "durationTicks": 256,
          "midi": 59,
          "name": "B3",
          "ticks": 140800,
          "time": 169.23059999999998,
          "velocity": 0.6929133858267716
        },
        {
          "duration": 0.1538460000000157,
          "durationTicks": 128,
          "midi": 66,
          "name": "F#4",
          "ticks": 141184,
          "time": 169.69213799999997,
          "velocity": 0.6929133858267716
        },
        {
          "duration": 0.1538460000000157,
          "durationTicks": 128,
          "midi": 59,
          "name": "B3",
          "ticks": 141184,
          "time": 169.69213799999997,
          "velocity": 0.6929133858267716
        },
        {
          "duration": 0.30769199999997454,
          "durationTicks": 256,
          "midi": 68,
          "name": "G#4",
          "ticks": 141312,
          "time": 169.845984,
          "velocity": 0.6929133858267716
        },
        {
          "duration": 0.30769199999997454,
          "durationTicks": 256,
          "midi": 59,
          "name": "B3",
          "ticks": 141312,
          "time": 169.845984,
          "velocity": 0.6929133858267716
        },
        {
          "duration": 0.1538460000000157,
          "durationTicks": 128,
          "midi": 59,
          "name": "B3",
          "ticks": 141568,
          "time": 170.15367599999996,
          "velocity": 0.6929133858267716
        },
        {
          "duration": 0.1538460000000157,
          "durationTicks": 128,
          "midi": 66,
          "name": "F#4",
          "ticks": 141568,
          "time": 170.15367599999996,
          "velocity": 0.6929133858267716
        },
        {
          "duration": 0.30769200000000296,
          "durationTicks": 256,
          "midi": 68,
          "name": "G#4",
          "ticks": 141696,
          "time": 170.30752199999998,
          "velocity": 0.6929133858267716
        },
        {
          "duration": 0.30769200000000296,
          "durationTicks": 256,
          "midi": 59,
          "name": "B3",
          "ticks": 141696,
          "time": 170.30752199999998,
          "velocity": 0.6929133858267716
        },
        {
          "duration": 0.46153799999999023,
          "durationTicks": 384,
          "midi": 71,
          "name": "B4",
          "ticks": 141936,
          "time": 170.59598325,
          "velocity": 0.6929133858267716
        },
        {
          "duration": 0.46153799999999023,
          "durationTicks": 384,
          "midi": 66,
          "name": "F#4",
          "ticks": 141936,
          "time": 170.59598325,
          "velocity": 0.6929133858267716
        },
        {
          "duration": 0.46153799999999023,
          "durationTicks": 384,
          "midi": 59,
          "name": "B3",
          "ticks": 141936,
          "time": 170.59598325,
          "velocity": 0.6929133858267716
        },
        {
          "duration": 0.1538460000000157,
          "durationTicks": 128,
          "midi": 66,
          "name": "F#4",
          "ticks": 142336,
          "time": 171.07675199999997,
          "velocity": 0.6929133858267716
        },
        {
          "duration": 0.1538460000000157,
          "durationTicks": 128,
          "midi": 59,
          "name": "B3",
          "ticks": 142336,
          "time": 171.07675199999997,
          "velocity": 0.6929133858267716
        },
        {
          "duration": 0.30769199999997454,
          "durationTicks": 256,
          "midi": 68,
          "name": "G#4",
          "ticks": 142464,
          "time": 171.230598,
          "velocity": 0.6929133858267716
        },
        {
          "duration": 0.30769199999997454,
          "durationTicks": 256,
          "midi": 59,
          "name": "B3",
          "ticks": 142464,
          "time": 171.230598,
          "velocity": 0.6929133858267716
        },
        {
          "duration": 0.1538460000000157,
          "durationTicks": 128,
          "midi": 66,
          "name": "F#4",
          "ticks": 142720,
          "time": 171.53828999999996,
          "velocity": 0.6929133858267716
        },
        {
          "duration": 0.1538460000000157,
          "durationTicks": 128,
          "midi": 59,
          "name": "B3",
          "ticks": 142720,
          "time": 171.53828999999996,
          "velocity": 0.6929133858267716
        },
        {
          "duration": 0.46153799999999023,
          "durationTicks": 384,
          "midi": 66,
          "name": "F#4",
          "ticks": 142848,
          "time": 171.69213599999998,
          "velocity": 0.6929133858267716
        },
        {
          "duration": 0.46153799999999023,
          "durationTicks": 384,
          "midi": 59,
          "name": "B3",
          "ticks": 142848,
          "time": 171.69213599999998,
          "velocity": 0.6929133858267716
        },
        {
          "duration": 0.46153800000001866,
          "durationTicks": 384,
          "midi": 68,
          "name": "G#4",
          "ticks": 143232,
          "time": 172.15367399999997,
          "velocity": 0.6929133858267716
        },
        {
          "duration": 0.46153800000001866,
          "durationTicks": 384,
          "midi": 59,
          "name": "B3",
          "ticks": 143232,
          "time": 172.15367399999997,
          "velocity": 0.6929133858267716
        },
        {
          "duration": 0.30769200000000296,
          "durationTicks": 256,
          "midi": 59,
          "name": "B3",
          "ticks": 143616,
          "time": 172.61521199999999,
          "velocity": 0.6929133858267716
        },
        {
          "duration": 0.30769200000000296,
          "durationTicks": 256,
          "midi": 68,
          "name": "G#4",
          "ticks": 143616,
          "time": 172.61521199999999,
          "velocity": 0.6929133858267716
        },
        {
          "duration": 0.30769200000000296,
          "durationTicks": 256,
          "midi": 66,
          "name": "F#4",
          "ticks": 143872,
          "time": 172.922904,
          "velocity": 0.6929133858267716
        },
        {
          "duration": 0.30769200000000296,
          "durationTicks": 256,
          "midi": 59,
          "name": "B3",
          "ticks": 143872,
          "time": 172.922904,
          "velocity": 0.6929133858267716
        },
        {
          "duration": 0.15384599999998727,
          "durationTicks": 128,
          "midi": 66,
          "name": "F#4",
          "ticks": 144256,
          "time": 173.38444199999998,
          "velocity": 0.6929133858267716
        },
        {
          "duration": 0.15384599999998727,
          "durationTicks": 128,
          "midi": 59,
          "name": "B3",
          "ticks": 144256,
          "time": 173.38444199999998,
          "velocity": 0.6929133858267716
        },
        {
          "duration": 0.30769200000000296,
          "durationTicks": 256,
          "midi": 68,
          "name": "G#4",
          "ticks": 144384,
          "time": 173.53828799999997,
          "velocity": 0.6929133858267716
        },
        {
          "duration": 0.30769200000000296,
          "durationTicks": 256,
          "midi": 59,
          "name": "B3",
          "ticks": 144384,
          "time": 173.53828799999997,
          "velocity": 0.6929133858267716
        },
        {
          "duration": 0.1538460000000157,
          "durationTicks": 128,
          "midi": 59,
          "name": "B3",
          "ticks": 144640,
          "time": 173.84597999999997,
          "velocity": 0.6929133858267716
        },
        {
          "duration": 0.1538460000000157,
          "durationTicks": 128,
          "midi": 66,
          "name": "F#4",
          "ticks": 144640,
          "time": 173.84597999999997,
          "velocity": 0.6929133858267716
        },
        {
          "duration": 0.30769200000000296,
          "durationTicks": 256,
          "midi": 68,
          "name": "G#4",
          "ticks": 144768,
          "time": 173.99982599999998,
          "velocity": 0.6929133858267716
        },
        {
          "duration": 0.30769200000000296,
          "durationTicks": 256,
          "midi": 59,
          "name": "B3",
          "ticks": 144768,
          "time": 173.99982599999998,
          "velocity": 0.6929133858267716
        },
        {
          "duration": 0.46153800000001866,
          "durationTicks": 384,
          "midi": 71,
          "name": "B4",
          "ticks": 145008,
          "time": 174.28828724999997,
          "velocity": 0.6929133858267716
        },
        {
          "duration": 0.46153800000001866,
          "durationTicks": 384,
          "midi": 66,
          "name": "F#4",
          "ticks": 145008,
          "time": 174.28828724999997,
          "velocity": 0.6929133858267716
        },
        {
          "duration": 0.46153800000001866,
          "durationTicks": 384,
          "midi": 59,
          "name": "B3",
          "ticks": 145008,
          "time": 174.28828724999997,
          "velocity": 0.6929133858267716
        },
        {
          "duration": 0.15384599999998727,
          "durationTicks": 128,
          "midi": 66,
          "name": "F#4",
          "ticks": 145408,
          "time": 174.76905599999998,
          "velocity": 0.6929133858267716
        },
        {
          "duration": 0.15384599999998727,
          "durationTicks": 128,
          "midi": 59,
          "name": "B3",
          "ticks": 145408,
          "time": 174.76905599999998,
          "velocity": 0.6929133858267716
        },
        {
          "duration": 0.30769200000000296,
          "durationTicks": 256,
          "midi": 68,
          "name": "G#4",
          "ticks": 145536,
          "time": 174.92290199999997,
          "velocity": 0.6929133858267716
        },
        {
          "duration": 0.30769200000000296,
          "durationTicks": 256,
          "midi": 59,
          "name": "B3",
          "ticks": 145536,
          "time": 174.92290199999997,
          "velocity": 0.6929133858267716
        },
        {
          "duration": 0.1538460000000157,
          "durationTicks": 128,
          "midi": 66,
          "name": "F#4",
          "ticks": 145792,
          "time": 175.23059399999997,
          "velocity": 0.6929133858267716
        },
        {
          "duration": 0.1538460000000157,
          "durationTicks": 128,
          "midi": 59,
          "name": "B3",
          "ticks": 145792,
          "time": 175.23059399999997,
          "velocity": 0.6929133858267716
        },
        {
          "duration": 0.46153799999999023,
          "durationTicks": 384,
          "midi": 66,
          "name": "F#4",
          "ticks": 145920,
          "time": 175.38443999999998,
          "velocity": 0.6929133858267716
        },
        {
          "duration": 0.46153799999999023,
          "durationTicks": 384,
          "midi": 59,
          "name": "B3",
          "ticks": 145920,
          "time": 175.38443999999998,
          "velocity": 0.6929133858267716
        },
        {
          "duration": 0.46153799999999023,
          "durationTicks": 384,
          "midi": 68,
          "name": "G#4",
          "ticks": 146304,
          "time": 175.84597799999997,
          "velocity": 0.6929133858267716
        },
        {
          "duration": 0.46153799999999023,
          "durationTicks": 384,
          "midi": 59,
          "name": "B3",
          "ticks": 146304,
          "time": 175.84597799999997,
          "velocity": 0.6929133858267716
        },
        {
          "duration": 0.30769200000000296,
          "durationTicks": 256,
          "midi": 59,
          "name": "B3",
          "ticks": 146688,
          "time": 176.30751599999996,
          "velocity": 0.6929133858267716
        },
        {
          "duration": 0.30769200000000296,
          "durationTicks": 256,
          "midi": 68,
          "name": "G#4",
          "ticks": 146688,
          "time": 176.30751599999996,
          "velocity": 0.6929133858267716
        },
        {
          "duration": 0.30769200000000296,
          "durationTicks": 256,
          "midi": 66,
          "name": "F#4",
          "ticks": 146944,
          "time": 176.61520799999997,
          "velocity": 0.6929133858267716
        },
        {
          "duration": 0.30769200000000296,
          "durationTicks": 256,
          "midi": 59,
          "name": "B3",
          "ticks": 146944,
          "time": 176.61520799999997,
          "velocity": 0.6929133858267716
        },
        {
          "duration": 0.15384599999998727,
          "durationTicks": 128,
          "midi": 66,
          "name": "F#4",
          "ticks": 147328,
          "time": 177.07674599999999,
          "velocity": 0.6929133858267716
        },
        {
          "duration": 0.15384599999998727,
          "durationTicks": 128,
          "midi": 59,
          "name": "B3",
          "ticks": 147328,
          "time": 177.07674599999999,
          "velocity": 0.6929133858267716
        },
        {
          "duration": 0.30769200000000296,
          "durationTicks": 256,
          "midi": 68,
          "name": "G#4",
          "ticks": 147456,
          "time": 177.23059199999997,
          "velocity": 0.6929133858267716
        },
        {
          "duration": 0.30769200000000296,
          "durationTicks": 256,
          "midi": 59,
          "name": "B3",
          "ticks": 147456,
          "time": 177.23059199999997,
          "velocity": 0.6929133858267716
        },
        {
          "duration": 0.15384599999998727,
          "durationTicks": 128,
          "midi": 59,
          "name": "B3",
          "ticks": 147712,
          "time": 177.53828399999998,
          "velocity": 0.6929133858267716
        },
        {
          "duration": 0.15384599999998727,
          "durationTicks": 128,
          "midi": 66,
          "name": "F#4",
          "ticks": 147712,
          "time": 177.53828399999998,
          "velocity": 0.6929133858267716
        },
        {
          "duration": 0.30769200000000296,
          "durationTicks": 256,
          "midi": 68,
          "name": "G#4",
          "ticks": 147840,
          "time": 177.69212999999996,
          "velocity": 0.6929133858267716
        },
        {
          "duration": 0.30769200000000296,
          "durationTicks": 256,
          "midi": 59,
          "name": "B3",
          "ticks": 147840,
          "time": 177.69212999999996,
          "velocity": 0.6929133858267716
        },
        {
          "duration": 0.46153799999999023,
          "durationTicks": 384,
          "midi": 71,
          "name": "B4",
          "ticks": 148080,
          "time": 177.98059124999997,
          "velocity": 0.6929133858267716
        },
        {
          "duration": 0.46153799999999023,
          "durationTicks": 384,
          "midi": 66,
          "name": "F#4",
          "ticks": 148080,
          "time": 177.98059124999997,
          "velocity": 0.6929133858267716
        },
        {
          "duration": 0.46153799999999023,
          "durationTicks": 384,
          "midi": 59,
          "name": "B3",
          "ticks": 148080,
          "time": 177.98059124999997,
          "velocity": 0.6929133858267716
        },
        {
          "duration": 0.15384599999998727,
          "durationTicks": 128,
          "midi": 66,
          "name": "F#4",
          "ticks": 148480,
          "time": 178.46135999999998,
          "velocity": 0.6929133858267716
        },
        {
          "duration": 0.15384599999998727,
          "durationTicks": 128,
          "midi": 59,
          "name": "B3",
          "ticks": 148480,
          "time": 178.46135999999998,
          "velocity": 0.6929133858267716
        },
        {
          "duration": 0.30769200000000296,
          "durationTicks": 256,
          "midi": 68,
          "name": "G#4",
          "ticks": 148608,
          "time": 178.61520599999997,
          "velocity": 0.6929133858267716
        },
        {
          "duration": 0.30769200000000296,
          "durationTicks": 256,
          "midi": 59,
          "name": "B3",
          "ticks": 148608,
          "time": 178.61520599999997,
          "velocity": 0.6929133858267716
        },
        {
          "duration": 0.15384599999998727,
          "durationTicks": 128,
          "midi": 66,
          "name": "F#4",
          "ticks": 148864,
          "time": 178.92289799999998,
          "velocity": 0.6929133858267716
        },
        {
          "duration": 0.15384599999998727,
          "durationTicks": 128,
          "midi": 59,
          "name": "B3",
          "ticks": 148864,
          "time": 178.92289799999998,
          "velocity": 0.6929133858267716
        },
        {
          "duration": 0.46153800000001866,
          "durationTicks": 384,
          "midi": 64,
          "name": "E4",
          "ticks": 148992,
          "time": 179.07674399999996,
          "velocity": 0.6929133858267716
        },
        {
          "duration": 0.46153800000001866,
          "durationTicks": 384,
          "midi": 57,
          "name": "A3",
          "ticks": 148992,
          "time": 179.07674399999996,
          "velocity": 0.6929133858267716
        },
        {
          "duration": 0.46153799999999023,
          "durationTicks": 384,
          "midi": 66,
          "name": "F#4",
          "ticks": 149376,
          "time": 179.53828199999998,
          "velocity": 0.6929133858267716
        },
        {
          "duration": 0.46153799999999023,
          "durationTicks": 384,
          "midi": 57,
          "name": "A3",
          "ticks": 149376,
          "time": 179.53828199999998,
          "velocity": 0.6929133858267716
        },
        {
          "duration": 0.30769200000000296,
          "durationTicks": 256,
          "midi": 57,
          "name": "A3",
          "ticks": 149760,
          "time": 179.99981999999997,
          "velocity": 0.6929133858267716
        },
        {
          "duration": 0.30769200000000296,
          "durationTicks": 256,
          "midi": 66,
          "name": "F#4",
          "ticks": 149760,
          "time": 179.99981999999997,
          "velocity": 0.6929133858267716
        },
        {
          "duration": 0.30769200000000296,
          "durationTicks": 256,
          "midi": 64,
          "name": "E4",
          "ticks": 150016,
          "time": 180.30751199999997,
          "velocity": 0.6929133858267716
        },
        {
          "duration": 0.30769200000000296,
          "durationTicks": 256,
          "midi": 57,
          "name": "A3",
          "ticks": 150016,
          "time": 180.30751199999997,
          "velocity": 0.6929133858267716
        },
        {
          "duration": 0.1538460000000157,
          "durationTicks": 128,
          "midi": 64,
          "name": "E4",
          "ticks": 150400,
          "time": 180.76904999999996,
          "velocity": 0.6929133858267716
        },
        {
          "duration": 0.1538460000000157,
          "durationTicks": 128,
          "midi": 57,
          "name": "A3",
          "ticks": 150400,
          "time": 180.76904999999996,
          "velocity": 0.6929133858267716
        },
        {
          "duration": 0.30769200000000296,
          "durationTicks": 256,
          "midi": 66,
          "name": "F#4",
          "ticks": 150528,
          "time": 180.92289599999998,
          "velocity": 0.6929133858267716
        },
        {
          "duration": 0.30769200000000296,
          "durationTicks": 256,
          "midi": 57,
          "name": "A3",
          "ticks": 150528,
          "time": 180.92289599999998,
          "velocity": 0.6929133858267716
        },
        {
          "duration": 0.30769200000000296,
          "durationTicks": 256,
          "midi": 73,
          "name": "C#5",
          "ticks": 150528,
          "time": 180.92289599999998,
          "velocity": 0.6929133858267716
        },
        {
          "duration": 0.15384599999998727,
          "durationTicks": 128,
          "midi": 57,
          "name": "A3",
          "ticks": 150784,
          "time": 181.23058799999998,
          "velocity": 0.6929133858267716
        },
        {
          "duration": 0.15384599999998727,
          "durationTicks": 128,
          "midi": 64,
          "name": "E4",
          "ticks": 150784,
          "time": 181.23058799999998,
          "velocity": 0.6929133858267716
        },
        {
          "duration": 0.15384599999998727,
          "durationTicks": 128,
          "midi": 76,
          "name": "E5",
          "ticks": 150784,
          "time": 181.23058799999998,
          "velocity": 0.6929133858267716
        },
        {
          "duration": 0.30769200000000296,
          "durationTicks": 256,
          "midi": 66,
          "name": "F#4",
          "ticks": 150912,
          "time": 181.38443399999997,
          "velocity": 0.6929133858267716
        },
        {
          "duration": 0.30769200000000296,
          "durationTicks": 256,
          "midi": 57,
          "name": "A3",
          "ticks": 150912,
          "time": 181.38443399999997,
          "velocity": 0.6929133858267716
        },
        {
          "duration": 0.30769200000000296,
          "durationTicks": 256,
          "midi": 79,
          "name": "G5",
          "ticks": 150912,
          "time": 181.38443399999997,
          "velocity": 0.6929133858267716
        },
        {
          "duration": 0.46153799999999023,
          "durationTicks": 384,
          "midi": 69,
          "name": "A4",
          "ticks": 151152,
          "time": 181.67289524999998,
          "velocity": 0.6929133858267716
        },
        {
          "duration": 0.46153799999999023,
          "durationTicks": 384,
          "midi": 64,
          "name": "E4",
          "ticks": 151152,
          "time": 181.67289524999998,
          "velocity": 0.6929133858267716
        },
        {
          "duration": 0.46153799999999023,
          "durationTicks": 384,
          "midi": 57,
          "name": "A3",
          "ticks": 151152,
          "time": 181.67289524999998,
          "velocity": 0.6929133858267716
        },
        {
          "duration": 0.6923069999999996,
          "durationTicks": 576,
          "midi": 78,
          "name": "F#5",
          "ticks": 151152,
          "time": 181.67289524999998,
          "velocity": 0.6929133858267716
        },
        {
          "duration": 0.15384599999998727,
          "durationTicks": 128,
          "midi": 64,
          "name": "E4",
          "ticks": 151552,
          "time": 182.153664,
          "velocity": 0.6929133858267716
        },
        {
          "duration": 0.15384599999998727,
          "durationTicks": 128,
          "midi": 57,
          "name": "A3",
          "ticks": 151552,
          "time": 182.153664,
          "velocity": 0.6929133858267716
        },
        {
          "duration": 0.30769200000000296,
          "durationTicks": 256,
          "midi": 66,
          "name": "F#4",
          "ticks": 151680,
          "time": 182.30750999999998,
          "velocity": 0.6929133858267716
        },
        {
          "duration": 0.30769200000000296,
          "durationTicks": 256,
          "midi": 57,
          "name": "A3",
          "ticks": 151680,
          "time": 182.30750999999998,
          "velocity": 0.6929133858267716
        },
        {
          "duration": 0.15384599999998727,
          "durationTicks": 128,
          "midi": 64,
          "name": "E4",
          "ticks": 151936,
          "time": 182.61520199999998,
          "velocity": 0.6929133858267716
        },
        {
          "duration": 0.15384599999998727,
          "durationTicks": 128,
          "midi": 57,
          "name": "A3",
          "ticks": 151936,
          "time": 182.61520199999998,
          "velocity": 0.6929133858267716
        },
        {
          "duration": 0.46153800000001866,
          "durationTicks": 384,
          "midi": 64,
          "name": "E4",
          "ticks": 152064,
          "time": 182.76904799999997,
          "velocity": 0.6929133858267716
        },
        {
          "duration": 0.46153800000001866,
          "durationTicks": 384,
          "midi": 57,
          "name": "A3",
          "ticks": 152064,
          "time": 182.76904799999997,
          "velocity": 0.6929133858267716
        },
        {
          "duration": 0.46153799999999023,
          "durationTicks": 384,
          "midi": 66,
          "name": "F#4",
          "ticks": 152448,
          "time": 183.230586,
          "velocity": 0.6929133858267716
        },
        {
          "duration": 0.46153799999999023,
          "durationTicks": 384,
          "midi": 57,
          "name": "A3",
          "ticks": 152448,
          "time": 183.230586,
          "velocity": 0.6929133858267716
        },
        {
          "duration": 0.30769200000000296,
          "durationTicks": 256,
          "midi": 57,
          "name": "A3",
          "ticks": 152832,
          "time": 183.69212399999998,
          "velocity": 0.6929133858267716
        },
        {
          "duration": 0.30769200000000296,
          "durationTicks": 256,
          "midi": 66,
          "name": "F#4",
          "ticks": 152832,
          "time": 183.69212399999998,
          "velocity": 0.6929133858267716
        },
        {
          "duration": 0.30769200000000296,
          "durationTicks": 256,
          "midi": 64,
          "name": "E4",
          "ticks": 153088,
          "time": 183.99981599999998,
          "velocity": 0.6929133858267716
        },
        {
          "duration": 0.30769200000000296,
          "durationTicks": 256,
          "midi": 57,
          "name": "A3",
          "ticks": 153088,
          "time": 183.99981599999998,
          "velocity": 0.6929133858267716
        },
        {
          "duration": 0.15384599999998727,
          "durationTicks": 128,
          "midi": 64,
          "name": "E4",
          "ticks": 153472,
          "time": 184.46135399999997,
          "velocity": 0.6929133858267716
        },
        {
          "duration": 0.15384599999998727,
          "durationTicks": 128,
          "midi": 57,
          "name": "A3",
          "ticks": 153472,
          "time": 184.46135399999997,
          "velocity": 0.6929133858267716
        },
        {
          "duration": 0.3076920000000314,
          "durationTicks": 256,
          "midi": 66,
          "name": "F#4",
          "ticks": 153600,
          "time": 184.61519999999996,
          "velocity": 0.6929133858267716
        },
        {
          "duration": 0.3076920000000314,
          "durationTicks": 256,
          "midi": 57,
          "name": "A3",
          "ticks": 153600,
          "time": 184.61519999999996,
          "velocity": 0.6929133858267716
        },
        {
          "duration": 0.3076920000000314,
          "durationTicks": 256,
          "midi": 73,
          "name": "C#5",
          "ticks": 153600,
          "time": 184.61519999999996,
          "velocity": 0.6929133858267716
        },
        {
          "duration": 0.15384599999998727,
          "durationTicks": 128,
          "midi": 57,
          "name": "A3",
          "ticks": 153856,
          "time": 184.922892,
          "velocity": 0.6929133858267716
        },
        {
          "duration": 0.15384599999998727,
          "durationTicks": 128,
          "midi": 64,
          "name": "E4",
          "ticks": 153856,
          "time": 184.922892,
          "velocity": 0.6929133858267716
        },
        {
          "duration": 0.15384599999998727,
          "durationTicks": 128,
          "midi": 76,
          "name": "E5",
          "ticks": 153856,
          "time": 184.922892,
          "velocity": 0.6929133858267716
        },
        {
          "duration": 0.30769200000000296,
          "durationTicks": 256,
          "midi": 66,
          "name": "F#4",
          "ticks": 153984,
          "time": 185.07673799999998,
          "velocity": 0.6929133858267716
        },
        {
          "duration": 0.30769200000000296,
          "durationTicks": 256,
          "midi": 57,
          "name": "A3",
          "ticks": 153984,
          "time": 185.07673799999998,
          "velocity": 0.6929133858267716
        },
        {
          "duration": 0.30769200000000296,
          "durationTicks": 256,
          "midi": 79,
          "name": "G5",
          "ticks": 153984,
          "time": 185.07673799999998,
          "velocity": 0.6929133858267716
        },
        {
          "duration": 0.46153799999999023,
          "durationTicks": 384,
          "midi": 69,
          "name": "A4",
          "ticks": 154224,
          "time": 185.36519925,
          "velocity": 0.6929133858267716
        },
        {
          "duration": 0.46153799999999023,
          "durationTicks": 384,
          "midi": 64,
          "name": "E4",
          "ticks": 154224,
          "time": 185.36519925,
          "velocity": 0.6929133858267716
        },
        {
          "duration": 0.46153799999999023,
          "durationTicks": 384,
          "midi": 57,
          "name": "A3",
          "ticks": 154224,
          "time": 185.36519925,
          "velocity": 0.6929133858267716
        },
        {
          "duration": 0.6923069999999711,
          "durationTicks": 576,
          "midi": 78,
          "name": "F#5",
          "ticks": 154224,
          "time": 185.36519925,
          "velocity": 0.6929133858267716
        },
        {
          "duration": 0.1538460000000157,
          "durationTicks": 128,
          "midi": 64,
          "name": "E4",
          "ticks": 154624,
          "time": 185.84596799999997,
          "velocity": 0.6929133858267716
        },
        {
          "duration": 0.1538460000000157,
          "durationTicks": 128,
          "midi": 57,
          "name": "A3",
          "ticks": 154624,
          "time": 185.84596799999997,
          "velocity": 0.6929133858267716
        },
        {
          "duration": 0.30769200000000296,
          "durationTicks": 256,
          "midi": 66,
          "name": "F#4",
          "ticks": 154752,
          "time": 185.999814,
          "velocity": 0.6929133858267716
        },
        {
          "duration": 0.30769200000000296,
          "durationTicks": 256,
          "midi": 57,
          "name": "A3",
          "ticks": 154752,
          "time": 185.999814,
          "velocity": 0.6929133858267716
        },
        {
          "duration": 0.15384599999998727,
          "durationTicks": 128,
          "midi": 64,
          "name": "E4",
          "ticks": 155008,
          "time": 186.307506,
          "velocity": 0.6929133858267716
        },
        {
          "duration": 0.15384599999998727,
          "durationTicks": 128,
          "midi": 57,
          "name": "A3",
          "ticks": 155008,
          "time": 186.307506,
          "velocity": 0.6929133858267716
        },
        {
          "duration": 0.23076900000000933,
          "durationTicks": 192,
          "midi": 59,
          "name": "B3",
          "ticks": 155136,
          "time": 186.46135199999998,
          "velocity": 0.6929133858267716
        },
        {
          "duration": 0.23076900000000933,
          "durationTicks": 192,
          "midi": 52,
          "name": "E3",
          "ticks": 155136,
          "time": 186.46135199999998,
          "velocity": 0.6929133858267716
        },
        {
          "duration": 0.23076900000000933,
          "durationTicks": 192,
          "midi": 59,
          "name": "B3",
          "ticks": 155520,
          "time": 186.92288999999997,
          "velocity": 0.6929133858267716
        },
        {
          "duration": 0.23076900000000933,
          "durationTicks": 192,
          "midi": 52,
          "name": "E3",
          "ticks": 155520,
          "time": 186.92288999999997,
          "velocity": 0.6929133858267716
        },
        {
          "duration": 0.34615349999998557,
          "durationTicks": 288,
          "midi": 59,
          "name": "B3",
          "ticks": 155904,
          "time": 187.38442799999999,
          "velocity": 0.6929133858267716
        },
        {
          "duration": 0.34615349999998557,
          "durationTicks": 288,
          "midi": 52,
          "name": "E3",
          "ticks": 155904,
          "time": 187.38442799999999,
          "velocity": 0.6929133858267716
        },
        {
          "duration": 0.11538450000000466,
          "durationTicks": 96,
          "midi": 67,
          "name": "G4",
          "ticks": 156192,
          "time": 187.73058149999997,
          "velocity": 0.6929133858267716
        },
        {
          "duration": 0.11538450000000466,
          "durationTicks": 96,
          "midi": 62,
          "name": "D4",
          "ticks": 156192,
          "time": 187.73058149999997,
          "velocity": 0.6929133858267716
        },
        {
          "duration": 0.346153500000014,
          "durationTicks": 288,
          "midi": 69,
          "name": "A4",
          "ticks": 156288,
          "time": 187.84596599999998,
          "velocity": 0.6929133858267716
        },
        {
          "duration": 0.346153500000014,
          "durationTicks": 288,
          "midi": 64,
          "name": "E4",
          "ticks": 156288,
          "time": 187.84596599999998,
          "velocity": 0.6929133858267716
        },
        {
          "duration": 0.11538449999997624,
          "durationTicks": 96,
          "midi": 67,
          "name": "G4",
          "ticks": 156576,
          "time": 188.1921195,
          "velocity": 0.6929133858267716
        },
        {
          "duration": 0.11538449999997624,
          "durationTicks": 96,
          "midi": 62,
          "name": "D4",
          "ticks": 156576,
          "time": 188.1921195,
          "velocity": 0.6929133858267716
        },
        {
          "duration": 0.23076900000000933,
          "durationTicks": 192,
          "midi": 59,
          "name": "B3",
          "ticks": 156672,
          "time": 188.30750399999997,
          "velocity": 0.6929133858267716
        },
        {
          "duration": 0.23076900000000933,
          "durationTicks": 192,
          "midi": 52,
          "name": "E3",
          "ticks": 156672,
          "time": 188.30750399999997,
          "velocity": 0.6929133858267716
        },
        {
          "duration": 0.2307689999999809,
          "durationTicks": 192,
          "midi": 59,
          "name": "B3",
          "ticks": 157056,
          "time": 188.76904199999998,
          "velocity": 0.6929133858267716
        },
        {
          "duration": 0.2307689999999809,
          "durationTicks": 192,
          "midi": 52,
          "name": "E3",
          "ticks": 157056,
          "time": 188.76904199999998,
          "velocity": 0.6929133858267716
        },
        {
          "duration": 0.346153500000014,
          "durationTicks": 288,
          "midi": 59,
          "name": "B3",
          "ticks": 157440,
          "time": 189.23057999999997,
          "velocity": 0.6929133858267716
        },
        {
          "duration": 0.346153500000014,
          "durationTicks": 288,
          "midi": 52,
          "name": "E3",
          "ticks": 157440,
          "time": 189.23057999999997,
          "velocity": 0.6929133858267716
        },
        {
          "duration": 0.11538449999997624,
          "durationTicks": 96,
          "midi": 67,
          "name": "G4",
          "ticks": 157728,
          "time": 189.5767335,
          "velocity": 0.6929133858267716
        },
        {
          "duration": 0.11538449999997624,
          "durationTicks": 96,
          "midi": 62,
          "name": "D4",
          "ticks": 157728,
          "time": 189.5767335,
          "velocity": 0.6929133858267716
        },
        {
          "duration": 0.346153500000014,
          "durationTicks": 288,
          "midi": 69,
          "name": "A4",
          "ticks": 157824,
          "time": 189.69211799999997,
          "velocity": 0.6929133858267716
        },
        {
          "duration": 0.346153500000014,
          "durationTicks": 288,
          "midi": 64,
          "name": "E4",
          "ticks": 157824,
          "time": 189.69211799999997,
          "velocity": 0.6929133858267716
        },
        {
          "duration": 0.11538450000000466,
          "durationTicks": 96,
          "midi": 67,
          "name": "G4",
          "ticks": 158112,
          "time": 190.03827149999998,
          "velocity": 0.6929133858267716
        },
        {
          "duration": 0.11538450000000466,
          "durationTicks": 96,
          "midi": 62,
          "name": "D4",
          "ticks": 158112,
          "time": 190.03827149999998,
          "velocity": 0.6929133858267716
        },
        {
          "duration": 0.2307689999999809,
          "durationTicks": 192,
          "midi": 59,
          "name": "B3",
          "ticks": 158208,
          "time": 190.15365599999998,
          "velocity": 0.6929133858267716
        },
        {
          "duration": 0.2307689999999809,
          "durationTicks": 192,
          "midi": 52,
          "name": "E3",
          "ticks": 158208,
          "time": 190.15365599999998,
          "velocity": 0.6929133858267716
        },
        {
          "duration": 0.23076900000000933,
          "durationTicks": 192,
          "midi": 59,
          "name": "B3",
          "ticks": 158592,
          "time": 190.61519399999997,
          "velocity": 0.6929133858267716
        },
        {
          "duration": 0.23076900000000933,
          "durationTicks": 192,
          "midi": 52,
          "name": "E3",
          "ticks": 158592,
          "time": 190.61519399999997,
          "velocity": 0.6929133858267716
        },
        {
          "duration": 0.34615349999998557,
          "durationTicks": 288,
          "midi": 59,
          "name": "B3",
          "ticks": 158976,
          "time": 191.076732,
          "velocity": 0.6929133858267716
        },
        {
          "duration": 0.34615349999998557,
          "durationTicks": 288,
          "midi": 52,
          "name": "E3",
          "ticks": 158976,
          "time": 191.076732,
          "velocity": 0.6929133858267716
        },
        {
          "duration": 0.11538450000000466,
          "durationTicks": 96,
          "midi": 67,
          "name": "G4",
          "ticks": 159264,
          "time": 191.42288549999998,
          "velocity": 0.6929133858267716
        },
        {
          "duration": 0.11538450000000466,
          "durationTicks": 96,
          "midi": 62,
          "name": "D4",
          "ticks": 159264,
          "time": 191.42288549999998,
          "velocity": 0.6929133858267716
        },
        {
          "duration": 0.34615349999998557,
          "durationTicks": 288,
          "midi": 69,
          "name": "A4",
          "ticks": 159360,
          "time": 191.53826999999998,
          "velocity": 0.6929133858267716
        },
        {
          "duration": 0.34615349999998557,
          "durationTicks": 288,
          "midi": 64,
          "name": "E4",
          "ticks": 159360,
          "time": 191.53826999999998,
          "velocity": 0.6929133858267716
        },
        {
          "duration": 0.11538450000000466,
          "durationTicks": 96,
          "midi": 67,
          "name": "G4",
          "ticks": 159648,
          "time": 191.88442349999997,
          "velocity": 0.6929133858267716
        },
        {
          "duration": 0.11538450000000466,
          "durationTicks": 96,
          "midi": 62,
          "name": "D4",
          "ticks": 159648,
          "time": 191.88442349999997,
          "velocity": 0.6929133858267716
        },
        {
          "duration": 0.23076900000000933,
          "durationTicks": 192,
          "midi": 59,
          "name": "B3",
          "ticks": 159744,
          "time": 191.99980799999997,
          "velocity": 0.6929133858267716
        },
        {
          "duration": 0.23076900000000933,
          "durationTicks": 192,
          "midi": 52,
          "name": "E3",
          "ticks": 159744,
          "time": 191.99980799999997,
          "velocity": 0.6929133858267716
        },
        {
          "duration": 0.2307689999999809,
          "durationTicks": 192,
          "midi": 59,
          "name": "B3",
          "ticks": 160128,
          "time": 192.461346,
          "velocity": 0.6929133858267716
        },
        {
          "duration": 0.2307689999999809,
          "durationTicks": 192,
          "midi": 52,
          "name": "E3",
          "ticks": 160128,
          "time": 192.461346,
          "velocity": 0.6929133858267716
        },
        {
          "duration": 0.34615349999998557,
          "durationTicks": 288,
          "midi": 59,
          "name": "B3",
          "ticks": 160512,
          "time": 192.92288399999998,
          "velocity": 0.6929133858267716
        },
        {
          "duration": 0.34615349999998557,
          "durationTicks": 288,
          "midi": 52,
          "name": "E3",
          "ticks": 160512,
          "time": 192.92288399999998,
          "velocity": 0.6929133858267716
        },
        {
          "duration": 0.11538450000000466,
          "durationTicks": 96,
          "midi": 67,
          "name": "G4",
          "ticks": 160800,
          "time": 193.26903749999997,
          "velocity": 0.6929133858267716
        },
        {
          "duration": 0.11538450000000466,
          "durationTicks": 96,
          "midi": 62,
          "name": "D4",
          "ticks": 160800,
          "time": 193.26903749999997,
          "velocity": 0.6929133858267716
        },
        {
          "duration": 0.346153500000014,
          "durationTicks": 288,
          "midi": 69,
          "name": "A4",
          "ticks": 160896,
          "time": 193.38442199999997,
          "velocity": 0.6929133858267716
        },
        {
          "duration": 0.346153500000014,
          "durationTicks": 288,
          "midi": 64,
          "name": "E4",
          "ticks": 160896,
          "time": 193.38442199999997,
          "velocity": 0.6929133858267716
        },
        {
          "duration": 0.11538450000000466,
          "durationTicks": 96,
          "midi": 67,
          "name": "G4",
          "ticks": 161184,
          "time": 193.7305755,
          "velocity": 0.6929133858267716
        },
        {
          "duration": 0.11538450000000466,
          "durationTicks": 96,
          "midi": 62,
          "name": "D4",
          "ticks": 161184,
          "time": 193.7305755,
          "velocity": 0.6929133858267716
        },
        {
          "duration": 0.2307689999999809,
          "durationTicks": 192,
          "midi": 59,
          "name": "B3",
          "ticks": 161280,
          "time": 193.84596,
          "velocity": 0.6929133858267716
        },
        {
          "duration": 0.2307689999999809,
          "durationTicks": 192,
          "midi": 52,
          "name": "E3",
          "ticks": 161280,
          "time": 193.84596,
          "velocity": 0.6929133858267716
        },
        {
          "duration": 0.2307689999999809,
          "durationTicks": 192,
          "midi": 59,
          "name": "B3",
          "ticks": 161664,
          "time": 194.30749799999998,
          "velocity": 0.6929133858267716
        },
        {
          "duration": 0.2307689999999809,
          "durationTicks": 192,
          "midi": 52,
          "name": "E3",
          "ticks": 161664,
          "time": 194.30749799999998,
          "velocity": 0.6929133858267716
        },
        {
          "duration": 0.346153500000014,
          "durationTicks": 288,
          "midi": 59,
          "name": "B3",
          "ticks": 162048,
          "time": 194.76903599999997,
          "velocity": 0.6929133858267716
        },
        {
          "duration": 0.346153500000014,
          "durationTicks": 288,
          "midi": 52,
          "name": "E3",
          "ticks": 162048,
          "time": 194.76903599999997,
          "velocity": 0.6929133858267716
        },
        {
          "duration": 0.11538450000000466,
          "durationTicks": 96,
          "midi": 67,
          "name": "G4",
          "ticks": 162336,
          "time": 195.11518949999999,
          "velocity": 0.6929133858267716
        },
        {
          "duration": 0.11538450000000466,
          "durationTicks": 96,
          "midi": 62,
          "name": "D4",
          "ticks": 162336,
          "time": 195.11518949999999,
          "velocity": 0.6929133858267716
        },
        {
          "duration": 0.34615349999998557,
          "durationTicks": 288,
          "midi": 69,
          "name": "A4",
          "ticks": 162432,
          "time": 195.230574,
          "velocity": 0.6929133858267716
        },
        {
          "duration": 0.34615349999998557,
          "durationTicks": 288,
          "midi": 64,
          "name": "E4",
          "ticks": 162432,
          "time": 195.230574,
          "velocity": 0.6929133858267716
        },
        {
          "duration": 0.11538450000000466,
          "durationTicks": 96,
          "midi": 67,
          "name": "G4",
          "ticks": 162720,
          "time": 195.57672749999998,
          "velocity": 0.6929133858267716
        },
        {
          "duration": 0.11538450000000466,
          "durationTicks": 96,
          "midi": 62,
          "name": "D4",
          "ticks": 162720,
          "time": 195.57672749999998,
          "velocity": 0.6929133858267716
        },
        {
          "duration": 0.23076900000000933,
          "durationTicks": 192,
          "midi": 59,
          "name": "B3",
          "ticks": 162816,
          "time": 195.69211199999998,
          "velocity": 0.6929133858267716
        },
        {
          "duration": 0.23076900000000933,
          "durationTicks": 192,
          "midi": 52,
          "name": "E3",
          "ticks": 162816,
          "time": 195.69211199999998,
          "velocity": 0.6929133858267716
        },
        {
          "duration": 0.23076900000000933,
          "durationTicks": 192,
          "midi": 59,
          "name": "B3",
          "ticks": 163200,
          "time": 196.15364999999997,
          "velocity": 0.6929133858267716
        },
        {
          "duration": 0.23076900000000933,
          "durationTicks": 192,
          "midi": 52,
          "name": "E3",
          "ticks": 163200,
          "time": 196.15364999999997,
          "velocity": 0.6929133858267716
        },
        {
          "duration": 0.34615349999998557,
          "durationTicks": 288,
          "midi": 59,
          "name": "B3",
          "ticks": 163584,
          "time": 196.615188,
          "velocity": 0.6929133858267716
        },
        {
          "duration": 0.34615349999998557,
          "durationTicks": 288,
          "midi": 52,
          "name": "E3",
          "ticks": 163584,
          "time": 196.615188,
          "velocity": 0.6929133858267716
        },
        {
          "duration": 0.11538450000000466,
          "durationTicks": 96,
          "midi": 67,
          "name": "G4",
          "ticks": 163872,
          "time": 196.96134149999997,
          "velocity": 0.6929133858267716
        },
        {
          "duration": 0.11538450000000466,
          "durationTicks": 96,
          "midi": 62,
          "name": "D4",
          "ticks": 163872,
          "time": 196.96134149999997,
          "velocity": 0.6929133858267716
        },
        {
          "duration": 0.346153500000014,
          "durationTicks": 288,
          "midi": 69,
          "name": "A4",
          "ticks": 163968,
          "time": 197.07672599999998,
          "velocity": 0.6929133858267716
        },
        {
          "duration": 0.346153500000014,
          "durationTicks": 288,
          "midi": 64,
          "name": "E4",
          "ticks": 163968,
          "time": 197.07672599999998,
          "velocity": 0.6929133858267716
        },
        {
          "duration": 0.11538449999997624,
          "durationTicks": 96,
          "midi": 67,
          "name": "G4",
          "ticks": 164256,
          "time": 197.4228795,
          "velocity": 0.6929133858267716
        },
        {
          "duration": 0.11538449999997624,
          "durationTicks": 96,
          "midi": 62,
          "name": "D4",
          "ticks": 164256,
          "time": 197.4228795,
          "velocity": 0.6929133858267716
        },
        {
          "duration": 0.23076900000000933,
          "durationTicks": 192,
          "midi": 59,
          "name": "B3",
          "ticks": 164352,
          "time": 197.53826399999997,
          "velocity": 0.6929133858267716
        },
        {
          "duration": 0.23076900000000933,
          "durationTicks": 192,
          "midi": 52,
          "name": "E3",
          "ticks": 164352,
          "time": 197.53826399999997,
          "velocity": 0.6929133858267716
        },
        {
          "duration": 0.2307689999999809,
          "durationTicks": 192,
          "midi": 59,
          "name": "B3",
          "ticks": 164736,
          "time": 197.999802,
          "velocity": 0.6929133858267716
        },
        {
          "duration": 0.2307689999999809,
          "durationTicks": 192,
          "midi": 52,
          "name": "E3",
          "ticks": 164736,
          "time": 197.999802,
          "velocity": 0.6929133858267716
        },
        {
          "duration": 0.346153500000014,
          "durationTicks": 288,
          "midi": 59,
          "name": "B3",
          "ticks": 165120,
          "time": 198.46133999999998,
          "velocity": 0.6929133858267716
        },
        {
          "duration": 0.346153500000014,
          "durationTicks": 288,
          "midi": 52,
          "name": "E3",
          "ticks": 165120,
          "time": 198.46133999999998,
          "velocity": 0.6929133858267716
        },
        {
          "duration": 0.11538449999997624,
          "durationTicks": 96,
          "midi": 67,
          "name": "G4",
          "ticks": 165408,
          "time": 198.8074935,
          "velocity": 0.6929133858267716
        },
        {
          "duration": 0.11538449999997624,
          "durationTicks": 96,
          "midi": 62,
          "name": "D4",
          "ticks": 165408,
          "time": 198.8074935,
          "velocity": 0.6929133858267716
        },
        {
          "duration": 0.346153500000014,
          "durationTicks": 288,
          "midi": 69,
          "name": "A4",
          "ticks": 165504,
          "time": 198.92287799999997,
          "velocity": 0.6929133858267716
        },
        {
          "duration": 0.346153500000014,
          "durationTicks": 288,
          "midi": 64,
          "name": "E4",
          "ticks": 165504,
          "time": 198.92287799999997,
          "velocity": 0.6929133858267716
        },
        {
          "duration": 0.11538450000000466,
          "durationTicks": 96,
          "midi": 67,
          "name": "G4",
          "ticks": 165792,
          "time": 199.26903149999998,
          "velocity": 0.6929133858267716
        },
        {
          "duration": 0.11538450000000466,
          "durationTicks": 96,
          "midi": 62,
          "name": "D4",
          "ticks": 165792,
          "time": 199.26903149999998,
          "velocity": 0.6929133858267716
        },
        {
          "duration": 0.2307689999999809,
          "durationTicks": 192,
          "midi": 59,
          "name": "B3",
          "ticks": 165888,
          "time": 199.384416,
          "velocity": 0.6929133858267716
        },
        {
          "duration": 0.2307689999999809,
          "durationTicks": 192,
          "midi": 52,
          "name": "E3",
          "ticks": 165888,
          "time": 199.384416,
          "velocity": 0.6929133858267716
        },
        {
          "duration": 0.23076900000000933,
          "durationTicks": 192,
          "midi": 59,
          "name": "B3",
          "ticks": 166272,
          "time": 199.84595399999998,
          "velocity": 0.6929133858267716
        },
        {
          "duration": 0.23076900000000933,
          "durationTicks": 192,
          "midi": 52,
          "name": "E3",
          "ticks": 166272,
          "time": 199.84595399999998,
          "velocity": 0.6929133858267716
        },
        {
          "duration": 0.346153500000014,
          "durationTicks": 288,
          "midi": 59,
          "name": "B3",
          "ticks": 166656,
          "time": 200.30749199999997,
          "velocity": 0.6929133858267716
        },
        {
          "duration": 0.346153500000014,
          "durationTicks": 288,
          "midi": 52,
          "name": "E3",
          "ticks": 166656,
          "time": 200.30749199999997,
          "velocity": 0.6929133858267716
        },
        {
          "duration": 0.11538450000000466,
          "durationTicks": 96,
          "midi": 67,
          "name": "G4",
          "ticks": 166944,
          "time": 200.65364549999998,
          "velocity": 0.6929133858267716
        },
        {
          "duration": 0.11538450000000466,
          "durationTicks": 96,
          "midi": 62,
          "name": "D4",
          "ticks": 166944,
          "time": 200.65364549999998,
          "velocity": 0.6929133858267716
        },
        {
          "duration": 0.34615349999998557,
          "durationTicks": 288,
          "midi": 69,
          "name": "A4",
          "ticks": 167040,
          "time": 200.76903,
          "velocity": 0.6929133858267716
        },
        {
          "duration": 0.34615349999998557,
          "durationTicks": 288,
          "midi": 64,
          "name": "E4",
          "ticks": 167040,
          "time": 200.76903,
          "velocity": 0.6929133858267716
        },
        {
          "duration": 0.11538450000000466,
          "durationTicks": 96,
          "midi": 67,
          "name": "G4",
          "ticks": 167328,
          "time": 201.11518349999997,
          "velocity": 0.6929133858267716
        },
        {
          "duration": 0.11538450000000466,
          "durationTicks": 96,
          "midi": 62,
          "name": "D4",
          "ticks": 167328,
          "time": 201.11518349999997,
          "velocity": 0.6929133858267716
        },
        {
          "duration": 0.23076900000000933,
          "durationTicks": 192,
          "midi": 59,
          "name": "B3",
          "ticks": 167424,
          "time": 201.23056799999998,
          "velocity": 0.6929133858267716
        },
        {
          "duration": 0.23076900000000933,
          "durationTicks": 192,
          "midi": 52,
          "name": "E3",
          "ticks": 167424,
          "time": 201.23056799999998,
          "velocity": 0.6929133858267716
        },
        {
          "duration": 0.23076900000000933,
          "durationTicks": 192,
          "midi": 59,
          "name": "B3",
          "ticks": 167808,
          "time": 201.69210599999997,
          "velocity": 0.6929133858267716
        },
        {
          "duration": 0.23076900000000933,
          "durationTicks": 192,
          "midi": 52,
          "name": "E3",
          "ticks": 167808,
          "time": 201.69210599999997,
          "velocity": 0.6929133858267716
        },
        {
          "duration": 0.34615349999998557,
          "durationTicks": 288,
          "midi": 59,
          "name": "B3",
          "ticks": 168192,
          "time": 202.15364399999999,
          "velocity": 0.6929133858267716
        },
        {
          "duration": 0.34615349999998557,
          "durationTicks": 288,
          "midi": 52,
          "name": "E3",
          "ticks": 168192,
          "time": 202.15364399999999,
          "velocity": 0.6929133858267716
        },
        {
          "duration": 0.11538450000000466,
          "durationTicks": 96,
          "midi": 67,
          "name": "G4",
          "ticks": 168480,
          "time": 202.49979749999997,
          "velocity": 0.6929133858267716
        },
        {
          "duration": 0.11538450000000466,
          "durationTicks": 96,
          "midi": 62,
          "name": "D4",
          "ticks": 168480,
          "time": 202.49979749999997,
          "velocity": 0.6929133858267716
        },
        {
          "duration": 0.346153500000014,
          "durationTicks": 288,
          "midi": 69,
          "name": "A4",
          "ticks": 168576,
          "time": 202.61518199999998,
          "velocity": 0.6929133858267716
        },
        {
          "duration": 0.346153500000014,
          "durationTicks": 288,
          "midi": 64,
          "name": "E4",
          "ticks": 168576,
          "time": 202.61518199999998,
          "velocity": 0.6929133858267716
        },
        {
          "duration": 0.11538449999997624,
          "durationTicks": 96,
          "midi": 67,
          "name": "G4",
          "ticks": 168864,
          "time": 202.9613355,
          "velocity": 0.6929133858267716
        },
        {
          "duration": 0.11538449999997624,
          "durationTicks": 96,
          "midi": 62,
          "name": "D4",
          "ticks": 168864,
          "time": 202.9613355,
          "velocity": 0.6929133858267716
        },
        {
          "duration": 0.23076900000000933,
          "durationTicks": 192,
          "midi": 59,
          "name": "B3",
          "ticks": 168960,
          "time": 203.07671999999997,
          "velocity": 0.6929133858267716
        },
        {
          "duration": 0.23076900000000933,
          "durationTicks": 192,
          "midi": 52,
          "name": "E3",
          "ticks": 168960,
          "time": 203.07671999999997,
          "velocity": 0.6929133858267716
        },
        {
          "duration": 0.23076900000000933,
          "durationTicks": 192,
          "midi": 59,
          "name": "B3",
          "ticks": 169344,
          "time": 203.53825799999998,
          "velocity": 0.6929133858267716
        },
        {
          "duration": 0.23076900000000933,
          "durationTicks": 192,
          "midi": 52,
          "name": "E3",
          "ticks": 169344,
          "time": 203.53825799999998,
          "velocity": 0.6929133858267716
        },
        {
          "duration": 0.346153500000014,
          "durationTicks": 288,
          "midi": 59,
          "name": "B3",
          "ticks": 169728,
          "time": 203.99979599999998,
          "velocity": 0.6929133858267716
        },
        {
          "duration": 0.346153500000014,
          "durationTicks": 288,
          "midi": 52,
          "name": "E3",
          "ticks": 169728,
          "time": 203.99979599999998,
          "velocity": 0.6929133858267716
        },
        {
          "duration": 0.11538449999997624,
          "durationTicks": 96,
          "midi": 67,
          "name": "G4",
          "ticks": 170016,
          "time": 204.3459495,
          "velocity": 0.6929133858267716
        },
        {
          "duration": 0.11538449999997624,
          "durationTicks": 96,
          "midi": 62,
          "name": "D4",
          "ticks": 170016,
          "time": 204.3459495,
          "velocity": 0.6929133858267716
        },
        {
          "duration": 0.346153500000014,
          "durationTicks": 288,
          "midi": 69,
          "name": "A4",
          "ticks": 170112,
          "time": 204.46133399999997,
          "velocity": 0.6929133858267716
        },
        {
          "duration": 0.346153500000014,
          "durationTicks": 288,
          "midi": 64,
          "name": "E4",
          "ticks": 170112,
          "time": 204.46133399999997,
          "velocity": 0.6929133858267716
        },
        {
          "duration": 0.11538450000000466,
          "durationTicks": 96,
          "midi": 67,
          "name": "G4",
          "ticks": 170400,
          "time": 204.80748749999998,
          "velocity": 0.6929133858267716
        },
        {
          "duration": 0.11538450000000466,
          "durationTicks": 96,
          "midi": 62,
          "name": "D4",
          "ticks": 170400,
          "time": 204.80748749999998,
          "velocity": 0.6929133858267716
        },
        {
          "duration": 0.23076900000000933,
          "durationTicks": 192,
          "midi": 59,
          "name": "B3",
          "ticks": 170496,
          "time": 204.92287199999998,
          "velocity": 0.6929133858267716
        },
        {
          "duration": 0.23076900000000933,
          "durationTicks": 192,
          "midi": 52,
          "name": "E3",
          "ticks": 170496,
          "time": 204.92287199999998,
          "velocity": 0.6929133858267716
        },
        {
          "duration": 0.23076900000000933,
          "durationTicks": 192,
          "midi": 59,
          "name": "B3",
          "ticks": 170880,
          "time": 205.38440999999997,
          "velocity": 0.6929133858267716
        },
        {
          "duration": 0.23076900000000933,
          "durationTicks": 192,
          "midi": 52,
          "name": "E3",
          "ticks": 170880,
          "time": 205.38440999999997,
          "velocity": 0.6929133858267716
        },
        {
          "duration": 0.346153500000014,
          "durationTicks": 288,
          "midi": 59,
          "name": "B3",
          "ticks": 171264,
          "time": 205.84594799999996,
          "velocity": 0.6929133858267716
        },
        {
          "duration": 0.346153500000014,
          "durationTicks": 288,
          "midi": 52,
          "name": "E3",
          "ticks": 171264,
          "time": 205.84594799999996,
          "velocity": 0.6929133858267716
        },
        {
          "duration": 0.11538450000000466,
          "durationTicks": 96,
          "midi": 67,
          "name": "G4",
          "ticks": 171552,
          "time": 206.19210149999998,
          "velocity": 0.6929133858267716
        },
        {
          "duration": 0.11538450000000466,
          "durationTicks": 96,
          "midi": 62,
          "name": "D4",
          "ticks": 171552,
          "time": 206.19210149999998,
          "velocity": 0.6929133858267716
        },
        {
          "duration": 0.34615349999998557,
          "durationTicks": 288,
          "midi": 69,
          "name": "A4",
          "ticks": 171648,
          "time": 206.30748599999998,
          "velocity": 0.6929133858267716
        },
        {
          "duration": 0.34615349999998557,
          "durationTicks": 288,
          "midi": 64,
          "name": "E4",
          "ticks": 171648,
          "time": 206.30748599999998,
          "velocity": 0.6929133858267716
        },
        {
          "duration": 0.11538450000000466,
          "durationTicks": 96,
          "midi": 67,
          "name": "G4",
          "ticks": 171936,
          "time": 206.65363949999997,
          "velocity": 0.6929133858267716
        },
        {
          "duration": 0.11538450000000466,
          "durationTicks": 96,
          "midi": 62,
          "name": "D4",
          "ticks": 171936,
          "time": 206.65363949999997,
          "velocity": 0.6929133858267716
        },
        {
          "duration": 0.23076900000000933,
          "durationTicks": 192,
          "midi": 59,
          "name": "B3",
          "ticks": 172032,
          "time": 206.76902399999997,
          "velocity": 0.6929133858267716
        },
        {
          "duration": 0.23076900000000933,
          "durationTicks": 192,
          "midi": 52,
          "name": "E3",
          "ticks": 172032,
          "time": 206.76902399999997,
          "velocity": 0.6929133858267716
        },
        {
          "duration": 0.2307689999999809,
          "durationTicks": 192,
          "midi": 59,
          "name": "B3",
          "ticks": 172416,
          "time": 207.230562,
          "velocity": 0.6929133858267716
        },
        {
          "duration": 0.2307689999999809,
          "durationTicks": 192,
          "midi": 52,
          "name": "E3",
          "ticks": 172416,
          "time": 207.230562,
          "velocity": 0.6929133858267716
        },
        {
          "duration": 0.34615349999998557,
          "durationTicks": 288,
          "midi": 59,
          "name": "B3",
          "ticks": 172800,
          "time": 207.69209999999998,
          "velocity": 0.6929133858267716
        },
        {
          "duration": 0.34615349999998557,
          "durationTicks": 288,
          "midi": 52,
          "name": "E3",
          "ticks": 172800,
          "time": 207.69209999999998,
          "velocity": 0.6929133858267716
        },
        {
          "duration": 0.11538450000000466,
          "durationTicks": 96,
          "midi": 67,
          "name": "G4",
          "ticks": 173088,
          "time": 208.03825349999997,
          "velocity": 0.6929133858267716
        },
        {
          "duration": 0.11538450000000466,
          "durationTicks": 96,
          "midi": 62,
          "name": "D4",
          "ticks": 173088,
          "time": 208.03825349999997,
          "velocity": 0.6929133858267716
        },
        {
          "duration": 0.346153500000014,
          "durationTicks": 288,
          "midi": 69,
          "name": "A4",
          "ticks": 173184,
          "time": 208.15363799999997,
          "velocity": 0.6929133858267716
        },
        {
          "duration": 0.346153500000014,
          "durationTicks": 288,
          "midi": 64,
          "name": "E4",
          "ticks": 173184,
          "time": 208.15363799999997,
          "velocity": 0.6929133858267716
        },
        {
          "duration": 0.11538450000000466,
          "durationTicks": 96,
          "midi": 67,
          "name": "G4",
          "ticks": 173472,
          "time": 208.4997915,
          "velocity": 0.6929133858267716
        },
        {
          "duration": 0.11538450000000466,
          "durationTicks": 96,
          "midi": 62,
          "name": "D4",
          "ticks": 173472,
          "time": 208.4997915,
          "velocity": 0.6929133858267716
        },
        {
          "duration": 0.15384599999998727,
          "durationTicks": 128,
          "midi": 80,
          "name": "G#5",
          "ticks": 173568,
          "time": 208.615176,
          "velocity": 0.6929133858267716
        },
        {
          "duration": 0.15384599999998727,
          "durationTicks": 128,
          "midi": 76,
          "name": "E5",
          "ticks": 173568,
          "time": 208.615176,
          "velocity": 0.6929133858267716
        },
        {
          "duration": 0.15384599999998727,
          "durationTicks": 128,
          "midi": 71,
          "name": "B4",
          "ticks": 173568,
          "time": 208.615176,
          "velocity": 0.6929133858267716
        },
        {
          "duration": 0.15384599999998727,
          "durationTicks": 128,
          "midi": 64,
          "name": "E4",
          "ticks": 173568,
          "time": 208.615176,
          "velocity": 0.6929133858267716
        },
        {
          "duration": 0.1538460000000157,
          "durationTicks": 128,
          "midi": 80,
          "name": "G#5",
          "ticks": 173696,
          "time": 208.76902199999998,
          "velocity": 0.6929133858267716
        },
        {
          "duration": 0.1538460000000157,
          "durationTicks": 128,
          "midi": 76,
          "name": "E5",
          "ticks": 173696,
          "time": 208.76902199999998,
          "velocity": 0.6929133858267716
        },
        {
          "duration": 0.1538460000000157,
          "durationTicks": 128,
          "midi": 71,
          "name": "B4",
          "ticks": 173696,
          "time": 208.76902199999998,
          "velocity": 0.6929133858267716
        },
        {
          "duration": 0.1538460000000157,
          "durationTicks": 128,
          "midi": 64,
          "name": "E4",
          "ticks": 173696,
          "time": 208.76902199999998,
          "velocity": 0.6929133858267716
        },
        {
          "duration": 0.15384599999998727,
          "durationTicks": 128,
          "midi": 80,
          "name": "G#5",
          "ticks": 173824,
          "time": 208.922868,
          "velocity": 0.6929133858267716
        },
        {
          "duration": 0.15384599999998727,
          "durationTicks": 128,
          "midi": 76,
          "name": "E5",
          "ticks": 173824,
          "time": 208.922868,
          "velocity": 0.6929133858267716
        },
        {
          "duration": 0.15384599999998727,
          "durationTicks": 128,
          "midi": 71,
          "name": "B4",
          "ticks": 173824,
          "time": 208.922868,
          "velocity": 0.6929133858267716
        },
        {
          "duration": 0.15384599999998727,
          "durationTicks": 128,
          "midi": 64,
          "name": "E4",
          "ticks": 173824,
          "time": 208.922868,
          "velocity": 0.6929133858267716
        },
        {
          "duration": 0.15384599999998727,
          "durationTicks": 128,
          "midi": 80,
          "name": "G#5",
          "ticks": 173952,
          "time": 209.07671399999998,
          "velocity": 0.6929133858267716
        },
        {
          "duration": 0.15384599999998727,
          "durationTicks": 128,
          "midi": 76,
          "name": "E5",
          "ticks": 173952,
          "time": 209.07671399999998,
          "velocity": 0.6929133858267716
        },
        {
          "duration": 0.15384599999998727,
          "durationTicks": 128,
          "midi": 71,
          "name": "B4",
          "ticks": 173952,
          "time": 209.07671399999998,
          "velocity": 0.6929133858267716
        },
        {
          "duration": 0.15384599999998727,
          "durationTicks": 128,
          "midi": 64,
          "name": "E4",
          "ticks": 173952,
          "time": 209.07671399999998,
          "velocity": 0.6929133858267716
        },
        {
          "duration": 0.1538460000000157,
          "durationTicks": 128,
          "midi": 80,
          "name": "G#5",
          "ticks": 174080,
          "time": 209.23055999999997,
          "velocity": 0.6929133858267716
        },
        {
          "duration": 0.1538460000000157,
          "durationTicks": 128,
          "midi": 76,
          "name": "E5",
          "ticks": 174080,
          "time": 209.23055999999997,
          "velocity": 0.6929133858267716
        },
        {
          "duration": 0.1538460000000157,
          "durationTicks": 128,
          "midi": 71,
          "name": "B4",
          "ticks": 174080,
          "time": 209.23055999999997,
          "velocity": 0.6929133858267716
        },
        {
          "duration": 0.1538460000000157,
          "durationTicks": 128,
          "midi": 64,
          "name": "E4",
          "ticks": 174080,
          "time": 209.23055999999997,
          "velocity": 0.6929133858267716
        },
        {
          "duration": 0.15384599999998727,
          "durationTicks": 128,
          "midi": 80,
          "name": "G#5",
          "ticks": 174208,
          "time": 209.38440599999998,
          "velocity": 0.6929133858267716
        },
        {
          "duration": 0.15384599999998727,
          "durationTicks": 128,
          "midi": 76,
          "name": "E5",
          "ticks": 174208,
          "time": 209.38440599999998,
          "velocity": 0.6929133858267716
        },
        {
          "duration": 0.15384599999998727,
          "durationTicks": 128,
          "midi": 71,
          "name": "B4",
          "ticks": 174208,
          "time": 209.38440599999998,
          "velocity": 0.6929133858267716
        },
        {
          "duration": 0.15384599999998727,
          "durationTicks": 128,
          "midi": 64,
          "name": "E4",
          "ticks": 174208,
          "time": 209.38440599999998,
          "velocity": 0.6929133858267716
        },
        {
          "duration": 0.1538460000000157,
          "durationTicks": 128,
          "midi": 80,
          "name": "G#5",
          "ticks": 174336,
          "time": 209.53825199999997,
          "velocity": 0.6929133858267716
        },
        {
          "duration": 0.1538460000000157,
          "durationTicks": 128,
          "midi": 76,
          "name": "E5",
          "ticks": 174336,
          "time": 209.53825199999997,
          "velocity": 0.6929133858267716
        },
        {
          "duration": 0.1538460000000157,
          "durationTicks": 128,
          "midi": 71,
          "name": "B4",
          "ticks": 174336,
          "time": 209.53825199999997,
          "velocity": 0.6929133858267716
        },
        {
          "duration": 0.1538460000000157,
          "durationTicks": 128,
          "midi": 64,
          "name": "E4",
          "ticks": 174336,
          "time": 209.53825199999997,
          "velocity": 0.6929133858267716
        },
        {
          "duration": 0.15384599999998727,
          "durationTicks": 128,
          "midi": 80,
          "name": "G#5",
          "ticks": 174464,
          "time": 209.692098,
          "velocity": 0.6929133858267716
        },
        {
          "duration": 0.15384599999998727,
          "durationTicks": 128,
          "midi": 76,
          "name": "E5",
          "ticks": 174464,
          "time": 209.692098,
          "velocity": 0.6929133858267716
        },
        {
          "duration": 0.15384599999998727,
          "durationTicks": 128,
          "midi": 71,
          "name": "B4",
          "ticks": 174464,
          "time": 209.692098,
          "velocity": 0.6929133858267716
        },
        {
          "duration": 0.15384599999998727,
          "durationTicks": 128,
          "midi": 64,
          "name": "E4",
          "ticks": 174464,
          "time": 209.692098,
          "velocity": 0.6929133858267716
        },
        {
          "duration": 0.1538460000000157,
          "durationTicks": 128,
          "midi": 80,
          "name": "G#5",
          "ticks": 174592,
          "time": 209.84594399999997,
          "velocity": 0.6929133858267716
        },
        {
          "duration": 0.1538460000000157,
          "durationTicks": 128,
          "midi": 76,
          "name": "E5",
          "ticks": 174592,
          "time": 209.84594399999997,
          "velocity": 0.6929133858267716
        },
        {
          "duration": 0.1538460000000157,
          "durationTicks": 128,
          "midi": 71,
          "name": "B4",
          "ticks": 174592,
          "time": 209.84594399999997,
          "velocity": 0.6929133858267716
        },
        {
          "duration": 0.1538460000000157,
          "durationTicks": 128,
          "midi": 64,
          "name": "E4",
          "ticks": 174592,
          "time": 209.84594399999997,
          "velocity": 0.6929133858267716
        },
        {
          "duration": 0.15384599999998727,
          "durationTicks": 128,
          "midi": 80,
          "name": "G#5",
          "ticks": 174720,
          "time": 209.99979,
          "velocity": 0.6929133858267716
        },
        {
          "duration": 0.15384599999998727,
          "durationTicks": 128,
          "midi": 76,
          "name": "E5",
          "ticks": 174720,
          "time": 209.99979,
          "velocity": 0.6929133858267716
        },
        {
          "duration": 0.15384599999998727,
          "durationTicks": 128,
          "midi": 71,
          "name": "B4",
          "ticks": 174720,
          "time": 209.99979,
          "velocity": 0.6929133858267716
        },
        {
          "duration": 0.15384599999998727,
          "durationTicks": 128,
          "midi": 64,
          "name": "E4",
          "ticks": 174720,
          "time": 209.99979,
          "velocity": 0.6929133858267716
        },
        {
          "duration": 0.1538460000000157,
          "durationTicks": 128,
          "midi": 80,
          "name": "G#5",
          "ticks": 174848,
          "time": 210.15363599999998,
          "velocity": 0.6929133858267716
        },
        {
          "duration": 0.1538460000000157,
          "durationTicks": 128,
          "midi": 76,
          "name": "E5",
          "ticks": 174848,
          "time": 210.15363599999998,
          "velocity": 0.6929133858267716
        },
        {
          "duration": 0.1538460000000157,
          "durationTicks": 128,
          "midi": 71,
          "name": "B4",
          "ticks": 174848,
          "time": 210.15363599999998,
          "velocity": 0.6929133858267716
        },
        {
          "duration": 0.1538460000000157,
          "durationTicks": 128,
          "midi": 64,
          "name": "E4",
          "ticks": 174848,
          "time": 210.15363599999998,
          "velocity": 0.6929133858267716
        },
        {
          "duration": 0.15384599999998727,
          "durationTicks": 128,
          "midi": 80,
          "name": "G#5",
          "ticks": 174976,
          "time": 210.307482,
          "velocity": 0.6929133858267716
        },
        {
          "duration": 0.15384599999998727,
          "durationTicks": 128,
          "midi": 76,
          "name": "E5",
          "ticks": 174976,
          "time": 210.307482,
          "velocity": 0.6929133858267716
        },
        {
          "duration": 0.15384599999998727,
          "durationTicks": 128,
          "midi": 71,
          "name": "B4",
          "ticks": 174976,
          "time": 210.307482,
          "velocity": 0.6929133858267716
        },
        {
          "duration": 0.15384599999998727,
          "durationTicks": 128,
          "midi": 64,
          "name": "E4",
          "ticks": 174976,
          "time": 210.307482,
          "velocity": 0.6929133858267716
        },
        {
          "duration": 0.15384599999998727,
          "durationTicks": 128,
          "midi": 80,
          "name": "G#5",
          "ticks": 175104,
          "time": 210.46132799999998,
          "velocity": 0.6929133858267716
        },
        {
          "duration": 0.15384599999998727,
          "durationTicks": 128,
          "midi": 76,
          "name": "E5",
          "ticks": 175104,
          "time": 210.46132799999998,
          "velocity": 0.6929133858267716
        },
        {
          "duration": 0.15384599999998727,
          "durationTicks": 128,
          "midi": 71,
          "name": "B4",
          "ticks": 175104,
          "time": 210.46132799999998,
          "velocity": 0.6929133858267716
        },
        {
          "duration": 0.15384599999998727,
          "durationTicks": 128,
          "midi": 64,
          "name": "E4",
          "ticks": 175104,
          "time": 210.46132799999998,
          "velocity": 0.6929133858267716
        },
        {
          "duration": 0.1538460000000157,
          "durationTicks": 128,
          "midi": 80,
          "name": "G#5",
          "ticks": 175232,
          "time": 210.61517399999997,
          "velocity": 0.6929133858267716
        },
        {
          "duration": 0.1538460000000157,
          "durationTicks": 128,
          "midi": 76,
          "name": "E5",
          "ticks": 175232,
          "time": 210.61517399999997,
          "velocity": 0.6929133858267716
        },
        {
          "duration": 0.1538460000000157,
          "durationTicks": 128,
          "midi": 71,
          "name": "B4",
          "ticks": 175232,
          "time": 210.61517399999997,
          "velocity": 0.6929133858267716
        },
        {
          "duration": 0.1538460000000157,
          "durationTicks": 128,
          "midi": 64,
          "name": "E4",
          "ticks": 175232,
          "time": 210.61517399999997,
          "velocity": 0.6929133858267716
        },
        {
          "duration": 0.15384599999998727,
          "durationTicks": 128,
          "midi": 80,
          "name": "G#5",
          "ticks": 175360,
          "time": 210.76901999999998,
          "velocity": 0.6929133858267716
        },
        {
          "duration": 0.15384599999998727,
          "durationTicks": 128,
          "midi": 76,
          "name": "E5",
          "ticks": 175360,
          "time": 210.76901999999998,
          "velocity": 0.6929133858267716
        },
        {
          "duration": 0.15384599999998727,
          "durationTicks": 128,
          "midi": 71,
          "name": "B4",
          "ticks": 175360,
          "time": 210.76901999999998,
          "velocity": 0.6929133858267716
        },
        {
          "duration": 0.15384599999998727,
          "durationTicks": 128,
          "midi": 64,
          "name": "E4",
          "ticks": 175360,
          "time": 210.76901999999998,
          "velocity": 0.6929133858267716
        },
        {
          "duration": 0.1538460000000157,
          "durationTicks": 128,
          "midi": 80,
          "name": "G#5",
          "ticks": 175488,
          "time": 210.92286599999997,
          "velocity": 0.6929133858267716
        },
        {
          "duration": 0.1538460000000157,
          "durationTicks": 128,
          "midi": 76,
          "name": "E5",
          "ticks": 175488,
          "time": 210.92286599999997,
          "velocity": 0.6929133858267716
        },
        {
          "duration": 0.1538460000000157,
          "durationTicks": 128,
          "midi": 71,
          "name": "B4",
          "ticks": 175488,
          "time": 210.92286599999997,
          "velocity": 0.6929133858267716
        },
        {
          "duration": 0.1538460000000157,
          "durationTicks": 128,
          "midi": 64,
          "name": "E4",
          "ticks": 175488,
          "time": 210.92286599999997,
          "velocity": 0.6929133858267716
        },
        {
          "duration": 0.15384599999998727,
          "durationTicks": 128,
          "midi": 80,
          "name": "G#5",
          "ticks": 175616,
          "time": 211.076712,
          "velocity": 0.6929133858267716
        },
        {
          "duration": 0.15384599999998727,
          "durationTicks": 128,
          "midi": 76,
          "name": "E5",
          "ticks": 175616,
          "time": 211.076712,
          "velocity": 0.6929133858267716
        },
        {
          "duration": 0.15384599999998727,
          "durationTicks": 128,
          "midi": 71,
          "name": "B4",
          "ticks": 175616,
          "time": 211.076712,
          "velocity": 0.6929133858267716
        },
        {
          "duration": 0.15384599999998727,
          "durationTicks": 128,
          "midi": 64,
          "name": "E4",
          "ticks": 175616,
          "time": 211.076712,
          "velocity": 0.6929133858267716
        },
        {
          "duration": 0.1538460000000157,
          "durationTicks": 128,
          "midi": 80,
          "name": "G#5",
          "ticks": 175744,
          "time": 211.23055799999997,
          "velocity": 0.6929133858267716
        },
        {
          "duration": 0.1538460000000157,
          "durationTicks": 128,
          "midi": 76,
          "name": "E5",
          "ticks": 175744,
          "time": 211.23055799999997,
          "velocity": 0.6929133858267716
        },
        {
          "duration": 0.1538460000000157,
          "durationTicks": 128,
          "midi": 71,
          "name": "B4",
          "ticks": 175744,
          "time": 211.23055799999997,
          "velocity": 0.6929133858267716
        },
        {
          "duration": 0.1538460000000157,
          "durationTicks": 128,
          "midi": 64,
          "name": "E4",
          "ticks": 175744,
          "time": 211.23055799999997,
          "velocity": 0.6929133858267716
        },
        {
          "duration": 0.15384599999998727,
          "durationTicks": 128,
          "midi": 80,
          "name": "G#5",
          "ticks": 175872,
          "time": 211.384404,
          "velocity": 0.6929133858267716
        },
        {
          "duration": 0.15384599999998727,
          "durationTicks": 128,
          "midi": 76,
          "name": "E5",
          "ticks": 175872,
          "time": 211.384404,
          "velocity": 0.6929133858267716
        },
        {
          "duration": 0.15384599999998727,
          "durationTicks": 128,
          "midi": 71,
          "name": "B4",
          "ticks": 175872,
          "time": 211.384404,
          "velocity": 0.6929133858267716
        },
        {
          "duration": 0.15384599999998727,
          "durationTicks": 128,
          "midi": 64,
          "name": "E4",
          "ticks": 175872,
          "time": 211.384404,
          "velocity": 0.6929133858267716
        },
        {
          "duration": 0.1538460000000157,
          "durationTicks": 128,
          "midi": 80,
          "name": "G#5",
          "ticks": 176000,
          "time": 211.53824999999998,
          "velocity": 0.6929133858267716
        },
        {
          "duration": 0.1538460000000157,
          "durationTicks": 128,
          "midi": 76,
          "name": "E5",
          "ticks": 176000,
          "time": 211.53824999999998,
          "velocity": 0.6929133858267716
        },
        {
          "duration": 0.1538460000000157,
          "durationTicks": 128,
          "midi": 71,
          "name": "B4",
          "ticks": 176000,
          "time": 211.53824999999998,
          "velocity": 0.6929133858267716
        },
        {
          "duration": 0.1538460000000157,
          "durationTicks": 128,
          "midi": 64,
          "name": "E4",
          "ticks": 176000,
          "time": 211.53824999999998,
          "velocity": 0.6929133858267716
        },
        {
          "duration": 0.15384599999998727,
          "durationTicks": 128,
          "midi": 80,
          "name": "G#5",
          "ticks": 176128,
          "time": 211.692096,
          "velocity": 0.6929133858267716
        },
        {
          "duration": 0.15384599999998727,
          "durationTicks": 128,
          "midi": 76,
          "name": "E5",
          "ticks": 176128,
          "time": 211.692096,
          "velocity": 0.6929133858267716
        },
        {
          "duration": 0.15384599999998727,
          "durationTicks": 128,
          "midi": 71,
          "name": "B4",
          "ticks": 176128,
          "time": 211.692096,
          "velocity": 0.6929133858267716
        },
        {
          "duration": 0.15384599999998727,
          "durationTicks": 128,
          "midi": 64,
          "name": "E4",
          "ticks": 176128,
          "time": 211.692096,
          "velocity": 0.6929133858267716
        },
        {
          "duration": 0.15384599999998727,
          "durationTicks": 128,
          "midi": 80,
          "name": "G#5",
          "ticks": 176256,
          "time": 211.84594199999998,
          "velocity": 0.6929133858267716
        },
        {
          "duration": 0.15384599999998727,
          "durationTicks": 128,
          "midi": 76,
          "name": "E5",
          "ticks": 176256,
          "time": 211.84594199999998,
          "velocity": 0.6929133858267716
        },
        {
          "duration": 0.15384599999998727,
          "durationTicks": 128,
          "midi": 71,
          "name": "B4",
          "ticks": 176256,
          "time": 211.84594199999998,
          "velocity": 0.6929133858267716
        },
        {
          "duration": 0.15384599999998727,
          "durationTicks": 128,
          "midi": 64,
          "name": "E4",
          "ticks": 176256,
          "time": 211.84594199999998,
          "velocity": 0.6929133858267716
        },
        {
          "duration": 0.1538460000000157,
          "durationTicks": 128,
          "midi": 80,
          "name": "G#5",
          "ticks": 176384,
          "time": 211.99978799999997,
          "velocity": 0.6929133858267716
        },
        {
          "duration": 0.1538460000000157,
          "durationTicks": 128,
          "midi": 76,
          "name": "E5",
          "ticks": 176384,
          "time": 211.99978799999997,
          "velocity": 0.6929133858267716
        },
        {
          "duration": 0.1538460000000157,
          "durationTicks": 128,
          "midi": 71,
          "name": "B4",
          "ticks": 176384,
          "time": 211.99978799999997,
          "velocity": 0.6929133858267716
        },
        {
          "duration": 0.1538460000000157,
          "durationTicks": 128,
          "midi": 64,
          "name": "E4",
          "ticks": 176384,
          "time": 211.99978799999997,
          "velocity": 0.6929133858267716
        },
        {
          "duration": 0.15384599999998727,
          "durationTicks": 128,
          "midi": 80,
          "name": "G#5",
          "ticks": 176512,
          "time": 212.15363399999998,
          "velocity": 0.6929133858267716
        },
        {
          "duration": 0.15384599999998727,
          "durationTicks": 128,
          "midi": 76,
          "name": "E5",
          "ticks": 176512,
          "time": 212.15363399999998,
          "velocity": 0.6929133858267716
        },
        {
          "duration": 0.15384599999998727,
          "durationTicks": 128,
          "midi": 71,
          "name": "B4",
          "ticks": 176512,
          "time": 212.15363399999998,
          "velocity": 0.6929133858267716
        },
        {
          "duration": 0.15384599999998727,
          "durationTicks": 128,
          "midi": 64,
          "name": "E4",
          "ticks": 176512,
          "time": 212.15363399999998,
          "velocity": 0.6929133858267716
        },
        {
          "duration": 0.1538460000000157,
          "durationTicks": 128,
          "midi": 88,
          "name": "E6",
          "ticks": 176640,
          "time": 212.30747999999997,
          "velocity": 0.6929133858267716
        },
        {
          "duration": 0.1538460000000157,
          "durationTicks": 128,
          "midi": 83,
          "name": "B5",
          "ticks": 176640,
          "time": 212.30747999999997,
          "velocity": 0.6929133858267716
        },
        {
          "duration": 0.1538460000000157,
          "durationTicks": 128,
          "midi": 80,
          "name": "G#5",
          "ticks": 176640,
          "time": 212.30747999999997,
          "velocity": 0.6929133858267716
        },
        {
          "duration": 0.1538460000000157,
          "durationTicks": 128,
          "midi": 76,
          "name": "E5",
          "ticks": 176640,
          "time": 212.30747999999997,
          "velocity": 0.6929133858267716
        },
        {
          "duration": 0.15384599999998727,
          "durationTicks": 128,
          "midi": 88,
          "name": "E6",
          "ticks": 176768,
          "time": 212.46132599999999,
          "velocity": 0.6929133858267716
        },
        {
          "duration": 0.15384599999998727,
          "durationTicks": 128,
          "midi": 83,
          "name": "B5",
          "ticks": 176768,
          "time": 212.46132599999999,
          "velocity": 0.6929133858267716
        },
        {
          "duration": 0.15384599999998727,
          "durationTicks": 128,
          "midi": 80,
          "name": "G#5",
          "ticks": 176768,
          "time": 212.46132599999999,
          "velocity": 0.6929133858267716
        },
        {
          "duration": 0.15384599999998727,
          "durationTicks": 128,
          "midi": 76,
          "name": "E5",
          "ticks": 176768,
          "time": 212.46132599999999,
          "velocity": 0.6929133858267716
        },
        {
          "duration": 0.1538460000000157,
          "durationTicks": 128,
          "midi": 88,
          "name": "E6",
          "ticks": 176896,
          "time": 212.61517199999997,
          "velocity": 0.6929133858267716
        },
        {
          "duration": 0.1538460000000157,
          "durationTicks": 128,
          "midi": 83,
          "name": "B5",
          "ticks": 176896,
          "time": 212.61517199999997,
          "velocity": 0.6929133858267716
        },
        {
          "duration": 0.1538460000000157,
          "durationTicks": 128,
          "midi": 80,
          "name": "G#5",
          "ticks": 176896,
          "time": 212.61517199999997,
          "velocity": 0.6929133858267716
        },
        {
          "duration": 0.1538460000000157,
          "durationTicks": 128,
          "midi": 76,
          "name": "E5",
          "ticks": 176896,
          "time": 212.61517199999997,
          "velocity": 0.6929133858267716
        },
        {
          "duration": 0.15384599999998727,
          "durationTicks": 128,
          "midi": 88,
          "name": "E6",
          "ticks": 177024,
          "time": 212.769018,
          "velocity": 0.6929133858267716
        },
        {
          "duration": 0.15384599999998727,
          "durationTicks": 128,
          "midi": 83,
          "name": "B5",
          "ticks": 177024,
          "time": 212.769018,
          "velocity": 0.6929133858267716
        },
        {
          "duration": 0.15384599999998727,
          "durationTicks": 128,
          "midi": 80,
          "name": "G#5",
          "ticks": 177024,
          "time": 212.769018,
          "velocity": 0.6929133858267716
        },
        {
          "duration": 0.15384599999998727,
          "durationTicks": 128,
          "midi": 76,
          "name": "E5",
          "ticks": 177024,
          "time": 212.769018,
          "velocity": 0.6929133858267716
        },
        {
          "duration": 0.1538460000000157,
          "durationTicks": 128,
          "midi": 88,
          "name": "E6",
          "ticks": 177152,
          "time": 212.92286399999998,
          "velocity": 0.6929133858267716
        },
        {
          "duration": 0.1538460000000157,
          "durationTicks": 128,
          "midi": 83,
          "name": "B5",
          "ticks": 177152,
          "time": 212.92286399999998,
          "velocity": 0.6929133858267716
        },
        {
          "duration": 0.1538460000000157,
          "durationTicks": 128,
          "midi": 80,
          "name": "G#5",
          "ticks": 177152,
          "time": 212.92286399999998,
          "velocity": 0.6929133858267716
        },
        {
          "duration": 0.1538460000000157,
          "durationTicks": 128,
          "midi": 76,
          "name": "E5",
          "ticks": 177152,
          "time": 212.92286399999998,
          "velocity": 0.6929133858267716
        },
        {
          "duration": 0.15384599999998727,
          "durationTicks": 128,
          "midi": 88,
          "name": "E6",
          "ticks": 177280,
          "time": 213.07671,
          "velocity": 0.6929133858267716
        },
        {
          "duration": 0.15384599999998727,
          "durationTicks": 128,
          "midi": 83,
          "name": "B5",
          "ticks": 177280,
          "time": 213.07671,
          "velocity": 0.6929133858267716
        },
        {
          "duration": 0.15384599999998727,
          "durationTicks": 128,
          "midi": 80,
          "name": "G#5",
          "ticks": 177280,
          "time": 213.07671,
          "velocity": 0.6929133858267716
        },
        {
          "duration": 0.15384599999998727,
          "durationTicks": 128,
          "midi": 76,
          "name": "E5",
          "ticks": 177280,
          "time": 213.07671,
          "velocity": 0.6929133858267716
        },
        {
          "duration": 0.15384599999998727,
          "durationTicks": 128,
          "midi": 88,
          "name": "E6",
          "ticks": 177408,
          "time": 213.23055599999998,
          "velocity": 0.6929133858267716
        },
        {
          "duration": 0.15384599999998727,
          "durationTicks": 128,
          "midi": 83,
          "name": "B5",
          "ticks": 177408,
          "time": 213.23055599999998,
          "velocity": 0.6929133858267716
        },
        {
          "duration": 0.15384599999998727,
          "durationTicks": 128,
          "midi": 80,
          "name": "G#5",
          "ticks": 177408,
          "time": 213.23055599999998,
          "velocity": 0.6929133858267716
        },
        {
          "duration": 0.15384599999998727,
          "durationTicks": 128,
          "midi": 76,
          "name": "E5",
          "ticks": 177408,
          "time": 213.23055599999998,
          "velocity": 0.6929133858267716
        },
        {
          "duration": 0.1538460000000157,
          "durationTicks": 128,
          "midi": 88,
          "name": "E6",
          "ticks": 177536,
          "time": 213.38440199999997,
          "velocity": 0.6929133858267716
        },
        {
          "duration": 0.1538460000000157,
          "durationTicks": 128,
          "midi": 83,
          "name": "B5",
          "ticks": 177536,
          "time": 213.38440199999997,
          "velocity": 0.6929133858267716
        },
        {
          "duration": 0.1538460000000157,
          "durationTicks": 128,
          "midi": 80,
          "name": "G#5",
          "ticks": 177536,
          "time": 213.38440199999997,
          "velocity": 0.6929133858267716
        },
        {
          "duration": 0.1538460000000157,
          "durationTicks": 128,
          "midi": 76,
          "name": "E5",
          "ticks": 177536,
          "time": 213.38440199999997,
          "velocity": 0.6929133858267716
        },
        {
          "duration": 0.15384599999998727,
          "durationTicks": 128,
          "midi": 88,
          "name": "E6",
          "ticks": 177664,
          "time": 213.53824799999998,
          "velocity": 0.6929133858267716
        },
        {
          "duration": 0.15384599999998727,
          "durationTicks": 128,
          "midi": 83,
          "name": "B5",
          "ticks": 177664,
          "time": 213.53824799999998,
          "velocity": 0.6929133858267716
        },
        {
          "duration": 0.15384599999998727,
          "durationTicks": 128,
          "midi": 80,
          "name": "G#5",
          "ticks": 177664,
          "time": 213.53824799999998,
          "velocity": 0.6929133858267716
        },
        {
          "duration": 0.15384599999998727,
          "durationTicks": 128,
          "midi": 76,
          "name": "E5",
          "ticks": 177664,
          "time": 213.53824799999998,
          "velocity": 0.6929133858267716
        },
        {
          "duration": 0.1538460000000157,
          "durationTicks": 128,
          "midi": 88,
          "name": "E6",
          "ticks": 177792,
          "time": 213.69209399999997,
          "velocity": 0.6929133858267716
        },
        {
          "duration": 0.1538460000000157,
          "durationTicks": 128,
          "midi": 83,
          "name": "B5",
          "ticks": 177792,
          "time": 213.69209399999997,
          "velocity": 0.6929133858267716
        },
        {
          "duration": 0.1538460000000157,
          "durationTicks": 128,
          "midi": 80,
          "name": "G#5",
          "ticks": 177792,
          "time": 213.69209399999997,
          "velocity": 0.6929133858267716
        },
        {
          "duration": 0.1538460000000157,
          "durationTicks": 128,
          "midi": 76,
          "name": "E5",
          "ticks": 177792,
          "time": 213.69209399999997,
          "velocity": 0.6929133858267716
        },
        {
          "duration": 0.15384599999998727,
          "durationTicks": 128,
          "midi": 88,
          "name": "E6",
          "ticks": 177920,
          "time": 213.84593999999998,
          "velocity": 0.6929133858267716
        },
        {
          "duration": 0.15384599999998727,
          "durationTicks": 128,
          "midi": 83,
          "name": "B5",
          "ticks": 177920,
          "time": 213.84593999999998,
          "velocity": 0.6929133858267716
        },
        {
          "duration": 0.15384599999998727,
          "durationTicks": 128,
          "midi": 80,
          "name": "G#5",
          "ticks": 177920,
          "time": 213.84593999999998,
          "velocity": 0.6929133858267716
        },
        {
          "duration": 0.15384599999998727,
          "durationTicks": 128,
          "midi": 76,
          "name": "E5",
          "ticks": 177920,
          "time": 213.84593999999998,
          "velocity": 0.6929133858267716
        },
        {
          "duration": 0.1538460000000157,
          "durationTicks": 128,
          "midi": 88,
          "name": "E6",
          "ticks": 178048,
          "time": 213.99978599999997,
          "velocity": 0.6929133858267716
        },
        {
          "duration": 0.1538460000000157,
          "durationTicks": 128,
          "midi": 83,
          "name": "B5",
          "ticks": 178048,
          "time": 213.99978599999997,
          "velocity": 0.6929133858267716
        },
        {
          "duration": 0.1538460000000157,
          "durationTicks": 128,
          "midi": 80,
          "name": "G#5",
          "ticks": 178048,
          "time": 213.99978599999997,
          "velocity": 0.6929133858267716
        },
        {
          "duration": 0.1538460000000157,
          "durationTicks": 128,
          "midi": 76,
          "name": "E5",
          "ticks": 178048,
          "time": 213.99978599999997,
          "velocity": 0.6929133858267716
        },
        {
          "duration": 0.15384599999998727,
          "durationTicks": 128,
          "midi": 88,
          "name": "E6",
          "ticks": 178176,
          "time": 214.153632,
          "velocity": 0.6929133858267716
        },
        {
          "duration": 0.15384599999998727,
          "durationTicks": 128,
          "midi": 83,
          "name": "B5",
          "ticks": 178176,
          "time": 214.153632,
          "velocity": 0.6929133858267716
        },
        {
          "duration": 0.15384599999998727,
          "durationTicks": 128,
          "midi": 80,
          "name": "G#5",
          "ticks": 178176,
          "time": 214.153632,
          "velocity": 0.6929133858267716
        },
        {
          "duration": 0.15384599999998727,
          "durationTicks": 128,
          "midi": 76,
          "name": "E5",
          "ticks": 178176,
          "time": 214.153632,
          "velocity": 0.6929133858267716
        },
        {
          "duration": 0.1538460000000157,
          "durationTicks": 128,
          "midi": 88,
          "name": "E6",
          "ticks": 178304,
          "time": 214.30747799999997,
          "velocity": 0.6929133858267716
        },
        {
          "duration": 0.1538460000000157,
          "durationTicks": 128,
          "midi": 83,
          "name": "B5",
          "ticks": 178304,
          "time": 214.30747799999997,
          "velocity": 0.6929133858267716
        },
        {
          "duration": 0.1538460000000157,
          "durationTicks": 128,
          "midi": 80,
          "name": "G#5",
          "ticks": 178304,
          "time": 214.30747799999997,
          "velocity": 0.6929133858267716
        },
        {
          "duration": 0.1538460000000157,
          "durationTicks": 128,
          "midi": 76,
          "name": "E5",
          "ticks": 178304,
          "time": 214.30747799999997,
          "velocity": 0.6929133858267716
        },
        {
          "duration": 0.15384599999998727,
          "durationTicks": 128,
          "midi": 88,
          "name": "E6",
          "ticks": 178432,
          "time": 214.461324,
          "velocity": 0.6929133858267716
        },
        {
          "duration": 0.15384599999998727,
          "durationTicks": 128,
          "midi": 83,
          "name": "B5",
          "ticks": 178432,
          "time": 214.461324,
          "velocity": 0.6929133858267716
        },
        {
          "duration": 0.15384599999998727,
          "durationTicks": 128,
          "midi": 80,
          "name": "G#5",
          "ticks": 178432,
          "time": 214.461324,
          "velocity": 0.6929133858267716
        },
        {
          "duration": 0.15384599999998727,
          "durationTicks": 128,
          "midi": 76,
          "name": "E5",
          "ticks": 178432,
          "time": 214.461324,
          "velocity": 0.6929133858267716
        },
        {
          "duration": 0.15384599999998727,
          "durationTicks": 128,
          "midi": 88,
          "name": "E6",
          "ticks": 178560,
          "time": 214.61516999999998,
          "velocity": 0.6929133858267716
        },
        {
          "duration": 0.15384599999998727,
          "durationTicks": 128,
          "midi": 83,
          "name": "B5",
          "ticks": 178560,
          "time": 214.61516999999998,
          "velocity": 0.6929133858267716
        },
        {
          "duration": 0.15384599999998727,
          "durationTicks": 128,
          "midi": 80,
          "name": "G#5",
          "ticks": 178560,
          "time": 214.61516999999998,
          "velocity": 0.6929133858267716
        },
        {
          "duration": 0.15384599999998727,
          "durationTicks": 128,
          "midi": 76,
          "name": "E5",
          "ticks": 178560,
          "time": 214.61516999999998,
          "velocity": 0.6929133858267716
        },
        {
          "duration": 0.1538460000000157,
          "durationTicks": 128,
          "midi": 88,
          "name": "E6",
          "ticks": 178688,
          "time": 214.76901599999997,
          "velocity": 0.6929133858267716
        },
        {
          "duration": 0.1538460000000157,
          "durationTicks": 128,
          "midi": 83,
          "name": "B5",
          "ticks": 178688,
          "time": 214.76901599999997,
          "velocity": 0.6929133858267716
        },
        {
          "duration": 0.1538460000000157,
          "durationTicks": 128,
          "midi": 80,
          "name": "G#5",
          "ticks": 178688,
          "time": 214.76901599999997,
          "velocity": 0.6929133858267716
        },
        {
          "duration": 0.1538460000000157,
          "durationTicks": 128,
          "midi": 76,
          "name": "E5",
          "ticks": 178688,
          "time": 214.76901599999997,
          "velocity": 0.6929133858267716
        },
        {
          "duration": 0.15384599999998727,
          "durationTicks": 128,
          "midi": 88,
          "name": "E6",
          "ticks": 178816,
          "time": 214.92286199999998,
          "velocity": 0.6929133858267716
        },
        {
          "duration": 0.15384599999998727,
          "durationTicks": 128,
          "midi": 83,
          "name": "B5",
          "ticks": 178816,
          "time": 214.92286199999998,
          "velocity": 0.6929133858267716
        },
        {
          "duration": 0.15384599999998727,
          "durationTicks": 128,
          "midi": 80,
          "name": "G#5",
          "ticks": 178816,
          "time": 214.92286199999998,
          "velocity": 0.6929133858267716
        },
        {
          "duration": 0.15384599999998727,
          "durationTicks": 128,
          "midi": 76,
          "name": "E5",
          "ticks": 178816,
          "time": 214.92286199999998,
          "velocity": 0.6929133858267716
        },
        {
          "duration": 0.1538460000000157,
          "durationTicks": 128,
          "midi": 88,
          "name": "E6",
          "ticks": 178944,
          "time": 215.07670799999997,
          "velocity": 0.6929133858267716
        },
        {
          "duration": 0.1538460000000157,
          "durationTicks": 128,
          "midi": 83,
          "name": "B5",
          "ticks": 178944,
          "time": 215.07670799999997,
          "velocity": 0.6929133858267716
        },
        {
          "duration": 0.1538460000000157,
          "durationTicks": 128,
          "midi": 80,
          "name": "G#5",
          "ticks": 178944,
          "time": 215.07670799999997,
          "velocity": 0.6929133858267716
        },
        {
          "duration": 0.1538460000000157,
          "durationTicks": 128,
          "midi": 76,
          "name": "E5",
          "ticks": 178944,
          "time": 215.07670799999997,
          "velocity": 0.6929133858267716
        },
        {
          "duration": 0.15384599999998727,
          "durationTicks": 128,
          "midi": 88,
          "name": "E6",
          "ticks": 179072,
          "time": 215.23055399999998,
          "velocity": 0.6929133858267716
        },
        {
          "duration": 0.15384599999998727,
          "durationTicks": 128,
          "midi": 83,
          "name": "B5",
          "ticks": 179072,
          "time": 215.23055399999998,
          "velocity": 0.6929133858267716
        },
        {
          "duration": 0.15384599999998727,
          "durationTicks": 128,
          "midi": 80,
          "name": "G#5",
          "ticks": 179072,
          "time": 215.23055399999998,
          "velocity": 0.6929133858267716
        },
        {
          "duration": 0.15384599999998727,
          "durationTicks": 128,
          "midi": 76,
          "name": "E5",
          "ticks": 179072,
          "time": 215.23055399999998,
          "velocity": 0.6929133858267716
        },
        {
          "duration": 0.1538460000000157,
          "durationTicks": 128,
          "midi": 88,
          "name": "E6",
          "ticks": 179200,
          "time": 215.38439999999997,
          "velocity": 0.6929133858267716
        },
        {
          "duration": 0.1538460000000157,
          "durationTicks": 128,
          "midi": 83,
          "name": "B5",
          "ticks": 179200,
          "time": 215.38439999999997,
          "velocity": 0.6929133858267716
        },
        {
          "duration": 0.1538460000000157,
          "durationTicks": 128,
          "midi": 80,
          "name": "G#5",
          "ticks": 179200,
          "time": 215.38439999999997,
          "velocity": 0.6929133858267716
        },
        {
          "duration": 0.1538460000000157,
          "durationTicks": 128,
          "midi": 76,
          "name": "E5",
          "ticks": 179200,
          "time": 215.38439999999997,
          "velocity": 0.6929133858267716
        },
        {
          "duration": 0.15384599999998727,
          "durationTicks": 128,
          "midi": 88,
          "name": "E6",
          "ticks": 179328,
          "time": 215.538246,
          "velocity": 0.6929133858267716
        },
        {
          "duration": 0.15384599999998727,
          "durationTicks": 128,
          "midi": 83,
          "name": "B5",
          "ticks": 179328,
          "time": 215.538246,
          "velocity": 0.6929133858267716
        },
        {
          "duration": 0.15384599999998727,
          "durationTicks": 128,
          "midi": 80,
          "name": "G#5",
          "ticks": 179328,
          "time": 215.538246,
          "velocity": 0.6929133858267716
        },
        {
          "duration": 0.15384599999998727,
          "durationTicks": 128,
          "midi": 76,
          "name": "E5",
          "ticks": 179328,
          "time": 215.538246,
          "velocity": 0.6929133858267716
        },
        {
          "duration": 0.1538460000000157,
          "durationTicks": 128,
          "midi": 88,
          "name": "E6",
          "ticks": 179456,
          "time": 215.69209199999997,
          "velocity": 0.6929133858267716
        },
        {
          "duration": 0.1538460000000157,
          "durationTicks": 128,
          "midi": 83,
          "name": "B5",
          "ticks": 179456,
          "time": 215.69209199999997,
          "velocity": 0.6929133858267716
        },
        {
          "duration": 0.1538460000000157,
          "durationTicks": 128,
          "midi": 80,
          "name": "G#5",
          "ticks": 179456,
          "time": 215.69209199999997,
          "velocity": 0.6929133858267716
        },
        {
          "duration": 0.1538460000000157,
          "durationTicks": 128,
          "midi": 76,
          "name": "E5",
          "ticks": 179456,
          "time": 215.69209199999997,
          "velocity": 0.6929133858267716
        },
        {
          "duration": 0.15384599999998727,
          "durationTicks": 128,
          "midi": 88,
          "name": "E6",
          "ticks": 179584,
          "time": 215.845938,
          "velocity": 0.6929133858267716
        },
        {
          "duration": 0.15384599999998727,
          "durationTicks": 128,
          "midi": 83,
          "name": "B5",
          "ticks": 179584,
          "time": 215.845938,
          "velocity": 0.6929133858267716
        },
        {
          "duration": 0.15384599999998727,
          "durationTicks": 128,
          "midi": 80,
          "name": "G#5",
          "ticks": 179584,
          "time": 215.845938,
          "velocity": 0.6929133858267716
        },
        {
          "duration": 0.15384599999998727,
          "durationTicks": 128,
          "midi": 76,
          "name": "E5",
          "ticks": 179584,
          "time": 215.845938,
          "velocity": 0.6929133858267716
        },
        {
          "duration": 1.8461519999999894,
          "durationTicks": 1536,
          "midi": 88,
          "name": "E6",
          "ticks": 179712,
          "time": 215.99978399999998,
          "velocity": 0.6929133858267716
        },
        {
          "duration": 1.8461519999999894,
          "durationTicks": 1536,
          "midi": 83,
          "name": "B5",
          "ticks": 179712,
          "time": 215.99978399999998,
          "velocity": 0.6929133858267716
        },
        {
          "duration": 1.8461519999999894,
          "durationTicks": 1536,
          "midi": 80,
          "name": "G#5",
          "ticks": 179712,
          "time": 215.99978399999998,
          "velocity": 0.6929133858267716
        },
        {
          "duration": 1.8461519999999894,
          "durationTicks": 1536,
          "midi": 76,
          "name": "E5",
          "ticks": 179712,
          "time": 215.99978399999998,
          "velocity": 0.6929133858267716
        }
      ]
    },
    {
      "channel": 0,
      "controlChanges": {
        "0": [
          {
            "number": 0,
            "ticks": 0,
            "time": 0,
            "value": 0
          }
        ]
      },
      "pitchBends": [],
      "instrument": {
        "family": "piano",
        "number": 0,
        "name": "acoustic grand piano"
      },
      "name": "",
      "notes": []
    },
    {
      "channel": 1,
      "controlChanges": {
        "7": [
          {
            "number": 7,
            "ticks": 0,
            "time": 0,
            "value": 0.5905511811023622
          }
        ],
        "10": [
          {
            "number": 10,
            "ticks": 0,
            "time": 0,
            "value": 0.8661417322834646
          }
        ]
      },
      "pitchBends": [
        {
          "ticks": 2960,
          "time": 3.5576887499999996,
          "value": 0.015625
        },
        {
          "ticks": 2976,
          "time": 3.5769195,
          "value": 0
        },
        {
          "ticks": 2992,
          "time": 3.5961502499999995,
          "value": -0.015625
        },
        {
          "ticks": 3008,
          "time": 3.6153809999999993,
          "value": -0.03125
        },
        {
          "ticks": 3024,
          "time": 3.6346117499999995,
          "value": -0.046875
        },
        {
          "ticks": 3040,
          "time": 3.6538424999999997,
          "value": -0.0625
        },
        {
          "ticks": 3056,
          "time": 3.6730732499999994,
          "value": -0.078125
        },
        {
          "ticks": 3072,
          "time": 3.6923039999999996,
          "value": -0.09375
        },
        {
          "ticks": 3084,
          "time": 3.7067270624999997,
          "value": 0
        },
        {
          "ticks": 3084,
          "time": 3.7067270624999997,
          "value": 0
        },
        {
          "ticks": 4620,
          "time": 5.5528790625,
          "value": 0
        },
        {
          "ticks": 6156,
          "time": 7.399031062499999,
          "value": 0
        },
        {
          "ticks": 7692,
          "time": 9.245183062499999,
          "value": 0
        },
        {
          "ticks": 9228,
          "time": 11.091335062499999,
          "value": 0
        },
        {
          "ticks": 10764,
          "time": 12.937487062499999,
          "value": 0
        },
        {
          "ticks": 12300,
          "time": 14.783639062499999,
          "value": 0
        },
        {
          "ticks": 13836,
          "time": 16.629791062499997,
          "value": 0
        },
        {
          "ticks": 15372,
          "time": 18.475943062499997,
          "value": 0
        },
        {
          "ticks": 16908,
          "time": 20.322095062499997,
          "value": 0
        },
        {
          "ticks": 18444,
          "time": 22.168247062499997,
          "value": 0
        },
        {
          "ticks": 19980,
          "time": 24.014399062499997,
          "value": 0
        },
        {
          "ticks": 21516,
          "time": 25.860551062499997,
          "value": 0
        },
        {
          "ticks": 23052,
          "time": 27.706703062499997,
          "value": 0
        },
        {
          "ticks": 24588,
          "time": 29.552855062499997,
          "value": 0
        },
        {
          "ticks": 26124,
          "time": 31.399007062499997,
          "value": 0
        },
        {
          "ticks": 27660,
          "time": 33.245159062499994,
          "value": 0
        },
        {
          "ticks": 29196,
          "time": 35.0913110625,
          "value": 0
        },
        {
          "ticks": 30732,
          "time": 36.937463062499994,
          "value": 0
        },
        {
          "ticks": 50700,
          "time": 60.93743906249999,
          "value": 0
        },
        {
          "ticks": 52236,
          "time": 62.783591062499994,
          "value": 0
        },
        {
          "ticks": 53772,
          "time": 64.62974306249998,
          "value": 0
        },
        {
          "ticks": 55308,
          "time": 66.47589506249999,
          "value": 0
        },
        {
          "ticks": 56844,
          "time": 68.32204706249999,
          "value": 0
        },
        {
          "ticks": 58380,
          "time": 70.1681990625,
          "value": 0
        },
        {
          "ticks": 59916,
          "time": 72.0143510625,
          "value": 0
        },
        {
          "ticks": 61452,
          "time": 73.86050306249999,
          "value": 0
        },
        {
          "ticks": 62988,
          "time": 75.70665506249999,
          "value": 0
        },
        {
          "ticks": 64524,
          "time": 77.5528070625,
          "value": 0
        },
        {
          "ticks": 66060,
          "time": 79.39895906249998,
          "value": 0
        },
        {
          "ticks": 67596,
          "time": 81.24511106249999,
          "value": 0
        },
        {
          "ticks": 69132,
          "time": 83.09126306249999,
          "value": 0
        },
        {
          "ticks": 70668,
          "time": 84.93741506249998,
          "value": 0
        },
        {
          "ticks": 72204,
          "time": 86.7835670625,
          "value": 0
        },
        {
          "ticks": 73740,
          "time": 88.62971906249999,
          "value": 0
        },
        {
          "ticks": 75276,
          "time": 90.47587106249999,
          "value": 0
        },
        {
          "ticks": 76812,
          "time": 92.3220230625,
          "value": 0
        },
        {
          "ticks": 78348,
          "time": 94.16817506249998,
          "value": 0
        },
        {
          "ticks": 98316,
          "time": 118.16815106249999,
          "value": 0
        },
        {
          "ticks": 99852,
          "time": 120.01430306249998,
          "value": 0
        },
        {
          "ticks": 101388,
          "time": 121.86045506249998,
          "value": 0
        },
        {
          "ticks": 102924,
          "time": 123.70660706249998,
          "value": 0
        },
        {
          "ticks": 104460,
          "time": 125.55275906249999,
          "value": 0
        },
        {
          "ticks": 105996,
          "time": 127.39891106249999,
          "value": 0
        },
        {
          "ticks": 107532,
          "time": 129.24506306249998,
          "value": 0
        },
        {
          "ticks": 109068,
          "time": 131.0912150625,
          "value": 0
        },
        {
          "ticks": 110604,
          "time": 132.9373670625,
          "value": 0
        },
        {
          "ticks": 112140,
          "time": 134.78351906249998,
          "value": 0
        },
        {
          "ticks": 113676,
          "time": 136.6296710625,
          "value": 0
        },
        {
          "ticks": 116748,
          "time": 140.32197506249997,
          "value": 0
        },
        {
          "ticks": 118284,
          "time": 142.1681270625,
          "value": 0
        },
        {
          "ticks": 119820,
          "time": 144.01427906249998,
          "value": 0
        },
        {
          "ticks": 121356,
          "time": 145.86043106249997,
          "value": 0
        },
        {
          "ticks": 122892,
          "time": 147.7065830625,
          "value": 0
        },
        {
          "ticks": 124428,
          "time": 149.55273506249998,
          "value": 0
        },
        {
          "ticks": 125964,
          "time": 151.39888706249997,
          "value": 0
        },
        {
          "ticks": 127500,
          "time": 153.24503906249998,
          "value": 0
        },
        {
          "ticks": 129036,
          "time": 155.09119106249997,
          "value": 0
        },
        {
          "ticks": 130572,
          "time": 156.9373430625,
          "value": 0
        },
        {
          "ticks": 132108,
          "time": 158.78349506249998,
          "value": 0
        },
        {
          "ticks": 155148,
          "time": 186.47577506249996,
          "value": 0
        },
        {
          "ticks": 156684,
          "time": 188.32192706249998,
          "value": 0
        },
        {
          "ticks": 158220,
          "time": 190.16807906249997,
          "value": 0
        },
        {
          "ticks": 159756,
          "time": 192.01423106249996,
          "value": 0
        },
        {
          "ticks": 161292,
          "time": 193.86038306249998,
          "value": 0
        },
        {
          "ticks": 162828,
          "time": 195.70653506249997,
          "value": 0
        },
        {
          "ticks": 164364,
          "time": 197.55268706249998,
          "value": 0
        },
        {
          "ticks": 165900,
          "time": 199.39883906249997,
          "value": 0
        },
        {
          "ticks": 167436,
          "time": 201.2449910625,
          "value": 0
        },
        {
          "ticks": 168972,
          "time": 203.09114306249998,
          "value": 0
        },
        {
          "ticks": 170508,
          "time": 204.93729506249997,
          "value": 0
        },
        {
          "ticks": 172044,
          "time": 206.7834470625,
          "value": 0
        }
      ],
      "instrument": {
        "family": "guitar",
        "number": 29,
        "name": "overdriven guitar"
      },
      "name": "",
      "notes": [
        {
          "duration": 0.15384599999999998,
          "durationTicks": 128,
          "midi": 83,
          "name": "B5",
          "ticks": 12,
          "time": 0.014423062499999998,
          "velocity": 0.6929133858267716
        },
        {
          "duration": 0.15384599999999998,
          "durationTicks": 128,
          "midi": 80,
          "name": "G#5",
          "ticks": 12,
          "time": 0.014423062499999998,
          "velocity": 0.6929133858267716
        },
        {
          "duration": 0.15384599999999998,
          "durationTicks": 128,
          "midi": 76,
          "name": "E5",
          "ticks": 12,
          "time": 0.014423062499999998,
          "velocity": 0.6929133858267716
        },
        {
          "duration": 0.15384599999999998,
          "durationTicks": 128,
          "midi": 71,
          "name": "B4",
          "ticks": 12,
          "time": 0.014423062499999998,
          "velocity": 0.6929133858267716
        },
        {
          "duration": 0.15384599999999998,
          "durationTicks": 128,
          "midi": 64,
          "name": "E4",
          "ticks": 12,
          "time": 0.014423062499999998,
          "velocity": 0.6929133858267716
        },
        {
          "duration": 0.15384599999999996,
          "durationTicks": 128,
          "midi": 83,
          "name": "B5",
          "ticks": 140,
          "time": 0.16826906249999998,
          "velocity": 0.6929133858267716
        },
        {
          "duration": 0.15384599999999996,
          "durationTicks": 128,
          "midi": 80,
          "name": "G#5",
          "ticks": 140,
          "time": 0.16826906249999998,
          "velocity": 0.6929133858267716
        },
        {
          "duration": 0.15384599999999996,
          "durationTicks": 128,
          "midi": 76,
          "name": "E5",
          "ticks": 140,
          "time": 0.16826906249999998,
          "velocity": 0.6929133858267716
        },
        {
          "duration": 0.15384599999999996,
          "durationTicks": 128,
          "midi": 71,
          "name": "B4",
          "ticks": 140,
          "time": 0.16826906249999998,
          "velocity": 0.6929133858267716
        },
        {
          "duration": 0.15384599999999996,
          "durationTicks": 128,
          "midi": 64,
          "name": "E4",
          "ticks": 140,
          "time": 0.16826906249999998,
          "velocity": 0.6929133858267716
        },
        {
          "duration": 0.15384599999999998,
          "durationTicks": 128,
          "midi": 83,
          "name": "B5",
          "ticks": 268,
          "time": 0.32211506249999994,
          "velocity": 0.6929133858267716
        },
        {
          "duration": 0.15384599999999998,
          "durationTicks": 128,
          "midi": 80,
          "name": "G#5",
          "ticks": 268,
          "time": 0.32211506249999994,
          "velocity": 0.6929133858267716
        },
        {
          "duration": 0.15384599999999998,
          "durationTicks": 128,
          "midi": 76,
          "name": "E5",
          "ticks": 268,
          "time": 0.32211506249999994,
          "velocity": 0.6929133858267716
        },
        {
          "duration": 0.15384599999999998,
          "durationTicks": 128,
          "midi": 71,
          "name": "B4",
          "ticks": 268,
          "time": 0.32211506249999994,
          "velocity": 0.6929133858267716
        },
        {
          "duration": 0.15384599999999998,
          "durationTicks": 128,
          "midi": 64,
          "name": "E4",
          "ticks": 268,
          "time": 0.32211506249999994,
          "velocity": 0.6929133858267716
        },
        {
          "duration": 0.15384599999999993,
          "durationTicks": 128,
          "midi": 83,
          "name": "B5",
          "ticks": 396,
          "time": 0.4759610624999999,
          "velocity": 0.6929133858267716
        },
        {
          "duration": 0.15384599999999993,
          "durationTicks": 128,
          "midi": 80,
          "name": "G#5",
          "ticks": 396,
          "time": 0.4759610624999999,
          "velocity": 0.6929133858267716
        },
        {
          "duration": 0.15384599999999993,
          "durationTicks": 128,
          "midi": 76,
          "name": "E5",
          "ticks": 396,
          "time": 0.4759610624999999,
          "velocity": 0.6929133858267716
        },
        {
          "duration": 0.15384599999999993,
          "durationTicks": 128,
          "midi": 71,
          "name": "B4",
          "ticks": 396,
          "time": 0.4759610624999999,
          "velocity": 0.6929133858267716
        },
        {
          "duration": 0.15384599999999993,
          "durationTicks": 128,
          "midi": 64,
          "name": "E4",
          "ticks": 396,
          "time": 0.4759610624999999,
          "velocity": 0.6929133858267716
        },
        {
          "duration": 0.15384600000000015,
          "durationTicks": 128,
          "midi": 83,
          "name": "B5",
          "ticks": 524,
          "time": 0.6298070624999998,
          "velocity": 0.6929133858267716
        },
        {
          "duration": 0.15384600000000015,
          "durationTicks": 128,
          "midi": 80,
          "name": "G#5",
          "ticks": 524,
          "time": 0.6298070624999998,
          "velocity": 0.6929133858267716
        },
        {
          "duration": 0.15384600000000015,
          "durationTicks": 128,
          "midi": 76,
          "name": "E5",
          "ticks": 524,
          "time": 0.6298070624999998,
          "velocity": 0.6929133858267716
        },
        {
          "duration": 0.15384600000000015,
          "durationTicks": 128,
          "midi": 71,
          "name": "B4",
          "ticks": 524,
          "time": 0.6298070624999998,
          "velocity": 0.6929133858267716
        },
        {
          "duration": 0.15384600000000015,
          "durationTicks": 128,
          "midi": 64,
          "name": "E4",
          "ticks": 524,
          "time": 0.6298070624999998,
          "velocity": 0.6929133858267716
        },
        {
          "duration": 0.15384599999999993,
          "durationTicks": 128,
          "midi": 83,
          "name": "B5",
          "ticks": 652,
          "time": 0.7836530625,
          "velocity": 0.6929133858267716
        },
        {
          "duration": 0.15384599999999993,
          "durationTicks": 128,
          "midi": 80,
          "name": "G#5",
          "ticks": 652,
          "time": 0.7836530625,
          "velocity": 0.6929133858267716
        },
        {
          "duration": 0.15384599999999993,
          "durationTicks": 128,
          "midi": 76,
          "name": "E5",
          "ticks": 652,
          "time": 0.7836530625,
          "velocity": 0.6929133858267716
        },
        {
          "duration": 0.15384599999999993,
          "durationTicks": 128,
          "midi": 71,
          "name": "B4",
          "ticks": 652,
          "time": 0.7836530625,
          "velocity": 0.6929133858267716
        },
        {
          "duration": 0.15384599999999993,
          "durationTicks": 128,
          "midi": 64,
          "name": "E4",
          "ticks": 652,
          "time": 0.7836530625,
          "velocity": 0.6929133858267716
        },
        {
          "duration": 0.15384599999999993,
          "durationTicks": 128,
          "midi": 83,
          "name": "B5",
          "ticks": 780,
          "time": 0.9374990624999999,
          "velocity": 0.6929133858267716
        },
        {
          "duration": 0.15384599999999993,
          "durationTicks": 128,
          "midi": 80,
          "name": "G#5",
          "ticks": 780,
          "time": 0.9374990624999999,
          "velocity": 0.6929133858267716
        },
        {
          "duration": 0.15384599999999993,
          "durationTicks": 128,
          "midi": 76,
          "name": "E5",
          "ticks": 780,
          "time": 0.9374990624999999,
          "velocity": 0.6929133858267716
        },
        {
          "duration": 0.15384599999999993,
          "durationTicks": 128,
          "midi": 71,
          "name": "B4",
          "ticks": 780,
          "time": 0.9374990624999999,
          "velocity": 0.6929133858267716
        },
        {
          "duration": 0.15384599999999993,
          "durationTicks": 128,
          "midi": 64,
          "name": "E4",
          "ticks": 780,
          "time": 0.9374990624999999,
          "velocity": 0.6929133858267716
        },
        {
          "duration": 0.15384599999999993,
          "durationTicks": 128,
          "midi": 83,
          "name": "B5",
          "ticks": 908,
          "time": 1.0913450624999999,
          "velocity": 0.6929133858267716
        },
        {
          "duration": 0.15384599999999993,
          "durationTicks": 128,
          "midi": 80,
          "name": "G#5",
          "ticks": 908,
          "time": 1.0913450624999999,
          "velocity": 0.6929133858267716
        },
        {
          "duration": 0.15384599999999993,
          "durationTicks": 128,
          "midi": 76,
          "name": "E5",
          "ticks": 908,
          "time": 1.0913450624999999,
          "velocity": 0.6929133858267716
        },
        {
          "duration": 0.15384599999999993,
          "durationTicks": 128,
          "midi": 71,
          "name": "B4",
          "ticks": 908,
          "time": 1.0913450624999999,
          "velocity": 0.6929133858267716
        },
        {
          "duration": 0.15384599999999993,
          "durationTicks": 128,
          "midi": 64,
          "name": "E4",
          "ticks": 908,
          "time": 1.0913450624999999,
          "velocity": 0.6929133858267716
        },
        {
          "duration": 0.15384600000000015,
          "durationTicks": 128,
          "midi": 83,
          "name": "B5",
          "ticks": 1036,
          "time": 1.2451910624999998,
          "velocity": 0.6929133858267716
        },
        {
          "duration": 0.15384600000000015,
          "durationTicks": 128,
          "midi": 80,
          "name": "G#5",
          "ticks": 1036,
          "time": 1.2451910624999998,
          "velocity": 0.6929133858267716
        },
        {
          "duration": 0.15384600000000015,
          "durationTicks": 128,
          "midi": 76,
          "name": "E5",
          "ticks": 1036,
          "time": 1.2451910624999998,
          "velocity": 0.6929133858267716
        },
        {
          "duration": 0.15384600000000015,
          "durationTicks": 128,
          "midi": 71,
          "name": "B4",
          "ticks": 1036,
          "time": 1.2451910624999998,
          "velocity": 0.6929133858267716
        },
        {
          "duration": 0.15384600000000015,
          "durationTicks": 128,
          "midi": 64,
          "name": "E4",
          "ticks": 1036,
          "time": 1.2451910624999998,
          "velocity": 0.6929133858267716
        },
        {
          "duration": 0.15384599999999993,
          "durationTicks": 128,
          "midi": 83,
          "name": "B5",
          "ticks": 1164,
          "time": 1.3990370625,
          "velocity": 0.6929133858267716
        },
        {
          "duration": 0.15384599999999993,
          "durationTicks": 128,
          "midi": 80,
          "name": "G#5",
          "ticks": 1164,
          "time": 1.3990370625,
          "velocity": 0.6929133858267716
        },
        {
          "duration": 0.15384599999999993,
          "durationTicks": 128,
          "midi": 76,
          "name": "E5",
          "ticks": 1164,
          "time": 1.3990370625,
          "velocity": 0.6929133858267716
        },
        {
          "duration": 0.15384599999999993,
          "durationTicks": 128,
          "midi": 71,
          "name": "B4",
          "ticks": 1164,
          "time": 1.3990370625,
          "velocity": 0.6929133858267716
        },
        {
          "duration": 0.15384599999999993,
          "durationTicks": 128,
          "midi": 64,
          "name": "E4",
          "ticks": 1164,
          "time": 1.3990370625,
          "velocity": 0.6929133858267716
        },
        {
          "duration": 0.15384599999999993,
          "durationTicks": 128,
          "midi": 83,
          "name": "B5",
          "ticks": 1292,
          "time": 1.5528830624999999,
          "velocity": 0.6929133858267716
        },
        {
          "duration": 0.15384599999999993,
          "durationTicks": 128,
          "midi": 80,
          "name": "G#5",
          "ticks": 1292,
          "time": 1.5528830624999999,
          "velocity": 0.6929133858267716
        },
        {
          "duration": 0.15384599999999993,
          "durationTicks": 128,
          "midi": 76,
          "name": "E5",
          "ticks": 1292,
          "time": 1.5528830624999999,
          "velocity": 0.6929133858267716
        },
        {
          "duration": 0.15384599999999993,
          "durationTicks": 128,
          "midi": 71,
          "name": "B4",
          "ticks": 1292,
          "time": 1.5528830624999999,
          "velocity": 0.6929133858267716
        },
        {
          "duration": 0.15384599999999993,
          "durationTicks": 128,
          "midi": 64,
          "name": "E4",
          "ticks": 1292,
          "time": 1.5528830624999999,
          "velocity": 0.6929133858267716
        },
        {
          "duration": 0.15384599999999993,
          "durationTicks": 128,
          "midi": 83,
          "name": "B5",
          "ticks": 1420,
          "time": 1.7067290624999998,
          "velocity": 0.6929133858267716
        },
        {
          "duration": 0.15384599999999993,
          "durationTicks": 128,
          "midi": 80,
          "name": "G#5",
          "ticks": 1420,
          "time": 1.7067290624999998,
          "velocity": 0.6929133858267716
        },
        {
          "duration": 0.15384599999999993,
          "durationTicks": 128,
          "midi": 76,
          "name": "E5",
          "ticks": 1420,
          "time": 1.7067290624999998,
          "velocity": 0.6929133858267716
        },
        {
          "duration": 0.15384599999999993,
          "durationTicks": 128,
          "midi": 71,
          "name": "B4",
          "ticks": 1420,
          "time": 1.7067290624999998,
          "velocity": 0.6929133858267716
        },
        {
          "duration": 0.15384599999999993,
          "durationTicks": 128,
          "midi": 64,
          "name": "E4",
          "ticks": 1420,
          "time": 1.7067290624999998,
          "velocity": 0.6929133858267716
        },
        {
          "duration": 0.15384600000000015,
          "durationTicks": 128,
          "midi": 83,
          "name": "B5",
          "ticks": 1548,
          "time": 1.8605750624999997,
          "velocity": 0.6929133858267716
        },
        {
          "duration": 0.15384600000000015,
          "durationTicks": 128,
          "midi": 80,
          "name": "G#5",
          "ticks": 1548,
          "time": 1.8605750624999997,
          "velocity": 0.6929133858267716
        },
        {
          "duration": 0.15384600000000015,
          "durationTicks": 128,
          "midi": 76,
          "name": "E5",
          "ticks": 1548,
          "time": 1.8605750624999997,
          "velocity": 0.6929133858267716
        },
        {
          "duration": 0.15384600000000015,
          "durationTicks": 128,
          "midi": 71,
          "name": "B4",
          "ticks": 1548,
          "time": 1.8605750624999997,
          "velocity": 0.6929133858267716
        },
        {
          "duration": 0.15384600000000015,
          "durationTicks": 128,
          "midi": 64,
          "name": "E4",
          "ticks": 1548,
          "time": 1.8605750624999997,
          "velocity": 0.6929133858267716
        },
        {
          "duration": 0.15384600000000015,
          "durationTicks": 128,
          "midi": 83,
          "name": "B5",
          "ticks": 1676,
          "time": 2.0144210625,
          "velocity": 0.6929133858267716
        },
        {
          "duration": 0.15384600000000015,
          "durationTicks": 128,
          "midi": 80,
          "name": "G#5",
          "ticks": 1676,
          "time": 2.0144210625,
          "velocity": 0.6929133858267716
        },
        {
          "duration": 0.15384600000000015,
          "durationTicks": 128,
          "midi": 76,
          "name": "E5",
          "ticks": 1676,
          "time": 2.0144210625,
          "velocity": 0.6929133858267716
        },
        {
          "duration": 0.15384600000000015,
          "durationTicks": 128,
          "midi": 71,
          "name": "B4",
          "ticks": 1676,
          "time": 2.0144210625,
          "velocity": 0.6929133858267716
        },
        {
          "duration": 0.15384600000000015,
          "durationTicks": 128,
          "midi": 64,
          "name": "E4",
          "ticks": 1676,
          "time": 2.0144210625,
          "velocity": 0.6929133858267716
        },
        {
          "duration": 0.1538459999999997,
          "durationTicks": 128,
          "midi": 83,
          "name": "B5",
          "ticks": 1804,
          "time": 2.1682670625,
          "velocity": 0.6929133858267716
        },
        {
          "duration": 0.1538459999999997,
          "durationTicks": 128,
          "midi": 80,
          "name": "G#5",
          "ticks": 1804,
          "time": 2.1682670625,
          "velocity": 0.6929133858267716
        },
        {
          "duration": 0.1538459999999997,
          "durationTicks": 128,
          "midi": 76,
          "name": "E5",
          "ticks": 1804,
          "time": 2.1682670625,
          "velocity": 0.6929133858267716
        },
        {
          "duration": 0.1538459999999997,
          "durationTicks": 128,
          "midi": 71,
          "name": "B4",
          "ticks": 1804,
          "time": 2.1682670625,
          "velocity": 0.6929133858267716
        },
        {
          "duration": 0.1538459999999997,
          "durationTicks": 128,
          "midi": 64,
          "name": "E4",
          "ticks": 1804,
          "time": 2.1682670625,
          "velocity": 0.6929133858267716
        },
        {
          "duration": 0.1538459999999997,
          "durationTicks": 128,
          "midi": 83,
          "name": "B5",
          "ticks": 1932,
          "time": 2.3221130624999997,
          "velocity": 0.6929133858267716
        },
        {
          "duration": 0.1538459999999997,
          "durationTicks": 128,
          "midi": 80,
          "name": "G#5",
          "ticks": 1932,
          "time": 2.3221130624999997,
          "velocity": 0.6929133858267716
        },
        {
          "duration": 0.1538459999999997,
          "durationTicks": 128,
          "midi": 76,
          "name": "E5",
          "ticks": 1932,
          "time": 2.3221130624999997,
          "velocity": 0.6929133858267716
        },
        {
          "duration": 0.1538459999999997,
          "durationTicks": 128,
          "midi": 71,
          "name": "B4",
          "ticks": 1932,
          "time": 2.3221130624999997,
          "velocity": 0.6929133858267716
        },
        {
          "duration": 0.1538459999999997,
          "durationTicks": 128,
          "midi": 64,
          "name": "E4",
          "ticks": 1932,
          "time": 2.3221130624999997,
          "velocity": 0.6929133858267716
        },
        {
          "duration": 0.1538460000000006,
          "durationTicks": 128,
          "midi": 83,
          "name": "B5",
          "ticks": 2060,
          "time": 2.4759590624999994,
          "velocity": 0.6929133858267716
        },
        {
          "duration": 0.1538460000000006,
          "durationTicks": 128,
          "midi": 80,
          "name": "G#5",
          "ticks": 2060,
          "time": 2.4759590624999994,
          "velocity": 0.6929133858267716
        },
        {
          "duration": 0.1538460000000006,
          "durationTicks": 128,
          "midi": 76,
          "name": "E5",
          "ticks": 2060,
          "time": 2.4759590624999994,
          "velocity": 0.6929133858267716
        },
        {
          "duration": 0.1538460000000006,
          "durationTicks": 128,
          "midi": 71,
          "name": "B4",
          "ticks": 2060,
          "time": 2.4759590624999994,
          "velocity": 0.6929133858267716
        },
        {
          "duration": 0.1538460000000006,
          "durationTicks": 128,
          "midi": 64,
          "name": "E4",
          "ticks": 2060,
          "time": 2.4759590624999994,
          "velocity": 0.6929133858267716
        },
        {
          "duration": 0.1538459999999997,
          "durationTicks": 128,
          "midi": 83,
          "name": "B5",
          "ticks": 2188,
          "time": 2.6298050625,
          "velocity": 0.6929133858267716
        },
        {
          "duration": 0.1538459999999997,
          "durationTicks": 128,
          "midi": 80,
          "name": "G#5",
          "ticks": 2188,
          "time": 2.6298050625,
          "velocity": 0.6929133858267716
        },
        {
          "duration": 0.1538459999999997,
          "durationTicks": 128,
          "midi": 76,
          "name": "E5",
          "ticks": 2188,
          "time": 2.6298050625,
          "velocity": 0.6929133858267716
        },
        {
          "duration": 0.1538459999999997,
          "durationTicks": 128,
          "midi": 71,
          "name": "B4",
          "ticks": 2188,
          "time": 2.6298050625,
          "velocity": 0.6929133858267716
        },
        {
          "duration": 0.1538459999999997,
          "durationTicks": 128,
          "midi": 64,
          "name": "E4",
          "ticks": 2188,
          "time": 2.6298050625,
          "velocity": 0.6929133858267716
        },
        {
          "duration": 0.1538459999999997,
          "durationTicks": 128,
          "midi": 80,
          "name": "G#5",
          "ticks": 2316,
          "time": 2.7836510624999997,
          "velocity": 0.6929133858267716
        },
        {
          "duration": 0.1538459999999997,
          "durationTicks": 128,
          "midi": 76,
          "name": "E5",
          "ticks": 2316,
          "time": 2.7836510624999997,
          "velocity": 0.6929133858267716
        },
        {
          "duration": 0.1538459999999997,
          "durationTicks": 128,
          "midi": 71,
          "name": "B4",
          "ticks": 2316,
          "time": 2.7836510624999997,
          "velocity": 0.6929133858267716
        },
        {
          "duration": 0.1538459999999997,
          "durationTicks": 128,
          "midi": 64,
          "name": "E4",
          "ticks": 2316,
          "time": 2.7836510624999997,
          "velocity": 0.6929133858267716
        },
        {
          "duration": 0.1538459999999997,
          "durationTicks": 128,
          "midi": 83,
          "name": "B5",
          "ticks": 2316,
          "time": 2.7836510624999997,
          "velocity": 0.6929133858267716
        },
        {
          "duration": 0.15384600000000015,
          "durationTicks": 128,
          "midi": 83,
          "name": "B5",
          "ticks": 2444,
          "time": 2.9374970624999994,
          "velocity": 0.6929133858267716
        },
        {
          "duration": 0.15384600000000015,
          "durationTicks": 128,
          "midi": 71,
          "name": "B4",
          "ticks": 2444,
          "time": 2.9374970624999994,
          "velocity": 0.6929133858267716
        },
        {
          "duration": 0.15384600000000015,
          "durationTicks": 128,
          "midi": 64,
          "name": "E4",
          "ticks": 2444,
          "time": 2.9374970624999994,
          "velocity": 0.6929133858267716
        },
        {
          "duration": 0.15384600000000015,
          "durationTicks": 128,
          "midi": 80,
          "name": "G#5",
          "ticks": 2444,
          "time": 2.9374970624999994,
          "velocity": 0.6929133858267716
        },
        {
          "duration": 0.15384600000000015,
          "durationTicks": 128,
          "midi": 76,
          "name": "E5",
          "ticks": 2444,
          "time": 2.9374970624999994,
          "velocity": 0.6929133858267716
        },
        {
          "duration": 0.15384600000000015,
          "durationTicks": 128,
          "midi": 76,
          "name": "E5",
          "ticks": 2572,
          "time": 3.0913430624999996,
          "velocity": 0.6929133858267716
        },
        {
          "duration": 0.15384600000000015,
          "durationTicks": 128,
          "midi": 83,
          "name": "B5",
          "ticks": 2572,
          "time": 3.0913430624999996,
          "velocity": 0.6929133858267716
        },
        {
          "duration": 0.15384600000000015,
          "durationTicks": 128,
          "midi": 80,
          "name": "G#5",
          "ticks": 2572,
          "time": 3.0913430624999996,
          "velocity": 0.6929133858267716
        },
        {
          "duration": 0.15384600000000015,
          "durationTicks": 128,
          "midi": 64,
          "name": "E4",
          "ticks": 2572,
          "time": 3.0913430624999996,
          "velocity": 0.6929133858267716
        },
        {
          "duration": 0.15384600000000015,
          "durationTicks": 128,
          "midi": 71,
          "name": "B4",
          "ticks": 2572,
          "time": 3.0913430624999996,
          "velocity": 0.6929133858267716
        },
        {
          "duration": 0.461538,
          "durationTicks": 384,
          "midi": 80,
          "name": "G#5",
          "ticks": 2700,
          "time": 3.2451890624999997,
          "velocity": 0.6929133858267716
        },
        {
          "duration": 0.461538,
          "durationTicks": 384,
          "midi": 71,
          "name": "B4",
          "ticks": 2700,
          "time": 3.2451890624999997,
          "velocity": 0.6929133858267716
        },
        {
          "duration": 0.461538,
          "durationTicks": 384,
          "midi": 64,
          "name": "E4",
          "ticks": 2700,
          "time": 3.2451890624999997,
          "velocity": 0.6929133858267716
        },
        {
          "duration": 0.461538,
          "durationTicks": 384,
          "midi": 76,
          "name": "E5",
          "ticks": 2700,
          "time": 3.2451890624999997,
          "velocity": 0.6929133858267716
        },
        {
          "duration": 0.461538,
          "durationTicks": 384,
          "midi": 83,
          "name": "B5",
          "ticks": 2700,
          "time": 3.2451890624999997,
          "velocity": 0.6929133858267716
        },
        {
          "duration": 0.230769,
          "durationTicks": 192,
          "midi": 59,
          "name": "B3",
          "ticks": 3084,
          "time": 3.7067270624999997,
          "velocity": 0.6929133858267716
        },
        {
          "duration": 0.230769,
          "durationTicks": 192,
          "midi": 52,
          "name": "E3",
          "ticks": 3084,
          "time": 3.7067270624999997,
          "velocity": 0.6929133858267716
        },
        {
          "duration": 0.230769,
          "durationTicks": 192,
          "midi": 59,
          "name": "B3",
          "ticks": 3084,
          "time": 3.7067270624999997,
          "velocity": 0.6929133858267716
        },
        {
          "duration": 0.230769,
          "durationTicks": 192,
          "midi": 52,
          "name": "E3",
          "ticks": 3084,
          "time": 3.7067270624999997,
          "velocity": 0.6929133858267716
        },
        {
          "duration": 0.23076899999999956,
          "durationTicks": 192,
          "midi": 59,
          "name": "B3",
          "ticks": 3468,
          "time": 4.1682650625,
          "velocity": 0.6929133858267716
        },
        {
          "duration": 0.23076899999999956,
          "durationTicks": 192,
          "midi": 52,
          "name": "E3",
          "ticks": 3468,
          "time": 4.1682650625,
          "velocity": 0.6929133858267716
        },
        {
          "duration": 0.23076899999999956,
          "durationTicks": 192,
          "midi": 59,
          "name": "B3",
          "ticks": 3468,
          "time": 4.1682650625,
          "velocity": 0.6929133858267716
        },
        {
          "duration": 0.23076899999999956,
          "durationTicks": 192,
          "midi": 52,
          "name": "E3",
          "ticks": 3468,
          "time": 4.1682650625,
          "velocity": 0.6929133858267716
        },
        {
          "duration": 0.3461534999999998,
          "durationTicks": 288,
          "midi": 59,
          "name": "B3",
          "ticks": 3852,
          "time": 4.6298030625,
          "velocity": 0.6929133858267716
        },
        {
          "duration": 0.3461534999999998,
          "durationTicks": 288,
          "midi": 52,
          "name": "E3",
          "ticks": 3852,
          "time": 4.6298030625,
          "velocity": 0.6929133858267716
        },
        {
          "duration": 0.3461534999999998,
          "durationTicks": 288,
          "midi": 59,
          "name": "B3",
          "ticks": 3852,
          "time": 4.6298030625,
          "velocity": 0.6929133858267716
        },
        {
          "duration": 0.3461534999999998,
          "durationTicks": 288,
          "midi": 52,
          "name": "E3",
          "ticks": 3852,
          "time": 4.6298030625,
          "velocity": 0.6929133858267716
        },
        {
          "duration": 0.11538450000000022,
          "durationTicks": 96,
          "midi": 67,
          "name": "G4",
          "ticks": 4140,
          "time": 4.9759565624999995,
          "velocity": 0.6929133858267716
        },
        {
          "duration": 0.11538450000000022,
          "durationTicks": 96,
          "midi": 62,
          "name": "D4",
          "ticks": 4140,
          "time": 4.9759565624999995,
          "velocity": 0.6929133858267716
        },
        {
          "duration": 0.11538450000000022,
          "durationTicks": 96,
          "midi": 67,
          "name": "G4",
          "ticks": 4140,
          "time": 4.9759565624999995,
          "velocity": 0.6929133858267716
        },
        {
          "duration": 0.11538450000000022,
          "durationTicks": 96,
          "midi": 62,
          "name": "D4",
          "ticks": 4140,
          "time": 4.9759565624999995,
          "velocity": 0.6929133858267716
        },
        {
          "duration": 0.3461534999999998,
          "durationTicks": 288,
          "midi": 69,
          "name": "A4",
          "ticks": 4236,
          "time": 5.0913410625,
          "velocity": 0.6929133858267716
        },
        {
          "duration": 0.3461534999999998,
          "durationTicks": 288,
          "midi": 64,
          "name": "E4",
          "ticks": 4236,
          "time": 5.0913410625,
          "velocity": 0.6929133858267716
        },
        {
          "duration": 0.3461534999999998,
          "durationTicks": 288,
          "midi": 69,
          "name": "A4",
          "ticks": 4236,
          "time": 5.0913410625,
          "velocity": 0.6929133858267716
        },
        {
          "duration": 0.3461534999999998,
          "durationTicks": 288,
          "midi": 64,
          "name": "E4",
          "ticks": 4236,
          "time": 5.0913410625,
          "velocity": 0.6929133858267716
        },
        {
          "duration": 0.11538450000000022,
          "durationTicks": 96,
          "midi": 67,
          "name": "G4",
          "ticks": 4524,
          "time": 5.4374945624999995,
          "velocity": 0.6929133858267716
        },
        {
          "duration": 0.11538450000000022,
          "durationTicks": 96,
          "midi": 62,
          "name": "D4",
          "ticks": 4524,
          "time": 5.4374945624999995,
          "velocity": 0.6929133858267716
        },
        {
          "duration": 0.11538450000000022,
          "durationTicks": 96,
          "midi": 67,
          "name": "G4",
          "ticks": 4524,
          "time": 5.4374945624999995,
          "velocity": 0.6929133858267716
        },
        {
          "duration": 0.11538450000000022,
          "durationTicks": 96,
          "midi": 62,
          "name": "D4",
          "ticks": 4524,
          "time": 5.4374945624999995,
          "velocity": 0.6929133858267716
        },
        {
          "duration": 0.23076899999999956,
          "durationTicks": 192,
          "midi": 59,
          "name": "B3",
          "ticks": 4620,
          "time": 5.5528790625,
          "velocity": 0.6929133858267716
        },
        {
          "duration": 0.23076899999999956,
          "durationTicks": 192,
          "midi": 52,
          "name": "E3",
          "ticks": 4620,
          "time": 5.5528790625,
          "velocity": 0.6929133858267716
        },
        {
          "duration": 0.23076899999999956,
          "durationTicks": 192,
          "midi": 59,
          "name": "B3",
          "ticks": 5004,
          "time": 6.0144170625,
          "velocity": 0.6929133858267716
        },
        {
          "duration": 0.23076899999999956,
          "durationTicks": 192,
          "midi": 52,
          "name": "E3",
          "ticks": 5004,
          "time": 6.0144170625,
          "velocity": 0.6929133858267716
        },
        {
          "duration": 0.34615350000000067,
          "durationTicks": 288,
          "midi": 59,
          "name": "B3",
          "ticks": 5388,
          "time": 6.475955062499999,
          "velocity": 0.6929133858267716
        },
        {
          "duration": 0.34615350000000067,
          "durationTicks": 288,
          "midi": 52,
          "name": "E3",
          "ticks": 5388,
          "time": 6.475955062499999,
          "velocity": 0.6929133858267716
        },
        {
          "duration": 0.11538449999999933,
          "durationTicks": 96,
          "midi": 67,
          "name": "G4",
          "ticks": 5676,
          "time": 6.8221085624999995,
          "velocity": 0.6929133858267716
        },
        {
          "duration": 0.11538449999999933,
          "durationTicks": 96,
          "midi": 62,
          "name": "D4",
          "ticks": 5676,
          "time": 6.8221085624999995,
          "velocity": 0.6929133858267716
        },
        {
          "duration": 0.34615350000000067,
          "durationTicks": 288,
          "midi": 69,
          "name": "A4",
          "ticks": 5772,
          "time": 6.937493062499999,
          "velocity": 0.6929133858267716
        },
        {
          "duration": 0.34615350000000067,
          "durationTicks": 288,
          "midi": 64,
          "name": "E4",
          "ticks": 5772,
          "time": 6.937493062499999,
          "velocity": 0.6929133858267716
        },
        {
          "duration": 0.11538449999999933,
          "durationTicks": 96,
          "midi": 67,
          "name": "G4",
          "ticks": 6060,
          "time": 7.2836465624999995,
          "velocity": 0.6929133858267716
        },
        {
          "duration": 0.11538449999999933,
          "durationTicks": 96,
          "midi": 62,
          "name": "D4",
          "ticks": 6060,
          "time": 7.2836465624999995,
          "velocity": 0.6929133858267716
        },
        {
          "duration": 0.23076900000000045,
          "durationTicks": 192,
          "midi": 59,
          "name": "B3",
          "ticks": 6156,
          "time": 7.399031062499999,
          "velocity": 0.6929133858267716
        },
        {
          "duration": 0.23076900000000045,
          "durationTicks": 192,
          "midi": 52,
          "name": "E3",
          "ticks": 6156,
          "time": 7.399031062499999,
          "velocity": 0.6929133858267716
        },
        {
          "duration": 0.23076899999999956,
          "durationTicks": 192,
          "midi": 59,
          "name": "B3",
          "ticks": 6540,
          "time": 7.860569062499999,
          "velocity": 0.6929133858267716
        },
        {
          "duration": 0.23076899999999956,
          "durationTicks": 192,
          "midi": 52,
          "name": "E3",
          "ticks": 6540,
          "time": 7.860569062499999,
          "velocity": 0.6929133858267716
        },
        {
          "duration": 0.3461534999999998,
          "durationTicks": 288,
          "midi": 59,
          "name": "B3",
          "ticks": 6924,
          "time": 8.322107062499999,
          "velocity": 0.6929133858267716
        },
        {
          "duration": 0.3461534999999998,
          "durationTicks": 288,
          "midi": 52,
          "name": "E3",
          "ticks": 6924,
          "time": 8.322107062499999,
          "velocity": 0.6929133858267716
        },
        {
          "duration": 0.11538450000000111,
          "durationTicks": 96,
          "midi": 67,
          "name": "G4",
          "ticks": 7212,
          "time": 8.668260562499999,
          "velocity": 0.6929133858267716
        },
        {
          "duration": 0.11538450000000111,
          "durationTicks": 96,
          "midi": 62,
          "name": "D4",
          "ticks": 7212,
          "time": 8.668260562499999,
          "velocity": 0.6929133858267716
        },
        {
          "duration": 0.3461534999999998,
          "durationTicks": 288,
          "midi": 69,
          "name": "A4",
          "ticks": 7308,
          "time": 8.7836450625,
          "velocity": 0.6929133858267716
        },
        {
          "duration": 0.3461534999999998,
          "durationTicks": 288,
          "midi": 64,
          "name": "E4",
          "ticks": 7308,
          "time": 8.7836450625,
          "velocity": 0.6929133858267716
        },
        {
          "duration": 0.11538449999999933,
          "durationTicks": 96,
          "midi": 67,
          "name": "G4",
          "ticks": 7596,
          "time": 9.1297985625,
          "velocity": 0.6929133858267716
        },
        {
          "duration": 0.11538449999999933,
          "durationTicks": 96,
          "midi": 62,
          "name": "D4",
          "ticks": 7596,
          "time": 9.1297985625,
          "velocity": 0.6929133858267716
        },
        {
          "duration": 0.23076900000000045,
          "durationTicks": 192,
          "midi": 59,
          "name": "B3",
          "ticks": 7692,
          "time": 9.245183062499999,
          "velocity": 0.6929133858267716
        },
        {
          "duration": 0.23076900000000045,
          "durationTicks": 192,
          "midi": 52,
          "name": "E3",
          "ticks": 7692,
          "time": 9.245183062499999,
          "velocity": 0.6929133858267716
        },
        {
          "duration": 0.23076899999999867,
          "durationTicks": 192,
          "midi": 59,
          "name": "B3",
          "ticks": 8076,
          "time": 9.7067210625,
          "velocity": 0.6929133858267716
        },
        {
          "duration": 0.23076899999999867,
          "durationTicks": 192,
          "midi": 52,
          "name": "E3",
          "ticks": 8076,
          "time": 9.7067210625,
          "velocity": 0.6929133858267716
        },
        {
          "duration": 0.3461534999999998,
          "durationTicks": 288,
          "midi": 59,
          "name": "B3",
          "ticks": 8460,
          "time": 10.168259062499999,
          "velocity": 0.6929133858267716
        },
        {
          "duration": 0.3461534999999998,
          "durationTicks": 288,
          "midi": 52,
          "name": "E3",
          "ticks": 8460,
          "time": 10.168259062499999,
          "velocity": 0.6929133858267716
        },
        {
          "duration": 0.11538449999999933,
          "durationTicks": 96,
          "midi": 67,
          "name": "G4",
          "ticks": 8748,
          "time": 10.514412562499999,
          "velocity": 0.6929133858267716
        },
        {
          "duration": 0.11538449999999933,
          "durationTicks": 96,
          "midi": 62,
          "name": "D4",
          "ticks": 8748,
          "time": 10.514412562499999,
          "velocity": 0.6929133858267716
        },
        {
          "duration": 0.34615350000000156,
          "durationTicks": 288,
          "midi": 69,
          "name": "A4",
          "ticks": 8844,
          "time": 10.629797062499998,
          "velocity": 0.6929133858267716
        },
        {
          "duration": 0.34615350000000156,
          "durationTicks": 288,
          "midi": 64,
          "name": "E4",
          "ticks": 8844,
          "time": 10.629797062499998,
          "velocity": 0.6929133858267716
        },
        {
          "duration": 0.10096143749999875,
          "durationTicks": 84,
          "midi": 67,
          "name": "G4",
          "ticks": 9132,
          "time": 10.9759505625,
          "velocity": 0.6929133858267716
        },
        {
          "duration": 0.10096143749999875,
          "durationTicks": 84,
          "midi": 62,
          "name": "D4",
          "ticks": 9132,
          "time": 10.9759505625,
          "velocity": 0.6929133858267716
        },
        {
          "duration": 0.23076900000000045,
          "durationTicks": 192,
          "midi": 59,
          "name": "B3",
          "ticks": 9228,
          "time": 11.091335062499999,
          "velocity": 0.6929133858267716
        },
        {
          "duration": 0.23076900000000045,
          "durationTicks": 192,
          "midi": 52,
          "name": "E3",
          "ticks": 9228,
          "time": 11.091335062499999,
          "velocity": 0.6929133858267716
        },
        {
          "duration": 0.23076900000000045,
          "durationTicks": 192,
          "midi": 59,
          "name": "B3",
          "ticks": 9612,
          "time": 11.552873062499998,
          "velocity": 0.6929133858267716
        },
        {
          "duration": 0.23076900000000045,
          "durationTicks": 192,
          "midi": 52,
          "name": "E3",
          "ticks": 9612,
          "time": 11.552873062499998,
          "velocity": 0.6929133858267716
        },
        {
          "duration": 0.3461534999999998,
          "durationTicks": 288,
          "midi": 59,
          "name": "B3",
          "ticks": 9996,
          "time": 12.014411062499999,
          "velocity": 0.6929133858267716
        },
        {
          "duration": 0.3461534999999998,
          "durationTicks": 288,
          "midi": 52,
          "name": "E3",
          "ticks": 9996,
          "time": 12.014411062499999,
          "velocity": 0.6929133858267716
        },
        {
          "duration": 0.11538449999999933,
          "durationTicks": 96,
          "midi": 67,
          "name": "G4",
          "ticks": 10284,
          "time": 12.360564562499999,
          "velocity": 0.6929133858267716
        },
        {
          "duration": 0.11538449999999933,
          "durationTicks": 96,
          "midi": 62,
          "name": "D4",
          "ticks": 10284,
          "time": 12.360564562499999,
          "velocity": 0.6929133858267716
        },
        {
          "duration": 0.3461534999999998,
          "durationTicks": 288,
          "midi": 69,
          "name": "A4",
          "ticks": 10380,
          "time": 12.475949062499998,
          "velocity": 0.6929133858267716
        },
        {
          "duration": 0.3461534999999998,
          "durationTicks": 288,
          "midi": 64,
          "name": "E4",
          "ticks": 10380,
          "time": 12.475949062499998,
          "velocity": 0.6929133858267716
        },
        {
          "duration": 0.11538450000000111,
          "durationTicks": 96,
          "midi": 67,
          "name": "G4",
          "ticks": 10668,
          "time": 12.822102562499998,
          "velocity": 0.6929133858267716
        },
        {
          "duration": 0.11538450000000111,
          "durationTicks": 96,
          "midi": 62,
          "name": "D4",
          "ticks": 10668,
          "time": 12.822102562499998,
          "velocity": 0.6929133858267716
        },
        {
          "duration": 0.23076900000000045,
          "durationTicks": 192,
          "midi": 59,
          "name": "B3",
          "ticks": 10764,
          "time": 12.937487062499999,
          "velocity": 0.6929133858267716
        },
        {
          "duration": 0.23076900000000045,
          "durationTicks": 192,
          "midi": 52,
          "name": "E3",
          "ticks": 10764,
          "time": 12.937487062499999,
          "velocity": 0.6929133858267716
        },
        {
          "duration": 0.23076900000000045,
          "durationTicks": 192,
          "midi": 59,
          "name": "B3",
          "ticks": 11148,
          "time": 13.399025062499998,
          "velocity": 0.6929133858267716
        },
        {
          "duration": 0.23076900000000045,
          "durationTicks": 192,
          "midi": 52,
          "name": "E3",
          "ticks": 11148,
          "time": 13.399025062499998,
          "velocity": 0.6929133858267716
        },
        {
          "duration": 0.3461534999999998,
          "durationTicks": 288,
          "midi": 59,
          "name": "B3",
          "ticks": 11532,
          "time": 13.860563062499999,
          "velocity": 0.6929133858267716
        },
        {
          "duration": 0.3461534999999998,
          "durationTicks": 288,
          "midi": 52,
          "name": "E3",
          "ticks": 11532,
          "time": 13.860563062499999,
          "velocity": 0.6929133858267716
        },
        {
          "duration": 0.11538449999999933,
          "durationTicks": 96,
          "midi": 67,
          "name": "G4",
          "ticks": 11820,
          "time": 14.206716562499999,
          "velocity": 0.6929133858267716
        },
        {
          "duration": 0.11538449999999933,
          "durationTicks": 96,
          "midi": 62,
          "name": "D4",
          "ticks": 11820,
          "time": 14.206716562499999,
          "velocity": 0.6929133858267716
        },
        {
          "duration": 0.3461534999999998,
          "durationTicks": 288,
          "midi": 69,
          "name": "A4",
          "ticks": 11916,
          "time": 14.322101062499998,
          "velocity": 0.6929133858267716
        },
        {
          "duration": 0.3461534999999998,
          "durationTicks": 288,
          "midi": 64,
          "name": "E4",
          "ticks": 11916,
          "time": 14.322101062499998,
          "velocity": 0.6929133858267716
        },
        {
          "duration": 0.11538450000000111,
          "durationTicks": 96,
          "midi": 67,
          "name": "G4",
          "ticks": 12204,
          "time": 14.668254562499998,
          "velocity": 0.6929133858267716
        },
        {
          "duration": 0.11538450000000111,
          "durationTicks": 96,
          "midi": 62,
          "name": "D4",
          "ticks": 12204,
          "time": 14.668254562499998,
          "velocity": 0.6929133858267716
        },
        {
          "duration": 0.23076899999999867,
          "durationTicks": 192,
          "midi": 59,
          "name": "B3",
          "ticks": 12300,
          "time": 14.783639062499999,
          "velocity": 0.6929133858267716
        },
        {
          "duration": 0.23076899999999867,
          "durationTicks": 192,
          "midi": 52,
          "name": "E3",
          "ticks": 12300,
          "time": 14.783639062499999,
          "velocity": 0.6929133858267716
        },
        {
          "duration": 0.23076900000000045,
          "durationTicks": 192,
          "midi": 59,
          "name": "B3",
          "ticks": 12684,
          "time": 15.245177062499998,
          "velocity": 0.6929133858267716
        },
        {
          "duration": 0.23076900000000045,
          "durationTicks": 192,
          "midi": 52,
          "name": "E3",
          "ticks": 12684,
          "time": 15.245177062499998,
          "velocity": 0.6929133858267716
        },
        {
          "duration": 0.3461534999999998,
          "durationTicks": 288,
          "midi": 59,
          "name": "B3",
          "ticks": 13068,
          "time": 15.706715062499999,
          "velocity": 0.6929133858267716
        },
        {
          "duration": 0.3461534999999998,
          "durationTicks": 288,
          "midi": 52,
          "name": "E3",
          "ticks": 13068,
          "time": 15.706715062499999,
          "velocity": 0.6929133858267716
        },
        {
          "duration": 0.11538450000000111,
          "durationTicks": 96,
          "midi": 67,
          "name": "G4",
          "ticks": 13356,
          "time": 16.0528685625,
          "velocity": 0.6929133858267716
        },
        {
          "duration": 0.11538450000000111,
          "durationTicks": 96,
          "midi": 62,
          "name": "D4",
          "ticks": 13356,
          "time": 16.0528685625,
          "velocity": 0.6929133858267716
        },
        {
          "duration": 0.3461534999999998,
          "durationTicks": 288,
          "midi": 69,
          "name": "A4",
          "ticks": 13452,
          "time": 16.1682530625,
          "velocity": 0.6929133858267716
        },
        {
          "duration": 0.3461534999999998,
          "durationTicks": 288,
          "midi": 64,
          "name": "E4",
          "ticks": 13452,
          "time": 16.1682530625,
          "velocity": 0.6929133858267716
        },
        {
          "duration": 0.11538449999999756,
          "durationTicks": 96,
          "midi": 67,
          "name": "G4",
          "ticks": 13740,
          "time": 16.5144065625,
          "velocity": 0.6929133858267716
        },
        {
          "duration": 0.11538449999999756,
          "durationTicks": 96,
          "midi": 62,
          "name": "D4",
          "ticks": 13740,
          "time": 16.5144065625,
          "velocity": 0.6929133858267716
        },
        {
          "duration": 0.23076900000000222,
          "durationTicks": 192,
          "midi": 59,
          "name": "B3",
          "ticks": 13836,
          "time": 16.629791062499997,
          "velocity": 0.6929133858267716
        },
        {
          "duration": 0.23076900000000222,
          "durationTicks": 192,
          "midi": 52,
          "name": "E3",
          "ticks": 13836,
          "time": 16.629791062499997,
          "velocity": 0.6929133858267716
        },
        {
          "duration": 0.23076899999999867,
          "durationTicks": 192,
          "midi": 59,
          "name": "B3",
          "ticks": 14220,
          "time": 17.091329062499998,
          "velocity": 0.6929133858267716
        },
        {
          "duration": 0.23076899999999867,
          "durationTicks": 192,
          "midi": 52,
          "name": "E3",
          "ticks": 14220,
          "time": 17.091329062499998,
          "velocity": 0.6929133858267716
        },
        {
          "duration": 0.3461534999999998,
          "durationTicks": 288,
          "midi": 59,
          "name": "B3",
          "ticks": 14604,
          "time": 17.5528670625,
          "velocity": 0.6929133858267716
        },
        {
          "duration": 0.3461534999999998,
          "durationTicks": 288,
          "midi": 52,
          "name": "E3",
          "ticks": 14604,
          "time": 17.5528670625,
          "velocity": 0.6929133858267716
        },
        {
          "duration": 0.11538449999999756,
          "durationTicks": 96,
          "midi": 67,
          "name": "G4",
          "ticks": 14892,
          "time": 17.8990205625,
          "velocity": 0.6929133858267716
        },
        {
          "duration": 0.11538449999999756,
          "durationTicks": 96,
          "midi": 62,
          "name": "D4",
          "ticks": 14892,
          "time": 17.8990205625,
          "velocity": 0.6929133858267716
        },
        {
          "duration": 0.34615350000000333,
          "durationTicks": 288,
          "midi": 69,
          "name": "A4",
          "ticks": 14988,
          "time": 18.014405062499996,
          "velocity": 0.6929133858267716
        },
        {
          "duration": 0.34615350000000333,
          "durationTicks": 288,
          "midi": 64,
          "name": "E4",
          "ticks": 14988,
          "time": 18.014405062499996,
          "velocity": 0.6929133858267716
        },
        {
          "duration": 0.11538449999999756,
          "durationTicks": 96,
          "midi": 67,
          "name": "G4",
          "ticks": 15276,
          "time": 18.3605585625,
          "velocity": 0.6929133858267716
        },
        {
          "duration": 0.11538449999999756,
          "durationTicks": 96,
          "midi": 62,
          "name": "D4",
          "ticks": 15276,
          "time": 18.3605585625,
          "velocity": 0.6929133858267716
        },
        {
          "duration": 0.23076900000000222,
          "durationTicks": 192,
          "midi": 59,
          "name": "B3",
          "ticks": 15372,
          "time": 18.475943062499997,
          "velocity": 0.6929133858267716
        },
        {
          "duration": 0.23076900000000222,
          "durationTicks": 192,
          "midi": 52,
          "name": "E3",
          "ticks": 15372,
          "time": 18.475943062499997,
          "velocity": 0.6929133858267716
        },
        {
          "duration": 0.23076899999999867,
          "durationTicks": 192,
          "midi": 59,
          "name": "B3",
          "ticks": 15756,
          "time": 18.937481062499998,
          "velocity": 0.6929133858267716
        },
        {
          "duration": 0.23076899999999867,
          "durationTicks": 192,
          "midi": 52,
          "name": "E3",
          "ticks": 15756,
          "time": 18.937481062499998,
          "velocity": 0.6929133858267716
        },
        {
          "duration": 0.3461534999999998,
          "durationTicks": 288,
          "midi": 59,
          "name": "B3",
          "ticks": 16140,
          "time": 19.3990190625,
          "velocity": 0.6929133858267716
        },
        {
          "duration": 0.3461534999999998,
          "durationTicks": 288,
          "midi": 52,
          "name": "E3",
          "ticks": 16140,
          "time": 19.3990190625,
          "velocity": 0.6929133858267716
        },
        {
          "duration": 0.11538449999999756,
          "durationTicks": 96,
          "midi": 67,
          "name": "G4",
          "ticks": 16428,
          "time": 19.7451725625,
          "velocity": 0.6929133858267716
        },
        {
          "duration": 0.11538449999999756,
          "durationTicks": 96,
          "midi": 62,
          "name": "D4",
          "ticks": 16428,
          "time": 19.7451725625,
          "velocity": 0.6929133858267716
        },
        {
          "duration": 0.3461534999999998,
          "durationTicks": 288,
          "midi": 69,
          "name": "A4",
          "ticks": 16524,
          "time": 19.860557062499996,
          "velocity": 0.6929133858267716
        },
        {
          "duration": 0.3461534999999998,
          "durationTicks": 288,
          "midi": 64,
          "name": "E4",
          "ticks": 16524,
          "time": 19.860557062499996,
          "velocity": 0.6929133858267716
        },
        {
          "duration": 0.11538450000000111,
          "durationTicks": 96,
          "midi": 67,
          "name": "G4",
          "ticks": 16812,
          "time": 20.206710562499996,
          "velocity": 0.6929133858267716
        },
        {
          "duration": 0.11538450000000111,
          "durationTicks": 96,
          "midi": 62,
          "name": "D4",
          "ticks": 16812,
          "time": 20.206710562499996,
          "velocity": 0.6929133858267716
        },
        {
          "duration": 0.23076900000000222,
          "durationTicks": 192,
          "midi": 59,
          "name": "B3",
          "ticks": 16908,
          "time": 20.322095062499997,
          "velocity": 0.6929133858267716
        },
        {
          "duration": 0.23076900000000222,
          "durationTicks": 192,
          "midi": 52,
          "name": "E3",
          "ticks": 16908,
          "time": 20.322095062499997,
          "velocity": 0.6929133858267716
        },
        {
          "duration": 0.23076899999999867,
          "durationTicks": 192,
          "midi": 59,
          "name": "B3",
          "ticks": 17292,
          "time": 20.783633062499998,
          "velocity": 0.6929133858267716
        },
        {
          "duration": 0.23076899999999867,
          "durationTicks": 192,
          "midi": 52,
          "name": "E3",
          "ticks": 17292,
          "time": 20.783633062499998,
          "velocity": 0.6929133858267716
        },
        {
          "duration": 0.3461534999999998,
          "durationTicks": 288,
          "midi": 59,
          "name": "B3",
          "ticks": 17676,
          "time": 21.2451710625,
          "velocity": 0.6929133858267716
        },
        {
          "duration": 0.3461534999999998,
          "durationTicks": 288,
          "midi": 52,
          "name": "E3",
          "ticks": 17676,
          "time": 21.2451710625,
          "velocity": 0.6929133858267716
        },
        {
          "duration": 0.11538449999999756,
          "durationTicks": 96,
          "midi": 67,
          "name": "G4",
          "ticks": 17964,
          "time": 21.5913245625,
          "velocity": 0.6929133858267716
        },
        {
          "duration": 0.11538449999999756,
          "durationTicks": 96,
          "midi": 62,
          "name": "D4",
          "ticks": 17964,
          "time": 21.5913245625,
          "velocity": 0.6929133858267716
        },
        {
          "duration": 0.3461534999999998,
          "durationTicks": 288,
          "midi": 69,
          "name": "A4",
          "ticks": 18060,
          "time": 21.706709062499996,
          "velocity": 0.6929133858267716
        },
        {
          "duration": 0.3461534999999998,
          "durationTicks": 288,
          "midi": 64,
          "name": "E4",
          "ticks": 18060,
          "time": 21.706709062499996,
          "velocity": 0.6929133858267716
        },
        {
          "duration": 0.11538450000000111,
          "durationTicks": 96,
          "midi": 67,
          "name": "G4",
          "ticks": 18348,
          "time": 22.052862562499996,
          "velocity": 0.6929133858267716
        },
        {
          "duration": 0.11538450000000111,
          "durationTicks": 96,
          "midi": 62,
          "name": "D4",
          "ticks": 18348,
          "time": 22.052862562499996,
          "velocity": 0.6929133858267716
        },
        {
          "duration": 0.23076899999999867,
          "durationTicks": 192,
          "midi": 59,
          "name": "B3",
          "ticks": 18444,
          "time": 22.168247062499997,
          "velocity": 0.6929133858267716
        },
        {
          "duration": 0.23076899999999867,
          "durationTicks": 192,
          "midi": 52,
          "name": "E3",
          "ticks": 18444,
          "time": 22.168247062499997,
          "velocity": 0.6929133858267716
        },
        {
          "duration": 0.23076899999999867,
          "durationTicks": 192,
          "midi": 59,
          "name": "B3",
          "ticks": 18828,
          "time": 22.629785062499998,
          "velocity": 0.6929133858267716
        },
        {
          "duration": 0.23076899999999867,
          "durationTicks": 192,
          "midi": 52,
          "name": "E3",
          "ticks": 18828,
          "time": 22.629785062499998,
          "velocity": 0.6929133858267716
        },
        {
          "duration": 0.3461534999999998,
          "durationTicks": 288,
          "midi": 59,
          "name": "B3",
          "ticks": 19212,
          "time": 23.0913230625,
          "velocity": 0.6929133858267716
        },
        {
          "duration": 0.3461534999999998,
          "durationTicks": 288,
          "midi": 52,
          "name": "E3",
          "ticks": 19212,
          "time": 23.0913230625,
          "velocity": 0.6929133858267716
        },
        {
          "duration": 0.11538449999999756,
          "durationTicks": 96,
          "midi": 67,
          "name": "G4",
          "ticks": 19500,
          "time": 23.4374765625,
          "velocity": 0.6929133858267716
        },
        {
          "duration": 0.11538449999999756,
          "durationTicks": 96,
          "midi": 62,
          "name": "D4",
          "ticks": 19500,
          "time": 23.4374765625,
          "velocity": 0.6929133858267716
        },
        {
          "duration": 0.3461534999999998,
          "durationTicks": 288,
          "midi": 69,
          "name": "A4",
          "ticks": 19596,
          "time": 23.552861062499996,
          "velocity": 0.6929133858267716
        },
        {
          "duration": 0.3461534999999998,
          "durationTicks": 288,
          "midi": 64,
          "name": "E4",
          "ticks": 19596,
          "time": 23.552861062499996,
          "velocity": 0.6929133858267716
        },
        {
          "duration": 0.11538450000000111,
          "durationTicks": 96,
          "midi": 67,
          "name": "G4",
          "ticks": 19884,
          "time": 23.899014562499996,
          "velocity": 0.6929133858267716
        },
        {
          "duration": 0.11538450000000111,
          "durationTicks": 96,
          "midi": 62,
          "name": "D4",
          "ticks": 19884,
          "time": 23.899014562499996,
          "velocity": 0.6929133858267716
        },
        {
          "duration": 0.23076899999999867,
          "durationTicks": 192,
          "midi": 59,
          "name": "B3",
          "ticks": 19980,
          "time": 24.014399062499997,
          "velocity": 0.6929133858267716
        },
        {
          "duration": 0.23076899999999867,
          "durationTicks": 192,
          "midi": 52,
          "name": "E3",
          "ticks": 19980,
          "time": 24.014399062499997,
          "velocity": 0.6929133858267716
        },
        {
          "duration": 0.23076899999999867,
          "durationTicks": 192,
          "midi": 59,
          "name": "B3",
          "ticks": 20364,
          "time": 24.475937062499998,
          "velocity": 0.6929133858267716
        },
        {
          "duration": 0.23076899999999867,
          "durationTicks": 192,
          "midi": 52,
          "name": "E3",
          "ticks": 20364,
          "time": 24.475937062499998,
          "velocity": 0.6929133858267716
        },
        {
          "duration": 0.34615350000000333,
          "durationTicks": 288,
          "midi": 59,
          "name": "B3",
          "ticks": 20748,
          "time": 24.937475062499995,
          "velocity": 0.6929133858267716
        },
        {
          "duration": 0.34615350000000333,
          "durationTicks": 288,
          "midi": 52,
          "name": "E3",
          "ticks": 20748,
          "time": 24.937475062499995,
          "velocity": 0.6929133858267716
        },
        {
          "duration": 0.11538449999999756,
          "durationTicks": 96,
          "midi": 67,
          "name": "G4",
          "ticks": 21036,
          "time": 25.2836285625,
          "velocity": 0.6929133858267716
        },
        {
          "duration": 0.11538449999999756,
          "durationTicks": 96,
          "midi": 62,
          "name": "D4",
          "ticks": 21036,
          "time": 25.2836285625,
          "velocity": 0.6929133858267716
        },
        {
          "duration": 0.3461534999999998,
          "durationTicks": 288,
          "midi": 69,
          "name": "A4",
          "ticks": 21132,
          "time": 25.399013062499996,
          "velocity": 0.6929133858267716
        },
        {
          "duration": 0.3461534999999998,
          "durationTicks": 288,
          "midi": 64,
          "name": "E4",
          "ticks": 21132,
          "time": 25.399013062499996,
          "velocity": 0.6929133858267716
        },
        {
          "duration": 0.11538450000000111,
          "durationTicks": 96,
          "midi": 67,
          "name": "G4",
          "ticks": 21420,
          "time": 25.745166562499996,
          "velocity": 0.6929133858267716
        },
        {
          "duration": 0.11538450000000111,
          "durationTicks": 96,
          "midi": 62,
          "name": "D4",
          "ticks": 21420,
          "time": 25.745166562499996,
          "velocity": 0.6929133858267716
        },
        {
          "duration": 0.23076899999999867,
          "durationTicks": 192,
          "midi": 59,
          "name": "B3",
          "ticks": 21516,
          "time": 25.860551062499997,
          "velocity": 0.6929133858267716
        },
        {
          "duration": 0.23076899999999867,
          "durationTicks": 192,
          "midi": 52,
          "name": "E3",
          "ticks": 21516,
          "time": 25.860551062499997,
          "velocity": 0.6929133858267716
        },
        {
          "duration": 0.23076899999999867,
          "durationTicks": 192,
          "midi": 59,
          "name": "B3",
          "ticks": 21900,
          "time": 26.322089062499998,
          "velocity": 0.6929133858267716
        },
        {
          "duration": 0.23076899999999867,
          "durationTicks": 192,
          "midi": 52,
          "name": "E3",
          "ticks": 21900,
          "time": 26.322089062499998,
          "velocity": 0.6929133858267716
        },
        {
          "duration": 0.3461534999999998,
          "durationTicks": 288,
          "midi": 59,
          "name": "B3",
          "ticks": 22284,
          "time": 26.783627062499995,
          "velocity": 0.6929133858267716
        },
        {
          "duration": 0.3461534999999998,
          "durationTicks": 288,
          "midi": 52,
          "name": "E3",
          "ticks": 22284,
          "time": 26.783627062499995,
          "velocity": 0.6929133858267716
        },
        {
          "duration": 0.11538450000000111,
          "durationTicks": 96,
          "midi": 67,
          "name": "G4",
          "ticks": 22572,
          "time": 27.129780562499995,
          "velocity": 0.6929133858267716
        },
        {
          "duration": 0.11538450000000111,
          "durationTicks": 96,
          "midi": 62,
          "name": "D4",
          "ticks": 22572,
          "time": 27.129780562499995,
          "velocity": 0.6929133858267716
        },
        {
          "duration": 0.3461534999999998,
          "durationTicks": 288,
          "midi": 69,
          "name": "A4",
          "ticks": 22668,
          "time": 27.245165062499996,
          "velocity": 0.6929133858267716
        },
        {
          "duration": 0.3461534999999998,
          "durationTicks": 288,
          "midi": 64,
          "name": "E4",
          "ticks": 22668,
          "time": 27.245165062499996,
          "velocity": 0.6929133858267716
        },
        {
          "duration": 0.11538450000000111,
          "durationTicks": 96,
          "midi": 67,
          "name": "G4",
          "ticks": 22956,
          "time": 27.591318562499996,
          "velocity": 0.6929133858267716
        },
        {
          "duration": 0.11538450000000111,
          "durationTicks": 96,
          "midi": 62,
          "name": "D4",
          "ticks": 22956,
          "time": 27.591318562499996,
          "velocity": 0.6929133858267716
        },
        {
          "duration": 0.23076899999999867,
          "durationTicks": 192,
          "midi": 59,
          "name": "B3",
          "ticks": 23052,
          "time": 27.706703062499997,
          "velocity": 0.6929133858267716
        },
        {
          "duration": 0.23076899999999867,
          "durationTicks": 192,
          "midi": 52,
          "name": "E3",
          "ticks": 23052,
          "time": 27.706703062499997,
          "velocity": 0.6929133858267716
        },
        {
          "duration": 0.23076899999999867,
          "durationTicks": 192,
          "midi": 59,
          "name": "B3",
          "ticks": 23436,
          "time": 28.168241062499998,
          "velocity": 0.6929133858267716
        },
        {
          "duration": 0.23076899999999867,
          "durationTicks": 192,
          "midi": 52,
          "name": "E3",
          "ticks": 23436,
          "time": 28.168241062499998,
          "velocity": 0.6929133858267716
        },
        {
          "duration": 0.3461534999999998,
          "durationTicks": 288,
          "midi": 59,
          "name": "B3",
          "ticks": 23820,
          "time": 28.629779062499995,
          "velocity": 0.6929133858267716
        },
        {
          "duration": 0.3461534999999998,
          "durationTicks": 288,
          "midi": 52,
          "name": "E3",
          "ticks": 23820,
          "time": 28.629779062499995,
          "velocity": 0.6929133858267716
        },
        {
          "duration": 0.11538450000000111,
          "durationTicks": 96,
          "midi": 67,
          "name": "G4",
          "ticks": 24108,
          "time": 28.975932562499995,
          "velocity": 0.6929133858267716
        },
        {
          "duration": 0.11538450000000111,
          "durationTicks": 96,
          "midi": 62,
          "name": "D4",
          "ticks": 24108,
          "time": 28.975932562499995,
          "velocity": 0.6929133858267716
        },
        {
          "duration": 0.3461534999999998,
          "durationTicks": 288,
          "midi": 69,
          "name": "A4",
          "ticks": 24204,
          "time": 29.091317062499996,
          "velocity": 0.6929133858267716
        },
        {
          "duration": 0.3461534999999998,
          "durationTicks": 288,
          "midi": 64,
          "name": "E4",
          "ticks": 24204,
          "time": 29.091317062499996,
          "velocity": 0.6929133858267716
        },
        {
          "duration": 0.11538450000000111,
          "durationTicks": 96,
          "midi": 67,
          "name": "G4",
          "ticks": 24492,
          "time": 29.437470562499996,
          "velocity": 0.6929133858267716
        },
        {
          "duration": 0.11538450000000111,
          "durationTicks": 96,
          "midi": 62,
          "name": "D4",
          "ticks": 24492,
          "time": 29.437470562499996,
          "velocity": 0.6929133858267716
        },
        {
          "duration": 0.23076899999999867,
          "durationTicks": 192,
          "midi": 59,
          "name": "B3",
          "ticks": 24588,
          "time": 29.552855062499997,
          "velocity": 0.6929133858267716
        },
        {
          "duration": 0.23076899999999867,
          "durationTicks": 192,
          "midi": 52,
          "name": "E3",
          "ticks": 24588,
          "time": 29.552855062499997,
          "velocity": 0.6929133858267716
        },
        {
          "duration": 0.23076899999999867,
          "durationTicks": 192,
          "midi": 59,
          "name": "B3",
          "ticks": 24972,
          "time": 30.014393062499998,
          "velocity": 0.6929133858267716
        },
        {
          "duration": 0.23076899999999867,
          "durationTicks": 192,
          "midi": 52,
          "name": "E3",
          "ticks": 24972,
          "time": 30.014393062499998,
          "velocity": 0.6929133858267716
        },
        {
          "duration": 0.3461534999999998,
          "durationTicks": 288,
          "midi": 59,
          "name": "B3",
          "ticks": 25356,
          "time": 30.475931062499996,
          "velocity": 0.6929133858267716
        },
        {
          "duration": 0.3461534999999998,
          "durationTicks": 288,
          "midi": 52,
          "name": "E3",
          "ticks": 25356,
          "time": 30.475931062499996,
          "velocity": 0.6929133858267716
        },
        {
          "duration": 0.11538450000000111,
          "durationTicks": 96,
          "midi": 67,
          "name": "G4",
          "ticks": 25644,
          "time": 30.822084562499995,
          "velocity": 0.6929133858267716
        },
        {
          "duration": 0.11538450000000111,
          "durationTicks": 96,
          "midi": 62,
          "name": "D4",
          "ticks": 25644,
          "time": 30.822084562499995,
          "velocity": 0.6929133858267716
        },
        {
          "duration": 0.3461534999999998,
          "durationTicks": 288,
          "midi": 69,
          "name": "A4",
          "ticks": 25740,
          "time": 30.937469062499996,
          "velocity": 0.6929133858267716
        },
        {
          "duration": 0.3461534999999998,
          "durationTicks": 288,
          "midi": 64,
          "name": "E4",
          "ticks": 25740,
          "time": 30.937469062499996,
          "velocity": 0.6929133858267716
        },
        {
          "duration": 0.11538450000000111,
          "durationTicks": 96,
          "midi": 67,
          "name": "G4",
          "ticks": 26028,
          "time": 31.283622562499996,
          "velocity": 0.6929133858267716
        },
        {
          "duration": 0.11538450000000111,
          "durationTicks": 96,
          "midi": 62,
          "name": "D4",
          "ticks": 26028,
          "time": 31.283622562499996,
          "velocity": 0.6929133858267716
        },
        {
          "duration": 0.23076899999999867,
          "durationTicks": 192,
          "midi": 59,
          "name": "B3",
          "ticks": 26124,
          "time": 31.399007062499997,
          "velocity": 0.6929133858267716
        },
        {
          "duration": 0.23076899999999867,
          "durationTicks": 192,
          "midi": 52,
          "name": "E3",
          "ticks": 26124,
          "time": 31.399007062499997,
          "velocity": 0.6929133858267716
        },
        {
          "duration": 0.23076899999999867,
          "durationTicks": 192,
          "midi": 59,
          "name": "B3",
          "ticks": 26508,
          "time": 31.860545062499998,
          "velocity": 0.6929133858267716
        },
        {
          "duration": 0.23076899999999867,
          "durationTicks": 192,
          "midi": 52,
          "name": "E3",
          "ticks": 26508,
          "time": 31.860545062499998,
          "velocity": 0.6929133858267716
        },
        {
          "duration": 0.3461534999999998,
          "durationTicks": 288,
          "midi": 59,
          "name": "B3",
          "ticks": 26892,
          "time": 32.3220830625,
          "velocity": 0.6929133858267716
        },
        {
          "duration": 0.3461534999999998,
          "durationTicks": 288,
          "midi": 52,
          "name": "E3",
          "ticks": 26892,
          "time": 32.3220830625,
          "velocity": 0.6929133858267716
        },
        {
          "duration": 0.11538449999999756,
          "durationTicks": 96,
          "midi": 67,
          "name": "G4",
          "ticks": 27180,
          "time": 32.6682365625,
          "velocity": 0.6929133858267716
        },
        {
          "duration": 0.11538449999999756,
          "durationTicks": 96,
          "midi": 62,
          "name": "D4",
          "ticks": 27180,
          "time": 32.6682365625,
          "velocity": 0.6929133858267716
        },
        {
          "duration": 0.3461534999999998,
          "durationTicks": 288,
          "midi": 69,
          "name": "A4",
          "ticks": 27276,
          "time": 32.783621062499996,
          "velocity": 0.6929133858267716
        },
        {
          "duration": 0.3461534999999998,
          "durationTicks": 288,
          "midi": 64,
          "name": "E4",
          "ticks": 27276,
          "time": 32.783621062499996,
          "velocity": 0.6929133858267716
        },
        {
          "duration": 0.11538449999999756,
          "durationTicks": 96,
          "midi": 67,
          "name": "G4",
          "ticks": 27564,
          "time": 33.129774562499996,
          "velocity": 0.6929133858267716
        },
        {
          "duration": 0.11538449999999756,
          "durationTicks": 96,
          "midi": 62,
          "name": "D4",
          "ticks": 27564,
          "time": 33.129774562499996,
          "velocity": 0.6929133858267716
        },
        {
          "duration": 0.23076900000000222,
          "durationTicks": 192,
          "midi": 59,
          "name": "B3",
          "ticks": 27660,
          "time": 33.245159062499994,
          "velocity": 0.6929133858267716
        },
        {
          "duration": 0.23076900000000222,
          "durationTicks": 192,
          "midi": 52,
          "name": "E3",
          "ticks": 27660,
          "time": 33.245159062499994,
          "velocity": 0.6929133858267716
        },
        {
          "duration": 0.23076899999999512,
          "durationTicks": 192,
          "midi": 59,
          "name": "B3",
          "ticks": 28044,
          "time": 33.7066970625,
          "velocity": 0.6929133858267716
        },
        {
          "duration": 0.23076899999999512,
          "durationTicks": 192,
          "midi": 52,
          "name": "E3",
          "ticks": 28044,
          "time": 33.7066970625,
          "velocity": 0.6929133858267716
        },
        {
          "duration": 0.3461534999999998,
          "durationTicks": 288,
          "midi": 59,
          "name": "B3",
          "ticks": 28428,
          "time": 34.168235062499996,
          "velocity": 0.6929133858267716
        },
        {
          "duration": 0.3461534999999998,
          "durationTicks": 288,
          "midi": 52,
          "name": "E3",
          "ticks": 28428,
          "time": 34.168235062499996,
          "velocity": 0.6929133858267716
        },
        {
          "duration": 0.11538449999999756,
          "durationTicks": 96,
          "midi": 67,
          "name": "G4",
          "ticks": 28716,
          "time": 34.514388562499995,
          "velocity": 0.6929133858267716
        },
        {
          "duration": 0.11538449999999756,
          "durationTicks": 96,
          "midi": 62,
          "name": "D4",
          "ticks": 28716,
          "time": 34.514388562499995,
          "velocity": 0.6929133858267716
        },
        {
          "duration": 0.3461534999999998,
          "durationTicks": 288,
          "midi": 69,
          "name": "A4",
          "ticks": 28812,
          "time": 34.62977306249999,
          "velocity": 0.6929133858267716
        },
        {
          "duration": 0.3461534999999998,
          "durationTicks": 288,
          "midi": 64,
          "name": "E4",
          "ticks": 28812,
          "time": 34.62977306249999,
          "velocity": 0.6929133858267716
        },
        {
          "duration": 0.11538450000000466,
          "durationTicks": 96,
          "midi": 67,
          "name": "G4",
          "ticks": 29100,
          "time": 34.97592656249999,
          "velocity": 0.6929133858267716
        },
        {
          "duration": 0.11538450000000466,
          "durationTicks": 96,
          "midi": 62,
          "name": "D4",
          "ticks": 29100,
          "time": 34.97592656249999,
          "velocity": 0.6929133858267716
        },
        {
          "duration": 0.23076900000000222,
          "durationTicks": 192,
          "midi": 59,
          "name": "B3",
          "ticks": 29196,
          "time": 35.0913110625,
          "velocity": 0.6929133858267716
        },
        {
          "duration": 0.23076900000000222,
          "durationTicks": 192,
          "midi": 52,
          "name": "E3",
          "ticks": 29196,
          "time": 35.0913110625,
          "velocity": 0.6929133858267716
        },
        {
          "duration": 0.23076900000000222,
          "durationTicks": 192,
          "midi": 59,
          "name": "B3",
          "ticks": 29580,
          "time": 35.552849062499995,
          "velocity": 0.6929133858267716
        },
        {
          "duration": 0.23076900000000222,
          "durationTicks": 192,
          "midi": 52,
          "name": "E3",
          "ticks": 29580,
          "time": 35.552849062499995,
          "velocity": 0.6929133858267716
        },
        {
          "duration": 0.3461534999999998,
          "durationTicks": 288,
          "midi": 59,
          "name": "B3",
          "ticks": 29964,
          "time": 36.0143870625,
          "velocity": 0.6929133858267716
        },
        {
          "duration": 0.3461534999999998,
          "durationTicks": 288,
          "midi": 52,
          "name": "E3",
          "ticks": 29964,
          "time": 36.0143870625,
          "velocity": 0.6929133858267716
        },
        {
          "duration": 0.11538449999999756,
          "durationTicks": 96,
          "midi": 67,
          "name": "G4",
          "ticks": 30252,
          "time": 36.3605405625,
          "velocity": 0.6929133858267716
        },
        {
          "duration": 0.11538449999999756,
          "durationTicks": 96,
          "midi": 62,
          "name": "D4",
          "ticks": 30252,
          "time": 36.3605405625,
          "velocity": 0.6929133858267716
        },
        {
          "duration": 0.3461534999999998,
          "durationTicks": 288,
          "midi": 69,
          "name": "A4",
          "ticks": 30348,
          "time": 36.475925062499996,
          "velocity": 0.6929133858267716
        },
        {
          "duration": 0.3461534999999998,
          "durationTicks": 288,
          "midi": 64,
          "name": "E4",
          "ticks": 30348,
          "time": 36.475925062499996,
          "velocity": 0.6929133858267716
        },
        {
          "duration": 0.11538449999999756,
          "durationTicks": 96,
          "midi": 67,
          "name": "G4",
          "ticks": 30636,
          "time": 36.822078562499996,
          "velocity": 0.6929133858267716
        },
        {
          "duration": 0.11538449999999756,
          "durationTicks": 96,
          "midi": 62,
          "name": "D4",
          "ticks": 30636,
          "time": 36.822078562499996,
          "velocity": 0.6929133858267716
        },
        {
          "duration": 0.46153800000000444,
          "durationTicks": 384,
          "midi": 68,
          "name": "G#4",
          "ticks": 30732,
          "time": 36.937463062499994,
          "velocity": 0.6929133858267716
        },
        {
          "duration": 0.46153800000000444,
          "durationTicks": 384,
          "midi": 59,
          "name": "B3",
          "ticks": 30732,
          "time": 36.937463062499994,
          "velocity": 0.6929133858267716
        },
        {
          "duration": 0.46153800000000444,
          "durationTicks": 384,
          "midi": 52,
          "name": "E3",
          "ticks": 30732,
          "time": 36.937463062499994,
          "velocity": 0.6929133858267716
        },
        {
          "duration": 0.46153799999999734,
          "durationTicks": 384,
          "midi": 59,
          "name": "B3",
          "ticks": 31116,
          "time": 37.3990010625,
          "velocity": 0.6929133858267716
        },
        {
          "duration": 0.46153799999999734,
          "durationTicks": 384,
          "midi": 52,
          "name": "E3",
          "ticks": 31116,
          "time": 37.3990010625,
          "velocity": 0.6929133858267716
        },
        {
          "duration": 0.46153799999999734,
          "durationTicks": 384,
          "midi": 59,
          "name": "B3",
          "ticks": 31500,
          "time": 37.860539062499996,
          "velocity": 0.6929133858267716
        },
        {
          "duration": 0.46153799999999734,
          "durationTicks": 384,
          "midi": 52,
          "name": "E3",
          "ticks": 31500,
          "time": 37.860539062499996,
          "velocity": 0.6929133858267716
        },
        {
          "duration": 0.44711493750000386,
          "durationTicks": 372,
          "midi": 59,
          "name": "B3",
          "ticks": 31884,
          "time": 38.32207706249999,
          "velocity": 0.6929133858267716
        },
        {
          "duration": 0.44711493750000386,
          "durationTicks": 372,
          "midi": 52,
          "name": "E3",
          "ticks": 31884,
          "time": 38.32207706249999,
          "velocity": 0.6929133858267716
        },
        {
          "duration": 0.46153799999999734,
          "durationTicks": 384,
          "midi": 66,
          "name": "F#4",
          "ticks": 32268,
          "time": 38.7836150625,
          "velocity": 0.6929133858267716
        },
        {
          "duration": 0.46153799999999734,
          "durationTicks": 384,
          "midi": 59,
          "name": "B3",
          "ticks": 32268,
          "time": 38.7836150625,
          "velocity": 0.6929133858267716
        },
        {
          "duration": 0.46153799999999734,
          "durationTicks": 384,
          "midi": 68,
          "name": "G#4",
          "ticks": 32652,
          "time": 39.245153062499995,
          "velocity": 0.6929133858267716
        },
        {
          "duration": 0.46153799999999734,
          "durationTicks": 384,
          "midi": 59,
          "name": "B3",
          "ticks": 32652,
          "time": 39.245153062499995,
          "velocity": 0.6929133858267716
        },
        {
          "duration": 0.30769200000000296,
          "durationTicks": 256,
          "midi": 59,
          "name": "B3",
          "ticks": 33036,
          "time": 39.70669106249999,
          "velocity": 0.6929133858267716
        },
        {
          "duration": 0.30769200000000296,
          "durationTicks": 256,
          "midi": 68,
          "name": "G#4",
          "ticks": 33036,
          "time": 39.70669106249999,
          "velocity": 0.6929133858267716
        },
        {
          "duration": 0.30769199999999586,
          "durationTicks": 256,
          "midi": 66,
          "name": "F#4",
          "ticks": 33292,
          "time": 40.014383062499995,
          "velocity": 0.6929133858267716
        },
        {
          "duration": 0.30769199999999586,
          "durationTicks": 256,
          "midi": 59,
          "name": "B3",
          "ticks": 33292,
          "time": 40.014383062499995,
          "velocity": 0.6929133858267716
        },
        {
          "duration": 0.15384599999999438,
          "durationTicks": 128,
          "midi": 66,
          "name": "F#4",
          "ticks": 33676,
          "time": 40.4759210625,
          "velocity": 0.6929133858267716
        },
        {
          "duration": 0.15384599999999438,
          "durationTicks": 128,
          "midi": 59,
          "name": "B3",
          "ticks": 33676,
          "time": 40.4759210625,
          "velocity": 0.6929133858267716
        },
        {
          "duration": 0.30769200000000296,
          "durationTicks": 256,
          "midi": 68,
          "name": "G#4",
          "ticks": 33804,
          "time": 40.629767062499994,
          "velocity": 0.6929133858267716
        },
        {
          "duration": 0.30769200000000296,
          "durationTicks": 256,
          "midi": 59,
          "name": "B3",
          "ticks": 33804,
          "time": 40.629767062499994,
          "velocity": 0.6929133858267716
        },
        {
          "duration": 0.15384600000000148,
          "durationTicks": 128,
          "midi": 59,
          "name": "B3",
          "ticks": 34060,
          "time": 40.9374590625,
          "velocity": 0.6929133858267716
        },
        {
          "duration": 0.15384600000000148,
          "durationTicks": 128,
          "midi": 66,
          "name": "F#4",
          "ticks": 34060,
          "time": 40.9374590625,
          "velocity": 0.6929133858267716
        },
        {
          "duration": 0.30769199999999586,
          "durationTicks": 256,
          "midi": 68,
          "name": "G#4",
          "ticks": 34188,
          "time": 41.0913050625,
          "velocity": 0.6929133858267716
        },
        {
          "duration": 0.30769199999999586,
          "durationTicks": 256,
          "midi": 59,
          "name": "B3",
          "ticks": 34188,
          "time": 41.0913050625,
          "velocity": 0.6929133858267716
        },
        {
          "duration": 0.46153799999999734,
          "durationTicks": 384,
          "midi": 71,
          "name": "B4",
          "ticks": 34428,
          "time": 41.379766312499996,
          "velocity": 0.6929133858267716
        },
        {
          "duration": 0.46153799999999734,
          "durationTicks": 384,
          "midi": 66,
          "name": "F#4",
          "ticks": 34428,
          "time": 41.379766312499996,
          "velocity": 0.6929133858267716
        },
        {
          "duration": 0.46153799999999734,
          "durationTicks": 384,
          "midi": 59,
          "name": "B3",
          "ticks": 34428,
          "time": 41.379766312499996,
          "velocity": 0.6929133858267716
        },
        {
          "duration": 0.15384599999999438,
          "durationTicks": 128,
          "midi": 66,
          "name": "F#4",
          "ticks": 34828,
          "time": 41.8605350625,
          "velocity": 0.6929133858267716
        },
        {
          "duration": 0.15384599999999438,
          "durationTicks": 128,
          "midi": 59,
          "name": "B3",
          "ticks": 34828,
          "time": 41.8605350625,
          "velocity": 0.6929133858267716
        },
        {
          "duration": 0.30769200000000296,
          "durationTicks": 256,
          "midi": 68,
          "name": "G#4",
          "ticks": 34956,
          "time": 42.01438106249999,
          "velocity": 0.6929133858267716
        },
        {
          "duration": 0.30769200000000296,
          "durationTicks": 256,
          "midi": 59,
          "name": "B3",
          "ticks": 34956,
          "time": 42.01438106249999,
          "velocity": 0.6929133858267716
        },
        {
          "duration": 0.15384600000000148,
          "durationTicks": 128,
          "midi": 66,
          "name": "F#4",
          "ticks": 35212,
          "time": 42.322073062499996,
          "velocity": 0.6929133858267716
        },
        {
          "duration": 0.15384600000000148,
          "durationTicks": 128,
          "midi": 59,
          "name": "B3",
          "ticks": 35212,
          "time": 42.322073062499996,
          "velocity": 0.6929133858267716
        },
        {
          "duration": 0.46153799999999734,
          "durationTicks": 384,
          "midi": 66,
          "name": "F#4",
          "ticks": 35340,
          "time": 42.4759190625,
          "velocity": 0.6929133858267716
        },
        {
          "duration": 0.46153799999999734,
          "durationTicks": 384,
          "midi": 59,
          "name": "B3",
          "ticks": 35340,
          "time": 42.4759190625,
          "velocity": 0.6929133858267716
        },
        {
          "duration": 0.46153799999999734,
          "durationTicks": 384,
          "midi": 68,
          "name": "G#4",
          "ticks": 35724,
          "time": 42.937457062499995,
          "velocity": 0.6929133858267716
        },
        {
          "duration": 0.46153799999999734,
          "durationTicks": 384,
          "midi": 59,
          "name": "B3",
          "ticks": 35724,
          "time": 42.937457062499995,
          "velocity": 0.6929133858267716
        },
        {
          "duration": 0.30769200000000296,
          "durationTicks": 256,
          "midi": 59,
          "name": "B3",
          "ticks": 36108,
          "time": 43.39899506249999,
          "velocity": 0.6929133858267716
        },
        {
          "duration": 0.30769200000000296,
          "durationTicks": 256,
          "midi": 68,
          "name": "G#4",
          "ticks": 36108,
          "time": 43.39899506249999,
          "velocity": 0.6929133858267716
        },
        {
          "duration": 0.30769199999999586,
          "durationTicks": 256,
          "midi": 66,
          "name": "F#4",
          "ticks": 36364,
          "time": 43.706687062499995,
          "velocity": 0.6929133858267716
        },
        {
          "duration": 0.30769199999999586,
          "durationTicks": 256,
          "midi": 59,
          "name": "B3",
          "ticks": 36364,
          "time": 43.706687062499995,
          "velocity": 0.6929133858267716
        },
        {
          "duration": 0.15384599999999438,
          "durationTicks": 128,
          "midi": 66,
          "name": "F#4",
          "ticks": 36748,
          "time": 44.1682250625,
          "velocity": 0.6929133858267716
        },
        {
          "duration": 0.15384599999999438,
          "durationTicks": 128,
          "midi": 59,
          "name": "B3",
          "ticks": 36748,
          "time": 44.1682250625,
          "velocity": 0.6929133858267716
        },
        {
          "duration": 0.30769200000000296,
          "durationTicks": 256,
          "midi": 68,
          "name": "G#4",
          "ticks": 36876,
          "time": 44.322071062499994,
          "velocity": 0.6929133858267716
        },
        {
          "duration": 0.30769200000000296,
          "durationTicks": 256,
          "midi": 59,
          "name": "B3",
          "ticks": 36876,
          "time": 44.322071062499994,
          "velocity": 0.6929133858267716
        },
        {
          "duration": 0.15384600000000148,
          "durationTicks": 128,
          "midi": 59,
          "name": "B3",
          "ticks": 37132,
          "time": 44.6297630625,
          "velocity": 0.6929133858267716
        },
        {
          "duration": 0.15384600000000148,
          "durationTicks": 128,
          "midi": 66,
          "name": "F#4",
          "ticks": 37132,
          "time": 44.6297630625,
          "velocity": 0.6929133858267716
        },
        {
          "duration": 0.30769199999999586,
          "durationTicks": 256,
          "midi": 68,
          "name": "G#4",
          "ticks": 37260,
          "time": 44.7836090625,
          "velocity": 0.6929133858267716
        },
        {
          "duration": 0.30769199999999586,
          "durationTicks": 256,
          "midi": 59,
          "name": "B3",
          "ticks": 37260,
          "time": 44.7836090625,
          "velocity": 0.6929133858267716
        },
        {
          "duration": 0.46153799999999734,
          "durationTicks": 384,
          "midi": 71,
          "name": "B4",
          "ticks": 37500,
          "time": 45.072070312499996,
          "velocity": 0.6929133858267716
        },
        {
          "duration": 0.46153799999999734,
          "durationTicks": 384,
          "midi": 66,
          "name": "F#4",
          "ticks": 37500,
          "time": 45.072070312499996,
          "velocity": 0.6929133858267716
        },
        {
          "duration": 0.46153799999999734,
          "durationTicks": 384,
          "midi": 59,
          "name": "B3",
          "ticks": 37500,
          "time": 45.072070312499996,
          "velocity": 0.6929133858267716
        },
        {
          "duration": 0.15384599999999438,
          "durationTicks": 128,
          "midi": 66,
          "name": "F#4",
          "ticks": 37900,
          "time": 45.5528390625,
          "velocity": 0.6929133858267716
        },
        {
          "duration": 0.15384599999999438,
          "durationTicks": 128,
          "midi": 59,
          "name": "B3",
          "ticks": 37900,
          "time": 45.5528390625,
          "velocity": 0.6929133858267716
        },
        {
          "duration": 0.30769200000000296,
          "durationTicks": 256,
          "midi": 68,
          "name": "G#4",
          "ticks": 38028,
          "time": 45.70668506249999,
          "velocity": 0.6929133858267716
        },
        {
          "duration": 0.30769200000000296,
          "durationTicks": 256,
          "midi": 59,
          "name": "B3",
          "ticks": 38028,
          "time": 45.70668506249999,
          "velocity": 0.6929133858267716
        },
        {
          "duration": 0.15384600000000148,
          "durationTicks": 128,
          "midi": 66,
          "name": "F#4",
          "ticks": 38284,
          "time": 46.014377062499996,
          "velocity": 0.6929133858267716
        },
        {
          "duration": 0.15384600000000148,
          "durationTicks": 128,
          "midi": 59,
          "name": "B3",
          "ticks": 38284,
          "time": 46.014377062499996,
          "velocity": 0.6929133858267716
        },
        {
          "duration": 0.46153799999999734,
          "durationTicks": 384,
          "midi": 66,
          "name": "F#4",
          "ticks": 38412,
          "time": 46.1682230625,
          "velocity": 0.6929133858267716
        },
        {
          "duration": 0.46153799999999734,
          "durationTicks": 384,
          "midi": 59,
          "name": "B3",
          "ticks": 38412,
          "time": 46.1682230625,
          "velocity": 0.6929133858267716
        },
        {
          "duration": 0.46153799999999734,
          "durationTicks": 384,
          "midi": 68,
          "name": "G#4",
          "ticks": 38796,
          "time": 46.629761062499995,
          "velocity": 0.6929133858267716
        },
        {
          "duration": 0.46153799999999734,
          "durationTicks": 384,
          "midi": 59,
          "name": "B3",
          "ticks": 38796,
          "time": 46.629761062499995,
          "velocity": 0.6929133858267716
        },
        {
          "duration": 0.30769200000000296,
          "durationTicks": 256,
          "midi": 59,
          "name": "B3",
          "ticks": 39180,
          "time": 47.09129906249999,
          "velocity": 0.6929133858267716
        },
        {
          "duration": 0.30769200000000296,
          "durationTicks": 256,
          "midi": 68,
          "name": "G#4",
          "ticks": 39180,
          "time": 47.09129906249999,
          "velocity": 0.6929133858267716
        },
        {
          "duration": 0.30769199999999586,
          "durationTicks": 256,
          "midi": 66,
          "name": "F#4",
          "ticks": 39436,
          "time": 47.398991062499995,
          "velocity": 0.6929133858267716
        },
        {
          "duration": 0.30769199999999586,
          "durationTicks": 256,
          "midi": 59,
          "name": "B3",
          "ticks": 39436,
          "time": 47.398991062499995,
          "velocity": 0.6929133858267716
        },
        {
          "duration": 0.15384599999999438,
          "durationTicks": 128,
          "midi": 66,
          "name": "F#4",
          "ticks": 39820,
          "time": 47.8605290625,
          "velocity": 0.6929133858267716
        },
        {
          "duration": 0.15384599999999438,
          "durationTicks": 128,
          "midi": 59,
          "name": "B3",
          "ticks": 39820,
          "time": 47.8605290625,
          "velocity": 0.6929133858267716
        },
        {
          "duration": 0.30769199999999586,
          "durationTicks": 256,
          "midi": 68,
          "name": "G#4",
          "ticks": 39948,
          "time": 48.014375062499994,
          "velocity": 0.6929133858267716
        },
        {
          "duration": 0.30769199999999586,
          "durationTicks": 256,
          "midi": 59,
          "name": "B3",
          "ticks": 39948,
          "time": 48.014375062499994,
          "velocity": 0.6929133858267716
        },
        {
          "duration": 0.15384600000000148,
          "durationTicks": 128,
          "midi": 59,
          "name": "B3",
          "ticks": 40204,
          "time": 48.32206706249999,
          "velocity": 0.6929133858267716
        },
        {
          "duration": 0.15384600000000148,
          "durationTicks": 128,
          "midi": 66,
          "name": "F#4",
          "ticks": 40204,
          "time": 48.32206706249999,
          "velocity": 0.6929133858267716
        },
        {
          "duration": 0.30769200000000296,
          "durationTicks": 256,
          "midi": 68,
          "name": "G#4",
          "ticks": 40332,
          "time": 48.47591306249999,
          "velocity": 0.6929133858267716
        },
        {
          "duration": 0.30769200000000296,
          "durationTicks": 256,
          "midi": 59,
          "name": "B3",
          "ticks": 40332,
          "time": 48.47591306249999,
          "velocity": 0.6929133858267716
        },
        {
          "duration": 0.46153799999999734,
          "durationTicks": 384,
          "midi": 71,
          "name": "B4",
          "ticks": 40572,
          "time": 48.764374312499996,
          "velocity": 0.6929133858267716
        },
        {
          "duration": 0.46153799999999734,
          "durationTicks": 384,
          "midi": 66,
          "name": "F#4",
          "ticks": 40572,
          "time": 48.764374312499996,
          "velocity": 0.6929133858267716
        },
        {
          "duration": 0.46153799999999734,
          "durationTicks": 384,
          "midi": 59,
          "name": "B3",
          "ticks": 40572,
          "time": 48.764374312499996,
          "velocity": 0.6929133858267716
        },
        {
          "duration": 0.15384600000000148,
          "durationTicks": 128,
          "midi": 66,
          "name": "F#4",
          "ticks": 40972,
          "time": 49.24514306249999,
          "velocity": 0.6929133858267716
        },
        {
          "duration": 0.15384600000000148,
          "durationTicks": 128,
          "midi": 59,
          "name": "B3",
          "ticks": 40972,
          "time": 49.24514306249999,
          "velocity": 0.6929133858267716
        },
        {
          "duration": 0.30769200000000296,
          "durationTicks": 256,
          "midi": 68,
          "name": "G#4",
          "ticks": 41100,
          "time": 49.39898906249999,
          "velocity": 0.6929133858267716
        },
        {
          "duration": 0.30769200000000296,
          "durationTicks": 256,
          "midi": 59,
          "name": "B3",
          "ticks": 41100,
          "time": 49.39898906249999,
          "velocity": 0.6929133858267716
        },
        {
          "duration": 0.15384599999999438,
          "durationTicks": 128,
          "midi": 66,
          "name": "F#4",
          "ticks": 41356,
          "time": 49.706681062499996,
          "velocity": 0.6929133858267716
        },
        {
          "duration": 0.15384599999999438,
          "durationTicks": 128,
          "midi": 59,
          "name": "B3",
          "ticks": 41356,
          "time": 49.706681062499996,
          "velocity": 0.6929133858267716
        },
        {
          "duration": 0.46153800000000444,
          "durationTicks": 384,
          "midi": 66,
          "name": "F#4",
          "ticks": 41484,
          "time": 49.86052706249999,
          "velocity": 0.6929133858267716
        },
        {
          "duration": 0.46153800000000444,
          "durationTicks": 384,
          "midi": 59,
          "name": "B3",
          "ticks": 41484,
          "time": 49.86052706249999,
          "velocity": 0.6929133858267716
        },
        {
          "duration": 0.46153799999999734,
          "durationTicks": 384,
          "midi": 68,
          "name": "G#4",
          "ticks": 41868,
          "time": 50.322065062499995,
          "velocity": 0.6929133858267716
        },
        {
          "duration": 0.46153799999999734,
          "durationTicks": 384,
          "midi": 59,
          "name": "B3",
          "ticks": 41868,
          "time": 50.322065062499995,
          "velocity": 0.6929133858267716
        },
        {
          "duration": 0.30769200000000296,
          "durationTicks": 256,
          "midi": 59,
          "name": "B3",
          "ticks": 42252,
          "time": 50.78360306249999,
          "velocity": 0.6929133858267716
        },
        {
          "duration": 0.30769200000000296,
          "durationTicks": 256,
          "midi": 68,
          "name": "G#4",
          "ticks": 42252,
          "time": 50.78360306249999,
          "velocity": 0.6929133858267716
        },
        {
          "duration": 0.30769199999999586,
          "durationTicks": 256,
          "midi": 66,
          "name": "F#4",
          "ticks": 42508,
          "time": 51.091295062499995,
          "velocity": 0.6929133858267716
        },
        {
          "duration": 0.30769199999999586,
          "durationTicks": 256,
          "midi": 59,
          "name": "B3",
          "ticks": 42508,
          "time": 51.091295062499995,
          "velocity": 0.6929133858267716
        },
        {
          "duration": 0.15384600000000148,
          "durationTicks": 128,
          "midi": 66,
          "name": "F#4",
          "ticks": 42892,
          "time": 51.55283306249999,
          "velocity": 0.6929133858267716
        },
        {
          "duration": 0.15384600000000148,
          "durationTicks": 128,
          "midi": 59,
          "name": "B3",
          "ticks": 42892,
          "time": 51.55283306249999,
          "velocity": 0.6929133858267716
        },
        {
          "duration": 0.30769199999999586,
          "durationTicks": 256,
          "midi": 68,
          "name": "G#4",
          "ticks": 43020,
          "time": 51.706679062499994,
          "velocity": 0.6929133858267716
        },
        {
          "duration": 0.30769199999999586,
          "durationTicks": 256,
          "midi": 59,
          "name": "B3",
          "ticks": 43020,
          "time": 51.706679062499994,
          "velocity": 0.6929133858267716
        },
        {
          "duration": 0.15384600000000148,
          "durationTicks": 128,
          "midi": 59,
          "name": "B3",
          "ticks": 43276,
          "time": 52.01437106249999,
          "velocity": 0.6929133858267716
        },
        {
          "duration": 0.15384600000000148,
          "durationTicks": 128,
          "midi": 66,
          "name": "F#4",
          "ticks": 43276,
          "time": 52.01437106249999,
          "velocity": 0.6929133858267716
        },
        {
          "duration": 0.30769200000000296,
          "durationTicks": 256,
          "midi": 68,
          "name": "G#4",
          "ticks": 43404,
          "time": 52.16821706249999,
          "velocity": 0.6929133858267716
        },
        {
          "duration": 0.30769200000000296,
          "durationTicks": 256,
          "midi": 59,
          "name": "B3",
          "ticks": 43404,
          "time": 52.16821706249999,
          "velocity": 0.6929133858267716
        },
        {
          "duration": 0.46153799999999734,
          "durationTicks": 384,
          "midi": 71,
          "name": "B4",
          "ticks": 43644,
          "time": 52.456678312499996,
          "velocity": 0.6929133858267716
        },
        {
          "duration": 0.46153799999999734,
          "durationTicks": 384,
          "midi": 66,
          "name": "F#4",
          "ticks": 43644,
          "time": 52.456678312499996,
          "velocity": 0.6929133858267716
        },
        {
          "duration": 0.46153799999999734,
          "durationTicks": 384,
          "midi": 59,
          "name": "B3",
          "ticks": 43644,
          "time": 52.456678312499996,
          "velocity": 0.6929133858267716
        },
        {
          "duration": 0.15384600000000148,
          "durationTicks": 128,
          "midi": 66,
          "name": "F#4",
          "ticks": 44044,
          "time": 52.93744706249999,
          "velocity": 0.6929133858267716
        },
        {
          "duration": 0.15384600000000148,
          "durationTicks": 128,
          "midi": 59,
          "name": "B3",
          "ticks": 44044,
          "time": 52.93744706249999,
          "velocity": 0.6929133858267716
        },
        {
          "duration": 0.30769199999999586,
          "durationTicks": 256,
          "midi": 68,
          "name": "G#4",
          "ticks": 44172,
          "time": 53.09129306249999,
          "velocity": 0.6929133858267716
        },
        {
          "duration": 0.30769199999999586,
          "durationTicks": 256,
          "midi": 59,
          "name": "B3",
          "ticks": 44172,
          "time": 53.09129306249999,
          "velocity": 0.6929133858267716
        },
        {
          "duration": 0.15384600000000148,
          "durationTicks": 128,
          "midi": 66,
          "name": "F#4",
          "ticks": 44428,
          "time": 53.39898506249999,
          "velocity": 0.6929133858267716
        },
        {
          "duration": 0.15384600000000148,
          "durationTicks": 128,
          "midi": 59,
          "name": "B3",
          "ticks": 44428,
          "time": 53.39898506249999,
          "velocity": 0.6929133858267716
        },
        {
          "duration": 0.46153800000000444,
          "durationTicks": 384,
          "midi": 64,
          "name": "E4",
          "ticks": 44556,
          "time": 53.55283106249999,
          "velocity": 0.6929133858267716
        },
        {
          "duration": 0.46153800000000444,
          "durationTicks": 384,
          "midi": 57,
          "name": "A3",
          "ticks": 44556,
          "time": 53.55283106249999,
          "velocity": 0.6929133858267716
        },
        {
          "duration": 0.46153799999999734,
          "durationTicks": 384,
          "midi": 66,
          "name": "F#4",
          "ticks": 44940,
          "time": 54.014369062499995,
          "velocity": 0.6929133858267716
        },
        {
          "duration": 0.46153799999999734,
          "durationTicks": 384,
          "midi": 57,
          "name": "A3",
          "ticks": 44940,
          "time": 54.014369062499995,
          "velocity": 0.6929133858267716
        },
        {
          "duration": 0.30769200000000296,
          "durationTicks": 256,
          "midi": 57,
          "name": "A3",
          "ticks": 45324,
          "time": 54.47590706249999,
          "velocity": 0.6929133858267716
        },
        {
          "duration": 0.30769200000000296,
          "durationTicks": 256,
          "midi": 66,
          "name": "F#4",
          "ticks": 45324,
          "time": 54.47590706249999,
          "velocity": 0.6929133858267716
        },
        {
          "duration": 0.30769199999999586,
          "durationTicks": 256,
          "midi": 64,
          "name": "E4",
          "ticks": 45580,
          "time": 54.783599062499995,
          "velocity": 0.6929133858267716
        },
        {
          "duration": 0.30769199999999586,
          "durationTicks": 256,
          "midi": 57,
          "name": "A3",
          "ticks": 45580,
          "time": 54.783599062499995,
          "velocity": 0.6929133858267716
        },
        {
          "duration": 0.15384600000000148,
          "durationTicks": 128,
          "midi": 64,
          "name": "E4",
          "ticks": 45964,
          "time": 55.24513706249999,
          "velocity": 0.6929133858267716
        },
        {
          "duration": 0.15384600000000148,
          "durationTicks": 128,
          "midi": 57,
          "name": "A3",
          "ticks": 45964,
          "time": 55.24513706249999,
          "velocity": 0.6929133858267716
        },
        {
          "duration": 0.30769200000000296,
          "durationTicks": 256,
          "midi": 73,
          "name": "C#5",
          "ticks": 46092,
          "time": 55.398983062499994,
          "velocity": 0.905511811023622
        },
        {
          "duration": 0.30769200000000296,
          "durationTicks": 256,
          "midi": 66,
          "name": "F#4",
          "ticks": 46092,
          "time": 55.398983062499994,
          "velocity": 0.6929133858267716
        },
        {
          "duration": 0.30769200000000296,
          "durationTicks": 256,
          "midi": 57,
          "name": "A3",
          "ticks": 46092,
          "time": 55.398983062499994,
          "velocity": 0.6929133858267716
        },
        {
          "duration": 0.15384599999999438,
          "durationTicks": 128,
          "midi": 76,
          "name": "E5",
          "ticks": 46348,
          "time": 55.7066750625,
          "velocity": 0.905511811023622
        },
        {
          "duration": 0.15384599999999438,
          "durationTicks": 128,
          "midi": 57,
          "name": "A3",
          "ticks": 46348,
          "time": 55.7066750625,
          "velocity": 0.6929133858267716
        },
        {
          "duration": 0.15384599999999438,
          "durationTicks": 128,
          "midi": 64,
          "name": "E4",
          "ticks": 46348,
          "time": 55.7066750625,
          "velocity": 0.6929133858267716
        },
        {
          "duration": 0.30769200000000296,
          "durationTicks": 256,
          "midi": 79,
          "name": "G5",
          "ticks": 46476,
          "time": 55.86052106249999,
          "velocity": 0.905511811023622
        },
        {
          "duration": 0.30769200000000296,
          "durationTicks": 256,
          "midi": 66,
          "name": "F#4",
          "ticks": 46476,
          "time": 55.86052106249999,
          "velocity": 0.6929133858267716
        },
        {
          "duration": 0.30769200000000296,
          "durationTicks": 256,
          "midi": 57,
          "name": "A3",
          "ticks": 46476,
          "time": 55.86052106249999,
          "velocity": 0.6929133858267716
        },
        {
          "duration": 0.6923069999999996,
          "durationTicks": 576,
          "midi": 78,
          "name": "F#5",
          "ticks": 46716,
          "time": 56.148982312499996,
          "velocity": 0.905511811023622
        },
        {
          "duration": 0.46153799999999734,
          "durationTicks": 384,
          "midi": 69,
          "name": "A4",
          "ticks": 46716,
          "time": 56.148982312499996,
          "velocity": 0.6929133858267716
        },
        {
          "duration": 0.46153799999999734,
          "durationTicks": 384,
          "midi": 64,
          "name": "E4",
          "ticks": 46716,
          "time": 56.148982312499996,
          "velocity": 0.6929133858267716
        },
        {
          "duration": 0.46153799999999734,
          "durationTicks": 384,
          "midi": 57,
          "name": "A3",
          "ticks": 46716,
          "time": 56.148982312499996,
          "velocity": 0.6929133858267716
        },
        {
          "duration": 0.15384600000000148,
          "durationTicks": 128,
          "midi": 64,
          "name": "E4",
          "ticks": 47116,
          "time": 56.62975106249999,
          "velocity": 0.6929133858267716
        },
        {
          "duration": 0.15384600000000148,
          "durationTicks": 128,
          "midi": 57,
          "name": "A3",
          "ticks": 47116,
          "time": 56.62975106249999,
          "velocity": 0.6929133858267716
        },
        {
          "duration": 0.30769200000000296,
          "durationTicks": 256,
          "midi": 66,
          "name": "F#4",
          "ticks": 47244,
          "time": 56.78359706249999,
          "velocity": 0.6929133858267716
        },
        {
          "duration": 0.30769200000000296,
          "durationTicks": 256,
          "midi": 57,
          "name": "A3",
          "ticks": 47244,
          "time": 56.78359706249999,
          "velocity": 0.6929133858267716
        },
        {
          "duration": 0.15384599999999438,
          "durationTicks": 128,
          "midi": 64,
          "name": "E4",
          "ticks": 47500,
          "time": 57.091289062499996,
          "velocity": 0.6929133858267716
        },
        {
          "duration": 0.15384599999999438,
          "durationTicks": 128,
          "midi": 57,
          "name": "A3",
          "ticks": 47500,
          "time": 57.091289062499996,
          "velocity": 0.6929133858267716
        },
        {
          "duration": 0.46153800000000444,
          "durationTicks": 384,
          "midi": 64,
          "name": "E4",
          "ticks": 47628,
          "time": 57.24513506249999,
          "velocity": 0.6929133858267716
        },
        {
          "duration": 0.46153800000000444,
          "durationTicks": 384,
          "midi": 57,
          "name": "A3",
          "ticks": 47628,
          "time": 57.24513506249999,
          "velocity": 0.6929133858267716
        },
        {
          "duration": 0.46153799999999734,
          "durationTicks": 384,
          "midi": 66,
          "name": "F#4",
          "ticks": 48012,
          "time": 57.706673062499995,
          "velocity": 0.6929133858267716
        },
        {
          "duration": 0.46153799999999734,
          "durationTicks": 384,
          "midi": 57,
          "name": "A3",
          "ticks": 48012,
          "time": 57.706673062499995,
          "velocity": 0.6929133858267716
        },
        {
          "duration": 0.30769200000000296,
          "durationTicks": 256,
          "midi": 57,
          "name": "A3",
          "ticks": 48396,
          "time": 58.16821106249999,
          "velocity": 0.6929133858267716
        },
        {
          "duration": 0.30769200000000296,
          "durationTicks": 256,
          "midi": 66,
          "name": "F#4",
          "ticks": 48396,
          "time": 58.16821106249999,
          "velocity": 0.6929133858267716
        },
        {
          "duration": 0.30769199999999586,
          "durationTicks": 256,
          "midi": 64,
          "name": "E4",
          "ticks": 48652,
          "time": 58.475903062499995,
          "velocity": 0.6929133858267716
        },
        {
          "duration": 0.30769199999999586,
          "durationTicks": 256,
          "midi": 57,
          "name": "A3",
          "ticks": 48652,
          "time": 58.475903062499995,
          "velocity": 0.6929133858267716
        },
        {
          "duration": 0.15384600000000148,
          "durationTicks": 128,
          "midi": 64,
          "name": "E4",
          "ticks": 49036,
          "time": 58.93744106249999,
          "velocity": 0.6929133858267716
        },
        {
          "duration": 0.15384600000000148,
          "durationTicks": 128,
          "midi": 57,
          "name": "A3",
          "ticks": 49036,
          "time": 58.93744106249999,
          "velocity": 0.6929133858267716
        },
        {
          "duration": 0.30769199999999586,
          "durationTicks": 256,
          "midi": 66,
          "name": "F#4",
          "ticks": 49164,
          "time": 59.091287062499994,
          "velocity": 0.6929133858267716
        },
        {
          "duration": 0.30769199999999586,
          "durationTicks": 256,
          "midi": 57,
          "name": "A3",
          "ticks": 49164,
          "time": 59.091287062499994,
          "velocity": 0.6929133858267716
        },
        {
          "duration": 0.30769199999999586,
          "durationTicks": 256,
          "midi": 73,
          "name": "C#5",
          "ticks": 49164,
          "time": 59.091287062499994,
          "velocity": 0.905511811023622
        },
        {
          "duration": 0.15384600000000148,
          "durationTicks": 128,
          "midi": 57,
          "name": "A3",
          "ticks": 49420,
          "time": 59.39897906249999,
          "velocity": 0.6929133858267716
        },
        {
          "duration": 0.15384600000000148,
          "durationTicks": 128,
          "midi": 64,
          "name": "E4",
          "ticks": 49420,
          "time": 59.39897906249999,
          "velocity": 0.6929133858267716
        },
        {
          "duration": 0.15384600000000148,
          "durationTicks": 128,
          "midi": 76,
          "name": "E5",
          "ticks": 49420,
          "time": 59.39897906249999,
          "velocity": 0.905511811023622
        },
        {
          "duration": 0.30769200000000296,
          "durationTicks": 256,
          "midi": 66,
          "name": "F#4",
          "ticks": 49548,
          "time": 59.55282506249999,
          "velocity": 0.6929133858267716
        },
        {
          "duration": 0.30769200000000296,
          "durationTicks": 256,
          "midi": 57,
          "name": "A3",
          "ticks": 49548,
          "time": 59.55282506249999,
          "velocity": 0.6929133858267716
        },
        {
          "duration": 0.30769200000000296,
          "durationTicks": 256,
          "midi": 79,
          "name": "G5",
          "ticks": 49548,
          "time": 59.55282506249999,
          "velocity": 0.905511811023622
        },
        {
          "duration": 0.46153800000000444,
          "durationTicks": 384,
          "midi": 69,
          "name": "A4",
          "ticks": 49788,
          "time": 59.84128631249999,
          "velocity": 0.6929133858267716
        },
        {
          "duration": 0.46153800000000444,
          "durationTicks": 384,
          "midi": 64,
          "name": "E4",
          "ticks": 49788,
          "time": 59.84128631249999,
          "velocity": 0.6929133858267716
        },
        {
          "duration": 0.46153800000000444,
          "durationTicks": 384,
          "midi": 57,
          "name": "A3",
          "ticks": 49788,
          "time": 59.84128631249999,
          "velocity": 0.6929133858267716
        },
        {
          "duration": 0.6923069999999996,
          "durationTicks": 576,
          "midi": 78,
          "name": "F#5",
          "ticks": 49788,
          "time": 59.84128631249999,
          "velocity": 0.905511811023622
        },
        {
          "duration": 0.15384600000000148,
          "durationTicks": 128,
          "midi": 64,
          "name": "E4",
          "ticks": 50188,
          "time": 60.32205506249999,
          "velocity": 0.6929133858267716
        },
        {
          "duration": 0.15384600000000148,
          "durationTicks": 128,
          "midi": 57,
          "name": "A3",
          "ticks": 50188,
          "time": 60.32205506249999,
          "velocity": 0.6929133858267716
        },
        {
          "duration": 0.30769199999999586,
          "durationTicks": 256,
          "midi": 66,
          "name": "F#4",
          "ticks": 50316,
          "time": 60.47590106249999,
          "velocity": 0.6929133858267716
        },
        {
          "duration": 0.30769199999999586,
          "durationTicks": 256,
          "midi": 57,
          "name": "A3",
          "ticks": 50316,
          "time": 60.47590106249999,
          "velocity": 0.6929133858267716
        },
        {
          "duration": 0.15384600000000148,
          "durationTicks": 128,
          "midi": 64,
          "name": "E4",
          "ticks": 50572,
          "time": 60.78359306249999,
          "velocity": 0.6929133858267716
        },
        {
          "duration": 0.15384600000000148,
          "durationTicks": 128,
          "midi": 57,
          "name": "A3",
          "ticks": 50572,
          "time": 60.78359306249999,
          "velocity": 0.6929133858267716
        },
        {
          "duration": 0.23076900000000222,
          "durationTicks": 192,
          "midi": 59,
          "name": "B3",
          "ticks": 50700,
          "time": 60.93743906249999,
          "velocity": 0.6929133858267716
        },
        {
          "duration": 0.23076900000000222,
          "durationTicks": 192,
          "midi": 52,
          "name": "E3",
          "ticks": 50700,
          "time": 60.93743906249999,
          "velocity": 0.6929133858267716
        },
        {
          "duration": 0.23076899999999512,
          "durationTicks": 192,
          "midi": 59,
          "name": "B3",
          "ticks": 51084,
          "time": 61.398977062499995,
          "velocity": 0.6929133858267716
        },
        {
          "duration": 0.23076899999999512,
          "durationTicks": 192,
          "midi": 52,
          "name": "E3",
          "ticks": 51084,
          "time": 61.398977062499995,
          "velocity": 0.6929133858267716
        },
        {
          "duration": 0.3461534999999998,
          "durationTicks": 288,
          "midi": 59,
          "name": "B3",
          "ticks": 51468,
          "time": 61.86051506249999,
          "velocity": 0.6929133858267716
        },
        {
          "duration": 0.3461534999999998,
          "durationTicks": 288,
          "midi": 52,
          "name": "E3",
          "ticks": 51468,
          "time": 61.86051506249999,
          "velocity": 0.6929133858267716
        },
        {
          "duration": 0.11538449999999756,
          "durationTicks": 96,
          "midi": 67,
          "name": "G4",
          "ticks": 51756,
          "time": 62.20666856249999,
          "velocity": 0.6929133858267716
        },
        {
          "duration": 0.11538449999999756,
          "durationTicks": 96,
          "midi": 62,
          "name": "D4",
          "ticks": 51756,
          "time": 62.20666856249999,
          "velocity": 0.6929133858267716
        },
        {
          "duration": 0.3461534999999998,
          "durationTicks": 288,
          "midi": 69,
          "name": "A4",
          "ticks": 51852,
          "time": 62.32205306249999,
          "velocity": 0.6929133858267716
        },
        {
          "duration": 0.3461534999999998,
          "durationTicks": 288,
          "midi": 64,
          "name": "E4",
          "ticks": 51852,
          "time": 62.32205306249999,
          "velocity": 0.6929133858267716
        },
        {
          "duration": 0.11538450000000466,
          "durationTicks": 96,
          "midi": 67,
          "name": "G4",
          "ticks": 52140,
          "time": 62.66820656249999,
          "velocity": 0.6929133858267716
        },
        {
          "duration": 0.11538450000000466,
          "durationTicks": 96,
          "midi": 62,
          "name": "D4",
          "ticks": 52140,
          "time": 62.66820656249999,
          "velocity": 0.6929133858267716
        },
        {
          "duration": 0.23076899999999512,
          "durationTicks": 192,
          "midi": 59,
          "name": "B3",
          "ticks": 52236,
          "time": 62.783591062499994,
          "velocity": 0.6929133858267716
        },
        {
          "duration": 0.23076899999999512,
          "durationTicks": 192,
          "midi": 52,
          "name": "E3",
          "ticks": 52236,
          "time": 62.783591062499994,
          "velocity": 0.6929133858267716
        },
        {
          "duration": 0.23076900000000222,
          "durationTicks": 192,
          "midi": 59,
          "name": "B3",
          "ticks": 52620,
          "time": 63.24512906249999,
          "velocity": 0.6929133858267716
        },
        {
          "duration": 0.23076900000000222,
          "durationTicks": 192,
          "midi": 52,
          "name": "E3",
          "ticks": 52620,
          "time": 63.24512906249999,
          "velocity": 0.6929133858267716
        },
        {
          "duration": 0.3461534999999998,
          "durationTicks": 288,
          "midi": 59,
          "name": "B3",
          "ticks": 53004,
          "time": 63.70666706249999,
          "velocity": 0.6929133858267716
        },
        {
          "duration": 0.3461534999999998,
          "durationTicks": 288,
          "midi": 52,
          "name": "E3",
          "ticks": 53004,
          "time": 63.70666706249999,
          "velocity": 0.6929133858267716
        },
        {
          "duration": 0.11538450000000466,
          "durationTicks": 96,
          "midi": 67,
          "name": "G4",
          "ticks": 53292,
          "time": 64.05282056249999,
          "velocity": 0.6929133858267716
        },
        {
          "duration": 0.11538450000000466,
          "durationTicks": 96,
          "midi": 62,
          "name": "D4",
          "ticks": 53292,
          "time": 64.05282056249999,
          "velocity": 0.6929133858267716
        },
        {
          "duration": 0.3461534999999998,
          "durationTicks": 288,
          "midi": 69,
          "name": "A4",
          "ticks": 53388,
          "time": 64.1682050625,
          "velocity": 0.6929133858267716
        },
        {
          "duration": 0.3461534999999998,
          "durationTicks": 288,
          "midi": 64,
          "name": "E4",
          "ticks": 53388,
          "time": 64.1682050625,
          "velocity": 0.6929133858267716
        },
        {
          "duration": 0.11538449999999045,
          "durationTicks": 96,
          "midi": 67,
          "name": "G4",
          "ticks": 53676,
          "time": 64.5143585625,
          "velocity": 0.6929133858267716
        },
        {
          "duration": 0.11538449999999045,
          "durationTicks": 96,
          "midi": 62,
          "name": "D4",
          "ticks": 53676,
          "time": 64.5143585625,
          "velocity": 0.6929133858267716
        },
        {
          "duration": 0.23076900000000933,
          "durationTicks": 192,
          "midi": 59,
          "name": "B3",
          "ticks": 53772,
          "time": 64.62974306249998,
          "velocity": 0.6929133858267716
        },
        {
          "duration": 0.23076900000000933,
          "durationTicks": 192,
          "midi": 52,
          "name": "E3",
          "ticks": 53772,
          "time": 64.62974306249998,
          "velocity": 0.6929133858267716
        },
        {
          "duration": 0.23076899999999512,
          "durationTicks": 192,
          "midi": 59,
          "name": "B3",
          "ticks": 54156,
          "time": 65.09128106249999,
          "velocity": 0.6929133858267716
        },
        {
          "duration": 0.23076899999999512,
          "durationTicks": 192,
          "midi": 52,
          "name": "E3",
          "ticks": 54156,
          "time": 65.09128106249999,
          "velocity": 0.6929133858267716
        },
        {
          "duration": 0.3461534999999998,
          "durationTicks": 288,
          "midi": 59,
          "name": "B3",
          "ticks": 54540,
          "time": 65.55281906249999,
          "velocity": 0.6929133858267716
        },
        {
          "duration": 0.3461534999999998,
          "durationTicks": 288,
          "midi": 52,
          "name": "E3",
          "ticks": 54540,
          "time": 65.55281906249999,
          "velocity": 0.6929133858267716
        },
        {
          "duration": 0.11538449999999045,
          "durationTicks": 96,
          "midi": 67,
          "name": "G4",
          "ticks": 54828,
          "time": 65.89897256249999,
          "velocity": 0.6929133858267716
        },
        {
          "duration": 0.11538449999999045,
          "durationTicks": 96,
          "midi": 62,
          "name": "D4",
          "ticks": 54828,
          "time": 65.89897256249999,
          "velocity": 0.6929133858267716
        },
        {
          "duration": 0.346153500000014,
          "durationTicks": 288,
          "midi": 69,
          "name": "A4",
          "ticks": 54924,
          "time": 66.01435706249998,
          "velocity": 0.6929133858267716
        },
        {
          "duration": 0.346153500000014,
          "durationTicks": 288,
          "midi": 64,
          "name": "E4",
          "ticks": 54924,
          "time": 66.01435706249998,
          "velocity": 0.6929133858267716
        },
        {
          "duration": 0.11538449999999045,
          "durationTicks": 96,
          "midi": 67,
          "name": "G4",
          "ticks": 55212,
          "time": 66.3605105625,
          "velocity": 0.6929133858267716
        },
        {
          "duration": 0.11538449999999045,
          "durationTicks": 96,
          "midi": 62,
          "name": "D4",
          "ticks": 55212,
          "time": 66.3605105625,
          "velocity": 0.6929133858267716
        },
        {
          "duration": 0.23076900000000933,
          "durationTicks": 192,
          "midi": 59,
          "name": "B3",
          "ticks": 55308,
          "time": 66.47589506249999,
          "velocity": 0.6929133858267716
        },
        {
          "duration": 0.23076900000000933,
          "durationTicks": 192,
          "midi": 52,
          "name": "E3",
          "ticks": 55308,
          "time": 66.47589506249999,
          "velocity": 0.6929133858267716
        },
        {
          "duration": 0.23076899999999512,
          "durationTicks": 192,
          "midi": 59,
          "name": "B3",
          "ticks": 55692,
          "time": 66.93743306249999,
          "velocity": 0.6929133858267716
        },
        {
          "duration": 0.23076899999999512,
          "durationTicks": 192,
          "midi": 52,
          "name": "E3",
          "ticks": 55692,
          "time": 66.93743306249999,
          "velocity": 0.6929133858267716
        },
        {
          "duration": 0.3461534999999998,
          "durationTicks": 288,
          "midi": 59,
          "name": "B3",
          "ticks": 56076,
          "time": 67.3989710625,
          "velocity": 0.6929133858267716
        },
        {
          "duration": 0.3461534999999998,
          "durationTicks": 288,
          "midi": 52,
          "name": "E3",
          "ticks": 56076,
          "time": 67.3989710625,
          "velocity": 0.6929133858267716
        },
        {
          "duration": 0.11538449999999045,
          "durationTicks": 96,
          "midi": 67,
          "name": "G4",
          "ticks": 56364,
          "time": 67.7451245625,
          "velocity": 0.6929133858267716
        },
        {
          "duration": 0.11538449999999045,
          "durationTicks": 96,
          "midi": 62,
          "name": "D4",
          "ticks": 56364,
          "time": 67.7451245625,
          "velocity": 0.6929133858267716
        },
        {
          "duration": 0.3461534999999998,
          "durationTicks": 288,
          "midi": 69,
          "name": "A4",
          "ticks": 56460,
          "time": 67.86050906249999,
          "velocity": 0.6929133858267716
        },
        {
          "duration": 0.3461534999999998,
          "durationTicks": 288,
          "midi": 64,
          "name": "E4",
          "ticks": 56460,
          "time": 67.86050906249999,
          "velocity": 0.6929133858267716
        },
        {
          "duration": 0.11538450000000466,
          "durationTicks": 96,
          "midi": 67,
          "name": "G4",
          "ticks": 56748,
          "time": 68.20666256249999,
          "velocity": 0.6929133858267716
        },
        {
          "duration": 0.11538450000000466,
          "durationTicks": 96,
          "midi": 62,
          "name": "D4",
          "ticks": 56748,
          "time": 68.20666256249999,
          "velocity": 0.6929133858267716
        },
        {
          "duration": 0.23076900000000933,
          "durationTicks": 192,
          "midi": 59,
          "name": "B3",
          "ticks": 56844,
          "time": 68.32204706249999,
          "velocity": 0.6929133858267716
        },
        {
          "duration": 0.23076900000000933,
          "durationTicks": 192,
          "midi": 52,
          "name": "E3",
          "ticks": 56844,
          "time": 68.32204706249999,
          "velocity": 0.6929133858267716
        },
        {
          "duration": 0.23076899999999512,
          "durationTicks": 192,
          "midi": 59,
          "name": "B3",
          "ticks": 57228,
          "time": 68.7835850625,
          "velocity": 0.6929133858267716
        },
        {
          "duration": 0.23076899999999512,
          "durationTicks": 192,
          "midi": 52,
          "name": "E3",
          "ticks": 57228,
          "time": 68.7835850625,
          "velocity": 0.6929133858267716
        },
        {
          "duration": 0.34615349999998557,
          "durationTicks": 288,
          "midi": 59,
          "name": "B3",
          "ticks": 57612,
          "time": 69.2451230625,
          "velocity": 0.6929133858267716
        },
        {
          "duration": 0.34615349999998557,
          "durationTicks": 288,
          "midi": 52,
          "name": "E3",
          "ticks": 57612,
          "time": 69.2451230625,
          "velocity": 0.6929133858267716
        },
        {
          "duration": 0.11538450000000466,
          "durationTicks": 96,
          "midi": 67,
          "name": "G4",
          "ticks": 57900,
          "time": 69.59127656249998,
          "velocity": 0.6929133858267716
        },
        {
          "duration": 0.11538450000000466,
          "durationTicks": 96,
          "midi": 62,
          "name": "D4",
          "ticks": 57900,
          "time": 69.59127656249998,
          "velocity": 0.6929133858267716
        },
        {
          "duration": 0.3461534999999998,
          "durationTicks": 288,
          "midi": 69,
          "name": "A4",
          "ticks": 57996,
          "time": 69.70666106249999,
          "velocity": 0.6929133858267716
        },
        {
          "duration": 0.3461534999999998,
          "durationTicks": 288,
          "midi": 64,
          "name": "E4",
          "ticks": 57996,
          "time": 69.70666106249999,
          "velocity": 0.6929133858267716
        },
        {
          "duration": 0.11538450000000466,
          "durationTicks": 96,
          "midi": 67,
          "name": "G4",
          "ticks": 58284,
          "time": 70.05281456249999,
          "velocity": 0.6929133858267716
        },
        {
          "duration": 0.11538450000000466,
          "durationTicks": 96,
          "midi": 62,
          "name": "D4",
          "ticks": 58284,
          "time": 70.05281456249999,
          "velocity": 0.6929133858267716
        },
        {
          "duration": 0.23076899999999512,
          "durationTicks": 192,
          "midi": 59,
          "name": "B3",
          "ticks": 58380,
          "time": 70.1681990625,
          "velocity": 0.6929133858267716
        },
        {
          "duration": 0.23076899999999512,
          "durationTicks": 192,
          "midi": 52,
          "name": "E3",
          "ticks": 58380,
          "time": 70.1681990625,
          "velocity": 0.6929133858267716
        },
        {
          "duration": 0.23076899999999512,
          "durationTicks": 192,
          "midi": 59,
          "name": "B3",
          "ticks": 58764,
          "time": 70.6297370625,
          "velocity": 0.6929133858267716
        },
        {
          "duration": 0.23076899999999512,
          "durationTicks": 192,
          "midi": 52,
          "name": "E3",
          "ticks": 58764,
          "time": 70.6297370625,
          "velocity": 0.6929133858267716
        },
        {
          "duration": 0.3461534999999998,
          "durationTicks": 288,
          "midi": 59,
          "name": "B3",
          "ticks": 59148,
          "time": 71.09127506249999,
          "velocity": 0.6929133858267716
        },
        {
          "duration": 0.3461534999999998,
          "durationTicks": 288,
          "midi": 52,
          "name": "E3",
          "ticks": 59148,
          "time": 71.09127506249999,
          "velocity": 0.6929133858267716
        },
        {
          "duration": 0.11538450000000466,
          "durationTicks": 96,
          "midi": 67,
          "name": "G4",
          "ticks": 59436,
          "time": 71.43742856249999,
          "velocity": 0.6929133858267716
        },
        {
          "duration": 0.11538450000000466,
          "durationTicks": 96,
          "midi": 62,
          "name": "D4",
          "ticks": 59436,
          "time": 71.43742856249999,
          "velocity": 0.6929133858267716
        },
        {
          "duration": 0.3461534999999998,
          "durationTicks": 288,
          "midi": 69,
          "name": "A4",
          "ticks": 59532,
          "time": 71.5528130625,
          "velocity": 0.6929133858267716
        },
        {
          "duration": 0.3461534999999998,
          "durationTicks": 288,
          "midi": 64,
          "name": "E4",
          "ticks": 59532,
          "time": 71.5528130625,
          "velocity": 0.6929133858267716
        },
        {
          "duration": 0.11538450000000466,
          "durationTicks": 96,
          "midi": 67,
          "name": "G4",
          "ticks": 59820,
          "time": 71.8989665625,
          "velocity": 0.6929133858267716
        },
        {
          "duration": 0.11538450000000466,
          "durationTicks": 96,
          "midi": 62,
          "name": "D4",
          "ticks": 59820,
          "time": 71.8989665625,
          "velocity": 0.6929133858267716
        },
        {
          "duration": 0.23076899999999512,
          "durationTicks": 192,
          "midi": 59,
          "name": "B3",
          "ticks": 59916,
          "time": 72.0143510625,
          "velocity": 0.6929133858267716
        },
        {
          "duration": 0.23076899999999512,
          "durationTicks": 192,
          "midi": 52,
          "name": "E3",
          "ticks": 59916,
          "time": 72.0143510625,
          "velocity": 0.6929133858267716
        },
        {
          "duration": 0.23076900000000933,
          "durationTicks": 192,
          "midi": 59,
          "name": "B3",
          "ticks": 60300,
          "time": 72.47588906249999,
          "velocity": 0.6929133858267716
        },
        {
          "duration": 0.23076900000000933,
          "durationTicks": 192,
          "midi": 52,
          "name": "E3",
          "ticks": 60300,
          "time": 72.47588906249999,
          "velocity": 0.6929133858267716
        },
        {
          "duration": 0.3461534999999998,
          "durationTicks": 288,
          "midi": 59,
          "name": "B3",
          "ticks": 60684,
          "time": 72.93742706249999,
          "velocity": 0.6929133858267716
        },
        {
          "duration": 0.3461534999999998,
          "durationTicks": 288,
          "midi": 52,
          "name": "E3",
          "ticks": 60684,
          "time": 72.93742706249999,
          "velocity": 0.6929133858267716
        },
        {
          "duration": 0.11538450000000466,
          "durationTicks": 96,
          "midi": 67,
          "name": "G4",
          "ticks": 60972,
          "time": 73.28358056249999,
          "velocity": 0.6929133858267716
        },
        {
          "duration": 0.11538450000000466,
          "durationTicks": 96,
          "midi": 62,
          "name": "D4",
          "ticks": 60972,
          "time": 73.28358056249999,
          "velocity": 0.6929133858267716
        },
        {
          "duration": 0.34615349999998557,
          "durationTicks": 288,
          "midi": 69,
          "name": "A4",
          "ticks": 61068,
          "time": 73.3989650625,
          "velocity": 0.6929133858267716
        },
        {
          "duration": 0.34615349999998557,
          "durationTicks": 288,
          "midi": 64,
          "name": "E4",
          "ticks": 61068,
          "time": 73.3989650625,
          "velocity": 0.6929133858267716
        },
        {
          "duration": 0.11538450000000466,
          "durationTicks": 96,
          "midi": 67,
          "name": "G4",
          "ticks": 61356,
          "time": 73.74511856249998,
          "velocity": 0.6929133858267716
        },
        {
          "duration": 0.11538450000000466,
          "durationTicks": 96,
          "midi": 62,
          "name": "D4",
          "ticks": 61356,
          "time": 73.74511856249998,
          "velocity": 0.6929133858267716
        },
        {
          "duration": 0.23076900000000933,
          "durationTicks": 192,
          "midi": 59,
          "name": "B3",
          "ticks": 61452,
          "time": 73.86050306249999,
          "velocity": 0.6929133858267716
        },
        {
          "duration": 0.23076900000000933,
          "durationTicks": 192,
          "midi": 52,
          "name": "E3",
          "ticks": 61452,
          "time": 73.86050306249999,
          "velocity": 0.6929133858267716
        },
        {
          "duration": 0.23076899999999512,
          "durationTicks": 192,
          "midi": 59,
          "name": "B3",
          "ticks": 61836,
          "time": 74.32204106249999,
          "velocity": 0.6929133858267716
        },
        {
          "duration": 0.23076899999999512,
          "durationTicks": 192,
          "midi": 52,
          "name": "E3",
          "ticks": 61836,
          "time": 74.32204106249999,
          "velocity": 0.6929133858267716
        },
        {
          "duration": 0.34615349999998557,
          "durationTicks": 288,
          "midi": 59,
          "name": "B3",
          "ticks": 62220,
          "time": 74.7835790625,
          "velocity": 0.6929133858267716
        },
        {
          "duration": 0.34615349999998557,
          "durationTicks": 288,
          "midi": 52,
          "name": "E3",
          "ticks": 62220,
          "time": 74.7835790625,
          "velocity": 0.6929133858267716
        },
        {
          "duration": 0.11538450000000466,
          "durationTicks": 96,
          "midi": 67,
          "name": "G4",
          "ticks": 62508,
          "time": 75.12973256249998,
          "velocity": 0.6929133858267716
        },
        {
          "duration": 0.11538450000000466,
          "durationTicks": 96,
          "midi": 62,
          "name": "D4",
          "ticks": 62508,
          "time": 75.12973256249998,
          "velocity": 0.6929133858267716
        },
        {
          "duration": 0.3461534999999998,
          "durationTicks": 288,
          "midi": 69,
          "name": "A4",
          "ticks": 62604,
          "time": 75.24511706249999,
          "velocity": 0.6929133858267716
        },
        {
          "duration": 0.3461534999999998,
          "durationTicks": 288,
          "midi": 64,
          "name": "E4",
          "ticks": 62604,
          "time": 75.24511706249999,
          "velocity": 0.6929133858267716
        },
        {
          "duration": 0.11538450000000466,
          "durationTicks": 96,
          "midi": 67,
          "name": "G4",
          "ticks": 62892,
          "time": 75.59127056249999,
          "velocity": 0.6929133858267716
        },
        {
          "duration": 0.11538450000000466,
          "durationTicks": 96,
          "midi": 62,
          "name": "D4",
          "ticks": 62892,
          "time": 75.59127056249999,
          "velocity": 0.6929133858267716
        },
        {
          "duration": 0.23076899999999512,
          "durationTicks": 192,
          "midi": 59,
          "name": "B3",
          "ticks": 62988,
          "time": 75.70665506249999,
          "velocity": 0.6929133858267716
        },
        {
          "duration": 0.23076899999999512,
          "durationTicks": 192,
          "midi": 52,
          "name": "E3",
          "ticks": 62988,
          "time": 75.70665506249999,
          "velocity": 0.6929133858267716
        },
        {
          "duration": 0.23076899999999512,
          "durationTicks": 192,
          "midi": 59,
          "name": "B3",
          "ticks": 63372,
          "time": 76.1681930625,
          "velocity": 0.6929133858267716
        },
        {
          "duration": 0.23076899999999512,
          "durationTicks": 192,
          "midi": 52,
          "name": "E3",
          "ticks": 63372,
          "time": 76.1681930625,
          "velocity": 0.6929133858267716
        },
        {
          "duration": 0.3461534999999998,
          "durationTicks": 288,
          "midi": 59,
          "name": "B3",
          "ticks": 63756,
          "time": 76.62973106249999,
          "velocity": 0.6929133858267716
        },
        {
          "duration": 0.3461534999999998,
          "durationTicks": 288,
          "midi": 52,
          "name": "E3",
          "ticks": 63756,
          "time": 76.62973106249999,
          "velocity": 0.6929133858267716
        },
        {
          "duration": 0.11538450000000466,
          "durationTicks": 96,
          "midi": 67,
          "name": "G4",
          "ticks": 64044,
          "time": 76.97588456249999,
          "velocity": 0.6929133858267716
        },
        {
          "duration": 0.11538450000000466,
          "durationTicks": 96,
          "midi": 62,
          "name": "D4",
          "ticks": 64044,
          "time": 76.97588456249999,
          "velocity": 0.6929133858267716
        },
        {
          "duration": 0.3461534999999998,
          "durationTicks": 288,
          "midi": 69,
          "name": "A4",
          "ticks": 64140,
          "time": 77.09126906249999,
          "velocity": 0.6929133858267716
        },
        {
          "duration": 0.3461534999999998,
          "durationTicks": 288,
          "midi": 64,
          "name": "E4",
          "ticks": 64140,
          "time": 77.09126906249999,
          "velocity": 0.6929133858267716
        },
        {
          "duration": 0.11538450000000466,
          "durationTicks": 96,
          "midi": 67,
          "name": "G4",
          "ticks": 64428,
          "time": 77.43742256249999,
          "velocity": 0.6929133858267716
        },
        {
          "duration": 0.11538450000000466,
          "durationTicks": 96,
          "midi": 62,
          "name": "D4",
          "ticks": 64428,
          "time": 77.43742256249999,
          "velocity": 0.6929133858267716
        },
        {
          "duration": 0.23076899999999512,
          "durationTicks": 192,
          "midi": 59,
          "name": "B3",
          "ticks": 64524,
          "time": 77.5528070625,
          "velocity": 0.6929133858267716
        },
        {
          "duration": 0.23076899999999512,
          "durationTicks": 192,
          "midi": 52,
          "name": "E3",
          "ticks": 64524,
          "time": 77.5528070625,
          "velocity": 0.6929133858267716
        },
        {
          "duration": 0.23076900000000933,
          "durationTicks": 192,
          "midi": 59,
          "name": "B3",
          "ticks": 64908,
          "time": 78.01434506249998,
          "velocity": 0.6929133858267716
        },
        {
          "duration": 0.23076900000000933,
          "durationTicks": 192,
          "midi": 52,
          "name": "E3",
          "ticks": 64908,
          "time": 78.01434506249998,
          "velocity": 0.6929133858267716
        },
        {
          "duration": 0.3461534999999998,
          "durationTicks": 288,
          "midi": 59,
          "name": "B3",
          "ticks": 65292,
          "time": 78.47588306249999,
          "velocity": 0.6929133858267716
        },
        {
          "duration": 0.3461534999999998,
          "durationTicks": 288,
          "midi": 52,
          "name": "E3",
          "ticks": 65292,
          "time": 78.47588306249999,
          "velocity": 0.6929133858267716
        },
        {
          "duration": 0.11538450000000466,
          "durationTicks": 96,
          "midi": 67,
          "name": "G4",
          "ticks": 65580,
          "time": 78.82203656249999,
          "velocity": 0.6929133858267716
        },
        {
          "duration": 0.11538450000000466,
          "durationTicks": 96,
          "midi": 62,
          "name": "D4",
          "ticks": 65580,
          "time": 78.82203656249999,
          "velocity": 0.6929133858267716
        },
        {
          "duration": 0.3461534999999998,
          "durationTicks": 288,
          "midi": 69,
          "name": "A4",
          "ticks": 65676,
          "time": 78.9374210625,
          "velocity": 0.6929133858267716
        },
        {
          "duration": 0.3461534999999998,
          "durationTicks": 288,
          "midi": 64,
          "name": "E4",
          "ticks": 65676,
          "time": 78.9374210625,
          "velocity": 0.6929133858267716
        },
        {
          "duration": 0.11538449999999045,
          "durationTicks": 96,
          "midi": 67,
          "name": "G4",
          "ticks": 65964,
          "time": 79.2835745625,
          "velocity": 0.6929133858267716
        },
        {
          "duration": 0.11538449999999045,
          "durationTicks": 96,
          "midi": 62,
          "name": "D4",
          "ticks": 65964,
          "time": 79.2835745625,
          "velocity": 0.6929133858267716
        },
        {
          "duration": 0.23076900000000933,
          "durationTicks": 192,
          "midi": 59,
          "name": "B3",
          "ticks": 66060,
          "time": 79.39895906249998,
          "velocity": 0.6929133858267716
        },
        {
          "duration": 0.23076900000000933,
          "durationTicks": 192,
          "midi": 52,
          "name": "E3",
          "ticks": 66060,
          "time": 79.39895906249998,
          "velocity": 0.6929133858267716
        },
        {
          "duration": 0.23076899999999512,
          "durationTicks": 192,
          "midi": 59,
          "name": "B3",
          "ticks": 66444,
          "time": 79.86049706249999,
          "velocity": 0.6929133858267716
        },
        {
          "duration": 0.23076899999999512,
          "durationTicks": 192,
          "midi": 52,
          "name": "E3",
          "ticks": 66444,
          "time": 79.86049706249999,
          "velocity": 0.6929133858267716
        },
        {
          "duration": 0.3461534999999998,
          "durationTicks": 288,
          "midi": 59,
          "name": "B3",
          "ticks": 66828,
          "time": 80.32203506249999,
          "velocity": 0.6929133858267716
        },
        {
          "duration": 0.3461534999999998,
          "durationTicks": 288,
          "midi": 52,
          "name": "E3",
          "ticks": 66828,
          "time": 80.32203506249999,
          "velocity": 0.6929133858267716
        },
        {
          "duration": 0.11538449999999045,
          "durationTicks": 96,
          "midi": 67,
          "name": "G4",
          "ticks": 67116,
          "time": 80.66818856249999,
          "velocity": 0.6929133858267716
        },
        {
          "duration": 0.11538449999999045,
          "durationTicks": 96,
          "midi": 62,
          "name": "D4",
          "ticks": 67116,
          "time": 80.66818856249999,
          "velocity": 0.6929133858267716
        },
        {
          "duration": 0.346153500000014,
          "durationTicks": 288,
          "midi": 69,
          "name": "A4",
          "ticks": 67212,
          "time": 80.78357306249998,
          "velocity": 0.6929133858267716
        },
        {
          "duration": 0.346153500000014,
          "durationTicks": 288,
          "midi": 64,
          "name": "E4",
          "ticks": 67212,
          "time": 80.78357306249998,
          "velocity": 0.6929133858267716
        },
        {
          "duration": 0.11538449999999045,
          "durationTicks": 96,
          "midi": 67,
          "name": "G4",
          "ticks": 67500,
          "time": 81.1297265625,
          "velocity": 0.6929133858267716
        },
        {
          "duration": 0.11538449999999045,
          "durationTicks": 96,
          "midi": 62,
          "name": "D4",
          "ticks": 67500,
          "time": 81.1297265625,
          "velocity": 0.6929133858267716
        },
        {
          "duration": 0.23076899999999512,
          "durationTicks": 192,
          "midi": 59,
          "name": "B3",
          "ticks": 67596,
          "time": 81.24511106249999,
          "velocity": 0.6929133858267716
        },
        {
          "duration": 0.23076899999999512,
          "durationTicks": 192,
          "midi": 52,
          "name": "E3",
          "ticks": 67596,
          "time": 81.24511106249999,
          "velocity": 0.6929133858267716
        },
        {
          "duration": 0.23076899999999512,
          "durationTicks": 192,
          "midi": 59,
          "name": "B3",
          "ticks": 67980,
          "time": 81.70664906249999,
          "velocity": 0.6929133858267716
        },
        {
          "duration": 0.23076899999999512,
          "durationTicks": 192,
          "midi": 52,
          "name": "E3",
          "ticks": 67980,
          "time": 81.70664906249999,
          "velocity": 0.6929133858267716
        },
        {
          "duration": 0.346153500000014,
          "durationTicks": 288,
          "midi": 59,
          "name": "B3",
          "ticks": 68364,
          "time": 82.16818706249998,
          "velocity": 0.6929133858267716
        },
        {
          "duration": 0.346153500000014,
          "durationTicks": 288,
          "midi": 52,
          "name": "E3",
          "ticks": 68364,
          "time": 82.16818706249998,
          "velocity": 0.6929133858267716
        },
        {
          "duration": 0.11538449999999045,
          "durationTicks": 96,
          "midi": 67,
          "name": "G4",
          "ticks": 68652,
          "time": 82.5143405625,
          "velocity": 0.6929133858267716
        },
        {
          "duration": 0.11538449999999045,
          "durationTicks": 96,
          "midi": 62,
          "name": "D4",
          "ticks": 68652,
          "time": 82.5143405625,
          "velocity": 0.6929133858267716
        },
        {
          "duration": 0.3461534999999998,
          "durationTicks": 288,
          "midi": 69,
          "name": "A4",
          "ticks": 68748,
          "time": 82.62972506249999,
          "velocity": 0.6929133858267716
        },
        {
          "duration": 0.3461534999999998,
          "durationTicks": 288,
          "midi": 64,
          "name": "E4",
          "ticks": 68748,
          "time": 82.62972506249999,
          "velocity": 0.6929133858267716
        },
        {
          "duration": 0.11538450000000466,
          "durationTicks": 96,
          "midi": 67,
          "name": "G4",
          "ticks": 69036,
          "time": 82.97587856249999,
          "velocity": 0.6929133858267716
        },
        {
          "duration": 0.11538450000000466,
          "durationTicks": 96,
          "midi": 62,
          "name": "D4",
          "ticks": 69036,
          "time": 82.97587856249999,
          "velocity": 0.6929133858267716
        },
        {
          "duration": 0.23076900000000933,
          "durationTicks": 192,
          "midi": 59,
          "name": "B3",
          "ticks": 69132,
          "time": 83.09126306249999,
          "velocity": 0.6929133858267716
        },
        {
          "duration": 0.23076900000000933,
          "durationTicks": 192,
          "midi": 52,
          "name": "E3",
          "ticks": 69132,
          "time": 83.09126306249999,
          "velocity": 0.6929133858267716
        },
        {
          "duration": 0.23076900000000933,
          "durationTicks": 192,
          "midi": 59,
          "name": "B3",
          "ticks": 69516,
          "time": 83.55280106249998,
          "velocity": 0.6929133858267716
        },
        {
          "duration": 0.23076900000000933,
          "durationTicks": 192,
          "midi": 52,
          "name": "E3",
          "ticks": 69516,
          "time": 83.55280106249998,
          "velocity": 0.6929133858267716
        },
        {
          "duration": 0.34615349999998557,
          "durationTicks": 288,
          "midi": 59,
          "name": "B3",
          "ticks": 69900,
          "time": 84.0143390625,
          "velocity": 0.6929133858267716
        },
        {
          "duration": 0.34615349999998557,
          "durationTicks": 288,
          "midi": 52,
          "name": "E3",
          "ticks": 69900,
          "time": 84.0143390625,
          "velocity": 0.6929133858267716
        },
        {
          "duration": 0.11538450000000466,
          "durationTicks": 96,
          "midi": 67,
          "name": "G4",
          "ticks": 70188,
          "time": 84.36049256249999,
          "velocity": 0.6929133858267716
        },
        {
          "duration": 0.11538450000000466,
          "durationTicks": 96,
          "midi": 62,
          "name": "D4",
          "ticks": 70188,
          "time": 84.36049256249999,
          "velocity": 0.6929133858267716
        },
        {
          "duration": 0.3461534999999998,
          "durationTicks": 288,
          "midi": 69,
          "name": "A4",
          "ticks": 70284,
          "time": 84.47587706249999,
          "velocity": 0.6929133858267716
        },
        {
          "duration": 0.3461534999999998,
          "durationTicks": 288,
          "midi": 64,
          "name": "E4",
          "ticks": 70284,
          "time": 84.47587706249999,
          "velocity": 0.6929133858267716
        },
        {
          "duration": 0.11538449999999045,
          "durationTicks": 96,
          "midi": 67,
          "name": "G4",
          "ticks": 70572,
          "time": 84.82203056249999,
          "velocity": 0.6929133858267716
        },
        {
          "duration": 0.11538449999999045,
          "durationTicks": 96,
          "midi": 62,
          "name": "D4",
          "ticks": 70572,
          "time": 84.82203056249999,
          "velocity": 0.6929133858267716
        },
        {
          "duration": 0.23076900000000933,
          "durationTicks": 192,
          "midi": 59,
          "name": "B3",
          "ticks": 70668,
          "time": 84.93741506249998,
          "velocity": 0.6929133858267716
        },
        {
          "duration": 0.23076900000000933,
          "durationTicks": 192,
          "midi": 52,
          "name": "E3",
          "ticks": 70668,
          "time": 84.93741506249998,
          "velocity": 0.6929133858267716
        },
        {
          "duration": 0.2307689999999809,
          "durationTicks": 192,
          "midi": 59,
          "name": "B3",
          "ticks": 71052,
          "time": 85.3989530625,
          "velocity": 0.6929133858267716
        },
        {
          "duration": 0.2307689999999809,
          "durationTicks": 192,
          "midi": 52,
          "name": "E3",
          "ticks": 71052,
          "time": 85.3989530625,
          "velocity": 0.6929133858267716
        },
        {
          "duration": 0.3461534999999998,
          "durationTicks": 288,
          "midi": 59,
          "name": "B3",
          "ticks": 71436,
          "time": 85.86049106249999,
          "velocity": 0.6929133858267716
        },
        {
          "duration": 0.3461534999999998,
          "durationTicks": 288,
          "midi": 52,
          "name": "E3",
          "ticks": 71436,
          "time": 85.86049106249999,
          "velocity": 0.6929133858267716
        },
        {
          "duration": 0.11538449999999045,
          "durationTicks": 96,
          "midi": 67,
          "name": "G4",
          "ticks": 71724,
          "time": 86.20664456249999,
          "velocity": 0.6929133858267716
        },
        {
          "duration": 0.11538449999999045,
          "durationTicks": 96,
          "midi": 62,
          "name": "D4",
          "ticks": 71724,
          "time": 86.20664456249999,
          "velocity": 0.6929133858267716
        },
        {
          "duration": 0.346153500000014,
          "durationTicks": 288,
          "midi": 69,
          "name": "A4",
          "ticks": 71820,
          "time": 86.32202906249998,
          "velocity": 0.6929133858267716
        },
        {
          "duration": 0.346153500000014,
          "durationTicks": 288,
          "midi": 64,
          "name": "E4",
          "ticks": 71820,
          "time": 86.32202906249998,
          "velocity": 0.6929133858267716
        },
        {
          "duration": 0.11538450000000466,
          "durationTicks": 96,
          "midi": 67,
          "name": "G4",
          "ticks": 72108,
          "time": 86.6681825625,
          "velocity": 0.6929133858267716
        },
        {
          "duration": 0.11538450000000466,
          "durationTicks": 96,
          "midi": 62,
          "name": "D4",
          "ticks": 72108,
          "time": 86.6681825625,
          "velocity": 0.6929133858267716
        },
        {
          "duration": 0.2307689999999809,
          "durationTicks": 192,
          "midi": 59,
          "name": "B3",
          "ticks": 72204,
          "time": 86.7835670625,
          "velocity": 0.6929133858267716
        },
        {
          "duration": 0.2307689999999809,
          "durationTicks": 192,
          "midi": 52,
          "name": "E3",
          "ticks": 72204,
          "time": 86.7835670625,
          "velocity": 0.6929133858267716
        },
        {
          "duration": 0.23076900000000933,
          "durationTicks": 192,
          "midi": 59,
          "name": "B3",
          "ticks": 72588,
          "time": 87.24510506249999,
          "velocity": 0.6929133858267716
        },
        {
          "duration": 0.23076900000000933,
          "durationTicks": 192,
          "midi": 52,
          "name": "E3",
          "ticks": 72588,
          "time": 87.24510506249999,
          "velocity": 0.6929133858267716
        },
        {
          "duration": 0.346153500000014,
          "durationTicks": 288,
          "midi": 59,
          "name": "B3",
          "ticks": 72972,
          "time": 87.70664306249998,
          "velocity": 0.6929133858267716
        },
        {
          "duration": 0.346153500000014,
          "durationTicks": 288,
          "midi": 52,
          "name": "E3",
          "ticks": 72972,
          "time": 87.70664306249998,
          "velocity": 0.6929133858267716
        },
        {
          "duration": 0.11538450000000466,
          "durationTicks": 96,
          "midi": 67,
          "name": "G4",
          "ticks": 73260,
          "time": 88.05279656249999,
          "velocity": 0.6929133858267716
        },
        {
          "duration": 0.11538450000000466,
          "durationTicks": 96,
          "midi": 62,
          "name": "D4",
          "ticks": 73260,
          "time": 88.05279656249999,
          "velocity": 0.6929133858267716
        },
        {
          "duration": 0.34615349999998557,
          "durationTicks": 288,
          "midi": 69,
          "name": "A4",
          "ticks": 73356,
          "time": 88.1681810625,
          "velocity": 0.6929133858267716
        },
        {
          "duration": 0.34615349999998557,
          "durationTicks": 288,
          "midi": 64,
          "name": "E4",
          "ticks": 73356,
          "time": 88.1681810625,
          "velocity": 0.6929133858267716
        },
        {
          "duration": 0.11538450000000466,
          "durationTicks": 96,
          "midi": 67,
          "name": "G4",
          "ticks": 73644,
          "time": 88.51433456249998,
          "velocity": 0.6929133858267716
        },
        {
          "duration": 0.11538450000000466,
          "durationTicks": 96,
          "midi": 62,
          "name": "D4",
          "ticks": 73644,
          "time": 88.51433456249998,
          "velocity": 0.6929133858267716
        },
        {
          "duration": 0.23076900000000933,
          "durationTicks": 192,
          "midi": 59,
          "name": "B3",
          "ticks": 73740,
          "time": 88.62971906249999,
          "velocity": 0.6929133858267716
        },
        {
          "duration": 0.23076900000000933,
          "durationTicks": 192,
          "midi": 52,
          "name": "E3",
          "ticks": 73740,
          "time": 88.62971906249999,
          "velocity": 0.6929133858267716
        },
        {
          "duration": 0.23076899999999512,
          "durationTicks": 192,
          "midi": 59,
          "name": "B3",
          "ticks": 74124,
          "time": 89.09125706249999,
          "velocity": 0.6929133858267716
        },
        {
          "duration": 0.23076899999999512,
          "durationTicks": 192,
          "midi": 52,
          "name": "E3",
          "ticks": 74124,
          "time": 89.09125706249999,
          "velocity": 0.6929133858267716
        },
        {
          "duration": 0.34615349999998557,
          "durationTicks": 288,
          "midi": 59,
          "name": "B3",
          "ticks": 74508,
          "time": 89.5527950625,
          "velocity": 0.6929133858267716
        },
        {
          "duration": 0.34615349999998557,
          "durationTicks": 288,
          "midi": 52,
          "name": "E3",
          "ticks": 74508,
          "time": 89.5527950625,
          "velocity": 0.6929133858267716
        },
        {
          "duration": 0.11538450000000466,
          "durationTicks": 96,
          "midi": 67,
          "name": "G4",
          "ticks": 74796,
          "time": 89.89894856249998,
          "velocity": 0.6929133858267716
        },
        {
          "duration": 0.11538450000000466,
          "durationTicks": 96,
          "midi": 62,
          "name": "D4",
          "ticks": 74796,
          "time": 89.89894856249998,
          "velocity": 0.6929133858267716
        },
        {
          "duration": 0.3461534999999998,
          "durationTicks": 288,
          "midi": 69,
          "name": "A4",
          "ticks": 74892,
          "time": 90.01433306249999,
          "velocity": 0.6929133858267716
        },
        {
          "duration": 0.3461534999999998,
          "durationTicks": 288,
          "midi": 64,
          "name": "E4",
          "ticks": 74892,
          "time": 90.01433306249999,
          "velocity": 0.6929133858267716
        },
        {
          "duration": 0.11538450000000466,
          "durationTicks": 96,
          "midi": 67,
          "name": "G4",
          "ticks": 75180,
          "time": 90.36048656249999,
          "velocity": 0.6929133858267716
        },
        {
          "duration": 0.11538450000000466,
          "durationTicks": 96,
          "midi": 62,
          "name": "D4",
          "ticks": 75180,
          "time": 90.36048656249999,
          "velocity": 0.6929133858267716
        },
        {
          "duration": 0.23076899999999512,
          "durationTicks": 192,
          "midi": 59,
          "name": "B3",
          "ticks": 75276,
          "time": 90.47587106249999,
          "velocity": 0.6929133858267716
        },
        {
          "duration": 0.23076899999999512,
          "durationTicks": 192,
          "midi": 52,
          "name": "E3",
          "ticks": 75276,
          "time": 90.47587106249999,
          "velocity": 0.6929133858267716
        },
        {
          "duration": 0.23076899999999512,
          "durationTicks": 192,
          "midi": 59,
          "name": "B3",
          "ticks": 75660,
          "time": 90.9374090625,
          "velocity": 0.6929133858267716
        },
        {
          "duration": 0.23076899999999512,
          "durationTicks": 192,
          "midi": 52,
          "name": "E3",
          "ticks": 75660,
          "time": 90.9374090625,
          "velocity": 0.6929133858267716
        },
        {
          "duration": 0.3461534999999998,
          "durationTicks": 288,
          "midi": 59,
          "name": "B3",
          "ticks": 76044,
          "time": 91.39894706249999,
          "velocity": 0.6929133858267716
        },
        {
          "duration": 0.3461534999999998,
          "durationTicks": 288,
          "midi": 52,
          "name": "E3",
          "ticks": 76044,
          "time": 91.39894706249999,
          "velocity": 0.6929133858267716
        },
        {
          "duration": 0.11538450000000466,
          "durationTicks": 96,
          "midi": 67,
          "name": "G4",
          "ticks": 76332,
          "time": 91.74510056249999,
          "velocity": 0.6929133858267716
        },
        {
          "duration": 0.11538450000000466,
          "durationTicks": 96,
          "midi": 62,
          "name": "D4",
          "ticks": 76332,
          "time": 91.74510056249999,
          "velocity": 0.6929133858267716
        },
        {
          "duration": 0.3461534999999998,
          "durationTicks": 288,
          "midi": 69,
          "name": "A4",
          "ticks": 76428,
          "time": 91.86048506249999,
          "velocity": 0.6929133858267716
        },
        {
          "duration": 0.3461534999999998,
          "durationTicks": 288,
          "midi": 64,
          "name": "E4",
          "ticks": 76428,
          "time": 91.86048506249999,
          "velocity": 0.6929133858267716
        },
        {
          "duration": 0.11538450000000466,
          "durationTicks": 96,
          "midi": 67,
          "name": "G4",
          "ticks": 76716,
          "time": 92.20663856249999,
          "velocity": 0.6929133858267716
        },
        {
          "duration": 0.11538450000000466,
          "durationTicks": 96,
          "midi": 62,
          "name": "D4",
          "ticks": 76716,
          "time": 92.20663856249999,
          "velocity": 0.6929133858267716
        },
        {
          "duration": 0.23076899999999512,
          "durationTicks": 192,
          "midi": 59,
          "name": "B3",
          "ticks": 76812,
          "time": 92.3220230625,
          "velocity": 0.6929133858267716
        },
        {
          "duration": 0.23076899999999512,
          "durationTicks": 192,
          "midi": 52,
          "name": "E3",
          "ticks": 76812,
          "time": 92.3220230625,
          "velocity": 0.6929133858267716
        },
        {
          "duration": 0.23076900000000933,
          "durationTicks": 192,
          "midi": 59,
          "name": "B3",
          "ticks": 77196,
          "time": 92.78356106249998,
          "velocity": 0.6929133858267716
        },
        {
          "duration": 0.23076900000000933,
          "durationTicks": 192,
          "midi": 52,
          "name": "E3",
          "ticks": 77196,
          "time": 92.78356106249998,
          "velocity": 0.6929133858267716
        },
        {
          "duration": 0.3461534999999998,
          "durationTicks": 288,
          "midi": 59,
          "name": "B3",
          "ticks": 77580,
          "time": 93.24509906249999,
          "velocity": 0.6929133858267716
        },
        {
          "duration": 0.3461534999999998,
          "durationTicks": 288,
          "midi": 52,
          "name": "E3",
          "ticks": 77580,
          "time": 93.24509906249999,
          "velocity": 0.6929133858267716
        },
        {
          "duration": 0.11538450000000466,
          "durationTicks": 96,
          "midi": 67,
          "name": "G4",
          "ticks": 77868,
          "time": 93.59125256249999,
          "velocity": 0.6929133858267716
        },
        {
          "duration": 0.11538450000000466,
          "durationTicks": 96,
          "midi": 62,
          "name": "D4",
          "ticks": 77868,
          "time": 93.59125256249999,
          "velocity": 0.6929133858267716
        },
        {
          "duration": 0.34615349999998557,
          "durationTicks": 288,
          "midi": 69,
          "name": "A4",
          "ticks": 77964,
          "time": 93.7066370625,
          "velocity": 0.6929133858267716
        },
        {
          "duration": 0.34615349999998557,
          "durationTicks": 288,
          "midi": 64,
          "name": "E4",
          "ticks": 77964,
          "time": 93.7066370625,
          "velocity": 0.6929133858267716
        },
        {
          "duration": 0.11538450000000466,
          "durationTicks": 96,
          "midi": 67,
          "name": "G4",
          "ticks": 78252,
          "time": 94.05279056249998,
          "velocity": 0.6929133858267716
        },
        {
          "duration": 0.11538450000000466,
          "durationTicks": 96,
          "midi": 62,
          "name": "D4",
          "ticks": 78252,
          "time": 94.05279056249998,
          "velocity": 0.6929133858267716
        },
        {
          "duration": 0.46153800000000444,
          "durationTicks": 384,
          "midi": 68,
          "name": "G#4",
          "ticks": 78348,
          "time": 94.16817506249998,
          "velocity": 0.6929133858267716
        },
        {
          "duration": 0.46153800000000444,
          "durationTicks": 384,
          "midi": 59,
          "name": "B3",
          "ticks": 78348,
          "time": 94.16817506249998,
          "velocity": 0.6929133858267716
        },
        {
          "duration": 0.46153800000000444,
          "durationTicks": 384,
          "midi": 52,
          "name": "E3",
          "ticks": 78348,
          "time": 94.16817506249998,
          "velocity": 0.6929133858267716
        },
        {
          "duration": 0.46153800000000444,
          "durationTicks": 384,
          "midi": 59,
          "name": "B3",
          "ticks": 78732,
          "time": 94.62971306249999,
          "velocity": 0.6929133858267716
        },
        {
          "duration": 0.46153800000000444,
          "durationTicks": 384,
          "midi": 52,
          "name": "E3",
          "ticks": 78732,
          "time": 94.62971306249999,
          "velocity": 0.6929133858267716
        },
        {
          "duration": 0.46153799999999023,
          "durationTicks": 384,
          "midi": 59,
          "name": "B3",
          "ticks": 79116,
          "time": 95.09125106249999,
          "velocity": 0.6929133858267716
        },
        {
          "duration": 0.46153799999999023,
          "durationTicks": 384,
          "midi": 52,
          "name": "E3",
          "ticks": 79116,
          "time": 95.09125106249999,
          "velocity": 0.6929133858267716
        },
        {
          "duration": 0.46153800000000444,
          "durationTicks": 384,
          "midi": 52,
          "name": "E3",
          "ticks": 79500,
          "time": 95.55278906249998,
          "velocity": 0.6929133858267716
        },
        {
          "duration": 0.46153800000000444,
          "durationTicks": 384,
          "midi": 59,
          "name": "B3",
          "ticks": 79500,
          "time": 95.55278906249998,
          "velocity": 0.6929133858267716
        },
        {
          "duration": 0.46153800000000444,
          "durationTicks": 384,
          "midi": 66,
          "name": "F#4",
          "ticks": 79884,
          "time": 96.01432706249999,
          "velocity": 0.6929133858267716
        },
        {
          "duration": 0.46153800000000444,
          "durationTicks": 384,
          "midi": 59,
          "name": "B3",
          "ticks": 79884,
          "time": 96.01432706249999,
          "velocity": 0.6929133858267716
        },
        {
          "duration": 0.46153799999999023,
          "durationTicks": 384,
          "midi": 68,
          "name": "G#4",
          "ticks": 80268,
          "time": 96.47586506249999,
          "velocity": 0.6929133858267716
        },
        {
          "duration": 0.46153799999999023,
          "durationTicks": 384,
          "midi": 59,
          "name": "B3",
          "ticks": 80268,
          "time": 96.47586506249999,
          "velocity": 0.6929133858267716
        },
        {
          "duration": 0.30769200000000296,
          "durationTicks": 256,
          "midi": 59,
          "name": "B3",
          "ticks": 80652,
          "time": 96.93740306249998,
          "velocity": 0.6929133858267716
        },
        {
          "duration": 0.30769200000000296,
          "durationTicks": 256,
          "midi": 68,
          "name": "G#4",
          "ticks": 80652,
          "time": 96.93740306249998,
          "velocity": 0.6929133858267716
        },
        {
          "duration": 0.30769200000000296,
          "durationTicks": 256,
          "midi": 66,
          "name": "F#4",
          "ticks": 80908,
          "time": 97.24509506249998,
          "velocity": 0.6929133858267716
        },
        {
          "duration": 0.30769200000000296,
          "durationTicks": 256,
          "midi": 59,
          "name": "B3",
          "ticks": 80908,
          "time": 97.24509506249998,
          "velocity": 0.6929133858267716
        },
        {
          "duration": 0.15384600000000148,
          "durationTicks": 128,
          "midi": 66,
          "name": "F#4",
          "ticks": 81292,
          "time": 97.70663306249999,
          "velocity": 0.6929133858267716
        },
        {
          "duration": 0.15384600000000148,
          "durationTicks": 128,
          "midi": 59,
          "name": "B3",
          "ticks": 81292,
          "time": 97.70663306249999,
          "velocity": 0.6929133858267716
        },
        {
          "duration": 0.30769200000000296,
          "durationTicks": 256,
          "midi": 68,
          "name": "G#4",
          "ticks": 81420,
          "time": 97.86047906249999,
          "velocity": 0.6929133858267716
        },
        {
          "duration": 0.30769200000000296,
          "durationTicks": 256,
          "midi": 59,
          "name": "B3",
          "ticks": 81420,
          "time": 97.86047906249999,
          "velocity": 0.6929133858267716
        },
        {
          "duration": 0.15384599999998727,
          "durationTicks": 128,
          "midi": 59,
          "name": "B3",
          "ticks": 81676,
          "time": 98.1681710625,
          "velocity": 0.6929133858267716
        },
        {
          "duration": 0.15384599999998727,
          "durationTicks": 128,
          "midi": 66,
          "name": "F#4",
          "ticks": 81676,
          "time": 98.1681710625,
          "velocity": 0.6929133858267716
        },
        {
          "duration": 0.30769200000000296,
          "durationTicks": 256,
          "midi": 68,
          "name": "G#4",
          "ticks": 81804,
          "time": 98.32201706249998,
          "velocity": 0.6929133858267716
        },
        {
          "duration": 0.30769200000000296,
          "durationTicks": 256,
          "midi": 59,
          "name": "B3",
          "ticks": 81804,
          "time": 98.32201706249998,
          "velocity": 0.6929133858267716
        },
        {
          "duration": 0.46153799999999023,
          "durationTicks": 384,
          "midi": 71,
          "name": "B4",
          "ticks": 82044,
          "time": 98.61047831249999,
          "velocity": 0.6929133858267716
        },
        {
          "duration": 0.46153799999999023,
          "durationTicks": 384,
          "midi": 66,
          "name": "F#4",
          "ticks": 82044,
          "time": 98.61047831249999,
          "velocity": 0.6929133858267716
        },
        {
          "duration": 0.46153799999999023,
          "durationTicks": 384,
          "midi": 59,
          "name": "B3",
          "ticks": 82044,
          "time": 98.61047831249999,
          "velocity": 0.6929133858267716
        },
        {
          "duration": 0.15384600000000148,
          "durationTicks": 128,
          "midi": 66,
          "name": "F#4",
          "ticks": 82444,
          "time": 99.09124706249999,
          "velocity": 0.6929133858267716
        },
        {
          "duration": 0.15384600000000148,
          "durationTicks": 128,
          "midi": 59,
          "name": "B3",
          "ticks": 82444,
          "time": 99.09124706249999,
          "velocity": 0.6929133858267716
        },
        {
          "duration": 0.30769200000000296,
          "durationTicks": 256,
          "midi": 68,
          "name": "G#4",
          "ticks": 82572,
          "time": 99.24509306249999,
          "velocity": 0.6929133858267716
        },
        {
          "duration": 0.30769200000000296,
          "durationTicks": 256,
          "midi": 59,
          "name": "B3",
          "ticks": 82572,
          "time": 99.24509306249999,
          "velocity": 0.6929133858267716
        },
        {
          "duration": 0.15384599999998727,
          "durationTicks": 128,
          "midi": 66,
          "name": "F#4",
          "ticks": 82828,
          "time": 99.55278506249999,
          "velocity": 0.6929133858267716
        },
        {
          "duration": 0.15384599999998727,
          "durationTicks": 128,
          "midi": 59,
          "name": "B3",
          "ticks": 82828,
          "time": 99.55278506249999,
          "velocity": 0.6929133858267716
        },
        {
          "duration": 0.46153800000000444,
          "durationTicks": 384,
          "midi": 66,
          "name": "F#4",
          "ticks": 82956,
          "time": 99.70663106249998,
          "velocity": 0.6929133858267716
        },
        {
          "duration": 0.46153800000000444,
          "durationTicks": 384,
          "midi": 59,
          "name": "B3",
          "ticks": 82956,
          "time": 99.70663106249998,
          "velocity": 0.6929133858267716
        },
        {
          "duration": 0.46153800000000444,
          "durationTicks": 384,
          "midi": 68,
          "name": "G#4",
          "ticks": 83340,
          "time": 100.16816906249998,
          "velocity": 0.6929133858267716
        },
        {
          "duration": 0.46153800000000444,
          "durationTicks": 384,
          "midi": 59,
          "name": "B3",
          "ticks": 83340,
          "time": 100.16816906249998,
          "velocity": 0.6929133858267716
        },
        {
          "duration": 0.30769200000000296,
          "durationTicks": 256,
          "midi": 59,
          "name": "B3",
          "ticks": 83724,
          "time": 100.62970706249999,
          "velocity": 0.6929133858267716
        },
        {
          "duration": 0.30769200000000296,
          "durationTicks": 256,
          "midi": 68,
          "name": "G#4",
          "ticks": 83724,
          "time": 100.62970706249999,
          "velocity": 0.6929133858267716
        },
        {
          "duration": 0.30769200000000296,
          "durationTicks": 256,
          "midi": 66,
          "name": "F#4",
          "ticks": 83980,
          "time": 100.93739906249999,
          "velocity": 0.6929133858267716
        },
        {
          "duration": 0.30769200000000296,
          "durationTicks": 256,
          "midi": 59,
          "name": "B3",
          "ticks": 83980,
          "time": 100.93739906249999,
          "velocity": 0.6929133858267716
        },
        {
          "duration": 0.1538460000000157,
          "durationTicks": 128,
          "midi": 66,
          "name": "F#4",
          "ticks": 84364,
          "time": 101.39893706249998,
          "velocity": 0.6929133858267716
        },
        {
          "duration": 0.1538460000000157,
          "durationTicks": 128,
          "midi": 59,
          "name": "B3",
          "ticks": 84364,
          "time": 101.39893706249998,
          "velocity": 0.6929133858267716
        },
        {
          "duration": 0.30769199999998875,
          "durationTicks": 256,
          "midi": 68,
          "name": "G#4",
          "ticks": 84492,
          "time": 101.5527830625,
          "velocity": 0.6929133858267716
        },
        {
          "duration": 0.30769199999998875,
          "durationTicks": 256,
          "midi": 59,
          "name": "B3",
          "ticks": 84492,
          "time": 101.5527830625,
          "velocity": 0.6929133858267716
        },
        {
          "duration": 0.15384600000000148,
          "durationTicks": 128,
          "midi": 59,
          "name": "B3",
          "ticks": 84748,
          "time": 101.86047506249999,
          "velocity": 0.6929133858267716
        },
        {
          "duration": 0.15384600000000148,
          "durationTicks": 128,
          "midi": 66,
          "name": "F#4",
          "ticks": 84748,
          "time": 101.86047506249999,
          "velocity": 0.6929133858267716
        },
        {
          "duration": 0.30769200000000296,
          "durationTicks": 256,
          "midi": 68,
          "name": "G#4",
          "ticks": 84876,
          "time": 102.01432106249999,
          "velocity": 0.6929133858267716
        },
        {
          "duration": 0.30769200000000296,
          "durationTicks": 256,
          "midi": 59,
          "name": "B3",
          "ticks": 84876,
          "time": 102.01432106249999,
          "velocity": 0.6929133858267716
        },
        {
          "duration": 0.46153800000000444,
          "durationTicks": 384,
          "midi": 71,
          "name": "B4",
          "ticks": 85116,
          "time": 102.30278231249999,
          "velocity": 0.6929133858267716
        },
        {
          "duration": 0.46153800000000444,
          "durationTicks": 384,
          "midi": 66,
          "name": "F#4",
          "ticks": 85116,
          "time": 102.30278231249999,
          "velocity": 0.6929133858267716
        },
        {
          "duration": 0.46153800000000444,
          "durationTicks": 384,
          "midi": 59,
          "name": "B3",
          "ticks": 85116,
          "time": 102.30278231249999,
          "velocity": 0.6929133858267716
        },
        {
          "duration": 0.1538460000000157,
          "durationTicks": 128,
          "midi": 66,
          "name": "F#4",
          "ticks": 85516,
          "time": 102.78355106249998,
          "velocity": 0.6929133858267716
        },
        {
          "duration": 0.1538460000000157,
          "durationTicks": 128,
          "midi": 59,
          "name": "B3",
          "ticks": 85516,
          "time": 102.78355106249998,
          "velocity": 0.6929133858267716
        },
        {
          "duration": 0.30769199999998875,
          "durationTicks": 256,
          "midi": 68,
          "name": "G#4",
          "ticks": 85644,
          "time": 102.9373970625,
          "velocity": 0.6929133858267716
        },
        {
          "duration": 0.30769199999998875,
          "durationTicks": 256,
          "midi": 59,
          "name": "B3",
          "ticks": 85644,
          "time": 102.9373970625,
          "velocity": 0.6929133858267716
        },
        {
          "duration": 0.15384600000000148,
          "durationTicks": 128,
          "midi": 66,
          "name": "F#4",
          "ticks": 85900,
          "time": 103.24508906249999,
          "velocity": 0.6929133858267716
        },
        {
          "duration": 0.15384600000000148,
          "durationTicks": 128,
          "midi": 59,
          "name": "B3",
          "ticks": 85900,
          "time": 103.24508906249999,
          "velocity": 0.6929133858267716
        },
        {
          "duration": 0.46153800000000444,
          "durationTicks": 384,
          "midi": 66,
          "name": "F#4",
          "ticks": 86028,
          "time": 103.39893506249999,
          "velocity": 0.6929133858267716
        },
        {
          "duration": 0.46153800000000444,
          "durationTicks": 384,
          "midi": 59,
          "name": "B3",
          "ticks": 86028,
          "time": 103.39893506249999,
          "velocity": 0.6929133858267716
        },
        {
          "duration": 0.46153799999999023,
          "durationTicks": 384,
          "midi": 68,
          "name": "G#4",
          "ticks": 86412,
          "time": 103.86047306249999,
          "velocity": 0.6929133858267716
        },
        {
          "duration": 0.46153799999999023,
          "durationTicks": 384,
          "midi": 59,
          "name": "B3",
          "ticks": 86412,
          "time": 103.86047306249999,
          "velocity": 0.6929133858267716
        },
        {
          "duration": 0.30769200000000296,
          "durationTicks": 256,
          "midi": 59,
          "name": "B3",
          "ticks": 86796,
          "time": 104.32201106249998,
          "velocity": 0.6929133858267716
        },
        {
          "duration": 0.30769200000000296,
          "durationTicks": 256,
          "midi": 68,
          "name": "G#4",
          "ticks": 86796,
          "time": 104.32201106249998,
          "velocity": 0.6929133858267716
        },
        {
          "duration": 0.30769200000000296,
          "durationTicks": 256,
          "midi": 66,
          "name": "F#4",
          "ticks": 87052,
          "time": 104.62970306249998,
          "velocity": 0.6929133858267716
        },
        {
          "duration": 0.30769200000000296,
          "durationTicks": 256,
          "midi": 59,
          "name": "B3",
          "ticks": 87052,
          "time": 104.62970306249998,
          "velocity": 0.6929133858267716
        },
        {
          "duration": 0.15384600000000148,
          "durationTicks": 128,
          "midi": 66,
          "name": "F#4",
          "ticks": 87436,
          "time": 105.09124106249999,
          "velocity": 0.6929133858267716
        },
        {
          "duration": 0.15384600000000148,
          "durationTicks": 128,
          "midi": 59,
          "name": "B3",
          "ticks": 87436,
          "time": 105.09124106249999,
          "velocity": 0.6929133858267716
        },
        {
          "duration": 0.30769199999998875,
          "durationTicks": 256,
          "midi": 68,
          "name": "G#4",
          "ticks": 87564,
          "time": 105.24508706249999,
          "velocity": 0.6929133858267716
        },
        {
          "duration": 0.30769199999998875,
          "durationTicks": 256,
          "midi": 59,
          "name": "B3",
          "ticks": 87564,
          "time": 105.24508706249999,
          "velocity": 0.6929133858267716
        },
        {
          "duration": 0.15384600000000148,
          "durationTicks": 128,
          "midi": 59,
          "name": "B3",
          "ticks": 87820,
          "time": 105.55277906249998,
          "velocity": 0.6929133858267716
        },
        {
          "duration": 0.15384600000000148,
          "durationTicks": 128,
          "midi": 66,
          "name": "F#4",
          "ticks": 87820,
          "time": 105.55277906249998,
          "velocity": 0.6929133858267716
        },
        {
          "duration": 0.30769200000000296,
          "durationTicks": 256,
          "midi": 68,
          "name": "G#4",
          "ticks": 87948,
          "time": 105.70662506249998,
          "velocity": 0.6929133858267716
        },
        {
          "duration": 0.30769200000000296,
          "durationTicks": 256,
          "midi": 59,
          "name": "B3",
          "ticks": 87948,
          "time": 105.70662506249998,
          "velocity": 0.6929133858267716
        },
        {
          "duration": 0.46153799999999023,
          "durationTicks": 384,
          "midi": 71,
          "name": "B4",
          "ticks": 88188,
          "time": 105.99508631249999,
          "velocity": 0.6929133858267716
        },
        {
          "duration": 0.46153799999999023,
          "durationTicks": 384,
          "midi": 66,
          "name": "F#4",
          "ticks": 88188,
          "time": 105.99508631249999,
          "velocity": 0.6929133858267716
        },
        {
          "duration": 0.46153799999999023,
          "durationTicks": 384,
          "midi": 59,
          "name": "B3",
          "ticks": 88188,
          "time": 105.99508631249999,
          "velocity": 0.6929133858267716
        },
        {
          "duration": 0.15384600000000148,
          "durationTicks": 128,
          "midi": 66,
          "name": "F#4",
          "ticks": 88588,
          "time": 106.47585506249999,
          "velocity": 0.6929133858267716
        },
        {
          "duration": 0.15384600000000148,
          "durationTicks": 128,
          "midi": 59,
          "name": "B3",
          "ticks": 88588,
          "time": 106.47585506249999,
          "velocity": 0.6929133858267716
        },
        {
          "duration": 0.30769200000000296,
          "durationTicks": 256,
          "midi": 68,
          "name": "G#4",
          "ticks": 88716,
          "time": 106.62970106249999,
          "velocity": 0.6929133858267716
        },
        {
          "duration": 0.30769200000000296,
          "durationTicks": 256,
          "midi": 59,
          "name": "B3",
          "ticks": 88716,
          "time": 106.62970106249999,
          "velocity": 0.6929133858267716
        },
        {
          "duration": 0.15384599999998727,
          "durationTicks": 128,
          "midi": 66,
          "name": "F#4",
          "ticks": 88972,
          "time": 106.93739306249999,
          "velocity": 0.6929133858267716
        },
        {
          "duration": 0.15384599999998727,
          "durationTicks": 128,
          "midi": 59,
          "name": "B3",
          "ticks": 88972,
          "time": 106.93739306249999,
          "velocity": 0.6929133858267716
        },
        {
          "duration": 0.46153800000000444,
          "durationTicks": 384,
          "midi": 66,
          "name": "F#4",
          "ticks": 89100,
          "time": 107.09123906249998,
          "velocity": 0.6929133858267716
        },
        {
          "duration": 0.46153800000000444,
          "durationTicks": 384,
          "midi": 59,
          "name": "B3",
          "ticks": 89100,
          "time": 107.09123906249998,
          "velocity": 0.6929133858267716
        },
        {
          "duration": 0.46153800000000444,
          "durationTicks": 384,
          "midi": 68,
          "name": "G#4",
          "ticks": 89484,
          "time": 107.55277706249998,
          "velocity": 0.6929133858267716
        },
        {
          "duration": 0.46153800000000444,
          "durationTicks": 384,
          "midi": 59,
          "name": "B3",
          "ticks": 89484,
          "time": 107.55277706249998,
          "velocity": 0.6929133858267716
        },
        {
          "duration": 0.30769200000000296,
          "durationTicks": 256,
          "midi": 59,
          "name": "B3",
          "ticks": 89868,
          "time": 108.01431506249999,
          "velocity": 0.6929133858267716
        },
        {
          "duration": 0.30769200000000296,
          "durationTicks": 256,
          "midi": 68,
          "name": "G#4",
          "ticks": 89868,
          "time": 108.01431506249999,
          "velocity": 0.6929133858267716
        },
        {
          "duration": 0.30769199999998875,
          "durationTicks": 256,
          "midi": 66,
          "name": "F#4",
          "ticks": 90124,
          "time": 108.32200706249999,
          "velocity": 0.6929133858267716
        },
        {
          "duration": 0.30769199999998875,
          "durationTicks": 256,
          "midi": 59,
          "name": "B3",
          "ticks": 90124,
          "time": 108.32200706249999,
          "velocity": 0.6929133858267716
        },
        {
          "duration": 0.15384600000000148,
          "durationTicks": 128,
          "midi": 66,
          "name": "F#4",
          "ticks": 90508,
          "time": 108.78354506249998,
          "velocity": 0.6929133858267716
        },
        {
          "duration": 0.15384600000000148,
          "durationTicks": 128,
          "midi": 59,
          "name": "B3",
          "ticks": 90508,
          "time": 108.78354506249998,
          "velocity": 0.6929133858267716
        },
        {
          "duration": 0.30769200000000296,
          "durationTicks": 256,
          "midi": 68,
          "name": "G#4",
          "ticks": 90636,
          "time": 108.93739106249998,
          "velocity": 0.6929133858267716
        },
        {
          "duration": 0.30769200000000296,
          "durationTicks": 256,
          "midi": 59,
          "name": "B3",
          "ticks": 90636,
          "time": 108.93739106249998,
          "velocity": 0.6929133858267716
        },
        {
          "duration": 0.15384600000000148,
          "durationTicks": 128,
          "midi": 59,
          "name": "B3",
          "ticks": 90892,
          "time": 109.24508306249999,
          "velocity": 0.6929133858267716
        },
        {
          "duration": 0.15384600000000148,
          "durationTicks": 128,
          "midi": 66,
          "name": "F#4",
          "ticks": 90892,
          "time": 109.24508306249999,
          "velocity": 0.6929133858267716
        },
        {
          "duration": 0.30769200000000296,
          "durationTicks": 256,
          "midi": 68,
          "name": "G#4",
          "ticks": 91020,
          "time": 109.39892906249999,
          "velocity": 0.6929133858267716
        },
        {
          "duration": 0.30769200000000296,
          "durationTicks": 256,
          "midi": 59,
          "name": "B3",
          "ticks": 91020,
          "time": 109.39892906249999,
          "velocity": 0.6929133858267716
        },
        {
          "duration": 0.46153800000000444,
          "durationTicks": 384,
          "midi": 71,
          "name": "B4",
          "ticks": 91260,
          "time": 109.68739031249999,
          "velocity": 0.6929133858267716
        },
        {
          "duration": 0.46153800000000444,
          "durationTicks": 384,
          "midi": 66,
          "name": "F#4",
          "ticks": 91260,
          "time": 109.68739031249999,
          "velocity": 0.6929133858267716
        },
        {
          "duration": 0.46153800000000444,
          "durationTicks": 384,
          "midi": 59,
          "name": "B3",
          "ticks": 91260,
          "time": 109.68739031249999,
          "velocity": 0.6929133858267716
        },
        {
          "duration": 0.15384600000000148,
          "durationTicks": 128,
          "midi": 66,
          "name": "F#4",
          "ticks": 91660,
          "time": 110.16815906249998,
          "velocity": 0.6929133858267716
        },
        {
          "duration": 0.15384600000000148,
          "durationTicks": 128,
          "midi": 59,
          "name": "B3",
          "ticks": 91660,
          "time": 110.16815906249998,
          "velocity": 0.6929133858267716
        },
        {
          "duration": 0.30769200000000296,
          "durationTicks": 256,
          "midi": 68,
          "name": "G#4",
          "ticks": 91788,
          "time": 110.32200506249998,
          "velocity": 0.6929133858267716
        },
        {
          "duration": 0.30769200000000296,
          "durationTicks": 256,
          "midi": 59,
          "name": "B3",
          "ticks": 91788,
          "time": 110.32200506249998,
          "velocity": 0.6929133858267716
        },
        {
          "duration": 0.15384600000000148,
          "durationTicks": 128,
          "midi": 66,
          "name": "F#4",
          "ticks": 92044,
          "time": 110.62969706249999,
          "velocity": 0.6929133858267716
        },
        {
          "duration": 0.15384600000000148,
          "durationTicks": 128,
          "midi": 59,
          "name": "B3",
          "ticks": 92044,
          "time": 110.62969706249999,
          "velocity": 0.6929133858267716
        },
        {
          "duration": 0.46153800000000444,
          "durationTicks": 384,
          "midi": 64,
          "name": "E4",
          "ticks": 92172,
          "time": 110.78354306249999,
          "velocity": 0.6929133858267716
        },
        {
          "duration": 0.46153800000000444,
          "durationTicks": 384,
          "midi": 57,
          "name": "A3",
          "ticks": 92172,
          "time": 110.78354306249999,
          "velocity": 0.6929133858267716
        },
        {
          "duration": 0.46153799999999023,
          "durationTicks": 384,
          "midi": 66,
          "name": "F#4",
          "ticks": 92556,
          "time": 111.24508106249999,
          "velocity": 0.6929133858267716
        },
        {
          "duration": 0.46153799999999023,
          "durationTicks": 384,
          "midi": 57,
          "name": "A3",
          "ticks": 92556,
          "time": 111.24508106249999,
          "velocity": 0.6929133858267716
        },
        {
          "duration": 0.30769200000000296,
          "durationTicks": 256,
          "midi": 57,
          "name": "A3",
          "ticks": 92940,
          "time": 111.70661906249998,
          "velocity": 0.6929133858267716
        },
        {
          "duration": 0.30769200000000296,
          "durationTicks": 256,
          "midi": 66,
          "name": "F#4",
          "ticks": 92940,
          "time": 111.70661906249998,
          "velocity": 0.6929133858267716
        },
        {
          "duration": 0.30769200000000296,
          "durationTicks": 256,
          "midi": 64,
          "name": "E4",
          "ticks": 93196,
          "time": 112.01431106249998,
          "velocity": 0.6929133858267716
        },
        {
          "duration": 0.30769200000000296,
          "durationTicks": 256,
          "midi": 57,
          "name": "A3",
          "ticks": 93196,
          "time": 112.01431106249998,
          "velocity": 0.6929133858267716
        },
        {
          "duration": 0.15384600000000148,
          "durationTicks": 128,
          "midi": 64,
          "name": "E4",
          "ticks": 93580,
          "time": 112.47584906249999,
          "velocity": 0.6929133858267716
        },
        {
          "duration": 0.15384600000000148,
          "durationTicks": 128,
          "midi": 57,
          "name": "A3",
          "ticks": 93580,
          "time": 112.47584906249999,
          "velocity": 0.6929133858267716
        },
        {
          "duration": 0.30769200000000296,
          "durationTicks": 256,
          "midi": 73,
          "name": "C#5",
          "ticks": 93708,
          "time": 112.62969506249999,
          "velocity": 0.905511811023622
        },
        {
          "duration": 0.30769200000000296,
          "durationTicks": 256,
          "midi": 66,
          "name": "F#4",
          "ticks": 93708,
          "time": 112.62969506249999,
          "velocity": 0.6929133858267716
        },
        {
          "duration": 0.30769200000000296,
          "durationTicks": 256,
          "midi": 57,
          "name": "A3",
          "ticks": 93708,
          "time": 112.62969506249999,
          "velocity": 0.6929133858267716
        },
        {
          "duration": 0.15384599999998727,
          "durationTicks": 128,
          "midi": 76,
          "name": "E5",
          "ticks": 93964,
          "time": 112.9373870625,
          "velocity": 0.905511811023622
        },
        {
          "duration": 0.15384599999998727,
          "durationTicks": 128,
          "midi": 57,
          "name": "A3",
          "ticks": 93964,
          "time": 112.9373870625,
          "velocity": 0.6929133858267716
        },
        {
          "duration": 0.15384599999998727,
          "durationTicks": 128,
          "midi": 64,
          "name": "E4",
          "ticks": 93964,
          "time": 112.9373870625,
          "velocity": 0.6929133858267716
        },
        {
          "duration": 0.30769200000000296,
          "durationTicks": 256,
          "midi": 79,
          "name": "G5",
          "ticks": 94092,
          "time": 113.09123306249998,
          "velocity": 0.905511811023622
        },
        {
          "duration": 0.30769200000000296,
          "durationTicks": 256,
          "midi": 66,
          "name": "F#4",
          "ticks": 94092,
          "time": 113.09123306249998,
          "velocity": 0.6929133858267716
        },
        {
          "duration": 0.30769200000000296,
          "durationTicks": 256,
          "midi": 57,
          "name": "A3",
          "ticks": 94092,
          "time": 113.09123306249998,
          "velocity": 0.6929133858267716
        },
        {
          "duration": 0.6923069999999996,
          "durationTicks": 576,
          "midi": 78,
          "name": "F#5",
          "ticks": 94332,
          "time": 113.37969431249999,
          "velocity": 0.905511811023622
        },
        {
          "duration": 0.46153799999999023,
          "durationTicks": 384,
          "midi": 69,
          "name": "A4",
          "ticks": 94332,
          "time": 113.37969431249999,
          "velocity": 0.6929133858267716
        },
        {
          "duration": 0.46153799999999023,
          "durationTicks": 384,
          "midi": 64,
          "name": "E4",
          "ticks": 94332,
          "time": 113.37969431249999,
          "velocity": 0.6929133858267716
        },
        {
          "duration": 0.46153799999999023,
          "durationTicks": 384,
          "midi": 57,
          "name": "A3",
          "ticks": 94332,
          "time": 113.37969431249999,
          "velocity": 0.6929133858267716
        },
        {
          "duration": 0.15384600000000148,
          "durationTicks": 128,
          "midi": 64,
          "name": "E4",
          "ticks": 94732,
          "time": 113.86046306249999,
          "velocity": 0.6929133858267716
        },
        {
          "duration": 0.15384600000000148,
          "durationTicks": 128,
          "midi": 57,
          "name": "A3",
          "ticks": 94732,
          "time": 113.86046306249999,
          "velocity": 0.6929133858267716
        },
        {
          "duration": 0.30769200000000296,
          "durationTicks": 256,
          "midi": 66,
          "name": "F#4",
          "ticks": 94860,
          "time": 114.01430906249999,
          "velocity": 0.6929133858267716
        },
        {
          "duration": 0.30769200000000296,
          "durationTicks": 256,
          "midi": 57,
          "name": "A3",
          "ticks": 94860,
          "time": 114.01430906249999,
          "velocity": 0.6929133858267716
        },
        {
          "duration": 0.15384599999998727,
          "durationTicks": 128,
          "midi": 64,
          "name": "E4",
          "ticks": 95116,
          "time": 114.3220010625,
          "velocity": 0.6929133858267716
        },
        {
          "duration": 0.15384599999998727,
          "durationTicks": 128,
          "midi": 57,
          "name": "A3",
          "ticks": 95116,
          "time": 114.3220010625,
          "velocity": 0.6929133858267716
        },
        {
          "duration": 0.46153800000000444,
          "durationTicks": 384,
          "midi": 64,
          "name": "E4",
          "ticks": 95244,
          "time": 114.47584706249998,
          "velocity": 0.6929133858267716
        },
        {
          "duration": 0.46153800000000444,
          "durationTicks": 384,
          "midi": 57,
          "name": "A3",
          "ticks": 95244,
          "time": 114.47584706249998,
          "velocity": 0.6929133858267716
        },
        {
          "duration": 0.46153800000000444,
          "durationTicks": 384,
          "midi": 66,
          "name": "F#4",
          "ticks": 95628,
          "time": 114.93738506249998,
          "velocity": 0.6929133858267716
        },
        {
          "duration": 0.46153800000000444,
          "durationTicks": 384,
          "midi": 57,
          "name": "A3",
          "ticks": 95628,
          "time": 114.93738506249998,
          "velocity": 0.6929133858267716
        },
        {
          "duration": 0.30769200000000296,
          "durationTicks": 256,
          "midi": 57,
          "name": "A3",
          "ticks": 96012,
          "time": 115.39892306249999,
          "velocity": 0.6929133858267716
        },
        {
          "duration": 0.30769200000000296,
          "durationTicks": 256,
          "midi": 66,
          "name": "F#4",
          "ticks": 96012,
          "time": 115.39892306249999,
          "velocity": 0.6929133858267716
        },
        {
          "duration": 0.30769199999998875,
          "durationTicks": 256,
          "midi": 64,
          "name": "E4",
          "ticks": 96268,
          "time": 115.70661506249999,
          "velocity": 0.6929133858267716
        },
        {
          "duration": 0.30769199999998875,
          "durationTicks": 256,
          "midi": 57,
          "name": "A3",
          "ticks": 96268,
          "time": 115.70661506249999,
          "velocity": 0.6929133858267716
        },
        {
          "duration": 0.15384600000000148,
          "durationTicks": 128,
          "midi": 64,
          "name": "E4",
          "ticks": 96652,
          "time": 116.16815306249998,
          "velocity": 0.6929133858267716
        },
        {
          "duration": 0.15384600000000148,
          "durationTicks": 128,
          "midi": 57,
          "name": "A3",
          "ticks": 96652,
          "time": 116.16815306249998,
          "velocity": 0.6929133858267716
        },
        {
          "duration": 0.30769200000000296,
          "durationTicks": 256,
          "midi": 66,
          "name": "F#4",
          "ticks": 96780,
          "time": 116.32199906249998,
          "velocity": 0.6929133858267716
        },
        {
          "duration": 0.30769200000000296,
          "durationTicks": 256,
          "midi": 57,
          "name": "A3",
          "ticks": 96780,
          "time": 116.32199906249998,
          "velocity": 0.6929133858267716
        },
        {
          "duration": 0.30769200000000296,
          "durationTicks": 256,
          "midi": 73,
          "name": "C#5",
          "ticks": 96780,
          "time": 116.32199906249998,
          "velocity": 0.905511811023622
        },
        {
          "duration": 0.15384600000000148,
          "durationTicks": 128,
          "midi": 57,
          "name": "A3",
          "ticks": 97036,
          "time": 116.62969106249999,
          "velocity": 0.6929133858267716
        },
        {
          "duration": 0.15384600000000148,
          "durationTicks": 128,
          "midi": 64,
          "name": "E4",
          "ticks": 97036,
          "time": 116.62969106249999,
          "velocity": 0.6929133858267716
        },
        {
          "duration": 0.15384600000000148,
          "durationTicks": 128,
          "midi": 76,
          "name": "E5",
          "ticks": 97036,
          "time": 116.62969106249999,
          "velocity": 0.905511811023622
        },
        {
          "duration": 0.30769200000000296,
          "durationTicks": 256,
          "midi": 66,
          "name": "F#4",
          "ticks": 97164,
          "time": 116.78353706249999,
          "velocity": 0.6929133858267716
        },
        {
          "duration": 0.30769200000000296,
          "durationTicks": 256,
          "midi": 57,
          "name": "A3",
          "ticks": 97164,
          "time": 116.78353706249999,
          "velocity": 0.6929133858267716
        },
        {
          "duration": 0.30769200000000296,
          "durationTicks": 256,
          "midi": 79,
          "name": "G5",
          "ticks": 97164,
          "time": 116.78353706249999,
          "velocity": 0.905511811023622
        },
        {
          "duration": 0.46153800000000444,
          "durationTicks": 384,
          "midi": 69,
          "name": "A4",
          "ticks": 97404,
          "time": 117.07199831249999,
          "velocity": 0.6929133858267716
        },
        {
          "duration": 0.46153800000000444,
          "durationTicks": 384,
          "midi": 64,
          "name": "E4",
          "ticks": 97404,
          "time": 117.07199831249999,
          "velocity": 0.6929133858267716
        },
        {
          "duration": 0.46153800000000444,
          "durationTicks": 384,
          "midi": 57,
          "name": "A3",
          "ticks": 97404,
          "time": 117.07199831249999,
          "velocity": 0.6929133858267716
        },
        {
          "duration": 0.6923069999999996,
          "durationTicks": 576,
          "midi": 78,
          "name": "F#5",
          "ticks": 97404,
          "time": 117.07199831249999,
          "velocity": 0.905511811023622
        },
        {
          "duration": 0.15384600000000148,
          "durationTicks": 128,
          "midi": 64,
          "name": "E4",
          "ticks": 97804,
          "time": 117.55276706249998,
          "velocity": 0.6929133858267716
        },
        {
          "duration": 0.15384600000000148,
          "durationTicks": 128,
          "midi": 57,
          "name": "A3",
          "ticks": 97804,
          "time": 117.55276706249998,
          "velocity": 0.6929133858267716
        },
        {
          "duration": 0.30769200000000296,
          "durationTicks": 256,
          "midi": 66,
          "name": "F#4",
          "ticks": 97932,
          "time": 117.70661306249998,
          "velocity": 0.6929133858267716
        },
        {
          "duration": 0.30769200000000296,
          "durationTicks": 256,
          "midi": 57,
          "name": "A3",
          "ticks": 97932,
          "time": 117.70661306249998,
          "velocity": 0.6929133858267716
        },
        {
          "duration": 0.15384600000000148,
          "durationTicks": 128,
          "midi": 64,
          "name": "E4",
          "ticks": 98188,
          "time": 118.01430506249999,
          "velocity": 0.6929133858267716
        },
        {
          "duration": 0.15384600000000148,
          "durationTicks": 128,
          "midi": 57,
          "name": "A3",
          "ticks": 98188,
          "time": 118.01430506249999,
          "velocity": 0.6929133858267716
        },
        {
          "duration": 0.23076899999999512,
          "durationTicks": 192,
          "midi": 59,
          "name": "B3",
          "ticks": 98316,
          "time": 118.16815106249999,
          "velocity": 0.6929133858267716
        },
        {
          "duration": 0.23076899999999512,
          "durationTicks": 192,
          "midi": 52,
          "name": "E3",
          "ticks": 98316,
          "time": 118.16815106249999,
          "velocity": 0.6929133858267716
        },
        {
          "duration": 0.23076900000000933,
          "durationTicks": 192,
          "midi": 59,
          "name": "B3",
          "ticks": 98700,
          "time": 118.62968906249998,
          "velocity": 0.6929133858267716
        },
        {
          "duration": 0.23076900000000933,
          "durationTicks": 192,
          "midi": 52,
          "name": "E3",
          "ticks": 98700,
          "time": 118.62968906249998,
          "velocity": 0.6929133858267716
        },
        {
          "duration": 0.3461534999999998,
          "durationTicks": 288,
          "midi": 59,
          "name": "B3",
          "ticks": 99084,
          "time": 119.09122706249998,
          "velocity": 0.6929133858267716
        },
        {
          "duration": 0.3461534999999998,
          "durationTicks": 288,
          "midi": 52,
          "name": "E3",
          "ticks": 99084,
          "time": 119.09122706249998,
          "velocity": 0.6929133858267716
        },
        {
          "duration": 0.11538450000000466,
          "durationTicks": 96,
          "midi": 67,
          "name": "G4",
          "ticks": 99372,
          "time": 119.43738056249998,
          "velocity": 0.6929133858267716
        },
        {
          "duration": 0.11538450000000466,
          "durationTicks": 96,
          "midi": 62,
          "name": "D4",
          "ticks": 99372,
          "time": 119.43738056249998,
          "velocity": 0.6929133858267716
        },
        {
          "duration": 0.3461534999999998,
          "durationTicks": 288,
          "midi": 69,
          "name": "A4",
          "ticks": 99468,
          "time": 119.55276506249999,
          "velocity": 0.6929133858267716
        },
        {
          "duration": 0.3461534999999998,
          "durationTicks": 288,
          "midi": 64,
          "name": "E4",
          "ticks": 99468,
          "time": 119.55276506249999,
          "velocity": 0.6929133858267716
        },
        {
          "duration": 0.11538449999999045,
          "durationTicks": 96,
          "midi": 67,
          "name": "G4",
          "ticks": 99756,
          "time": 119.89891856249999,
          "velocity": 0.6929133858267716
        },
        {
          "duration": 0.11538449999999045,
          "durationTicks": 96,
          "midi": 62,
          "name": "D4",
          "ticks": 99756,
          "time": 119.89891856249999,
          "velocity": 0.6929133858267716
        },
        {
          "duration": 0.23076900000000933,
          "durationTicks": 192,
          "midi": 59,
          "name": "B3",
          "ticks": 99852,
          "time": 120.01430306249998,
          "velocity": 0.6929133858267716
        },
        {
          "duration": 0.23076900000000933,
          "durationTicks": 192,
          "midi": 52,
          "name": "E3",
          "ticks": 99852,
          "time": 120.01430306249998,
          "velocity": 0.6929133858267716
        },
        {
          "duration": 0.23076899999999512,
          "durationTicks": 192,
          "midi": 59,
          "name": "B3",
          "ticks": 100236,
          "time": 120.47584106249998,
          "velocity": 0.6929133858267716
        },
        {
          "duration": 0.23076899999999512,
          "durationTicks": 192,
          "midi": 52,
          "name": "E3",
          "ticks": 100236,
          "time": 120.47584106249998,
          "velocity": 0.6929133858267716
        },
        {
          "duration": 0.3461534999999998,
          "durationTicks": 288,
          "midi": 59,
          "name": "B3",
          "ticks": 100620,
          "time": 120.93737906249999,
          "velocity": 0.6929133858267716
        },
        {
          "duration": 0.3461534999999998,
          "durationTicks": 288,
          "midi": 52,
          "name": "E3",
          "ticks": 100620,
          "time": 120.93737906249999,
          "velocity": 0.6929133858267716
        },
        {
          "duration": 0.11538449999999045,
          "durationTicks": 96,
          "midi": 67,
          "name": "G4",
          "ticks": 100908,
          "time": 121.28353256249999,
          "velocity": 0.6929133858267716
        },
        {
          "duration": 0.11538449999999045,
          "durationTicks": 96,
          "midi": 62,
          "name": "D4",
          "ticks": 100908,
          "time": 121.28353256249999,
          "velocity": 0.6929133858267716
        },
        {
          "duration": 0.346153500000014,
          "durationTicks": 288,
          "midi": 69,
          "name": "A4",
          "ticks": 101004,
          "time": 121.39891706249998,
          "velocity": 0.6929133858267716
        },
        {
          "duration": 0.346153500000014,
          "durationTicks": 288,
          "midi": 64,
          "name": "E4",
          "ticks": 101004,
          "time": 121.39891706249998,
          "velocity": 0.6929133858267716
        },
        {
          "duration": 0.11538449999999045,
          "durationTicks": 96,
          "midi": 67,
          "name": "G4",
          "ticks": 101292,
          "time": 121.74507056249999,
          "velocity": 0.6929133858267716
        },
        {
          "duration": 0.11538449999999045,
          "durationTicks": 96,
          "midi": 62,
          "name": "D4",
          "ticks": 101292,
          "time": 121.74507056249999,
          "velocity": 0.6929133858267716
        },
        {
          "duration": 0.23076900000000933,
          "durationTicks": 192,
          "midi": 59,
          "name": "B3",
          "ticks": 101388,
          "time": 121.86045506249998,
          "velocity": 0.6929133858267716
        },
        {
          "duration": 0.23076900000000933,
          "durationTicks": 192,
          "midi": 52,
          "name": "E3",
          "ticks": 101388,
          "time": 121.86045506249998,
          "velocity": 0.6929133858267716
        },
        {
          "duration": 0.23076899999999512,
          "durationTicks": 192,
          "midi": 59,
          "name": "B3",
          "ticks": 101772,
          "time": 122.32199306249998,
          "velocity": 0.6929133858267716
        },
        {
          "duration": 0.23076899999999512,
          "durationTicks": 192,
          "midi": 52,
          "name": "E3",
          "ticks": 101772,
          "time": 122.32199306249998,
          "velocity": 0.6929133858267716
        },
        {
          "duration": 0.3461534999999998,
          "durationTicks": 288,
          "midi": 59,
          "name": "B3",
          "ticks": 102156,
          "time": 122.78353106249999,
          "velocity": 0.6929133858267716
        },
        {
          "duration": 0.3461534999999998,
          "durationTicks": 288,
          "midi": 52,
          "name": "E3",
          "ticks": 102156,
          "time": 122.78353106249999,
          "velocity": 0.6929133858267716
        },
        {
          "duration": 0.11538449999999045,
          "durationTicks": 96,
          "midi": 67,
          "name": "G4",
          "ticks": 102444,
          "time": 123.12968456249999,
          "velocity": 0.6929133858267716
        },
        {
          "duration": 0.11538449999999045,
          "durationTicks": 96,
          "midi": 62,
          "name": "D4",
          "ticks": 102444,
          "time": 123.12968456249999,
          "velocity": 0.6929133858267716
        },
        {
          "duration": 0.3461534999999998,
          "durationTicks": 288,
          "midi": 69,
          "name": "A4",
          "ticks": 102540,
          "time": 123.24506906249998,
          "velocity": 0.6929133858267716
        },
        {
          "duration": 0.3461534999999998,
          "durationTicks": 288,
          "midi": 64,
          "name": "E4",
          "ticks": 102540,
          "time": 123.24506906249998,
          "velocity": 0.6929133858267716
        },
        {
          "duration": 0.11538450000000466,
          "durationTicks": 96,
          "midi": 67,
          "name": "G4",
          "ticks": 102828,
          "time": 123.59122256249998,
          "velocity": 0.6929133858267716
        },
        {
          "duration": 0.11538450000000466,
          "durationTicks": 96,
          "midi": 62,
          "name": "D4",
          "ticks": 102828,
          "time": 123.59122256249998,
          "velocity": 0.6929133858267716
        },
        {
          "duration": 0.23076900000000933,
          "durationTicks": 192,
          "midi": 59,
          "name": "B3",
          "ticks": 102924,
          "time": 123.70660706249998,
          "velocity": 0.6929133858267716
        },
        {
          "duration": 0.23076900000000933,
          "durationTicks": 192,
          "midi": 52,
          "name": "E3",
          "ticks": 102924,
          "time": 123.70660706249998,
          "velocity": 0.6929133858267716
        },
        {
          "duration": 0.23076899999999512,
          "durationTicks": 192,
          "midi": 59,
          "name": "B3",
          "ticks": 103308,
          "time": 124.16814506249999,
          "velocity": 0.6929133858267716
        },
        {
          "duration": 0.23076899999999512,
          "durationTicks": 192,
          "midi": 52,
          "name": "E3",
          "ticks": 103308,
          "time": 124.16814506249999,
          "velocity": 0.6929133858267716
        },
        {
          "duration": 0.34615349999998557,
          "durationTicks": 288,
          "midi": 59,
          "name": "B3",
          "ticks": 103692,
          "time": 124.62968306249999,
          "velocity": 0.6929133858267716
        },
        {
          "duration": 0.34615349999998557,
          "durationTicks": 288,
          "midi": 52,
          "name": "E3",
          "ticks": 103692,
          "time": 124.62968306249999,
          "velocity": 0.6929133858267716
        },
        {
          "duration": 0.11538450000000466,
          "durationTicks": 96,
          "midi": 67,
          "name": "G4",
          "ticks": 103980,
          "time": 124.97583656249998,
          "velocity": 0.6929133858267716
        },
        {
          "duration": 0.11538450000000466,
          "durationTicks": 96,
          "midi": 62,
          "name": "D4",
          "ticks": 103980,
          "time": 124.97583656249998,
          "velocity": 0.6929133858267716
        },
        {
          "duration": 0.3461534999999998,
          "durationTicks": 288,
          "midi": 69,
          "name": "A4",
          "ticks": 104076,
          "time": 125.09122106249998,
          "velocity": 0.6929133858267716
        },
        {
          "duration": 0.3461534999999998,
          "durationTicks": 288,
          "midi": 64,
          "name": "E4",
          "ticks": 104076,
          "time": 125.09122106249998,
          "velocity": 0.6929133858267716
        },
        {
          "duration": 0.10096143750000408,
          "durationTicks": 84,
          "midi": 67,
          "name": "G4",
          "ticks": 104364,
          "time": 125.43737456249998,
          "velocity": 0.6929133858267716
        },
        {
          "duration": 0.10096143750000408,
          "durationTicks": 84,
          "midi": 62,
          "name": "D4",
          "ticks": 104364,
          "time": 125.43737456249998,
          "velocity": 0.6929133858267716
        },
        {
          "duration": 0.23076899999999512,
          "durationTicks": 192,
          "midi": 59,
          "name": "B3",
          "ticks": 104460,
          "time": 125.55275906249999,
          "velocity": 0.6929133858267716
        },
        {
          "duration": 0.23076899999999512,
          "durationTicks": 192,
          "midi": 52,
          "name": "E3",
          "ticks": 104460,
          "time": 125.55275906249999,
          "velocity": 0.6929133858267716
        },
        {
          "duration": 0.23076899999999512,
          "durationTicks": 192,
          "midi": 59,
          "name": "B3",
          "ticks": 104844,
          "time": 126.01429706249999,
          "velocity": 0.6929133858267716
        },
        {
          "duration": 0.23076899999999512,
          "durationTicks": 192,
          "midi": 52,
          "name": "E3",
          "ticks": 104844,
          "time": 126.01429706249999,
          "velocity": 0.6929133858267716
        },
        {
          "duration": 0.3461534999999998,
          "durationTicks": 288,
          "midi": 59,
          "name": "B3",
          "ticks": 105228,
          "time": 126.47583506249998,
          "velocity": 0.6929133858267716
        },
        {
          "duration": 0.3461534999999998,
          "durationTicks": 288,
          "midi": 52,
          "name": "E3",
          "ticks": 105228,
          "time": 126.47583506249998,
          "velocity": 0.6929133858267716
        },
        {
          "duration": 0.11538450000000466,
          "durationTicks": 96,
          "midi": 67,
          "name": "G4",
          "ticks": 105516,
          "time": 126.82198856249998,
          "velocity": 0.6929133858267716
        },
        {
          "duration": 0.11538450000000466,
          "durationTicks": 96,
          "midi": 62,
          "name": "D4",
          "ticks": 105516,
          "time": 126.82198856249998,
          "velocity": 0.6929133858267716
        },
        {
          "duration": 0.3461534999999998,
          "durationTicks": 288,
          "midi": 69,
          "name": "A4",
          "ticks": 105612,
          "time": 126.93737306249999,
          "velocity": 0.6929133858267716
        },
        {
          "duration": 0.3461534999999998,
          "durationTicks": 288,
          "midi": 64,
          "name": "E4",
          "ticks": 105612,
          "time": 126.93737306249999,
          "velocity": 0.6929133858267716
        },
        {
          "duration": 0.11538450000000466,
          "durationTicks": 96,
          "midi": 67,
          "name": "G4",
          "ticks": 105900,
          "time": 127.28352656249999,
          "velocity": 0.6929133858267716
        },
        {
          "duration": 0.11538450000000466,
          "durationTicks": 96,
          "midi": 62,
          "name": "D4",
          "ticks": 105900,
          "time": 127.28352656249999,
          "velocity": 0.6929133858267716
        },
        {
          "duration": 0.23076899999999512,
          "durationTicks": 192,
          "midi": 59,
          "name": "B3",
          "ticks": 105996,
          "time": 127.39891106249999,
          "velocity": 0.6929133858267716
        },
        {
          "duration": 0.23076899999999512,
          "durationTicks": 192,
          "midi": 52,
          "name": "E3",
          "ticks": 105996,
          "time": 127.39891106249999,
          "velocity": 0.6929133858267716
        },
        {
          "duration": 0.23076900000000933,
          "durationTicks": 192,
          "midi": 59,
          "name": "B3",
          "ticks": 106380,
          "time": 127.86044906249998,
          "velocity": 0.6929133858267716
        },
        {
          "duration": 0.23076900000000933,
          "durationTicks": 192,
          "midi": 52,
          "name": "E3",
          "ticks": 106380,
          "time": 127.86044906249998,
          "velocity": 0.6929133858267716
        },
        {
          "duration": 0.346153500000014,
          "durationTicks": 288,
          "midi": 59,
          "name": "B3",
          "ticks": 106764,
          "time": 128.32198706249997,
          "velocity": 0.6929133858267716
        },
        {
          "duration": 0.346153500000014,
          "durationTicks": 288,
          "midi": 52,
          "name": "E3",
          "ticks": 106764,
          "time": 128.32198706249997,
          "velocity": 0.6929133858267716
        },
        {
          "duration": 0.11538450000000466,
          "durationTicks": 96,
          "midi": 67,
          "name": "G4",
          "ticks": 107052,
          "time": 128.66814056249999,
          "velocity": 0.6929133858267716
        },
        {
          "duration": 0.11538450000000466,
          "durationTicks": 96,
          "midi": 62,
          "name": "D4",
          "ticks": 107052,
          "time": 128.66814056249999,
          "velocity": 0.6929133858267716
        },
        {
          "duration": 0.34615349999998557,
          "durationTicks": 288,
          "midi": 69,
          "name": "A4",
          "ticks": 107148,
          "time": 128.7835250625,
          "velocity": 0.6929133858267716
        },
        {
          "duration": 0.34615349999998557,
          "durationTicks": 288,
          "midi": 64,
          "name": "E4",
          "ticks": 107148,
          "time": 128.7835250625,
          "velocity": 0.6929133858267716
        },
        {
          "duration": 0.11538450000000466,
          "durationTicks": 96,
          "midi": 67,
          "name": "G4",
          "ticks": 107436,
          "time": 129.12967856249998,
          "velocity": 0.6929133858267716
        },
        {
          "duration": 0.11538450000000466,
          "durationTicks": 96,
          "midi": 62,
          "name": "D4",
          "ticks": 107436,
          "time": 129.12967856249998,
          "velocity": 0.6929133858267716
        },
        {
          "duration": 0.23076900000000933,
          "durationTicks": 192,
          "midi": 59,
          "name": "B3",
          "ticks": 107532,
          "time": 129.24506306249998,
          "velocity": 0.6929133858267716
        },
        {
          "duration": 0.23076900000000933,
          "durationTicks": 192,
          "midi": 52,
          "name": "E3",
          "ticks": 107532,
          "time": 129.24506306249998,
          "velocity": 0.6929133858267716
        },
        {
          "duration": 0.2307689999999809,
          "durationTicks": 192,
          "midi": 59,
          "name": "B3",
          "ticks": 107916,
          "time": 129.7066010625,
          "velocity": 0.6929133858267716
        },
        {
          "duration": 0.2307689999999809,
          "durationTicks": 192,
          "midi": 52,
          "name": "E3",
          "ticks": 107916,
          "time": 129.7066010625,
          "velocity": 0.6929133858267716
        },
        {
          "duration": 0.34615349999998557,
          "durationTicks": 288,
          "midi": 59,
          "name": "B3",
          "ticks": 108300,
          "time": 130.1681390625,
          "velocity": 0.6929133858267716
        },
        {
          "duration": 0.34615349999998557,
          "durationTicks": 288,
          "midi": 52,
          "name": "E3",
          "ticks": 108300,
          "time": 130.1681390625,
          "velocity": 0.6929133858267716
        },
        {
          "duration": 0.11538450000000466,
          "durationTicks": 96,
          "midi": 67,
          "name": "G4",
          "ticks": 108588,
          "time": 130.51429256249997,
          "velocity": 0.6929133858267716
        },
        {
          "duration": 0.11538450000000466,
          "durationTicks": 96,
          "midi": 62,
          "name": "D4",
          "ticks": 108588,
          "time": 130.51429256249997,
          "velocity": 0.6929133858267716
        },
        {
          "duration": 0.346153500000014,
          "durationTicks": 288,
          "midi": 69,
          "name": "A4",
          "ticks": 108684,
          "time": 130.62967706249998,
          "velocity": 0.6929133858267716
        },
        {
          "duration": 0.346153500000014,
          "durationTicks": 288,
          "midi": 64,
          "name": "E4",
          "ticks": 108684,
          "time": 130.62967706249998,
          "velocity": 0.6929133858267716
        },
        {
          "duration": 0.11538450000000466,
          "durationTicks": 96,
          "midi": 67,
          "name": "G4",
          "ticks": 108972,
          "time": 130.9758305625,
          "velocity": 0.6929133858267716
        },
        {
          "duration": 0.11538450000000466,
          "durationTicks": 96,
          "midi": 62,
          "name": "D4",
          "ticks": 108972,
          "time": 130.9758305625,
          "velocity": 0.6929133858267716
        },
        {
          "duration": 0.2307689999999809,
          "durationTicks": 192,
          "midi": 59,
          "name": "B3",
          "ticks": 109068,
          "time": 131.0912150625,
          "velocity": 0.6929133858267716
        },
        {
          "duration": 0.2307689999999809,
          "durationTicks": 192,
          "midi": 52,
          "name": "E3",
          "ticks": 109068,
          "time": 131.0912150625,
          "velocity": 0.6929133858267716
        },
        {
          "duration": 0.2307689999999809,
          "durationTicks": 192,
          "midi": 59,
          "name": "B3",
          "ticks": 109452,
          "time": 131.5527530625,
          "velocity": 0.6929133858267716
        },
        {
          "duration": 0.2307689999999809,
          "durationTicks": 192,
          "midi": 52,
          "name": "E3",
          "ticks": 109452,
          "time": 131.5527530625,
          "velocity": 0.6929133858267716
        },
        {
          "duration": 0.346153500000014,
          "durationTicks": 288,
          "midi": 59,
          "name": "B3",
          "ticks": 109836,
          "time": 132.01429106249998,
          "velocity": 0.6929133858267716
        },
        {
          "duration": 0.346153500000014,
          "durationTicks": 288,
          "midi": 52,
          "name": "E3",
          "ticks": 109836,
          "time": 132.01429106249998,
          "velocity": 0.6929133858267716
        },
        {
          "duration": 0.11538450000000466,
          "durationTicks": 96,
          "midi": 67,
          "name": "G4",
          "ticks": 110124,
          "time": 132.3604445625,
          "velocity": 0.6929133858267716
        },
        {
          "duration": 0.11538450000000466,
          "durationTicks": 96,
          "midi": 62,
          "name": "D4",
          "ticks": 110124,
          "time": 132.3604445625,
          "velocity": 0.6929133858267716
        },
        {
          "duration": 0.34615349999998557,
          "durationTicks": 288,
          "midi": 69,
          "name": "A4",
          "ticks": 110220,
          "time": 132.4758290625,
          "velocity": 0.6929133858267716
        },
        {
          "duration": 0.34615349999998557,
          "durationTicks": 288,
          "midi": 64,
          "name": "E4",
          "ticks": 110220,
          "time": 132.4758290625,
          "velocity": 0.6929133858267716
        },
        {
          "duration": 0.11538450000000466,
          "durationTicks": 96,
          "midi": 67,
          "name": "G4",
          "ticks": 110508,
          "time": 132.82198256249998,
          "velocity": 0.6929133858267716
        },
        {
          "duration": 0.11538450000000466,
          "durationTicks": 96,
          "midi": 62,
          "name": "D4",
          "ticks": 110508,
          "time": 132.82198256249998,
          "velocity": 0.6929133858267716
        },
        {
          "duration": 0.2307689999999809,
          "durationTicks": 192,
          "midi": 59,
          "name": "B3",
          "ticks": 110604,
          "time": 132.9373670625,
          "velocity": 0.6929133858267716
        },
        {
          "duration": 0.2307689999999809,
          "durationTicks": 192,
          "midi": 52,
          "name": "E3",
          "ticks": 110604,
          "time": 132.9373670625,
          "velocity": 0.6929133858267716
        },
        {
          "duration": 0.23076900000000933,
          "durationTicks": 192,
          "midi": 59,
          "name": "B3",
          "ticks": 110988,
          "time": 133.39890506249998,
          "velocity": 0.6929133858267716
        },
        {
          "duration": 0.23076900000000933,
          "durationTicks": 192,
          "midi": 52,
          "name": "E3",
          "ticks": 110988,
          "time": 133.39890506249998,
          "velocity": 0.6929133858267716
        },
        {
          "duration": 0.34615349999998557,
          "durationTicks": 288,
          "midi": 59,
          "name": "B3",
          "ticks": 111372,
          "time": 133.8604430625,
          "velocity": 0.6929133858267716
        },
        {
          "duration": 0.34615349999998557,
          "durationTicks": 288,
          "midi": 52,
          "name": "E3",
          "ticks": 111372,
          "time": 133.8604430625,
          "velocity": 0.6929133858267716
        },
        {
          "duration": 0.11538450000000466,
          "durationTicks": 96,
          "midi": 67,
          "name": "G4",
          "ticks": 111660,
          "time": 134.20659656249998,
          "velocity": 0.6929133858267716
        },
        {
          "duration": 0.11538450000000466,
          "durationTicks": 96,
          "midi": 62,
          "name": "D4",
          "ticks": 111660,
          "time": 134.20659656249998,
          "velocity": 0.6929133858267716
        },
        {
          "duration": 0.34615349999998557,
          "durationTicks": 288,
          "midi": 69,
          "name": "A4",
          "ticks": 111756,
          "time": 134.3219810625,
          "velocity": 0.6929133858267716
        },
        {
          "duration": 0.34615349999998557,
          "durationTicks": 288,
          "midi": 64,
          "name": "E4",
          "ticks": 111756,
          "time": 134.3219810625,
          "velocity": 0.6929133858267716
        },
        {
          "duration": 0.11538450000000466,
          "durationTicks": 96,
          "midi": 67,
          "name": "G4",
          "ticks": 112044,
          "time": 134.66813456249997,
          "velocity": 0.6929133858267716
        },
        {
          "duration": 0.11538450000000466,
          "durationTicks": 96,
          "midi": 62,
          "name": "D4",
          "ticks": 112044,
          "time": 134.66813456249997,
          "velocity": 0.6929133858267716
        },
        {
          "duration": 0.23076900000000933,
          "durationTicks": 192,
          "midi": 59,
          "name": "B3",
          "ticks": 112140,
          "time": 134.78351906249998,
          "velocity": 0.6929133858267716
        },
        {
          "duration": 0.23076900000000933,
          "durationTicks": 192,
          "midi": 52,
          "name": "E3",
          "ticks": 112140,
          "time": 134.78351906249998,
          "velocity": 0.6929133858267716
        },
        {
          "duration": 0.2307689999999809,
          "durationTicks": 192,
          "midi": 59,
          "name": "B3",
          "ticks": 112524,
          "time": 135.2450570625,
          "velocity": 0.6929133858267716
        },
        {
          "duration": 0.2307689999999809,
          "durationTicks": 192,
          "midi": 52,
          "name": "E3",
          "ticks": 112524,
          "time": 135.2450570625,
          "velocity": 0.6929133858267716
        },
        {
          "duration": 0.34615349999998557,
          "durationTicks": 288,
          "midi": 59,
          "name": "B3",
          "ticks": 112908,
          "time": 135.70659506249999,
          "velocity": 0.6929133858267716
        },
        {
          "duration": 0.34615349999998557,
          "durationTicks": 288,
          "midi": 52,
          "name": "E3",
          "ticks": 112908,
          "time": 135.70659506249999,
          "velocity": 0.6929133858267716
        },
        {
          "duration": 0.11538450000000466,
          "durationTicks": 96,
          "midi": 67,
          "name": "G4",
          "ticks": 113196,
          "time": 136.05274856249997,
          "velocity": 0.6929133858267716
        },
        {
          "duration": 0.11538450000000466,
          "durationTicks": 96,
          "midi": 62,
          "name": "D4",
          "ticks": 113196,
          "time": 136.05274856249997,
          "velocity": 0.6929133858267716
        },
        {
          "duration": 0.346153500000014,
          "durationTicks": 288,
          "midi": 69,
          "name": "A4",
          "ticks": 113292,
          "time": 136.16813306249998,
          "velocity": 0.6929133858267716
        },
        {
          "duration": 0.346153500000014,
          "durationTicks": 288,
          "midi": 64,
          "name": "E4",
          "ticks": 113292,
          "time": 136.16813306249998,
          "velocity": 0.6929133858267716
        },
        {
          "duration": 0.11538450000000466,
          "durationTicks": 96,
          "midi": 67,
          "name": "G4",
          "ticks": 113580,
          "time": 136.5142865625,
          "velocity": 0.6929133858267716
        },
        {
          "duration": 0.11538450000000466,
          "durationTicks": 96,
          "midi": 62,
          "name": "D4",
          "ticks": 113580,
          "time": 136.5142865625,
          "velocity": 0.6929133858267716
        },
        {
          "duration": 0.2307689999999809,
          "durationTicks": 192,
          "midi": 59,
          "name": "B3",
          "ticks": 113676,
          "time": 136.6296710625,
          "velocity": 0.6929133858267716
        },
        {
          "duration": 0.2307689999999809,
          "durationTicks": 192,
          "midi": 52,
          "name": "E3",
          "ticks": 113676,
          "time": 136.6296710625,
          "velocity": 0.6929133858267716
        },
        {
          "duration": 0.2307689999999809,
          "durationTicks": 192,
          "midi": 59,
          "name": "B3",
          "ticks": 114060,
          "time": 137.09120906249998,
          "velocity": 0.6929133858267716
        },
        {
          "duration": 0.2307689999999809,
          "durationTicks": 192,
          "midi": 52,
          "name": "E3",
          "ticks": 114060,
          "time": 137.09120906249998,
          "velocity": 0.6929133858267716
        },
        {
          "duration": 0.346153500000014,
          "durationTicks": 288,
          "midi": 59,
          "name": "B3",
          "ticks": 114444,
          "time": 137.55274706249998,
          "velocity": 0.6929133858267716
        },
        {
          "duration": 0.346153500000014,
          "durationTicks": 288,
          "midi": 52,
          "name": "E3",
          "ticks": 114444,
          "time": 137.55274706249998,
          "velocity": 0.6929133858267716
        },
        {
          "duration": 0.11538450000000466,
          "durationTicks": 96,
          "midi": 67,
          "name": "G4",
          "ticks": 114732,
          "time": 137.8989005625,
          "velocity": 0.6929133858267716
        },
        {
          "duration": 0.11538450000000466,
          "durationTicks": 96,
          "midi": 62,
          "name": "D4",
          "ticks": 114732,
          "time": 137.8989005625,
          "velocity": 0.6929133858267716
        },
        {
          "duration": 0.34615349999998557,
          "durationTicks": 288,
          "midi": 69,
          "name": "A4",
          "ticks": 114828,
          "time": 138.0142850625,
          "velocity": 0.6929133858267716
        },
        {
          "duration": 0.34615349999998557,
          "durationTicks": 288,
          "midi": 64,
          "name": "E4",
          "ticks": 114828,
          "time": 138.0142850625,
          "velocity": 0.6929133858267716
        },
        {
          "duration": 0.11538450000000466,
          "durationTicks": 96,
          "midi": 67,
          "name": "G4",
          "ticks": 115116,
          "time": 138.36043856249998,
          "velocity": 0.6929133858267716
        },
        {
          "duration": 0.11538450000000466,
          "durationTicks": 96,
          "midi": 62,
          "name": "D4",
          "ticks": 115116,
          "time": 138.36043856249998,
          "velocity": 0.6929133858267716
        },
        {
          "duration": 0.23076900000000933,
          "durationTicks": 192,
          "midi": 59,
          "name": "B3",
          "ticks": 115212,
          "time": 138.47582306249998,
          "velocity": 0.6929133858267716
        },
        {
          "duration": 0.23076900000000933,
          "durationTicks": 192,
          "midi": 52,
          "name": "E3",
          "ticks": 115212,
          "time": 138.47582306249998,
          "velocity": 0.6929133858267716
        },
        {
          "duration": 0.46153800000001866,
          "durationTicks": 384,
          "midi": 59,
          "name": "B3",
          "ticks": 115596,
          "time": 138.93736106249997,
          "velocity": 0.6929133858267716
        },
        {
          "duration": 0.46153800000001866,
          "durationTicks": 384,
          "midi": 52,
          "name": "E3",
          "ticks": 115596,
          "time": 138.93736106249997,
          "velocity": 0.6929133858267716
        },
        {
          "duration": 0.34615349999998557,
          "durationTicks": 288,
          "midi": 59,
          "name": "B3",
          "ticks": 115980,
          "time": 139.3988990625,
          "velocity": 0.6929133858267716
        },
        {
          "duration": 0.34615349999998557,
          "durationTicks": 288,
          "midi": 52,
          "name": "E3",
          "ticks": 115980,
          "time": 139.3988990625,
          "velocity": 0.6929133858267716
        },
        {
          "duration": 0.11538450000000466,
          "durationTicks": 96,
          "midi": 67,
          "name": "G4",
          "ticks": 116268,
          "time": 139.74505256249998,
          "velocity": 0.6929133858267716
        },
        {
          "duration": 0.11538450000000466,
          "durationTicks": 96,
          "midi": 62,
          "name": "D4",
          "ticks": 116268,
          "time": 139.74505256249998,
          "velocity": 0.6929133858267716
        },
        {
          "duration": 0.34615349999998557,
          "durationTicks": 288,
          "midi": 69,
          "name": "A4",
          "ticks": 116364,
          "time": 139.86043706249998,
          "velocity": 0.6929133858267716
        },
        {
          "duration": 0.34615349999998557,
          "durationTicks": 288,
          "midi": 64,
          "name": "E4",
          "ticks": 116364,
          "time": 139.86043706249998,
          "velocity": 0.6929133858267716
        },
        {
          "duration": 0.11538450000000466,
          "durationTicks": 96,
          "midi": 67,
          "name": "G4",
          "ticks": 116652,
          "time": 140.20659056249997,
          "velocity": 0.6929133858267716
        },
        {
          "duration": 0.11538450000000466,
          "durationTicks": 96,
          "midi": 62,
          "name": "D4",
          "ticks": 116652,
          "time": 140.20659056249997,
          "velocity": 0.6929133858267716
        },
        {
          "duration": 0.1538460000000157,
          "durationTicks": 128,
          "midi": 71,
          "name": "B4",
          "ticks": 116748,
          "time": 140.32197506249997,
          "velocity": 0.8818897637795275
        },
        {
          "duration": 0.46153800000001866,
          "durationTicks": 384,
          "midi": 68,
          "name": "G#4",
          "ticks": 116748,
          "time": 140.32197506249997,
          "velocity": 0.6929133858267716
        },
        {
          "duration": 0.46153800000001866,
          "durationTicks": 384,
          "midi": 59,
          "name": "B3",
          "ticks": 116748,
          "time": 140.32197506249997,
          "velocity": 0.6929133858267716
        },
        {
          "duration": 0.46153800000001866,
          "durationTicks": 384,
          "midi": 52,
          "name": "E3",
          "ticks": 116748,
          "time": 140.32197506249997,
          "velocity": 0.6929133858267716
        },
        {
          "duration": 0.15384599999998727,
          "durationTicks": 128,
          "midi": 74,
          "name": "D5",
          "ticks": 116876,
          "time": 140.4758210625,
          "velocity": 0.8818897637795275
        },
        {
          "duration": 0.1538460000000157,
          "durationTicks": 128,
          "midi": 79,
          "name": "G5",
          "ticks": 117004,
          "time": 140.62966706249998,
          "velocity": 0.8818897637795275
        },
        {
          "duration": 0.46153799999999023,
          "durationTicks": 384,
          "midi": 59,
          "name": "B3",
          "ticks": 117132,
          "time": 140.7835130625,
          "velocity": 0.6929133858267716
        },
        {
          "duration": 0.46153799999999023,
          "durationTicks": 384,
          "midi": 52,
          "name": "E3",
          "ticks": 117132,
          "time": 140.7835130625,
          "velocity": 0.6929133858267716
        },
        {
          "duration": 0.46153799999999023,
          "durationTicks": 384,
          "midi": 76,
          "name": "E5",
          "ticks": 117132,
          "time": 140.7835130625,
          "velocity": 0.889763779527559
        },
        {
          "duration": 0.34615349999998557,
          "durationTicks": 288,
          "midi": 59,
          "name": "B3",
          "ticks": 117516,
          "time": 141.24505106249998,
          "velocity": 0.6929133858267716
        },
        {
          "duration": 0.34615349999998557,
          "durationTicks": 288,
          "midi": 52,
          "name": "E3",
          "ticks": 117516,
          "time": 141.24505106249998,
          "velocity": 0.6929133858267716
        },
        {
          "duration": 0.30769200000000296,
          "durationTicks": 256,
          "midi": 76,
          "name": "E5",
          "ticks": 117516,
          "time": 141.24505106249998,
          "velocity": 0.6929133858267716
        },
        {
          "duration": 0.1538460000000157,
          "durationTicks": 128,
          "midi": 75,
          "name": "D#5",
          "ticks": 117756,
          "time": 141.53351231249997,
          "velocity": 0.6929133858267716
        },
        {
          "duration": 0.11538450000000466,
          "durationTicks": 96,
          "midi": 67,
          "name": "G4",
          "ticks": 117804,
          "time": 141.59120456249997,
          "velocity": 0.6929133858267716
        },
        {
          "duration": 0.11538450000000466,
          "durationTicks": 96,
          "midi": 62,
          "name": "D4",
          "ticks": 117804,
          "time": 141.59120456249997,
          "velocity": 0.6929133858267716
        },
        {
          "duration": 0.346153500000014,
          "durationTicks": 288,
          "midi": 69,
          "name": "A4",
          "ticks": 117900,
          "time": 141.70658906249997,
          "velocity": 0.6929133858267716
        },
        {
          "duration": 0.346153500000014,
          "durationTicks": 288,
          "midi": 64,
          "name": "E4",
          "ticks": 117900,
          "time": 141.70658906249997,
          "velocity": 0.6929133858267716
        },
        {
          "duration": 0.30769200000000296,
          "durationTicks": 256,
          "midi": 73,
          "name": "C#5",
          "ticks": 117900,
          "time": 141.70658906249997,
          "velocity": 0.6929133858267716
        },
        {
          "duration": 0.15384599999998727,
          "durationTicks": 128,
          "midi": 71,
          "name": "B4",
          "ticks": 118140,
          "time": 141.99505031249998,
          "velocity": 0.6929133858267716
        },
        {
          "duration": 0.11538450000000466,
          "durationTicks": 96,
          "midi": 67,
          "name": "G4",
          "ticks": 118188,
          "time": 142.0527425625,
          "velocity": 0.6929133858267716
        },
        {
          "duration": 0.11538450000000466,
          "durationTicks": 96,
          "midi": 62,
          "name": "D4",
          "ticks": 118188,
          "time": 142.0527425625,
          "velocity": 0.6929133858267716
        },
        {
          "duration": 0.2307689999999809,
          "durationTicks": 192,
          "midi": 69,
          "name": "A4",
          "ticks": 118284,
          "time": 142.1681270625,
          "velocity": 0.6929133858267716
        },
        {
          "duration": 0.46153799999999023,
          "durationTicks": 384,
          "midi": 68,
          "name": "G#4",
          "ticks": 118284,
          "time": 142.1681270625,
          "velocity": 0.6929133858267716
        },
        {
          "duration": 0.46153799999999023,
          "durationTicks": 384,
          "midi": 59,
          "name": "B3",
          "ticks": 118284,
          "time": 142.1681270625,
          "velocity": 0.6929133858267716
        },
        {
          "duration": 0.46153799999999023,
          "durationTicks": 384,
          "midi": 52,
          "name": "E3",
          "ticks": 118284,
          "time": 142.1681270625,
          "velocity": 0.6929133858267716
        },
        {
          "duration": 0.6923069999999996,
          "durationTicks": 576,
          "midi": 71,
          "name": "B4",
          "ticks": 118476,
          "time": 142.39889606249997,
          "velocity": 0.6929133858267716
        },
        {
          "duration": 0.46153799999999023,
          "durationTicks": 384,
          "midi": 59,
          "name": "B3",
          "ticks": 118668,
          "time": 142.62966506249998,
          "velocity": 0.6929133858267716
        },
        {
          "duration": 0.46153799999999023,
          "durationTicks": 384,
          "midi": 52,
          "name": "E3",
          "ticks": 118668,
          "time": 142.62966506249998,
          "velocity": 0.6929133858267716
        },
        {
          "duration": 0.346153500000014,
          "durationTicks": 288,
          "midi": 59,
          "name": "B3",
          "ticks": 119052,
          "time": 143.09120306249997,
          "velocity": 0.6929133858267716
        },
        {
          "duration": 0.346153500000014,
          "durationTicks": 288,
          "midi": 52,
          "name": "E3",
          "ticks": 119052,
          "time": 143.09120306249997,
          "velocity": 0.6929133858267716
        },
        {
          "duration": 0.11538450000000466,
          "durationTicks": 96,
          "midi": 67,
          "name": "G4",
          "ticks": 119340,
          "time": 143.43735656249999,
          "velocity": 0.6929133858267716
        },
        {
          "duration": 0.11538450000000466,
          "durationTicks": 96,
          "midi": 62,
          "name": "D4",
          "ticks": 119340,
          "time": 143.43735656249999,
          "velocity": 0.6929133858267716
        },
        {
          "duration": 0.15384599999998727,
          "durationTicks": 128,
          "midi": 73,
          "name": "C#5",
          "ticks": 119436,
          "time": 143.5527410625,
          "velocity": 0.6929133858267716
        },
        {
          "duration": 0.34615349999998557,
          "durationTicks": 288,
          "midi": 69,
          "name": "A4",
          "ticks": 119436,
          "time": 143.5527410625,
          "velocity": 0.6929133858267716
        },
        {
          "duration": 0.34615349999998557,
          "durationTicks": 288,
          "midi": 64,
          "name": "E4",
          "ticks": 119436,
          "time": 143.5527410625,
          "velocity": 0.6929133858267716
        },
        {
          "duration": 0.1538460000000157,
          "durationTicks": 128,
          "midi": 71,
          "name": "B4",
          "ticks": 119564,
          "time": 143.70658706249998,
          "velocity": 0.6929133858267716
        },
        {
          "duration": 0.15384599999998727,
          "durationTicks": 128,
          "midi": 73,
          "name": "C#5",
          "ticks": 119692,
          "time": 143.8604330625,
          "velocity": 0.6929133858267716
        },
        {
          "duration": 0.11538450000000466,
          "durationTicks": 96,
          "midi": 67,
          "name": "G4",
          "ticks": 119724,
          "time": 143.89889456249998,
          "velocity": 0.6929133858267716
        },
        {
          "duration": 0.11538450000000466,
          "durationTicks": 96,
          "midi": 62,
          "name": "D4",
          "ticks": 119724,
          "time": 143.89889456249998,
          "velocity": 0.6929133858267716
        },
        {
          "duration": 0.1538460000000157,
          "durationTicks": 128,
          "midi": 71,
          "name": "B4",
          "ticks": 119820,
          "time": 144.01427906249998,
          "velocity": 0.6929133858267716
        },
        {
          "duration": 0.46153799999999023,
          "durationTicks": 384,
          "midi": 68,
          "name": "G#4",
          "ticks": 119820,
          "time": 144.01427906249998,
          "velocity": 0.6929133858267716
        },
        {
          "duration": 0.46153799999999023,
          "durationTicks": 384,
          "midi": 59,
          "name": "B3",
          "ticks": 119820,
          "time": 144.01427906249998,
          "velocity": 0.6929133858267716
        },
        {
          "duration": 0.46153799999999023,
          "durationTicks": 384,
          "midi": 52,
          "name": "E3",
          "ticks": 119820,
          "time": 144.01427906249998,
          "velocity": 0.6929133858267716
        },
        {
          "duration": 0.15384599999998727,
          "durationTicks": 128,
          "midi": 69,
          "name": "A4",
          "ticks": 119948,
          "time": 144.1681250625,
          "velocity": 0.6929133858267716
        },
        {
          "duration": 0.15384599999998727,
          "durationTicks": 128,
          "midi": 71,
          "name": "B4",
          "ticks": 120076,
          "time": 144.32197106249998,
          "velocity": 0.6929133858267716
        },
        {
          "duration": 0.30769200000000296,
          "durationTicks": 256,
          "midi": 71,
          "name": "B4",
          "ticks": 120204,
          "time": 144.47581706249997,
          "velocity": 0.6929133858267716
        },
        {
          "duration": 0.46153800000001866,
          "durationTicks": 384,
          "midi": 59,
          "name": "B3",
          "ticks": 120204,
          "time": 144.47581706249997,
          "velocity": 0.6929133858267716
        },
        {
          "duration": 0.46153800000001866,
          "durationTicks": 384,
          "midi": 52,
          "name": "E3",
          "ticks": 120204,
          "time": 144.47581706249997,
          "velocity": 0.6929133858267716
        },
        {
          "duration": 0.15384599999998727,
          "durationTicks": 128,
          "midi": 71,
          "name": "B4",
          "ticks": 120444,
          "time": 144.76427831249998,
          "velocity": 0.6929133858267716
        },
        {
          "duration": 0.34615349999998557,
          "durationTicks": 288,
          "midi": 59,
          "name": "B3",
          "ticks": 120588,
          "time": 144.9373550625,
          "velocity": 0.6929133858267716
        },
        {
          "duration": 0.34615349999998557,
          "durationTicks": 288,
          "midi": 52,
          "name": "E3",
          "ticks": 120588,
          "time": 144.9373550625,
          "velocity": 0.6929133858267716
        },
        {
          "duration": 0.11538450000000466,
          "durationTicks": 96,
          "midi": 67,
          "name": "G4",
          "ticks": 120876,
          "time": 145.28350856249997,
          "velocity": 0.6929133858267716
        },
        {
          "duration": 0.11538450000000466,
          "durationTicks": 96,
          "midi": 62,
          "name": "D4",
          "ticks": 120876,
          "time": 145.28350856249997,
          "velocity": 0.6929133858267716
        },
        {
          "duration": 0.30769200000000296,
          "durationTicks": 256,
          "midi": 74,
          "name": "D5",
          "ticks": 120972,
          "time": 145.39889306249998,
          "velocity": 0.6929133858267716
        },
        {
          "duration": 0.34615349999998557,
          "durationTicks": 288,
          "midi": 69,
          "name": "A4",
          "ticks": 120972,
          "time": 145.39889306249998,
          "velocity": 0.6929133858267716
        },
        {
          "duration": 0.34615349999998557,
          "durationTicks": 288,
          "midi": 64,
          "name": "E4",
          "ticks": 120972,
          "time": 145.39889306249998,
          "velocity": 0.6929133858267716
        },
        {
          "duration": 0.15384599999998727,
          "durationTicks": 128,
          "midi": 75,
          "name": "D#5",
          "ticks": 121212,
          "time": 145.6873543125,
          "velocity": 0.6929133858267716
        },
        {
          "duration": 0.15384599999998727,
          "durationTicks": 128,
          "midi": 76,
          "name": "E5",
          "ticks": 121228,
          "time": 145.70658506249998,
          "velocity": 0.6929133858267716
        },
        {
          "duration": 0.11538450000000466,
          "durationTicks": 96,
          "midi": 67,
          "name": "G4",
          "ticks": 121260,
          "time": 145.74504656249997,
          "velocity": 0.6929133858267716
        },
        {
          "duration": 0.11538450000000466,
          "durationTicks": 96,
          "midi": 62,
          "name": "D4",
          "ticks": 121260,
          "time": 145.74504656249997,
          "velocity": 0.6929133858267716
        },
        {
          "duration": 0.3076920000000314,
          "durationTicks": 256,
          "midi": 76,
          "name": "E5",
          "ticks": 121356,
          "time": 145.86043106249997,
          "velocity": 0.6929133858267716
        },
        {
          "duration": 0.46153800000001866,
          "durationTicks": 384,
          "midi": 68,
          "name": "G#4",
          "ticks": 121356,
          "time": 145.86043106249997,
          "velocity": 0.6929133858267716
        },
        {
          "duration": 0.46153800000001866,
          "durationTicks": 384,
          "midi": 59,
          "name": "B3",
          "ticks": 121356,
          "time": 145.86043106249997,
          "velocity": 0.6929133858267716
        },
        {
          "duration": 0.46153800000001866,
          "durationTicks": 384,
          "midi": 52,
          "name": "E3",
          "ticks": 121356,
          "time": 145.86043106249997,
          "velocity": 0.6929133858267716
        },
        {
          "duration": 0.15384599999998727,
          "durationTicks": 128,
          "midi": 76,
          "name": "E5",
          "ticks": 121612,
          "time": 146.1681230625,
          "velocity": 0.6929133858267716
        },
        {
          "duration": 0.15384599999998727,
          "durationTicks": 128,
          "midi": 76,
          "name": "E5",
          "ticks": 121740,
          "time": 146.3219690625,
          "velocity": 0.6929133858267716
        },
        {
          "duration": 0.46153799999999023,
          "durationTicks": 384,
          "midi": 59,
          "name": "B3",
          "ticks": 121740,
          "time": 146.3219690625,
          "velocity": 0.6929133858267716
        },
        {
          "duration": 0.46153799999999023,
          "durationTicks": 384,
          "midi": 52,
          "name": "E3",
          "ticks": 121740,
          "time": 146.3219690625,
          "velocity": 0.6929133858267716
        },
        {
          "duration": 0.1538460000000157,
          "durationTicks": 128,
          "midi": 76,
          "name": "E5",
          "ticks": 121868,
          "time": 146.47581506249998,
          "velocity": 0.6929133858267716
        },
        {
          "duration": 0.15384599999998727,
          "durationTicks": 128,
          "midi": 76,
          "name": "E5",
          "ticks": 121996,
          "time": 146.6296610625,
          "velocity": 0.6929133858267716
        },
        {
          "duration": 0.46153799999999023,
          "durationTicks": 384,
          "midi": 76,
          "name": "E5",
          "ticks": 122124,
          "time": 146.78350706249998,
          "velocity": 0.6929133858267716
        },
        {
          "duration": 0.34615349999998557,
          "durationTicks": 288,
          "midi": 59,
          "name": "B3",
          "ticks": 122124,
          "time": 146.78350706249998,
          "velocity": 0.6929133858267716
        },
        {
          "duration": 0.34615349999998557,
          "durationTicks": 288,
          "midi": 52,
          "name": "E3",
          "ticks": 122124,
          "time": 146.78350706249998,
          "velocity": 0.6929133858267716
        },
        {
          "duration": 0.11538450000000466,
          "durationTicks": 96,
          "midi": 67,
          "name": "G4",
          "ticks": 122412,
          "time": 147.12966056249996,
          "velocity": 0.6929133858267716
        },
        {
          "duration": 0.11538450000000466,
          "durationTicks": 96,
          "midi": 62,
          "name": "D4",
          "ticks": 122412,
          "time": 147.12966056249996,
          "velocity": 0.6929133858267716
        },
        {
          "duration": 0.3076920000000314,
          "durationTicks": 256,
          "midi": 73,
          "name": "C#5",
          "ticks": 122508,
          "time": 147.24504506249997,
          "velocity": 0.6929133858267716
        },
        {
          "duration": 0.346153500000014,
          "durationTicks": 288,
          "midi": 69,
          "name": "A4",
          "ticks": 122508,
          "time": 147.24504506249997,
          "velocity": 0.6929133858267716
        },
        {
          "duration": 0.346153500000014,
          "durationTicks": 288,
          "midi": 64,
          "name": "E4",
          "ticks": 122508,
          "time": 147.24504506249997,
          "velocity": 0.6929133858267716
        },
        {
          "duration": 0.15384599999998727,
          "durationTicks": 128,
          "midi": 76,
          "name": "E5",
          "ticks": 122764,
          "time": 147.5527370625,
          "velocity": 0.6929133858267716
        },
        {
          "duration": 0.11538450000000466,
          "durationTicks": 96,
          "midi": 67,
          "name": "G4",
          "ticks": 122796,
          "time": 147.59119856249998,
          "velocity": 0.6929133858267716
        },
        {
          "duration": 0.11538450000000466,
          "durationTicks": 96,
          "midi": 62,
          "name": "D4",
          "ticks": 122796,
          "time": 147.59119856249998,
          "velocity": 0.6929133858267716
        },
        {
          "duration": 0.30769200000000296,
          "durationTicks": 256,
          "midi": 80,
          "name": "G#5",
          "ticks": 122892,
          "time": 147.7065830625,
          "velocity": 0.8503937007874016
        },
        {
          "duration": 0.46153799999999023,
          "durationTicks": 384,
          "midi": 68,
          "name": "G#4",
          "ticks": 122892,
          "time": 147.7065830625,
          "velocity": 0.6929133858267716
        },
        {
          "duration": 0.46153799999999023,
          "durationTicks": 384,
          "midi": 59,
          "name": "B3",
          "ticks": 122892,
          "time": 147.7065830625,
          "velocity": 0.6929133858267716
        },
        {
          "duration": 0.46153799999999023,
          "durationTicks": 384,
          "midi": 52,
          "name": "E3",
          "ticks": 122892,
          "time": 147.7065830625,
          "velocity": 0.6929133858267716
        },
        {
          "duration": 0.6923069999999711,
          "durationTicks": 576,
          "midi": 88,
          "name": "E6",
          "ticks": 123084,
          "time": 147.9373520625,
          "velocity": 0.7716535433070866
        },
        {
          "duration": 0.46153799999999023,
          "durationTicks": 384,
          "midi": 59,
          "name": "B3",
          "ticks": 123276,
          "time": 148.16812106249998,
          "velocity": 0.6929133858267716
        },
        {
          "duration": 0.46153799999999023,
          "durationTicks": 384,
          "midi": 52,
          "name": "E3",
          "ticks": 123276,
          "time": 148.16812106249998,
          "velocity": 0.6929133858267716
        },
        {
          "duration": 0.346153500000014,
          "durationTicks": 288,
          "midi": 59,
          "name": "B3",
          "ticks": 123660,
          "time": 148.62965906249997,
          "velocity": 0.6929133858267716
        },
        {
          "duration": 0.346153500000014,
          "durationTicks": 288,
          "midi": 52,
          "name": "E3",
          "ticks": 123660,
          "time": 148.62965906249997,
          "velocity": 0.6929133858267716
        },
        {
          "duration": 0.11538450000000466,
          "durationTicks": 96,
          "midi": 67,
          "name": "G4",
          "ticks": 123948,
          "time": 148.97581256249998,
          "velocity": 0.6929133858267716
        },
        {
          "duration": 0.11538450000000466,
          "durationTicks": 96,
          "midi": 62,
          "name": "D4",
          "ticks": 123948,
          "time": 148.97581256249998,
          "velocity": 0.6929133858267716
        },
        {
          "duration": 0.30769200000000296,
          "durationTicks": 256,
          "midi": 76,
          "name": "E5",
          "ticks": 124044,
          "time": 149.0911970625,
          "velocity": 0.6929133858267716
        },
        {
          "duration": 0.34615349999998557,
          "durationTicks": 288,
          "midi": 69,
          "name": "A4",
          "ticks": 124044,
          "time": 149.0911970625,
          "velocity": 0.6929133858267716
        },
        {
          "duration": 0.34615349999998557,
          "durationTicks": 288,
          "midi": 64,
          "name": "E4",
          "ticks": 124044,
          "time": 149.0911970625,
          "velocity": 0.6929133858267716
        },
        {
          "duration": 0.15384599999998727,
          "durationTicks": 128,
          "midi": 88,
          "name": "E6",
          "ticks": 124284,
          "time": 149.3796583125,
          "velocity": 0.7716535433070866
        },
        {
          "duration": 0.11538450000000466,
          "durationTicks": 96,
          "midi": 67,
          "name": "G4",
          "ticks": 124332,
          "time": 149.43735056249997,
          "velocity": 0.6929133858267716
        },
        {
          "duration": 0.11538450000000466,
          "durationTicks": 96,
          "midi": 62,
          "name": "D4",
          "ticks": 124332,
          "time": 149.43735056249997,
          "velocity": 0.6929133858267716
        },
        {
          "duration": 0.1538460000000157,
          "durationTicks": 128,
          "midi": 80,
          "name": "G#5",
          "ticks": 124428,
          "time": 149.55273506249998,
          "velocity": 0.8503937007874016
        },
        {
          "duration": 0.46153799999999023,
          "durationTicks": 384,
          "midi": 68,
          "name": "G#4",
          "ticks": 124428,
          "time": 149.55273506249998,
          "velocity": 0.6929133858267716
        },
        {
          "duration": 0.46153799999999023,
          "durationTicks": 384,
          "midi": 59,
          "name": "B3",
          "ticks": 124428,
          "time": 149.55273506249998,
          "velocity": 0.6929133858267716
        },
        {
          "duration": 0.46153799999999023,
          "durationTicks": 384,
          "midi": 52,
          "name": "E3",
          "ticks": 124428,
          "time": 149.55273506249998,
          "velocity": 0.6929133858267716
        },
        {
          "duration": 0.15384599999998727,
          "durationTicks": 128,
          "midi": 88,
          "name": "E6",
          "ticks": 124556,
          "time": 149.7065810625,
          "velocity": 0.8503937007874016
        },
        {
          "duration": 0.15384599999998727,
          "durationTicks": 128,
          "midi": 88,
          "name": "E6",
          "ticks": 124684,
          "time": 149.86042706249998,
          "velocity": 0.8503937007874016
        },
        {
          "duration": 0.1538460000000157,
          "durationTicks": 128,
          "midi": 80,
          "name": "G#5",
          "ticks": 124812,
          "time": 150.01427306249997,
          "velocity": 0.8503937007874016
        },
        {
          "duration": 0.46153800000001866,
          "durationTicks": 384,
          "midi": 59,
          "name": "B3",
          "ticks": 124812,
          "time": 150.01427306249997,
          "velocity": 0.6929133858267716
        },
        {
          "duration": 0.46153800000001866,
          "durationTicks": 384,
          "midi": 52,
          "name": "E3",
          "ticks": 124812,
          "time": 150.01427306249997,
          "velocity": 0.6929133858267716
        },
        {
          "duration": 0.1538460000000157,
          "durationTicks": 128,
          "midi": 88,
          "name": "E6",
          "ticks": 124940,
          "time": 150.16811906249998,
          "velocity": 0.8503937007874016
        },
        {
          "duration": 0.15384599999998727,
          "durationTicks": 128,
          "midi": 88,
          "name": "E6",
          "ticks": 125068,
          "time": 150.3219650625,
          "velocity": 0.8503937007874016
        },
        {
          "duration": 0.15384599999998727,
          "durationTicks": 128,
          "midi": 78,
          "name": "F#5",
          "ticks": 125196,
          "time": 150.4758110625,
          "velocity": 0.8503937007874016
        },
        {
          "duration": 0.34615349999998557,
          "durationTicks": 288,
          "midi": 59,
          "name": "B3",
          "ticks": 125196,
          "time": 150.4758110625,
          "velocity": 0.6929133858267716
        },
        {
          "duration": 0.34615349999998557,
          "durationTicks": 288,
          "midi": 52,
          "name": "E3",
          "ticks": 125196,
          "time": 150.4758110625,
          "velocity": 0.6929133858267716
        },
        {
          "duration": 0.46153800000001866,
          "durationTicks": 384,
          "midi": 88,
          "name": "E6",
          "ticks": 125324,
          "time": 150.62965706249997,
          "velocity": 0.8503937007874016
        },
        {
          "duration": 0.1538460000000157,
          "durationTicks": 128,
          "midi": 80,
          "name": "G#5",
          "ticks": 125324,
          "time": 150.62965706249997,
          "velocity": 0.8503937007874016
        },
        {
          "duration": 0.15384599999998727,
          "durationTicks": 128,
          "midi": 78,
          "name": "F#5",
          "ticks": 125452,
          "time": 150.7835030625,
          "velocity": 0.8503937007874016
        },
        {
          "duration": 0.11538450000000466,
          "durationTicks": 96,
          "midi": 67,
          "name": "G4",
          "ticks": 125484,
          "time": 150.82196456249997,
          "velocity": 0.6929133858267716
        },
        {
          "duration": 0.11538450000000466,
          "durationTicks": 96,
          "midi": 62,
          "name": "D4",
          "ticks": 125484,
          "time": 150.82196456249997,
          "velocity": 0.6929133858267716
        },
        {
          "duration": 0.30769200000000296,
          "durationTicks": 256,
          "midi": 76,
          "name": "E5",
          "ticks": 125580,
          "time": 150.93734906249998,
          "velocity": 0.6929133858267716
        },
        {
          "duration": 0.346153500000014,
          "durationTicks": 288,
          "midi": 69,
          "name": "A4",
          "ticks": 125580,
          "time": 150.93734906249998,
          "velocity": 0.6929133858267716
        },
        {
          "duration": 0.346153500000014,
          "durationTicks": 288,
          "midi": 64,
          "name": "E4",
          "ticks": 125580,
          "time": 150.93734906249998,
          "velocity": 0.6929133858267716
        },
        {
          "duration": 0.15384599999998727,
          "durationTicks": 128,
          "midi": 76,
          "name": "E5",
          "ticks": 125836,
          "time": 151.24504106249998,
          "velocity": 0.6929133858267716
        },
        {
          "duration": 0.11538449999997624,
          "durationTicks": 96,
          "midi": 67,
          "name": "G4",
          "ticks": 125868,
          "time": 151.2835025625,
          "velocity": 0.6929133858267716
        },
        {
          "duration": 0.11538449999997624,
          "durationTicks": 96,
          "midi": 62,
          "name": "D4",
          "ticks": 125868,
          "time": 151.2835025625,
          "velocity": 0.6929133858267716
        },
        {
          "duration": 0.30769200000000296,
          "durationTicks": 256,
          "midi": 76,
          "name": "E5",
          "ticks": 125964,
          "time": 151.39888706249997,
          "velocity": 0.6929133858267716
        },
        {
          "duration": 0.46153800000001866,
          "durationTicks": 384,
          "midi": 68,
          "name": "G#4",
          "ticks": 125964,
          "time": 151.39888706249997,
          "velocity": 0.6929133858267716
        },
        {
          "duration": 0.46153800000001866,
          "durationTicks": 384,
          "midi": 59,
          "name": "B3",
          "ticks": 125964,
          "time": 151.39888706249997,
          "velocity": 0.6929133858267716
        },
        {
          "duration": 0.46153800000001866,
          "durationTicks": 384,
          "midi": 52,
          "name": "E3",
          "ticks": 125964,
          "time": 151.39888706249997,
          "velocity": 0.6929133858267716
        },
        {
          "duration": 0.1538460000000157,
          "durationTicks": 128,
          "midi": 76,
          "name": "E5",
          "ticks": 126220,
          "time": 151.70657906249997,
          "velocity": 0.6929133858267716
        },
        {
          "duration": 0.46153799999999023,
          "durationTicks": 384,
          "midi": 83,
          "name": "B5",
          "ticks": 126348,
          "time": 151.86042506249998,
          "velocity": 0.8503937007874016
        },
        {
          "duration": 0.46153799999999023,
          "durationTicks": 384,
          "midi": 59,
          "name": "B3",
          "ticks": 126348,
          "time": 151.86042506249998,
          "velocity": 0.6929133858267716
        },
        {
          "duration": 0.46153799999999023,
          "durationTicks": 384,
          "midi": 52,
          "name": "E3",
          "ticks": 126348,
          "time": 151.86042506249998,
          "velocity": 0.6929133858267716
        },
        {
          "duration": 0.30769200000000296,
          "durationTicks": 256,
          "midi": 80,
          "name": "G#5",
          "ticks": 126732,
          "time": 152.32196306249998,
          "velocity": 0.8503937007874016
        },
        {
          "duration": 0.346153500000014,
          "durationTicks": 288,
          "midi": 59,
          "name": "B3",
          "ticks": 126732,
          "time": 152.32196306249998,
          "velocity": 0.6929133858267716
        },
        {
          "duration": 0.346153500000014,
          "durationTicks": 288,
          "midi": 52,
          "name": "E3",
          "ticks": 126732,
          "time": 152.32196306249998,
          "velocity": 0.6929133858267716
        },
        {
          "duration": 0.15384599999998727,
          "durationTicks": 128,
          "midi": 88,
          "name": "E6",
          "ticks": 126972,
          "time": 152.6104243125,
          "velocity": 0.8503937007874016
        },
        {
          "duration": 0.11538450000000466,
          "durationTicks": 96,
          "midi": 67,
          "name": "G4",
          "ticks": 127020,
          "time": 152.6681165625,
          "velocity": 0.6929133858267716
        },
        {
          "duration": 0.11538450000000466,
          "durationTicks": 96,
          "midi": 62,
          "name": "D4",
          "ticks": 127020,
          "time": 152.6681165625,
          "velocity": 0.6929133858267716
        },
        {
          "duration": 0.30769199999997454,
          "durationTicks": 256,
          "midi": 83,
          "name": "B5",
          "ticks": 127116,
          "time": 152.7835010625,
          "velocity": 0.8503937007874016
        },
        {
          "duration": 0.34615349999998557,
          "durationTicks": 288,
          "midi": 69,
          "name": "A4",
          "ticks": 127116,
          "time": 152.7835010625,
          "velocity": 0.6929133858267716
        },
        {
          "duration": 0.34615349999998557,
          "durationTicks": 288,
          "midi": 64,
          "name": "E4",
          "ticks": 127116,
          "time": 152.7835010625,
          "velocity": 0.6929133858267716
        },
        {
          "duration": 0.1538460000000157,
          "durationTicks": 128,
          "midi": 80,
          "name": "G#5",
          "ticks": 127356,
          "time": 153.07196231249998,
          "velocity": 0.8503937007874016
        },
        {
          "duration": 0.11538450000000466,
          "durationTicks": 96,
          "midi": 67,
          "name": "G4",
          "ticks": 127404,
          "time": 153.12965456249998,
          "velocity": 0.6929133858267716
        },
        {
          "duration": 0.11538450000000466,
          "durationTicks": 96,
          "midi": 62,
          "name": "D4",
          "ticks": 127404,
          "time": 153.12965456249998,
          "velocity": 0.6929133858267716
        },
        {
          "duration": 0.30769200000000296,
          "durationTicks": 256,
          "midi": 80,
          "name": "G#5",
          "ticks": 127500,
          "time": 153.24503906249998,
          "velocity": 0.8503937007874016
        },
        {
          "duration": 0.46153799999999023,
          "durationTicks": 384,
          "midi": 68,
          "name": "G#4",
          "ticks": 127500,
          "time": 153.24503906249998,
          "velocity": 0.6929133858267716
        },
        {
          "duration": 0.46153799999999023,
          "durationTicks": 384,
          "midi": 59,
          "name": "B3",
          "ticks": 127500,
          "time": 153.24503906249998,
          "velocity": 0.6929133858267716
        },
        {
          "duration": 0.46153799999999023,
          "durationTicks": 384,
          "midi": 52,
          "name": "E3",
          "ticks": 127500,
          "time": 153.24503906249998,
          "velocity": 0.6929133858267716
        },
        {
          "duration": 0.15384599999998727,
          "durationTicks": 128,
          "midi": 78,
          "name": "F#5",
          "ticks": 127756,
          "time": 153.5527310625,
          "velocity": 0.8503937007874016
        },
        {
          "duration": 0.1538460000000157,
          "durationTicks": 128,
          "midi": 76,
          "name": "E5",
          "ticks": 127884,
          "time": 153.70657706249997,
          "velocity": 0.6929133858267716
        },
        {
          "duration": 0.46153800000001866,
          "durationTicks": 384,
          "midi": 59,
          "name": "B3",
          "ticks": 127884,
          "time": 153.70657706249997,
          "velocity": 0.6929133858267716
        },
        {
          "duration": 0.46153800000001866,
          "durationTicks": 384,
          "midi": 52,
          "name": "E3",
          "ticks": 127884,
          "time": 153.70657706249997,
          "velocity": 0.6929133858267716
        },
        {
          "duration": 0.15384599999998727,
          "durationTicks": 128,
          "midi": 78,
          "name": "F#5",
          "ticks": 128012,
          "time": 153.8604230625,
          "velocity": 0.8503937007874016
        },
        {
          "duration": 0.1538460000000157,
          "durationTicks": 128,
          "midi": 76,
          "name": "E5",
          "ticks": 128140,
          "time": 154.01426906249998,
          "velocity": 0.6929133858267716
        },
        {
          "duration": 0.46153799999999023,
          "durationTicks": 384,
          "midi": 76,
          "name": "E5",
          "ticks": 128268,
          "time": 154.1681150625,
          "velocity": 0.6929133858267716
        },
        {
          "duration": 0.34615349999998557,
          "durationTicks": 288,
          "midi": 59,
          "name": "B3",
          "ticks": 128268,
          "time": 154.1681150625,
          "velocity": 0.6929133858267716
        },
        {
          "duration": 0.34615349999998557,
          "durationTicks": 288,
          "midi": 52,
          "name": "E3",
          "ticks": 128268,
          "time": 154.1681150625,
          "velocity": 0.6929133858267716
        },
        {
          "duration": 0.11538450000000466,
          "durationTicks": 96,
          "midi": 67,
          "name": "G4",
          "ticks": 128556,
          "time": 154.51426856249998,
          "velocity": 0.6929133858267716
        },
        {
          "duration": 0.11538450000000466,
          "durationTicks": 96,
          "midi": 62,
          "name": "D4",
          "ticks": 128556,
          "time": 154.51426856249998,
          "velocity": 0.6929133858267716
        },
        {
          "duration": 0.46153799999999023,
          "durationTicks": 384,
          "midi": 86,
          "name": "D6",
          "ticks": 128652,
          "time": 154.62965306249998,
          "velocity": 0.8503937007874016
        },
        {
          "duration": 0.34615349999998557,
          "durationTicks": 288,
          "midi": 69,
          "name": "A4",
          "ticks": 128652,
          "time": 154.62965306249998,
          "velocity": 0.6929133858267716
        },
        {
          "duration": 0.34615349999998557,
          "durationTicks": 288,
          "midi": 64,
          "name": "E4",
          "ticks": 128652,
          "time": 154.62965306249998,
          "velocity": 0.6929133858267716
        },
        {
          "duration": 0.11538450000000466,
          "durationTicks": 96,
          "midi": 67,
          "name": "G4",
          "ticks": 128940,
          "time": 154.97580656249997,
          "velocity": 0.6929133858267716
        },
        {
          "duration": 0.11538450000000466,
          "durationTicks": 96,
          "midi": 62,
          "name": "D4",
          "ticks": 128940,
          "time": 154.97580656249997,
          "velocity": 0.6929133858267716
        },
        {
          "duration": 0.46153800000001866,
          "durationTicks": 384,
          "midi": 68,
          "name": "G#4",
          "ticks": 129036,
          "time": 155.09119106249997,
          "velocity": 0.6929133858267716
        },
        {
          "duration": 0.46153800000001866,
          "durationTicks": 384,
          "midi": 59,
          "name": "B3",
          "ticks": 129036,
          "time": 155.09119106249997,
          "velocity": 0.6929133858267716
        },
        {
          "duration": 0.46153800000001866,
          "durationTicks": 384,
          "midi": 52,
          "name": "E3",
          "ticks": 129036,
          "time": 155.09119106249997,
          "velocity": 0.6929133858267716
        },
        {
          "duration": 0.15384599999998727,
          "durationTicks": 128,
          "midi": 88,
          "name": "E6",
          "ticks": 129276,
          "time": 155.37965231249999,
          "velocity": 0.8503937007874016
        },
        {
          "duration": 0.15384599999998727,
          "durationTicks": 128,
          "midi": 83,
          "name": "B5",
          "ticks": 129420,
          "time": 155.5527290625,
          "velocity": 0.8503937007874016
        },
        {
          "duration": 0.46153799999999023,
          "durationTicks": 384,
          "midi": 59,
          "name": "B3",
          "ticks": 129420,
          "time": 155.5527290625,
          "velocity": 0.6929133858267716
        },
        {
          "duration": 0.46153799999999023,
          "durationTicks": 384,
          "midi": 52,
          "name": "E3",
          "ticks": 129420,
          "time": 155.5527290625,
          "velocity": 0.6929133858267716
        },
        {
          "duration": 0.15384599999998727,
          "durationTicks": 128,
          "midi": 83,
          "name": "B5",
          "ticks": 129548,
          "time": 155.70657506249998,
          "velocity": 0.8503937007874016
        },
        {
          "duration": 0.1538460000000157,
          "durationTicks": 128,
          "midi": 88,
          "name": "E6",
          "ticks": 129676,
          "time": 155.86042106249997,
          "velocity": 0.8503937007874016
        },
        {
          "duration": 0.15384599999998727,
          "durationTicks": 128,
          "midi": 83,
          "name": "B5",
          "ticks": 129804,
          "time": 156.01426706249998,
          "velocity": 0.8503937007874016
        },
        {
          "duration": 0.34615349999998557,
          "durationTicks": 288,
          "midi": 59,
          "name": "B3",
          "ticks": 129804,
          "time": 156.01426706249998,
          "velocity": 0.6929133858267716
        },
        {
          "duration": 0.34615349999998557,
          "durationTicks": 288,
          "midi": 52,
          "name": "E3",
          "ticks": 129804,
          "time": 156.01426706249998,
          "velocity": 0.6929133858267716
        },
        {
          "duration": 0.1538460000000157,
          "durationTicks": 128,
          "midi": 83,
          "name": "B5",
          "ticks": 129932,
          "time": 156.16811306249997,
          "velocity": 0.8503937007874016
        },
        {
          "duration": 0.15384599999998727,
          "durationTicks": 128,
          "midi": 88,
          "name": "E6",
          "ticks": 130060,
          "time": 156.32195906249999,
          "velocity": 0.8503937007874016
        },
        {
          "duration": 0.11538450000000466,
          "durationTicks": 96,
          "midi": 67,
          "name": "G4",
          "ticks": 130092,
          "time": 156.36042056249997,
          "velocity": 0.6929133858267716
        },
        {
          "duration": 0.11538450000000466,
          "durationTicks": 96,
          "midi": 62,
          "name": "D4",
          "ticks": 130092,
          "time": 156.36042056249997,
          "velocity": 0.6929133858267716
        },
        {
          "duration": 0.1538460000000157,
          "durationTicks": 128,
          "midi": 83,
          "name": "B5",
          "ticks": 130188,
          "time": 156.47580506249997,
          "velocity": 0.8503937007874016
        },
        {
          "duration": 0.346153500000014,
          "durationTicks": 288,
          "midi": 69,
          "name": "A4",
          "ticks": 130188,
          "time": 156.47580506249997,
          "velocity": 0.6929133858267716
        },
        {
          "duration": 0.346153500000014,
          "durationTicks": 288,
          "midi": 64,
          "name": "E4",
          "ticks": 130188,
          "time": 156.47580506249997,
          "velocity": 0.6929133858267716
        },
        {
          "duration": 0.15384599999998727,
          "durationTicks": 128,
          "midi": 83,
          "name": "B5",
          "ticks": 130316,
          "time": 156.6296510625,
          "velocity": 0.8503937007874016
        },
        {
          "duration": 0.1538460000000157,
          "durationTicks": 128,
          "midi": 88,
          "name": "E6",
          "ticks": 130444,
          "time": 156.78349706249998,
          "velocity": 0.8503937007874016
        },
        {
          "duration": 0.11538450000000466,
          "durationTicks": 96,
          "midi": 67,
          "name": "G4",
          "ticks": 130476,
          "time": 156.8219585625,
          "velocity": 0.6929133858267716
        },
        {
          "duration": 0.11538450000000466,
          "durationTicks": 96,
          "midi": 62,
          "name": "D4",
          "ticks": 130476,
          "time": 156.8219585625,
          "velocity": 0.6929133858267716
        },
        {
          "duration": 0.15384599999998727,
          "durationTicks": 128,
          "midi": 83,
          "name": "B5",
          "ticks": 130572,
          "time": 156.9373430625,
          "velocity": 0.8503937007874016
        },
        {
          "duration": 0.46153799999999023,
          "durationTicks": 384,
          "midi": 68,
          "name": "G#4",
          "ticks": 130572,
          "time": 156.9373430625,
          "velocity": 0.6929133858267716
        },
        {
          "duration": 0.46153799999999023,
          "durationTicks": 384,
          "midi": 59,
          "name": "B3",
          "ticks": 130572,
          "time": 156.9373430625,
          "velocity": 0.6929133858267716
        },
        {
          "duration": 0.46153799999999023,
          "durationTicks": 384,
          "midi": 52,
          "name": "E3",
          "ticks": 130572,
          "time": 156.9373430625,
          "velocity": 0.6929133858267716
        },
        {
          "duration": 0.15384599999998727,
          "durationTicks": 128,
          "midi": 83,
          "name": "B5",
          "ticks": 130700,
          "time": 157.09118906249998,
          "velocity": 0.8503937007874016
        },
        {
          "duration": 0.1538460000000157,
          "durationTicks": 128,
          "midi": 88,
          "name": "E6",
          "ticks": 130828,
          "time": 157.24503506249997,
          "velocity": 0.8503937007874016
        },
        {
          "duration": 0.15384599999998727,
          "durationTicks": 128,
          "midi": 83,
          "name": "B5",
          "ticks": 130956,
          "time": 157.39888106249998,
          "velocity": 0.8503937007874016
        },
        {
          "duration": 0.46153799999999023,
          "durationTicks": 384,
          "midi": 59,
          "name": "B3",
          "ticks": 130956,
          "time": 157.39888106249998,
          "velocity": 0.6929133858267716
        },
        {
          "duration": 0.46153799999999023,
          "durationTicks": 384,
          "midi": 52,
          "name": "E3",
          "ticks": 130956,
          "time": 157.39888106249998,
          "velocity": 0.6929133858267716
        },
        {
          "duration": 0.1538460000000157,
          "durationTicks": 128,
          "midi": 83,
          "name": "B5",
          "ticks": 131084,
          "time": 157.55272706249997,
          "velocity": 0.8503937007874016
        },
        {
          "duration": 0.15384599999998727,
          "durationTicks": 128,
          "midi": 88,
          "name": "E6",
          "ticks": 131212,
          "time": 157.70657306249998,
          "velocity": 0.8503937007874016
        },
        {
          "duration": 0.1538460000000157,
          "durationTicks": 128,
          "midi": 83,
          "name": "B5",
          "ticks": 131340,
          "time": 157.86041906249997,
          "velocity": 0.8503937007874016
        },
        {
          "duration": 0.346153500000014,
          "durationTicks": 288,
          "midi": 59,
          "name": "B3",
          "ticks": 131340,
          "time": 157.86041906249997,
          "velocity": 0.6929133858267716
        },
        {
          "duration": 0.346153500000014,
          "durationTicks": 288,
          "midi": 52,
          "name": "E3",
          "ticks": 131340,
          "time": 157.86041906249997,
          "velocity": 0.6929133858267716
        },
        {
          "duration": 0.15384599999998727,
          "durationTicks": 128,
          "midi": 83,
          "name": "B5",
          "ticks": 131468,
          "time": 158.0142650625,
          "velocity": 0.8503937007874016
        },
        {
          "duration": 0.1538460000000157,
          "durationTicks": 128,
          "midi": 88,
          "name": "E6",
          "ticks": 131596,
          "time": 158.16811106249997,
          "velocity": 0.8503937007874016
        },
        {
          "duration": 0.11538450000000466,
          "durationTicks": 96,
          "midi": 67,
          "name": "G4",
          "ticks": 131628,
          "time": 158.20657256249999,
          "velocity": 0.6929133858267716
        },
        {
          "duration": 0.11538450000000466,
          "durationTicks": 96,
          "midi": 62,
          "name": "D4",
          "ticks": 131628,
          "time": 158.20657256249999,
          "velocity": 0.6929133858267716
        },
        {
          "duration": 0.15384599999998727,
          "durationTicks": 128,
          "midi": 83,
          "name": "B5",
          "ticks": 131724,
          "time": 158.3219570625,
          "velocity": 0.8503937007874016
        },
        {
          "duration": 0.34615349999998557,
          "durationTicks": 288,
          "midi": 69,
          "name": "A4",
          "ticks": 131724,
          "time": 158.3219570625,
          "velocity": 0.6929133858267716
        },
        {
          "duration": 0.34615349999998557,
          "durationTicks": 288,
          "midi": 64,
          "name": "E4",
          "ticks": 131724,
          "time": 158.3219570625,
          "velocity": 0.6929133858267716
        },
        {
          "duration": 0.1538460000000157,
          "durationTicks": 128,
          "midi": 83,
          "name": "B5",
          "ticks": 131852,
          "time": 158.47580306249998,
          "velocity": 0.8503937007874016
        },
        {
          "duration": 0.15384599999998727,
          "durationTicks": 128,
          "midi": 88,
          "name": "E6",
          "ticks": 131980,
          "time": 158.6296490625,
          "velocity": 0.8503937007874016
        },
        {
          "duration": 0.11538450000000466,
          "durationTicks": 96,
          "midi": 67,
          "name": "G4",
          "ticks": 132012,
          "time": 158.66811056249998,
          "velocity": 0.6929133858267716
        },
        {
          "duration": 0.11538450000000466,
          "durationTicks": 96,
          "midi": 62,
          "name": "D4",
          "ticks": 132012,
          "time": 158.66811056249998,
          "velocity": 0.6929133858267716
        },
        {
          "duration": 0.15384599999998727,
          "durationTicks": 128,
          "midi": 83,
          "name": "B5",
          "ticks": 132108,
          "time": 158.78349506249998,
          "velocity": 0.8503937007874016
        },
        {
          "duration": 0.46153799999999023,
          "durationTicks": 384,
          "midi": 68,
          "name": "G#4",
          "ticks": 132108,
          "time": 158.78349506249998,
          "velocity": 0.6929133858267716
        },
        {
          "duration": 0.46153799999999023,
          "durationTicks": 384,
          "midi": 59,
          "name": "B3",
          "ticks": 132108,
          "time": 158.78349506249998,
          "velocity": 0.6929133858267716
        },
        {
          "duration": 0.46153799999999023,
          "durationTicks": 384,
          "midi": 52,
          "name": "E3",
          "ticks": 132108,
          "time": 158.78349506249998,
          "velocity": 0.6929133858267716
        },
        {
          "duration": 0.1538460000000157,
          "durationTicks": 128,
          "midi": 83,
          "name": "B5",
          "ticks": 132236,
          "time": 158.93734106249997,
          "velocity": 0.8503937007874016
        },
        {
          "duration": 0.15384599999998727,
          "durationTicks": 128,
          "midi": 88,
          "name": "E6",
          "ticks": 132364,
          "time": 159.09118706249998,
          "velocity": 0.8503937007874016
        },
        {
          "duration": 0.1538460000000157,
          "durationTicks": 128,
          "midi": 83,
          "name": "B5",
          "ticks": 132492,
          "time": 159.24503306249997,
          "velocity": 0.8503937007874016
        },
        {
          "duration": 0.46153800000001866,
          "durationTicks": 384,
          "midi": 59,
          "name": "B3",
          "ticks": 132492,
          "time": 159.24503306249997,
          "velocity": 0.6929133858267716
        },
        {
          "duration": 0.46153800000001866,
          "durationTicks": 384,
          "midi": 52,
          "name": "E3",
          "ticks": 132492,
          "time": 159.24503306249997,
          "velocity": 0.6929133858267716
        },
        {
          "duration": 0.15384599999998727,
          "durationTicks": 128,
          "midi": 83,
          "name": "B5",
          "ticks": 132620,
          "time": 159.3988790625,
          "velocity": 0.8503937007874016
        },
        {
          "duration": 0.1538460000000157,
          "durationTicks": 128,
          "midi": 88,
          "name": "E6",
          "ticks": 132748,
          "time": 159.55272506249997,
          "velocity": 0.8503937007874016
        },
        {
          "duration": 0.15384599999998727,
          "durationTicks": 128,
          "midi": 83,
          "name": "B5",
          "ticks": 132876,
          "time": 159.7065710625,
          "velocity": 0.8503937007874016
        },
        {
          "duration": 0.34615349999998557,
          "durationTicks": 288,
          "midi": 59,
          "name": "B3",
          "ticks": 132876,
          "time": 159.7065710625,
          "velocity": 0.6929133858267716
        },
        {
          "duration": 0.34615349999998557,
          "durationTicks": 288,
          "midi": 52,
          "name": "E3",
          "ticks": 132876,
          "time": 159.7065710625,
          "velocity": 0.6929133858267716
        },
        {
          "duration": 0.1538460000000157,
          "durationTicks": 128,
          "midi": 83,
          "name": "B5",
          "ticks": 133004,
          "time": 159.86041706249998,
          "velocity": 0.8503937007874016
        },
        {
          "duration": 0.15384599999998727,
          "durationTicks": 128,
          "midi": 88,
          "name": "E6",
          "ticks": 133132,
          "time": 160.0142630625,
          "velocity": 0.8503937007874016
        },
        {
          "duration": 0.11538450000000466,
          "durationTicks": 96,
          "midi": 67,
          "name": "G4",
          "ticks": 133164,
          "time": 160.05272456249998,
          "velocity": 0.6929133858267716
        },
        {
          "duration": 0.11538450000000466,
          "durationTicks": 96,
          "midi": 62,
          "name": "D4",
          "ticks": 133164,
          "time": 160.05272456249998,
          "velocity": 0.6929133858267716
        },
        {
          "duration": 0.15384599999998727,
          "durationTicks": 128,
          "midi": 83,
          "name": "B5",
          "ticks": 133260,
          "time": 160.16810906249998,
          "velocity": 0.8503937007874016
        },
        {
          "duration": 0.346153500000014,
          "durationTicks": 288,
          "midi": 69,
          "name": "A4",
          "ticks": 133260,
          "time": 160.16810906249998,
          "velocity": 0.6929133858267716
        },
        {
          "duration": 0.346153500000014,
          "durationTicks": 288,
          "midi": 64,
          "name": "E4",
          "ticks": 133260,
          "time": 160.16810906249998,
          "velocity": 0.6929133858267716
        },
        {
          "duration": 0.1538460000000157,
          "durationTicks": 128,
          "midi": 83,
          "name": "B5",
          "ticks": 133388,
          "time": 160.32195506249997,
          "velocity": 0.8503937007874016
        },
        {
          "duration": 0.15384599999998727,
          "durationTicks": 128,
          "midi": 88,
          "name": "E6",
          "ticks": 133516,
          "time": 160.47580106249998,
          "velocity": 0.8503937007874016
        },
        {
          "duration": 0.11538449999997624,
          "durationTicks": 96,
          "midi": 67,
          "name": "G4",
          "ticks": 133548,
          "time": 160.5142625625,
          "velocity": 0.6929133858267716
        },
        {
          "duration": 0.11538449999997624,
          "durationTicks": 96,
          "midi": 62,
          "name": "D4",
          "ticks": 133548,
          "time": 160.5142625625,
          "velocity": 0.6929133858267716
        },
        {
          "duration": 0.1538460000000157,
          "durationTicks": 128,
          "midi": 83,
          "name": "B5",
          "ticks": 133644,
          "time": 160.62964706249997,
          "velocity": 0.6929133858267716
        },
        {
          "duration": 0.1538460000000157,
          "durationTicks": 128,
          "midi": 80,
          "name": "G#5",
          "ticks": 133644,
          "time": 160.62964706249997,
          "velocity": 0.6929133858267716
        },
        {
          "duration": 0.1538460000000157,
          "durationTicks": 128,
          "midi": 76,
          "name": "E5",
          "ticks": 133644,
          "time": 160.62964706249997,
          "velocity": 0.6929133858267716
        },
        {
          "duration": 0.1538460000000157,
          "durationTicks": 128,
          "midi": 71,
          "name": "B4",
          "ticks": 133644,
          "time": 160.62964706249997,
          "velocity": 0.6929133858267716
        },
        {
          "duration": 0.1538460000000157,
          "durationTicks": 128,
          "midi": 64,
          "name": "E4",
          "ticks": 133644,
          "time": 160.62964706249997,
          "velocity": 0.6929133858267716
        },
        {
          "duration": 0.15384599999998727,
          "durationTicks": 128,
          "midi": 83,
          "name": "B5",
          "ticks": 133772,
          "time": 160.78349306249999,
          "velocity": 0.6929133858267716
        },
        {
          "duration": 0.15384599999998727,
          "durationTicks": 128,
          "midi": 80,
          "name": "G#5",
          "ticks": 133772,
          "time": 160.78349306249999,
          "velocity": 0.6929133858267716
        },
        {
          "duration": 0.15384599999998727,
          "durationTicks": 128,
          "midi": 76,
          "name": "E5",
          "ticks": 133772,
          "time": 160.78349306249999,
          "velocity": 0.6929133858267716
        },
        {
          "duration": 0.15384599999998727,
          "durationTicks": 128,
          "midi": 71,
          "name": "B4",
          "ticks": 133772,
          "time": 160.78349306249999,
          "velocity": 0.6929133858267716
        },
        {
          "duration": 0.15384599999998727,
          "durationTicks": 128,
          "midi": 64,
          "name": "E4",
          "ticks": 133772,
          "time": 160.78349306249999,
          "velocity": 0.6929133858267716
        },
        {
          "duration": 0.1538460000000157,
          "durationTicks": 128,
          "midi": 88,
          "name": "E6",
          "ticks": 133900,
          "time": 160.93733906249997,
          "velocity": 0.6929133858267716
        },
        {
          "duration": 0.1538460000000157,
          "durationTicks": 128,
          "midi": 80,
          "name": "G#5",
          "ticks": 133900,
          "time": 160.93733906249997,
          "velocity": 0.6929133858267716
        },
        {
          "duration": 0.1538460000000157,
          "durationTicks": 128,
          "midi": 76,
          "name": "E5",
          "ticks": 133900,
          "time": 160.93733906249997,
          "velocity": 0.6929133858267716
        },
        {
          "duration": 0.1538460000000157,
          "durationTicks": 128,
          "midi": 71,
          "name": "B4",
          "ticks": 133900,
          "time": 160.93733906249997,
          "velocity": 0.6929133858267716
        },
        {
          "duration": 0.1538460000000157,
          "durationTicks": 128,
          "midi": 64,
          "name": "E4",
          "ticks": 133900,
          "time": 160.93733906249997,
          "velocity": 0.6929133858267716
        },
        {
          "duration": 0.15384599999998727,
          "durationTicks": 128,
          "midi": 83,
          "name": "B5",
          "ticks": 134028,
          "time": 161.0911850625,
          "velocity": 0.6929133858267716
        },
        {
          "duration": 0.15384599999998727,
          "durationTicks": 128,
          "midi": 80,
          "name": "G#5",
          "ticks": 134028,
          "time": 161.0911850625,
          "velocity": 0.6929133858267716
        },
        {
          "duration": 0.15384599999998727,
          "durationTicks": 128,
          "midi": 76,
          "name": "E5",
          "ticks": 134028,
          "time": 161.0911850625,
          "velocity": 0.6929133858267716
        },
        {
          "duration": 0.15384599999998727,
          "durationTicks": 128,
          "midi": 71,
          "name": "B4",
          "ticks": 134028,
          "time": 161.0911850625,
          "velocity": 0.6929133858267716
        },
        {
          "duration": 0.15384599999998727,
          "durationTicks": 128,
          "midi": 64,
          "name": "E4",
          "ticks": 134028,
          "time": 161.0911850625,
          "velocity": 0.6929133858267716
        },
        {
          "duration": 0.1538460000000157,
          "durationTicks": 128,
          "midi": 83,
          "name": "B5",
          "ticks": 134156,
          "time": 161.24503106249998,
          "velocity": 0.6929133858267716
        },
        {
          "duration": 0.1538460000000157,
          "durationTicks": 128,
          "midi": 80,
          "name": "G#5",
          "ticks": 134156,
          "time": 161.24503106249998,
          "velocity": 0.6929133858267716
        },
        {
          "duration": 0.1538460000000157,
          "durationTicks": 128,
          "midi": 76,
          "name": "E5",
          "ticks": 134156,
          "time": 161.24503106249998,
          "velocity": 0.6929133858267716
        },
        {
          "duration": 0.1538460000000157,
          "durationTicks": 128,
          "midi": 71,
          "name": "B4",
          "ticks": 134156,
          "time": 161.24503106249998,
          "velocity": 0.6929133858267716
        },
        {
          "duration": 0.1538460000000157,
          "durationTicks": 128,
          "midi": 64,
          "name": "E4",
          "ticks": 134156,
          "time": 161.24503106249998,
          "velocity": 0.6929133858267716
        },
        {
          "duration": 0.15384599999998727,
          "durationTicks": 128,
          "midi": 88,
          "name": "E6",
          "ticks": 134284,
          "time": 161.3988770625,
          "velocity": 0.6929133858267716
        },
        {
          "duration": 0.15384599999998727,
          "durationTicks": 128,
          "midi": 80,
          "name": "G#5",
          "ticks": 134284,
          "time": 161.3988770625,
          "velocity": 0.6929133858267716
        },
        {
          "duration": 0.15384599999998727,
          "durationTicks": 128,
          "midi": 76,
          "name": "E5",
          "ticks": 134284,
          "time": 161.3988770625,
          "velocity": 0.6929133858267716
        },
        {
          "duration": 0.15384599999998727,
          "durationTicks": 128,
          "midi": 71,
          "name": "B4",
          "ticks": 134284,
          "time": 161.3988770625,
          "velocity": 0.6929133858267716
        },
        {
          "duration": 0.15384599999998727,
          "durationTicks": 128,
          "midi": 64,
          "name": "E4",
          "ticks": 134284,
          "time": 161.3988770625,
          "velocity": 0.6929133858267716
        },
        {
          "duration": 0.15384599999998727,
          "durationTicks": 128,
          "midi": 83,
          "name": "B5",
          "ticks": 134412,
          "time": 161.55272306249998,
          "velocity": 0.6929133858267716
        },
        {
          "duration": 0.15384599999998727,
          "durationTicks": 128,
          "midi": 80,
          "name": "G#5",
          "ticks": 134412,
          "time": 161.55272306249998,
          "velocity": 0.6929133858267716
        },
        {
          "duration": 0.15384599999998727,
          "durationTicks": 128,
          "midi": 76,
          "name": "E5",
          "ticks": 134412,
          "time": 161.55272306249998,
          "velocity": 0.6929133858267716
        },
        {
          "duration": 0.15384599999998727,
          "durationTicks": 128,
          "midi": 71,
          "name": "B4",
          "ticks": 134412,
          "time": 161.55272306249998,
          "velocity": 0.6929133858267716
        },
        {
          "duration": 0.15384599999998727,
          "durationTicks": 128,
          "midi": 64,
          "name": "E4",
          "ticks": 134412,
          "time": 161.55272306249998,
          "velocity": 0.6929133858267716
        },
        {
          "duration": 0.1538460000000157,
          "durationTicks": 128,
          "midi": 83,
          "name": "B5",
          "ticks": 134540,
          "time": 161.70656906249997,
          "velocity": 0.6929133858267716
        },
        {
          "duration": 0.1538460000000157,
          "durationTicks": 128,
          "midi": 80,
          "name": "G#5",
          "ticks": 134540,
          "time": 161.70656906249997,
          "velocity": 0.6929133858267716
        },
        {
          "duration": 0.1538460000000157,
          "durationTicks": 128,
          "midi": 76,
          "name": "E5",
          "ticks": 134540,
          "time": 161.70656906249997,
          "velocity": 0.6929133858267716
        },
        {
          "duration": 0.1538460000000157,
          "durationTicks": 128,
          "midi": 71,
          "name": "B4",
          "ticks": 134540,
          "time": 161.70656906249997,
          "velocity": 0.6929133858267716
        },
        {
          "duration": 0.1538460000000157,
          "durationTicks": 128,
          "midi": 64,
          "name": "E4",
          "ticks": 134540,
          "time": 161.70656906249997,
          "velocity": 0.6929133858267716
        },
        {
          "duration": 0.15384599999998727,
          "durationTicks": 128,
          "midi": 83,
          "name": "B5",
          "ticks": 134668,
          "time": 161.86041506249998,
          "velocity": 0.6929133858267716
        },
        {
          "duration": 0.15384599999998727,
          "durationTicks": 128,
          "midi": 80,
          "name": "G#5",
          "ticks": 134668,
          "time": 161.86041506249998,
          "velocity": 0.6929133858267716
        },
        {
          "duration": 0.15384599999998727,
          "durationTicks": 128,
          "midi": 76,
          "name": "E5",
          "ticks": 134668,
          "time": 161.86041506249998,
          "velocity": 0.6929133858267716
        },
        {
          "duration": 0.15384599999998727,
          "durationTicks": 128,
          "midi": 71,
          "name": "B4",
          "ticks": 134668,
          "time": 161.86041506249998,
          "velocity": 0.6929133858267716
        },
        {
          "duration": 0.15384599999998727,
          "durationTicks": 128,
          "midi": 64,
          "name": "E4",
          "ticks": 134668,
          "time": 161.86041506249998,
          "velocity": 0.6929133858267716
        },
        {
          "duration": 0.1538460000000157,
          "durationTicks": 128,
          "midi": 76,
          "name": "E5",
          "ticks": 134796,
          "time": 162.01426106249997,
          "velocity": 0.6929133858267716
        },
        {
          "duration": 0.1538460000000157,
          "durationTicks": 128,
          "midi": 71,
          "name": "B4",
          "ticks": 134796,
          "time": 162.01426106249997,
          "velocity": 0.6929133858267716
        },
        {
          "duration": 0.1538460000000157,
          "durationTicks": 128,
          "midi": 81,
          "name": "A5",
          "ticks": 134796,
          "time": 162.01426106249997,
          "velocity": 0.6929133858267716
        },
        {
          "duration": 0.1538460000000157,
          "durationTicks": 128,
          "midi": 80,
          "name": "G#5",
          "ticks": 134796,
          "time": 162.01426106249997,
          "velocity": 0.6929133858267716
        },
        {
          "duration": 0.1538460000000157,
          "durationTicks": 128,
          "midi": 76,
          "name": "E5",
          "ticks": 134796,
          "time": 162.01426106249997,
          "velocity": 0.6929133858267716
        },
        {
          "duration": 0.1538460000000157,
          "durationTicks": 128,
          "midi": 71,
          "name": "B4",
          "ticks": 134796,
          "time": 162.01426106249997,
          "velocity": 0.6929133858267716
        },
        {
          "duration": 0.1538460000000157,
          "durationTicks": 128,
          "midi": 64,
          "name": "E4",
          "ticks": 134796,
          "time": 162.01426106249997,
          "velocity": 0.6929133858267716
        },
        {
          "duration": 0.15384599999998727,
          "durationTicks": 128,
          "midi": 76,
          "name": "E5",
          "ticks": 134924,
          "time": 162.16810706249998,
          "velocity": 0.6929133858267716
        },
        {
          "duration": 0.15384599999998727,
          "durationTicks": 128,
          "midi": 71,
          "name": "B4",
          "ticks": 134924,
          "time": 162.16810706249998,
          "velocity": 0.6929133858267716
        },
        {
          "duration": 0.15384599999998727,
          "durationTicks": 128,
          "midi": 81,
          "name": "A5",
          "ticks": 134924,
          "time": 162.16810706249998,
          "velocity": 0.6929133858267716
        },
        {
          "duration": 0.15384599999998727,
          "durationTicks": 128,
          "midi": 80,
          "name": "G#5",
          "ticks": 134924,
          "time": 162.16810706249998,
          "velocity": 0.6929133858267716
        },
        {
          "duration": 0.15384599999998727,
          "durationTicks": 128,
          "midi": 76,
          "name": "E5",
          "ticks": 134924,
          "time": 162.16810706249998,
          "velocity": 0.6929133858267716
        },
        {
          "duration": 0.15384599999998727,
          "durationTicks": 128,
          "midi": 71,
          "name": "B4",
          "ticks": 134924,
          "time": 162.16810706249998,
          "velocity": 0.6929133858267716
        },
        {
          "duration": 0.15384599999998727,
          "durationTicks": 128,
          "midi": 64,
          "name": "E4",
          "ticks": 134924,
          "time": 162.16810706249998,
          "velocity": 0.6929133858267716
        },
        {
          "duration": 0.1538460000000157,
          "durationTicks": 128,
          "midi": 76,
          "name": "E5",
          "ticks": 135052,
          "time": 162.32195306249997,
          "velocity": 0.6929133858267716
        },
        {
          "duration": 0.1538460000000157,
          "durationTicks": 128,
          "midi": 71,
          "name": "B4",
          "ticks": 135052,
          "time": 162.32195306249997,
          "velocity": 0.6929133858267716
        },
        {
          "duration": 0.1538460000000157,
          "durationTicks": 128,
          "midi": 81,
          "name": "A5",
          "ticks": 135052,
          "time": 162.32195306249997,
          "velocity": 0.6929133858267716
        },
        {
          "duration": 0.1538460000000157,
          "durationTicks": 128,
          "midi": 80,
          "name": "G#5",
          "ticks": 135052,
          "time": 162.32195306249997,
          "velocity": 0.6929133858267716
        },
        {
          "duration": 0.1538460000000157,
          "durationTicks": 128,
          "midi": 76,
          "name": "E5",
          "ticks": 135052,
          "time": 162.32195306249997,
          "velocity": 0.6929133858267716
        },
        {
          "duration": 0.1538460000000157,
          "durationTicks": 128,
          "midi": 71,
          "name": "B4",
          "ticks": 135052,
          "time": 162.32195306249997,
          "velocity": 0.6929133858267716
        },
        {
          "duration": 0.1538460000000157,
          "durationTicks": 128,
          "midi": 64,
          "name": "E4",
          "ticks": 135052,
          "time": 162.32195306249997,
          "velocity": 0.6929133858267716
        },
        {
          "duration": 0.15384599999998727,
          "durationTicks": 128,
          "midi": 88,
          "name": "E6",
          "ticks": 135180,
          "time": 162.4757990625,
          "velocity": 0.6929133858267716
        },
        {
          "duration": 0.15384599999998727,
          "durationTicks": 128,
          "midi": 83,
          "name": "B5",
          "ticks": 135180,
          "time": 162.4757990625,
          "velocity": 0.6929133858267716
        },
        {
          "duration": 0.15384599999998727,
          "durationTicks": 128,
          "midi": 80,
          "name": "G#5",
          "ticks": 135180,
          "time": 162.4757990625,
          "velocity": 0.6929133858267716
        },
        {
          "duration": 0.15384599999998727,
          "durationTicks": 128,
          "midi": 76,
          "name": "E5",
          "ticks": 135180,
          "time": 162.4757990625,
          "velocity": 0.6929133858267716
        },
        {
          "duration": 0.1538460000000157,
          "durationTicks": 128,
          "midi": 88,
          "name": "E6",
          "ticks": 135308,
          "time": 162.62964506249997,
          "velocity": 0.6929133858267716
        },
        {
          "duration": 0.1538460000000157,
          "durationTicks": 128,
          "midi": 83,
          "name": "B5",
          "ticks": 135308,
          "time": 162.62964506249997,
          "velocity": 0.6929133858267716
        },
        {
          "duration": 0.1538460000000157,
          "durationTicks": 128,
          "midi": 80,
          "name": "G#5",
          "ticks": 135308,
          "time": 162.62964506249997,
          "velocity": 0.6929133858267716
        },
        {
          "duration": 0.1538460000000157,
          "durationTicks": 128,
          "midi": 76,
          "name": "E5",
          "ticks": 135308,
          "time": 162.62964506249997,
          "velocity": 0.6929133858267716
        },
        {
          "duration": 0.15384599999998727,
          "durationTicks": 128,
          "midi": 88,
          "name": "E6",
          "ticks": 135436,
          "time": 162.7834910625,
          "velocity": 0.6929133858267716
        },
        {
          "duration": 0.15384599999998727,
          "durationTicks": 128,
          "midi": 83,
          "name": "B5",
          "ticks": 135436,
          "time": 162.7834910625,
          "velocity": 0.6929133858267716
        },
        {
          "duration": 0.15384599999998727,
          "durationTicks": 128,
          "midi": 80,
          "name": "G#5",
          "ticks": 135436,
          "time": 162.7834910625,
          "velocity": 0.6929133858267716
        },
        {
          "duration": 0.15384599999998727,
          "durationTicks": 128,
          "midi": 76,
          "name": "E5",
          "ticks": 135436,
          "time": 162.7834910625,
          "velocity": 0.6929133858267716
        },
        {
          "duration": 0.15384599999998727,
          "durationTicks": 128,
          "midi": 88,
          "name": "E6",
          "ticks": 135564,
          "time": 162.93733706249998,
          "velocity": 0.6929133858267716
        },
        {
          "duration": 0.15384599999998727,
          "durationTicks": 128,
          "midi": 83,
          "name": "B5",
          "ticks": 135564,
          "time": 162.93733706249998,
          "velocity": 0.6929133858267716
        },
        {
          "duration": 0.15384599999998727,
          "durationTicks": 128,
          "midi": 80,
          "name": "G#5",
          "ticks": 135564,
          "time": 162.93733706249998,
          "velocity": 0.6929133858267716
        },
        {
          "duration": 0.15384599999998727,
          "durationTicks": 128,
          "midi": 76,
          "name": "E5",
          "ticks": 135564,
          "time": 162.93733706249998,
          "velocity": 0.6929133858267716
        },
        {
          "duration": 0.1538460000000157,
          "durationTicks": 128,
          "midi": 88,
          "name": "E6",
          "ticks": 135692,
          "time": 163.09118306249997,
          "velocity": 0.6929133858267716
        },
        {
          "duration": 0.1538460000000157,
          "durationTicks": 128,
          "midi": 83,
          "name": "B5",
          "ticks": 135692,
          "time": 163.09118306249997,
          "velocity": 0.6929133858267716
        },
        {
          "duration": 0.1538460000000157,
          "durationTicks": 128,
          "midi": 80,
          "name": "G#5",
          "ticks": 135692,
          "time": 163.09118306249997,
          "velocity": 0.6929133858267716
        },
        {
          "duration": 0.1538460000000157,
          "durationTicks": 128,
          "midi": 76,
          "name": "E5",
          "ticks": 135692,
          "time": 163.09118306249997,
          "velocity": 0.6929133858267716
        },
        {
          "duration": 0.15384599999998727,
          "durationTicks": 128,
          "midi": 88,
          "name": "E6",
          "ticks": 135820,
          "time": 163.24502906249998,
          "velocity": 0.6929133858267716
        },
        {
          "duration": 0.15384599999998727,
          "durationTicks": 128,
          "midi": 83,
          "name": "B5",
          "ticks": 135820,
          "time": 163.24502906249998,
          "velocity": 0.6929133858267716
        },
        {
          "duration": 0.15384599999998727,
          "durationTicks": 128,
          "midi": 80,
          "name": "G#5",
          "ticks": 135820,
          "time": 163.24502906249998,
          "velocity": 0.6929133858267716
        },
        {
          "duration": 0.15384599999998727,
          "durationTicks": 128,
          "midi": 76,
          "name": "E5",
          "ticks": 135820,
          "time": 163.24502906249998,
          "velocity": 0.6929133858267716
        },
        {
          "duration": 0.1538460000000157,
          "durationTicks": 128,
          "midi": 88,
          "name": "E6",
          "ticks": 135948,
          "time": 163.39887506249997,
          "velocity": 0.6929133858267716
        },
        {
          "duration": 0.1538460000000157,
          "durationTicks": 128,
          "midi": 83,
          "name": "B5",
          "ticks": 135948,
          "time": 163.39887506249997,
          "velocity": 0.6929133858267716
        },
        {
          "duration": 0.1538460000000157,
          "durationTicks": 128,
          "midi": 80,
          "name": "G#5",
          "ticks": 135948,
          "time": 163.39887506249997,
          "velocity": 0.6929133858267716
        },
        {
          "duration": 0.1538460000000157,
          "durationTicks": 128,
          "midi": 76,
          "name": "E5",
          "ticks": 135948,
          "time": 163.39887506249997,
          "velocity": 0.6929133858267716
        },
        {
          "duration": 0.15384599999998727,
          "durationTicks": 128,
          "midi": 88,
          "name": "E6",
          "ticks": 136076,
          "time": 163.55272106249998,
          "velocity": 0.6929133858267716
        },
        {
          "duration": 0.15384599999998727,
          "durationTicks": 128,
          "midi": 83,
          "name": "B5",
          "ticks": 136076,
          "time": 163.55272106249998,
          "velocity": 0.6929133858267716
        },
        {
          "duration": 0.15384599999998727,
          "durationTicks": 128,
          "midi": 80,
          "name": "G#5",
          "ticks": 136076,
          "time": 163.55272106249998,
          "velocity": 0.6929133858267716
        },
        {
          "duration": 0.15384599999998727,
          "durationTicks": 128,
          "midi": 76,
          "name": "E5",
          "ticks": 136076,
          "time": 163.55272106249998,
          "velocity": 0.6929133858267716
        },
        {
          "duration": 0.1538460000000157,
          "durationTicks": 128,
          "midi": 88,
          "name": "E6",
          "ticks": 136204,
          "time": 163.70656706249997,
          "velocity": 0.6929133858267716
        },
        {
          "duration": 0.1538460000000157,
          "durationTicks": 128,
          "midi": 83,
          "name": "B5",
          "ticks": 136204,
          "time": 163.70656706249997,
          "velocity": 0.6929133858267716
        },
        {
          "duration": 0.1538460000000157,
          "durationTicks": 128,
          "midi": 80,
          "name": "G#5",
          "ticks": 136204,
          "time": 163.70656706249997,
          "velocity": 0.6929133858267716
        },
        {
          "duration": 0.1538460000000157,
          "durationTicks": 128,
          "midi": 76,
          "name": "E5",
          "ticks": 136204,
          "time": 163.70656706249997,
          "velocity": 0.6929133858267716
        },
        {
          "duration": 0.15384599999998727,
          "durationTicks": 128,
          "midi": 88,
          "name": "E6",
          "ticks": 136332,
          "time": 163.8604130625,
          "velocity": 0.6929133858267716
        },
        {
          "duration": 0.15384599999998727,
          "durationTicks": 128,
          "midi": 83,
          "name": "B5",
          "ticks": 136332,
          "time": 163.8604130625,
          "velocity": 0.6929133858267716
        },
        {
          "duration": 0.15384599999998727,
          "durationTicks": 128,
          "midi": 80,
          "name": "G#5",
          "ticks": 136332,
          "time": 163.8604130625,
          "velocity": 0.6929133858267716
        },
        {
          "duration": 0.15384599999998727,
          "durationTicks": 128,
          "midi": 76,
          "name": "E5",
          "ticks": 136332,
          "time": 163.8604130625,
          "velocity": 0.6929133858267716
        },
        {
          "duration": 0.1538460000000157,
          "durationTicks": 128,
          "midi": 88,
          "name": "E6",
          "ticks": 136460,
          "time": 164.01425906249997,
          "velocity": 0.6929133858267716
        },
        {
          "duration": 0.1538460000000157,
          "durationTicks": 128,
          "midi": 83,
          "name": "B5",
          "ticks": 136460,
          "time": 164.01425906249997,
          "velocity": 0.6929133858267716
        },
        {
          "duration": 0.1538460000000157,
          "durationTicks": 128,
          "midi": 80,
          "name": "G#5",
          "ticks": 136460,
          "time": 164.01425906249997,
          "velocity": 0.6929133858267716
        },
        {
          "duration": 0.1538460000000157,
          "durationTicks": 128,
          "midi": 76,
          "name": "E5",
          "ticks": 136460,
          "time": 164.01425906249997,
          "velocity": 0.6929133858267716
        },
        {
          "duration": 0.15384599999998727,
          "durationTicks": 128,
          "midi": 88,
          "name": "E6",
          "ticks": 136588,
          "time": 164.1681050625,
          "velocity": 0.6929133858267716
        },
        {
          "duration": 0.15384599999998727,
          "durationTicks": 128,
          "midi": 83,
          "name": "B5",
          "ticks": 136588,
          "time": 164.1681050625,
          "velocity": 0.6929133858267716
        },
        {
          "duration": 0.15384599999998727,
          "durationTicks": 128,
          "midi": 80,
          "name": "G#5",
          "ticks": 136588,
          "time": 164.1681050625,
          "velocity": 0.6929133858267716
        },
        {
          "duration": 0.15384599999998727,
          "durationTicks": 128,
          "midi": 76,
          "name": "E5",
          "ticks": 136588,
          "time": 164.1681050625,
          "velocity": 0.6929133858267716
        },
        {
          "duration": 0.46153799999999023,
          "durationTicks": 384,
          "midi": 66,
          "name": "F#4",
          "ticks": 139788,
          "time": 168.01425506249998,
          "velocity": 0.6929133858267716
        },
        {
          "duration": 0.46153799999999023,
          "durationTicks": 384,
          "midi": 59,
          "name": "B3",
          "ticks": 139788,
          "time": 168.01425506249998,
          "velocity": 0.6929133858267716
        },
        {
          "duration": 0.46153800000001866,
          "durationTicks": 384,
          "midi": 68,
          "name": "G#4",
          "ticks": 140172,
          "time": 168.47579306249997,
          "velocity": 0.6929133858267716
        },
        {
          "duration": 0.46153800000001866,
          "durationTicks": 384,
          "midi": 59,
          "name": "B3",
          "ticks": 140172,
          "time": 168.47579306249997,
          "velocity": 0.6929133858267716
        },
        {
          "duration": 0.30769199999997454,
          "durationTicks": 256,
          "midi": 59,
          "name": "B3",
          "ticks": 140556,
          "time": 168.9373310625,
          "velocity": 0.6929133858267716
        },
        {
          "duration": 0.30769199999997454,
          "durationTicks": 256,
          "midi": 68,
          "name": "G#4",
          "ticks": 140556,
          "time": 168.9373310625,
          "velocity": 0.6929133858267716
        },
        {
          "duration": 0.30769200000000296,
          "durationTicks": 256,
          "midi": 66,
          "name": "F#4",
          "ticks": 140812,
          "time": 169.24502306249997,
          "velocity": 0.6929133858267716
        },
        {
          "duration": 0.30769200000000296,
          "durationTicks": 256,
          "midi": 59,
          "name": "B3",
          "ticks": 140812,
          "time": 169.24502306249997,
          "velocity": 0.6929133858267716
        },
        {
          "duration": 0.15384599999998727,
          "durationTicks": 128,
          "midi": 66,
          "name": "F#4",
          "ticks": 141196,
          "time": 169.7065610625,
          "velocity": 0.6929133858267716
        },
        {
          "duration": 0.15384599999998727,
          "durationTicks": 128,
          "midi": 59,
          "name": "B3",
          "ticks": 141196,
          "time": 169.7065610625,
          "velocity": 0.6929133858267716
        },
        {
          "duration": 0.30769200000000296,
          "durationTicks": 256,
          "midi": 68,
          "name": "G#4",
          "ticks": 141324,
          "time": 169.86040706249997,
          "velocity": 0.6929133858267716
        },
        {
          "duration": 0.30769200000000296,
          "durationTicks": 256,
          "midi": 59,
          "name": "B3",
          "ticks": 141324,
          "time": 169.86040706249997,
          "velocity": 0.6929133858267716
        },
        {
          "duration": 0.1538460000000157,
          "durationTicks": 128,
          "midi": 59,
          "name": "B3",
          "ticks": 141580,
          "time": 170.16809906249998,
          "velocity": 0.6929133858267716
        },
        {
          "duration": 0.1538460000000157,
          "durationTicks": 128,
          "midi": 66,
          "name": "F#4",
          "ticks": 141580,
          "time": 170.16809906249998,
          "velocity": 0.6929133858267716
        },
        {
          "duration": 0.30769199999997454,
          "durationTicks": 256,
          "midi": 68,
          "name": "G#4",
          "ticks": 141708,
          "time": 170.3219450625,
          "velocity": 0.6929133858267716
        },
        {
          "duration": 0.30769199999997454,
          "durationTicks": 256,
          "midi": 59,
          "name": "B3",
          "ticks": 141708,
          "time": 170.3219450625,
          "velocity": 0.6929133858267716
        },
        {
          "duration": 0.46153799999999023,
          "durationTicks": 384,
          "midi": 71,
          "name": "B4",
          "ticks": 141948,
          "time": 170.61040631249998,
          "velocity": 0.6929133858267716
        },
        {
          "duration": 0.46153799999999023,
          "durationTicks": 384,
          "midi": 66,
          "name": "F#4",
          "ticks": 141948,
          "time": 170.61040631249998,
          "velocity": 0.6929133858267716
        },
        {
          "duration": 0.46153799999999023,
          "durationTicks": 384,
          "midi": 59,
          "name": "B3",
          "ticks": 141948,
          "time": 170.61040631249998,
          "velocity": 0.6929133858267716
        },
        {
          "duration": 0.15384599999998727,
          "durationTicks": 128,
          "midi": 66,
          "name": "F#4",
          "ticks": 142348,
          "time": 171.09117506249999,
          "velocity": 0.6929133858267716
        },
        {
          "duration": 0.15384599999998727,
          "durationTicks": 128,
          "midi": 59,
          "name": "B3",
          "ticks": 142348,
          "time": 171.09117506249999,
          "velocity": 0.6929133858267716
        },
        {
          "duration": 0.30769200000000296,
          "durationTicks": 256,
          "midi": 68,
          "name": "G#4",
          "ticks": 142476,
          "time": 171.24502106249997,
          "velocity": 0.6929133858267716
        },
        {
          "duration": 0.30769200000000296,
          "durationTicks": 256,
          "midi": 59,
          "name": "B3",
          "ticks": 142476,
          "time": 171.24502106249997,
          "velocity": 0.6929133858267716
        },
        {
          "duration": 0.1538460000000157,
          "durationTicks": 128,
          "midi": 66,
          "name": "F#4",
          "ticks": 142732,
          "time": 171.55271306249998,
          "velocity": 0.6929133858267716
        },
        {
          "duration": 0.1538460000000157,
          "durationTicks": 128,
          "midi": 59,
          "name": "B3",
          "ticks": 142732,
          "time": 171.55271306249998,
          "velocity": 0.6929133858267716
        },
        {
          "duration": 0.46153799999999023,
          "durationTicks": 384,
          "midi": 66,
          "name": "F#4",
          "ticks": 142860,
          "time": 171.7065590625,
          "velocity": 0.6929133858267716
        },
        {
          "duration": 0.46153799999999023,
          "durationTicks": 384,
          "midi": 59,
          "name": "B3",
          "ticks": 142860,
          "time": 171.7065590625,
          "velocity": 0.6929133858267716
        },
        {
          "duration": 0.46153799999999023,
          "durationTicks": 384,
          "midi": 68,
          "name": "G#4",
          "ticks": 143244,
          "time": 172.16809706249998,
          "velocity": 0.6929133858267716
        },
        {
          "duration": 0.46153799999999023,
          "durationTicks": 384,
          "midi": 59,
          "name": "B3",
          "ticks": 143244,
          "time": 172.16809706249998,
          "velocity": 0.6929133858267716
        },
        {
          "duration": 0.30769200000000296,
          "durationTicks": 256,
          "midi": 59,
          "name": "B3",
          "ticks": 143628,
          "time": 172.62963506249997,
          "velocity": 0.6929133858267716
        },
        {
          "duration": 0.30769200000000296,
          "durationTicks": 256,
          "midi": 68,
          "name": "G#4",
          "ticks": 143628,
          "time": 172.62963506249997,
          "velocity": 0.6929133858267716
        },
        {
          "duration": 0.30769200000000296,
          "durationTicks": 256,
          "midi": 66,
          "name": "F#4",
          "ticks": 143884,
          "time": 172.93732706249997,
          "velocity": 0.6929133858267716
        },
        {
          "duration": 0.30769200000000296,
          "durationTicks": 256,
          "midi": 59,
          "name": "B3",
          "ticks": 143884,
          "time": 172.93732706249997,
          "velocity": 0.6929133858267716
        },
        {
          "duration": 0.1538460000000157,
          "durationTicks": 128,
          "midi": 66,
          "name": "F#4",
          "ticks": 144268,
          "time": 173.39886506249997,
          "velocity": 0.6929133858267716
        },
        {
          "duration": 0.1538460000000157,
          "durationTicks": 128,
          "midi": 59,
          "name": "B3",
          "ticks": 144268,
          "time": 173.39886506249997,
          "velocity": 0.6929133858267716
        },
        {
          "duration": 0.30769200000000296,
          "durationTicks": 256,
          "midi": 68,
          "name": "G#4",
          "ticks": 144396,
          "time": 173.55271106249998,
          "velocity": 0.6929133858267716
        },
        {
          "duration": 0.30769200000000296,
          "durationTicks": 256,
          "midi": 59,
          "name": "B3",
          "ticks": 144396,
          "time": 173.55271106249998,
          "velocity": 0.6929133858267716
        },
        {
          "duration": 0.15384599999998727,
          "durationTicks": 128,
          "midi": 59,
          "name": "B3",
          "ticks": 144652,
          "time": 173.86040306249998,
          "velocity": 0.6929133858267716
        },
        {
          "duration": 0.15384599999998727,
          "durationTicks": 128,
          "midi": 66,
          "name": "F#4",
          "ticks": 144652,
          "time": 173.86040306249998,
          "velocity": 0.6929133858267716
        },
        {
          "duration": 0.30769200000000296,
          "durationTicks": 256,
          "midi": 68,
          "name": "G#4",
          "ticks": 144780,
          "time": 174.01424906249997,
          "velocity": 0.6929133858267716
        },
        {
          "duration": 0.30769200000000296,
          "durationTicks": 256,
          "midi": 59,
          "name": "B3",
          "ticks": 144780,
          "time": 174.01424906249997,
          "velocity": 0.6929133858267716
        },
        {
          "duration": 0.46153799999999023,
          "durationTicks": 384,
          "midi": 71,
          "name": "B4",
          "ticks": 145020,
          "time": 174.30271031249998,
          "velocity": 0.6929133858267716
        },
        {
          "duration": 0.46153799999999023,
          "durationTicks": 384,
          "midi": 66,
          "name": "F#4",
          "ticks": 145020,
          "time": 174.30271031249998,
          "velocity": 0.6929133858267716
        },
        {
          "duration": 0.46153799999999023,
          "durationTicks": 384,
          "midi": 59,
          "name": "B3",
          "ticks": 145020,
          "time": 174.30271031249998,
          "velocity": 0.6929133858267716
        },
        {
          "duration": 0.1538460000000157,
          "durationTicks": 128,
          "midi": 66,
          "name": "F#4",
          "ticks": 145420,
          "time": 174.78347906249996,
          "velocity": 0.6929133858267716
        },
        {
          "duration": 0.1538460000000157,
          "durationTicks": 128,
          "midi": 59,
          "name": "B3",
          "ticks": 145420,
          "time": 174.78347906249996,
          "velocity": 0.6929133858267716
        },
        {
          "duration": 0.30769200000000296,
          "durationTicks": 256,
          "midi": 68,
          "name": "G#4",
          "ticks": 145548,
          "time": 174.93732506249998,
          "velocity": 0.6929133858267716
        },
        {
          "duration": 0.30769200000000296,
          "durationTicks": 256,
          "midi": 59,
          "name": "B3",
          "ticks": 145548,
          "time": 174.93732506249998,
          "velocity": 0.6929133858267716
        },
        {
          "duration": 0.15384599999998727,
          "durationTicks": 128,
          "midi": 66,
          "name": "F#4",
          "ticks": 145804,
          "time": 175.24501706249998,
          "velocity": 0.6929133858267716
        },
        {
          "duration": 0.15384599999998727,
          "durationTicks": 128,
          "midi": 59,
          "name": "B3",
          "ticks": 145804,
          "time": 175.24501706249998,
          "velocity": 0.6929133858267716
        },
        {
          "duration": 0.46153800000001866,
          "durationTicks": 384,
          "midi": 66,
          "name": "F#4",
          "ticks": 145932,
          "time": 175.39886306249997,
          "velocity": 0.6929133858267716
        },
        {
          "duration": 0.46153800000001866,
          "durationTicks": 384,
          "midi": 59,
          "name": "B3",
          "ticks": 145932,
          "time": 175.39886306249997,
          "velocity": 0.6929133858267716
        },
        {
          "duration": 0.46153799999999023,
          "durationTicks": 384,
          "midi": 68,
          "name": "G#4",
          "ticks": 146316,
          "time": 175.8604010625,
          "velocity": 0.6929133858267716
        },
        {
          "duration": 0.46153799999999023,
          "durationTicks": 384,
          "midi": 59,
          "name": "B3",
          "ticks": 146316,
          "time": 175.8604010625,
          "velocity": 0.6929133858267716
        },
        {
          "duration": 0.30769200000000296,
          "durationTicks": 256,
          "midi": 59,
          "name": "B3",
          "ticks": 146700,
          "time": 176.32193906249998,
          "velocity": 0.6929133858267716
        },
        {
          "duration": 0.30769200000000296,
          "durationTicks": 256,
          "midi": 68,
          "name": "G#4",
          "ticks": 146700,
          "time": 176.32193906249998,
          "velocity": 0.6929133858267716
        },
        {
          "duration": 0.30769200000000296,
          "durationTicks": 256,
          "midi": 66,
          "name": "F#4",
          "ticks": 146956,
          "time": 176.62963106249998,
          "velocity": 0.6929133858267716
        },
        {
          "duration": 0.30769200000000296,
          "durationTicks": 256,
          "midi": 59,
          "name": "B3",
          "ticks": 146956,
          "time": 176.62963106249998,
          "velocity": 0.6929133858267716
        },
        {
          "duration": 0.1538460000000157,
          "durationTicks": 128,
          "midi": 66,
          "name": "F#4",
          "ticks": 147340,
          "time": 177.09116906249997,
          "velocity": 0.6929133858267716
        },
        {
          "duration": 0.1538460000000157,
          "durationTicks": 128,
          "midi": 59,
          "name": "B3",
          "ticks": 147340,
          "time": 177.09116906249997,
          "velocity": 0.6929133858267716
        },
        {
          "duration": 0.30769199999997454,
          "durationTicks": 256,
          "midi": 68,
          "name": "G#4",
          "ticks": 147468,
          "time": 177.2450150625,
          "velocity": 0.6929133858267716
        },
        {
          "duration": 0.30769199999997454,
          "durationTicks": 256,
          "midi": 59,
          "name": "B3",
          "ticks": 147468,
          "time": 177.2450150625,
          "velocity": 0.6929133858267716
        },
        {
          "duration": 0.1538460000000157,
          "durationTicks": 128,
          "midi": 59,
          "name": "B3",
          "ticks": 147724,
          "time": 177.55270706249996,
          "velocity": 0.6929133858267716
        },
        {
          "duration": 0.1538460000000157,
          "durationTicks": 128,
          "midi": 66,
          "name": "F#4",
          "ticks": 147724,
          "time": 177.55270706249996,
          "velocity": 0.6929133858267716
        },
        {
          "duration": 0.30769200000000296,
          "durationTicks": 256,
          "midi": 68,
          "name": "G#4",
          "ticks": 147852,
          "time": 177.70655306249998,
          "velocity": 0.6929133858267716
        },
        {
          "duration": 0.30769200000000296,
          "durationTicks": 256,
          "midi": 59,
          "name": "B3",
          "ticks": 147852,
          "time": 177.70655306249998,
          "velocity": 0.6929133858267716
        },
        {
          "duration": 0.46153800000001866,
          "durationTicks": 384,
          "midi": 71,
          "name": "B4",
          "ticks": 148092,
          "time": 177.99501431249996,
          "velocity": 0.6929133858267716
        },
        {
          "duration": 0.46153800000001866,
          "durationTicks": 384,
          "midi": 66,
          "name": "F#4",
          "ticks": 148092,
          "time": 177.99501431249996,
          "velocity": 0.6929133858267716
        },
        {
          "duration": 0.46153800000001866,
          "durationTicks": 384,
          "midi": 59,
          "name": "B3",
          "ticks": 148092,
          "time": 177.99501431249996,
          "velocity": 0.6929133858267716
        },
        {
          "duration": 0.1538460000000157,
          "durationTicks": 128,
          "midi": 66,
          "name": "F#4",
          "ticks": 148492,
          "time": 178.47578306249997,
          "velocity": 0.6929133858267716
        },
        {
          "duration": 0.1538460000000157,
          "durationTicks": 128,
          "midi": 59,
          "name": "B3",
          "ticks": 148492,
          "time": 178.47578306249997,
          "velocity": 0.6929133858267716
        },
        {
          "duration": 0.30769199999997454,
          "durationTicks": 256,
          "midi": 68,
          "name": "G#4",
          "ticks": 148620,
          "time": 178.6296290625,
          "velocity": 0.6929133858267716
        },
        {
          "duration": 0.30769199999997454,
          "durationTicks": 256,
          "midi": 59,
          "name": "B3",
          "ticks": 148620,
          "time": 178.6296290625,
          "velocity": 0.6929133858267716
        },
        {
          "duration": 0.1538460000000157,
          "durationTicks": 128,
          "midi": 66,
          "name": "F#4",
          "ticks": 148876,
          "time": 178.93732106249996,
          "velocity": 0.6929133858267716
        },
        {
          "duration": 0.1538460000000157,
          "durationTicks": 128,
          "midi": 59,
          "name": "B3",
          "ticks": 148876,
          "time": 178.93732106249996,
          "velocity": 0.6929133858267716
        },
        {
          "duration": 0.46153799999999023,
          "durationTicks": 384,
          "midi": 64,
          "name": "E4",
          "ticks": 149004,
          "time": 179.09116706249998,
          "velocity": 0.6929133858267716
        },
        {
          "duration": 0.46153799999999023,
          "durationTicks": 384,
          "midi": 57,
          "name": "A3",
          "ticks": 149004,
          "time": 179.09116706249998,
          "velocity": 0.6929133858267716
        },
        {
          "duration": 0.46153800000001866,
          "durationTicks": 384,
          "midi": 66,
          "name": "F#4",
          "ticks": 149388,
          "time": 179.55270506249997,
          "velocity": 0.6929133858267716
        },
        {
          "duration": 0.46153800000001866,
          "durationTicks": 384,
          "midi": 57,
          "name": "A3",
          "ticks": 149388,
          "time": 179.55270506249997,
          "velocity": 0.6929133858267716
        },
        {
          "duration": 0.30769199999997454,
          "durationTicks": 256,
          "midi": 57,
          "name": "A3",
          "ticks": 149772,
          "time": 180.0142430625,
          "velocity": 0.6929133858267716
        },
        {
          "duration": 0.30769199999997454,
          "durationTicks": 256,
          "midi": 66,
          "name": "F#4",
          "ticks": 149772,
          "time": 180.0142430625,
          "velocity": 0.6929133858267716
        },
        {
          "duration": 0.3076920000000314,
          "durationTicks": 256,
          "midi": 64,
          "name": "E4",
          "ticks": 150028,
          "time": 180.32193506249996,
          "velocity": 0.6929133858267716
        },
        {
          "duration": 0.3076920000000314,
          "durationTicks": 256,
          "midi": 57,
          "name": "A3",
          "ticks": 150028,
          "time": 180.32193506249996,
          "velocity": 0.6929133858267716
        },
        {
          "duration": 0.15384599999998727,
          "durationTicks": 128,
          "midi": 64,
          "name": "E4",
          "ticks": 150412,
          "time": 180.78347306249998,
          "velocity": 0.6929133858267716
        },
        {
          "duration": 0.15384599999998727,
          "durationTicks": 128,
          "midi": 57,
          "name": "A3",
          "ticks": 150412,
          "time": 180.78347306249998,
          "velocity": 0.6929133858267716
        },
        {
          "duration": 0.30769200000000296,
          "durationTicks": 256,
          "midi": 73,
          "name": "C#5",
          "ticks": 150540,
          "time": 180.93731906249997,
          "velocity": 0.905511811023622
        },
        {
          "duration": 0.30769200000000296,
          "durationTicks": 256,
          "midi": 66,
          "name": "F#4",
          "ticks": 150540,
          "time": 180.93731906249997,
          "velocity": 0.6929133858267716
        },
        {
          "duration": 0.30769200000000296,
          "durationTicks": 256,
          "midi": 57,
          "name": "A3",
          "ticks": 150540,
          "time": 180.93731906249997,
          "velocity": 0.6929133858267716
        },
        {
          "duration": 0.1538460000000157,
          "durationTicks": 128,
          "midi": 76,
          "name": "E5",
          "ticks": 150796,
          "time": 181.24501106249997,
          "velocity": 0.905511811023622
        },
        {
          "duration": 0.1538460000000157,
          "durationTicks": 128,
          "midi": 57,
          "name": "A3",
          "ticks": 150796,
          "time": 181.24501106249997,
          "velocity": 0.6929133858267716
        },
        {
          "duration": 0.1538460000000157,
          "durationTicks": 128,
          "midi": 64,
          "name": "E4",
          "ticks": 150796,
          "time": 181.24501106249997,
          "velocity": 0.6929133858267716
        },
        {
          "duration": 0.30769200000000296,
          "durationTicks": 256,
          "midi": 79,
          "name": "G5",
          "ticks": 150924,
          "time": 181.39885706249999,
          "velocity": 0.905511811023622
        },
        {
          "duration": 0.30769200000000296,
          "durationTicks": 256,
          "midi": 66,
          "name": "F#4",
          "ticks": 150924,
          "time": 181.39885706249999,
          "velocity": 0.6929133858267716
        },
        {
          "duration": 0.30769200000000296,
          "durationTicks": 256,
          "midi": 57,
          "name": "A3",
          "ticks": 150924,
          "time": 181.39885706249999,
          "velocity": 0.6929133858267716
        },
        {
          "duration": 0.6923069999999996,
          "durationTicks": 576,
          "midi": 78,
          "name": "F#5",
          "ticks": 151164,
          "time": 181.68731831249997,
          "velocity": 0.905511811023622
        },
        {
          "duration": 0.46153800000001866,
          "durationTicks": 384,
          "midi": 69,
          "name": "A4",
          "ticks": 151164,
          "time": 181.68731831249997,
          "velocity": 0.6929133858267716
        },
        {
          "duration": 0.46153800000001866,
          "durationTicks": 384,
          "midi": 64,
          "name": "E4",
          "ticks": 151164,
          "time": 181.68731831249997,
          "velocity": 0.6929133858267716
        },
        {
          "duration": 0.46153800000001866,
          "durationTicks": 384,
          "midi": 57,
          "name": "A3",
          "ticks": 151164,
          "time": 181.68731831249997,
          "velocity": 0.6929133858267716
        },
        {
          "duration": 0.15384599999998727,
          "durationTicks": 128,
          "midi": 64,
          "name": "E4",
          "ticks": 151564,
          "time": 182.16808706249998,
          "velocity": 0.6929133858267716
        },
        {
          "duration": 0.15384599999998727,
          "durationTicks": 128,
          "midi": 57,
          "name": "A3",
          "ticks": 151564,
          "time": 182.16808706249998,
          "velocity": 0.6929133858267716
        },
        {
          "duration": 0.30769200000000296,
          "durationTicks": 256,
          "midi": 66,
          "name": "F#4",
          "ticks": 151692,
          "time": 182.32193306249997,
          "velocity": 0.6929133858267716
        },
        {
          "duration": 0.30769200000000296,
          "durationTicks": 256,
          "midi": 57,
          "name": "A3",
          "ticks": 151692,
          "time": 182.32193306249997,
          "velocity": 0.6929133858267716
        },
        {
          "duration": 0.1538460000000157,
          "durationTicks": 128,
          "midi": 64,
          "name": "E4",
          "ticks": 151948,
          "time": 182.62962506249997,
          "velocity": 0.6929133858267716
        },
        {
          "duration": 0.1538460000000157,
          "durationTicks": 128,
          "midi": 57,
          "name": "A3",
          "ticks": 151948,
          "time": 182.62962506249997,
          "velocity": 0.6929133858267716
        },
        {
          "duration": 0.46153799999999023,
          "durationTicks": 384,
          "midi": 64,
          "name": "E4",
          "ticks": 152076,
          "time": 182.78347106249998,
          "velocity": 0.6929133858267716
        },
        {
          "duration": 0.46153799999999023,
          "durationTicks": 384,
          "midi": 57,
          "name": "A3",
          "ticks": 152076,
          "time": 182.78347106249998,
          "velocity": 0.6929133858267716
        },
        {
          "duration": 0.46153799999999023,
          "durationTicks": 384,
          "midi": 66,
          "name": "F#4",
          "ticks": 152460,
          "time": 183.24500906249997,
          "velocity": 0.6929133858267716
        },
        {
          "duration": 0.46153799999999023,
          "durationTicks": 384,
          "midi": 57,
          "name": "A3",
          "ticks": 152460,
          "time": 183.24500906249997,
          "velocity": 0.6929133858267716
        },
        {
          "duration": 0.3076920000000314,
          "durationTicks": 256,
          "midi": 57,
          "name": "A3",
          "ticks": 152844,
          "time": 183.70654706249996,
          "velocity": 0.6929133858267716
        },
        {
          "duration": 0.3076920000000314,
          "durationTicks": 256,
          "midi": 66,
          "name": "F#4",
          "ticks": 152844,
          "time": 183.70654706249996,
          "velocity": 0.6929133858267716
        },
        {
          "duration": 0.30769199999997454,
          "durationTicks": 256,
          "midi": 64,
          "name": "E4",
          "ticks": 153100,
          "time": 184.0142390625,
          "velocity": 0.6929133858267716
        },
        {
          "duration": 0.30769199999997454,
          "durationTicks": 256,
          "midi": 57,
          "name": "A3",
          "ticks": 153100,
          "time": 184.0142390625,
          "velocity": 0.6929133858267716
        },
        {
          "duration": 0.15384599999998727,
          "durationTicks": 128,
          "midi": 64,
          "name": "E4",
          "ticks": 153484,
          "time": 184.4757770625,
          "velocity": 0.6929133858267716
        },
        {
          "duration": 0.15384599999998727,
          "durationTicks": 128,
          "midi": 57,
          "name": "A3",
          "ticks": 153484,
          "time": 184.4757770625,
          "velocity": 0.6929133858267716
        },
        {
          "duration": 0.30769200000000296,
          "durationTicks": 256,
          "midi": 73,
          "name": "C#5",
          "ticks": 153612,
          "time": 184.62962306249997,
          "velocity": 0.905511811023622
        },
        {
          "duration": 0.30769200000000296,
          "durationTicks": 256,
          "midi": 66,
          "name": "F#4",
          "ticks": 153612,
          "time": 184.62962306249997,
          "velocity": 0.6929133858267716
        },
        {
          "duration": 0.30769200000000296,
          "durationTicks": 256,
          "midi": 57,
          "name": "A3",
          "ticks": 153612,
          "time": 184.62962306249997,
          "velocity": 0.6929133858267716
        },
        {
          "duration": 0.15384599999998727,
          "durationTicks": 128,
          "midi": 76,
          "name": "E5",
          "ticks": 153868,
          "time": 184.93731506249998,
          "velocity": 0.905511811023622
        },
        {
          "duration": 0.15384599999998727,
          "durationTicks": 128,
          "midi": 57,
          "name": "A3",
          "ticks": 153868,
          "time": 184.93731506249998,
          "velocity": 0.6929133858267716
        },
        {
          "duration": 0.15384599999998727,
          "durationTicks": 128,
          "midi": 64,
          "name": "E4",
          "ticks": 153868,
          "time": 184.93731506249998,
          "velocity": 0.6929133858267716
        },
        {
          "duration": 0.3076920000000314,
          "durationTicks": 256,
          "midi": 79,
          "name": "G5",
          "ticks": 153996,
          "time": 185.09116106249996,
          "velocity": 0.905511811023622
        },
        {
          "duration": 0.3076920000000314,
          "durationTicks": 256,
          "midi": 66,
          "name": "F#4",
          "ticks": 153996,
          "time": 185.09116106249996,
          "velocity": 0.6929133858267716
        },
        {
          "duration": 0.3076920000000314,
          "durationTicks": 256,
          "midi": 57,
          "name": "A3",
          "ticks": 153996,
          "time": 185.09116106249996,
          "velocity": 0.6929133858267716
        },
        {
          "duration": 0.6923069999999996,
          "durationTicks": 576,
          "midi": 78,
          "name": "F#5",
          "ticks": 154236,
          "time": 185.37962231249998,
          "velocity": 0.905511811023622
        },
        {
          "duration": 0.46153799999999023,
          "durationTicks": 384,
          "midi": 69,
          "name": "A4",
          "ticks": 154236,
          "time": 185.37962231249998,
          "velocity": 0.6929133858267716
        },
        {
          "duration": 0.46153799999999023,
          "durationTicks": 384,
          "midi": 64,
          "name": "E4",
          "ticks": 154236,
          "time": 185.37962231249998,
          "velocity": 0.6929133858267716
        },
        {
          "duration": 0.46153799999999023,
          "durationTicks": 384,
          "midi": 57,
          "name": "A3",
          "ticks": 154236,
          "time": 185.37962231249998,
          "velocity": 0.6929133858267716
        },
        {
          "duration": 0.15384599999998727,
          "durationTicks": 128,
          "midi": 64,
          "name": "E4",
          "ticks": 154636,
          "time": 185.86039106249999,
          "velocity": 0.6929133858267716
        },
        {
          "duration": 0.15384599999998727,
          "durationTicks": 128,
          "midi": 57,
          "name": "A3",
          "ticks": 154636,
          "time": 185.86039106249999,
          "velocity": 0.6929133858267716
        },
        {
          "duration": 0.30769200000000296,
          "durationTicks": 256,
          "midi": 66,
          "name": "F#4",
          "ticks": 154764,
          "time": 186.01423706249997,
          "velocity": 0.6929133858267716
        },
        {
          "duration": 0.30769200000000296,
          "durationTicks": 256,
          "midi": 57,
          "name": "A3",
          "ticks": 154764,
          "time": 186.01423706249997,
          "velocity": 0.6929133858267716
        },
        {
          "duration": 0.15384599999998727,
          "durationTicks": 128,
          "midi": 64,
          "name": "E4",
          "ticks": 155020,
          "time": 186.32192906249998,
          "velocity": 0.6929133858267716
        },
        {
          "duration": 0.15384599999998727,
          "durationTicks": 128,
          "midi": 57,
          "name": "A3",
          "ticks": 155020,
          "time": 186.32192906249998,
          "velocity": 0.6929133858267716
        },
        {
          "duration": 0.23076900000000933,
          "durationTicks": 192,
          "midi": 59,
          "name": "B3",
          "ticks": 155148,
          "time": 186.47577506249996,
          "velocity": 0.6929133858267716
        },
        {
          "duration": 0.23076900000000933,
          "durationTicks": 192,
          "midi": 52,
          "name": "E3",
          "ticks": 155148,
          "time": 186.47577506249996,
          "velocity": 0.6929133858267716
        },
        {
          "duration": 0.23076900000000933,
          "durationTicks": 192,
          "midi": 59,
          "name": "B3",
          "ticks": 155532,
          "time": 186.93731306249998,
          "velocity": 0.6929133858267716
        },
        {
          "duration": 0.23076900000000933,
          "durationTicks": 192,
          "midi": 52,
          "name": "E3",
          "ticks": 155532,
          "time": 186.93731306249998,
          "velocity": 0.6929133858267716
        },
        {
          "duration": 0.346153500000014,
          "durationTicks": 288,
          "midi": 59,
          "name": "B3",
          "ticks": 155916,
          "time": 187.39885106249997,
          "velocity": 0.6929133858267716
        },
        {
          "duration": 0.346153500000014,
          "durationTicks": 288,
          "midi": 52,
          "name": "E3",
          "ticks": 155916,
          "time": 187.39885106249997,
          "velocity": 0.6929133858267716
        },
        {
          "duration": 0.11538449999997624,
          "durationTicks": 96,
          "midi": 67,
          "name": "G4",
          "ticks": 156204,
          "time": 187.7450045625,
          "velocity": 0.6929133858267716
        },
        {
          "duration": 0.11538449999997624,
          "durationTicks": 96,
          "midi": 62,
          "name": "D4",
          "ticks": 156204,
          "time": 187.7450045625,
          "velocity": 0.6929133858267716
        },
        {
          "duration": 0.346153500000014,
          "durationTicks": 288,
          "midi": 69,
          "name": "A4",
          "ticks": 156300,
          "time": 187.86038906249996,
          "velocity": 0.6929133858267716
        },
        {
          "duration": 0.346153500000014,
          "durationTicks": 288,
          "midi": 64,
          "name": "E4",
          "ticks": 156300,
          "time": 187.86038906249996,
          "velocity": 0.6929133858267716
        },
        {
          "duration": 0.11538450000000466,
          "durationTicks": 96,
          "midi": 67,
          "name": "G4",
          "ticks": 156588,
          "time": 188.20654256249998,
          "velocity": 0.6929133858267716
        },
        {
          "duration": 0.11538450000000466,
          "durationTicks": 96,
          "midi": 62,
          "name": "D4",
          "ticks": 156588,
          "time": 188.20654256249998,
          "velocity": 0.6929133858267716
        },
        {
          "duration": 0.23076900000000933,
          "durationTicks": 192,
          "midi": 59,
          "name": "B3",
          "ticks": 156684,
          "time": 188.32192706249998,
          "velocity": 0.6929133858267716
        },
        {
          "duration": 0.23076900000000933,
          "durationTicks": 192,
          "midi": 52,
          "name": "E3",
          "ticks": 156684,
          "time": 188.32192706249998,
          "velocity": 0.6929133858267716
        },
        {
          "duration": 0.23076900000000933,
          "durationTicks": 192,
          "midi": 59,
          "name": "B3",
          "ticks": 157068,
          "time": 188.78346506249997,
          "velocity": 0.6929133858267716
        },
        {
          "duration": 0.23076900000000933,
          "durationTicks": 192,
          "midi": 52,
          "name": "E3",
          "ticks": 157068,
          "time": 188.78346506249997,
          "velocity": 0.6929133858267716
        },
        {
          "duration": 0.346153500000014,
          "durationTicks": 288,
          "midi": 59,
          "name": "B3",
          "ticks": 157452,
          "time": 189.24500306249996,
          "velocity": 0.6929133858267716
        },
        {
          "duration": 0.346153500000014,
          "durationTicks": 288,
          "midi": 52,
          "name": "E3",
          "ticks": 157452,
          "time": 189.24500306249996,
          "velocity": 0.6929133858267716
        },
        {
          "duration": 0.11538450000000466,
          "durationTicks": 96,
          "midi": 67,
          "name": "G4",
          "ticks": 157740,
          "time": 189.59115656249998,
          "velocity": 0.6929133858267716
        },
        {
          "duration": 0.11538450000000466,
          "durationTicks": 96,
          "midi": 62,
          "name": "D4",
          "ticks": 157740,
          "time": 189.59115656249998,
          "velocity": 0.6929133858267716
        },
        {
          "duration": 0.34615349999998557,
          "durationTicks": 288,
          "midi": 69,
          "name": "A4",
          "ticks": 157836,
          "time": 189.70654106249998,
          "velocity": 0.6929133858267716
        },
        {
          "duration": 0.34615349999998557,
          "durationTicks": 288,
          "midi": 64,
          "name": "E4",
          "ticks": 157836,
          "time": 189.70654106249998,
          "velocity": 0.6929133858267716
        },
        {
          "duration": 0.11538450000000466,
          "durationTicks": 96,
          "midi": 67,
          "name": "G4",
          "ticks": 158124,
          "time": 190.05269456249997,
          "velocity": 0.6929133858267716
        },
        {
          "duration": 0.11538450000000466,
          "durationTicks": 96,
          "midi": 62,
          "name": "D4",
          "ticks": 158124,
          "time": 190.05269456249997,
          "velocity": 0.6929133858267716
        },
        {
          "duration": 0.23076900000000933,
          "durationTicks": 192,
          "midi": 59,
          "name": "B3",
          "ticks": 158220,
          "time": 190.16807906249997,
          "velocity": 0.6929133858267716
        },
        {
          "duration": 0.23076900000000933,
          "durationTicks": 192,
          "midi": 52,
          "name": "E3",
          "ticks": 158220,
          "time": 190.16807906249997,
          "velocity": 0.6929133858267716
        },
        {
          "duration": 0.23076900000000933,
          "durationTicks": 192,
          "midi": 59,
          "name": "B3",
          "ticks": 158604,
          "time": 190.62961706249996,
          "velocity": 0.6929133858267716
        },
        {
          "duration": 0.23076900000000933,
          "durationTicks": 192,
          "midi": 52,
          "name": "E3",
          "ticks": 158604,
          "time": 190.62961706249996,
          "velocity": 0.6929133858267716
        },
        {
          "duration": 0.346153500000014,
          "durationTicks": 288,
          "midi": 59,
          "name": "B3",
          "ticks": 158988,
          "time": 191.09115506249998,
          "velocity": 0.6929133858267716
        },
        {
          "duration": 0.346153500000014,
          "durationTicks": 288,
          "midi": 52,
          "name": "E3",
          "ticks": 158988,
          "time": 191.09115506249998,
          "velocity": 0.6929133858267716
        },
        {
          "duration": 0.11538449999997624,
          "durationTicks": 96,
          "midi": 67,
          "name": "G4",
          "ticks": 159276,
          "time": 191.4373085625,
          "velocity": 0.6929133858267716
        },
        {
          "duration": 0.11538449999997624,
          "durationTicks": 96,
          "midi": 62,
          "name": "D4",
          "ticks": 159276,
          "time": 191.4373085625,
          "velocity": 0.6929133858267716
        },
        {
          "duration": 0.346153500000014,
          "durationTicks": 288,
          "midi": 69,
          "name": "A4",
          "ticks": 159372,
          "time": 191.55269306249997,
          "velocity": 0.6929133858267716
        },
        {
          "duration": 0.346153500000014,
          "durationTicks": 288,
          "midi": 64,
          "name": "E4",
          "ticks": 159372,
          "time": 191.55269306249997,
          "velocity": 0.6929133858267716
        },
        {
          "duration": 0.11538449999997624,
          "durationTicks": 96,
          "midi": 67,
          "name": "G4",
          "ticks": 159660,
          "time": 191.89884656249998,
          "velocity": 0.6929133858267716
        },
        {
          "duration": 0.11538449999997624,
          "durationTicks": 96,
          "midi": 62,
          "name": "D4",
          "ticks": 159660,
          "time": 191.89884656249998,
          "velocity": 0.6929133858267716
        },
        {
          "duration": 0.23076900000000933,
          "durationTicks": 192,
          "midi": 59,
          "name": "B3",
          "ticks": 159756,
          "time": 192.01423106249996,
          "velocity": 0.6929133858267716
        },
        {
          "duration": 0.23076900000000933,
          "durationTicks": 192,
          "midi": 52,
          "name": "E3",
          "ticks": 159756,
          "time": 192.01423106249996,
          "velocity": 0.6929133858267716
        },
        {
          "duration": 0.23076900000000933,
          "durationTicks": 192,
          "midi": 59,
          "name": "B3",
          "ticks": 160140,
          "time": 192.47576906249998,
          "velocity": 0.6929133858267716
        },
        {
          "duration": 0.23076900000000933,
          "durationTicks": 192,
          "midi": 52,
          "name": "E3",
          "ticks": 160140,
          "time": 192.47576906249998,
          "velocity": 0.6929133858267716
        },
        {
          "duration": 0.346153500000014,
          "durationTicks": 288,
          "midi": 59,
          "name": "B3",
          "ticks": 160524,
          "time": 192.93730706249997,
          "velocity": 0.6929133858267716
        },
        {
          "duration": 0.346153500000014,
          "durationTicks": 288,
          "midi": 52,
          "name": "E3",
          "ticks": 160524,
          "time": 192.93730706249997,
          "velocity": 0.6929133858267716
        },
        {
          "duration": 0.11538449999997624,
          "durationTicks": 96,
          "midi": 67,
          "name": "G4",
          "ticks": 160812,
          "time": 193.28346056249998,
          "velocity": 0.6929133858267716
        },
        {
          "duration": 0.11538449999997624,
          "durationTicks": 96,
          "midi": 62,
          "name": "D4",
          "ticks": 160812,
          "time": 193.28346056249998,
          "velocity": 0.6929133858267716
        },
        {
          "duration": 0.346153500000014,
          "durationTicks": 288,
          "midi": 69,
          "name": "A4",
          "ticks": 160908,
          "time": 193.39884506249996,
          "velocity": 0.6929133858267716
        },
        {
          "duration": 0.346153500000014,
          "durationTicks": 288,
          "midi": 64,
          "name": "E4",
          "ticks": 160908,
          "time": 193.39884506249996,
          "velocity": 0.6929133858267716
        },
        {
          "duration": 0.11538450000000466,
          "durationTicks": 96,
          "midi": 67,
          "name": "G4",
          "ticks": 161196,
          "time": 193.74499856249997,
          "velocity": 0.6929133858267716
        },
        {
          "duration": 0.11538450000000466,
          "durationTicks": 96,
          "midi": 62,
          "name": "D4",
          "ticks": 161196,
          "time": 193.74499856249997,
          "velocity": 0.6929133858267716
        },
        {
          "duration": 0.23076900000000933,
          "durationTicks": 192,
          "midi": 59,
          "name": "B3",
          "ticks": 161292,
          "time": 193.86038306249998,
          "velocity": 0.6929133858267716
        },
        {
          "duration": 0.23076900000000933,
          "durationTicks": 192,
          "midi": 52,
          "name": "E3",
          "ticks": 161292,
          "time": 193.86038306249998,
          "velocity": 0.6929133858267716
        },
        {
          "duration": 0.23076900000000933,
          "durationTicks": 192,
          "midi": 59,
          "name": "B3",
          "ticks": 161676,
          "time": 194.32192106249997,
          "velocity": 0.6929133858267716
        },
        {
          "duration": 0.23076900000000933,
          "durationTicks": 192,
          "midi": 52,
          "name": "E3",
          "ticks": 161676,
          "time": 194.32192106249997,
          "velocity": 0.6929133858267716
        },
        {
          "duration": 0.346153500000014,
          "durationTicks": 288,
          "midi": 59,
          "name": "B3",
          "ticks": 162060,
          "time": 194.78345906249996,
          "velocity": 0.6929133858267716
        },
        {
          "duration": 0.346153500000014,
          "durationTicks": 288,
          "midi": 52,
          "name": "E3",
          "ticks": 162060,
          "time": 194.78345906249996,
          "velocity": 0.6929133858267716
        },
        {
          "duration": 0.11538450000000466,
          "durationTicks": 96,
          "midi": 67,
          "name": "G4",
          "ticks": 162348,
          "time": 195.12961256249997,
          "velocity": 0.6929133858267716
        },
        {
          "duration": 0.11538450000000466,
          "durationTicks": 96,
          "midi": 62,
          "name": "D4",
          "ticks": 162348,
          "time": 195.12961256249997,
          "velocity": 0.6929133858267716
        },
        {
          "duration": 0.346153500000014,
          "durationTicks": 288,
          "midi": 69,
          "name": "A4",
          "ticks": 162444,
          "time": 195.24499706249998,
          "velocity": 0.6929133858267716
        },
        {
          "duration": 0.346153500000014,
          "durationTicks": 288,
          "midi": 64,
          "name": "E4",
          "ticks": 162444,
          "time": 195.24499706249998,
          "velocity": 0.6929133858267716
        },
        {
          "duration": 0.11538449999997624,
          "durationTicks": 96,
          "midi": 67,
          "name": "G4",
          "ticks": 162732,
          "time": 195.5911505625,
          "velocity": 0.6929133858267716
        },
        {
          "duration": 0.11538449999997624,
          "durationTicks": 96,
          "midi": 62,
          "name": "D4",
          "ticks": 162732,
          "time": 195.5911505625,
          "velocity": 0.6929133858267716
        },
        {
          "duration": 0.23076900000000933,
          "durationTicks": 192,
          "midi": 59,
          "name": "B3",
          "ticks": 162828,
          "time": 195.70653506249997,
          "velocity": 0.6929133858267716
        },
        {
          "duration": 0.23076900000000933,
          "durationTicks": 192,
          "midi": 52,
          "name": "E3",
          "ticks": 162828,
          "time": 195.70653506249997,
          "velocity": 0.6929133858267716
        },
        {
          "duration": 0.2307689999999809,
          "durationTicks": 192,
          "midi": 59,
          "name": "B3",
          "ticks": 163212,
          "time": 196.16807306249999,
          "velocity": 0.6929133858267716
        },
        {
          "duration": 0.2307689999999809,
          "durationTicks": 192,
          "midi": 52,
          "name": "E3",
          "ticks": 163212,
          "time": 196.16807306249999,
          "velocity": 0.6929133858267716
        },
        {
          "duration": 0.346153500000014,
          "durationTicks": 288,
          "midi": 59,
          "name": "B3",
          "ticks": 163596,
          "time": 196.62961106249998,
          "velocity": 0.6929133858267716
        },
        {
          "duration": 0.346153500000014,
          "durationTicks": 288,
          "midi": 52,
          "name": "E3",
          "ticks": 163596,
          "time": 196.62961106249998,
          "velocity": 0.6929133858267716
        },
        {
          "duration": 0.11538450000000466,
          "durationTicks": 96,
          "midi": 67,
          "name": "G4",
          "ticks": 163884,
          "time": 196.9757645625,
          "velocity": 0.6929133858267716
        },
        {
          "duration": 0.11538450000000466,
          "durationTicks": 96,
          "midi": 62,
          "name": "D4",
          "ticks": 163884,
          "time": 196.9757645625,
          "velocity": 0.6929133858267716
        },
        {
          "duration": 0.34615349999998557,
          "durationTicks": 288,
          "midi": 69,
          "name": "A4",
          "ticks": 163980,
          "time": 197.0911490625,
          "velocity": 0.6929133858267716
        },
        {
          "duration": 0.34615349999998557,
          "durationTicks": 288,
          "midi": 64,
          "name": "E4",
          "ticks": 163980,
          "time": 197.0911490625,
          "velocity": 0.6929133858267716
        },
        {
          "duration": 0.11538450000000466,
          "durationTicks": 96,
          "midi": 67,
          "name": "G4",
          "ticks": 164268,
          "time": 197.43730256249998,
          "velocity": 0.6929133858267716
        },
        {
          "duration": 0.11538450000000466,
          "durationTicks": 96,
          "midi": 62,
          "name": "D4",
          "ticks": 164268,
          "time": 197.43730256249998,
          "velocity": 0.6929133858267716
        },
        {
          "duration": 0.23076900000000933,
          "durationTicks": 192,
          "midi": 59,
          "name": "B3",
          "ticks": 164364,
          "time": 197.55268706249998,
          "velocity": 0.6929133858267716
        },
        {
          "duration": 0.23076900000000933,
          "durationTicks": 192,
          "midi": 52,
          "name": "E3",
          "ticks": 164364,
          "time": 197.55268706249998,
          "velocity": 0.6929133858267716
        },
        {
          "duration": 0.23076900000000933,
          "durationTicks": 192,
          "midi": 59,
          "name": "B3",
          "ticks": 164748,
          "time": 198.01422506249997,
          "velocity": 0.6929133858267716
        },
        {
          "duration": 0.23076900000000933,
          "durationTicks": 192,
          "midi": 52,
          "name": "E3",
          "ticks": 164748,
          "time": 198.01422506249997,
          "velocity": 0.6929133858267716
        },
        {
          "duration": 0.34615349999998557,
          "durationTicks": 288,
          "midi": 59,
          "name": "B3",
          "ticks": 165132,
          "time": 198.4757630625,
          "velocity": 0.6929133858267716
        },
        {
          "duration": 0.34615349999998557,
          "durationTicks": 288,
          "midi": 52,
          "name": "E3",
          "ticks": 165132,
          "time": 198.4757630625,
          "velocity": 0.6929133858267716
        },
        {
          "duration": 0.11538450000000466,
          "durationTicks": 96,
          "midi": 67,
          "name": "G4",
          "ticks": 165420,
          "time": 198.82191656249998,
          "velocity": 0.6929133858267716
        },
        {
          "duration": 0.11538450000000466,
          "durationTicks": 96,
          "midi": 62,
          "name": "D4",
          "ticks": 165420,
          "time": 198.82191656249998,
          "velocity": 0.6929133858267716
        },
        {
          "duration": 0.34615349999998557,
          "durationTicks": 288,
          "midi": 69,
          "name": "A4",
          "ticks": 165516,
          "time": 198.93730106249998,
          "velocity": 0.6929133858267716
        },
        {
          "duration": 0.34615349999998557,
          "durationTicks": 288,
          "midi": 64,
          "name": "E4",
          "ticks": 165516,
          "time": 198.93730106249998,
          "velocity": 0.6929133858267716
        },
        {
          "duration": 0.11538450000000466,
          "durationTicks": 96,
          "midi": 67,
          "name": "G4",
          "ticks": 165804,
          "time": 199.28345456249997,
          "velocity": 0.6929133858267716
        },
        {
          "duration": 0.11538450000000466,
          "durationTicks": 96,
          "midi": 62,
          "name": "D4",
          "ticks": 165804,
          "time": 199.28345456249997,
          "velocity": 0.6929133858267716
        },
        {
          "duration": 0.23076900000000933,
          "durationTicks": 192,
          "midi": 59,
          "name": "B3",
          "ticks": 165900,
          "time": 199.39883906249997,
          "velocity": 0.6929133858267716
        },
        {
          "duration": 0.23076900000000933,
          "durationTicks": 192,
          "midi": 52,
          "name": "E3",
          "ticks": 165900,
          "time": 199.39883906249997,
          "velocity": 0.6929133858267716
        },
        {
          "duration": 0.2307689999999809,
          "durationTicks": 192,
          "midi": 59,
          "name": "B3",
          "ticks": 166284,
          "time": 199.8603770625,
          "velocity": 0.6929133858267716
        },
        {
          "duration": 0.2307689999999809,
          "durationTicks": 192,
          "midi": 52,
          "name": "E3",
          "ticks": 166284,
          "time": 199.8603770625,
          "velocity": 0.6929133858267716
        },
        {
          "duration": 0.34615349999998557,
          "durationTicks": 288,
          "midi": 59,
          "name": "B3",
          "ticks": 166668,
          "time": 200.32191506249998,
          "velocity": 0.6929133858267716
        },
        {
          "duration": 0.34615349999998557,
          "durationTicks": 288,
          "midi": 52,
          "name": "E3",
          "ticks": 166668,
          "time": 200.32191506249998,
          "velocity": 0.6929133858267716
        },
        {
          "duration": 0.11538450000000466,
          "durationTicks": 96,
          "midi": 67,
          "name": "G4",
          "ticks": 166956,
          "time": 200.66806856249997,
          "velocity": 0.6929133858267716
        },
        {
          "duration": 0.11538450000000466,
          "durationTicks": 96,
          "midi": 62,
          "name": "D4",
          "ticks": 166956,
          "time": 200.66806856249997,
          "velocity": 0.6929133858267716
        },
        {
          "duration": 0.346153500000014,
          "durationTicks": 288,
          "midi": 69,
          "name": "A4",
          "ticks": 167052,
          "time": 200.78345306249997,
          "velocity": 0.6929133858267716
        },
        {
          "duration": 0.346153500000014,
          "durationTicks": 288,
          "midi": 64,
          "name": "E4",
          "ticks": 167052,
          "time": 200.78345306249997,
          "velocity": 0.6929133858267716
        },
        {
          "duration": 0.11538450000000466,
          "durationTicks": 96,
          "midi": 67,
          "name": "G4",
          "ticks": 167340,
          "time": 201.1296065625,
          "velocity": 0.6929133858267716
        },
        {
          "duration": 0.11538450000000466,
          "durationTicks": 96,
          "midi": 62,
          "name": "D4",
          "ticks": 167340,
          "time": 201.1296065625,
          "velocity": 0.6929133858267716
        },
        {
          "duration": 0.2307689999999809,
          "durationTicks": 192,
          "midi": 59,
          "name": "B3",
          "ticks": 167436,
          "time": 201.2449910625,
          "velocity": 0.6929133858267716
        },
        {
          "duration": 0.2307689999999809,
          "durationTicks": 192,
          "midi": 52,
          "name": "E3",
          "ticks": 167436,
          "time": 201.2449910625,
          "velocity": 0.6929133858267716
        },
        {
          "duration": 0.23076900000000933,
          "durationTicks": 192,
          "midi": 59,
          "name": "B3",
          "ticks": 167820,
          "time": 201.70652906249998,
          "velocity": 0.6929133858267716
        },
        {
          "duration": 0.23076900000000933,
          "durationTicks": 192,
          "midi": 52,
          "name": "E3",
          "ticks": 167820,
          "time": 201.70652906249998,
          "velocity": 0.6929133858267716
        },
        {
          "duration": 0.346153500000014,
          "durationTicks": 288,
          "midi": 59,
          "name": "B3",
          "ticks": 168204,
          "time": 202.16806706249997,
          "velocity": 0.6929133858267716
        },
        {
          "duration": 0.346153500000014,
          "durationTicks": 288,
          "midi": 52,
          "name": "E3",
          "ticks": 168204,
          "time": 202.16806706249997,
          "velocity": 0.6929133858267716
        },
        {
          "duration": 0.11538450000000466,
          "durationTicks": 96,
          "midi": 67,
          "name": "G4",
          "ticks": 168492,
          "time": 202.5142205625,
          "velocity": 0.6929133858267716
        },
        {
          "duration": 0.11538450000000466,
          "durationTicks": 96,
          "midi": 62,
          "name": "D4",
          "ticks": 168492,
          "time": 202.5142205625,
          "velocity": 0.6929133858267716
        },
        {
          "duration": 0.34615349999998557,
          "durationTicks": 288,
          "midi": 69,
          "name": "A4",
          "ticks": 168588,
          "time": 202.6296050625,
          "velocity": 0.6929133858267716
        },
        {
          "duration": 0.34615349999998557,
          "durationTicks": 288,
          "midi": 64,
          "name": "E4",
          "ticks": 168588,
          "time": 202.6296050625,
          "velocity": 0.6929133858267716
        },
        {
          "duration": 0.11538450000000466,
          "durationTicks": 96,
          "midi": 67,
          "name": "G4",
          "ticks": 168876,
          "time": 202.97575856249998,
          "velocity": 0.6929133858267716
        },
        {
          "duration": 0.11538450000000466,
          "durationTicks": 96,
          "midi": 62,
          "name": "D4",
          "ticks": 168876,
          "time": 202.97575856249998,
          "velocity": 0.6929133858267716
        },
        {
          "duration": 0.23076900000000933,
          "durationTicks": 192,
          "midi": 59,
          "name": "B3",
          "ticks": 168972,
          "time": 203.09114306249998,
          "velocity": 0.6929133858267716
        },
        {
          "duration": 0.23076900000000933,
          "durationTicks": 192,
          "midi": 52,
          "name": "E3",
          "ticks": 168972,
          "time": 203.09114306249998,
          "velocity": 0.6929133858267716
        },
        {
          "duration": 0.23076900000000933,
          "durationTicks": 192,
          "midi": 59,
          "name": "B3",
          "ticks": 169356,
          "time": 203.55268106249997,
          "velocity": 0.6929133858267716
        },
        {
          "duration": 0.23076900000000933,
          "durationTicks": 192,
          "midi": 52,
          "name": "E3",
          "ticks": 169356,
          "time": 203.55268106249997,
          "velocity": 0.6929133858267716
        },
        {
          "duration": 0.34615349999998557,
          "durationTicks": 288,
          "midi": 59,
          "name": "B3",
          "ticks": 169740,
          "time": 204.0142190625,
          "velocity": 0.6929133858267716
        },
        {
          "duration": 0.34615349999998557,
          "durationTicks": 288,
          "midi": 52,
          "name": "E3",
          "ticks": 169740,
          "time": 204.0142190625,
          "velocity": 0.6929133858267716
        },
        {
          "duration": 0.11538450000000466,
          "durationTicks": 96,
          "midi": 67,
          "name": "G4",
          "ticks": 170028,
          "time": 204.36037256249998,
          "velocity": 0.6929133858267716
        },
        {
          "duration": 0.11538450000000466,
          "durationTicks": 96,
          "midi": 62,
          "name": "D4",
          "ticks": 170028,
          "time": 204.36037256249998,
          "velocity": 0.6929133858267716
        },
        {
          "duration": 0.34615349999998557,
          "durationTicks": 288,
          "midi": 69,
          "name": "A4",
          "ticks": 170124,
          "time": 204.47575706249998,
          "velocity": 0.6929133858267716
        },
        {
          "duration": 0.34615349999998557,
          "durationTicks": 288,
          "midi": 64,
          "name": "E4",
          "ticks": 170124,
          "time": 204.47575706249998,
          "velocity": 0.6929133858267716
        },
        {
          "duration": 0.11538450000000466,
          "durationTicks": 96,
          "midi": 67,
          "name": "G4",
          "ticks": 170412,
          "time": 204.82191056249997,
          "velocity": 0.6929133858267716
        },
        {
          "duration": 0.11538450000000466,
          "durationTicks": 96,
          "midi": 62,
          "name": "D4",
          "ticks": 170412,
          "time": 204.82191056249997,
          "velocity": 0.6929133858267716
        },
        {
          "duration": 0.23076900000000933,
          "durationTicks": 192,
          "midi": 59,
          "name": "B3",
          "ticks": 170508,
          "time": 204.93729506249997,
          "velocity": 0.6929133858267716
        },
        {
          "duration": 0.23076900000000933,
          "durationTicks": 192,
          "midi": 52,
          "name": "E3",
          "ticks": 170508,
          "time": 204.93729506249997,
          "velocity": 0.6929133858267716
        },
        {
          "duration": 0.2307689999999809,
          "durationTicks": 192,
          "midi": 59,
          "name": "B3",
          "ticks": 170892,
          "time": 205.3988330625,
          "velocity": 0.6929133858267716
        },
        {
          "duration": 0.2307689999999809,
          "durationTicks": 192,
          "midi": 52,
          "name": "E3",
          "ticks": 170892,
          "time": 205.3988330625,
          "velocity": 0.6929133858267716
        },
        {
          "duration": 0.34615349999998557,
          "durationTicks": 288,
          "midi": 59,
          "name": "B3",
          "ticks": 171276,
          "time": 205.86037106249998,
          "velocity": 0.6929133858267716
        },
        {
          "duration": 0.34615349999998557,
          "durationTicks": 288,
          "midi": 52,
          "name": "E3",
          "ticks": 171276,
          "time": 205.86037106249998,
          "velocity": 0.6929133858267716
        },
        {
          "duration": 0.11538450000000466,
          "durationTicks": 96,
          "midi": 67,
          "name": "G4",
          "ticks": 171564,
          "time": 206.20652456249996,
          "velocity": 0.6929133858267716
        },
        {
          "duration": 0.11538450000000466,
          "durationTicks": 96,
          "midi": 62,
          "name": "D4",
          "ticks": 171564,
          "time": 206.20652456249996,
          "velocity": 0.6929133858267716
        },
        {
          "duration": 0.346153500000014,
          "durationTicks": 288,
          "midi": 69,
          "name": "A4",
          "ticks": 171660,
          "time": 206.32190906249997,
          "velocity": 0.6929133858267716
        },
        {
          "duration": 0.346153500000014,
          "durationTicks": 288,
          "midi": 64,
          "name": "E4",
          "ticks": 171660,
          "time": 206.32190906249997,
          "velocity": 0.6929133858267716
        },
        {
          "duration": 0.11538450000000466,
          "durationTicks": 96,
          "midi": 67,
          "name": "G4",
          "ticks": 171948,
          "time": 206.66806256249998,
          "velocity": 0.6929133858267716
        },
        {
          "duration": 0.11538450000000466,
          "durationTicks": 96,
          "midi": 62,
          "name": "D4",
          "ticks": 171948,
          "time": 206.66806256249998,
          "velocity": 0.6929133858267716
        },
        {
          "duration": 0.2307689999999809,
          "durationTicks": 192,
          "midi": 59,
          "name": "B3",
          "ticks": 172044,
          "time": 206.7834470625,
          "velocity": 0.6929133858267716
        },
        {
          "duration": 0.2307689999999809,
          "durationTicks": 192,
          "midi": 52,
          "name": "E3",
          "ticks": 172044,
          "time": 206.7834470625,
          "velocity": 0.6929133858267716
        },
        {
          "duration": 0.23076900000000933,
          "durationTicks": 192,
          "midi": 59,
          "name": "B3",
          "ticks": 172428,
          "time": 207.24498506249998,
          "velocity": 0.6929133858267716
        },
        {
          "duration": 0.23076900000000933,
          "durationTicks": 192,
          "midi": 52,
          "name": "E3",
          "ticks": 172428,
          "time": 207.24498506249998,
          "velocity": 0.6929133858267716
        },
        {
          "duration": 0.346153500000014,
          "durationTicks": 288,
          "midi": 59,
          "name": "B3",
          "ticks": 172812,
          "time": 207.70652306249997,
          "velocity": 0.6929133858267716
        },
        {
          "duration": 0.346153500000014,
          "durationTicks": 288,
          "midi": 52,
          "name": "E3",
          "ticks": 172812,
          "time": 207.70652306249997,
          "velocity": 0.6929133858267716
        },
        {
          "duration": 0.11538450000000466,
          "durationTicks": 96,
          "midi": 67,
          "name": "G4",
          "ticks": 173100,
          "time": 208.05267656249998,
          "velocity": 0.6929133858267716
        },
        {
          "duration": 0.11538450000000466,
          "durationTicks": 96,
          "midi": 62,
          "name": "D4",
          "ticks": 173100,
          "time": 208.05267656249998,
          "velocity": 0.6929133858267716
        },
        {
          "duration": 0.34615349999998557,
          "durationTicks": 288,
          "midi": 69,
          "name": "A4",
          "ticks": 173196,
          "time": 208.1680610625,
          "velocity": 0.6929133858267716
        },
        {
          "duration": 0.34615349999998557,
          "durationTicks": 288,
          "midi": 64,
          "name": "E4",
          "ticks": 173196,
          "time": 208.1680610625,
          "velocity": 0.6929133858267716
        },
        {
          "duration": 0.11538450000000466,
          "durationTicks": 96,
          "midi": 67,
          "name": "G4",
          "ticks": 173484,
          "time": 208.51421456249997,
          "velocity": 0.6929133858267716
        },
        {
          "duration": 0.11538450000000466,
          "durationTicks": 96,
          "midi": 62,
          "name": "D4",
          "ticks": 173484,
          "time": 208.51421456249997,
          "velocity": 0.6929133858267716
        },
        {
          "duration": 0.15384599999998727,
          "durationTicks": 128,
          "midi": 80,
          "name": "G#5",
          "ticks": 173564,
          "time": 208.6103683125,
          "velocity": 0.6929133858267716
        },
        {
          "duration": 0.15384599999998727,
          "durationTicks": 128,
          "midi": 76,
          "name": "E5",
          "ticks": 173564,
          "time": 208.6103683125,
          "velocity": 0.6929133858267716
        },
        {
          "duration": 0.15384599999998727,
          "durationTicks": 128,
          "midi": 71,
          "name": "B4",
          "ticks": 173564,
          "time": 208.6103683125,
          "velocity": 0.6929133858267716
        },
        {
          "duration": 0.15384599999998727,
          "durationTicks": 128,
          "midi": 64,
          "name": "E4",
          "ticks": 173564,
          "time": 208.6103683125,
          "velocity": 0.6929133858267716
        },
        {
          "duration": 0.15384599999998727,
          "durationTicks": 128,
          "midi": 80,
          "name": "G#5",
          "ticks": 173708,
          "time": 208.7834450625,
          "velocity": 0.6929133858267716
        },
        {
          "duration": 0.15384599999998727,
          "durationTicks": 128,
          "midi": 76,
          "name": "E5",
          "ticks": 173708,
          "time": 208.7834450625,
          "velocity": 0.6929133858267716
        },
        {
          "duration": 0.15384599999998727,
          "durationTicks": 128,
          "midi": 71,
          "name": "B4",
          "ticks": 173708,
          "time": 208.7834450625,
          "velocity": 0.6929133858267716
        },
        {
          "duration": 0.15384599999998727,
          "durationTicks": 128,
          "midi": 64,
          "name": "E4",
          "ticks": 173708,
          "time": 208.7834450625,
          "velocity": 0.6929133858267716
        },
        {
          "duration": 0.15384599999998727,
          "durationTicks": 128,
          "midi": 80,
          "name": "G#5",
          "ticks": 173836,
          "time": 208.93729106249998,
          "velocity": 0.6929133858267716
        },
        {
          "duration": 0.15384599999998727,
          "durationTicks": 128,
          "midi": 76,
          "name": "E5",
          "ticks": 173836,
          "time": 208.93729106249998,
          "velocity": 0.6929133858267716
        },
        {
          "duration": 0.15384599999998727,
          "durationTicks": 128,
          "midi": 71,
          "name": "B4",
          "ticks": 173836,
          "time": 208.93729106249998,
          "velocity": 0.6929133858267716
        },
        {
          "duration": 0.15384599999998727,
          "durationTicks": 128,
          "midi": 64,
          "name": "E4",
          "ticks": 173836,
          "time": 208.93729106249998,
          "velocity": 0.6929133858267716
        },
        {
          "duration": 0.1538460000000157,
          "durationTicks": 128,
          "midi": 80,
          "name": "G#5",
          "ticks": 173964,
          "time": 209.09113706249997,
          "velocity": 0.6929133858267716
        },
        {
          "duration": 0.1538460000000157,
          "durationTicks": 128,
          "midi": 76,
          "name": "E5",
          "ticks": 173964,
          "time": 209.09113706249997,
          "velocity": 0.6929133858267716
        },
        {
          "duration": 0.1538460000000157,
          "durationTicks": 128,
          "midi": 71,
          "name": "B4",
          "ticks": 173964,
          "time": 209.09113706249997,
          "velocity": 0.6929133858267716
        },
        {
          "duration": 0.1538460000000157,
          "durationTicks": 128,
          "midi": 64,
          "name": "E4",
          "ticks": 173964,
          "time": 209.09113706249997,
          "velocity": 0.6929133858267716
        },
        {
          "duration": 0.15384599999998727,
          "durationTicks": 128,
          "midi": 80,
          "name": "G#5",
          "ticks": 174092,
          "time": 209.24498306249998,
          "velocity": 0.6929133858267716
        },
        {
          "duration": 0.15384599999998727,
          "durationTicks": 128,
          "midi": 76,
          "name": "E5",
          "ticks": 174092,
          "time": 209.24498306249998,
          "velocity": 0.6929133858267716
        },
        {
          "duration": 0.15384599999998727,
          "durationTicks": 128,
          "midi": 71,
          "name": "B4",
          "ticks": 174092,
          "time": 209.24498306249998,
          "velocity": 0.6929133858267716
        },
        {
          "duration": 0.15384599999998727,
          "durationTicks": 128,
          "midi": 64,
          "name": "E4",
          "ticks": 174092,
          "time": 209.24498306249998,
          "velocity": 0.6929133858267716
        },
        {
          "duration": 0.1538460000000157,
          "durationTicks": 128,
          "midi": 80,
          "name": "G#5",
          "ticks": 174220,
          "time": 209.39882906249997,
          "velocity": 0.6929133858267716
        },
        {
          "duration": 0.1538460000000157,
          "durationTicks": 128,
          "midi": 76,
          "name": "E5",
          "ticks": 174220,
          "time": 209.39882906249997,
          "velocity": 0.6929133858267716
        },
        {
          "duration": 0.1538460000000157,
          "durationTicks": 128,
          "midi": 71,
          "name": "B4",
          "ticks": 174220,
          "time": 209.39882906249997,
          "velocity": 0.6929133858267716
        },
        {
          "duration": 0.1538460000000157,
          "durationTicks": 128,
          "midi": 64,
          "name": "E4",
          "ticks": 174220,
          "time": 209.39882906249997,
          "velocity": 0.6929133858267716
        },
        {
          "duration": 0.15384599999998727,
          "durationTicks": 128,
          "midi": 80,
          "name": "G#5",
          "ticks": 174348,
          "time": 209.5526750625,
          "velocity": 0.6929133858267716
        },
        {
          "duration": 0.15384599999998727,
          "durationTicks": 128,
          "midi": 76,
          "name": "E5",
          "ticks": 174348,
          "time": 209.5526750625,
          "velocity": 0.6929133858267716
        },
        {
          "duration": 0.15384599999998727,
          "durationTicks": 128,
          "midi": 71,
          "name": "B4",
          "ticks": 174348,
          "time": 209.5526750625,
          "velocity": 0.6929133858267716
        },
        {
          "duration": 0.15384599999998727,
          "durationTicks": 128,
          "midi": 64,
          "name": "E4",
          "ticks": 174348,
          "time": 209.5526750625,
          "velocity": 0.6929133858267716
        },
        {
          "duration": 0.1538460000000157,
          "durationTicks": 128,
          "midi": 80,
          "name": "G#5",
          "ticks": 174476,
          "time": 209.70652106249997,
          "velocity": 0.6929133858267716
        },
        {
          "duration": 0.1538460000000157,
          "durationTicks": 128,
          "midi": 76,
          "name": "E5",
          "ticks": 174476,
          "time": 209.70652106249997,
          "velocity": 0.6929133858267716
        },
        {
          "duration": 0.1538460000000157,
          "durationTicks": 128,
          "midi": 71,
          "name": "B4",
          "ticks": 174476,
          "time": 209.70652106249997,
          "velocity": 0.6929133858267716
        },
        {
          "duration": 0.1538460000000157,
          "durationTicks": 128,
          "midi": 64,
          "name": "E4",
          "ticks": 174476,
          "time": 209.70652106249997,
          "velocity": 0.6929133858267716
        },
        {
          "duration": 0.15384599999998727,
          "durationTicks": 128,
          "midi": 80,
          "name": "G#5",
          "ticks": 174604,
          "time": 209.8603670625,
          "velocity": 0.6929133858267716
        },
        {
          "duration": 0.15384599999998727,
          "durationTicks": 128,
          "midi": 76,
          "name": "E5",
          "ticks": 174604,
          "time": 209.8603670625,
          "velocity": 0.6929133858267716
        },
        {
          "duration": 0.15384599999998727,
          "durationTicks": 128,
          "midi": 71,
          "name": "B4",
          "ticks": 174604,
          "time": 209.8603670625,
          "velocity": 0.6929133858267716
        },
        {
          "duration": 0.15384599999998727,
          "durationTicks": 128,
          "midi": 64,
          "name": "E4",
          "ticks": 174604,
          "time": 209.8603670625,
          "velocity": 0.6929133858267716
        },
        {
          "duration": 0.1538460000000157,
          "durationTicks": 128,
          "midi": 80,
          "name": "G#5",
          "ticks": 174732,
          "time": 210.01421306249998,
          "velocity": 0.6929133858267716
        },
        {
          "duration": 0.1538460000000157,
          "durationTicks": 128,
          "midi": 76,
          "name": "E5",
          "ticks": 174732,
          "time": 210.01421306249998,
          "velocity": 0.6929133858267716
        },
        {
          "duration": 0.1538460000000157,
          "durationTicks": 128,
          "midi": 71,
          "name": "B4",
          "ticks": 174732,
          "time": 210.01421306249998,
          "velocity": 0.6929133858267716
        },
        {
          "duration": 0.1538460000000157,
          "durationTicks": 128,
          "midi": 64,
          "name": "E4",
          "ticks": 174732,
          "time": 210.01421306249998,
          "velocity": 0.6929133858267716
        },
        {
          "duration": 0.15384599999998727,
          "durationTicks": 128,
          "midi": 80,
          "name": "G#5",
          "ticks": 174860,
          "time": 210.1680590625,
          "velocity": 0.6929133858267716
        },
        {
          "duration": 0.15384599999998727,
          "durationTicks": 128,
          "midi": 76,
          "name": "E5",
          "ticks": 174860,
          "time": 210.1680590625,
          "velocity": 0.6929133858267716
        },
        {
          "duration": 0.15384599999998727,
          "durationTicks": 128,
          "midi": 71,
          "name": "B4",
          "ticks": 174860,
          "time": 210.1680590625,
          "velocity": 0.6929133858267716
        },
        {
          "duration": 0.15384599999998727,
          "durationTicks": 128,
          "midi": 64,
          "name": "E4",
          "ticks": 174860,
          "time": 210.1680590625,
          "velocity": 0.6929133858267716
        },
        {
          "duration": 0.15384599999998727,
          "durationTicks": 128,
          "midi": 80,
          "name": "G#5",
          "ticks": 174988,
          "time": 210.32190506249998,
          "velocity": 0.6929133858267716
        },
        {
          "duration": 0.15384599999998727,
          "durationTicks": 128,
          "midi": 76,
          "name": "E5",
          "ticks": 174988,
          "time": 210.32190506249998,
          "velocity": 0.6929133858267716
        },
        {
          "duration": 0.15384599999998727,
          "durationTicks": 128,
          "midi": 71,
          "name": "B4",
          "ticks": 174988,
          "time": 210.32190506249998,
          "velocity": 0.6929133858267716
        },
        {
          "duration": 0.15384599999998727,
          "durationTicks": 128,
          "midi": 64,
          "name": "E4",
          "ticks": 174988,
          "time": 210.32190506249998,
          "velocity": 0.6929133858267716
        },
        {
          "duration": 0.1538460000000157,
          "durationTicks": 128,
          "midi": 80,
          "name": "G#5",
          "ticks": 175116,
          "time": 210.47575106249997,
          "velocity": 0.6929133858267716
        },
        {
          "duration": 0.1538460000000157,
          "durationTicks": 128,
          "midi": 76,
          "name": "E5",
          "ticks": 175116,
          "time": 210.47575106249997,
          "velocity": 0.6929133858267716
        },
        {
          "duration": 0.1538460000000157,
          "durationTicks": 128,
          "midi": 71,
          "name": "B4",
          "ticks": 175116,
          "time": 210.47575106249997,
          "velocity": 0.6929133858267716
        },
        {
          "duration": 0.1538460000000157,
          "durationTicks": 128,
          "midi": 64,
          "name": "E4",
          "ticks": 175116,
          "time": 210.47575106249997,
          "velocity": 0.6929133858267716
        },
        {
          "duration": 0.15384599999998727,
          "durationTicks": 128,
          "midi": 80,
          "name": "G#5",
          "ticks": 175244,
          "time": 210.62959706249998,
          "velocity": 0.6929133858267716
        },
        {
          "duration": 0.15384599999998727,
          "durationTicks": 128,
          "midi": 76,
          "name": "E5",
          "ticks": 175244,
          "time": 210.62959706249998,
          "velocity": 0.6929133858267716
        },
        {
          "duration": 0.15384599999998727,
          "durationTicks": 128,
          "midi": 71,
          "name": "B4",
          "ticks": 175244,
          "time": 210.62959706249998,
          "velocity": 0.6929133858267716
        },
        {
          "duration": 0.15384599999998727,
          "durationTicks": 128,
          "midi": 64,
          "name": "E4",
          "ticks": 175244,
          "time": 210.62959706249998,
          "velocity": 0.6929133858267716
        },
        {
          "duration": 0.1538460000000157,
          "durationTicks": 128,
          "midi": 80,
          "name": "G#5",
          "ticks": 175372,
          "time": 210.78344306249997,
          "velocity": 0.6929133858267716
        },
        {
          "duration": 0.1538460000000157,
          "durationTicks": 128,
          "midi": 76,
          "name": "E5",
          "ticks": 175372,
          "time": 210.78344306249997,
          "velocity": 0.6929133858267716
        },
        {
          "duration": 0.1538460000000157,
          "durationTicks": 128,
          "midi": 71,
          "name": "B4",
          "ticks": 175372,
          "time": 210.78344306249997,
          "velocity": 0.6929133858267716
        },
        {
          "duration": 0.1538460000000157,
          "durationTicks": 128,
          "midi": 64,
          "name": "E4",
          "ticks": 175372,
          "time": 210.78344306249997,
          "velocity": 0.6929133858267716
        },
        {
          "duration": 0.15384599999998727,
          "durationTicks": 128,
          "midi": 80,
          "name": "G#5",
          "ticks": 175500,
          "time": 210.93728906249999,
          "velocity": 0.6929133858267716
        },
        {
          "duration": 0.15384599999998727,
          "durationTicks": 128,
          "midi": 76,
          "name": "E5",
          "ticks": 175500,
          "time": 210.93728906249999,
          "velocity": 0.6929133858267716
        },
        {
          "duration": 0.15384599999998727,
          "durationTicks": 128,
          "midi": 71,
          "name": "B4",
          "ticks": 175500,
          "time": 210.93728906249999,
          "velocity": 0.6929133858267716
        },
        {
          "duration": 0.15384599999998727,
          "durationTicks": 128,
          "midi": 64,
          "name": "E4",
          "ticks": 175500,
          "time": 210.93728906249999,
          "velocity": 0.6929133858267716
        },
        {
          "duration": 0.1538460000000157,
          "durationTicks": 128,
          "midi": 80,
          "name": "G#5",
          "ticks": 175628,
          "time": 211.09113506249997,
          "velocity": 0.6929133858267716
        },
        {
          "duration": 0.1538460000000157,
          "durationTicks": 128,
          "midi": 76,
          "name": "E5",
          "ticks": 175628,
          "time": 211.09113506249997,
          "velocity": 0.6929133858267716
        },
        {
          "duration": 0.1538460000000157,
          "durationTicks": 128,
          "midi": 71,
          "name": "B4",
          "ticks": 175628,
          "time": 211.09113506249997,
          "velocity": 0.6929133858267716
        },
        {
          "duration": 0.1538460000000157,
          "durationTicks": 128,
          "midi": 64,
          "name": "E4",
          "ticks": 175628,
          "time": 211.09113506249997,
          "velocity": 0.6929133858267716
        },
        {
          "duration": 0.15384599999998727,
          "durationTicks": 128,
          "midi": 80,
          "name": "G#5",
          "ticks": 175756,
          "time": 211.2449810625,
          "velocity": 0.6929133858267716
        },
        {
          "duration": 0.15384599999998727,
          "durationTicks": 128,
          "midi": 76,
          "name": "E5",
          "ticks": 175756,
          "time": 211.2449810625,
          "velocity": 0.6929133858267716
        },
        {
          "duration": 0.15384599999998727,
          "durationTicks": 128,
          "midi": 71,
          "name": "B4",
          "ticks": 175756,
          "time": 211.2449810625,
          "velocity": 0.6929133858267716
        },
        {
          "duration": 0.15384599999998727,
          "durationTicks": 128,
          "midi": 64,
          "name": "E4",
          "ticks": 175756,
          "time": 211.2449810625,
          "velocity": 0.6929133858267716
        },
        {
          "duration": 0.1538460000000157,
          "durationTicks": 128,
          "midi": 80,
          "name": "G#5",
          "ticks": 175884,
          "time": 211.39882706249998,
          "velocity": 0.6929133858267716
        },
        {
          "duration": 0.1538460000000157,
          "durationTicks": 128,
          "midi": 76,
          "name": "E5",
          "ticks": 175884,
          "time": 211.39882706249998,
          "velocity": 0.6929133858267716
        },
        {
          "duration": 0.1538460000000157,
          "durationTicks": 128,
          "midi": 71,
          "name": "B4",
          "ticks": 175884,
          "time": 211.39882706249998,
          "velocity": 0.6929133858267716
        },
        {
          "duration": 0.1538460000000157,
          "durationTicks": 128,
          "midi": 64,
          "name": "E4",
          "ticks": 175884,
          "time": 211.39882706249998,
          "velocity": 0.6929133858267716
        },
        {
          "duration": 0.15384599999998727,
          "durationTicks": 128,
          "midi": 80,
          "name": "G#5",
          "ticks": 176012,
          "time": 211.5526730625,
          "velocity": 0.6929133858267716
        },
        {
          "duration": 0.15384599999998727,
          "durationTicks": 128,
          "midi": 76,
          "name": "E5",
          "ticks": 176012,
          "time": 211.5526730625,
          "velocity": 0.6929133858267716
        },
        {
          "duration": 0.15384599999998727,
          "durationTicks": 128,
          "midi": 71,
          "name": "B4",
          "ticks": 176012,
          "time": 211.5526730625,
          "velocity": 0.6929133858267716
        },
        {
          "duration": 0.15384599999998727,
          "durationTicks": 128,
          "midi": 64,
          "name": "E4",
          "ticks": 176012,
          "time": 211.5526730625,
          "velocity": 0.6929133858267716
        },
        {
          "duration": 0.15384599999998727,
          "durationTicks": 128,
          "midi": 80,
          "name": "G#5",
          "ticks": 176140,
          "time": 211.70651906249998,
          "velocity": 0.6929133858267716
        },
        {
          "duration": 0.15384599999998727,
          "durationTicks": 128,
          "midi": 76,
          "name": "E5",
          "ticks": 176140,
          "time": 211.70651906249998,
          "velocity": 0.6929133858267716
        },
        {
          "duration": 0.15384599999998727,
          "durationTicks": 128,
          "midi": 71,
          "name": "B4",
          "ticks": 176140,
          "time": 211.70651906249998,
          "velocity": 0.6929133858267716
        },
        {
          "duration": 0.15384599999998727,
          "durationTicks": 128,
          "midi": 64,
          "name": "E4",
          "ticks": 176140,
          "time": 211.70651906249998,
          "velocity": 0.6929133858267716
        },
        {
          "duration": 0.1538460000000157,
          "durationTicks": 128,
          "midi": 80,
          "name": "G#5",
          "ticks": 176268,
          "time": 211.86036506249997,
          "velocity": 0.6929133858267716
        },
        {
          "duration": 0.1538460000000157,
          "durationTicks": 128,
          "midi": 76,
          "name": "E5",
          "ticks": 176268,
          "time": 211.86036506249997,
          "velocity": 0.6929133858267716
        },
        {
          "duration": 0.1538460000000157,
          "durationTicks": 128,
          "midi": 71,
          "name": "B4",
          "ticks": 176268,
          "time": 211.86036506249997,
          "velocity": 0.6929133858267716
        },
        {
          "duration": 0.1538460000000157,
          "durationTicks": 128,
          "midi": 64,
          "name": "E4",
          "ticks": 176268,
          "time": 211.86036506249997,
          "velocity": 0.6929133858267716
        },
        {
          "duration": 0.15384599999998727,
          "durationTicks": 128,
          "midi": 80,
          "name": "G#5",
          "ticks": 176396,
          "time": 212.01421106249998,
          "velocity": 0.6929133858267716
        },
        {
          "duration": 0.15384599999998727,
          "durationTicks": 128,
          "midi": 76,
          "name": "E5",
          "ticks": 176396,
          "time": 212.01421106249998,
          "velocity": 0.6929133858267716
        },
        {
          "duration": 0.15384599999998727,
          "durationTicks": 128,
          "midi": 71,
          "name": "B4",
          "ticks": 176396,
          "time": 212.01421106249998,
          "velocity": 0.6929133858267716
        },
        {
          "duration": 0.15384599999998727,
          "durationTicks": 128,
          "midi": 64,
          "name": "E4",
          "ticks": 176396,
          "time": 212.01421106249998,
          "velocity": 0.6929133858267716
        },
        {
          "duration": 0.1538460000000157,
          "durationTicks": 128,
          "midi": 80,
          "name": "G#5",
          "ticks": 176524,
          "time": 212.16805706249997,
          "velocity": 0.6929133858267716
        },
        {
          "duration": 0.1538460000000157,
          "durationTicks": 128,
          "midi": 76,
          "name": "E5",
          "ticks": 176524,
          "time": 212.16805706249997,
          "velocity": 0.6929133858267716
        },
        {
          "duration": 0.1538460000000157,
          "durationTicks": 128,
          "midi": 71,
          "name": "B4",
          "ticks": 176524,
          "time": 212.16805706249997,
          "velocity": 0.6929133858267716
        },
        {
          "duration": 0.1538460000000157,
          "durationTicks": 128,
          "midi": 64,
          "name": "E4",
          "ticks": 176524,
          "time": 212.16805706249997,
          "velocity": 0.6929133858267716
        },
        {
          "duration": 0.15384599999998727,
          "durationTicks": 128,
          "midi": 88,
          "name": "E6",
          "ticks": 176652,
          "time": 212.32190306249998,
          "velocity": 0.6929133858267716
        },
        {
          "duration": 0.15384599999998727,
          "durationTicks": 128,
          "midi": 83,
          "name": "B5",
          "ticks": 176652,
          "time": 212.32190306249998,
          "velocity": 0.6929133858267716
        },
        {
          "duration": 0.15384599999998727,
          "durationTicks": 128,
          "midi": 80,
          "name": "G#5",
          "ticks": 176652,
          "time": 212.32190306249998,
          "velocity": 0.6929133858267716
        },
        {
          "duration": 0.15384599999998727,
          "durationTicks": 128,
          "midi": 76,
          "name": "E5",
          "ticks": 176652,
          "time": 212.32190306249998,
          "velocity": 0.6929133858267716
        },
        {
          "duration": 0.1538460000000157,
          "durationTicks": 128,
          "midi": 88,
          "name": "E6",
          "ticks": 176780,
          "time": 212.47574906249997,
          "velocity": 0.6929133858267716
        },
        {
          "duration": 0.1538460000000157,
          "durationTicks": 128,
          "midi": 83,
          "name": "B5",
          "ticks": 176780,
          "time": 212.47574906249997,
          "velocity": 0.6929133858267716
        },
        {
          "duration": 0.1538460000000157,
          "durationTicks": 128,
          "midi": 80,
          "name": "G#5",
          "ticks": 176780,
          "time": 212.47574906249997,
          "velocity": 0.6929133858267716
        },
        {
          "duration": 0.1538460000000157,
          "durationTicks": 128,
          "midi": 76,
          "name": "E5",
          "ticks": 176780,
          "time": 212.47574906249997,
          "velocity": 0.6929133858267716
        },
        {
          "duration": 0.15384599999998727,
          "durationTicks": 128,
          "midi": 88,
          "name": "E6",
          "ticks": 176908,
          "time": 212.6295950625,
          "velocity": 0.6929133858267716
        },
        {
          "duration": 0.15384599999998727,
          "durationTicks": 128,
          "midi": 83,
          "name": "B5",
          "ticks": 176908,
          "time": 212.6295950625,
          "velocity": 0.6929133858267716
        },
        {
          "duration": 0.15384599999998727,
          "durationTicks": 128,
          "midi": 80,
          "name": "G#5",
          "ticks": 176908,
          "time": 212.6295950625,
          "velocity": 0.6929133858267716
        },
        {
          "duration": 0.15384599999998727,
          "durationTicks": 128,
          "midi": 76,
          "name": "E5",
          "ticks": 176908,
          "time": 212.6295950625,
          "velocity": 0.6929133858267716
        },
        {
          "duration": 0.1538460000000157,
          "durationTicks": 128,
          "midi": 88,
          "name": "E6",
          "ticks": 177036,
          "time": 212.78344106249997,
          "velocity": 0.6929133858267716
        },
        {
          "duration": 0.1538460000000157,
          "durationTicks": 128,
          "midi": 83,
          "name": "B5",
          "ticks": 177036,
          "time": 212.78344106249997,
          "velocity": 0.6929133858267716
        },
        {
          "duration": 0.1538460000000157,
          "durationTicks": 128,
          "midi": 80,
          "name": "G#5",
          "ticks": 177036,
          "time": 212.78344106249997,
          "velocity": 0.6929133858267716
        },
        {
          "duration": 0.1538460000000157,
          "durationTicks": 128,
          "midi": 76,
          "name": "E5",
          "ticks": 177036,
          "time": 212.78344106249997,
          "velocity": 0.6929133858267716
        },
        {
          "duration": 0.15384599999998727,
          "durationTicks": 128,
          "midi": 88,
          "name": "E6",
          "ticks": 177164,
          "time": 212.9372870625,
          "velocity": 0.6929133858267716
        },
        {
          "duration": 0.15384599999998727,
          "durationTicks": 128,
          "midi": 83,
          "name": "B5",
          "ticks": 177164,
          "time": 212.9372870625,
          "velocity": 0.6929133858267716
        },
        {
          "duration": 0.15384599999998727,
          "durationTicks": 128,
          "midi": 80,
          "name": "G#5",
          "ticks": 177164,
          "time": 212.9372870625,
          "velocity": 0.6929133858267716
        },
        {
          "duration": 0.15384599999998727,
          "durationTicks": 128,
          "midi": 76,
          "name": "E5",
          "ticks": 177164,
          "time": 212.9372870625,
          "velocity": 0.6929133858267716
        },
        {
          "duration": 0.15384599999998727,
          "durationTicks": 128,
          "midi": 88,
          "name": "E6",
          "ticks": 177292,
          "time": 213.09113306249998,
          "velocity": 0.6929133858267716
        },
        {
          "duration": 0.15384599999998727,
          "durationTicks": 128,
          "midi": 83,
          "name": "B5",
          "ticks": 177292,
          "time": 213.09113306249998,
          "velocity": 0.6929133858267716
        },
        {
          "duration": 0.15384599999998727,
          "durationTicks": 128,
          "midi": 80,
          "name": "G#5",
          "ticks": 177292,
          "time": 213.09113306249998,
          "velocity": 0.6929133858267716
        },
        {
          "duration": 0.15384599999998727,
          "durationTicks": 128,
          "midi": 76,
          "name": "E5",
          "ticks": 177292,
          "time": 213.09113306249998,
          "velocity": 0.6929133858267716
        },
        {
          "duration": 0.1538460000000157,
          "durationTicks": 128,
          "midi": 88,
          "name": "E6",
          "ticks": 177420,
          "time": 213.24497906249997,
          "velocity": 0.6929133858267716
        },
        {
          "duration": 0.1538460000000157,
          "durationTicks": 128,
          "midi": 83,
          "name": "B5",
          "ticks": 177420,
          "time": 213.24497906249997,
          "velocity": 0.6929133858267716
        },
        {
          "duration": 0.1538460000000157,
          "durationTicks": 128,
          "midi": 80,
          "name": "G#5",
          "ticks": 177420,
          "time": 213.24497906249997,
          "velocity": 0.6929133858267716
        },
        {
          "duration": 0.1538460000000157,
          "durationTicks": 128,
          "midi": 76,
          "name": "E5",
          "ticks": 177420,
          "time": 213.24497906249997,
          "velocity": 0.6929133858267716
        },
        {
          "duration": 0.15384599999998727,
          "durationTicks": 128,
          "midi": 88,
          "name": "E6",
          "ticks": 177548,
          "time": 213.39882506249998,
          "velocity": 0.6929133858267716
        },
        {
          "duration": 0.15384599999998727,
          "durationTicks": 128,
          "midi": 83,
          "name": "B5",
          "ticks": 177548,
          "time": 213.39882506249998,
          "velocity": 0.6929133858267716
        },
        {
          "duration": 0.15384599999998727,
          "durationTicks": 128,
          "midi": 80,
          "name": "G#5",
          "ticks": 177548,
          "time": 213.39882506249998,
          "velocity": 0.6929133858267716
        },
        {
          "duration": 0.15384599999998727,
          "durationTicks": 128,
          "midi": 76,
          "name": "E5",
          "ticks": 177548,
          "time": 213.39882506249998,
          "velocity": 0.6929133858267716
        },
        {
          "duration": 0.1538460000000157,
          "durationTicks": 128,
          "midi": 88,
          "name": "E6",
          "ticks": 177676,
          "time": 213.55267106249997,
          "velocity": 0.6929133858267716
        },
        {
          "duration": 0.1538460000000157,
          "durationTicks": 128,
          "midi": 83,
          "name": "B5",
          "ticks": 177676,
          "time": 213.55267106249997,
          "velocity": 0.6929133858267716
        },
        {
          "duration": 0.1538460000000157,
          "durationTicks": 128,
          "midi": 80,
          "name": "G#5",
          "ticks": 177676,
          "time": 213.55267106249997,
          "velocity": 0.6929133858267716
        },
        {
          "duration": 0.1538460000000157,
          "durationTicks": 128,
          "midi": 76,
          "name": "E5",
          "ticks": 177676,
          "time": 213.55267106249997,
          "velocity": 0.6929133858267716
        },
        {
          "duration": 0.15384599999998727,
          "durationTicks": 128,
          "midi": 88,
          "name": "E6",
          "ticks": 177804,
          "time": 213.70651706249998,
          "velocity": 0.6929133858267716
        },
        {
          "duration": 0.15384599999998727,
          "durationTicks": 128,
          "midi": 83,
          "name": "B5",
          "ticks": 177804,
          "time": 213.70651706249998,
          "velocity": 0.6929133858267716
        },
        {
          "duration": 0.15384599999998727,
          "durationTicks": 128,
          "midi": 80,
          "name": "G#5",
          "ticks": 177804,
          "time": 213.70651706249998,
          "velocity": 0.6929133858267716
        },
        {
          "duration": 0.15384599999998727,
          "durationTicks": 128,
          "midi": 76,
          "name": "E5",
          "ticks": 177804,
          "time": 213.70651706249998,
          "velocity": 0.6929133858267716
        },
        {
          "duration": 0.1538460000000157,
          "durationTicks": 128,
          "midi": 88,
          "name": "E6",
          "ticks": 177932,
          "time": 213.86036306249997,
          "velocity": 0.6929133858267716
        },
        {
          "duration": 0.1538460000000157,
          "durationTicks": 128,
          "midi": 83,
          "name": "B5",
          "ticks": 177932,
          "time": 213.86036306249997,
          "velocity": 0.6929133858267716
        },
        {
          "duration": 0.1538460000000157,
          "durationTicks": 128,
          "midi": 80,
          "name": "G#5",
          "ticks": 177932,
          "time": 213.86036306249997,
          "velocity": 0.6929133858267716
        },
        {
          "duration": 0.1538460000000157,
          "durationTicks": 128,
          "midi": 76,
          "name": "E5",
          "ticks": 177932,
          "time": 213.86036306249997,
          "velocity": 0.6929133858267716
        },
        {
          "duration": 0.15384599999998727,
          "durationTicks": 128,
          "midi": 88,
          "name": "E6",
          "ticks": 178060,
          "time": 214.0142090625,
          "velocity": 0.6929133858267716
        },
        {
          "duration": 0.15384599999998727,
          "durationTicks": 128,
          "midi": 83,
          "name": "B5",
          "ticks": 178060,
          "time": 214.0142090625,
          "velocity": 0.6929133858267716
        },
        {
          "duration": 0.15384599999998727,
          "durationTicks": 128,
          "midi": 80,
          "name": "G#5",
          "ticks": 178060,
          "time": 214.0142090625,
          "velocity": 0.6929133858267716
        },
        {
          "duration": 0.15384599999998727,
          "durationTicks": 128,
          "midi": 76,
          "name": "E5",
          "ticks": 178060,
          "time": 214.0142090625,
          "velocity": 0.6929133858267716
        },
        {
          "duration": 0.1538460000000157,
          "durationTicks": 128,
          "midi": 88,
          "name": "E6",
          "ticks": 178188,
          "time": 214.16805506249997,
          "velocity": 0.6929133858267716
        },
        {
          "duration": 0.1538460000000157,
          "durationTicks": 128,
          "midi": 83,
          "name": "B5",
          "ticks": 178188,
          "time": 214.16805506249997,
          "velocity": 0.6929133858267716
        },
        {
          "duration": 0.1538460000000157,
          "durationTicks": 128,
          "midi": 80,
          "name": "G#5",
          "ticks": 178188,
          "time": 214.16805506249997,
          "velocity": 0.6929133858267716
        },
        {
          "duration": 0.1538460000000157,
          "durationTicks": 128,
          "midi": 76,
          "name": "E5",
          "ticks": 178188,
          "time": 214.16805506249997,
          "velocity": 0.6929133858267716
        },
        {
          "duration": 0.15384599999998727,
          "durationTicks": 128,
          "midi": 88,
          "name": "E6",
          "ticks": 178316,
          "time": 214.3219010625,
          "velocity": 0.6929133858267716
        },
        {
          "duration": 0.15384599999998727,
          "durationTicks": 128,
          "midi": 83,
          "name": "B5",
          "ticks": 178316,
          "time": 214.3219010625,
          "velocity": 0.6929133858267716
        },
        {
          "duration": 0.15384599999998727,
          "durationTicks": 128,
          "midi": 80,
          "name": "G#5",
          "ticks": 178316,
          "time": 214.3219010625,
          "velocity": 0.6929133858267716
        },
        {
          "duration": 0.15384599999998727,
          "durationTicks": 128,
          "midi": 76,
          "name": "E5",
          "ticks": 178316,
          "time": 214.3219010625,
          "velocity": 0.6929133858267716
        },
        {
          "duration": 0.15384599999998727,
          "durationTicks": 128,
          "midi": 88,
          "name": "E6",
          "ticks": 178444,
          "time": 214.47574706249998,
          "velocity": 0.6929133858267716
        },
        {
          "duration": 0.15384599999998727,
          "durationTicks": 128,
          "midi": 83,
          "name": "B5",
          "ticks": 178444,
          "time": 214.47574706249998,
          "velocity": 0.6929133858267716
        },
        {
          "duration": 0.15384599999998727,
          "durationTicks": 128,
          "midi": 80,
          "name": "G#5",
          "ticks": 178444,
          "time": 214.47574706249998,
          "velocity": 0.6929133858267716
        },
        {
          "duration": 0.15384599999998727,
          "durationTicks": 128,
          "midi": 76,
          "name": "E5",
          "ticks": 178444,
          "time": 214.47574706249998,
          "velocity": 0.6929133858267716
        },
        {
          "duration": 0.1538460000000157,
          "durationTicks": 128,
          "midi": 88,
          "name": "E6",
          "ticks": 178572,
          "time": 214.62959306249996,
          "velocity": 0.6929133858267716
        },
        {
          "duration": 0.1538460000000157,
          "durationTicks": 128,
          "midi": 83,
          "name": "B5",
          "ticks": 178572,
          "time": 214.62959306249996,
          "velocity": 0.6929133858267716
        },
        {
          "duration": 0.1538460000000157,
          "durationTicks": 128,
          "midi": 80,
          "name": "G#5",
          "ticks": 178572,
          "time": 214.62959306249996,
          "velocity": 0.6929133858267716
        },
        {
          "duration": 0.1538460000000157,
          "durationTicks": 128,
          "midi": 76,
          "name": "E5",
          "ticks": 178572,
          "time": 214.62959306249996,
          "velocity": 0.6929133858267716
        },
        {
          "duration": 0.15384599999998727,
          "durationTicks": 128,
          "midi": 88,
          "name": "E6",
          "ticks": 178700,
          "time": 214.78343906249998,
          "velocity": 0.6929133858267716
        },
        {
          "duration": 0.15384599999998727,
          "durationTicks": 128,
          "midi": 83,
          "name": "B5",
          "ticks": 178700,
          "time": 214.78343906249998,
          "velocity": 0.6929133858267716
        },
        {
          "duration": 0.15384599999998727,
          "durationTicks": 128,
          "midi": 80,
          "name": "G#5",
          "ticks": 178700,
          "time": 214.78343906249998,
          "velocity": 0.6929133858267716
        },
        {
          "duration": 0.15384599999998727,
          "durationTicks": 128,
          "midi": 76,
          "name": "E5",
          "ticks": 178700,
          "time": 214.78343906249998,
          "velocity": 0.6929133858267716
        },
        {
          "duration": 0.1538460000000157,
          "durationTicks": 128,
          "midi": 88,
          "name": "E6",
          "ticks": 178828,
          "time": 214.93728506249997,
          "velocity": 0.6929133858267716
        },
        {
          "duration": 0.1538460000000157,
          "durationTicks": 128,
          "midi": 83,
          "name": "B5",
          "ticks": 178828,
          "time": 214.93728506249997,
          "velocity": 0.6929133858267716
        },
        {
          "duration": 0.1538460000000157,
          "durationTicks": 128,
          "midi": 80,
          "name": "G#5",
          "ticks": 178828,
          "time": 214.93728506249997,
          "velocity": 0.6929133858267716
        },
        {
          "duration": 0.1538460000000157,
          "durationTicks": 128,
          "midi": 76,
          "name": "E5",
          "ticks": 178828,
          "time": 214.93728506249997,
          "velocity": 0.6929133858267716
        },
        {
          "duration": 0.15384599999998727,
          "durationTicks": 128,
          "midi": 88,
          "name": "E6",
          "ticks": 178956,
          "time": 215.09113106249998,
          "velocity": 0.6929133858267716
        },
        {
          "duration": 0.15384599999998727,
          "durationTicks": 128,
          "midi": 83,
          "name": "B5",
          "ticks": 178956,
          "time": 215.09113106249998,
          "velocity": 0.6929133858267716
        },
        {
          "duration": 0.15384599999998727,
          "durationTicks": 128,
          "midi": 80,
          "name": "G#5",
          "ticks": 178956,
          "time": 215.09113106249998,
          "velocity": 0.6929133858267716
        },
        {
          "duration": 0.15384599999998727,
          "durationTicks": 128,
          "midi": 76,
          "name": "E5",
          "ticks": 178956,
          "time": 215.09113106249998,
          "velocity": 0.6929133858267716
        },
        {
          "duration": 0.1538460000000157,
          "durationTicks": 128,
          "midi": 88,
          "name": "E6",
          "ticks": 179084,
          "time": 215.24497706249997,
          "velocity": 0.6929133858267716
        },
        {
          "duration": 0.1538460000000157,
          "durationTicks": 128,
          "midi": 83,
          "name": "B5",
          "ticks": 179084,
          "time": 215.24497706249997,
          "velocity": 0.6929133858267716
        },
        {
          "duration": 0.1538460000000157,
          "durationTicks": 128,
          "midi": 80,
          "name": "G#5",
          "ticks": 179084,
          "time": 215.24497706249997,
          "velocity": 0.6929133858267716
        },
        {
          "duration": 0.1538460000000157,
          "durationTicks": 128,
          "midi": 76,
          "name": "E5",
          "ticks": 179084,
          "time": 215.24497706249997,
          "velocity": 0.6929133858267716
        },
        {
          "duration": 0.15384599999998727,
          "durationTicks": 128,
          "midi": 88,
          "name": "E6",
          "ticks": 179212,
          "time": 215.39882306249999,
          "velocity": 0.6929133858267716
        },
        {
          "duration": 0.15384599999998727,
          "durationTicks": 128,
          "midi": 83,
          "name": "B5",
          "ticks": 179212,
          "time": 215.39882306249999,
          "velocity": 0.6929133858267716
        },
        {
          "duration": 0.15384599999998727,
          "durationTicks": 128,
          "midi": 80,
          "name": "G#5",
          "ticks": 179212,
          "time": 215.39882306249999,
          "velocity": 0.6929133858267716
        },
        {
          "duration": 0.15384599999998727,
          "durationTicks": 128,
          "midi": 76,
          "name": "E5",
          "ticks": 179212,
          "time": 215.39882306249999,
          "velocity": 0.6929133858267716
        },
        {
          "duration": 0.1538460000000157,
          "durationTicks": 128,
          "midi": 88,
          "name": "E6",
          "ticks": 179340,
          "time": 215.55266906249997,
          "velocity": 0.6929133858267716
        },
        {
          "duration": 0.1538460000000157,
          "durationTicks": 128,
          "midi": 83,
          "name": "B5",
          "ticks": 179340,
          "time": 215.55266906249997,
          "velocity": 0.6929133858267716
        },
        {
          "duration": 0.1538460000000157,
          "durationTicks": 128,
          "midi": 80,
          "name": "G#5",
          "ticks": 179340,
          "time": 215.55266906249997,
          "velocity": 0.6929133858267716
        },
        {
          "duration": 0.1538460000000157,
          "durationTicks": 128,
          "midi": 76,
          "name": "E5",
          "ticks": 179340,
          "time": 215.55266906249997,
          "velocity": 0.6929133858267716
        },
        {
          "duration": 0.15384599999998727,
          "durationTicks": 128,
          "midi": 88,
          "name": "E6",
          "ticks": 179468,
          "time": 215.7065150625,
          "velocity": 0.6929133858267716
        },
        {
          "duration": 0.15384599999998727,
          "durationTicks": 128,
          "midi": 83,
          "name": "B5",
          "ticks": 179468,
          "time": 215.7065150625,
          "velocity": 0.6929133858267716
        },
        {
          "duration": 0.15384599999998727,
          "durationTicks": 128,
          "midi": 80,
          "name": "G#5",
          "ticks": 179468,
          "time": 215.7065150625,
          "velocity": 0.6929133858267716
        },
        {
          "duration": 0.15384599999998727,
          "durationTicks": 128,
          "midi": 76,
          "name": "E5",
          "ticks": 179468,
          "time": 215.7065150625,
          "velocity": 0.6929133858267716
        },
        {
          "duration": 0.15384599999998727,
          "durationTicks": 128,
          "midi": 88,
          "name": "E6",
          "ticks": 179596,
          "time": 215.86036106249998,
          "velocity": 0.6929133858267716
        },
        {
          "duration": 0.15384599999998727,
          "durationTicks": 128,
          "midi": 83,
          "name": "B5",
          "ticks": 179596,
          "time": 215.86036106249998,
          "velocity": 0.6929133858267716
        },
        {
          "duration": 0.15384599999998727,
          "durationTicks": 128,
          "midi": 80,
          "name": "G#5",
          "ticks": 179596,
          "time": 215.86036106249998,
          "velocity": 0.6929133858267716
        },
        {
          "duration": 0.15384599999998727,
          "durationTicks": 128,
          "midi": 76,
          "name": "E5",
          "ticks": 179596,
          "time": 215.86036106249998,
          "velocity": 0.6929133858267716
        },
        {
          "duration": 1.8461520000000178,
          "durationTicks": 1536,
          "midi": 88,
          "name": "E6",
          "ticks": 179724,
          "time": 216.01420706249996,
          "velocity": 0.6929133858267716
        },
        {
          "duration": 1.8461520000000178,
          "durationTicks": 1536,
          "midi": 83,
          "name": "B5",
          "ticks": 179724,
          "time": 216.01420706249996,
          "velocity": 0.6929133858267716
        },
        {
          "duration": 1.8461520000000178,
          "durationTicks": 1536,
          "midi": 80,
          "name": "G#5",
          "ticks": 179724,
          "time": 216.01420706249996,
          "velocity": 0.6929133858267716
        },
        {
          "duration": 1.8461520000000178,
          "durationTicks": 1536,
          "midi": 76,
          "name": "E5",
          "ticks": 179724,
          "time": 216.01420706249996,
          "velocity": 0.6929133858267716
        }
      ]
    },
    {
      "channel": 0,
      "controlChanges": {
        "0": [
          {
            "number": 0,
            "ticks": 0,
            "time": 0,
            "value": 0
          }
        ]
      },
      "pitchBends": [],
      "instrument": {
        "family": "piano",
        "number": 0,
        "name": "acoustic grand piano"
      },
      "name": "",
      "notes": []
    },
    {
      "channel": 2,
      "controlChanges": {
        "7": [
          {
            "number": 7,
            "ticks": 0,
            "time": 0,
            "value": 0.9448818897637795
          }
        ],
        "10": [
          {
            "number": 10,
            "ticks": 0,
            "time": 0,
            "value": 0.47244094488188976
          }
        ]
      },
      "pitchBends": [],
      "instrument": {
        "family": "bass",
        "number": 34,
        "name": "electric bass (pick)"
      },
      "name": "",
      "notes": [
        {
          "duration": 0.15384599999999998,
          "durationTicks": 128,
          "midi": 52,
          "name": "E3",
          "ticks": 0,
          "time": 0,
          "velocity": 0.6929133858267716
        },
        {
          "duration": 0.15384599999999998,
          "durationTicks": 128,
          "midi": 52,
          "name": "E3",
          "ticks": 128,
          "time": 0.15384599999999998,
          "velocity": 0.6929133858267716
        },
        {
          "duration": 0.15384599999999998,
          "durationTicks": 128,
          "midi": 52,
          "name": "E3",
          "ticks": 256,
          "time": 0.30769199999999997,
          "velocity": 0.6929133858267716
        },
        {
          "duration": 0.15384599999999998,
          "durationTicks": 128,
          "midi": 52,
          "name": "E3",
          "ticks": 384,
          "time": 0.46153799999999995,
          "velocity": 0.6929133858267716
        },
        {
          "duration": 0.15384600000000004,
          "durationTicks": 128,
          "midi": 52,
          "name": "E3",
          "ticks": 512,
          "time": 0.6153839999999999,
          "velocity": 0.6929133858267716
        },
        {
          "duration": 0.15384599999999993,
          "durationTicks": 128,
          "midi": 52,
          "name": "E3",
          "ticks": 640,
          "time": 0.76923,
          "velocity": 0.6929133858267716
        },
        {
          "duration": 0.15384600000000004,
          "durationTicks": 128,
          "midi": 52,
          "name": "E3",
          "ticks": 768,
          "time": 0.9230759999999999,
          "velocity": 0.6929133858267716
        },
        {
          "duration": 0.15384599999999993,
          "durationTicks": 128,
          "midi": 52,
          "name": "E3",
          "ticks": 896,
          "time": 1.076922,
          "velocity": 0.6929133858267716
        },
        {
          "duration": 0.15384599999999993,
          "durationTicks": 128,
          "midi": 52,
          "name": "E3",
          "ticks": 1024,
          "time": 1.2307679999999999,
          "velocity": 0.6929133858267716
        },
        {
          "duration": 0.15384600000000015,
          "durationTicks": 128,
          "midi": 52,
          "name": "E3",
          "ticks": 1152,
          "time": 1.3846139999999998,
          "velocity": 0.6929133858267716
        },
        {
          "duration": 0.1538459999999997,
          "durationTicks": 128,
          "midi": 52,
          "name": "E3",
          "ticks": 1280,
          "time": 1.53846,
          "velocity": 0.6929133858267716
        },
        {
          "duration": 0.15384600000000015,
          "durationTicks": 128,
          "midi": 52,
          "name": "E3",
          "ticks": 1408,
          "time": 1.6923059999999996,
          "velocity": 0.6929133858267716
        },
        {
          "duration": 0.15384599999999993,
          "durationTicks": 128,
          "midi": 52,
          "name": "E3",
          "ticks": 1536,
          "time": 1.8461519999999998,
          "velocity": 0.6929133858267716
        },
        {
          "duration": 0.15384600000000015,
          "durationTicks": 128,
          "midi": 52,
          "name": "E3",
          "ticks": 1664,
          "time": 1.9999979999999997,
          "velocity": 0.6929133858267716
        },
        {
          "duration": 0.1538459999999997,
          "durationTicks": 128,
          "midi": 52,
          "name": "E3",
          "ticks": 1792,
          "time": 2.153844,
          "velocity": 0.6929133858267716
        },
        {
          "duration": 0.15384600000000015,
          "durationTicks": 128,
          "midi": 50,
          "name": "D3",
          "ticks": 1920,
          "time": 2.3076899999999996,
          "velocity": 0.6929133858267716
        },
        {
          "duration": 0.15384600000000015,
          "durationTicks": 128,
          "midi": 50,
          "name": "D3",
          "ticks": 2048,
          "time": 2.4615359999999997,
          "velocity": 0.6929133858267716
        },
        {
          "duration": 0.1538459999999997,
          "durationTicks": 128,
          "midi": 50,
          "name": "D3",
          "ticks": 2176,
          "time": 2.615382,
          "velocity": 0.6929133858267716
        },
        {
          "duration": 0.15384600000000015,
          "durationTicks": 128,
          "midi": 49,
          "name": "C#3",
          "ticks": 2304,
          "time": 2.7692279999999996,
          "velocity": 0.6929133858267716
        },
        {
          "duration": 0.15384600000000015,
          "durationTicks": 128,
          "midi": 49,
          "name": "C#3",
          "ticks": 2432,
          "time": 2.9230739999999997,
          "velocity": 0.6929133858267716
        },
        {
          "duration": 0.1538459999999997,
          "durationTicks": 128,
          "midi": 49,
          "name": "C#3",
          "ticks": 2560,
          "time": 3.07692,
          "velocity": 0.6929133858267716
        },
        {
          "duration": 0.461538,
          "durationTicks": 384,
          "midi": 47,
          "name": "B2",
          "ticks": 2688,
          "time": 3.2307659999999996,
          "velocity": 0.6929133858267716
        },
        {
          "duration": 0.46153799999999956,
          "durationTicks": 384,
          "midi": 40,
          "name": "E2",
          "ticks": 3072,
          "time": 3.6923039999999996,
          "velocity": 0.6929133858267716
        },
        {
          "duration": 0.461538,
          "durationTicks": 384,
          "midi": 40,
          "name": "E2",
          "ticks": 3456,
          "time": 4.153841999999999,
          "velocity": 0.6929133858267716
        },
        {
          "duration": 0.34615350000000067,
          "durationTicks": 288,
          "midi": 40,
          "name": "E2",
          "ticks": 3840,
          "time": 4.615379999999999,
          "velocity": 0.6929133858267716
        },
        {
          "duration": 0.11538449999999933,
          "durationTicks": 96,
          "midi": 43,
          "name": "G2",
          "ticks": 4128,
          "time": 4.9615335,
          "velocity": 0.6929133858267716
        },
        {
          "duration": 0.34615350000000067,
          "durationTicks": 288,
          "midi": 45,
          "name": "A2",
          "ticks": 4224,
          "time": 5.076917999999999,
          "velocity": 0.6929133858267716
        },
        {
          "duration": 0.11538449999999933,
          "durationTicks": 96,
          "midi": 43,
          "name": "G2",
          "ticks": 4512,
          "time": 5.4230715,
          "velocity": 0.6929133858267716
        },
        {
          "duration": 0.461538,
          "durationTicks": 384,
          "midi": 40,
          "name": "E2",
          "ticks": 4608,
          "time": 5.538455999999999,
          "velocity": 0.6929133858267716
        },
        {
          "duration": 0.461538,
          "durationTicks": 384,
          "midi": 40,
          "name": "E2",
          "ticks": 4992,
          "time": 5.999993999999999,
          "velocity": 0.6929133858267716
        },
        {
          "duration": 0.3461534999999998,
          "durationTicks": 288,
          "midi": 40,
          "name": "E2",
          "ticks": 5376,
          "time": 6.461531999999999,
          "velocity": 0.6929133858267716
        },
        {
          "duration": 0.11538450000000022,
          "durationTicks": 96,
          "midi": 43,
          "name": "G2",
          "ticks": 5664,
          "time": 6.807685499999999,
          "velocity": 0.6929133858267716
        },
        {
          "duration": 0.3461534999999998,
          "durationTicks": 288,
          "midi": 45,
          "name": "A2",
          "ticks": 5760,
          "time": 6.923069999999999,
          "velocity": 0.6929133858267716
        },
        {
          "duration": 0.11538450000000022,
          "durationTicks": 96,
          "midi": 43,
          "name": "G2",
          "ticks": 6048,
          "time": 7.269223499999999,
          "velocity": 0.6929133858267716
        },
        {
          "duration": 0.461538,
          "durationTicks": 384,
          "midi": 40,
          "name": "E2",
          "ticks": 6144,
          "time": 7.384607999999999,
          "velocity": 0.6929133858267716
        },
        {
          "duration": 0.4615379999999991,
          "durationTicks": 384,
          "midi": 40,
          "name": "E2",
          "ticks": 6528,
          "time": 7.846145999999999,
          "velocity": 0.6929133858267716
        },
        {
          "duration": 0.34615350000000156,
          "durationTicks": 288,
          "midi": 40,
          "name": "E2",
          "ticks": 6912,
          "time": 8.307683999999998,
          "velocity": 0.6929133858267716
        },
        {
          "duration": 0.11538449999999933,
          "durationTicks": 96,
          "midi": 43,
          "name": "G2",
          "ticks": 7200,
          "time": 8.6538375,
          "velocity": 0.6929133858267716
        },
        {
          "duration": 0.3461534999999998,
          "durationTicks": 288,
          "midi": 45,
          "name": "A2",
          "ticks": 7296,
          "time": 8.769222,
          "velocity": 0.6929133858267716
        },
        {
          "duration": 0.11538449999999933,
          "durationTicks": 96,
          "midi": 43,
          "name": "G2",
          "ticks": 7584,
          "time": 9.115375499999999,
          "velocity": 0.6929133858267716
        },
        {
          "duration": 0.4615380000000009,
          "durationTicks": 384,
          "midi": 40,
          "name": "E2",
          "ticks": 7680,
          "time": 9.230759999999998,
          "velocity": 0.6929133858267716
        },
        {
          "duration": 0.4615379999999991,
          "durationTicks": 384,
          "midi": 40,
          "name": "E2",
          "ticks": 8064,
          "time": 9.692298,
          "velocity": 0.6929133858267716
        },
        {
          "duration": 0.3461534999999998,
          "durationTicks": 288,
          "midi": 40,
          "name": "E2",
          "ticks": 8448,
          "time": 10.153835999999998,
          "velocity": 0.6929133858267716
        },
        {
          "duration": 0.11538450000000111,
          "durationTicks": 96,
          "midi": 43,
          "name": "G2",
          "ticks": 8736,
          "time": 10.499989499999998,
          "velocity": 0.6929133858267716
        },
        {
          "duration": 0.3461534999999998,
          "durationTicks": 288,
          "midi": 45,
          "name": "A2",
          "ticks": 8832,
          "time": 10.615374,
          "velocity": 0.6929133858267716
        },
        {
          "duration": 0.11538449999999933,
          "durationTicks": 96,
          "midi": 43,
          "name": "G2",
          "ticks": 9120,
          "time": 10.961527499999999,
          "velocity": 0.6929133858267716
        },
        {
          "duration": 0.4615380000000009,
          "durationTicks": 384,
          "midi": 40,
          "name": "E2",
          "ticks": 9216,
          "time": 11.076911999999998,
          "velocity": 0.6929133858267716
        },
        {
          "duration": 0.4615379999999991,
          "durationTicks": 384,
          "midi": 40,
          "name": "E2",
          "ticks": 9600,
          "time": 11.53845,
          "velocity": 0.6929133858267716
        },
        {
          "duration": 0.3461534999999998,
          "durationTicks": 288,
          "midi": 40,
          "name": "E2",
          "ticks": 9984,
          "time": 11.999987999999998,
          "velocity": 0.6929133858267716
        },
        {
          "duration": 0.11538450000000111,
          "durationTicks": 96,
          "midi": 43,
          "name": "G2",
          "ticks": 10272,
          "time": 12.346141499999998,
          "velocity": 0.6929133858267716
        },
        {
          "duration": 0.3461534999999998,
          "durationTicks": 288,
          "midi": 45,
          "name": "A2",
          "ticks": 10368,
          "time": 12.461526,
          "velocity": 0.6929133858267716
        },
        {
          "duration": 0.11538449999999933,
          "durationTicks": 96,
          "midi": 43,
          "name": "G2",
          "ticks": 10656,
          "time": 12.807679499999999,
          "velocity": 0.6929133858267716
        },
        {
          "duration": 0.4615380000000009,
          "durationTicks": 384,
          "midi": 40,
          "name": "E2",
          "ticks": 10752,
          "time": 12.923063999999998,
          "velocity": 0.6929133858267716
        },
        {
          "duration": 0.4615379999999991,
          "durationTicks": 384,
          "midi": 40,
          "name": "E2",
          "ticks": 11136,
          "time": 13.384602,
          "velocity": 0.6929133858267716
        },
        {
          "duration": 0.3461534999999998,
          "durationTicks": 288,
          "midi": 40,
          "name": "E2",
          "ticks": 11520,
          "time": 13.846139999999998,
          "velocity": 0.6929133858267716
        },
        {
          "duration": 0.11538450000000111,
          "durationTicks": 96,
          "midi": 43,
          "name": "G2",
          "ticks": 11808,
          "time": 14.192293499999998,
          "velocity": 0.6929133858267716
        },
        {
          "duration": 0.3461534999999998,
          "durationTicks": 288,
          "midi": 45,
          "name": "A2",
          "ticks": 11904,
          "time": 14.307678,
          "velocity": 0.6929133858267716
        },
        {
          "duration": 0.11538449999999933,
          "durationTicks": 96,
          "midi": 43,
          "name": "G2",
          "ticks": 12192,
          "time": 14.653831499999999,
          "velocity": 0.6929133858267716
        },
        {
          "duration": 0.4615379999999991,
          "durationTicks": 384,
          "midi": 40,
          "name": "E2",
          "ticks": 12288,
          "time": 14.769215999999998,
          "velocity": 0.6929133858267716
        },
        {
          "duration": 0.4615380000000009,
          "durationTicks": 384,
          "midi": 40,
          "name": "E2",
          "ticks": 12672,
          "time": 15.230753999999997,
          "velocity": 0.6929133858267716
        },
        {
          "duration": 0.3461534999999998,
          "durationTicks": 288,
          "midi": 40,
          "name": "E2",
          "ticks": 13056,
          "time": 15.692291999999998,
          "velocity": 0.6929133858267716
        },
        {
          "duration": 0.11538450000000111,
          "durationTicks": 96,
          "midi": 43,
          "name": "G2",
          "ticks": 13344,
          "time": 16.038445499999998,
          "velocity": 0.6929133858267716
        },
        {
          "duration": 0.3461534999999998,
          "durationTicks": 288,
          "midi": 45,
          "name": "A2",
          "ticks": 13440,
          "time": 16.15383,
          "velocity": 0.6929133858267716
        },
        {
          "duration": 0.11538449999999756,
          "durationTicks": 96,
          "midi": 43,
          "name": "G2",
          "ticks": 13728,
          "time": 16.4999835,
          "velocity": 0.6929133858267716
        },
        {
          "duration": 0.4615380000000009,
          "durationTicks": 384,
          "midi": 40,
          "name": "E2",
          "ticks": 13824,
          "time": 16.615367999999997,
          "velocity": 0.6929133858267716
        },
        {
          "duration": 0.4615380000000009,
          "durationTicks": 384,
          "midi": 40,
          "name": "E2",
          "ticks": 14208,
          "time": 17.076905999999997,
          "velocity": 0.6929133858267716
        },
        {
          "duration": 0.3461534999999998,
          "durationTicks": 288,
          "midi": 40,
          "name": "E2",
          "ticks": 14592,
          "time": 17.538444,
          "velocity": 0.6929133858267716
        },
        {
          "duration": 0.11538450000000111,
          "durationTicks": 96,
          "midi": 43,
          "name": "G2",
          "ticks": 14880,
          "time": 17.884597499999998,
          "velocity": 0.6929133858267716
        },
        {
          "duration": 0.3461534999999998,
          "durationTicks": 288,
          "midi": 45,
          "name": "A2",
          "ticks": 14976,
          "time": 17.999982,
          "velocity": 0.6929133858267716
        },
        {
          "duration": 0.11538449999999756,
          "durationTicks": 96,
          "midi": 43,
          "name": "G2",
          "ticks": 15264,
          "time": 18.3461355,
          "velocity": 0.6929133858267716
        },
        {
          "duration": 0.4615380000000009,
          "durationTicks": 384,
          "midi": 40,
          "name": "E2",
          "ticks": 15360,
          "time": 18.461519999999997,
          "velocity": 0.6929133858267716
        },
        {
          "duration": 0.4615380000000009,
          "durationTicks": 384,
          "midi": 40,
          "name": "E2",
          "ticks": 15744,
          "time": 18.923057999999997,
          "velocity": 0.6929133858267716
        },
        {
          "duration": 0.3461534999999998,
          "durationTicks": 288,
          "midi": 40,
          "name": "E2",
          "ticks": 16128,
          "time": 19.384596,
          "velocity": 0.6929133858267716
        },
        {
          "duration": 0.11538450000000111,
          "durationTicks": 96,
          "midi": 43,
          "name": "G2",
          "ticks": 16416,
          "time": 19.730749499999998,
          "velocity": 0.6929133858267716
        },
        {
          "duration": 0.3461534999999998,
          "durationTicks": 288,
          "midi": 45,
          "name": "A2",
          "ticks": 16512,
          "time": 19.846134,
          "velocity": 0.6929133858267716
        },
        {
          "duration": 0.11538449999999756,
          "durationTicks": 96,
          "midi": 43,
          "name": "G2",
          "ticks": 16800,
          "time": 20.1922875,
          "velocity": 0.6929133858267716
        },
        {
          "duration": 0.4615380000000009,
          "durationTicks": 384,
          "midi": 40,
          "name": "E2",
          "ticks": 16896,
          "time": 20.307671999999997,
          "velocity": 0.6929133858267716
        },
        {
          "duration": 0.4615380000000009,
          "durationTicks": 384,
          "midi": 40,
          "name": "E2",
          "ticks": 17280,
          "time": 20.769209999999998,
          "velocity": 0.6929133858267716
        },
        {
          "duration": 0.3461534999999998,
          "durationTicks": 288,
          "midi": 40,
          "name": "E2",
          "ticks": 17664,
          "time": 21.230748,
          "velocity": 0.6929133858267716
        },
        {
          "duration": 0.11538450000000111,
          "durationTicks": 96,
          "midi": 43,
          "name": "G2",
          "ticks": 17952,
          "time": 21.576901499999998,
          "velocity": 0.6929133858267716
        },
        {
          "duration": 0.3461534999999998,
          "durationTicks": 288,
          "midi": 45,
          "name": "A2",
          "ticks": 18048,
          "time": 21.692286,
          "velocity": 0.6929133858267716
        },
        {
          "duration": 0.11538449999999756,
          "durationTicks": 96,
          "midi": 43,
          "name": "G2",
          "ticks": 18336,
          "time": 22.0384395,
          "velocity": 0.6929133858267716
        },
        {
          "duration": 0.4615380000000009,
          "durationTicks": 384,
          "midi": 40,
          "name": "E2",
          "ticks": 18432,
          "time": 22.153823999999997,
          "velocity": 0.6929133858267716
        },
        {
          "duration": 0.4615380000000009,
          "durationTicks": 384,
          "midi": 40,
          "name": "E2",
          "ticks": 18816,
          "time": 22.615361999999998,
          "velocity": 0.6929133858267716
        },
        {
          "duration": 0.3461534999999998,
          "durationTicks": 288,
          "midi": 40,
          "name": "E2",
          "ticks": 19200,
          "time": 23.0769,
          "velocity": 0.6929133858267716
        },
        {
          "duration": 0.11538449999999756,
          "durationTicks": 96,
          "midi": 43,
          "name": "G2",
          "ticks": 19488,
          "time": 23.423053499999998,
          "velocity": 0.6929133858267716
        },
        {
          "duration": 0.34615350000000333,
          "durationTicks": 288,
          "midi": 45,
          "name": "A2",
          "ticks": 19584,
          "time": 23.538437999999996,
          "velocity": 0.6929133858267716
        },
        {
          "duration": 0.11538449999999756,
          "durationTicks": 96,
          "midi": 43,
          "name": "G2",
          "ticks": 19872,
          "time": 23.8845915,
          "velocity": 0.6929133858267716
        },
        {
          "duration": 0.4615380000000009,
          "durationTicks": 384,
          "midi": 40,
          "name": "E2",
          "ticks": 19968,
          "time": 23.999975999999997,
          "velocity": 0.6929133858267716
        },
        {
          "duration": 0.4615380000000009,
          "durationTicks": 384,
          "midi": 40,
          "name": "E2",
          "ticks": 20352,
          "time": 24.461513999999998,
          "velocity": 0.6929133858267716
        },
        {
          "duration": 0.3461534999999998,
          "durationTicks": 288,
          "midi": 40,
          "name": "E2",
          "ticks": 20736,
          "time": 24.923052,
          "velocity": 0.6929133858267716
        },
        {
          "duration": 0.11538449999999756,
          "durationTicks": 96,
          "midi": 43,
          "name": "G2",
          "ticks": 21024,
          "time": 25.269205499999998,
          "velocity": 0.6929133858267716
        },
        {
          "duration": 0.3461534999999998,
          "durationTicks": 288,
          "midi": 45,
          "name": "A2",
          "ticks": 21120,
          "time": 25.384589999999996,
          "velocity": 0.6929133858267716
        },
        {
          "duration": 0.11538450000000111,
          "durationTicks": 96,
          "midi": 43,
          "name": "G2",
          "ticks": 21408,
          "time": 25.730743499999996,
          "velocity": 0.6929133858267716
        },
        {
          "duration": 0.4615380000000009,
          "durationTicks": 384,
          "midi": 40,
          "name": "E2",
          "ticks": 21504,
          "time": 25.846127999999997,
          "velocity": 0.6929133858267716
        },
        {
          "duration": 0.4615380000000009,
          "durationTicks": 384,
          "midi": 40,
          "name": "E2",
          "ticks": 21888,
          "time": 26.307665999999998,
          "velocity": 0.6929133858267716
        },
        {
          "duration": 0.3461534999999998,
          "durationTicks": 288,
          "midi": 40,
          "name": "E2",
          "ticks": 22272,
          "time": 26.769204,
          "velocity": 0.6929133858267716
        },
        {
          "duration": 0.11538449999999756,
          "durationTicks": 96,
          "midi": 43,
          "name": "G2",
          "ticks": 22560,
          "time": 27.1153575,
          "velocity": 0.6929133858267716
        },
        {
          "duration": 0.3461534999999998,
          "durationTicks": 288,
          "midi": 45,
          "name": "A2",
          "ticks": 22656,
          "time": 27.230741999999996,
          "velocity": 0.6929133858267716
        },
        {
          "duration": 0.11538450000000111,
          "durationTicks": 96,
          "midi": 43,
          "name": "G2",
          "ticks": 22944,
          "time": 27.576895499999996,
          "velocity": 0.6929133858267716
        },
        {
          "duration": 0.4615380000000009,
          "durationTicks": 384,
          "midi": 40,
          "name": "E2",
          "ticks": 23040,
          "time": 27.692279999999997,
          "velocity": 0.6929133858267716
        },
        {
          "duration": 0.4615380000000009,
          "durationTicks": 384,
          "midi": 40,
          "name": "E2",
          "ticks": 23424,
          "time": 28.153817999999998,
          "velocity": 0.6929133858267716
        },
        {
          "duration": 0.3461534999999998,
          "durationTicks": 288,
          "midi": 40,
          "name": "E2",
          "ticks": 23808,
          "time": 28.615356,
          "velocity": 0.6929133858267716
        },
        {
          "duration": 0.11538449999999756,
          "durationTicks": 96,
          "midi": 43,
          "name": "G2",
          "ticks": 24096,
          "time": 28.9615095,
          "velocity": 0.6929133858267716
        },
        {
          "duration": 0.3461534999999998,
          "durationTicks": 288,
          "midi": 45,
          "name": "A2",
          "ticks": 24192,
          "time": 29.076893999999996,
          "velocity": 0.6929133858267716
        },
        {
          "duration": 0.11538450000000111,
          "durationTicks": 96,
          "midi": 43,
          "name": "G2",
          "ticks": 24480,
          "time": 29.423047499999996,
          "velocity": 0.6929133858267716
        },
        {
          "duration": 0.4615380000000009,
          "durationTicks": 384,
          "midi": 40,
          "name": "E2",
          "ticks": 24576,
          "time": 29.538431999999997,
          "velocity": 0.6929133858267716
        },
        {
          "duration": 0.46153799999999734,
          "durationTicks": 384,
          "midi": 40,
          "name": "E2",
          "ticks": 24960,
          "time": 29.999969999999998,
          "velocity": 0.6929133858267716
        },
        {
          "duration": 0.34615350000000333,
          "durationTicks": 288,
          "midi": 40,
          "name": "E2",
          "ticks": 25344,
          "time": 30.461507999999995,
          "velocity": 0.6929133858267716
        },
        {
          "duration": 0.11538449999999756,
          "durationTicks": 96,
          "midi": 43,
          "name": "G2",
          "ticks": 25632,
          "time": 30.8076615,
          "velocity": 0.6929133858267716
        },
        {
          "duration": 0.3461534999999998,
          "durationTicks": 288,
          "midi": 45,
          "name": "A2",
          "ticks": 25728,
          "time": 30.923045999999996,
          "velocity": 0.6929133858267716
        },
        {
          "duration": 0.11538450000000111,
          "durationTicks": 96,
          "midi": 43,
          "name": "G2",
          "ticks": 26016,
          "time": 31.269199499999996,
          "velocity": 0.6929133858267716
        },
        {
          "duration": 0.4615380000000009,
          "durationTicks": 384,
          "midi": 40,
          "name": "E2",
          "ticks": 26112,
          "time": 31.384583999999997,
          "velocity": 0.6929133858267716
        },
        {
          "duration": 0.4615380000000009,
          "durationTicks": 384,
          "midi": 40,
          "name": "E2",
          "ticks": 26496,
          "time": 31.846121999999998,
          "velocity": 0.6929133858267716
        },
        {
          "duration": 0.3461534999999998,
          "durationTicks": 288,
          "midi": 40,
          "name": "E2",
          "ticks": 26880,
          "time": 32.30766,
          "velocity": 0.6929133858267716
        },
        {
          "duration": 0.11538449999999756,
          "durationTicks": 96,
          "midi": 43,
          "name": "G2",
          "ticks": 27168,
          "time": 32.6538135,
          "velocity": 0.6929133858267716
        },
        {
          "duration": 0.3461534999999998,
          "durationTicks": 288,
          "midi": 45,
          "name": "A2",
          "ticks": 27264,
          "time": 32.769197999999996,
          "velocity": 0.6929133858267716
        },
        {
          "duration": 0.11538449999999756,
          "durationTicks": 96,
          "midi": 43,
          "name": "G2",
          "ticks": 27552,
          "time": 33.115351499999996,
          "velocity": 0.6929133858267716
        },
        {
          "duration": 0.46153800000000444,
          "durationTicks": 384,
          "midi": 40,
          "name": "E2",
          "ticks": 27648,
          "time": 33.23073599999999,
          "velocity": 0.6929133858267716
        },
        {
          "duration": 0.46153799999999734,
          "durationTicks": 384,
          "midi": 40,
          "name": "E2",
          "ticks": 28032,
          "time": 33.692274,
          "velocity": 0.6929133858267716
        },
        {
          "duration": 0.3461534999999998,
          "durationTicks": 288,
          "midi": 40,
          "name": "E2",
          "ticks": 28416,
          "time": 34.153811999999995,
          "velocity": 0.6929133858267716
        },
        {
          "duration": 0.11538450000000466,
          "durationTicks": 96,
          "midi": 43,
          "name": "G2",
          "ticks": 28704,
          "time": 34.499965499999995,
          "velocity": 0.6929133858267716
        },
        {
          "duration": 0.3461534999999998,
          "durationTicks": 288,
          "midi": 45,
          "name": "A2",
          "ticks": 28800,
          "time": 34.61535,
          "velocity": 0.6929133858267716
        },
        {
          "duration": 0.11538449999999756,
          "durationTicks": 96,
          "midi": 43,
          "name": "G2",
          "ticks": 29088,
          "time": 34.9615035,
          "velocity": 0.6929133858267716
        },
        {
          "duration": 0.46153799999999734,
          "durationTicks": 384,
          "midi": 40,
          "name": "E2",
          "ticks": 29184,
          "time": 35.076888,
          "velocity": 0.6929133858267716
        },
        {
          "duration": 0.46153800000000444,
          "durationTicks": 384,
          "midi": 40,
          "name": "E2",
          "ticks": 29568,
          "time": 35.538425999999994,
          "velocity": 0.6929133858267716
        },
        {
          "duration": 0.3461534999999998,
          "durationTicks": 288,
          "midi": 40,
          "name": "E2",
          "ticks": 29952,
          "time": 35.999964,
          "velocity": 0.6929133858267716
        },
        {
          "duration": 0.11538449999999756,
          "durationTicks": 96,
          "midi": 43,
          "name": "G2",
          "ticks": 30240,
          "time": 36.3461175,
          "velocity": 0.6929133858267716
        },
        {
          "duration": 0.3461534999999998,
          "durationTicks": 288,
          "midi": 45,
          "name": "A2",
          "ticks": 30336,
          "time": 36.461501999999996,
          "velocity": 0.6929133858267716
        },
        {
          "duration": 0.11538449999999756,
          "durationTicks": 96,
          "midi": 43,
          "name": "G2",
          "ticks": 30624,
          "time": 36.807655499999996,
          "velocity": 0.6929133858267716
        },
        {
          "duration": 0.46153800000000444,
          "durationTicks": 384,
          "midi": 47,
          "name": "B2",
          "ticks": 30720,
          "time": 36.92303999999999,
          "velocity": 0.6929133858267716
        },
        {
          "duration": 0.46153799999999734,
          "durationTicks": 384,
          "midi": 47,
          "name": "B2",
          "ticks": 31104,
          "time": 37.384578,
          "velocity": 0.6929133858267716
        },
        {
          "duration": 0.46153799999999734,
          "durationTicks": 384,
          "midi": 47,
          "name": "B2",
          "ticks": 31488,
          "time": 37.846115999999995,
          "velocity": 0.6929133858267716
        },
        {
          "duration": 0.46153800000000444,
          "durationTicks": 384,
          "midi": 47,
          "name": "B2",
          "ticks": 31872,
          "time": 38.30765399999999,
          "velocity": 0.6929133858267716
        },
        {
          "duration": 0.46153799999999734,
          "durationTicks": 384,
          "midi": 35,
          "name": "B1",
          "ticks": 32256,
          "time": 38.769192,
          "velocity": 0.6929133858267716
        },
        {
          "duration": 0.46153800000000444,
          "durationTicks": 384,
          "midi": 35,
          "name": "B1",
          "ticks": 32640,
          "time": 39.230729999999994,
          "velocity": 0.6929133858267716
        },
        {
          "duration": 0.30769199999999586,
          "durationTicks": 256,
          "midi": 35,
          "name": "B1",
          "ticks": 33024,
          "time": 39.692268,
          "velocity": 0.6929133858267716
        },
        {
          "duration": 0.15384600000000148,
          "durationTicks": 128,
          "midi": 35,
          "name": "B1",
          "ticks": 33280,
          "time": 39.999959999999994,
          "velocity": 0.6929133858267716
        },
        {
          "duration": 0.30769200000000296,
          "durationTicks": 256,
          "midi": 35,
          "name": "B1",
          "ticks": 33408,
          "time": 40.153805999999996,
          "velocity": 0.6929133858267716
        },
        {
          "duration": 0.15384599999999438,
          "durationTicks": 128,
          "midi": 35,
          "name": "B1",
          "ticks": 33664,
          "time": 40.461498,
          "velocity": 0.6929133858267716
        },
        {
          "duration": 0.30769200000000296,
          "durationTicks": 256,
          "midi": 35,
          "name": "B1",
          "ticks": 33792,
          "time": 40.61534399999999,
          "velocity": 0.6929133858267716
        },
        {
          "duration": 0.15384600000000148,
          "durationTicks": 128,
          "midi": 35,
          "name": "B1",
          "ticks": 34048,
          "time": 40.923035999999996,
          "velocity": 0.6929133858267716
        },
        {
          "duration": 0.30769200000000296,
          "durationTicks": 256,
          "midi": 35,
          "name": "B1",
          "ticks": 34176,
          "time": 41.076882,
          "velocity": 0.6929133858267716
        },
        {
          "duration": 0.15384599999999438,
          "durationTicks": 128,
          "midi": 35,
          "name": "B1",
          "ticks": 34432,
          "time": 41.384574,
          "velocity": 0.6929133858267716
        },
        {
          "duration": 0.30769200000000296,
          "durationTicks": 256,
          "midi": 35,
          "name": "B1",
          "ticks": 34560,
          "time": 41.538419999999995,
          "velocity": 0.6929133858267716
        },
        {
          "duration": 0.15384600000000148,
          "durationTicks": 128,
          "midi": 40,
          "name": "E2",
          "ticks": 34800,
          "time": 41.82688124999999,
          "velocity": 0.6929133858267716
        },
        {
          "duration": 0.26923049999999904,
          "durationTicks": 224,
          "midi": 40,
          "name": "E2",
          "ticks": 34944,
          "time": 41.99995799999999,
          "velocity": 0.6929133858267716
        },
        {
          "duration": 0.1730767499999999,
          "durationTicks": 144,
          "midi": 40,
          "name": "E2",
          "ticks": 35184,
          "time": 42.28841925,
          "velocity": 0.6929133858267716
        },
        {
          "duration": 0.46153799999999734,
          "durationTicks": 384,
          "midi": 35,
          "name": "B1",
          "ticks": 35328,
          "time": 42.461496,
          "velocity": 0.6929133858267716
        },
        {
          "duration": 0.46153800000000444,
          "durationTicks": 384,
          "midi": 35,
          "name": "B1",
          "ticks": 35712,
          "time": 42.923033999999994,
          "velocity": 0.6929133858267716
        },
        {
          "duration": 0.30769199999999586,
          "durationTicks": 256,
          "midi": 35,
          "name": "B1",
          "ticks": 36096,
          "time": 43.384572,
          "velocity": 0.6929133858267716
        },
        {
          "duration": 0.15384600000000148,
          "durationTicks": 128,
          "midi": 35,
          "name": "B1",
          "ticks": 36352,
          "time": 43.692263999999994,
          "velocity": 0.6929133858267716
        },
        {
          "duration": 0.30769200000000296,
          "durationTicks": 256,
          "midi": 35,
          "name": "B1",
          "ticks": 36480,
          "time": 43.846109999999996,
          "velocity": 0.6929133858267716
        },
        {
          "duration": 0.15384599999999438,
          "durationTicks": 128,
          "midi": 35,
          "name": "B1",
          "ticks": 36736,
          "time": 44.153802,
          "velocity": 0.6929133858267716
        },
        {
          "duration": 0.30769200000000296,
          "durationTicks": 256,
          "midi": 35,
          "name": "B1",
          "ticks": 36864,
          "time": 44.30764799999999,
          "velocity": 0.6929133858267716
        },
        {
          "duration": 0.15384600000000148,
          "durationTicks": 128,
          "midi": 35,
          "name": "B1",
          "ticks": 37120,
          "time": 44.615339999999996,
          "velocity": 0.6929133858267716
        },
        {
          "duration": 0.30769200000000296,
          "durationTicks": 256,
          "midi": 35,
          "name": "B1",
          "ticks": 37248,
          "time": 44.769186,
          "velocity": 0.6929133858267716
        },
        {
          "duration": 0.15384599999999438,
          "durationTicks": 128,
          "midi": 35,
          "name": "B1",
          "ticks": 37504,
          "time": 45.076878,
          "velocity": 0.6929133858267716
        },
        {
          "duration": 0.30769200000000296,
          "durationTicks": 256,
          "midi": 35,
          "name": "B1",
          "ticks": 37632,
          "time": 45.230723999999995,
          "velocity": 0.6929133858267716
        },
        {
          "duration": 0.15384600000000148,
          "durationTicks": 128,
          "midi": 40,
          "name": "E2",
          "ticks": 37872,
          "time": 45.51918524999999,
          "velocity": 0.6929133858267716
        },
        {
          "duration": 0.26923049999999904,
          "durationTicks": 224,
          "midi": 40,
          "name": "E2",
          "ticks": 38016,
          "time": 45.69226199999999,
          "velocity": 0.6929133858267716
        },
        {
          "duration": 0.16346137499999713,
          "durationTicks": 136,
          "midi": 40,
          "name": "E2",
          "ticks": 38256,
          "time": 45.98072325,
          "velocity": 0.6929133858267716
        },
        {
          "duration": 0.46153799999999734,
          "durationTicks": 384,
          "midi": 35,
          "name": "B1",
          "ticks": 38400,
          "time": 46.1538,
          "velocity": 0.6929133858267716
        },
        {
          "duration": 0.46153799999999734,
          "durationTicks": 384,
          "midi": 35,
          "name": "B1",
          "ticks": 38784,
          "time": 46.615337999999994,
          "velocity": 0.6929133858267716
        },
        {
          "duration": 0.30769200000000296,
          "durationTicks": 256,
          "midi": 35,
          "name": "B1",
          "ticks": 39168,
          "time": 47.07687599999999,
          "velocity": 0.6929133858267716
        },
        {
          "duration": 0.15384600000000148,
          "durationTicks": 128,
          "midi": 35,
          "name": "B1",
          "ticks": 39424,
          "time": 47.384567999999994,
          "velocity": 0.6929133858267716
        },
        {
          "duration": 0.30769200000000296,
          "durationTicks": 256,
          "midi": 35,
          "name": "B1",
          "ticks": 39552,
          "time": 47.538413999999996,
          "velocity": 0.6929133858267716
        },
        {
          "duration": 0.15384599999999438,
          "durationTicks": 128,
          "midi": 35,
          "name": "B1",
          "ticks": 39808,
          "time": 47.846106,
          "velocity": 0.6929133858267716
        },
        {
          "duration": 0.30769200000000296,
          "durationTicks": 256,
          "midi": 35,
          "name": "B1",
          "ticks": 39936,
          "time": 47.99995199999999,
          "velocity": 0.6929133858267716
        },
        {
          "duration": 0.15384599999999438,
          "durationTicks": 128,
          "midi": 35,
          "name": "B1",
          "ticks": 40192,
          "time": 48.307643999999996,
          "velocity": 0.6929133858267716
        },
        {
          "duration": 0.30769200000000296,
          "durationTicks": 256,
          "midi": 35,
          "name": "B1",
          "ticks": 40320,
          "time": 48.46148999999999,
          "velocity": 0.6929133858267716
        },
        {
          "duration": 0.15384600000000148,
          "durationTicks": 128,
          "midi": 35,
          "name": "B1",
          "ticks": 40576,
          "time": 48.769181999999994,
          "velocity": 0.6929133858267716
        },
        {
          "duration": 0.30769199999999586,
          "durationTicks": 256,
          "midi": 35,
          "name": "B1",
          "ticks": 40704,
          "time": 48.923027999999995,
          "velocity": 0.6929133858267716
        },
        {
          "duration": 0.15384600000000148,
          "durationTicks": 128,
          "midi": 40,
          "name": "E2",
          "ticks": 40944,
          "time": 49.21148924999999,
          "velocity": 0.6929133858267716
        },
        {
          "duration": 0.26923049999999904,
          "durationTicks": 224,
          "midi": 40,
          "name": "E2",
          "ticks": 41088,
          "time": 49.38456599999999,
          "velocity": 0.6929133858267716
        },
        {
          "duration": 0.1730767499999999,
          "durationTicks": 144,
          "midi": 40,
          "name": "E2",
          "ticks": 41328,
          "time": 49.67302724999999,
          "velocity": 0.6929133858267716
        },
        {
          "duration": 0.46153800000000444,
          "durationTicks": 384,
          "midi": 35,
          "name": "B1",
          "ticks": 41472,
          "time": 49.84610399999999,
          "velocity": 0.6929133858267716
        },
        {
          "duration": 0.46153799999999734,
          "durationTicks": 384,
          "midi": 35,
          "name": "B1",
          "ticks": 41856,
          "time": 50.307641999999994,
          "velocity": 0.6929133858267716
        },
        {
          "duration": 0.30769200000000296,
          "durationTicks": 256,
          "midi": 35,
          "name": "B1",
          "ticks": 42240,
          "time": 50.76917999999999,
          "velocity": 0.6929133858267716
        },
        {
          "duration": 0.15384600000000148,
          "durationTicks": 128,
          "midi": 35,
          "name": "B1",
          "ticks": 42496,
          "time": 51.076871999999995,
          "velocity": 0.6929133858267716
        },
        {
          "duration": 0.30769199999999586,
          "durationTicks": 256,
          "midi": 35,
          "name": "B1",
          "ticks": 42624,
          "time": 51.230717999999996,
          "velocity": 0.6929133858267716
        },
        {
          "duration": 0.15384600000000148,
          "durationTicks": 128,
          "midi": 35,
          "name": "B1",
          "ticks": 42880,
          "time": 51.53840999999999,
          "velocity": 0.6929133858267716
        },
        {
          "duration": 0.30769199999999586,
          "durationTicks": 256,
          "midi": 35,
          "name": "B1",
          "ticks": 43008,
          "time": 51.69225599999999,
          "velocity": 0.6929133858267716
        },
        {
          "duration": 0.15384600000000148,
          "durationTicks": 128,
          "midi": 35,
          "name": "B1",
          "ticks": 43264,
          "time": 51.99994799999999,
          "velocity": 0.6929133858267716
        },
        {
          "duration": 0.30769200000000296,
          "durationTicks": 256,
          "midi": 35,
          "name": "B1",
          "ticks": 43392,
          "time": 52.15379399999999,
          "velocity": 0.6929133858267716
        },
        {
          "duration": 0.15384600000000148,
          "durationTicks": 128,
          "midi": 35,
          "name": "B1",
          "ticks": 43648,
          "time": 52.461485999999994,
          "velocity": 0.6929133858267716
        },
        {
          "duration": 0.30769199999999586,
          "durationTicks": 256,
          "midi": 35,
          "name": "B1",
          "ticks": 43776,
          "time": 52.615331999999995,
          "velocity": 0.6929133858267716
        },
        {
          "duration": 0.15384600000000148,
          "durationTicks": 128,
          "midi": 40,
          "name": "E2",
          "ticks": 44016,
          "time": 52.90379324999999,
          "velocity": 0.6929133858267716
        },
        {
          "duration": 0.26923049999999904,
          "durationTicks": 224,
          "midi": 40,
          "name": "E2",
          "ticks": 44160,
          "time": 53.07686999999999,
          "velocity": 0.6929133858267716
        },
        {
          "duration": 0.1730767499999999,
          "durationTicks": 144,
          "midi": 40,
          "name": "E2",
          "ticks": 44400,
          "time": 53.36533124999999,
          "velocity": 0.6929133858267716
        },
        {
          "duration": 0.46153800000000444,
          "durationTicks": 384,
          "midi": 33,
          "name": "A1",
          "ticks": 44544,
          "time": 53.53840799999999,
          "velocity": 0.6929133858267716
        },
        {
          "duration": 0.46153799999999734,
          "durationTicks": 384,
          "midi": 33,
          "name": "A1",
          "ticks": 44928,
          "time": 53.999945999999994,
          "velocity": 0.6929133858267716
        },
        {
          "duration": 0.30769200000000296,
          "durationTicks": 256,
          "midi": 33,
          "name": "A1",
          "ticks": 45312,
          "time": 54.46148399999999,
          "velocity": 0.6929133858267716
        },
        {
          "duration": 0.15384599999999438,
          "durationTicks": 128,
          "midi": 33,
          "name": "A1",
          "ticks": 45568,
          "time": 54.769175999999995,
          "velocity": 0.6929133858267716
        },
        {
          "duration": 0.30769200000000296,
          "durationTicks": 256,
          "midi": 33,
          "name": "A1",
          "ticks": 45696,
          "time": 54.92302199999999,
          "velocity": 0.6929133858267716
        },
        {
          "duration": 0.15384600000000148,
          "durationTicks": 128,
          "midi": 33,
          "name": "A1",
          "ticks": 45952,
          "time": 55.23071399999999,
          "velocity": 0.6929133858267716
        },
        {
          "duration": 0.30769200000000296,
          "durationTicks": 256,
          "midi": 33,
          "name": "A1",
          "ticks": 46080,
          "time": 55.38455999999999,
          "velocity": 0.6929133858267716
        },
        {
          "duration": 0.15384599999999438,
          "durationTicks": 128,
          "midi": 33,
          "name": "A1",
          "ticks": 46336,
          "time": 55.692251999999996,
          "velocity": 0.6929133858267716
        },
        {
          "duration": 0.30769200000000296,
          "durationTicks": 256,
          "midi": 33,
          "name": "A1",
          "ticks": 46464,
          "time": 55.84609799999999,
          "velocity": 0.6929133858267716
        },
        {
          "duration": 0.15384599999999438,
          "durationTicks": 128,
          "midi": 33,
          "name": "A1",
          "ticks": 46720,
          "time": 56.153789999999994,
          "velocity": 0.6929133858267716
        },
        {
          "duration": 0.30769200000000296,
          "durationTicks": 256,
          "midi": 33,
          "name": "A1",
          "ticks": 46848,
          "time": 56.30763599999999,
          "velocity": 0.6929133858267716
        },
        {
          "duration": 0.15384600000000148,
          "durationTicks": 128,
          "midi": 38,
          "name": "D2",
          "ticks": 47088,
          "time": 56.59609724999999,
          "velocity": 0.6929133858267716
        },
        {
          "duration": 0.26923049999999904,
          "durationTicks": 224,
          "midi": 38,
          "name": "D2",
          "ticks": 47232,
          "time": 56.76917399999999,
          "velocity": 0.6929133858267716
        },
        {
          "duration": 0.15384600000000148,
          "durationTicks": 128,
          "midi": 38,
          "name": "D2",
          "ticks": 47472,
          "time": 57.05763524999999,
          "velocity": 0.6929133858267716
        },
        {
          "duration": 0.46153800000000444,
          "durationTicks": 384,
          "midi": 33,
          "name": "A1",
          "ticks": 47616,
          "time": 57.23071199999999,
          "velocity": 0.6929133858267716
        },
        {
          "duration": 0.46153799999999734,
          "durationTicks": 384,
          "midi": 33,
          "name": "A1",
          "ticks": 48000,
          "time": 57.692249999999994,
          "velocity": 0.6929133858267716
        },
        {
          "duration": 0.30769200000000296,
          "durationTicks": 256,
          "midi": 33,
          "name": "A1",
          "ticks": 48384,
          "time": 58.15378799999999,
          "velocity": 0.6929133858267716
        },
        {
          "duration": 0.15384600000000148,
          "durationTicks": 128,
          "midi": 33,
          "name": "A1",
          "ticks": 48640,
          "time": 58.461479999999995,
          "velocity": 0.6929133858267716
        },
        {
          "duration": 0.30769199999999586,
          "durationTicks": 256,
          "midi": 33,
          "name": "A1",
          "ticks": 48768,
          "time": 58.615325999999996,
          "velocity": 0.6929133858267716
        },
        {
          "duration": 0.15384600000000148,
          "durationTicks": 128,
          "midi": 33,
          "name": "A1",
          "ticks": 49024,
          "time": 58.92301799999999,
          "velocity": 0.6929133858267716
        },
        {
          "duration": 0.30769199999999586,
          "durationTicks": 256,
          "midi": 33,
          "name": "A1",
          "ticks": 49152,
          "time": 59.07686399999999,
          "velocity": 0.6929133858267716
        },
        {
          "duration": 0.15384600000000148,
          "durationTicks": 128,
          "midi": 33,
          "name": "A1",
          "ticks": 49408,
          "time": 59.38455599999999,
          "velocity": 0.6929133858267716
        },
        {
          "duration": 0.30769200000000296,
          "durationTicks": 256,
          "midi": 33,
          "name": "A1",
          "ticks": 49536,
          "time": 59.53840199999999,
          "velocity": 0.6929133858267716
        },
        {
          "duration": 0.15384600000000148,
          "durationTicks": 128,
          "midi": 33,
          "name": "A1",
          "ticks": 49792,
          "time": 59.846093999999994,
          "velocity": 0.6929133858267716
        },
        {
          "duration": 0.30769199999999586,
          "durationTicks": 256,
          "midi": 33,
          "name": "A1",
          "ticks": 49920,
          "time": 59.999939999999995,
          "velocity": 0.6929133858267716
        },
        {
          "duration": 0.15384600000000148,
          "durationTicks": 128,
          "midi": 38,
          "name": "D2",
          "ticks": 50160,
          "time": 60.28840124999999,
          "velocity": 0.6929133858267716
        },
        {
          "duration": 0.26923049999999904,
          "durationTicks": 224,
          "midi": 38,
          "name": "D2",
          "ticks": 50304,
          "time": 60.46147799999999,
          "velocity": 0.6929133858267716
        },
        {
          "duration": 0.15384600000000148,
          "durationTicks": 128,
          "midi": 38,
          "name": "D2",
          "ticks": 50544,
          "time": 60.74993924999999,
          "velocity": 0.6929133858267716
        },
        {
          "duration": 0.46153800000000444,
          "durationTicks": 384,
          "midi": 40,
          "name": "E2",
          "ticks": 50688,
          "time": 60.92301599999999,
          "velocity": 0.6929133858267716
        },
        {
          "duration": 0.46153799999999734,
          "durationTicks": 384,
          "midi": 40,
          "name": "E2",
          "ticks": 51072,
          "time": 61.384553999999994,
          "velocity": 0.6929133858267716
        },
        {
          "duration": 0.3461534999999998,
          "durationTicks": 288,
          "midi": 40,
          "name": "E2",
          "ticks": 51456,
          "time": 61.84609199999999,
          "velocity": 0.6929133858267716
        },
        {
          "duration": 0.11538449999999756,
          "durationTicks": 96,
          "midi": 43,
          "name": "G2",
          "ticks": 51744,
          "time": 62.19224549999999,
          "velocity": 0.6929133858267716
        },
        {
          "duration": 0.3461534999999998,
          "durationTicks": 288,
          "midi": 45,
          "name": "A2",
          "ticks": 51840,
          "time": 62.30762999999999,
          "velocity": 0.6929133858267716
        },
        {
          "duration": 0.11538450000000466,
          "durationTicks": 96,
          "midi": 43,
          "name": "G2",
          "ticks": 52128,
          "time": 62.65378349999999,
          "velocity": 0.6929133858267716
        },
        {
          "duration": 0.46153799999999734,
          "durationTicks": 384,
          "midi": 40,
          "name": "E2",
          "ticks": 52224,
          "time": 62.76916799999999,
          "velocity": 0.6929133858267716
        },
        {
          "duration": 0.46153799999999734,
          "durationTicks": 384,
          "midi": 40,
          "name": "E2",
          "ticks": 52608,
          "time": 63.23070599999999,
          "velocity": 0.6929133858267716
        },
        {
          "duration": 0.3461534999999998,
          "durationTicks": 288,
          "midi": 40,
          "name": "E2",
          "ticks": 52992,
          "time": 63.69224399999999,
          "velocity": 0.6929133858267716
        },
        {
          "duration": 0.11538450000000466,
          "durationTicks": 96,
          "midi": 43,
          "name": "G2",
          "ticks": 53280,
          "time": 64.03839749999999,
          "velocity": 0.6929133858267716
        },
        {
          "duration": 0.3461534999999998,
          "durationTicks": 288,
          "midi": 45,
          "name": "A2",
          "ticks": 53376,
          "time": 64.15378199999999,
          "velocity": 0.6929133858267716
        },
        {
          "duration": 0.11538450000000466,
          "durationTicks": 96,
          "midi": 43,
          "name": "G2",
          "ticks": 53664,
          "time": 64.49993549999999,
          "velocity": 0.6929133858267716
        },
        {
          "duration": 0.46153799999999023,
          "durationTicks": 384,
          "midi": 40,
          "name": "E2",
          "ticks": 53760,
          "time": 64.61532,
          "velocity": 0.6929133858267716
        },
        {
          "duration": 0.46153800000000444,
          "durationTicks": 384,
          "midi": 40,
          "name": "E2",
          "ticks": 54144,
          "time": 65.07685799999999,
          "velocity": 0.6929133858267716
        },
        {
          "duration": 0.3461534999999998,
          "durationTicks": 288,
          "midi": 40,
          "name": "E2",
          "ticks": 54528,
          "time": 65.53839599999999,
          "velocity": 0.6929133858267716
        },
        {
          "duration": 0.11538450000000466,
          "durationTicks": 96,
          "midi": 43,
          "name": "G2",
          "ticks": 54816,
          "time": 65.88454949999999,
          "velocity": 0.6929133858267716
        },
        {
          "duration": 0.3461534999999998,
          "durationTicks": 288,
          "midi": 45,
          "name": "A2",
          "ticks": 54912,
          "time": 65.999934,
          "velocity": 0.6929133858267716
        },
        {
          "duration": 0.11538449999999045,
          "durationTicks": 96,
          "midi": 43,
          "name": "G2",
          "ticks": 55200,
          "time": 66.3460875,
          "velocity": 0.6929133858267716
        },
        {
          "duration": 0.46153800000000444,
          "durationTicks": 384,
          "midi": 40,
          "name": "E2",
          "ticks": 55296,
          "time": 66.46147199999999,
          "velocity": 0.6929133858267716
        },
        {
          "duration": 0.46153800000000444,
          "durationTicks": 384,
          "midi": 40,
          "name": "E2",
          "ticks": 55680,
          "time": 66.92300999999999,
          "velocity": 0.6929133858267716
        },
        {
          "duration": 0.3461534999999998,
          "durationTicks": 288,
          "midi": 40,
          "name": "E2",
          "ticks": 56064,
          "time": 67.384548,
          "velocity": 0.6929133858267716
        },
        {
          "duration": 0.11538449999999045,
          "durationTicks": 96,
          "midi": 43,
          "name": "G2",
          "ticks": 56352,
          "time": 67.7307015,
          "velocity": 0.6929133858267716
        },
        {
          "duration": 0.346153500000014,
          "durationTicks": 288,
          "midi": 45,
          "name": "A2",
          "ticks": 56448,
          "time": 67.84608599999999,
          "velocity": 0.6929133858267716
        },
        {
          "duration": 0.11538449999999045,
          "durationTicks": 96,
          "midi": 43,
          "name": "G2",
          "ticks": 56736,
          "time": 68.1922395,
          "velocity": 0.6929133858267716
        },
        {
          "duration": 0.46153800000000444,
          "durationTicks": 384,
          "midi": 40,
          "name": "E2",
          "ticks": 56832,
          "time": 68.30762399999999,
          "velocity": 0.6929133858267716
        },
        {
          "duration": 0.46153799999999023,
          "durationTicks": 384,
          "midi": 40,
          "name": "E2",
          "ticks": 57216,
          "time": 68.769162,
          "velocity": 0.6929133858267716
        },
        {
          "duration": 0.346153500000014,
          "durationTicks": 288,
          "midi": 40,
          "name": "E2",
          "ticks": 57600,
          "time": 69.23069999999998,
          "velocity": 0.6929133858267716
        },
        {
          "duration": 0.11538449999999045,
          "durationTicks": 96,
          "midi": 43,
          "name": "G2",
          "ticks": 57888,
          "time": 69.5768535,
          "velocity": 0.6929133858267716
        },
        {
          "duration": 0.3461534999999998,
          "durationTicks": 288,
          "midi": 45,
          "name": "A2",
          "ticks": 57984,
          "time": 69.69223799999999,
          "velocity": 0.6929133858267716
        },
        {
          "duration": 0.11538450000000466,
          "durationTicks": 96,
          "midi": 43,
          "name": "G2",
          "ticks": 58272,
          "time": 70.03839149999999,
          "velocity": 0.6929133858267716
        },
        {
          "duration": 0.46153799999999023,
          "durationTicks": 384,
          "midi": 40,
          "name": "E2",
          "ticks": 58368,
          "time": 70.153776,
          "velocity": 0.6929133858267716
        },
        {
          "duration": 0.46153800000000444,
          "durationTicks": 384,
          "midi": 40,
          "name": "E2",
          "ticks": 58752,
          "time": 70.61531399999998,
          "velocity": 0.6929133858267716
        },
        {
          "duration": 0.3461534999999998,
          "durationTicks": 288,
          "midi": 40,
          "name": "E2",
          "ticks": 59136,
          "time": 71.07685199999999,
          "velocity": 0.6929133858267716
        },
        {
          "duration": 0.11538450000000466,
          "durationTicks": 96,
          "midi": 43,
          "name": "G2",
          "ticks": 59424,
          "time": 71.42300549999999,
          "velocity": 0.6929133858267716
        },
        {
          "duration": 0.3461534999999998,
          "durationTicks": 288,
          "midi": 45,
          "name": "A2",
          "ticks": 59520,
          "time": 71.53838999999999,
          "velocity": 0.6929133858267716
        },
        {
          "duration": 0.11538449999999045,
          "durationTicks": 96,
          "midi": 43,
          "name": "G2",
          "ticks": 59808,
          "time": 71.88454349999999,
          "velocity": 0.6929133858267716
        },
        {
          "duration": 0.46153800000000444,
          "durationTicks": 384,
          "midi": 40,
          "name": "E2",
          "ticks": 59904,
          "time": 71.99992799999998,
          "velocity": 0.6929133858267716
        },
        {
          "duration": 0.46153800000000444,
          "durationTicks": 384,
          "midi": 40,
          "name": "E2",
          "ticks": 60288,
          "time": 72.46146599999999,
          "velocity": 0.6929133858267716
        },
        {
          "duration": 0.3461534999999998,
          "durationTicks": 288,
          "midi": 40,
          "name": "E2",
          "ticks": 60672,
          "time": 72.92300399999999,
          "velocity": 0.6929133858267716
        },
        {
          "duration": 0.11538449999999045,
          "durationTicks": 96,
          "midi": 43,
          "name": "G2",
          "ticks": 60960,
          "time": 73.26915749999999,
          "velocity": 0.6929133858267716
        },
        {
          "duration": 0.346153500000014,
          "durationTicks": 288,
          "midi": 45,
          "name": "A2",
          "ticks": 61056,
          "time": 73.38454199999998,
          "velocity": 0.6929133858267716
        },
        {
          "duration": 0.11538449999999045,
          "durationTicks": 96,
          "midi": 43,
          "name": "G2",
          "ticks": 61344,
          "time": 73.7306955,
          "velocity": 0.6929133858267716
        },
        {
          "duration": 0.46153800000000444,
          "durationTicks": 384,
          "midi": 40,
          "name": "E2",
          "ticks": 61440,
          "time": 73.84607999999999,
          "velocity": 0.6929133858267716
        },
        {
          "duration": 0.46153800000000444,
          "durationTicks": 384,
          "midi": 40,
          "name": "E2",
          "ticks": 61824,
          "time": 74.30761799999999,
          "velocity": 0.6929133858267716
        },
        {
          "duration": 0.3461534999999998,
          "durationTicks": 288,
          "midi": 40,
          "name": "E2",
          "ticks": 62208,
          "time": 74.769156,
          "velocity": 0.6929133858267716
        },
        {
          "duration": 0.11538449999999045,
          "durationTicks": 96,
          "midi": 43,
          "name": "G2",
          "ticks": 62496,
          "time": 75.1153095,
          "velocity": 0.6929133858267716
        },
        {
          "duration": 0.3461534999999998,
          "durationTicks": 288,
          "midi": 45,
          "name": "A2",
          "ticks": 62592,
          "time": 75.23069399999999,
          "velocity": 0.6929133858267716
        },
        {
          "duration": 0.11538450000000466,
          "durationTicks": 96,
          "midi": 43,
          "name": "G2",
          "ticks": 62880,
          "time": 75.57684749999999,
          "velocity": 0.6929133858267716
        },
        {
          "duration": 0.46153800000000444,
          "durationTicks": 384,
          "midi": 40,
          "name": "E2",
          "ticks": 62976,
          "time": 75.69223199999999,
          "velocity": 0.6929133858267716
        },
        {
          "duration": 0.46153800000000444,
          "durationTicks": 384,
          "midi": 40,
          "name": "E2",
          "ticks": 63360,
          "time": 76.15377,
          "velocity": 0.6929133858267716
        },
        {
          "duration": 0.34615349999998557,
          "durationTicks": 288,
          "midi": 40,
          "name": "E2",
          "ticks": 63744,
          "time": 76.615308,
          "velocity": 0.6929133858267716
        },
        {
          "duration": 0.11538450000000466,
          "durationTicks": 96,
          "midi": 43,
          "name": "G2",
          "ticks": 64032,
          "time": 76.96146149999998,
          "velocity": 0.6929133858267716
        },
        {
          "duration": 0.3461534999999998,
          "durationTicks": 288,
          "midi": 45,
          "name": "A2",
          "ticks": 64128,
          "time": 77.07684599999999,
          "velocity": 0.6929133858267716
        },
        {
          "duration": 0.11538450000000466,
          "durationTicks": 96,
          "midi": 43,
          "name": "G2",
          "ticks": 64416,
          "time": 77.42299949999999,
          "velocity": 0.6929133858267716
        },
        {
          "duration": 0.46153800000000444,
          "durationTicks": 384,
          "midi": 40,
          "name": "E2",
          "ticks": 64512,
          "time": 77.538384,
          "velocity": 0.6929133858267716
        },
        {
          "duration": 0.46153799999999023,
          "durationTicks": 384,
          "midi": 40,
          "name": "E2",
          "ticks": 64896,
          "time": 77.999922,
          "velocity": 0.6929133858267716
        },
        {
          "duration": 0.3461534999999998,
          "durationTicks": 288,
          "midi": 40,
          "name": "E2",
          "ticks": 65280,
          "time": 78.46145999999999,
          "velocity": 0.6929133858267716
        },
        {
          "duration": 0.11538450000000466,
          "durationTicks": 96,
          "midi": 43,
          "name": "G2",
          "ticks": 65568,
          "time": 78.80761349999999,
          "velocity": 0.6929133858267716
        },
        {
          "duration": 0.3461534999999998,
          "durationTicks": 288,
          "midi": 45,
          "name": "A2",
          "ticks": 65664,
          "time": 78.92299799999999,
          "velocity": 0.6929133858267716
        },
        {
          "duration": 0.11538450000000466,
          "durationTicks": 96,
          "midi": 43,
          "name": "G2",
          "ticks": 65952,
          "time": 79.26915149999999,
          "velocity": 0.6929133858267716
        },
        {
          "duration": 0.46153799999999023,
          "durationTicks": 384,
          "midi": 40,
          "name": "E2",
          "ticks": 66048,
          "time": 79.384536,
          "velocity": 0.6929133858267716
        },
        {
          "duration": 0.46153800000000444,
          "durationTicks": 384,
          "midi": 40,
          "name": "E2",
          "ticks": 66432,
          "time": 79.84607399999999,
          "velocity": 0.6929133858267716
        },
        {
          "duration": 0.3461534999999998,
          "durationTicks": 288,
          "midi": 40,
          "name": "E2",
          "ticks": 66816,
          "time": 80.30761199999999,
          "velocity": 0.6929133858267716
        },
        {
          "duration": 0.11538450000000466,
          "durationTicks": 96,
          "midi": 43,
          "name": "G2",
          "ticks": 67104,
          "time": 80.65376549999999,
          "velocity": 0.6929133858267716
        },
        {
          "duration": 0.34615349999998557,
          "durationTicks": 288,
          "midi": 45,
          "name": "A2",
          "ticks": 67200,
          "time": 80.76915,
          "velocity": 0.6929133858267716
        },
        {
          "duration": 0.11538450000000466,
          "durationTicks": 96,
          "midi": 43,
          "name": "G2",
          "ticks": 67488,
          "time": 81.11530349999998,
          "velocity": 0.6929133858267716
        },
        {
          "duration": 0.46153800000000444,
          "durationTicks": 384,
          "midi": 40,
          "name": "E2",
          "ticks": 67584,
          "time": 81.23068799999999,
          "velocity": 0.6929133858267716
        },
        {
          "duration": 0.46153800000000444,
          "durationTicks": 384,
          "midi": 40,
          "name": "E2",
          "ticks": 67968,
          "time": 81.69222599999999,
          "velocity": 0.6929133858267716
        },
        {
          "duration": 0.34615349999998557,
          "durationTicks": 288,
          "midi": 40,
          "name": "E2",
          "ticks": 68352,
          "time": 82.153764,
          "velocity": 0.6929133858267716
        },
        {
          "duration": 0.11538450000000466,
          "durationTicks": 96,
          "midi": 43,
          "name": "G2",
          "ticks": 68640,
          "time": 82.49991749999998,
          "velocity": 0.6929133858267716
        },
        {
          "duration": 0.346153500000014,
          "durationTicks": 288,
          "midi": 45,
          "name": "A2",
          "ticks": 68736,
          "time": 82.61530199999999,
          "velocity": 0.6929133858267716
        },
        {
          "duration": 0.11538449999999045,
          "durationTicks": 96,
          "midi": 43,
          "name": "G2",
          "ticks": 69024,
          "time": 82.9614555,
          "velocity": 0.6929133858267716
        },
        {
          "duration": 0.46153800000000444,
          "durationTicks": 384,
          "midi": 40,
          "name": "E2",
          "ticks": 69120,
          "time": 83.07683999999999,
          "velocity": 0.6929133858267716
        },
        {
          "duration": 0.46153799999999023,
          "durationTicks": 384,
          "midi": 40,
          "name": "E2",
          "ticks": 69504,
          "time": 83.538378,
          "velocity": 0.6929133858267716
        },
        {
          "duration": 0.346153500000014,
          "durationTicks": 288,
          "midi": 40,
          "name": "E2",
          "ticks": 69888,
          "time": 83.99991599999998,
          "velocity": 0.6929133858267716
        },
        {
          "duration": 0.11538449999999045,
          "durationTicks": 96,
          "midi": 43,
          "name": "G2",
          "ticks": 70176,
          "time": 84.3460695,
          "velocity": 0.6929133858267716
        },
        {
          "duration": 0.3461534999999998,
          "durationTicks": 288,
          "midi": 45,
          "name": "A2",
          "ticks": 70272,
          "time": 84.46145399999999,
          "velocity": 0.6929133858267716
        },
        {
          "duration": 0.11538450000000466,
          "durationTicks": 96,
          "midi": 43,
          "name": "G2",
          "ticks": 70560,
          "time": 84.80760749999999,
          "velocity": 0.6929133858267716
        },
        {
          "duration": 0.46153799999999023,
          "durationTicks": 384,
          "midi": 40,
          "name": "E2",
          "ticks": 70656,
          "time": 84.922992,
          "velocity": 0.6929133858267716
        },
        {
          "duration": 0.46153800000000444,
          "durationTicks": 384,
          "midi": 40,
          "name": "E2",
          "ticks": 71040,
          "time": 85.38452999999998,
          "velocity": 0.6929133858267716
        },
        {
          "duration": 0.3461534999999998,
          "durationTicks": 288,
          "midi": 40,
          "name": "E2",
          "ticks": 71424,
          "time": 85.84606799999999,
          "velocity": 0.6929133858267716
        },
        {
          "duration": 0.11538450000000466,
          "durationTicks": 96,
          "midi": 43,
          "name": "G2",
          "ticks": 71712,
          "time": 86.19222149999999,
          "velocity": 0.6929133858267716
        },
        {
          "duration": 0.3461534999999998,
          "durationTicks": 288,
          "midi": 45,
          "name": "A2",
          "ticks": 71808,
          "time": 86.30760599999999,
          "velocity": 0.6929133858267716
        },
        {
          "duration": 0.11538449999999045,
          "durationTicks": 96,
          "midi": 43,
          "name": "G2",
          "ticks": 72096,
          "time": 86.65375949999999,
          "velocity": 0.6929133858267716
        },
        {
          "duration": 0.46153800000000444,
          "durationTicks": 384,
          "midi": 40,
          "name": "E2",
          "ticks": 72192,
          "time": 86.76914399999998,
          "velocity": 0.6929133858267716
        },
        {
          "duration": 0.46153800000000444,
          "durationTicks": 384,
          "midi": 40,
          "name": "E2",
          "ticks": 72576,
          "time": 87.23068199999999,
          "velocity": 0.6929133858267716
        },
        {
          "duration": 0.3461534999999998,
          "durationTicks": 288,
          "midi": 40,
          "name": "E2",
          "ticks": 72960,
          "time": 87.69221999999999,
          "velocity": 0.6929133858267716
        },
        {
          "duration": 0.11538449999999045,
          "durationTicks": 96,
          "midi": 43,
          "name": "G2",
          "ticks": 73248,
          "time": 88.03837349999999,
          "velocity": 0.6929133858267716
        },
        {
          "duration": 0.346153500000014,
          "durationTicks": 288,
          "midi": 45,
          "name": "A2",
          "ticks": 73344,
          "time": 88.15375799999998,
          "velocity": 0.6929133858267716
        },
        {
          "duration": 0.11538449999999045,
          "durationTicks": 96,
          "midi": 43,
          "name": "G2",
          "ticks": 73632,
          "time": 88.4999115,
          "velocity": 0.6929133858267716
        },
        {
          "duration": 0.46153800000000444,
          "durationTicks": 384,
          "midi": 40,
          "name": "E2",
          "ticks": 73728,
          "time": 88.61529599999999,
          "velocity": 0.6929133858267716
        },
        {
          "duration": 0.46153799999999023,
          "durationTicks": 384,
          "midi": 40,
          "name": "E2",
          "ticks": 74112,
          "time": 89.07683399999999,
          "velocity": 0.6929133858267716
        },
        {
          "duration": 0.346153500000014,
          "durationTicks": 288,
          "midi": 40,
          "name": "E2",
          "ticks": 74496,
          "time": 89.53837199999998,
          "velocity": 0.6929133858267716
        },
        {
          "duration": 0.11538449999999045,
          "durationTicks": 96,
          "midi": 43,
          "name": "G2",
          "ticks": 74784,
          "time": 89.8845255,
          "velocity": 0.6929133858267716
        },
        {
          "duration": 0.3461534999999998,
          "durationTicks": 288,
          "midi": 45,
          "name": "A2",
          "ticks": 74880,
          "time": 89.99990999999999,
          "velocity": 0.6929133858267716
        },
        {
          "duration": 0.11538450000000466,
          "durationTicks": 96,
          "midi": 43,
          "name": "G2",
          "ticks": 75168,
          "time": 90.34606349999999,
          "velocity": 0.6929133858267716
        },
        {
          "duration": 0.46153799999999023,
          "durationTicks": 384,
          "midi": 40,
          "name": "E2",
          "ticks": 75264,
          "time": 90.46144799999999,
          "velocity": 0.6929133858267716
        },
        {
          "duration": 0.46153800000001866,
          "durationTicks": 384,
          "midi": 40,
          "name": "E2",
          "ticks": 75648,
          "time": 90.92298599999998,
          "velocity": 0.6929133858267716
        },
        {
          "duration": 0.34615349999998557,
          "durationTicks": 288,
          "midi": 40,
          "name": "E2",
          "ticks": 76032,
          "time": 91.384524,
          "velocity": 0.6929133858267716
        },
        {
          "duration": 0.11538450000000466,
          "durationTicks": 96,
          "midi": 43,
          "name": "G2",
          "ticks": 76320,
          "time": 91.73067749999998,
          "velocity": 0.6929133858267716
        },
        {
          "duration": 0.3461534999999998,
          "durationTicks": 288,
          "midi": 45,
          "name": "A2",
          "ticks": 76416,
          "time": 91.84606199999999,
          "velocity": 0.6929133858267716
        },
        {
          "duration": 0.11538449999999045,
          "durationTicks": 96,
          "midi": 43,
          "name": "G2",
          "ticks": 76704,
          "time": 92.19221549999999,
          "velocity": 0.6929133858267716
        },
        {
          "duration": 0.46153800000001866,
          "durationTicks": 384,
          "midi": 40,
          "name": "E2",
          "ticks": 76800,
          "time": 92.30759999999998,
          "velocity": 0.6929133858267716
        },
        {
          "duration": 0.46153799999999023,
          "durationTicks": 384,
          "midi": 40,
          "name": "E2",
          "ticks": 77184,
          "time": 92.769138,
          "velocity": 0.6929133858267716
        },
        {
          "duration": 0.3461534999999998,
          "durationTicks": 288,
          "midi": 40,
          "name": "E2",
          "ticks": 77568,
          "time": 93.23067599999999,
          "velocity": 0.6929133858267716
        },
        {
          "duration": 0.11538449999999045,
          "durationTicks": 96,
          "midi": 43,
          "name": "G2",
          "ticks": 77856,
          "time": 93.57682949999999,
          "velocity": 0.6929133858267716
        },
        {
          "duration": 0.346153500000014,
          "durationTicks": 288,
          "midi": 45,
          "name": "A2",
          "ticks": 77952,
          "time": 93.69221399999998,
          "velocity": 0.6929133858267716
        },
        {
          "duration": 0.11538450000000466,
          "durationTicks": 96,
          "midi": 43,
          "name": "G2",
          "ticks": 78240,
          "time": 94.03836749999999,
          "velocity": 0.6929133858267716
        },
        {
          "duration": 0.46153799999999023,
          "durationTicks": 384,
          "midi": 47,
          "name": "B2",
          "ticks": 78336,
          "time": 94.153752,
          "velocity": 0.6929133858267716
        },
        {
          "duration": 0.46153799999999023,
          "durationTicks": 384,
          "midi": 47,
          "name": "B2",
          "ticks": 78720,
          "time": 94.61528999999999,
          "velocity": 0.6929133858267716
        },
        {
          "duration": 0.46153800000001866,
          "durationTicks": 384,
          "midi": 47,
          "name": "B2",
          "ticks": 79104,
          "time": 95.07682799999998,
          "velocity": 0.6929133858267716
        },
        {
          "duration": 0.46153799999999023,
          "durationTicks": 384,
          "midi": 47,
          "name": "B2",
          "ticks": 79488,
          "time": 95.538366,
          "velocity": 0.6929133858267716
        },
        {
          "duration": 0.46153800000000444,
          "durationTicks": 384,
          "midi": 35,
          "name": "B1",
          "ticks": 79872,
          "time": 95.99990399999999,
          "velocity": 0.6929133858267716
        },
        {
          "duration": 0.46153800000000444,
          "durationTicks": 384,
          "midi": 35,
          "name": "B1",
          "ticks": 80256,
          "time": 96.46144199999999,
          "velocity": 0.6929133858267716
        },
        {
          "duration": 0.30769200000000296,
          "durationTicks": 256,
          "midi": 35,
          "name": "B1",
          "ticks": 80640,
          "time": 96.92298,
          "velocity": 0.6929133858267716
        },
        {
          "duration": 0.15384599999998727,
          "durationTicks": 128,
          "midi": 35,
          "name": "B1",
          "ticks": 80896,
          "time": 97.230672,
          "velocity": 0.6929133858267716
        },
        {
          "duration": 0.30769200000000296,
          "durationTicks": 256,
          "midi": 35,
          "name": "B1",
          "ticks": 81024,
          "time": 97.38451799999999,
          "velocity": 0.6929133858267716
        },
        {
          "duration": 0.15384600000000148,
          "durationTicks": 128,
          "midi": 35,
          "name": "B1",
          "ticks": 81280,
          "time": 97.69220999999999,
          "velocity": 0.6929133858267716
        },
        {
          "duration": 0.30769200000000296,
          "durationTicks": 256,
          "midi": 35,
          "name": "B1",
          "ticks": 81408,
          "time": 97.84605599999999,
          "velocity": 0.6929133858267716
        },
        {
          "duration": 0.15384600000000148,
          "durationTicks": 128,
          "midi": 35,
          "name": "B1",
          "ticks": 81664,
          "time": 98.153748,
          "velocity": 0.6929133858267716
        },
        {
          "duration": 0.30769200000000296,
          "durationTicks": 256,
          "midi": 35,
          "name": "B1",
          "ticks": 81792,
          "time": 98.307594,
          "velocity": 0.6929133858267716
        },
        {
          "duration": 0.15384599999998727,
          "durationTicks": 128,
          "midi": 35,
          "name": "B1",
          "ticks": 82048,
          "time": 98.615286,
          "velocity": 0.6929133858267716
        },
        {
          "duration": 0.30769200000000296,
          "durationTicks": 256,
          "midi": 35,
          "name": "B1",
          "ticks": 82176,
          "time": 98.76913199999998,
          "velocity": 0.6929133858267716
        },
        {
          "duration": 0.15384599999998727,
          "durationTicks": 128,
          "midi": 40,
          "name": "E2",
          "ticks": 82416,
          "time": 99.05759325,
          "velocity": 0.6929133858267716
        },
        {
          "duration": 0.26923050000000615,
          "durationTicks": 224,
          "midi": 40,
          "name": "E2",
          "ticks": 82560,
          "time": 99.23066999999999,
          "velocity": 0.6929133858267716
        },
        {
          "duration": 0.173076750000007,
          "durationTicks": 144,
          "midi": 40,
          "name": "E2",
          "ticks": 82800,
          "time": 99.51913124999999,
          "velocity": 0.6929133858267716
        },
        {
          "duration": 0.46153799999999023,
          "durationTicks": 384,
          "midi": 35,
          "name": "B1",
          "ticks": 82944,
          "time": 99.692208,
          "velocity": 0.6929133858267716
        },
        {
          "duration": 0.46153800000000444,
          "durationTicks": 384,
          "midi": 35,
          "name": "B1",
          "ticks": 83328,
          "time": 100.15374599999998,
          "velocity": 0.6929133858267716
        },
        {
          "duration": 0.30769200000000296,
          "durationTicks": 256,
          "midi": 35,
          "name": "B1",
          "ticks": 83712,
          "time": 100.61528399999999,
          "velocity": 0.6929133858267716
        },
        {
          "duration": 0.15384600000000148,
          "durationTicks": 128,
          "midi": 35,
          "name": "B1",
          "ticks": 83968,
          "time": 100.92297599999999,
          "velocity": 0.6929133858267716
        },
        {
          "duration": 0.30769200000000296,
          "durationTicks": 256,
          "midi": 35,
          "name": "B1",
          "ticks": 84096,
          "time": 101.07682199999999,
          "velocity": 0.6929133858267716
        },
        {
          "duration": 0.15384599999998727,
          "durationTicks": 128,
          "midi": 35,
          "name": "B1",
          "ticks": 84352,
          "time": 101.384514,
          "velocity": 0.6929133858267716
        },
        {
          "duration": 0.30769200000000296,
          "durationTicks": 256,
          "midi": 35,
          "name": "B1",
          "ticks": 84480,
          "time": 101.53835999999998,
          "velocity": 0.6929133858267716
        },
        {
          "duration": 0.15384600000000148,
          "durationTicks": 128,
          "midi": 35,
          "name": "B1",
          "ticks": 84736,
          "time": 101.84605199999999,
          "velocity": 0.6929133858267716
        },
        {
          "duration": 0.30769200000000296,
          "durationTicks": 256,
          "midi": 35,
          "name": "B1",
          "ticks": 84864,
          "time": 101.99989799999999,
          "velocity": 0.6929133858267716
        },
        {
          "duration": 0.15384600000000148,
          "durationTicks": 128,
          "midi": 35,
          "name": "B1",
          "ticks": 85120,
          "time": 102.30758999999999,
          "velocity": 0.6929133858267716
        },
        {
          "duration": 0.30769200000000296,
          "durationTicks": 256,
          "midi": 35,
          "name": "B1",
          "ticks": 85248,
          "time": 102.46143599999999,
          "velocity": 0.6929133858267716
        },
        {
          "duration": 0.15384600000000148,
          "durationTicks": 128,
          "midi": 40,
          "name": "E2",
          "ticks": 85488,
          "time": 102.74989724999999,
          "velocity": 0.6929133858267716
        },
        {
          "duration": 0.26923050000000615,
          "durationTicks": 224,
          "midi": 40,
          "name": "E2",
          "ticks": 85632,
          "time": 102.92297399999998,
          "velocity": 0.6929133858267716
        },
        {
          "duration": 0.16346137499999713,
          "durationTicks": 136,
          "midi": 40,
          "name": "E2",
          "ticks": 85872,
          "time": 103.21143525,
          "velocity": 0.6929133858267716
        },
        {
          "duration": 0.46153800000000444,
          "durationTicks": 384,
          "midi": 35,
          "name": "B1",
          "ticks": 86016,
          "time": 103.38451199999999,
          "velocity": 0.6929133858267716
        },
        {
          "duration": 0.46153799999999023,
          "durationTicks": 384,
          "midi": 35,
          "name": "B1",
          "ticks": 86400,
          "time": 103.84604999999999,
          "velocity": 0.6929133858267716
        },
        {
          "duration": 0.30769200000000296,
          "durationTicks": 256,
          "midi": 35,
          "name": "B1",
          "ticks": 86784,
          "time": 104.30758799999998,
          "velocity": 0.6929133858267716
        },
        {
          "duration": 0.15384600000000148,
          "durationTicks": 128,
          "midi": 35,
          "name": "B1",
          "ticks": 87040,
          "time": 104.61527999999998,
          "velocity": 0.6929133858267716
        },
        {
          "duration": 0.30769200000000296,
          "durationTicks": 256,
          "midi": 35,
          "name": "B1",
          "ticks": 87168,
          "time": 104.76912599999999,
          "velocity": 0.6929133858267716
        },
        {
          "duration": 0.15384600000000148,
          "durationTicks": 128,
          "midi": 35,
          "name": "B1",
          "ticks": 87424,
          "time": 105.07681799999999,
          "velocity": 0.6929133858267716
        },
        {
          "duration": 0.30769200000000296,
          "durationTicks": 256,
          "midi": 35,
          "name": "B1",
          "ticks": 87552,
          "time": 105.23066399999999,
          "velocity": 0.6929133858267716
        },
        {
          "duration": 0.15384599999998727,
          "durationTicks": 128,
          "midi": 35,
          "name": "B1",
          "ticks": 87808,
          "time": 105.538356,
          "velocity": 0.6929133858267716
        },
        {
          "duration": 0.30769200000000296,
          "durationTicks": 256,
          "midi": 35,
          "name": "B1",
          "ticks": 87936,
          "time": 105.69220199999998,
          "velocity": 0.6929133858267716
        },
        {
          "duration": 0.15384600000000148,
          "durationTicks": 128,
          "midi": 35,
          "name": "B1",
          "ticks": 88192,
          "time": 105.99989399999998,
          "velocity": 0.6929133858267716
        },
        {
          "duration": 0.30769200000000296,
          "durationTicks": 256,
          "midi": 35,
          "name": "B1",
          "ticks": 88320,
          "time": 106.15373999999998,
          "velocity": 0.6929133858267716
        },
        {
          "duration": 0.15384600000000148,
          "durationTicks": 128,
          "midi": 40,
          "name": "E2",
          "ticks": 88560,
          "time": 106.44220124999998,
          "velocity": 0.6929133858267716
        },
        {
          "duration": 0.26923049999999193,
          "durationTicks": 224,
          "midi": 40,
          "name": "E2",
          "ticks": 88704,
          "time": 106.61527799999999,
          "velocity": 0.6929133858267716
        },
        {
          "duration": 0.17307674999999278,
          "durationTicks": 144,
          "midi": 40,
          "name": "E2",
          "ticks": 88944,
          "time": 106.90373924999999,
          "velocity": 0.6929133858267716
        },
        {
          "duration": 0.46153800000000444,
          "durationTicks": 384,
          "midi": 35,
          "name": "B1",
          "ticks": 89088,
          "time": 107.07681599999998,
          "velocity": 0.6929133858267716
        },
        {
          "duration": 0.46153800000000444,
          "durationTicks": 384,
          "midi": 35,
          "name": "B1",
          "ticks": 89472,
          "time": 107.53835399999998,
          "velocity": 0.6929133858267716
        },
        {
          "duration": 0.30769200000000296,
          "durationTicks": 256,
          "midi": 35,
          "name": "B1",
          "ticks": 89856,
          "time": 107.99989199999999,
          "velocity": 0.6929133858267716
        },
        {
          "duration": 0.15384599999998727,
          "durationTicks": 128,
          "midi": 35,
          "name": "B1",
          "ticks": 90112,
          "time": 108.30758399999999,
          "velocity": 0.6929133858267716
        },
        {
          "duration": 0.30769200000000296,
          "durationTicks": 256,
          "midi": 35,
          "name": "B1",
          "ticks": 90240,
          "time": 108.46142999999998,
          "velocity": 0.6929133858267716
        },
        {
          "duration": 0.15384600000000148,
          "durationTicks": 128,
          "midi": 35,
          "name": "B1",
          "ticks": 90496,
          "time": 108.76912199999998,
          "velocity": 0.6929133858267716
        },
        {
          "duration": 0.30769200000000296,
          "durationTicks": 256,
          "midi": 35,
          "name": "B1",
          "ticks": 90624,
          "time": 108.92296799999998,
          "velocity": 0.6929133858267716
        },
        {
          "duration": 0.15384600000000148,
          "durationTicks": 128,
          "midi": 35,
          "name": "B1",
          "ticks": 90880,
          "time": 109.23065999999999,
          "velocity": 0.6929133858267716
        },
        {
          "duration": 0.30769200000000296,
          "durationTicks": 256,
          "midi": 35,
          "name": "B1",
          "ticks": 91008,
          "time": 109.38450599999999,
          "velocity": 0.6929133858267716
        },
        {
          "duration": 0.15384600000000148,
          "durationTicks": 128,
          "midi": 35,
          "name": "B1",
          "ticks": 91264,
          "time": 109.69219799999999,
          "velocity": 0.6929133858267716
        },
        {
          "duration": 0.30769199999998875,
          "durationTicks": 256,
          "midi": 35,
          "name": "B1",
          "ticks": 91392,
          "time": 109.84604399999999,
          "velocity": 0.6929133858267716
        },
        {
          "duration": 0.15384600000000148,
          "durationTicks": 128,
          "midi": 40,
          "name": "E2",
          "ticks": 91632,
          "time": 110.13450524999999,
          "velocity": 0.6929133858267716
        },
        {
          "duration": 0.26923050000000615,
          "durationTicks": 224,
          "midi": 40,
          "name": "E2",
          "ticks": 91776,
          "time": 110.30758199999998,
          "velocity": 0.6929133858267716
        },
        {
          "duration": 0.173076750000007,
          "durationTicks": 144,
          "midi": 40,
          "name": "E2",
          "ticks": 92016,
          "time": 110.59604324999998,
          "velocity": 0.6929133858267716
        },
        {
          "duration": 0.46153800000000444,
          "durationTicks": 384,
          "midi": 33,
          "name": "A1",
          "ticks": 92160,
          "time": 110.76911999999999,
          "velocity": 0.6929133858267716
        },
        {
          "duration": 0.46153799999999023,
          "durationTicks": 384,
          "midi": 33,
          "name": "A1",
          "ticks": 92544,
          "time": 111.23065799999999,
          "velocity": 0.6929133858267716
        },
        {
          "duration": 0.30769200000000296,
          "durationTicks": 256,
          "midi": 33,
          "name": "A1",
          "ticks": 92928,
          "time": 111.69219599999998,
          "velocity": 0.6929133858267716
        },
        {
          "duration": 0.15384600000000148,
          "durationTicks": 128,
          "midi": 33,
          "name": "A1",
          "ticks": 93184,
          "time": 111.99988799999998,
          "velocity": 0.6929133858267716
        },
        {
          "duration": 0.30769200000000296,
          "durationTicks": 256,
          "midi": 33,
          "name": "A1",
          "ticks": 93312,
          "time": 112.15373399999999,
          "velocity": 0.6929133858267716
        },
        {
          "duration": 0.15384600000000148,
          "durationTicks": 128,
          "midi": 33,
          "name": "A1",
          "ticks": 93568,
          "time": 112.46142599999999,
          "velocity": 0.6929133858267716
        },
        {
          "duration": 0.30769199999998875,
          "durationTicks": 256,
          "midi": 33,
          "name": "A1",
          "ticks": 93696,
          "time": 112.61527199999999,
          "velocity": 0.6929133858267716
        },
        {
          "duration": 0.15384600000000148,
          "durationTicks": 128,
          "midi": 33,
          "name": "A1",
          "ticks": 93952,
          "time": 112.92296399999998,
          "velocity": 0.6929133858267716
        },
        {
          "duration": 0.30769200000000296,
          "durationTicks": 256,
          "midi": 33,
          "name": "A1",
          "ticks": 94080,
          "time": 113.07680999999998,
          "velocity": 0.6929133858267716
        },
        {
          "duration": 0.15384600000000148,
          "durationTicks": 128,
          "midi": 33,
          "name": "A1",
          "ticks": 94336,
          "time": 113.38450199999998,
          "velocity": 0.6929133858267716
        },
        {
          "duration": 0.30769200000000296,
          "durationTicks": 256,
          "midi": 33,
          "name": "A1",
          "ticks": 94464,
          "time": 113.53834799999998,
          "velocity": 0.6929133858267716
        },
        {
          "duration": 0.15384600000000148,
          "durationTicks": 128,
          "midi": 38,
          "name": "D2",
          "ticks": 94704,
          "time": 113.82680924999998,
          "velocity": 0.6929133858267716
        },
        {
          "duration": 0.26923049999999193,
          "durationTicks": 224,
          "midi": 38,
          "name": "D2",
          "ticks": 94848,
          "time": 113.99988599999999,
          "velocity": 0.6929133858267716
        },
        {
          "duration": 0.15384600000000148,
          "durationTicks": 128,
          "midi": 38,
          "name": "D2",
          "ticks": 95088,
          "time": 114.28834724999999,
          "velocity": 0.6929133858267716
        },
        {
          "duration": 0.46153800000000444,
          "durationTicks": 384,
          "midi": 33,
          "name": "A1",
          "ticks": 95232,
          "time": 114.46142399999998,
          "velocity": 0.6929133858267716
        },
        {
          "duration": 0.46153800000000444,
          "durationTicks": 384,
          "midi": 33,
          "name": "A1",
          "ticks": 95616,
          "time": 114.92296199999998,
          "velocity": 0.6929133858267716
        },
        {
          "duration": 0.30769200000000296,
          "durationTicks": 256,
          "midi": 33,
          "name": "A1",
          "ticks": 96000,
          "time": 115.38449999999999,
          "velocity": 0.6929133858267716
        },
        {
          "duration": 0.15384600000000148,
          "durationTicks": 128,
          "midi": 33,
          "name": "A1",
          "ticks": 96256,
          "time": 115.69219199999999,
          "velocity": 0.6929133858267716
        },
        {
          "duration": 0.30769199999998875,
          "durationTicks": 256,
          "midi": 33,
          "name": "A1",
          "ticks": 96384,
          "time": 115.846038,
          "velocity": 0.6929133858267716
        },
        {
          "duration": 0.15384600000000148,
          "durationTicks": 128,
          "midi": 33,
          "name": "A1",
          "ticks": 96640,
          "time": 116.15372999999998,
          "velocity": 0.6929133858267716
        },
        {
          "duration": 0.30769200000000296,
          "durationTicks": 256,
          "midi": 33,
          "name": "A1",
          "ticks": 96768,
          "time": 116.30757599999998,
          "velocity": 0.6929133858267716
        },
        {
          "duration": 0.15384600000000148,
          "durationTicks": 128,
          "midi": 33,
          "name": "A1",
          "ticks": 97024,
          "time": 116.61526799999999,
          "velocity": 0.6929133858267716
        },
        {
          "duration": 0.30769200000000296,
          "durationTicks": 256,
          "midi": 33,
          "name": "A1",
          "ticks": 97152,
          "time": 116.76911399999999,
          "velocity": 0.6929133858267716
        },
        {
          "duration": 0.15384600000000148,
          "durationTicks": 128,
          "midi": 33,
          "name": "A1",
          "ticks": 97408,
          "time": 117.07680599999999,
          "velocity": 0.6929133858267716
        },
        {
          "duration": 0.30769199999998875,
          "durationTicks": 256,
          "midi": 33,
          "name": "A1",
          "ticks": 97536,
          "time": 117.23065199999999,
          "velocity": 0.6929133858267716
        },
        {
          "duration": 0.15384600000000148,
          "durationTicks": 128,
          "midi": 38,
          "name": "D2",
          "ticks": 97776,
          "time": 117.51911324999999,
          "velocity": 0.6929133858267716
        },
        {
          "duration": 0.26923050000000615,
          "durationTicks": 224,
          "midi": 38,
          "name": "D2",
          "ticks": 97920,
          "time": 117.69218999999998,
          "velocity": 0.6929133858267716
        },
        {
          "duration": 0.15384600000000148,
          "durationTicks": 128,
          "midi": 38,
          "name": "D2",
          "ticks": 98160,
          "time": 117.98065124999998,
          "velocity": 0.6929133858267716
        },
        {
          "duration": 0.46153800000000444,
          "durationTicks": 384,
          "midi": 40,
          "name": "E2",
          "ticks": 98304,
          "time": 118.15372799999999,
          "velocity": 0.6929133858267716
        },
        {
          "duration": 0.46153799999999023,
          "durationTicks": 384,
          "midi": 40,
          "name": "E2",
          "ticks": 98688,
          "time": 118.61526599999999,
          "velocity": 0.6929133858267716
        },
        {
          "duration": 0.3461534999999998,
          "durationTicks": 288,
          "midi": 40,
          "name": "E2",
          "ticks": 99072,
          "time": 119.07680399999998,
          "velocity": 0.6929133858267716
        },
        {
          "duration": 0.11538450000000466,
          "durationTicks": 96,
          "midi": 43,
          "name": "G2",
          "ticks": 99360,
          "time": 119.42295749999998,
          "velocity": 0.6929133858267716
        },
        {
          "duration": 0.3461534999999998,
          "durationTicks": 288,
          "midi": 45,
          "name": "A2",
          "ticks": 99456,
          "time": 119.53834199999999,
          "velocity": 0.6929133858267716
        },
        {
          "duration": 0.11538450000000466,
          "durationTicks": 96,
          "midi": 43,
          "name": "G2",
          "ticks": 99744,
          "time": 119.88449549999999,
          "velocity": 0.6929133858267716
        },
        {
          "duration": 0.46153799999999023,
          "durationTicks": 384,
          "midi": 40,
          "name": "E2",
          "ticks": 99840,
          "time": 119.99987999999999,
          "velocity": 0.6929133858267716
        },
        {
          "duration": 0.46153800000000444,
          "durationTicks": 384,
          "midi": 40,
          "name": "E2",
          "ticks": 100224,
          "time": 120.46141799999998,
          "velocity": 0.6929133858267716
        },
        {
          "duration": 0.3461534999999998,
          "durationTicks": 288,
          "midi": 40,
          "name": "E2",
          "ticks": 100608,
          "time": 120.92295599999999,
          "velocity": 0.6929133858267716
        },
        {
          "duration": 0.11538450000000466,
          "durationTicks": 96,
          "midi": 43,
          "name": "G2",
          "ticks": 100896,
          "time": 121.26910949999998,
          "velocity": 0.6929133858267716
        },
        {
          "duration": 0.3461534999999998,
          "durationTicks": 288,
          "midi": 45,
          "name": "A2",
          "ticks": 100992,
          "time": 121.38449399999999,
          "velocity": 0.6929133858267716
        },
        {
          "duration": 0.11538449999999045,
          "durationTicks": 96,
          "midi": 43,
          "name": "G2",
          "ticks": 101280,
          "time": 121.73064749999999,
          "velocity": 0.6929133858267716
        },
        {
          "duration": 0.46153800000000444,
          "durationTicks": 384,
          "midi": 40,
          "name": "E2",
          "ticks": 101376,
          "time": 121.84603199999998,
          "velocity": 0.6929133858267716
        },
        {
          "duration": 0.46153800000000444,
          "durationTicks": 384,
          "midi": 40,
          "name": "E2",
          "ticks": 101760,
          "time": 122.30756999999998,
          "velocity": 0.6929133858267716
        },
        {
          "duration": 0.3461534999999998,
          "durationTicks": 288,
          "midi": 40,
          "name": "E2",
          "ticks": 102144,
          "time": 122.76910799999999,
          "velocity": 0.6929133858267716
        },
        {
          "duration": 0.11538449999999045,
          "durationTicks": 96,
          "midi": 43,
          "name": "G2",
          "ticks": 102432,
          "time": 123.11526149999999,
          "velocity": 0.6929133858267716
        },
        {
          "duration": 0.346153500000014,
          "durationTicks": 288,
          "midi": 45,
          "name": "A2",
          "ticks": 102528,
          "time": 123.23064599999998,
          "velocity": 0.6929133858267716
        },
        {
          "duration": 0.11538449999999045,
          "durationTicks": 96,
          "midi": 43,
          "name": "G2",
          "ticks": 102816,
          "time": 123.57679949999999,
          "velocity": 0.6929133858267716
        },
        {
          "duration": 0.46153800000000444,
          "durationTicks": 384,
          "midi": 40,
          "name": "E2",
          "ticks": 102912,
          "time": 123.69218399999998,
          "velocity": 0.6929133858267716
        },
        {
          "duration": 0.46153799999999023,
          "durationTicks": 384,
          "midi": 40,
          "name": "E2",
          "ticks": 103296,
          "time": 124.15372199999999,
          "velocity": 0.6929133858267716
        },
        {
          "duration": 0.346153500000014,
          "durationTicks": 288,
          "midi": 40,
          "name": "E2",
          "ticks": 103680,
          "time": 124.61525999999998,
          "velocity": 0.6929133858267716
        },
        {
          "duration": 0.11538449999999045,
          "durationTicks": 96,
          "midi": 43,
          "name": "G2",
          "ticks": 103968,
          "time": 124.96141349999999,
          "velocity": 0.6929133858267716
        },
        {
          "duration": 0.3461534999999998,
          "durationTicks": 288,
          "midi": 45,
          "name": "A2",
          "ticks": 104064,
          "time": 125.07679799999998,
          "velocity": 0.6929133858267716
        },
        {
          "duration": 0.11538450000000466,
          "durationTicks": 96,
          "midi": 43,
          "name": "G2",
          "ticks": 104352,
          "time": 125.42295149999998,
          "velocity": 0.6929133858267716
        },
        {
          "duration": 0.46153799999999023,
          "durationTicks": 384,
          "midi": 40,
          "name": "E2",
          "ticks": 104448,
          "time": 125.53833599999999,
          "velocity": 0.6929133858267716
        },
        {
          "duration": 0.46153800000000444,
          "durationTicks": 384,
          "midi": 40,
          "name": "E2",
          "ticks": 104832,
          "time": 125.99987399999998,
          "velocity": 0.6929133858267716
        },
        {
          "duration": 0.3461534999999998,
          "durationTicks": 288,
          "midi": 40,
          "name": "E2",
          "ticks": 105216,
          "time": 126.46141199999998,
          "velocity": 0.6929133858267716
        },
        {
          "duration": 0.11538450000000466,
          "durationTicks": 96,
          "midi": 43,
          "name": "G2",
          "ticks": 105504,
          "time": 126.80756549999998,
          "velocity": 0.6929133858267716
        },
        {
          "duration": 0.3461534999999998,
          "durationTicks": 288,
          "midi": 45,
          "name": "A2",
          "ticks": 105600,
          "time": 126.92294999999999,
          "velocity": 0.6929133858267716
        },
        {
          "duration": 0.11538449999999045,
          "durationTicks": 96,
          "midi": 43,
          "name": "G2",
          "ticks": 105888,
          "time": 127.26910349999999,
          "velocity": 0.6929133858267716
        },
        {
          "duration": 0.46153800000000444,
          "durationTicks": 384,
          "midi": 40,
          "name": "E2",
          "ticks": 105984,
          "time": 127.38448799999998,
          "velocity": 0.6929133858267716
        },
        {
          "duration": 0.46153800000000444,
          "durationTicks": 384,
          "midi": 40,
          "name": "E2",
          "ticks": 106368,
          "time": 127.84602599999998,
          "velocity": 0.6929133858267716
        },
        {
          "duration": 0.34615349999998557,
          "durationTicks": 288,
          "midi": 40,
          "name": "E2",
          "ticks": 106752,
          "time": 128.30756399999999,
          "velocity": 0.6929133858267716
        },
        {
          "duration": 0.11538450000000466,
          "durationTicks": 96,
          "midi": 43,
          "name": "G2",
          "ticks": 107040,
          "time": 128.65371749999997,
          "velocity": 0.6929133858267716
        },
        {
          "duration": 0.346153500000014,
          "durationTicks": 288,
          "midi": 45,
          "name": "A2",
          "ticks": 107136,
          "time": 128.76910199999998,
          "velocity": 0.6929133858267716
        },
        {
          "duration": 0.11538450000000466,
          "durationTicks": 96,
          "midi": 43,
          "name": "G2",
          "ticks": 107424,
          "time": 129.1152555,
          "velocity": 0.6929133858267716
        },
        {
          "duration": 0.46153799999999023,
          "durationTicks": 384,
          "midi": 40,
          "name": "E2",
          "ticks": 107520,
          "time": 129.23064,
          "velocity": 0.6929133858267716
        },
        {
          "duration": 0.46153799999999023,
          "durationTicks": 384,
          "midi": 40,
          "name": "E2",
          "ticks": 107904,
          "time": 129.69217799999998,
          "velocity": 0.6929133858267716
        },
        {
          "duration": 0.346153500000014,
          "durationTicks": 288,
          "midi": 40,
          "name": "E2",
          "ticks": 108288,
          "time": 130.15371599999997,
          "velocity": 0.6929133858267716
        },
        {
          "duration": 0.11538450000000466,
          "durationTicks": 96,
          "midi": 43,
          "name": "G2",
          "ticks": 108576,
          "time": 130.4998695,
          "velocity": 0.6929133858267716
        },
        {
          "duration": 0.34615349999998557,
          "durationTicks": 288,
          "midi": 45,
          "name": "A2",
          "ticks": 108672,
          "time": 130.615254,
          "velocity": 0.6929133858267716
        },
        {
          "duration": 0.11538450000000466,
          "durationTicks": 96,
          "midi": 43,
          "name": "G2",
          "ticks": 108960,
          "time": 130.96140749999998,
          "velocity": 0.6929133858267716
        },
        {
          "duration": 0.46153799999999023,
          "durationTicks": 384,
          "midi": 40,
          "name": "E2",
          "ticks": 109056,
          "time": 131.07679199999998,
          "velocity": 0.6929133858267716
        },
        {
          "duration": 0.46153800000001866,
          "durationTicks": 384,
          "midi": 40,
          "name": "E2",
          "ticks": 109440,
          "time": 131.53832999999997,
          "velocity": 0.6929133858267716
        },
        {
          "duration": 0.34615349999998557,
          "durationTicks": 288,
          "midi": 40,
          "name": "E2",
          "ticks": 109824,
          "time": 131.999868,
          "velocity": 0.6929133858267716
        },
        {
          "duration": 0.11538450000000466,
          "durationTicks": 96,
          "midi": 43,
          "name": "G2",
          "ticks": 110112,
          "time": 132.34602149999998,
          "velocity": 0.6929133858267716
        },
        {
          "duration": 0.34615349999998557,
          "durationTicks": 288,
          "midi": 45,
          "name": "A2",
          "ticks": 110208,
          "time": 132.46140599999998,
          "velocity": 0.6929133858267716
        },
        {
          "duration": 0.11538450000000466,
          "durationTicks": 96,
          "midi": 43,
          "name": "G2",
          "ticks": 110496,
          "time": 132.80755949999997,
          "velocity": 0.6929133858267716
        },
        {
          "duration": 0.46153800000001866,
          "durationTicks": 384,
          "midi": 40,
          "name": "E2",
          "ticks": 110592,
          "time": 132.92294399999997,
          "velocity": 0.6929133858267716
        },
        {
          "duration": 0.46153799999999023,
          "durationTicks": 384,
          "midi": 40,
          "name": "E2",
          "ticks": 110976,
          "time": 133.384482,
          "velocity": 0.6929133858267716
        },
        {
          "duration": 0.346153500000014,
          "durationTicks": 288,
          "midi": 40,
          "name": "E2",
          "ticks": 111360,
          "time": 133.84601999999998,
          "velocity": 0.6929133858267716
        },
        {
          "duration": 0.11538449999997624,
          "durationTicks": 96,
          "midi": 43,
          "name": "G2",
          "ticks": 111648,
          "time": 134.1921735,
          "velocity": 0.6929133858267716
        },
        {
          "duration": 0.346153500000014,
          "durationTicks": 288,
          "midi": 45,
          "name": "A2",
          "ticks": 111744,
          "time": 134.30755799999997,
          "velocity": 0.6929133858267716
        },
        {
          "duration": 0.11538450000000466,
          "durationTicks": 96,
          "midi": 43,
          "name": "G2",
          "ticks": 112032,
          "time": 134.6537115,
          "velocity": 0.6929133858267716
        },
        {
          "duration": 0.46153799999999023,
          "durationTicks": 384,
          "midi": 40,
          "name": "E2",
          "ticks": 112128,
          "time": 134.769096,
          "velocity": 0.6929133858267716
        },
        {
          "duration": 0.46153799999999023,
          "durationTicks": 384,
          "midi": 40,
          "name": "E2",
          "ticks": 112512,
          "time": 135.23063399999998,
          "velocity": 0.6929133858267716
        },
        {
          "duration": 0.346153500000014,
          "durationTicks": 288,
          "midi": 40,
          "name": "E2",
          "ticks": 112896,
          "time": 135.69217199999997,
          "velocity": 0.6929133858267716
        },
        {
          "duration": 0.11538450000000466,
          "durationTicks": 96,
          "midi": 43,
          "name": "G2",
          "ticks": 113184,
          "time": 136.03832549999998,
          "velocity": 0.6929133858267716
        },
        {
          "duration": 0.34615349999998557,
          "durationTicks": 288,
          "midi": 45,
          "name": "A2",
          "ticks": 113280,
          "time": 136.15371,
          "velocity": 0.6929133858267716
        },
        {
          "duration": 0.11538450000000466,
          "durationTicks": 96,
          "midi": 43,
          "name": "G2",
          "ticks": 113568,
          "time": 136.49986349999998,
          "velocity": 0.6929133858267716
        },
        {
          "duration": 0.46153799999999023,
          "durationTicks": 384,
          "midi": 40,
          "name": "E2",
          "ticks": 113664,
          "time": 136.61524799999998,
          "velocity": 0.6929133858267716
        },
        {
          "duration": 0.46153800000001866,
          "durationTicks": 384,
          "midi": 40,
          "name": "E2",
          "ticks": 114048,
          "time": 137.07678599999997,
          "velocity": 0.6929133858267716
        },
        {
          "duration": 0.34615349999998557,
          "durationTicks": 288,
          "midi": 40,
          "name": "E2",
          "ticks": 114432,
          "time": 137.538324,
          "velocity": 0.6929133858267716
        },
        {
          "duration": 0.11538450000000466,
          "durationTicks": 96,
          "midi": 43,
          "name": "G2",
          "ticks": 114720,
          "time": 137.88447749999997,
          "velocity": 0.6929133858267716
        },
        {
          "duration": 0.346153500000014,
          "durationTicks": 288,
          "midi": 45,
          "name": "A2",
          "ticks": 114816,
          "time": 137.99986199999998,
          "velocity": 0.6929133858267716
        },
        {
          "duration": 0.11538449999997624,
          "durationTicks": 96,
          "midi": 43,
          "name": "G2",
          "ticks": 115104,
          "time": 138.3460155,
          "velocity": 0.6929133858267716
        },
        {
          "duration": 0.46153800000001866,
          "durationTicks": 384,
          "midi": 40,
          "name": "E2",
          "ticks": 115200,
          "time": 138.46139999999997,
          "velocity": 0.6929133858267716
        },
        {
          "duration": 0.46153799999999023,
          "durationTicks": 384,
          "midi": 40,
          "name": "E2",
          "ticks": 115584,
          "time": 138.922938,
          "velocity": 0.6929133858267716
        },
        {
          "duration": 0.346153500000014,
          "durationTicks": 288,
          "midi": 40,
          "name": "E2",
          "ticks": 115968,
          "time": 139.38447599999998,
          "velocity": 0.6929133858267716
        },
        {
          "duration": 0.11538449999997624,
          "durationTicks": 96,
          "midi": 43,
          "name": "G2",
          "ticks": 116256,
          "time": 139.7306295,
          "velocity": 0.6929133858267716
        },
        {
          "duration": 0.346153500000014,
          "durationTicks": 288,
          "midi": 45,
          "name": "A2",
          "ticks": 116352,
          "time": 139.84601399999997,
          "velocity": 0.6929133858267716
        },
        {
          "duration": 0.11538450000000466,
          "durationTicks": 96,
          "midi": 43,
          "name": "G2",
          "ticks": 116640,
          "time": 140.19216749999998,
          "velocity": 0.6929133858267716
        },
        {
          "duration": 0.46153799999999023,
          "durationTicks": 384,
          "midi": 40,
          "name": "E2",
          "ticks": 116736,
          "time": 140.307552,
          "velocity": 0.6929133858267716
        },
        {
          "duration": 0.46153799999999023,
          "durationTicks": 384,
          "midi": 40,
          "name": "E2",
          "ticks": 117120,
          "time": 140.76908999999998,
          "velocity": 0.6929133858267716
        },
        {
          "duration": 0.346153500000014,
          "durationTicks": 288,
          "midi": 40,
          "name": "E2",
          "ticks": 117504,
          "time": 141.23062799999997,
          "velocity": 0.6929133858267716
        },
        {
          "duration": 0.11538450000000466,
          "durationTicks": 96,
          "midi": 43,
          "name": "G2",
          "ticks": 117792,
          "time": 141.57678149999998,
          "velocity": 0.6929133858267716
        },
        {
          "duration": 0.346153500000014,
          "durationTicks": 288,
          "midi": 45,
          "name": "A2",
          "ticks": 117888,
          "time": 141.692166,
          "velocity": 0.6929133858267716
        },
        {
          "duration": 0.11538449999997624,
          "durationTicks": 96,
          "midi": 43,
          "name": "G2",
          "ticks": 118176,
          "time": 142.0383195,
          "velocity": 0.6929133858267716
        },
        {
          "duration": 0.46153799999999023,
          "durationTicks": 384,
          "midi": 40,
          "name": "E2",
          "ticks": 118272,
          "time": 142.15370399999998,
          "velocity": 0.6929133858267716
        },
        {
          "duration": 0.46153800000001866,
          "durationTicks": 384,
          "midi": 40,
          "name": "E2",
          "ticks": 118656,
          "time": 142.61524199999997,
          "velocity": 0.6929133858267716
        },
        {
          "duration": 0.346153500000014,
          "durationTicks": 288,
          "midi": 40,
          "name": "E2",
          "ticks": 119040,
          "time": 143.07677999999999,
          "velocity": 0.6929133858267716
        },
        {
          "duration": 0.11538449999997624,
          "durationTicks": 96,
          "midi": 43,
          "name": "G2",
          "ticks": 119328,
          "time": 143.4229335,
          "velocity": 0.6929133858267716
        },
        {
          "duration": 0.346153500000014,
          "durationTicks": 288,
          "midi": 45,
          "name": "A2",
          "ticks": 119424,
          "time": 143.53831799999998,
          "velocity": 0.6929133858267716
        },
        {
          "duration": 0.11538449999997624,
          "durationTicks": 96,
          "midi": 43,
          "name": "G2",
          "ticks": 119712,
          "time": 143.8844715,
          "velocity": 0.6929133858267716
        },
        {
          "duration": 0.46153800000001866,
          "durationTicks": 384,
          "midi": 40,
          "name": "E2",
          "ticks": 119808,
          "time": 143.99985599999997,
          "velocity": 0.6929133858267716
        },
        {
          "duration": 0.46153799999999023,
          "durationTicks": 384,
          "midi": 40,
          "name": "E2",
          "ticks": 120192,
          "time": 144.46139399999998,
          "velocity": 0.6929133858267716
        },
        {
          "duration": 0.346153500000014,
          "durationTicks": 288,
          "midi": 40,
          "name": "E2",
          "ticks": 120576,
          "time": 144.92293199999997,
          "velocity": 0.6929133858267716
        },
        {
          "duration": 0.11538449999997624,
          "durationTicks": 96,
          "midi": 43,
          "name": "G2",
          "ticks": 120864,
          "time": 145.2690855,
          "velocity": 0.6929133858267716
        },
        {
          "duration": 0.346153500000014,
          "durationTicks": 288,
          "midi": 45,
          "name": "A2",
          "ticks": 120960,
          "time": 145.38446999999996,
          "velocity": 0.6929133858267716
        },
        {
          "duration": 0.11538450000000466,
          "durationTicks": 96,
          "midi": 43,
          "name": "G2",
          "ticks": 121248,
          "time": 145.73062349999998,
          "velocity": 0.6929133858267716
        },
        {
          "duration": 0.46153799999999023,
          "durationTicks": 384,
          "midi": 40,
          "name": "E2",
          "ticks": 121344,
          "time": 145.84600799999998,
          "velocity": 0.6929133858267716
        },
        {
          "duration": 0.46153800000001866,
          "durationTicks": 384,
          "midi": 40,
          "name": "E2",
          "ticks": 121728,
          "time": 146.30754599999997,
          "velocity": 0.6929133858267716
        },
        {
          "duration": 0.34615349999998557,
          "durationTicks": 288,
          "midi": 40,
          "name": "E2",
          "ticks": 122112,
          "time": 146.769084,
          "velocity": 0.6929133858267716
        },
        {
          "duration": 0.11538450000000466,
          "durationTicks": 96,
          "midi": 43,
          "name": "G2",
          "ticks": 122400,
          "time": 147.11523749999998,
          "velocity": 0.6929133858267716
        },
        {
          "duration": 0.346153500000014,
          "durationTicks": 288,
          "midi": 45,
          "name": "A2",
          "ticks": 122496,
          "time": 147.23062199999998,
          "velocity": 0.6929133858267716
        },
        {
          "duration": 0.11538449999997624,
          "durationTicks": 96,
          "midi": 43,
          "name": "G2",
          "ticks": 122784,
          "time": 147.5767755,
          "velocity": 0.6929133858267716
        },
        {
          "duration": 0.46153800000001866,
          "durationTicks": 384,
          "midi": 40,
          "name": "E2",
          "ticks": 122880,
          "time": 147.69215999999997,
          "velocity": 0.6929133858267716
        },
        {
          "duration": 0.46153799999999023,
          "durationTicks": 384,
          "midi": 40,
          "name": "E2",
          "ticks": 123264,
          "time": 148.153698,
          "velocity": 0.6929133858267716
        },
        {
          "duration": 0.346153500000014,
          "durationTicks": 288,
          "midi": 40,
          "name": "E2",
          "ticks": 123648,
          "time": 148.61523599999998,
          "velocity": 0.6929133858267716
        },
        {
          "duration": 0.11538449999997624,
          "durationTicks": 96,
          "midi": 43,
          "name": "G2",
          "ticks": 123936,
          "time": 148.9613895,
          "velocity": 0.6929133858267716
        },
        {
          "duration": 0.346153500000014,
          "durationTicks": 288,
          "midi": 45,
          "name": "A2",
          "ticks": 124032,
          "time": 149.07677399999997,
          "velocity": 0.6929133858267716
        },
        {
          "duration": 0.11538450000000466,
          "durationTicks": 96,
          "midi": 43,
          "name": "G2",
          "ticks": 124320,
          "time": 149.4229275,
          "velocity": 0.6929133858267716
        },
        {
          "duration": 0.46153799999999023,
          "durationTicks": 384,
          "midi": 40,
          "name": "E2",
          "ticks": 124416,
          "time": 149.538312,
          "velocity": 0.6929133858267716
        },
        {
          "duration": 0.46153799999999023,
          "durationTicks": 384,
          "midi": 40,
          "name": "E2",
          "ticks": 124800,
          "time": 149.99984999999998,
          "velocity": 0.6929133858267716
        },
        {
          "duration": 0.346153500000014,
          "durationTicks": 288,
          "midi": 40,
          "name": "E2",
          "ticks": 125184,
          "time": 150.46138799999997,
          "velocity": 0.6929133858267716
        },
        {
          "duration": 0.11538450000000466,
          "durationTicks": 96,
          "midi": 43,
          "name": "G2",
          "ticks": 125472,
          "time": 150.80754149999999,
          "velocity": 0.6929133858267716
        },
        {
          "duration": 0.34615349999998557,
          "durationTicks": 288,
          "midi": 45,
          "name": "A2",
          "ticks": 125568,
          "time": 150.922926,
          "velocity": 0.6929133858267716
        },
        {
          "duration": 0.11538450000000466,
          "durationTicks": 96,
          "midi": 43,
          "name": "G2",
          "ticks": 125856,
          "time": 151.26907949999998,
          "velocity": 0.6929133858267716
        },
        {
          "duration": 0.46153799999999023,
          "durationTicks": 384,
          "midi": 40,
          "name": "E2",
          "ticks": 125952,
          "time": 151.38446399999998,
          "velocity": 0.6929133858267716
        },
        {
          "duration": 0.46153800000001866,
          "durationTicks": 384,
          "midi": 40,
          "name": "E2",
          "ticks": 126336,
          "time": 151.84600199999997,
          "velocity": 0.6929133858267716
        },
        {
          "duration": 0.34615349999998557,
          "durationTicks": 288,
          "midi": 40,
          "name": "E2",
          "ticks": 126720,
          "time": 152.30754,
          "velocity": 0.6929133858267716
        },
        {
          "duration": 0.11538450000000466,
          "durationTicks": 96,
          "midi": 43,
          "name": "G2",
          "ticks": 127008,
          "time": 152.65369349999997,
          "velocity": 0.6929133858267716
        },
        {
          "duration": 0.346153500000014,
          "durationTicks": 288,
          "midi": 45,
          "name": "A2",
          "ticks": 127104,
          "time": 152.76907799999998,
          "velocity": 0.6929133858267716
        },
        {
          "duration": 0.11538449999997624,
          "durationTicks": 96,
          "midi": 43,
          "name": "G2",
          "ticks": 127392,
          "time": 153.1152315,
          "velocity": 0.6929133858267716
        },
        {
          "duration": 0.46153800000001866,
          "durationTicks": 384,
          "midi": 40,
          "name": "E2",
          "ticks": 127488,
          "time": 153.23061599999997,
          "velocity": 0.6929133858267716
        },
        {
          "duration": 0.46153799999999023,
          "durationTicks": 384,
          "midi": 40,
          "name": "E2",
          "ticks": 127872,
          "time": 153.692154,
          "velocity": 0.6929133858267716
        },
        {
          "duration": 0.346153500000014,
          "durationTicks": 288,
          "midi": 40,
          "name": "E2",
          "ticks": 128256,
          "time": 154.15369199999998,
          "velocity": 0.6929133858267716
        },
        {
          "duration": 0.11538449999997624,
          "durationTicks": 96,
          "midi": 43,
          "name": "G2",
          "ticks": 128544,
          "time": 154.4998455,
          "velocity": 0.6929133858267716
        },
        {
          "duration": 0.346153500000014,
          "durationTicks": 288,
          "midi": 45,
          "name": "A2",
          "ticks": 128640,
          "time": 154.61522999999997,
          "velocity": 0.6929133858267716
        },
        {
          "duration": 0.11538450000000466,
          "durationTicks": 96,
          "midi": 43,
          "name": "G2",
          "ticks": 128928,
          "time": 154.96138349999998,
          "velocity": 0.6929133858267716
        },
        {
          "duration": 0.46153799999999023,
          "durationTicks": 384,
          "midi": 40,
          "name": "E2",
          "ticks": 129024,
          "time": 155.076768,
          "velocity": 0.6929133858267716
        },
        {
          "duration": 0.46153799999999023,
          "durationTicks": 384,
          "midi": 40,
          "name": "E2",
          "ticks": 129408,
          "time": 155.53830599999998,
          "velocity": 0.6929133858267716
        },
        {
          "duration": 0.346153500000014,
          "durationTicks": 288,
          "midi": 40,
          "name": "E2",
          "ticks": 129792,
          "time": 155.99984399999997,
          "velocity": 0.6929133858267716
        },
        {
          "duration": 0.11538450000000466,
          "durationTicks": 96,
          "midi": 43,
          "name": "G2",
          "ticks": 130080,
          "time": 156.34599749999998,
          "velocity": 0.6929133858267716
        },
        {
          "duration": 0.34615349999998557,
          "durationTicks": 288,
          "midi": 45,
          "name": "A2",
          "ticks": 130176,
          "time": 156.461382,
          "velocity": 0.6929133858267716
        },
        {
          "duration": 0.11538450000000466,
          "durationTicks": 96,
          "midi": 43,
          "name": "G2",
          "ticks": 130464,
          "time": 156.80753549999997,
          "velocity": 0.6929133858267716
        },
        {
          "duration": 0.46153799999999023,
          "durationTicks": 384,
          "midi": 40,
          "name": "E2",
          "ticks": 130560,
          "time": 156.92291999999998,
          "velocity": 0.6929133858267716
        },
        {
          "duration": 0.46153800000001866,
          "durationTicks": 384,
          "midi": 40,
          "name": "E2",
          "ticks": 130944,
          "time": 157.38445799999997,
          "velocity": 0.6929133858267716
        },
        {
          "duration": 0.34615349999998557,
          "durationTicks": 288,
          "midi": 40,
          "name": "E2",
          "ticks": 131328,
          "time": 157.84599599999999,
          "velocity": 0.6929133858267716
        },
        {
          "duration": 0.11538450000000466,
          "durationTicks": 96,
          "midi": 43,
          "name": "G2",
          "ticks": 131616,
          "time": 158.19214949999997,
          "velocity": 0.6929133858267716
        },
        {
          "duration": 0.346153500000014,
          "durationTicks": 288,
          "midi": 45,
          "name": "A2",
          "ticks": 131712,
          "time": 158.30753399999998,
          "velocity": 0.6929133858267716
        },
        {
          "duration": 0.11538449999997624,
          "durationTicks": 96,
          "midi": 43,
          "name": "G2",
          "ticks": 132000,
          "time": 158.6536875,
          "velocity": 0.6929133858267716
        },
        {
          "duration": 0.46153800000001866,
          "durationTicks": 384,
          "midi": 40,
          "name": "E2",
          "ticks": 132096,
          "time": 158.76907199999997,
          "velocity": 0.6929133858267716
        },
        {
          "duration": 0.46153799999999023,
          "durationTicks": 384,
          "midi": 40,
          "name": "E2",
          "ticks": 132480,
          "time": 159.23060999999998,
          "velocity": 0.6929133858267716
        },
        {
          "duration": 0.346153500000014,
          "durationTicks": 288,
          "midi": 40,
          "name": "E2",
          "ticks": 132864,
          "time": 159.69214799999997,
          "velocity": 0.6929133858267716
        },
        {
          "duration": 0.11538450000000466,
          "durationTicks": 96,
          "midi": 43,
          "name": "G2",
          "ticks": 133152,
          "time": 160.0383015,
          "velocity": 0.6929133858267716
        },
        {
          "duration": 0.34615349999998557,
          "durationTicks": 288,
          "midi": 45,
          "name": "A2",
          "ticks": 133248,
          "time": 160.153686,
          "velocity": 0.6929133858267716
        },
        {
          "duration": 0.11538450000000466,
          "durationTicks": 96,
          "midi": 43,
          "name": "G2",
          "ticks": 133536,
          "time": 160.49983949999998,
          "velocity": 0.6929133858267716
        },
        {
          "duration": 0.15384599999998727,
          "durationTicks": 128,
          "midi": 40,
          "name": "E2",
          "ticks": 133632,
          "time": 160.61522399999998,
          "velocity": 0.6929133858267716
        },
        {
          "duration": 0.1538460000000157,
          "durationTicks": 128,
          "midi": 40,
          "name": "E2",
          "ticks": 133760,
          "time": 160.76906999999997,
          "velocity": 0.6929133858267716
        },
        {
          "duration": 0.15384599999998727,
          "durationTicks": 128,
          "midi": 40,
          "name": "E2",
          "ticks": 133888,
          "time": 160.922916,
          "velocity": 0.6929133858267716
        },
        {
          "duration": 0.1538460000000157,
          "durationTicks": 128,
          "midi": 40,
          "name": "E2",
          "ticks": 134016,
          "time": 161.07676199999997,
          "velocity": 0.6929133858267716
        },
        {
          "duration": 0.15384599999998727,
          "durationTicks": 128,
          "midi": 40,
          "name": "E2",
          "ticks": 134144,
          "time": 161.230608,
          "velocity": 0.6929133858267716
        },
        {
          "duration": 0.1538460000000157,
          "durationTicks": 128,
          "midi": 40,
          "name": "E2",
          "ticks": 134272,
          "time": 161.38445399999998,
          "velocity": 0.6929133858267716
        },
        {
          "duration": 0.15384599999998727,
          "durationTicks": 128,
          "midi": 40,
          "name": "E2",
          "ticks": 134400,
          "time": 161.5383,
          "velocity": 0.6929133858267716
        },
        {
          "duration": 0.15384599999998727,
          "durationTicks": 128,
          "midi": 40,
          "name": "E2",
          "ticks": 134528,
          "time": 161.69214599999998,
          "velocity": 0.6929133858267716
        },
        {
          "duration": 0.1538460000000157,
          "durationTicks": 128,
          "midi": 40,
          "name": "E2",
          "ticks": 134656,
          "time": 161.84599199999997,
          "velocity": 0.6929133858267716
        },
        {
          "duration": 0.15384599999998727,
          "durationTicks": 128,
          "midi": 40,
          "name": "E2",
          "ticks": 134784,
          "time": 161.99983799999998,
          "velocity": 0.6929133858267716
        },
        {
          "duration": 0.1538460000000157,
          "durationTicks": 128,
          "midi": 40,
          "name": "E2",
          "ticks": 134912,
          "time": 162.15368399999997,
          "velocity": 0.6929133858267716
        },
        {
          "duration": 0.15384599999998727,
          "durationTicks": 128,
          "midi": 40,
          "name": "E2",
          "ticks": 135040,
          "time": 162.30752999999999,
          "velocity": 0.6929133858267716
        },
        {
          "duration": 0.1538460000000157,
          "durationTicks": 128,
          "midi": 52,
          "name": "E3",
          "ticks": 135168,
          "time": 162.46137599999997,
          "velocity": 0.6929133858267716
        },
        {
          "duration": 0.15384599999998727,
          "durationTicks": 128,
          "midi": 52,
          "name": "E3",
          "ticks": 135296,
          "time": 162.615222,
          "velocity": 0.6929133858267716
        },
        {
          "duration": 0.1538460000000157,
          "durationTicks": 128,
          "midi": 52,
          "name": "E3",
          "ticks": 135424,
          "time": 162.76906799999998,
          "velocity": 0.6929133858267716
        },
        {
          "duration": 0.15384599999998727,
          "durationTicks": 128,
          "midi": 52,
          "name": "E3",
          "ticks": 135552,
          "time": 162.922914,
          "velocity": 0.6929133858267716
        },
        {
          "duration": 0.15384599999998727,
          "durationTicks": 128,
          "midi": 52,
          "name": "E3",
          "ticks": 135680,
          "time": 163.07675999999998,
          "velocity": 0.6929133858267716
        },
        {
          "duration": 0.1538460000000157,
          "durationTicks": 128,
          "midi": 52,
          "name": "E3",
          "ticks": 135808,
          "time": 163.23060599999997,
          "velocity": 0.6929133858267716
        },
        {
          "duration": 0.15384599999998727,
          "durationTicks": 128,
          "midi": 52,
          "name": "E3",
          "ticks": 135936,
          "time": 163.38445199999998,
          "velocity": 0.6929133858267716
        },
        {
          "duration": 0.1538460000000157,
          "durationTicks": 128,
          "midi": 52,
          "name": "E3",
          "ticks": 136064,
          "time": 163.53829799999997,
          "velocity": 0.6929133858267716
        },
        {
          "duration": 0.15384599999998727,
          "durationTicks": 128,
          "midi": 52,
          "name": "E3",
          "ticks": 136192,
          "time": 163.69214399999998,
          "velocity": 0.6929133858267716
        },
        {
          "duration": 0.1538460000000157,
          "durationTicks": 128,
          "midi": 52,
          "name": "E3",
          "ticks": 136320,
          "time": 163.84598999999997,
          "velocity": 0.6929133858267716
        },
        {
          "duration": 0.15384599999998727,
          "durationTicks": 128,
          "midi": 52,
          "name": "E3",
          "ticks": 136448,
          "time": 163.999836,
          "velocity": 0.6929133858267716
        },
        {
          "duration": 0.1538460000000157,
          "durationTicks": 128,
          "midi": 52,
          "name": "E3",
          "ticks": 136576,
          "time": 164.15368199999998,
          "velocity": 0.6929133858267716
        },
        {
          "duration": 0.46153799999999023,
          "durationTicks": 384,
          "midi": 35,
          "name": "B1",
          "ticks": 136704,
          "time": 164.307528,
          "velocity": 0.6929133858267716
        },
        {
          "duration": 0.46153799999999023,
          "durationTicks": 384,
          "midi": 35,
          "name": "B1",
          "ticks": 137088,
          "time": 164.76906599999998,
          "velocity": 0.6929133858267716
        },
        {
          "duration": 0.30769200000000296,
          "durationTicks": 256,
          "midi": 35,
          "name": "B1",
          "ticks": 137472,
          "time": 165.23060399999997,
          "velocity": 0.6929133858267716
        },
        {
          "duration": 0.1538460000000157,
          "durationTicks": 128,
          "midi": 35,
          "name": "B1",
          "ticks": 137728,
          "time": 165.53829599999997,
          "velocity": 0.6929133858267716
        },
        {
          "duration": 0.30769199999997454,
          "durationTicks": 256,
          "midi": 35,
          "name": "B1",
          "ticks": 137856,
          "time": 165.692142,
          "velocity": 0.6929133858267716
        },
        {
          "duration": 0.1538460000000157,
          "durationTicks": 128,
          "midi": 35,
          "name": "B1",
          "ticks": 138112,
          "time": 165.99983399999996,
          "velocity": 0.6929133858267716
        },
        {
          "duration": 0.30769200000000296,
          "durationTicks": 256,
          "midi": 35,
          "name": "B1",
          "ticks": 138240,
          "time": 166.15367999999998,
          "velocity": 0.6929133858267716
        },
        {
          "duration": 0.15384599999998727,
          "durationTicks": 128,
          "midi": 35,
          "name": "B1",
          "ticks": 138496,
          "time": 166.46137199999998,
          "velocity": 0.6929133858267716
        },
        {
          "duration": 0.30769200000000296,
          "durationTicks": 256,
          "midi": 35,
          "name": "B1",
          "ticks": 138624,
          "time": 166.61521799999997,
          "velocity": 0.6929133858267716
        },
        {
          "duration": 0.1538460000000157,
          "durationTicks": 128,
          "midi": 35,
          "name": "B1",
          "ticks": 138880,
          "time": 166.92290999999997,
          "velocity": 0.6929133858267716
        },
        {
          "duration": 0.30769199999997454,
          "durationTicks": 256,
          "midi": 35,
          "name": "B1",
          "ticks": 139008,
          "time": 167.076756,
          "velocity": 0.6929133858267716
        },
        {
          "duration": 0.1538460000000157,
          "durationTicks": 128,
          "midi": 40,
          "name": "E2",
          "ticks": 139248,
          "time": 167.36521724999997,
          "velocity": 0.6929133858267716
        },
        {
          "duration": 0.26923049999999193,
          "durationTicks": 224,
          "midi": 40,
          "name": "E2",
          "ticks": 139392,
          "time": 167.53829399999998,
          "velocity": 0.6929133858267716
        },
        {
          "duration": 0.173076750000007,
          "durationTicks": 144,
          "midi": 40,
          "name": "E2",
          "ticks": 139632,
          "time": 167.82675524999996,
          "velocity": 0.6929133858267716
        },
        {
          "duration": 0.46153800000001866,
          "durationTicks": 384,
          "midi": 35,
          "name": "B1",
          "ticks": 139776,
          "time": 167.99983199999997,
          "velocity": 0.6929133858267716
        },
        {
          "duration": 0.46153799999999023,
          "durationTicks": 384,
          "midi": 35,
          "name": "B1",
          "ticks": 140160,
          "time": 168.46137,
          "velocity": 0.6929133858267716
        },
        {
          "duration": 0.30769200000000296,
          "durationTicks": 256,
          "midi": 35,
          "name": "B1",
          "ticks": 140544,
          "time": 168.92290799999998,
          "velocity": 0.6929133858267716
        },
        {
          "duration": 0.15384599999998727,
          "durationTicks": 128,
          "midi": 35,
          "name": "B1",
          "ticks": 140800,
          "time": 169.23059999999998,
          "velocity": 0.6929133858267716
        },
        {
          "duration": 0.30769200000000296,
          "durationTicks": 256,
          "midi": 35,
          "name": "B1",
          "ticks": 140928,
          "time": 169.38444599999997,
          "velocity": 0.6929133858267716
        },
        {
          "duration": 0.1538460000000157,
          "durationTicks": 128,
          "midi": 35,
          "name": "B1",
          "ticks": 141184,
          "time": 169.69213799999997,
          "velocity": 0.6929133858267716
        },
        {
          "duration": 0.30769199999997454,
          "durationTicks": 256,
          "midi": 35,
          "name": "B1",
          "ticks": 141312,
          "time": 169.845984,
          "velocity": 0.6929133858267716
        },
        {
          "duration": 0.1538460000000157,
          "durationTicks": 128,
          "midi": 35,
          "name": "B1",
          "ticks": 141568,
          "time": 170.15367599999996,
          "velocity": 0.6929133858267716
        },
        {
          "duration": 0.30769200000000296,
          "durationTicks": 256,
          "midi": 35,
          "name": "B1",
          "ticks": 141696,
          "time": 170.30752199999998,
          "velocity": 0.6929133858267716
        },
        {
          "duration": 0.15384599999998727,
          "durationTicks": 128,
          "midi": 35,
          "name": "B1",
          "ticks": 141952,
          "time": 170.61521399999998,
          "velocity": 0.6929133858267716
        },
        {
          "duration": 0.30769200000000296,
          "durationTicks": 256,
          "midi": 35,
          "name": "B1",
          "ticks": 142080,
          "time": 170.76905999999997,
          "velocity": 0.6929133858267716
        },
        {
          "duration": 0.15384599999998727,
          "durationTicks": 128,
          "midi": 40,
          "name": "E2",
          "ticks": 142320,
          "time": 171.05752124999998,
          "velocity": 0.6929133858267716
        },
        {
          "duration": 0.26923049999999193,
          "durationTicks": 224,
          "midi": 40,
          "name": "E2",
          "ticks": 142464,
          "time": 171.230598,
          "velocity": 0.6929133858267716
        },
        {
          "duration": 0.16346137499999713,
          "durationTicks": 136,
          "midi": 40,
          "name": "E2",
          "ticks": 142704,
          "time": 171.51905924999997,
          "velocity": 0.6929133858267716
        },
        {
          "duration": 0.46153799999999023,
          "durationTicks": 384,
          "midi": 35,
          "name": "B1",
          "ticks": 142848,
          "time": 171.69213599999998,
          "velocity": 0.6929133858267716
        },
        {
          "duration": 0.46153800000001866,
          "durationTicks": 384,
          "midi": 35,
          "name": "B1",
          "ticks": 143232,
          "time": 172.15367399999997,
          "velocity": 0.6929133858267716
        },
        {
          "duration": 0.30769200000000296,
          "durationTicks": 256,
          "midi": 35,
          "name": "B1",
          "ticks": 143616,
          "time": 172.61521199999999,
          "velocity": 0.6929133858267716
        },
        {
          "duration": 0.15384599999998727,
          "durationTicks": 128,
          "midi": 35,
          "name": "B1",
          "ticks": 143872,
          "time": 172.922904,
          "velocity": 0.6929133858267716
        },
        {
          "duration": 0.30769200000000296,
          "durationTicks": 256,
          "midi": 35,
          "name": "B1",
          "ticks": 144000,
          "time": 173.07674999999998,
          "velocity": 0.6929133858267716
        },
        {
          "duration": 0.15384599999998727,
          "durationTicks": 128,
          "midi": 35,
          "name": "B1",
          "ticks": 144256,
          "time": 173.38444199999998,
          "velocity": 0.6929133858267716
        },
        {
          "duration": 0.30769200000000296,
          "durationTicks": 256,
          "midi": 35,
          "name": "B1",
          "ticks": 144384,
          "time": 173.53828799999997,
          "velocity": 0.6929133858267716
        },
        {
          "duration": 0.1538460000000157,
          "durationTicks": 128,
          "midi": 35,
          "name": "B1",
          "ticks": 144640,
          "time": 173.84597999999997,
          "velocity": 0.6929133858267716
        },
        {
          "duration": 0.30769200000000296,
          "durationTicks": 256,
          "midi": 35,
          "name": "B1",
          "ticks": 144768,
          "time": 173.99982599999998,
          "velocity": 0.6929133858267716
        },
        {
          "duration": 0.15384599999998727,
          "durationTicks": 128,
          "midi": 35,
          "name": "B1",
          "ticks": 145024,
          "time": 174.307518,
          "velocity": 0.6929133858267716
        },
        {
          "duration": 0.30769200000000296,
          "durationTicks": 256,
          "midi": 35,
          "name": "B1",
          "ticks": 145152,
          "time": 174.46136399999997,
          "velocity": 0.6929133858267716
        },
        {
          "duration": 0.15384599999998727,
          "durationTicks": 128,
          "midi": 40,
          "name": "E2",
          "ticks": 145392,
          "time": 174.74982525,
          "velocity": 0.6929133858267716
        },
        {
          "duration": 0.26923050000002036,
          "durationTicks": 224,
          "midi": 40,
          "name": "E2",
          "ticks": 145536,
          "time": 174.92290199999997,
          "velocity": 0.6929133858267716
        },
        {
          "duration": 0.173076750000007,
          "durationTicks": 144,
          "midi": 40,
          "name": "E2",
          "ticks": 145776,
          "time": 175.21136324999998,
          "velocity": 0.6929133858267716
        },
        {
          "duration": 0.46153799999999023,
          "durationTicks": 384,
          "midi": 35,
          "name": "B1",
          "ticks": 145920,
          "time": 175.38443999999998,
          "velocity": 0.6929133858267716
        },
        {
          "duration": 0.46153799999999023,
          "durationTicks": 384,
          "midi": 35,
          "name": "B1",
          "ticks": 146304,
          "time": 175.84597799999997,
          "velocity": 0.6929133858267716
        },
        {
          "duration": 0.30769200000000296,
          "durationTicks": 256,
          "midi": 35,
          "name": "B1",
          "ticks": 146688,
          "time": 176.30751599999996,
          "velocity": 0.6929133858267716
        },
        {
          "duration": 0.1538460000000157,
          "durationTicks": 128,
          "midi": 35,
          "name": "B1",
          "ticks": 146944,
          "time": 176.61520799999997,
          "velocity": 0.6929133858267716
        },
        {
          "duration": 0.30769200000000296,
          "durationTicks": 256,
          "midi": 35,
          "name": "B1",
          "ticks": 147072,
          "time": 176.76905399999998,
          "velocity": 0.6929133858267716
        },
        {
          "duration": 0.15384599999998727,
          "durationTicks": 128,
          "midi": 35,
          "name": "B1",
          "ticks": 147328,
          "time": 177.07674599999999,
          "velocity": 0.6929133858267716
        },
        {
          "duration": 0.30769200000000296,
          "durationTicks": 256,
          "midi": 35,
          "name": "B1",
          "ticks": 147456,
          "time": 177.23059199999997,
          "velocity": 0.6929133858267716
        },
        {
          "duration": 0.15384599999998727,
          "durationTicks": 128,
          "midi": 35,
          "name": "B1",
          "ticks": 147712,
          "time": 177.53828399999998,
          "velocity": 0.6929133858267716
        },
        {
          "duration": 0.30769200000000296,
          "durationTicks": 256,
          "midi": 35,
          "name": "B1",
          "ticks": 147840,
          "time": 177.69212999999996,
          "velocity": 0.6929133858267716
        },
        {
          "duration": 0.1538460000000157,
          "durationTicks": 128,
          "midi": 35,
          "name": "B1",
          "ticks": 148096,
          "time": 177.99982199999997,
          "velocity": 0.6929133858267716
        },
        {
          "duration": 0.30769200000000296,
          "durationTicks": 256,
          "midi": 35,
          "name": "B1",
          "ticks": 148224,
          "time": 178.15366799999998,
          "velocity": 0.6929133858267716
        },
        {
          "duration": 0.1538460000000157,
          "durationTicks": 128,
          "midi": 40,
          "name": "E2",
          "ticks": 148464,
          "time": 178.44212924999997,
          "velocity": 0.6929133858267716
        },
        {
          "duration": 0.26923050000002036,
          "durationTicks": 224,
          "midi": 40,
          "name": "E2",
          "ticks": 148608,
          "time": 178.61520599999997,
          "velocity": 0.6929133858267716
        },
        {
          "duration": 0.17307674999997857,
          "durationTicks": 144,
          "midi": 40,
          "name": "E2",
          "ticks": 148848,
          "time": 178.90366724999998,
          "velocity": 0.6929133858267716
        },
        {
          "duration": 0.46153800000001866,
          "durationTicks": 384,
          "midi": 33,
          "name": "A1",
          "ticks": 148992,
          "time": 179.07674399999996,
          "velocity": 0.6929133858267716
        },
        {
          "duration": 0.46153799999999023,
          "durationTicks": 384,
          "midi": 33,
          "name": "A1",
          "ticks": 149376,
          "time": 179.53828199999998,
          "velocity": 0.6929133858267716
        },
        {
          "duration": 0.30769200000000296,
          "durationTicks": 256,
          "midi": 33,
          "name": "A1",
          "ticks": 149760,
          "time": 179.99981999999997,
          "velocity": 0.6929133858267716
        },
        {
          "duration": 0.15384599999998727,
          "durationTicks": 128,
          "midi": 33,
          "name": "A1",
          "ticks": 150016,
          "time": 180.30751199999997,
          "velocity": 0.6929133858267716
        },
        {
          "duration": 0.30769200000000296,
          "durationTicks": 256,
          "midi": 33,
          "name": "A1",
          "ticks": 150144,
          "time": 180.46135799999996,
          "velocity": 0.6929133858267716
        },
        {
          "duration": 0.1538460000000157,
          "durationTicks": 128,
          "midi": 33,
          "name": "A1",
          "ticks": 150400,
          "time": 180.76904999999996,
          "velocity": 0.6929133858267716
        },
        {
          "duration": 0.30769200000000296,
          "durationTicks": 256,
          "midi": 33,
          "name": "A1",
          "ticks": 150528,
          "time": 180.92289599999998,
          "velocity": 0.6929133858267716
        },
        {
          "duration": 0.15384599999998727,
          "durationTicks": 128,
          "midi": 33,
          "name": "A1",
          "ticks": 150784,
          "time": 181.23058799999998,
          "velocity": 0.6929133858267716
        },
        {
          "duration": 0.30769200000000296,
          "durationTicks": 256,
          "midi": 33,
          "name": "A1",
          "ticks": 150912,
          "time": 181.38443399999997,
          "velocity": 0.6929133858267716
        },
        {
          "duration": 0.15384599999998727,
          "durationTicks": 128,
          "midi": 33,
          "name": "A1",
          "ticks": 151168,
          "time": 181.69212599999997,
          "velocity": 0.6929133858267716
        },
        {
          "duration": 0.3076920000000314,
          "durationTicks": 256,
          "midi": 33,
          "name": "A1",
          "ticks": 151296,
          "time": 181.84597199999996,
          "velocity": 0.6929133858267716
        },
        {
          "duration": 0.15384599999998727,
          "durationTicks": 128,
          "midi": 38,
          "name": "D2",
          "ticks": 151536,
          "time": 182.13443324999997,
          "velocity": 0.6929133858267716
        },
        {
          "duration": 0.26923049999999193,
          "durationTicks": 224,
          "midi": 38,
          "name": "D2",
          "ticks": 151680,
          "time": 182.30750999999998,
          "velocity": 0.6929133858267716
        },
        {
          "duration": 0.15384599999998727,
          "durationTicks": 128,
          "midi": 38,
          "name": "D2",
          "ticks": 151920,
          "time": 182.59597125,
          "velocity": 0.6929133858267716
        },
        {
          "duration": 0.46153800000001866,
          "durationTicks": 384,
          "midi": 33,
          "name": "A1",
          "ticks": 152064,
          "time": 182.76904799999997,
          "velocity": 0.6929133858267716
        },
        {
          "duration": 0.46153799999999023,
          "durationTicks": 384,
          "midi": 33,
          "name": "A1",
          "ticks": 152448,
          "time": 183.230586,
          "velocity": 0.6929133858267716
        },
        {
          "duration": 0.30769200000000296,
          "durationTicks": 256,
          "midi": 33,
          "name": "A1",
          "ticks": 152832,
          "time": 183.69212399999998,
          "velocity": 0.6929133858267716
        },
        {
          "duration": 0.15384599999998727,
          "durationTicks": 128,
          "midi": 33,
          "name": "A1",
          "ticks": 153088,
          "time": 183.99981599999998,
          "velocity": 0.6929133858267716
        },
        {
          "duration": 0.30769200000000296,
          "durationTicks": 256,
          "midi": 33,
          "name": "A1",
          "ticks": 153216,
          "time": 184.15366199999997,
          "velocity": 0.6929133858267716
        },
        {
          "duration": 0.15384599999998727,
          "durationTicks": 128,
          "midi": 33,
          "name": "A1",
          "ticks": 153472,
          "time": 184.46135399999997,
          "velocity": 0.6929133858267716
        },
        {
          "duration": 0.3076920000000314,
          "durationTicks": 256,
          "midi": 33,
          "name": "A1",
          "ticks": 153600,
          "time": 184.61519999999996,
          "velocity": 0.6929133858267716
        },
        {
          "duration": 0.15384599999998727,
          "durationTicks": 128,
          "midi": 33,
          "name": "A1",
          "ticks": 153856,
          "time": 184.922892,
          "velocity": 0.6929133858267716
        },
        {
          "duration": 0.30769200000000296,
          "durationTicks": 256,
          "midi": 33,
          "name": "A1",
          "ticks": 153984,
          "time": 185.07673799999998,
          "velocity": 0.6929133858267716
        },
        {
          "duration": 0.15384599999998727,
          "durationTicks": 128,
          "midi": 33,
          "name": "A1",
          "ticks": 154240,
          "time": 185.38442999999998,
          "velocity": 0.6929133858267716
        },
        {
          "duration": 0.30769200000000296,
          "durationTicks": 256,
          "midi": 33,
          "name": "A1",
          "ticks": 154368,
          "time": 185.53827599999997,
          "velocity": 0.6929133858267716
        },
        {
          "duration": 0.15384599999998727,
          "durationTicks": 128,
          "midi": 38,
          "name": "D2",
          "ticks": 154608,
          "time": 185.82673724999998,
          "velocity": 0.6929133858267716
        },
        {
          "duration": 0.26923049999999193,
          "durationTicks": 224,
          "midi": 38,
          "name": "D2",
          "ticks": 154752,
          "time": 185.999814,
          "velocity": 0.6929133858267716
        },
        {
          "duration": 0.15384599999998727,
          "durationTicks": 128,
          "midi": 38,
          "name": "D2",
          "ticks": 154992,
          "time": 186.28827524999997,
          "velocity": 0.6929133858267716
        },
        {
          "duration": 0.46153799999999023,
          "durationTicks": 384,
          "midi": 40,
          "name": "E2",
          "ticks": 155136,
          "time": 186.46135199999998,
          "velocity": 0.6929133858267716
        },
        {
          "duration": 0.46153800000001866,
          "durationTicks": 384,
          "midi": 40,
          "name": "E2",
          "ticks": 155520,
          "time": 186.92288999999997,
          "velocity": 0.6929133858267716
        },
        {
          "duration": 0.34615349999998557,
          "durationTicks": 288,
          "midi": 40,
          "name": "E2",
          "ticks": 155904,
          "time": 187.38442799999999,
          "velocity": 0.6929133858267716
        },
        {
          "duration": 0.11538450000000466,
          "durationTicks": 96,
          "midi": 43,
          "name": "G2",
          "ticks": 156192,
          "time": 187.73058149999997,
          "velocity": 0.6929133858267716
        },
        {
          "duration": 0.346153500000014,
          "durationTicks": 288,
          "midi": 45,
          "name": "A2",
          "ticks": 156288,
          "time": 187.84596599999998,
          "velocity": 0.6929133858267716
        },
        {
          "duration": 0.11538449999997624,
          "durationTicks": 96,
          "midi": 43,
          "name": "G2",
          "ticks": 156576,
          "time": 188.1921195,
          "velocity": 0.6929133858267716
        },
        {
          "duration": 0.46153800000001866,
          "durationTicks": 384,
          "midi": 40,
          "name": "E2",
          "ticks": 156672,
          "time": 188.30750399999997,
          "velocity": 0.6929133858267716
        },
        {
          "duration": 0.46153799999999023,
          "durationTicks": 384,
          "midi": 40,
          "name": "E2",
          "ticks": 157056,
          "time": 188.76904199999998,
          "velocity": 0.6929133858267716
        },
        {
          "duration": 0.346153500000014,
          "durationTicks": 288,
          "midi": 40,
          "name": "E2",
          "ticks": 157440,
          "time": 189.23057999999997,
          "velocity": 0.6929133858267716
        },
        {
          "duration": 0.11538449999997624,
          "durationTicks": 96,
          "midi": 43,
          "name": "G2",
          "ticks": 157728,
          "time": 189.5767335,
          "velocity": 0.6929133858267716
        },
        {
          "duration": 0.346153500000014,
          "durationTicks": 288,
          "midi": 45,
          "name": "A2",
          "ticks": 157824,
          "time": 189.69211799999997,
          "velocity": 0.6929133858267716
        },
        {
          "duration": 0.11538450000000466,
          "durationTicks": 96,
          "midi": 43,
          "name": "G2",
          "ticks": 158112,
          "time": 190.03827149999998,
          "velocity": 0.6929133858267716
        },
        {
          "duration": 0.46153799999999023,
          "durationTicks": 384,
          "midi": 40,
          "name": "E2",
          "ticks": 158208,
          "time": 190.15365599999998,
          "velocity": 0.6929133858267716
        },
        {
          "duration": 0.46153800000001866,
          "durationTicks": 384,
          "midi": 40,
          "name": "E2",
          "ticks": 158592,
          "time": 190.61519399999997,
          "velocity": 0.6929133858267716
        },
        {
          "duration": 0.34615349999998557,
          "durationTicks": 288,
          "midi": 40,
          "name": "E2",
          "ticks": 158976,
          "time": 191.076732,
          "velocity": 0.6929133858267716
        },
        {
          "duration": 0.11538450000000466,
          "durationTicks": 96,
          "midi": 43,
          "name": "G2",
          "ticks": 159264,
          "time": 191.42288549999998,
          "velocity": 0.6929133858267716
        },
        {
          "duration": 0.34615349999998557,
          "durationTicks": 288,
          "midi": 45,
          "name": "A2",
          "ticks": 159360,
          "time": 191.53826999999998,
          "velocity": 0.6929133858267716
        },
        {
          "duration": 0.11538450000000466,
          "durationTicks": 96,
          "midi": 43,
          "name": "G2",
          "ticks": 159648,
          "time": 191.88442349999997,
          "velocity": 0.6929133858267716
        },
        {
          "duration": 0.46153800000001866,
          "durationTicks": 384,
          "midi": 40,
          "name": "E2",
          "ticks": 159744,
          "time": 191.99980799999997,
          "velocity": 0.6929133858267716
        },
        {
          "duration": 0.46153799999999023,
          "durationTicks": 384,
          "midi": 40,
          "name": "E2",
          "ticks": 160128,
          "time": 192.461346,
          "velocity": 0.6929133858267716
        },
        {
          "duration": 0.34615349999998557,
          "durationTicks": 288,
          "midi": 40,
          "name": "E2",
          "ticks": 160512,
          "time": 192.92288399999998,
          "velocity": 0.6929133858267716
        },
        {
          "duration": 0.11538450000000466,
          "durationTicks": 96,
          "midi": 43,
          "name": "G2",
          "ticks": 160800,
          "time": 193.26903749999997,
          "velocity": 0.6929133858267716
        },
        {
          "duration": 0.346153500000014,
          "durationTicks": 288,
          "midi": 45,
          "name": "A2",
          "ticks": 160896,
          "time": 193.38442199999997,
          "velocity": 0.6929133858267716
        },
        {
          "duration": 0.11538450000000466,
          "durationTicks": 96,
          "midi": 43,
          "name": "G2",
          "ticks": 161184,
          "time": 193.7305755,
          "velocity": 0.6929133858267716
        },
        {
          "duration": 0.46153799999999023,
          "durationTicks": 384,
          "midi": 40,
          "name": "E2",
          "ticks": 161280,
          "time": 193.84596,
          "velocity": 0.6929133858267716
        },
        {
          "duration": 0.46153799999999023,
          "durationTicks": 384,
          "midi": 40,
          "name": "E2",
          "ticks": 161664,
          "time": 194.30749799999998,
          "velocity": 0.6929133858267716
        },
        {
          "duration": 0.346153500000014,
          "durationTicks": 288,
          "midi": 40,
          "name": "E2",
          "ticks": 162048,
          "time": 194.76903599999997,
          "velocity": 0.6929133858267716
        },
        {
          "duration": 0.11538450000000466,
          "durationTicks": 96,
          "midi": 43,
          "name": "G2",
          "ticks": 162336,
          "time": 195.11518949999999,
          "velocity": 0.6929133858267716
        },
        {
          "duration": 0.34615349999998557,
          "durationTicks": 288,
          "midi": 45,
          "name": "A2",
          "ticks": 162432,
          "time": 195.230574,
          "velocity": 0.6929133858267716
        },
        {
          "duration": 0.11538450000000466,
          "durationTicks": 96,
          "midi": 43,
          "name": "G2",
          "ticks": 162720,
          "time": 195.57672749999998,
          "velocity": 0.6929133858267716
        },
        {
          "duration": 0.46153799999999023,
          "durationTicks": 384,
          "midi": 40,
          "name": "E2",
          "ticks": 162816,
          "time": 195.69211199999998,
          "velocity": 0.6929133858267716
        },
        {
          "duration": 0.46153800000001866,
          "durationTicks": 384,
          "midi": 40,
          "name": "E2",
          "ticks": 163200,
          "time": 196.15364999999997,
          "velocity": 0.6929133858267716
        },
        {
          "duration": 0.34615349999998557,
          "durationTicks": 288,
          "midi": 40,
          "name": "E2",
          "ticks": 163584,
          "time": 196.615188,
          "velocity": 0.6929133858267716
        },
        {
          "duration": 0.11538450000000466,
          "durationTicks": 96,
          "midi": 43,
          "name": "G2",
          "ticks": 163872,
          "time": 196.96134149999997,
          "velocity": 0.6929133858267716
        },
        {
          "duration": 0.346153500000014,
          "durationTicks": 288,
          "midi": 45,
          "name": "A2",
          "ticks": 163968,
          "time": 197.07672599999998,
          "velocity": 0.6929133858267716
        },
        {
          "duration": 0.11538449999997624,
          "durationTicks": 96,
          "midi": 43,
          "name": "G2",
          "ticks": 164256,
          "time": 197.4228795,
          "velocity": 0.6929133858267716
        },
        {
          "duration": 0.46153800000001866,
          "durationTicks": 384,
          "midi": 40,
          "name": "E2",
          "ticks": 164352,
          "time": 197.53826399999997,
          "velocity": 0.6929133858267716
        },
        {
          "duration": 0.46153799999999023,
          "durationTicks": 384,
          "midi": 40,
          "name": "E2",
          "ticks": 164736,
          "time": 197.999802,
          "velocity": 0.6929133858267716
        },
        {
          "duration": 0.346153500000014,
          "durationTicks": 288,
          "midi": 40,
          "name": "E2",
          "ticks": 165120,
          "time": 198.46133999999998,
          "velocity": 0.6929133858267716
        },
        {
          "duration": 0.11538449999997624,
          "durationTicks": 96,
          "midi": 43,
          "name": "G2",
          "ticks": 165408,
          "time": 198.8074935,
          "velocity": 0.6929133858267716
        },
        {
          "duration": 0.346153500000014,
          "durationTicks": 288,
          "midi": 45,
          "name": "A2",
          "ticks": 165504,
          "time": 198.92287799999997,
          "velocity": 0.6929133858267716
        },
        {
          "duration": 0.11538450000000466,
          "durationTicks": 96,
          "midi": 43,
          "name": "G2",
          "ticks": 165792,
          "time": 199.26903149999998,
          "velocity": 0.6929133858267716
        },
        {
          "duration": 0.46153799999999023,
          "durationTicks": 384,
          "midi": 40,
          "name": "E2",
          "ticks": 165888,
          "time": 199.384416,
          "velocity": 0.6929133858267716
        },
        {
          "duration": 0.46153799999999023,
          "durationTicks": 384,
          "midi": 40,
          "name": "E2",
          "ticks": 166272,
          "time": 199.84595399999998,
          "velocity": 0.6929133858267716
        },
        {
          "duration": 0.346153500000014,
          "durationTicks": 288,
          "midi": 40,
          "name": "E2",
          "ticks": 166656,
          "time": 200.30749199999997,
          "velocity": 0.6929133858267716
        },
        {
          "duration": 0.11538450000000466,
          "durationTicks": 96,
          "midi": 43,
          "name": "G2",
          "ticks": 166944,
          "time": 200.65364549999998,
          "velocity": 0.6929133858267716
        },
        {
          "duration": 0.34615349999998557,
          "durationTicks": 288,
          "midi": 45,
          "name": "A2",
          "ticks": 167040,
          "time": 200.76903,
          "velocity": 0.6929133858267716
        },
        {
          "duration": 0.11538450000000466,
          "durationTicks": 96,
          "midi": 43,
          "name": "G2",
          "ticks": 167328,
          "time": 201.11518349999997,
          "velocity": 0.6929133858267716
        },
        {
          "duration": 0.46153799999999023,
          "durationTicks": 384,
          "midi": 40,
          "name": "E2",
          "ticks": 167424,
          "time": 201.23056799999998,
          "velocity": 0.6929133858267716
        },
        {
          "duration": 0.46153800000001866,
          "durationTicks": 384,
          "midi": 40,
          "name": "E2",
          "ticks": 167808,
          "time": 201.69210599999997,
          "velocity": 0.6929133858267716
        },
        {
          "duration": 0.34615349999998557,
          "durationTicks": 288,
          "midi": 40,
          "name": "E2",
          "ticks": 168192,
          "time": 202.15364399999999,
          "velocity": 0.6929133858267716
        },
        {
          "duration": 0.11538450000000466,
          "durationTicks": 96,
          "midi": 43,
          "name": "G2",
          "ticks": 168480,
          "time": 202.49979749999997,
          "velocity": 0.6929133858267716
        },
        {
          "duration": 0.346153500000014,
          "durationTicks": 288,
          "midi": 45,
          "name": "A2",
          "ticks": 168576,
          "time": 202.61518199999998,
          "velocity": 0.6929133858267716
        },
        {
          "duration": 0.11538449999997624,
          "durationTicks": 96,
          "midi": 43,
          "name": "G2",
          "ticks": 168864,
          "time": 202.9613355,
          "velocity": 0.6929133858267716
        },
        {
          "duration": 0.46153800000001866,
          "durationTicks": 384,
          "midi": 40,
          "name": "E2",
          "ticks": 168960,
          "time": 203.07671999999997,
          "velocity": 0.6929133858267716
        },
        {
          "duration": 0.46153799999999023,
          "durationTicks": 384,
          "midi": 40,
          "name": "E2",
          "ticks": 169344,
          "time": 203.53825799999998,
          "velocity": 0.6929133858267716
        },
        {
          "duration": 0.346153500000014,
          "durationTicks": 288,
          "midi": 40,
          "name": "E2",
          "ticks": 169728,
          "time": 203.99979599999998,
          "velocity": 0.6929133858267716
        },
        {
          "duration": 0.11538449999997624,
          "durationTicks": 96,
          "midi": 43,
          "name": "G2",
          "ticks": 170016,
          "time": 204.3459495,
          "velocity": 0.6929133858267716
        },
        {
          "duration": 0.346153500000014,
          "durationTicks": 288,
          "midi": 45,
          "name": "A2",
          "ticks": 170112,
          "time": 204.46133399999997,
          "velocity": 0.6929133858267716
        },
        {
          "duration": 0.11538450000000466,
          "durationTicks": 96,
          "midi": 43,
          "name": "G2",
          "ticks": 170400,
          "time": 204.80748749999998,
          "velocity": 0.6929133858267716
        },
        {
          "duration": 0.46153799999999023,
          "durationTicks": 384,
          "midi": 40,
          "name": "E2",
          "ticks": 170496,
          "time": 204.92287199999998,
          "velocity": 0.6929133858267716
        },
        {
          "duration": 0.46153799999999023,
          "durationTicks": 384,
          "midi": 40,
          "name": "E2",
          "ticks": 170880,
          "time": 205.38440999999997,
          "velocity": 0.6929133858267716
        },
        {
          "duration": 0.346153500000014,
          "durationTicks": 288,
          "midi": 40,
          "name": "E2",
          "ticks": 171264,
          "time": 205.84594799999996,
          "velocity": 0.6929133858267716
        },
        {
          "duration": 0.11538450000000466,
          "durationTicks": 96,
          "midi": 43,
          "name": "G2",
          "ticks": 171552,
          "time": 206.19210149999998,
          "velocity": 0.6929133858267716
        },
        {
          "duration": 0.34615349999998557,
          "durationTicks": 288,
          "midi": 45,
          "name": "A2",
          "ticks": 171648,
          "time": 206.30748599999998,
          "velocity": 0.6929133858267716
        },
        {
          "duration": 0.11538450000000466,
          "durationTicks": 96,
          "midi": 43,
          "name": "G2",
          "ticks": 171936,
          "time": 206.65363949999997,
          "velocity": 0.6929133858267716
        },
        {
          "duration": 0.46153800000001866,
          "durationTicks": 384,
          "midi": 40,
          "name": "E2",
          "ticks": 172032,
          "time": 206.76902399999997,
          "velocity": 0.6929133858267716
        },
        {
          "duration": 0.46153799999999023,
          "durationTicks": 384,
          "midi": 40,
          "name": "E2",
          "ticks": 172416,
          "time": 207.230562,
          "velocity": 0.6929133858267716
        },
        {
          "duration": 0.34615349999998557,
          "durationTicks": 288,
          "midi": 40,
          "name": "E2",
          "ticks": 172800,
          "time": 207.69209999999998,
          "velocity": 0.6929133858267716
        },
        {
          "duration": 0.11538450000000466,
          "durationTicks": 96,
          "midi": 43,
          "name": "G2",
          "ticks": 173088,
          "time": 208.03825349999997,
          "velocity": 0.6929133858267716
        },
        {
          "duration": 0.346153500000014,
          "durationTicks": 288,
          "midi": 45,
          "name": "A2",
          "ticks": 173184,
          "time": 208.15363799999997,
          "velocity": 0.6929133858267716
        },
        {
          "duration": 0.11538450000000466,
          "durationTicks": 96,
          "midi": 43,
          "name": "G2",
          "ticks": 173472,
          "time": 208.4997915,
          "velocity": 0.6929133858267716
        },
        {
          "duration": 0.15384599999998727,
          "durationTicks": 128,
          "midi": 40,
          "name": "E2",
          "ticks": 173568,
          "time": 208.615176,
          "velocity": 0.6929133858267716
        },
        {
          "duration": 0.1538460000000157,
          "durationTicks": 128,
          "midi": 40,
          "name": "E2",
          "ticks": 173696,
          "time": 208.76902199999998,
          "velocity": 0.6929133858267716
        },
        {
          "duration": 0.15384599999998727,
          "durationTicks": 128,
          "midi": 40,
          "name": "E2",
          "ticks": 173824,
          "time": 208.922868,
          "velocity": 0.6929133858267716
        },
        {
          "duration": 0.15384599999998727,
          "durationTicks": 128,
          "midi": 40,
          "name": "E2",
          "ticks": 173952,
          "time": 209.07671399999998,
          "velocity": 0.6929133858267716
        },
        {
          "duration": 0.1538460000000157,
          "durationTicks": 128,
          "midi": 40,
          "name": "E2",
          "ticks": 174080,
          "time": 209.23055999999997,
          "velocity": 0.6929133858267716
        },
        {
          "duration": 0.15384599999998727,
          "durationTicks": 128,
          "midi": 40,
          "name": "E2",
          "ticks": 174208,
          "time": 209.38440599999998,
          "velocity": 0.6929133858267716
        },
        {
          "duration": 0.1538460000000157,
          "durationTicks": 128,
          "midi": 40,
          "name": "E2",
          "ticks": 174336,
          "time": 209.53825199999997,
          "velocity": 0.6929133858267716
        },
        {
          "duration": 0.15384599999998727,
          "durationTicks": 128,
          "midi": 40,
          "name": "E2",
          "ticks": 174464,
          "time": 209.692098,
          "velocity": 0.6929133858267716
        },
        {
          "duration": 0.1538460000000157,
          "durationTicks": 128,
          "midi": 40,
          "name": "E2",
          "ticks": 174592,
          "time": 209.84594399999997,
          "velocity": 0.6929133858267716
        },
        {
          "duration": 0.15384599999998727,
          "durationTicks": 128,
          "midi": 40,
          "name": "E2",
          "ticks": 174720,
          "time": 209.99979,
          "velocity": 0.6929133858267716
        },
        {
          "duration": 0.1538460000000157,
          "durationTicks": 128,
          "midi": 40,
          "name": "E2",
          "ticks": 174848,
          "time": 210.15363599999998,
          "velocity": 0.6929133858267716
        },
        {
          "duration": 0.15384599999998727,
          "durationTicks": 128,
          "midi": 40,
          "name": "E2",
          "ticks": 174976,
          "time": 210.307482,
          "velocity": 0.6929133858267716
        },
        {
          "duration": 0.15384599999998727,
          "durationTicks": 128,
          "midi": 40,
          "name": "E2",
          "ticks": 175104,
          "time": 210.46132799999998,
          "velocity": 0.6929133858267716
        },
        {
          "duration": 0.1538460000000157,
          "durationTicks": 128,
          "midi": 40,
          "name": "E2",
          "ticks": 175232,
          "time": 210.61517399999997,
          "velocity": 0.6929133858267716
        },
        {
          "duration": 0.15384599999998727,
          "durationTicks": 128,
          "midi": 40,
          "name": "E2",
          "ticks": 175360,
          "time": 210.76901999999998,
          "velocity": 0.6929133858267716
        },
        {
          "duration": 0.1538460000000157,
          "durationTicks": 128,
          "midi": 40,
          "name": "E2",
          "ticks": 175488,
          "time": 210.92286599999997,
          "velocity": 0.6929133858267716
        },
        {
          "duration": 0.15384599999998727,
          "durationTicks": 128,
          "midi": 40,
          "name": "E2",
          "ticks": 175616,
          "time": 211.076712,
          "velocity": 0.6929133858267716
        },
        {
          "duration": 0.1538460000000157,
          "durationTicks": 128,
          "midi": 40,
          "name": "E2",
          "ticks": 175744,
          "time": 211.23055799999997,
          "velocity": 0.6929133858267716
        },
        {
          "duration": 0.15384599999998727,
          "durationTicks": 128,
          "midi": 40,
          "name": "E2",
          "ticks": 175872,
          "time": 211.384404,
          "velocity": 0.6929133858267716
        },
        {
          "duration": 0.1538460000000157,
          "durationTicks": 128,
          "midi": 40,
          "name": "E2",
          "ticks": 176000,
          "time": 211.53824999999998,
          "velocity": 0.6929133858267716
        },
        {
          "duration": 0.15384599999998727,
          "durationTicks": 128,
          "midi": 40,
          "name": "E2",
          "ticks": 176128,
          "time": 211.692096,
          "velocity": 0.6929133858267716
        },
        {
          "duration": 0.15384599999998727,
          "durationTicks": 128,
          "midi": 40,
          "name": "E2",
          "ticks": 176256,
          "time": 211.84594199999998,
          "velocity": 0.6929133858267716
        },
        {
          "duration": 0.1538460000000157,
          "durationTicks": 128,
          "midi": 40,
          "name": "E2",
          "ticks": 176384,
          "time": 211.99978799999997,
          "velocity": 0.6929133858267716
        },
        {
          "duration": 0.15384599999998727,
          "durationTicks": 128,
          "midi": 40,
          "name": "E2",
          "ticks": 176512,
          "time": 212.15363399999998,
          "velocity": 0.6929133858267716
        },
        {
          "duration": 0.1538460000000157,
          "durationTicks": 128,
          "midi": 52,
          "name": "E3",
          "ticks": 176640,
          "time": 212.30747999999997,
          "velocity": 0.6929133858267716
        },
        {
          "duration": 0.15384599999998727,
          "durationTicks": 128,
          "midi": 52,
          "name": "E3",
          "ticks": 176768,
          "time": 212.46132599999999,
          "velocity": 0.6929133858267716
        },
        {
          "duration": 0.1538460000000157,
          "durationTicks": 128,
          "midi": 52,
          "name": "E3",
          "ticks": 176896,
          "time": 212.61517199999997,
          "velocity": 0.6929133858267716
        },
        {
          "duration": 0.15384599999998727,
          "durationTicks": 128,
          "midi": 52,
          "name": "E3",
          "ticks": 177024,
          "time": 212.769018,
          "velocity": 0.6929133858267716
        },
        {
          "duration": 0.1538460000000157,
          "durationTicks": 128,
          "midi": 52,
          "name": "E3",
          "ticks": 177152,
          "time": 212.92286399999998,
          "velocity": 0.6929133858267716
        },
        {
          "duration": 0.15384599999998727,
          "durationTicks": 128,
          "midi": 52,
          "name": "E3",
          "ticks": 177280,
          "time": 213.07671,
          "velocity": 0.6929133858267716
        },
        {
          "duration": 0.15384599999998727,
          "durationTicks": 128,
          "midi": 52,
          "name": "E3",
          "ticks": 177408,
          "time": 213.23055599999998,
          "velocity": 0.6929133858267716
        },
        {
          "duration": 0.1538460000000157,
          "durationTicks": 128,
          "midi": 52,
          "name": "E3",
          "ticks": 177536,
          "time": 213.38440199999997,
          "velocity": 0.6929133858267716
        },
        {
          "duration": 0.15384599999998727,
          "durationTicks": 128,
          "midi": 52,
          "name": "E3",
          "ticks": 177664,
          "time": 213.53824799999998,
          "velocity": 0.6929133858267716
        },
        {
          "duration": 0.1538460000000157,
          "durationTicks": 128,
          "midi": 52,
          "name": "E3",
          "ticks": 177792,
          "time": 213.69209399999997,
          "velocity": 0.6929133858267716
        },
        {
          "duration": 0.15384599999998727,
          "durationTicks": 128,
          "midi": 52,
          "name": "E3",
          "ticks": 177920,
          "time": 213.84593999999998,
          "velocity": 0.6929133858267716
        },
        {
          "duration": 0.1538460000000157,
          "durationTicks": 128,
          "midi": 52,
          "name": "E3",
          "ticks": 178048,
          "time": 213.99978599999997,
          "velocity": 0.6929133858267716
        },
        {
          "duration": 0.15384599999998727,
          "durationTicks": 128,
          "midi": 52,
          "name": "E3",
          "ticks": 178176,
          "time": 214.153632,
          "velocity": 0.6929133858267716
        },
        {
          "duration": 0.1538460000000157,
          "durationTicks": 128,
          "midi": 52,
          "name": "E3",
          "ticks": 178304,
          "time": 214.30747799999997,
          "velocity": 0.6929133858267716
        },
        {
          "duration": 0.15384599999998727,
          "durationTicks": 128,
          "midi": 52,
          "name": "E3",
          "ticks": 178432,
          "time": 214.461324,
          "velocity": 0.6929133858267716
        },
        {
          "duration": 0.15384599999998727,
          "durationTicks": 128,
          "midi": 52,
          "name": "E3",
          "ticks": 178560,
          "time": 214.61516999999998,
          "velocity": 0.6929133858267716
        },
        {
          "duration": 0.1538460000000157,
          "durationTicks": 128,
          "midi": 52,
          "name": "E3",
          "ticks": 178688,
          "time": 214.76901599999997,
          "velocity": 0.6929133858267716
        },
        {
          "duration": 0.15384599999998727,
          "durationTicks": 128,
          "midi": 52,
          "name": "E3",
          "ticks": 178816,
          "time": 214.92286199999998,
          "velocity": 0.6929133858267716
        },
        {
          "duration": 0.1538460000000157,
          "durationTicks": 128,
          "midi": 52,
          "name": "E3",
          "ticks": 178944,
          "time": 215.07670799999997,
          "velocity": 0.6929133858267716
        },
        {
          "duration": 0.15384599999998727,
          "durationTicks": 128,
          "midi": 52,
          "name": "E3",
          "ticks": 179072,
          "time": 215.23055399999998,
          "velocity": 0.6929133858267716
        },
        {
          "duration": 0.1538460000000157,
          "durationTicks": 128,
          "midi": 52,
          "name": "E3",
          "ticks": 179200,
          "time": 215.38439999999997,
          "velocity": 0.6929133858267716
        },
        {
          "duration": 0.15384599999998727,
          "durationTicks": 128,
          "midi": 52,
          "name": "E3",
          "ticks": 179328,
          "time": 215.538246,
          "velocity": 0.6929133858267716
        },
        {
          "duration": 0.1538460000000157,
          "durationTicks": 128,
          "midi": 52,
          "name": "E3",
          "ticks": 179456,
          "time": 215.69209199999997,
          "velocity": 0.6929133858267716
        },
        {
          "duration": 0.15384599999998727,
          "durationTicks": 128,
          "midi": 52,
          "name": "E3",
          "ticks": 179584,
          "time": 215.845938,
          "velocity": 0.6929133858267716
        },
        {
          "duration": 3.692304000000007,
          "durationTicks": 3072,
          "midi": 52,
          "name": "E3",
          "ticks": 179712,
          "time": 215.99978399999998,
          "velocity": 0.6929133858267716
        }
      ]
    },
    {
      "channel": 0,
      "controlChanges": {
        "0": [
          {
            "number": 0,
            "ticks": 0,
            "time": 0,
            "value": 0
          }
        ]
      },
      "pitchBends": [],
      "instrument": {
        "family": "piano",
        "number": 0,
        "name": "acoustic grand piano"
      },
      "name": "",
      "notes": []
    },
    {
      "channel": 3,
      "controlChanges": {
        "7": [
          {
            "number": 7,
            "ticks": 0,
            "time": 0,
            "value": 0.8267716535433071
          }
        ],
        "10": [
          {
            "number": 10,
            "ticks": 0,
            "time": 0,
            "value": 0.47244094488188976
          }
        ]
      },
      "pitchBends": [],
      "instrument": {
        "family": "reed",
        "number": 65,
        "name": "alto sax"
      },
      "name": "",
      "notes": [
        {
          "duration": 0.3076919999999994,
          "durationTicks": 256,
          "midi": 71,
          "name": "B4",
          "ticks": 9472,
          "time": 11.384604,
          "velocity": 0.7874015748031497
        },
        {
          "duration": 0.23076900000000045,
          "durationTicks": 192,
          "midi": 69,
          "name": "A4",
          "ticks": 9744,
          "time": 11.711526749999999,
          "velocity": 0.7874015748031497
        },
        {
          "duration": 0.3076920000000012,
          "durationTicks": 256,
          "midi": 69,
          "name": "A4",
          "ticks": 9984,
          "time": 11.999987999999998,
          "velocity": 0.7874015748031497
        },
        {
          "duration": 0.3076919999999994,
          "durationTicks": 256,
          "midi": 67,
          "name": "G4",
          "ticks": 10240,
          "time": 12.30768,
          "velocity": 0.7874015748031497
        },
        {
          "duration": 0.3076919999999994,
          "durationTicks": 256,
          "midi": 64,
          "name": "E4",
          "ticks": 10496,
          "time": 12.615371999999999,
          "velocity": 0.7874015748031497
        },
        {
          "duration": 0.3076920000000012,
          "durationTicks": 256,
          "midi": 71,
          "name": "B4",
          "ticks": 10752,
          "time": 12.923063999999998,
          "velocity": 0.7874015748031497
        },
        {
          "duration": 0.30769199999999763,
          "durationTicks": 256,
          "midi": 69,
          "name": "A4",
          "ticks": 11008,
          "time": 13.230756,
          "velocity": 0.7874015748031497
        },
        {
          "duration": 0.3076920000000012,
          "durationTicks": 256,
          "midi": 69,
          "name": "A4",
          "ticks": 11264,
          "time": 13.538447999999997,
          "velocity": 0.7874015748031497
        },
        {
          "duration": 0.3076920000000012,
          "durationTicks": 256,
          "midi": 69,
          "name": "A4",
          "ticks": 11520,
          "time": 13.846139999999998,
          "velocity": 0.7874015748031497
        },
        {
          "duration": 0.6153839999999988,
          "durationTicks": 512,
          "midi": 67,
          "name": "G4",
          "ticks": 11776,
          "time": 14.153832,
          "velocity": 0.7874015748031497
        },
        {
          "duration": 0.3076919999999994,
          "durationTicks": 256,
          "midi": 71,
          "name": "B4",
          "ticks": 12288,
          "time": 14.769215999999998,
          "velocity": 0.7874015748031497
        },
        {
          "duration": 0.3076920000000012,
          "durationTicks": 256,
          "midi": 69,
          "name": "A4",
          "ticks": 12544,
          "time": 15.076907999999998,
          "velocity": 0.7874015748031497
        },
        {
          "duration": 0.3076919999999994,
          "durationTicks": 256,
          "midi": 71,
          "name": "B4",
          "ticks": 12800,
          "time": 15.384599999999999,
          "velocity": 0.7874015748031497
        },
        {
          "duration": 0.3076919999999994,
          "durationTicks": 256,
          "midi": 69,
          "name": "A4",
          "ticks": 13056,
          "time": 15.692291999999998,
          "velocity": 0.7874015748031497
        },
        {
          "duration": 0.30769200000000296,
          "durationTicks": 256,
          "midi": 67,
          "name": "G4",
          "ticks": 13312,
          "time": 15.999983999999998,
          "velocity": 0.7874015748031497
        },
        {
          "duration": 0.30769199999999586,
          "durationTicks": 256,
          "midi": 64,
          "name": "E4",
          "ticks": 13568,
          "time": 16.307676,
          "velocity": 0.7874015748031497
        },
        {
          "duration": 0.30769200000000296,
          "durationTicks": 256,
          "midi": 69,
          "name": "A4",
          "ticks": 14080,
          "time": 16.923059999999996,
          "velocity": 0.7874015748031497
        },
        {
          "duration": 0.3076919999999994,
          "durationTicks": 256,
          "midi": 69,
          "name": "A4",
          "ticks": 14336,
          "time": 17.230752,
          "velocity": 0.7874015748031497
        },
        {
          "duration": 0.3076919999999994,
          "durationTicks": 256,
          "midi": 69,
          "name": "A4",
          "ticks": 14592,
          "time": 17.538444,
          "velocity": 0.7874015748031497
        },
        {
          "duration": 0.30769200000000296,
          "durationTicks": 256,
          "midi": 67,
          "name": "G4",
          "ticks": 14848,
          "time": 17.846135999999998,
          "velocity": 0.7874015748031497
        },
        {
          "duration": 0.30769199999999586,
          "durationTicks": 256,
          "midi": 64,
          "name": "E4",
          "ticks": 15104,
          "time": 18.153828,
          "velocity": 0.7874015748031497
        },
        {
          "duration": 0.3076919999999994,
          "durationTicks": 256,
          "midi": 71,
          "name": "B4",
          "ticks": 15360,
          "time": 18.461519999999997,
          "velocity": 0.7874015748031497
        },
        {
          "duration": 0.30769200000000296,
          "durationTicks": 256,
          "midi": 69,
          "name": "A4",
          "ticks": 15616,
          "time": 18.769211999999996,
          "velocity": 0.7874015748031497
        },
        {
          "duration": 0.3076919999999994,
          "durationTicks": 256,
          "midi": 67,
          "name": "G4",
          "ticks": 15872,
          "time": 19.076904,
          "velocity": 0.7874015748031497
        },
        {
          "duration": 0.3076919999999994,
          "durationTicks": 256,
          "midi": 69,
          "name": "A4",
          "ticks": 16128,
          "time": 19.384596,
          "velocity": 0.7874015748031497
        },
        {
          "duration": 0.3076919999999994,
          "durationTicks": 256,
          "midi": 67,
          "name": "G4",
          "ticks": 16384,
          "time": 19.692287999999998,
          "velocity": 0.7874015748031497
        },
        {
          "duration": 0.3076919999999994,
          "durationTicks": 256,
          "midi": 64,
          "name": "E4",
          "ticks": 16640,
          "time": 19.999979999999997,
          "velocity": 0.7874015748031497
        },
        {
          "duration": 0.3076919999999994,
          "durationTicks": 256,
          "midi": 71,
          "name": "B4",
          "ticks": 16896,
          "time": 20.307671999999997,
          "velocity": 0.7874015748031497
        },
        {
          "duration": 0.30769200000000296,
          "durationTicks": 256,
          "midi": 69,
          "name": "A4",
          "ticks": 17152,
          "time": 20.615363999999996,
          "velocity": 0.7874015748031497
        },
        {
          "duration": 0.3076919999999994,
          "durationTicks": 256,
          "midi": 71,
          "name": "B4",
          "ticks": 17408,
          "time": 20.923056,
          "velocity": 0.7874015748031497
        },
        {
          "duration": 0.3076919999999994,
          "durationTicks": 256,
          "midi": 69,
          "name": "A4",
          "ticks": 17664,
          "time": 21.230748,
          "velocity": 0.7874015748031497
        },
        {
          "duration": 0.3076919999999994,
          "durationTicks": 256,
          "midi": 67,
          "name": "G4",
          "ticks": 17920,
          "time": 21.538439999999998,
          "velocity": 0.7874015748031497
        },
        {
          "duration": 0.3076919999999994,
          "durationTicks": 256,
          "midi": 74,
          "name": "D5",
          "ticks": 18432,
          "time": 22.153823999999997,
          "velocity": 0.7874015748031497
        },
        {
          "duration": 0.30769200000000296,
          "durationTicks": 256,
          "midi": 71,
          "name": "B4",
          "ticks": 18688,
          "time": 22.461515999999996,
          "velocity": 0.7874015748031497
        },
        {
          "duration": 0.3076919999999994,
          "durationTicks": 256,
          "midi": 67,
          "name": "G4",
          "ticks": 18944,
          "time": 22.769208,
          "velocity": 0.7874015748031497
        },
        {
          "duration": 0.3076919999999994,
          "durationTicks": 256,
          "midi": 69,
          "name": "A4",
          "ticks": 19200,
          "time": 23.0769,
          "velocity": 0.7874015748031497
        },
        {
          "duration": 0.3076919999999994,
          "durationTicks": 256,
          "midi": 67,
          "name": "G4",
          "ticks": 19456,
          "time": 23.384591999999998,
          "velocity": 0.7874015748031497
        },
        {
          "duration": 0.3076919999999994,
          "durationTicks": 256,
          "midi": 64,
          "name": "E4",
          "ticks": 19712,
          "time": 23.692283999999997,
          "velocity": 0.7874015748031497
        },
        {
          "duration": 0.3076919999999994,
          "durationTicks": 256,
          "midi": 67,
          "name": "G4",
          "ticks": 19968,
          "time": 23.999975999999997,
          "velocity": 0.7874015748031497
        },
        {
          "duration": 0.30769200000000296,
          "durationTicks": 256,
          "midi": 64,
          "name": "E4",
          "ticks": 20224,
          "time": 24.307667999999996,
          "velocity": 0.7874015748031497
        },
        {
          "duration": 0.3076919999999994,
          "durationTicks": 256,
          "midi": 64,
          "name": "E4",
          "ticks": 20480,
          "time": 24.61536,
          "velocity": 0.7874015748031497
        },
        {
          "duration": 0.3076919999999994,
          "durationTicks": 256,
          "midi": 67,
          "name": "G4",
          "ticks": 20736,
          "time": 24.923052,
          "velocity": 0.7874015748031497
        },
        {
          "duration": 0.3076919999999994,
          "durationTicks": 256,
          "midi": 64,
          "name": "E4",
          "ticks": 20992,
          "time": 25.230743999999998,
          "velocity": 0.7874015748031497
        },
        {
          "duration": 0.3076919999999994,
          "durationTicks": 256,
          "midi": 74,
          "name": "D5",
          "ticks": 21504,
          "time": 25.846127999999997,
          "velocity": 0.7874015748031497
        },
        {
          "duration": 0.30769200000000296,
          "durationTicks": 256,
          "midi": 71,
          "name": "B4",
          "ticks": 21760,
          "time": 26.153819999999996,
          "velocity": 0.7874015748031497
        },
        {
          "duration": 0.3076919999999994,
          "durationTicks": 256,
          "midi": 67,
          "name": "G4",
          "ticks": 22016,
          "time": 26.461512,
          "velocity": 0.7874015748031497
        },
        {
          "duration": 0.30769199999999586,
          "durationTicks": 256,
          "midi": 69,
          "name": "A4",
          "ticks": 22272,
          "time": 26.769204,
          "velocity": 0.7874015748031497
        },
        {
          "duration": 0.30769200000000296,
          "durationTicks": 256,
          "midi": 67,
          "name": "G4",
          "ticks": 22528,
          "time": 27.076895999999994,
          "velocity": 0.7874015748031497
        },
        {
          "duration": 0.3076919999999994,
          "durationTicks": 256,
          "midi": 64,
          "name": "E4",
          "ticks": 22784,
          "time": 27.384587999999997,
          "velocity": 0.7874015748031497
        },
        {
          "duration": 0.3076919999999994,
          "durationTicks": 256,
          "midi": 67,
          "name": "G4",
          "ticks": 23040,
          "time": 27.692279999999997,
          "velocity": 0.7874015748031497
        },
        {
          "duration": 0.30769200000000296,
          "durationTicks": 256,
          "midi": 64,
          "name": "E4",
          "ticks": 23296,
          "time": 27.999971999999996,
          "velocity": 0.7874015748031497
        },
        {
          "duration": 0.3076919999999994,
          "durationTicks": 256,
          "midi": 64,
          "name": "E4",
          "ticks": 23552,
          "time": 28.307664,
          "velocity": 0.7874015748031497
        },
        {
          "duration": 0.30769199999999586,
          "durationTicks": 256,
          "midi": 67,
          "name": "G4",
          "ticks": 23808,
          "time": 28.615356,
          "velocity": 0.7874015748031497
        },
        {
          "duration": 0.30769200000000296,
          "durationTicks": 256,
          "midi": 64,
          "name": "E4",
          "ticks": 24064,
          "time": 28.923047999999994,
          "velocity": 0.7874015748031497
        },
        {
          "duration": 0.4615380000000009,
          "durationTicks": 384,
          "midi": 71,
          "name": "B4",
          "ticks": 24576,
          "time": 29.538431999999997,
          "velocity": 0.7874015748031497
        },
        {
          "duration": 0.15384599999999793,
          "durationTicks": 128,
          "midi": 69,
          "name": "A4",
          "ticks": 24960,
          "time": 29.999969999999998,
          "velocity": 0.7874015748031497
        },
        {
          "duration": 0.23076899999999867,
          "durationTicks": 192,
          "midi": 68,
          "name": "G#4",
          "ticks": 25088,
          "time": 30.153815999999996,
          "velocity": 0.7874015748031497
        },
        {
          "duration": 0.3461534999999998,
          "durationTicks": 288,
          "midi": 69,
          "name": "A4",
          "ticks": 25276,
          "time": 30.3797773125,
          "velocity": 0.7874015748031497
        },
        {
          "duration": 0.4615380000000009,
          "durationTicks": 384,
          "midi": 68,
          "name": "G#4",
          "ticks": 25568,
          "time": 30.730738499999994,
          "velocity": 0.7874015748031497
        },
        {
          "duration": 0.15384600000000148,
          "durationTicks": 128,
          "midi": 71,
          "name": "B4",
          "ticks": 27904,
          "time": 33.538427999999996,
          "velocity": 0.7874015748031497
        },
        {
          "duration": 0.30769200000000296,
          "durationTicks": 256,
          "midi": 79,
          "name": "G5",
          "ticks": 28032,
          "time": 33.692274,
          "velocity": 0.7874015748031497
        },
        {
          "duration": 0.46153799999999734,
          "durationTicks": 384,
          "midi": 76,
          "name": "E5",
          "ticks": 28288,
          "time": 33.999966,
          "velocity": 0.7874015748031497
        },
        {
          "duration": 0.15384599999999438,
          "durationTicks": 128,
          "midi": 71,
          "name": "B4",
          "ticks": 32512,
          "time": 39.076884,
          "velocity": 0.7874015748031497
        },
        {
          "duration": 0.46153800000000444,
          "durationTicks": 384,
          "midi": 73,
          "name": "C#5",
          "ticks": 32640,
          "time": 39.230729999999994,
          "velocity": 0.7874015748031497
        },
        {
          "duration": 0.30769199999999586,
          "durationTicks": 256,
          "midi": 73,
          "name": "C#5",
          "ticks": 33024,
          "time": 39.692268,
          "velocity": 0.7874015748031497
        },
        {
          "duration": 0.15384600000000148,
          "durationTicks": 128,
          "midi": 71,
          "name": "B4",
          "ticks": 33280,
          "time": 39.999959999999994,
          "velocity": 0.7874015748031497
        },
        {
          "duration": 0.30769200000000296,
          "durationTicks": 256,
          "midi": 73,
          "name": "C#5",
          "ticks": 33792,
          "time": 40.61534399999999,
          "velocity": 0.7874015748031497
        },
        {
          "duration": 0.15384600000000148,
          "durationTicks": 128,
          "midi": 71,
          "name": "B4",
          "ticks": 34048,
          "time": 40.923035999999996,
          "velocity": 0.7874015748031497
        },
        {
          "duration": 0.30769200000000296,
          "durationTicks": 256,
          "midi": 74,
          "name": "D5",
          "ticks": 34176,
          "time": 41.076882,
          "velocity": 0.7874015748031497
        },
        {
          "duration": 0.46153799999999734,
          "durationTicks": 384,
          "midi": 73,
          "name": "C#5",
          "ticks": 34432,
          "time": 41.384574,
          "velocity": 0.7874015748031497
        },
        {
          "duration": 0.15384599999999438,
          "durationTicks": 128,
          "midi": 71,
          "name": "B4",
          "ticks": 35584,
          "time": 42.769188,
          "velocity": 0.7874015748031497
        },
        {
          "duration": 0.46153800000000444,
          "durationTicks": 384,
          "midi": 73,
          "name": "C#5",
          "ticks": 35712,
          "time": 42.923033999999994,
          "velocity": 0.7874015748031497
        },
        {
          "duration": 0.30769199999999586,
          "durationTicks": 256,
          "midi": 73,
          "name": "C#5",
          "ticks": 36096,
          "time": 43.384572,
          "velocity": 0.7874015748031497
        },
        {
          "duration": 0.15384600000000148,
          "durationTicks": 128,
          "midi": 71,
          "name": "B4",
          "ticks": 36352,
          "time": 43.692263999999994,
          "velocity": 0.7874015748031497
        },
        {
          "duration": 0.30769200000000296,
          "durationTicks": 256,
          "midi": 73,
          "name": "C#5",
          "ticks": 36864,
          "time": 44.30764799999999,
          "velocity": 0.7874015748031497
        },
        {
          "duration": 0.15384600000000148,
          "durationTicks": 128,
          "midi": 71,
          "name": "B4",
          "ticks": 37120,
          "time": 44.615339999999996,
          "velocity": 0.7874015748031497
        },
        {
          "duration": 0.30769200000000296,
          "durationTicks": 256,
          "midi": 74,
          "name": "D5",
          "ticks": 37248,
          "time": 44.769186,
          "velocity": 0.7874015748031497
        },
        {
          "duration": 0.46153799999999734,
          "durationTicks": 384,
          "midi": 73,
          "name": "C#5",
          "ticks": 37504,
          "time": 45.076878,
          "velocity": 0.7874015748031497
        },
        {
          "duration": 0.15384599999999438,
          "durationTicks": 128,
          "midi": 76,
          "name": "E5",
          "ticks": 38656,
          "time": 46.461492,
          "velocity": 0.7874015748031497
        },
        {
          "duration": 0.46153799999999734,
          "durationTicks": 384,
          "midi": 76,
          "name": "E5",
          "ticks": 38784,
          "time": 46.615337999999994,
          "velocity": 0.7874015748031497
        },
        {
          "duration": 0.30769200000000296,
          "durationTicks": 256,
          "midi": 76,
          "name": "E5",
          "ticks": 39168,
          "time": 47.07687599999999,
          "velocity": 0.7874015748031497
        },
        {
          "duration": 0.15384599999999438,
          "durationTicks": 128,
          "midi": 75,
          "name": "D#5",
          "ticks": 39408,
          "time": 47.365337249999996,
          "velocity": 0.7874015748031497
        },
        {
          "duration": 0.15384599999999438,
          "durationTicks": 128,
          "midi": 75,
          "name": "D#5",
          "ticks": 39808,
          "time": 47.846106,
          "velocity": 0.7874015748031497
        },
        {
          "duration": 0.30769200000000296,
          "durationTicks": 256,
          "midi": 73,
          "name": "C#5",
          "ticks": 39936,
          "time": 47.99995199999999,
          "velocity": 0.7874015748031497
        },
        {
          "duration": 0.15384599999999438,
          "durationTicks": 128,
          "midi": 71,
          "name": "B4",
          "ticks": 40192,
          "time": 48.307643999999996,
          "velocity": 0.7874015748031497
        },
        {
          "duration": 0.30769200000000296,
          "durationTicks": 256,
          "midi": 74,
          "name": "D5",
          "ticks": 40320,
          "time": 48.46148999999999,
          "velocity": 0.7874015748031497
        },
        {
          "duration": 0.46153799999999734,
          "durationTicks": 384,
          "midi": 73,
          "name": "C#5",
          "ticks": 40576,
          "time": 48.769181999999994,
          "velocity": 0.7874015748031497
        },
        {
          "duration": 0.15384600000000148,
          "durationTicks": 128,
          "midi": 75,
          "name": "D#5",
          "ticks": 41712,
          "time": 50.134565249999994,
          "velocity": 0.7874015748031497
        },
        {
          "duration": 0.46153799999999734,
          "durationTicks": 384,
          "midi": 76,
          "name": "E5",
          "ticks": 41856,
          "time": 50.307641999999994,
          "velocity": 0.7874015748031497
        },
        {
          "duration": 0.30769200000000296,
          "durationTicks": 256,
          "midi": 76,
          "name": "E5",
          "ticks": 42240,
          "time": 50.76917999999999,
          "velocity": 0.7874015748031497
        },
        {
          "duration": 0.15384599999999438,
          "durationTicks": 128,
          "midi": 75,
          "name": "D#5",
          "ticks": 42480,
          "time": 51.057641249999996,
          "velocity": 0.7874015748031497
        },
        {
          "duration": 0.30769199999999586,
          "durationTicks": 256,
          "midi": 76,
          "name": "E5",
          "ticks": 43008,
          "time": 51.69225599999999,
          "velocity": 0.7874015748031497
        },
        {
          "duration": 0.15384600000000148,
          "durationTicks": 128,
          "midi": 75,
          "name": "D#5",
          "ticks": 43248,
          "time": 51.98071724999999,
          "velocity": 0.7874015748031497
        },
        {
          "duration": 0.30769200000000296,
          "durationTicks": 256,
          "midi": 76,
          "name": "E5",
          "ticks": 43392,
          "time": 52.15379399999999,
          "velocity": 0.7874015748031497
        },
        {
          "duration": 0.46153799999999734,
          "durationTicks": 384,
          "midi": 78,
          "name": "F#5",
          "ticks": 43632,
          "time": 52.442255249999995,
          "velocity": 0.7874015748031497
        },
        {
          "duration": 0.30769200000000296,
          "durationTicks": 256,
          "midi": 71,
          "name": "B4",
          "ticks": 44160,
          "time": 53.07686999999999,
          "velocity": 0.7874015748031497
        },
        {
          "duration": 0.15384599999999438,
          "durationTicks": 128,
          "midi": 73,
          "name": "C#5",
          "ticks": 44416,
          "time": 53.384561999999995,
          "velocity": 0.7874015748031497
        },
        {
          "duration": 0.46153800000000444,
          "durationTicks": 384,
          "midi": 76,
          "name": "E5",
          "ticks": 44544,
          "time": 53.53840799999999,
          "velocity": 0.7874015748031497
        },
        {
          "duration": 0.30769200000000296,
          "durationTicks": 256,
          "midi": 71,
          "name": "B4",
          "ticks": 57088,
          "time": 68.61531599999999,
          "velocity": 0.7874015748031497
        },
        {
          "duration": 0.2788458750000018,
          "durationTicks": 232,
          "midi": 69,
          "name": "A4",
          "ticks": 57360,
          "time": 68.94223874999999,
          "velocity": 0.7874015748031497
        },
        {
          "duration": 0.30769200000000296,
          "durationTicks": 256,
          "midi": 69,
          "name": "A4",
          "ticks": 57600,
          "time": 69.23069999999998,
          "velocity": 0.7874015748031497
        },
        {
          "duration": 0.30769200000000296,
          "durationTicks": 256,
          "midi": 67,
          "name": "G4",
          "ticks": 57856,
          "time": 69.53839199999999,
          "velocity": 0.7874015748031497
        },
        {
          "duration": 0.30769200000000296,
          "durationTicks": 256,
          "midi": 64,
          "name": "E4",
          "ticks": 58112,
          "time": 69.84608399999999,
          "velocity": 0.7874015748031497
        },
        {
          "duration": 0.30769200000000296,
          "durationTicks": 256,
          "midi": 71,
          "name": "B4",
          "ticks": 58368,
          "time": 70.153776,
          "velocity": 0.7874015748031497
        },
        {
          "duration": 0.30769200000000296,
          "durationTicks": 256,
          "midi": 69,
          "name": "A4",
          "ticks": 58624,
          "time": 70.461468,
          "velocity": 0.7874015748031497
        },
        {
          "duration": 0.30769199999998875,
          "durationTicks": 256,
          "midi": 69,
          "name": "A4",
          "ticks": 58880,
          "time": 70.76916,
          "velocity": 0.7874015748031497
        },
        {
          "duration": 0.30769200000000296,
          "durationTicks": 256,
          "midi": 69,
          "name": "A4",
          "ticks": 59136,
          "time": 71.07685199999999,
          "velocity": 0.7874015748031497
        },
        {
          "duration": 0.6153839999999917,
          "durationTicks": 512,
          "midi": 67,
          "name": "G4",
          "ticks": 59392,
          "time": 71.38454399999999,
          "velocity": 0.7874015748031497
        },
        {
          "duration": 0.30769200000000296,
          "durationTicks": 256,
          "midi": 71,
          "name": "B4",
          "ticks": 59904,
          "time": 71.99992799999998,
          "velocity": 0.7874015748031497
        },
        {
          "duration": 0.30769200000000296,
          "durationTicks": 256,
          "midi": 69,
          "name": "A4",
          "ticks": 60160,
          "time": 72.30761999999999,
          "velocity": 0.7874015748031497
        },
        {
          "duration": 0.30769200000000296,
          "durationTicks": 256,
          "midi": 71,
          "name": "B4",
          "ticks": 60416,
          "time": 72.61531199999999,
          "velocity": 0.7874015748031497
        },
        {
          "duration": 0.30769200000000296,
          "durationTicks": 256,
          "midi": 69,
          "name": "A4",
          "ticks": 60672,
          "time": 72.92300399999999,
          "velocity": 0.7874015748031497
        },
        {
          "duration": 0.30769200000000296,
          "durationTicks": 256,
          "midi": 67,
          "name": "G4",
          "ticks": 60928,
          "time": 73.230696,
          "velocity": 0.7874015748031497
        },
        {
          "duration": 0.30769199999998875,
          "durationTicks": 256,
          "midi": 64,
          "name": "E4",
          "ticks": 61184,
          "time": 73.538388,
          "velocity": 0.7874015748031497
        },
        {
          "duration": 0.30769200000000296,
          "durationTicks": 256,
          "midi": 69,
          "name": "A4",
          "ticks": 61696,
          "time": 74.15377199999999,
          "velocity": 0.7874015748031497
        },
        {
          "duration": 0.30769200000000296,
          "durationTicks": 256,
          "midi": 69,
          "name": "A4",
          "ticks": 61952,
          "time": 74.46146399999999,
          "velocity": 0.7874015748031497
        },
        {
          "duration": 0.30769199999998875,
          "durationTicks": 256,
          "midi": 69,
          "name": "A4",
          "ticks": 62208,
          "time": 74.769156,
          "velocity": 0.7874015748031497
        },
        {
          "duration": 0.30769200000000296,
          "durationTicks": 256,
          "midi": 67,
          "name": "G4",
          "ticks": 62464,
          "time": 75.07684799999998,
          "velocity": 0.7874015748031497
        },
        {
          "duration": 0.30769200000000296,
          "durationTicks": 256,
          "midi": 64,
          "name": "E4",
          "ticks": 62720,
          "time": 75.38453999999999,
          "velocity": 0.7874015748031497
        },
        {
          "duration": 0.30769200000000296,
          "durationTicks": 256,
          "midi": 71,
          "name": "B4",
          "ticks": 62976,
          "time": 75.69223199999999,
          "velocity": 0.7874015748031497
        },
        {
          "duration": 0.30769200000000296,
          "durationTicks": 256,
          "midi": 69,
          "name": "A4",
          "ticks": 63232,
          "time": 75.999924,
          "velocity": 0.7874015748031497
        },
        {
          "duration": 0.30769200000000296,
          "durationTicks": 256,
          "midi": 67,
          "name": "G4",
          "ticks": 63488,
          "time": 76.307616,
          "velocity": 0.7874015748031497
        },
        {
          "duration": 0.30769199999998875,
          "durationTicks": 256,
          "midi": 69,
          "name": "A4",
          "ticks": 63744,
          "time": 76.615308,
          "velocity": 0.7874015748031497
        },
        {
          "duration": 0.30769200000000296,
          "durationTicks": 256,
          "midi": 67,
          "name": "G4",
          "ticks": 64000,
          "time": 76.92299999999999,
          "velocity": 0.7874015748031497
        },
        {
          "duration": 0.30769200000000296,
          "durationTicks": 256,
          "midi": 64,
          "name": "E4",
          "ticks": 64256,
          "time": 77.23069199999999,
          "velocity": 0.7874015748031497
        },
        {
          "duration": 0.30769200000000296,
          "durationTicks": 256,
          "midi": 71,
          "name": "B4",
          "ticks": 64512,
          "time": 77.538384,
          "velocity": 0.7874015748031497
        },
        {
          "duration": 0.30769199999998875,
          "durationTicks": 256,
          "midi": 69,
          "name": "A4",
          "ticks": 64768,
          "time": 77.846076,
          "velocity": 0.7874015748031497
        },
        {
          "duration": 0.30769200000000296,
          "durationTicks": 256,
          "midi": 71,
          "name": "B4",
          "ticks": 65024,
          "time": 78.15376799999999,
          "velocity": 0.7874015748031497
        },
        {
          "duration": 0.30769200000000296,
          "durationTicks": 256,
          "midi": 69,
          "name": "A4",
          "ticks": 65280,
          "time": 78.46145999999999,
          "velocity": 0.7874015748031497
        },
        {
          "duration": 0.30769200000000296,
          "durationTicks": 256,
          "midi": 67,
          "name": "G4",
          "ticks": 65536,
          "time": 78.76915199999999,
          "velocity": 0.7874015748031497
        },
        {
          "duration": 0.30769200000000296,
          "durationTicks": 256,
          "midi": 74,
          "name": "D5",
          "ticks": 66048,
          "time": 79.384536,
          "velocity": 0.7874015748031497
        },
        {
          "duration": 0.30769199999998875,
          "durationTicks": 256,
          "midi": 71,
          "name": "B4",
          "ticks": 66304,
          "time": 79.692228,
          "velocity": 0.7874015748031497
        },
        {
          "duration": 0.30769200000000296,
          "durationTicks": 256,
          "midi": 67,
          "name": "G4",
          "ticks": 66560,
          "time": 79.99991999999999,
          "velocity": 0.7874015748031497
        },
        {
          "duration": 0.30769200000000296,
          "durationTicks": 256,
          "midi": 69,
          "name": "A4",
          "ticks": 66816,
          "time": 80.30761199999999,
          "velocity": 0.7874015748031497
        },
        {
          "duration": 0.30769199999998875,
          "durationTicks": 256,
          "midi": 67,
          "name": "G4",
          "ticks": 67072,
          "time": 80.615304,
          "velocity": 0.7874015748031497
        },
        {
          "duration": 0.30769200000000296,
          "durationTicks": 256,
          "midi": 64,
          "name": "E4",
          "ticks": 67328,
          "time": 80.92299599999998,
          "velocity": 0.7874015748031497
        },
        {
          "duration": 0.30769200000000296,
          "durationTicks": 256,
          "midi": 67,
          "name": "G4",
          "ticks": 67584,
          "time": 81.23068799999999,
          "velocity": 0.7874015748031497
        },
        {
          "duration": 0.30769200000000296,
          "durationTicks": 256,
          "midi": 64,
          "name": "E4",
          "ticks": 67840,
          "time": 81.53837999999999,
          "velocity": 0.7874015748031497
        },
        {
          "duration": 0.30769200000000296,
          "durationTicks": 256,
          "midi": 64,
          "name": "E4",
          "ticks": 68096,
          "time": 81.84607199999999,
          "velocity": 0.7874015748031497
        },
        {
          "duration": 0.30769200000000296,
          "durationTicks": 256,
          "midi": 67,
          "name": "G4",
          "ticks": 68352,
          "time": 82.153764,
          "velocity": 0.7874015748031497
        },
        {
          "duration": 0.30769199999998875,
          "durationTicks": 256,
          "midi": 64,
          "name": "E4",
          "ticks": 68608,
          "time": 82.461456,
          "velocity": 0.7874015748031497
        },
        {
          "duration": 0.30769200000000296,
          "durationTicks": 256,
          "midi": 74,
          "name": "D5",
          "ticks": 69120,
          "time": 83.07683999999999,
          "velocity": 0.7874015748031497
        },
        {
          "duration": 0.30769199999998875,
          "durationTicks": 256,
          "midi": 71,
          "name": "B4",
          "ticks": 69376,
          "time": 83.384532,
          "velocity": 0.7874015748031497
        },
        {
          "duration": 0.30769200000000296,
          "durationTicks": 256,
          "midi": 67,
          "name": "G4",
          "ticks": 69632,
          "time": 83.69222399999998,
          "velocity": 0.7874015748031497
        },
        {
          "duration": 0.30769200000000296,
          "durationTicks": 256,
          "midi": 69,
          "name": "A4",
          "ticks": 69888,
          "time": 83.99991599999998,
          "velocity": 0.7874015748031497
        },
        {
          "duration": 0.30769200000000296,
          "durationTicks": 256,
          "midi": 67,
          "name": "G4",
          "ticks": 70144,
          "time": 84.30760799999999,
          "velocity": 0.7874015748031497
        },
        {
          "duration": 0.30769200000000296,
          "durationTicks": 256,
          "midi": 64,
          "name": "E4",
          "ticks": 70400,
          "time": 84.61529999999999,
          "velocity": 0.7874015748031497
        },
        {
          "duration": 0.30769200000000296,
          "durationTicks": 256,
          "midi": 67,
          "name": "G4",
          "ticks": 70656,
          "time": 84.922992,
          "velocity": 0.7874015748031497
        },
        {
          "duration": 0.30769199999998875,
          "durationTicks": 256,
          "midi": 64,
          "name": "E4",
          "ticks": 70912,
          "time": 85.230684,
          "velocity": 0.7874015748031497
        },
        {
          "duration": 0.30769200000000296,
          "durationTicks": 256,
          "midi": 64,
          "name": "E4",
          "ticks": 71168,
          "time": 85.53837599999999,
          "velocity": 0.7874015748031497
        },
        {
          "duration": 0.30769200000000296,
          "durationTicks": 256,
          "midi": 67,
          "name": "G4",
          "ticks": 71424,
          "time": 85.84606799999999,
          "velocity": 0.7874015748031497
        },
        {
          "duration": 0.30769199999998875,
          "durationTicks": 256,
          "midi": 64,
          "name": "E4",
          "ticks": 71680,
          "time": 86.15375999999999,
          "velocity": 0.7874015748031497
        },
        {
          "duration": 0.46153800000000444,
          "durationTicks": 384,
          "midi": 71,
          "name": "B4",
          "ticks": 72192,
          "time": 86.76914399999998,
          "velocity": 0.7874015748031497
        },
        {
          "duration": 0.15384600000000148,
          "durationTicks": 128,
          "midi": 69,
          "name": "A4",
          "ticks": 72576,
          "time": 87.23068199999999,
          "velocity": 0.7874015748031497
        },
        {
          "duration": 0.23076899999999512,
          "durationTicks": 192,
          "midi": 68,
          "name": "G#4",
          "ticks": 72704,
          "time": 87.38452799999999,
          "velocity": 0.7874015748031497
        },
        {
          "duration": 0.3461534999999998,
          "durationTicks": 288,
          "midi": 69,
          "name": "A4",
          "ticks": 72892,
          "time": 87.6104893125,
          "velocity": 0.7874015748031497
        },
        {
          "duration": 0.46153800000000444,
          "durationTicks": 384,
          "midi": 68,
          "name": "G#4",
          "ticks": 73184,
          "time": 87.96145049999998,
          "velocity": 0.7874015748031497
        },
        {
          "duration": 0.15384599999998727,
          "durationTicks": 128,
          "midi": 71,
          "name": "B4",
          "ticks": 75520,
          "time": 90.76914,
          "velocity": 0.7874015748031497
        },
        {
          "duration": 0.30769200000000296,
          "durationTicks": 256,
          "midi": 79,
          "name": "G5",
          "ticks": 75648,
          "time": 90.92298599999998,
          "velocity": 0.7874015748031497
        },
        {
          "duration": 0.46153800000000444,
          "durationTicks": 384,
          "midi": 76,
          "name": "E5",
          "ticks": 75904,
          "time": 91.23067799999998,
          "velocity": 0.7874015748031497
        },
        {
          "duration": 0.15384600000000148,
          "durationTicks": 128,
          "midi": 71,
          "name": "B4",
          "ticks": 80128,
          "time": 96.30759599999999,
          "velocity": 0.7874015748031497
        },
        {
          "duration": 0.46153800000000444,
          "durationTicks": 384,
          "midi": 73,
          "name": "C#5",
          "ticks": 80256,
          "time": 96.46144199999999,
          "velocity": 0.7874015748031497
        },
        {
          "duration": 0.30769200000000296,
          "durationTicks": 256,
          "midi": 73,
          "name": "C#5",
          "ticks": 80640,
          "time": 96.92298,
          "velocity": 0.7874015748031497
        },
        {
          "duration": 0.15384599999998727,
          "durationTicks": 128,
          "midi": 71,
          "name": "B4",
          "ticks": 80896,
          "time": 97.230672,
          "velocity": 0.7874015748031497
        },
        {
          "duration": 0.30769200000000296,
          "durationTicks": 256,
          "midi": 73,
          "name": "C#5",
          "ticks": 81408,
          "time": 97.84605599999999,
          "velocity": 0.7874015748031497
        },
        {
          "duration": 0.15384600000000148,
          "durationTicks": 128,
          "midi": 71,
          "name": "B4",
          "ticks": 81664,
          "time": 98.153748,
          "velocity": 0.7874015748031497
        },
        {
          "duration": 0.30769200000000296,
          "durationTicks": 256,
          "midi": 74,
          "name": "D5",
          "ticks": 81792,
          "time": 98.307594,
          "velocity": 0.7874015748031497
        },
        {
          "duration": 0.46153799999999023,
          "durationTicks": 384,
          "midi": 73,
          "name": "C#5",
          "ticks": 82048,
          "time": 98.615286,
          "velocity": 0.7874015748031497
        },
        {
          "duration": 0.15384599999998727,
          "durationTicks": 128,
          "midi": 71,
          "name": "B4",
          "ticks": 83200,
          "time": 99.9999,
          "velocity": 0.7874015748031497
        },
        {
          "duration": 0.46153800000000444,
          "durationTicks": 384,
          "midi": 73,
          "name": "C#5",
          "ticks": 83328,
          "time": 100.15374599999998,
          "velocity": 0.7874015748031497
        },
        {
          "duration": 0.30769200000000296,
          "durationTicks": 256,
          "midi": 73,
          "name": "C#5",
          "ticks": 83712,
          "time": 100.61528399999999,
          "velocity": 0.7874015748031497
        },
        {
          "duration": 0.15384600000000148,
          "durationTicks": 128,
          "midi": 71,
          "name": "B4",
          "ticks": 83968,
          "time": 100.92297599999999,
          "velocity": 0.7874015748031497
        },
        {
          "duration": 0.30769200000000296,
          "durationTicks": 256,
          "midi": 73,
          "name": "C#5",
          "ticks": 84480,
          "time": 101.53835999999998,
          "velocity": 0.7874015748031497
        },
        {
          "duration": 0.15384600000000148,
          "durationTicks": 128,
          "midi": 71,
          "name": "B4",
          "ticks": 84736,
          "time": 101.84605199999999,
          "velocity": 0.7874015748031497
        },
        {
          "duration": 0.30769200000000296,
          "durationTicks": 256,
          "midi": 74,
          "name": "D5",
          "ticks": 84864,
          "time": 101.99989799999999,
          "velocity": 0.7874015748031497
        },
        {
          "duration": 0.46153800000000444,
          "durationTicks": 384,
          "midi": 73,
          "name": "C#5",
          "ticks": 85120,
          "time": 102.30758999999999,
          "velocity": 0.7874015748031497
        },
        {
          "duration": 0.15384600000000148,
          "durationTicks": 128,
          "midi": 76,
          "name": "E5",
          "ticks": 86272,
          "time": 103.69220399999999,
          "velocity": 0.7874015748031497
        },
        {
          "duration": 0.46153799999999023,
          "durationTicks": 384,
          "midi": 76,
          "name": "E5",
          "ticks": 86400,
          "time": 103.84604999999999,
          "velocity": 0.7874015748031497
        },
        {
          "duration": 0.30769200000000296,
          "durationTicks": 256,
          "midi": 76,
          "name": "E5",
          "ticks": 86784,
          "time": 104.30758799999998,
          "velocity": 0.7874015748031497
        },
        {
          "duration": 0.15384599999998727,
          "durationTicks": 128,
          "midi": 75,
          "name": "D#5",
          "ticks": 87024,
          "time": 104.59604925,
          "velocity": 0.7874015748031497
        },
        {
          "duration": 0.15384600000000148,
          "durationTicks": 128,
          "midi": 75,
          "name": "D#5",
          "ticks": 87424,
          "time": 105.07681799999999,
          "velocity": 0.7874015748031497
        },
        {
          "duration": 0.30769200000000296,
          "durationTicks": 256,
          "midi": 73,
          "name": "C#5",
          "ticks": 87552,
          "time": 105.23066399999999,
          "velocity": 0.7874015748031497
        },
        {
          "duration": 0.15384599999998727,
          "durationTicks": 128,
          "midi": 71,
          "name": "B4",
          "ticks": 87808,
          "time": 105.538356,
          "velocity": 0.7874015748031497
        },
        {
          "duration": 0.30769200000000296,
          "durationTicks": 256,
          "midi": 74,
          "name": "D5",
          "ticks": 87936,
          "time": 105.69220199999998,
          "velocity": 0.7874015748031497
        },
        {
          "duration": 0.46153800000000444,
          "durationTicks": 384,
          "midi": 73,
          "name": "C#5",
          "ticks": 88192,
          "time": 105.99989399999998,
          "velocity": 0.7874015748031497
        },
        {
          "duration": 0.15384600000000148,
          "durationTicks": 128,
          "midi": 75,
          "name": "D#5",
          "ticks": 89328,
          "time": 107.36527724999999,
          "velocity": 0.7874015748031497
        },
        {
          "duration": 0.46153800000000444,
          "durationTicks": 384,
          "midi": 76,
          "name": "E5",
          "ticks": 89472,
          "time": 107.53835399999998,
          "velocity": 0.7874015748031497
        },
        {
          "duration": 0.30769200000000296,
          "durationTicks": 256,
          "midi": 76,
          "name": "E5",
          "ticks": 89856,
          "time": 107.99989199999999,
          "velocity": 0.7874015748031497
        },
        {
          "duration": 0.15384600000000148,
          "durationTicks": 128,
          "midi": 75,
          "name": "D#5",
          "ticks": 90096,
          "time": 108.28835324999999,
          "velocity": 0.7874015748031497
        },
        {
          "duration": 0.30769200000000296,
          "durationTicks": 256,
          "midi": 76,
          "name": "E5",
          "ticks": 90624,
          "time": 108.92296799999998,
          "velocity": 0.7874015748031497
        },
        {
          "duration": 0.15384600000000148,
          "durationTicks": 128,
          "midi": 75,
          "name": "D#5",
          "ticks": 90864,
          "time": 109.21142924999998,
          "velocity": 0.7874015748031497
        },
        {
          "duration": 0.30769200000000296,
          "durationTicks": 256,
          "midi": 76,
          "name": "E5",
          "ticks": 91008,
          "time": 109.38450599999999,
          "velocity": 0.7874015748031497
        },
        {
          "duration": 0.46153800000000444,
          "durationTicks": 384,
          "midi": 78,
          "name": "F#5",
          "ticks": 91248,
          "time": 109.67296724999999,
          "velocity": 0.7874015748031497
        },
        {
          "duration": 0.30769200000000296,
          "durationTicks": 256,
          "midi": 71,
          "name": "B4",
          "ticks": 91776,
          "time": 110.30758199999998,
          "velocity": 0.7874015748031497
        },
        {
          "duration": 0.15384600000000148,
          "durationTicks": 128,
          "midi": 73,
          "name": "C#5",
          "ticks": 92032,
          "time": 110.61527399999999,
          "velocity": 0.7874015748031497
        },
        {
          "duration": 0.46153800000000444,
          "durationTicks": 384,
          "midi": 76,
          "name": "E5",
          "ticks": 92160,
          "time": 110.76911999999999,
          "velocity": 0.7874015748031497
        },
        {
          "duration": 0.30769200000000296,
          "durationTicks": 256,
          "midi": 71,
          "name": "B4",
          "ticks": 104704,
          "time": 125.84602799999999,
          "velocity": 0.7874015748031497
        },
        {
          "duration": 0.27403818749999687,
          "durationTicks": 228,
          "midi": 69,
          "name": "A4",
          "ticks": 104976,
          "time": 126.17295074999998,
          "velocity": 0.7874015748031497
        },
        {
          "duration": 0.30769200000000296,
          "durationTicks": 256,
          "midi": 69,
          "name": "A4",
          "ticks": 105216,
          "time": 126.46141199999998,
          "velocity": 0.7874015748031497
        },
        {
          "duration": 0.30769200000000296,
          "durationTicks": 256,
          "midi": 67,
          "name": "G4",
          "ticks": 105472,
          "time": 126.76910399999998,
          "velocity": 0.7874015748031497
        },
        {
          "duration": 0.30769199999998875,
          "durationTicks": 256,
          "midi": 64,
          "name": "E4",
          "ticks": 105728,
          "time": 127.07679599999999,
          "velocity": 0.7874015748031497
        },
        {
          "duration": 0.30769200000000296,
          "durationTicks": 256,
          "midi": 71,
          "name": "B4",
          "ticks": 105984,
          "time": 127.38448799999998,
          "velocity": 0.7874015748031497
        },
        {
          "duration": 0.30769200000000296,
          "durationTicks": 256,
          "midi": 69,
          "name": "A4",
          "ticks": 106240,
          "time": 127.69217999999998,
          "velocity": 0.7874015748031497
        },
        {
          "duration": 0.30769200000000296,
          "durationTicks": 256,
          "midi": 69,
          "name": "A4",
          "ticks": 106496,
          "time": 127.99987199999998,
          "velocity": 0.7874015748031497
        },
        {
          "duration": 0.30769200000000296,
          "durationTicks": 256,
          "midi": 69,
          "name": "A4",
          "ticks": 106752,
          "time": 128.30756399999999,
          "velocity": 0.7874015748031497
        },
        {
          "duration": 0.6153840000000059,
          "durationTicks": 512,
          "midi": 67,
          "name": "G4",
          "ticks": 107008,
          "time": 128.615256,
          "velocity": 0.7874015748031497
        },
        {
          "duration": 0.30769199999997454,
          "durationTicks": 256,
          "midi": 71,
          "name": "B4",
          "ticks": 107520,
          "time": 129.23064,
          "velocity": 0.7874015748031497
        },
        {
          "duration": 0.3076920000000314,
          "durationTicks": 256,
          "midi": 69,
          "name": "A4",
          "ticks": 107776,
          "time": 129.53833199999997,
          "velocity": 0.7874015748031497
        },
        {
          "duration": 0.30769199999997454,
          "durationTicks": 256,
          "midi": 71,
          "name": "B4",
          "ticks": 108032,
          "time": 129.846024,
          "velocity": 0.7874015748031497
        },
        {
          "duration": 0.30769200000000296,
          "durationTicks": 256,
          "midi": 69,
          "name": "A4",
          "ticks": 108288,
          "time": 130.15371599999997,
          "velocity": 0.7874015748031497
        },
        {
          "duration": 0.30769200000000296,
          "durationTicks": 256,
          "midi": 67,
          "name": "G4",
          "ticks": 108544,
          "time": 130.46140799999998,
          "velocity": 0.7874015748031497
        },
        {
          "duration": 0.30769200000000296,
          "durationTicks": 256,
          "midi": 64,
          "name": "E4",
          "ticks": 108800,
          "time": 130.76909999999998,
          "velocity": 0.7874015748031497
        },
        {
          "duration": 0.30769200000000296,
          "durationTicks": 256,
          "midi": 69,
          "name": "A4",
          "ticks": 109312,
          "time": 131.384484,
          "velocity": 0.7874015748031497
        },
        {
          "duration": 0.30769200000000296,
          "durationTicks": 256,
          "midi": 69,
          "name": "A4",
          "ticks": 109568,
          "time": 131.692176,
          "velocity": 0.7874015748031497
        },
        {
          "duration": 0.30769199999997454,
          "durationTicks": 256,
          "midi": 69,
          "name": "A4",
          "ticks": 109824,
          "time": 131.999868,
          "velocity": 0.7874015748031497
        },
        {
          "duration": 0.3076920000000314,
          "durationTicks": 256,
          "midi": 67,
          "name": "G4",
          "ticks": 110080,
          "time": 132.30755999999997,
          "velocity": 0.7874015748031497
        },
        {
          "duration": 0.30769199999997454,
          "durationTicks": 256,
          "midi": 64,
          "name": "E4",
          "ticks": 110336,
          "time": 132.615252,
          "velocity": 0.7874015748031497
        },
        {
          "duration": 0.30769200000000296,
          "durationTicks": 256,
          "midi": 71,
          "name": "B4",
          "ticks": 112128,
          "time": 134.769096,
          "velocity": 0.7874015748031497
        },
        {
          "duration": 0.30769200000000296,
          "durationTicks": 256,
          "midi": 69,
          "name": "A4",
          "ticks": 112384,
          "time": 135.076788,
          "velocity": 0.7874015748031497
        },
        {
          "duration": 0.30769199999997454,
          "durationTicks": 256,
          "midi": 71,
          "name": "B4",
          "ticks": 112640,
          "time": 135.38448,
          "velocity": 0.7874015748031497
        },
        {
          "duration": 0.3076920000000314,
          "durationTicks": 256,
          "midi": 69,
          "name": "A4",
          "ticks": 112896,
          "time": 135.69217199999997,
          "velocity": 0.7874015748031497
        },
        {
          "duration": 0.30769199999997454,
          "durationTicks": 256,
          "midi": 67,
          "name": "G4",
          "ticks": 113152,
          "time": 135.999864,
          "velocity": 0.7874015748031497
        },
        {
          "duration": 0.3076920000000314,
          "durationTicks": 256,
          "midi": 71,
          "name": "B4",
          "ticks": 115200,
          "time": 138.46139999999997,
          "velocity": 0.7874015748031497
        },
        {
          "duration": 0.30769199999997454,
          "durationTicks": 256,
          "midi": 69,
          "name": "A4",
          "ticks": 115456,
          "time": 138.769092,
          "velocity": 0.7874015748031497
        },
        {
          "duration": 0.30769200000000296,
          "durationTicks": 256,
          "midi": 71,
          "name": "B4",
          "ticks": 115712,
          "time": 139.07678399999998,
          "velocity": 0.7874015748031497
        },
        {
          "duration": 0.30769200000000296,
          "durationTicks": 256,
          "midi": 69,
          "name": "A4",
          "ticks": 115968,
          "time": 139.38447599999998,
          "velocity": 0.7874015748031497
        },
        {
          "duration": 0.30769200000000296,
          "durationTicks": 256,
          "midi": 67,
          "name": "G4",
          "ticks": 116224,
          "time": 139.69216799999998,
          "velocity": 0.7874015748031497
        },
        {
          "duration": 0.1538460000000157,
          "durationTicks": 128,
          "midi": 71,
          "name": "B4",
          "ticks": 136960,
          "time": 164.61521999999997,
          "velocity": 0.7874015748031497
        },
        {
          "duration": 0.46153799999999023,
          "durationTicks": 384,
          "midi": 73,
          "name": "C#5",
          "ticks": 137088,
          "time": 164.76906599999998,
          "velocity": 0.7874015748031497
        },
        {
          "duration": 0.30769200000000296,
          "durationTicks": 256,
          "midi": 73,
          "name": "C#5",
          "ticks": 137472,
          "time": 165.23060399999997,
          "velocity": 0.7874015748031497
        },
        {
          "duration": 0.1538460000000157,
          "durationTicks": 128,
          "midi": 71,
          "name": "B4",
          "ticks": 137728,
          "time": 165.53829599999997,
          "velocity": 0.7874015748031497
        },
        {
          "duration": 0.30769200000000296,
          "durationTicks": 256,
          "midi": 73,
          "name": "C#5",
          "ticks": 138240,
          "time": 166.15367999999998,
          "velocity": 0.7874015748031497
        },
        {
          "duration": 0.15384599999998727,
          "durationTicks": 128,
          "midi": 71,
          "name": "B4",
          "ticks": 138496,
          "time": 166.46137199999998,
          "velocity": 0.7874015748031497
        },
        {
          "duration": 0.30769200000000296,
          "durationTicks": 256,
          "midi": 74,
          "name": "D5",
          "ticks": 138624,
          "time": 166.61521799999997,
          "velocity": 0.7874015748031497
        },
        {
          "duration": 0.46153799999999023,
          "durationTicks": 384,
          "midi": 73,
          "name": "C#5",
          "ticks": 138880,
          "time": 166.92290999999997,
          "velocity": 0.7874015748031497
        },
        {
          "duration": 0.1538460000000157,
          "durationTicks": 128,
          "midi": 71,
          "name": "B4",
          "ticks": 140032,
          "time": 168.30752399999997,
          "velocity": 0.7874015748031497
        },
        {
          "duration": 0.46153799999999023,
          "durationTicks": 384,
          "midi": 73,
          "name": "C#5",
          "ticks": 140160,
          "time": 168.46137,
          "velocity": 0.7874015748031497
        },
        {
          "duration": 0.30769200000000296,
          "durationTicks": 256,
          "midi": 73,
          "name": "C#5",
          "ticks": 140544,
          "time": 168.92290799999998,
          "velocity": 0.7874015748031497
        },
        {
          "duration": 0.15384599999998727,
          "durationTicks": 128,
          "midi": 71,
          "name": "B4",
          "ticks": 140800,
          "time": 169.23059999999998,
          "velocity": 0.7874015748031497
        },
        {
          "duration": 0.30769199999997454,
          "durationTicks": 256,
          "midi": 73,
          "name": "C#5",
          "ticks": 141312,
          "time": 169.845984,
          "velocity": 0.7874015748031497
        },
        {
          "duration": 0.1538460000000157,
          "durationTicks": 128,
          "midi": 71,
          "name": "B4",
          "ticks": 141568,
          "time": 170.15367599999996,
          "velocity": 0.7874015748031497
        },
        {
          "duration": 0.30769200000000296,
          "durationTicks": 256,
          "midi": 74,
          "name": "D5",
          "ticks": 141696,
          "time": 170.30752199999998,
          "velocity": 0.7874015748031497
        },
        {
          "duration": 0.46153799999999023,
          "durationTicks": 384,
          "midi": 73,
          "name": "C#5",
          "ticks": 141952,
          "time": 170.61521399999998,
          "velocity": 0.7874015748031497
        },
        {
          "duration": 0.15384599999998727,
          "durationTicks": 128,
          "midi": 76,
          "name": "E5",
          "ticks": 143104,
          "time": 171.99982799999998,
          "velocity": 0.7874015748031497
        },
        {
          "duration": 0.46153800000001866,
          "durationTicks": 384,
          "midi": 76,
          "name": "E5",
          "ticks": 143232,
          "time": 172.15367399999997,
          "velocity": 0.7874015748031497
        },
        {
          "duration": 0.30769200000000296,
          "durationTicks": 256,
          "midi": 76,
          "name": "E5",
          "ticks": 143616,
          "time": 172.61521199999999,
          "velocity": 0.7874015748031497
        },
        {
          "duration": 0.1538460000000157,
          "durationTicks": 128,
          "midi": 75,
          "name": "D#5",
          "ticks": 143856,
          "time": 172.90367324999997,
          "velocity": 0.7874015748031497
        },
        {
          "duration": 0.15384599999998727,
          "durationTicks": 128,
          "midi": 75,
          "name": "D#5",
          "ticks": 144256,
          "time": 173.38444199999998,
          "velocity": 0.7874015748031497
        },
        {
          "duration": 0.30769200000000296,
          "durationTicks": 256,
          "midi": 73,
          "name": "C#5",
          "ticks": 144384,
          "time": 173.53828799999997,
          "velocity": 0.7874015748031497
        },
        {
          "duration": 0.1538460000000157,
          "durationTicks": 128,
          "midi": 71,
          "name": "B4",
          "ticks": 144640,
          "time": 173.84597999999997,
          "velocity": 0.7874015748031497
        },
        {
          "duration": 0.30769200000000296,
          "durationTicks": 256,
          "midi": 74,
          "name": "D5",
          "ticks": 144768,
          "time": 173.99982599999998,
          "velocity": 0.7874015748031497
        },
        {
          "duration": 0.46153799999999023,
          "durationTicks": 384,
          "midi": 73,
          "name": "C#5",
          "ticks": 145024,
          "time": 174.307518,
          "velocity": 0.7874015748031497
        },
        {
          "duration": 0.1538460000000157,
          "durationTicks": 128,
          "midi": 75,
          "name": "D#5",
          "ticks": 146160,
          "time": 175.67290124999997,
          "velocity": 0.7874015748031497
        },
        {
          "duration": 0.46153799999999023,
          "durationTicks": 384,
          "midi": 76,
          "name": "E5",
          "ticks": 146304,
          "time": 175.84597799999997,
          "velocity": 0.7874015748031497
        },
        {
          "duration": 0.30769200000000296,
          "durationTicks": 256,
          "midi": 76,
          "name": "E5",
          "ticks": 146688,
          "time": 176.30751599999996,
          "velocity": 0.7874015748031497
        },
        {
          "duration": 0.15384599999998727,
          "durationTicks": 128,
          "midi": 75,
          "name": "D#5",
          "ticks": 146928,
          "time": 176.59597724999998,
          "velocity": 0.7874015748031497
        },
        {
          "duration": 0.30769200000000296,
          "durationTicks": 256,
          "midi": 76,
          "name": "E5",
          "ticks": 147456,
          "time": 177.23059199999997,
          "velocity": 0.7874015748031497
        },
        {
          "duration": 0.15384599999998727,
          "durationTicks": 128,
          "midi": 75,
          "name": "D#5",
          "ticks": 147696,
          "time": 177.51905324999998,
          "velocity": 0.7874015748031497
        },
        {
          "duration": 0.30769200000000296,
          "durationTicks": 256,
          "midi": 76,
          "name": "E5",
          "ticks": 147840,
          "time": 177.69212999999996,
          "velocity": 0.7874015748031497
        },
        {
          "duration": 0.46153799999999023,
          "durationTicks": 384,
          "midi": 78,
          "name": "F#5",
          "ticks": 148080,
          "time": 177.98059124999997,
          "velocity": 0.7874015748031497
        },
        {
          "duration": 0.30769200000000296,
          "durationTicks": 256,
          "midi": 71,
          "name": "B4",
          "ticks": 148608,
          "time": 178.61520599999997,
          "velocity": 0.7874015748031497
        },
        {
          "duration": 0.15384599999998727,
          "durationTicks": 128,
          "midi": 73,
          "name": "C#5",
          "ticks": 148864,
          "time": 178.92289799999998,
          "velocity": 0.7874015748031497
        },
        {
          "duration": 0.46153800000001866,
          "durationTicks": 384,
          "midi": 76,
          "name": "E5",
          "ticks": 148992,
          "time": 179.07674399999996,
          "velocity": 0.7874015748031497
        }
      ]
    },
    {
      "channel": 0,
      "controlChanges": {
        "0": [
          {
            "number": 0,
            "ticks": 0,
            "time": 0,
            "value": 0
          }
        ]
      },
      "pitchBends": [],
      "instrument": {
        "family": "piano",
        "number": 0,
        "name": "acoustic grand piano"
      },
      "name": "",
      "notes": []
    },
    {
      "channel": 4,
      "controlChanges": {
        "7": [
          {
            "number": 7,
            "ticks": 0,
            "time": 0,
            "value": 0.8661417322834646
          }
        ],
        "10": [
          {
            "number": 10,
            "ticks": 0,
            "time": 0,
            "value": 0.5905511811023622
          }
        ]
      },
      "pitchBends": [],
      "instrument": {
        "family": "ensemble",
        "number": 53,
        "name": "voice oohs"
      },
      "name": "",
      "notes": [
        {
          "duration": 0.15384600000000148,
          "durationTicks": 128,
          "midi": 71,
          "name": "B4",
          "ticks": 27904,
          "time": 33.538427999999996,
          "velocity": 0.7874015748031497
        },
        {
          "duration": 0.30769200000000296,
          "durationTicks": 256,
          "midi": 79,
          "name": "G5",
          "ticks": 28032,
          "time": 33.692274,
          "velocity": 0.7874015748031497
        },
        {
          "duration": 0.46153799999999734,
          "durationTicks": 384,
          "midi": 76,
          "name": "E5",
          "ticks": 28288,
          "time": 33.999966,
          "velocity": 0.7874015748031497
        },
        {
          "duration": 0.15384599999999438,
          "durationTicks": 128,
          "midi": 71,
          "name": "B4",
          "ticks": 32512,
          "time": 39.076884,
          "velocity": 0.7874015748031497
        },
        {
          "duration": 0.46153800000000444,
          "durationTicks": 384,
          "midi": 73,
          "name": "C#5",
          "ticks": 32640,
          "time": 39.230729999999994,
          "velocity": 0.7874015748031497
        },
        {
          "duration": 0.30769199999999586,
          "durationTicks": 256,
          "midi": 73,
          "name": "C#5",
          "ticks": 33024,
          "time": 39.692268,
          "velocity": 0.7874015748031497
        },
        {
          "duration": 0.15384600000000148,
          "durationTicks": 128,
          "midi": 71,
          "name": "B4",
          "ticks": 33280,
          "time": 39.999959999999994,
          "velocity": 0.7874015748031497
        },
        {
          "duration": 0.15384599999999438,
          "durationTicks": 128,
          "midi": 71,
          "name": "B4",
          "ticks": 35584,
          "time": 42.769188,
          "velocity": 0.7874015748031497
        },
        {
          "duration": 0.46153800000000444,
          "durationTicks": 384,
          "midi": 73,
          "name": "C#5",
          "ticks": 35712,
          "time": 42.923033999999994,
          "velocity": 0.7874015748031497
        },
        {
          "duration": 0.30769199999999586,
          "durationTicks": 256,
          "midi": 73,
          "name": "C#5",
          "ticks": 36096,
          "time": 43.384572,
          "velocity": 0.7874015748031497
        },
        {
          "duration": 0.15384600000000148,
          "durationTicks": 128,
          "midi": 71,
          "name": "B4",
          "ticks": 36352,
          "time": 43.692263999999994,
          "velocity": 0.7874015748031497
        },
        {
          "duration": 0.15384599999999438,
          "durationTicks": 128,
          "midi": 71,
          "name": "B4",
          "ticks": 38656,
          "time": 46.461492,
          "velocity": 0.7874015748031497
        },
        {
          "duration": 0.46153799999999734,
          "durationTicks": 384,
          "midi": 73,
          "name": "C#5",
          "ticks": 38784,
          "time": 46.615337999999994,
          "velocity": 0.7874015748031497
        },
        {
          "duration": 0.30769200000000296,
          "durationTicks": 256,
          "midi": 73,
          "name": "C#5",
          "ticks": 39168,
          "time": 47.07687599999999,
          "velocity": 0.7874015748031497
        },
        {
          "duration": 0.15384600000000148,
          "durationTicks": 128,
          "midi": 71,
          "name": "B4",
          "ticks": 39424,
          "time": 47.384567999999994,
          "velocity": 0.7874015748031497
        },
        {
          "duration": 0.15384600000000148,
          "durationTicks": 128,
          "midi": 71,
          "name": "B4",
          "ticks": 41728,
          "time": 50.15379599999999,
          "velocity": 0.7874015748031497
        },
        {
          "duration": 0.46153799999999734,
          "durationTicks": 384,
          "midi": 73,
          "name": "C#5",
          "ticks": 41856,
          "time": 50.307641999999994,
          "velocity": 0.7874015748031497
        },
        {
          "duration": 0.30769200000000296,
          "durationTicks": 256,
          "midi": 73,
          "name": "C#5",
          "ticks": 42240,
          "time": 50.76917999999999,
          "velocity": 0.7874015748031497
        },
        {
          "duration": 0.15384600000000148,
          "durationTicks": 128,
          "midi": 71,
          "name": "B4",
          "ticks": 42496,
          "time": 51.076871999999995,
          "velocity": 0.7874015748031497
        },
        {
          "duration": 0.30769199999999586,
          "durationTicks": 256,
          "midi": 76,
          "name": "E5",
          "ticks": 43008,
          "time": 51.69225599999999,
          "velocity": 0.7874015748031497
        },
        {
          "duration": 0.15384600000000148,
          "durationTicks": 128,
          "midi": 75,
          "name": "D#5",
          "ticks": 43248,
          "time": 51.98071724999999,
          "velocity": 0.7874015748031497
        },
        {
          "duration": 0.30769200000000296,
          "durationTicks": 256,
          "midi": 76,
          "name": "E5",
          "ticks": 43392,
          "time": 52.15379399999999,
          "velocity": 0.7874015748031497
        },
        {
          "duration": 0.46153799999999734,
          "durationTicks": 384,
          "midi": 78,
          "name": "F#5",
          "ticks": 43632,
          "time": 52.442255249999995,
          "velocity": 0.7874015748031497
        },
        {
          "duration": 0.30769200000000296,
          "durationTicks": 256,
          "midi": 71,
          "name": "B4",
          "ticks": 44160,
          "time": 53.07686999999999,
          "velocity": 0.7874015748031497
        },
        {
          "duration": 0.15384599999999438,
          "durationTicks": 128,
          "midi": 73,
          "name": "C#5",
          "ticks": 44416,
          "time": 53.384561999999995,
          "velocity": 0.7874015748031497
        },
        {
          "duration": 0.46153800000000444,
          "durationTicks": 384,
          "midi": 76,
          "name": "E5",
          "ticks": 44544,
          "time": 53.53840799999999,
          "velocity": 0.7874015748031497
        },
        {
          "duration": 0.15384600000000148,
          "durationTicks": 128,
          "midi": 71,
          "name": "B4",
          "ticks": 80128,
          "time": 96.30759599999999,
          "velocity": 0.7874015748031497
        },
        {
          "duration": 0.46153800000000444,
          "durationTicks": 384,
          "midi": 73,
          "name": "C#5",
          "ticks": 80256,
          "time": 96.46144199999999,
          "velocity": 0.7874015748031497
        },
        {
          "duration": 0.30769200000000296,
          "durationTicks": 256,
          "midi": 73,
          "name": "C#5",
          "ticks": 80640,
          "time": 96.92298,
          "velocity": 0.7874015748031497
        },
        {
          "duration": 0.15384599999998727,
          "durationTicks": 128,
          "midi": 71,
          "name": "B4",
          "ticks": 80896,
          "time": 97.230672,
          "velocity": 0.7874015748031497
        },
        {
          "duration": 0.15384599999998727,
          "durationTicks": 128,
          "midi": 71,
          "name": "B4",
          "ticks": 83200,
          "time": 99.9999,
          "velocity": 0.7874015748031497
        },
        {
          "duration": 0.46153800000000444,
          "durationTicks": 384,
          "midi": 73,
          "name": "C#5",
          "ticks": 83328,
          "time": 100.15374599999998,
          "velocity": 0.7874015748031497
        },
        {
          "duration": 0.30769200000000296,
          "durationTicks": 256,
          "midi": 73,
          "name": "C#5",
          "ticks": 83712,
          "time": 100.61528399999999,
          "velocity": 0.7874015748031497
        },
        {
          "duration": 0.15384600000000148,
          "durationTicks": 128,
          "midi": 71,
          "name": "B4",
          "ticks": 83968,
          "time": 100.92297599999999,
          "velocity": 0.7874015748031497
        },
        {
          "duration": 0.15384600000000148,
          "durationTicks": 128,
          "midi": 71,
          "name": "B4",
          "ticks": 86272,
          "time": 103.69220399999999,
          "velocity": 0.7874015748031497
        },
        {
          "duration": 0.46153799999999023,
          "durationTicks": 384,
          "midi": 73,
          "name": "C#5",
          "ticks": 86400,
          "time": 103.84604999999999,
          "velocity": 0.7874015748031497
        },
        {
          "duration": 0.30769200000000296,
          "durationTicks": 256,
          "midi": 73,
          "name": "C#5",
          "ticks": 86784,
          "time": 104.30758799999998,
          "velocity": 0.7874015748031497
        },
        {
          "duration": 0.15384600000000148,
          "durationTicks": 128,
          "midi": 71,
          "name": "B4",
          "ticks": 87040,
          "time": 104.61527999999998,
          "velocity": 0.7874015748031497
        },
        {
          "duration": 0.15384600000000148,
          "durationTicks": 128,
          "midi": 71,
          "name": "B4",
          "ticks": 89344,
          "time": 107.38450799999998,
          "velocity": 0.7874015748031497
        },
        {
          "duration": 0.46153800000000444,
          "durationTicks": 384,
          "midi": 73,
          "name": "C#5",
          "ticks": 89472,
          "time": 107.53835399999998,
          "velocity": 0.7874015748031497
        },
        {
          "duration": 0.30769200000000296,
          "durationTicks": 256,
          "midi": 73,
          "name": "C#5",
          "ticks": 89856,
          "time": 107.99989199999999,
          "velocity": 0.7874015748031497
        },
        {
          "duration": 0.15384599999998727,
          "durationTicks": 128,
          "midi": 71,
          "name": "B4",
          "ticks": 90112,
          "time": 108.30758399999999,
          "velocity": 0.7874015748031497
        },
        {
          "duration": 0.30769200000000296,
          "durationTicks": 256,
          "midi": 76,
          "name": "E5",
          "ticks": 90624,
          "time": 108.92296799999998,
          "velocity": 0.7874015748031497
        },
        {
          "duration": 0.15384600000000148,
          "durationTicks": 128,
          "midi": 75,
          "name": "D#5",
          "ticks": 90864,
          "time": 109.21142924999998,
          "velocity": 0.7874015748031497
        },
        {
          "duration": 0.30769200000000296,
          "durationTicks": 256,
          "midi": 76,
          "name": "E5",
          "ticks": 91008,
          "time": 109.38450599999999,
          "velocity": 0.7874015748031497
        },
        {
          "duration": 0.46153800000000444,
          "durationTicks": 384,
          "midi": 78,
          "name": "F#5",
          "ticks": 91248,
          "time": 109.67296724999999,
          "velocity": 0.7874015748031497
        },
        {
          "duration": 0.30769200000000296,
          "durationTicks": 256,
          "midi": 71,
          "name": "B4",
          "ticks": 91776,
          "time": 110.30758199999998,
          "velocity": 0.7874015748031497
        },
        {
          "duration": 0.15384600000000148,
          "durationTicks": 128,
          "midi": 73,
          "name": "C#5",
          "ticks": 92032,
          "time": 110.61527399999999,
          "velocity": 0.7874015748031497
        },
        {
          "duration": 0.46153800000000444,
          "durationTicks": 384,
          "midi": 76,
          "name": "E5",
          "ticks": 92160,
          "time": 110.76911999999999,
          "velocity": 0.7874015748031497
        },
        {
          "duration": 0.1538460000000157,
          "durationTicks": 128,
          "midi": 71,
          "name": "B4",
          "ticks": 136960,
          "time": 164.61521999999997,
          "velocity": 0.7874015748031497
        },
        {
          "duration": 0.46153799999999023,
          "durationTicks": 384,
          "midi": 73,
          "name": "C#5",
          "ticks": 137088,
          "time": 164.76906599999998,
          "velocity": 0.7874015748031497
        },
        {
          "duration": 0.30769200000000296,
          "durationTicks": 256,
          "midi": 73,
          "name": "C#5",
          "ticks": 137472,
          "time": 165.23060399999997,
          "velocity": 0.7874015748031497
        },
        {
          "duration": 0.1538460000000157,
          "durationTicks": 128,
          "midi": 71,
          "name": "B4",
          "ticks": 137728,
          "time": 165.53829599999997,
          "velocity": 0.7874015748031497
        },
        {
          "duration": 0.1538460000000157,
          "durationTicks": 128,
          "midi": 71,
          "name": "B4",
          "ticks": 140032,
          "time": 168.30752399999997,
          "velocity": 0.7874015748031497
        },
        {
          "duration": 0.46153799999999023,
          "durationTicks": 384,
          "midi": 73,
          "name": "C#5",
          "ticks": 140160,
          "time": 168.46137,
          "velocity": 0.7874015748031497
        },
        {
          "duration": 0.30769200000000296,
          "durationTicks": 256,
          "midi": 73,
          "name": "C#5",
          "ticks": 140544,
          "time": 168.92290799999998,
          "velocity": 0.7874015748031497
        },
        {
          "duration": 0.15384599999998727,
          "durationTicks": 128,
          "midi": 71,
          "name": "B4",
          "ticks": 140800,
          "time": 169.23059999999998,
          "velocity": 0.7874015748031497
        },
        {
          "duration": 0.15384599999998727,
          "durationTicks": 128,
          "midi": 71,
          "name": "B4",
          "ticks": 143104,
          "time": 171.99982799999998,
          "velocity": 0.7874015748031497
        },
        {
          "duration": 0.46153800000001866,
          "durationTicks": 384,
          "midi": 73,
          "name": "C#5",
          "ticks": 143232,
          "time": 172.15367399999997,
          "velocity": 0.7874015748031497
        },
        {
          "duration": 0.30769200000000296,
          "durationTicks": 256,
          "midi": 73,
          "name": "C#5",
          "ticks": 143616,
          "time": 172.61521199999999,
          "velocity": 0.7874015748031497
        },
        {
          "duration": 0.15384599999998727,
          "durationTicks": 128,
          "midi": 71,
          "name": "B4",
          "ticks": 143872,
          "time": 172.922904,
          "velocity": 0.7874015748031497
        },
        {
          "duration": 0.15384599999998727,
          "durationTicks": 128,
          "midi": 71,
          "name": "B4",
          "ticks": 146176,
          "time": 175.692132,
          "velocity": 0.7874015748031497
        },
        {
          "duration": 0.46153799999999023,
          "durationTicks": 384,
          "midi": 73,
          "name": "C#5",
          "ticks": 146304,
          "time": 175.84597799999997,
          "velocity": 0.7874015748031497
        },
        {
          "duration": 0.30769200000000296,
          "durationTicks": 256,
          "midi": 73,
          "name": "C#5",
          "ticks": 146688,
          "time": 176.30751599999996,
          "velocity": 0.7874015748031497
        },
        {
          "duration": 0.1538460000000157,
          "durationTicks": 128,
          "midi": 71,
          "name": "B4",
          "ticks": 146944,
          "time": 176.61520799999997,
          "velocity": 0.7874015748031497
        },
        {
          "duration": 0.30769200000000296,
          "durationTicks": 256,
          "midi": 76,
          "name": "E5",
          "ticks": 147456,
          "time": 177.23059199999997,
          "velocity": 0.7874015748031497
        },
        {
          "duration": 0.15384599999998727,
          "durationTicks": 128,
          "midi": 75,
          "name": "D#5",
          "ticks": 147696,
          "time": 177.51905324999998,
          "velocity": 0.7874015748031497
        },
        {
          "duration": 0.30769200000000296,
          "durationTicks": 256,
          "midi": 76,
          "name": "E5",
          "ticks": 147840,
          "time": 177.69212999999996,
          "velocity": 0.7874015748031497
        },
        {
          "duration": 0.46153799999999023,
          "durationTicks": 384,
          "midi": 78,
          "name": "F#5",
          "ticks": 148080,
          "time": 177.98059124999997,
          "velocity": 0.7874015748031497
        },
        {
          "duration": 0.30769200000000296,
          "durationTicks": 256,
          "midi": 71,
          "name": "B4",
          "ticks": 148608,
          "time": 178.61520599999997,
          "velocity": 0.7874015748031497
        },
        {
          "duration": 0.15384599999998727,
          "durationTicks": 128,
          "midi": 73,
          "name": "C#5",
          "ticks": 148864,
          "time": 178.92289799999998,
          "velocity": 0.7874015748031497
        },
        {
          "duration": 0.46153800000001866,
          "durationTicks": 384,
          "midi": 76,
          "name": "E5",
          "ticks": 148992,
          "time": 179.07674399999996,
          "velocity": 0.7874015748031497
        }
      ]
    },
    {
      "channel": 0,
      "controlChanges": {
        "0": [
          {
            "number": 0,
            "ticks": 0,
            "time": 0,
            "value": 0
          }
        ]
      },
      "pitchBends": [],
      "instrument": {
        "family": "piano",
        "number": 0,
        "name": "acoustic grand piano"
      },
      "name": "",
      "notes": []
    },
    {
      "channel": 5,
      "controlChanges": {
        "7": [
          {
            "number": 7,
            "ticks": 0,
            "time": 0,
            "value": 0.5511811023622047
          }
        ],
        "10": [
          {
            "number": 10,
            "ticks": 0,
            "time": 0,
            "value": 0.15748031496062992
          }
        ]
      },
      "pitchBends": [
        {
          "ticks": 6144,
          "time": 7.384607999999999,
          "value": -0.203125
        },
        {
          "ticks": 6144,
          "time": 7.384607999999999,
          "value": -0.203125
        },
        {
          "ticks": 6148,
          "time": 7.3894156875,
          "value": -0.171875
        },
        {
          "ticks": 6148,
          "time": 7.3894156875,
          "value": -0.171875
        },
        {
          "ticks": 6160,
          "time": 7.403838749999999,
          "value": -0.140625
        },
        {
          "ticks": 6160,
          "time": 7.403838749999999,
          "value": -0.140625
        },
        {
          "ticks": 6164,
          "time": 7.408646437499999,
          "value": -0.109375
        },
        {
          "ticks": 6164,
          "time": 7.408646437499999,
          "value": -0.109375
        },
        {
          "ticks": 6176,
          "time": 7.423069499999999,
          "value": -0.078125
        },
        {
          "ticks": 6176,
          "time": 7.423069499999999,
          "value": -0.078125
        },
        {
          "ticks": 6180,
          "time": 7.427877187499999,
          "value": -0.046875
        },
        {
          "ticks": 6180,
          "time": 7.427877187499999,
          "value": -0.046875
        },
        {
          "ticks": 6192,
          "time": 7.442300249999999,
          "value": -0.015625
        },
        {
          "ticks": 6192,
          "time": 7.442300249999999,
          "value": -0.015625
        },
        {
          "ticks": 6196,
          "time": 7.447107937499999,
          "value": 0.015625
        },
        {
          "ticks": 6196,
          "time": 7.447107937499999,
          "value": 0.015625
        },
        {
          "ticks": 9216,
          "time": 11.076911999999998,
          "value": -0.203125
        },
        {
          "ticks": 9220,
          "time": 11.0817196875,
          "value": -0.171875
        },
        {
          "ticks": 9232,
          "time": 11.096142749999999,
          "value": -0.140625
        },
        {
          "ticks": 9236,
          "time": 11.100950437499998,
          "value": -0.109375
        },
        {
          "ticks": 9248,
          "time": 11.115373499999999,
          "value": -0.078125
        },
        {
          "ticks": 9252,
          "time": 11.120181187499998,
          "value": -0.046875
        },
        {
          "ticks": 9264,
          "time": 11.134604249999999,
          "value": -0.015625
        },
        {
          "ticks": 9268,
          "time": 11.139411937499998,
          "value": 0.015625
        },
        {
          "ticks": 12288,
          "time": 14.769215999999998,
          "value": -0.203125
        },
        {
          "ticks": 12292,
          "time": 14.774023687499998,
          "value": -0.171875
        },
        {
          "ticks": 12304,
          "time": 14.788446749999997,
          "value": -0.140625
        },
        {
          "ticks": 12308,
          "time": 14.7932544375,
          "value": -0.109375
        },
        {
          "ticks": 12320,
          "time": 14.807677499999999,
          "value": -0.078125
        },
        {
          "ticks": 12324,
          "time": 14.812485187499998,
          "value": -0.046875
        },
        {
          "ticks": 12336,
          "time": 14.826908249999999,
          "value": -0.015625
        },
        {
          "ticks": 12340,
          "time": 14.831715937499997,
          "value": 0.015625
        },
        {
          "ticks": 15360,
          "time": 18.461519999999997,
          "value": -0.203125
        },
        {
          "ticks": 15364,
          "time": 18.466327687499998,
          "value": -0.171875
        },
        {
          "ticks": 15376,
          "time": 18.48075075,
          "value": -0.140625
        },
        {
          "ticks": 15380,
          "time": 18.4855584375,
          "value": -0.109375
        },
        {
          "ticks": 15392,
          "time": 18.4999815,
          "value": -0.078125
        },
        {
          "ticks": 15396,
          "time": 18.5047891875,
          "value": -0.046875
        },
        {
          "ticks": 15408,
          "time": 18.51921225,
          "value": -0.015625
        },
        {
          "ticks": 15412,
          "time": 18.524019937499997,
          "value": 0.015625
        },
        {
          "ticks": 18432,
          "time": 22.153823999999997,
          "value": -0.203125
        },
        {
          "ticks": 18436,
          "time": 22.158631687499998,
          "value": -0.171875
        },
        {
          "ticks": 18448,
          "time": 22.173054749999995,
          "value": -0.140625
        },
        {
          "ticks": 18452,
          "time": 22.1778624375,
          "value": -0.109375
        },
        {
          "ticks": 18464,
          "time": 22.192285499999997,
          "value": -0.078125
        },
        {
          "ticks": 18468,
          "time": 22.1970931875,
          "value": -0.046875
        },
        {
          "ticks": 18480,
          "time": 22.21151625,
          "value": -0.015625
        },
        {
          "ticks": 18484,
          "time": 22.216323937499997,
          "value": 0.015625
        },
        {
          "ticks": 21504,
          "time": 25.846127999999997,
          "value": -0.203125
        },
        {
          "ticks": 21508,
          "time": 25.850935687499994,
          "value": -0.171875
        },
        {
          "ticks": 21520,
          "time": 25.865358749999995,
          "value": -0.140625
        },
        {
          "ticks": 21524,
          "time": 25.870166437499996,
          "value": -0.109375
        },
        {
          "ticks": 21536,
          "time": 25.884589499999997,
          "value": -0.078125
        },
        {
          "ticks": 21540,
          "time": 25.8893971875,
          "value": -0.046875
        },
        {
          "ticks": 21552,
          "time": 25.903820249999995,
          "value": -0.015625
        },
        {
          "ticks": 21556,
          "time": 25.908627937499997,
          "value": 0.015625
        },
        {
          "ticks": 24576,
          "time": 29.538431999999997,
          "value": -0.203125
        },
        {
          "ticks": 24580,
          "time": 29.543239687499998,
          "value": -0.171875
        },
        {
          "ticks": 24592,
          "time": 29.55766275,
          "value": -0.140625
        },
        {
          "ticks": 24596,
          "time": 29.562470437499993,
          "value": -0.109375
        },
        {
          "ticks": 24608,
          "time": 29.576893499999994,
          "value": -0.078125
        },
        {
          "ticks": 24612,
          "time": 29.5817011875,
          "value": -0.046875
        },
        {
          "ticks": 24624,
          "time": 29.596124249999995,
          "value": -0.015625
        },
        {
          "ticks": 24628,
          "time": 29.6009319375,
          "value": 0.015625
        },
        {
          "ticks": 27648,
          "time": 33.23073599999999,
          "value": -0.203125
        },
        {
          "ticks": 27652,
          "time": 33.2355436875,
          "value": -0.171875
        },
        {
          "ticks": 27664,
          "time": 33.24996675,
          "value": -0.140625
        },
        {
          "ticks": 27668,
          "time": 33.2547744375,
          "value": -0.109375
        },
        {
          "ticks": 27680,
          "time": 33.2691975,
          "value": -0.078125
        },
        {
          "ticks": 27684,
          "time": 33.274005187499995,
          "value": -0.046875
        },
        {
          "ticks": 27696,
          "time": 33.288428249999996,
          "value": -0.015625
        },
        {
          "ticks": 27700,
          "time": 33.2932359375,
          "value": 0.015625
        },
        {
          "ticks": 30720,
          "time": 36.92303999999999,
          "value": -0.203125
        },
        {
          "ticks": 30724,
          "time": 36.9278476875,
          "value": -0.171875
        },
        {
          "ticks": 30736,
          "time": 36.94227075,
          "value": -0.140625
        },
        {
          "ticks": 30740,
          "time": 36.9470784375,
          "value": -0.109375
        },
        {
          "ticks": 30752,
          "time": 36.9615015,
          "value": -0.078125
        },
        {
          "ticks": 30756,
          "time": 36.966309187499995,
          "value": -0.046875
        },
        {
          "ticks": 30768,
          "time": 36.980732249999996,
          "value": -0.015625
        },
        {
          "ticks": 30772,
          "time": 36.9855399375,
          "value": 0.015625
        },
        {
          "ticks": 53760,
          "time": 64.61532,
          "value": -0.203125
        },
        {
          "ticks": 53764,
          "time": 64.62012768749999,
          "value": -0.171875
        },
        {
          "ticks": 53776,
          "time": 64.63455074999999,
          "value": -0.140625
        },
        {
          "ticks": 53780,
          "time": 64.6393584375,
          "value": -0.109375
        },
        {
          "ticks": 53792,
          "time": 64.6537815,
          "value": -0.078125
        },
        {
          "ticks": 53796,
          "time": 64.65858918749998,
          "value": -0.046875
        },
        {
          "ticks": 53808,
          "time": 64.67301225,
          "value": -0.015625
        },
        {
          "ticks": 53812,
          "time": 64.67781993749999,
          "value": 0.015625
        },
        {
          "ticks": 56832,
          "time": 68.30762399999999,
          "value": -0.203125
        },
        {
          "ticks": 56836,
          "time": 68.3124316875,
          "value": -0.171875
        },
        {
          "ticks": 56848,
          "time": 68.32685475,
          "value": -0.140625
        },
        {
          "ticks": 56852,
          "time": 68.3316624375,
          "value": -0.109375
        },
        {
          "ticks": 56864,
          "time": 68.34608549999999,
          "value": -0.078125
        },
        {
          "ticks": 56868,
          "time": 68.35089318749999,
          "value": -0.046875
        },
        {
          "ticks": 56880,
          "time": 68.36531624999999,
          "value": -0.015625
        },
        {
          "ticks": 56884,
          "time": 68.37012393749998,
          "value": 0.015625
        },
        {
          "ticks": 59904,
          "time": 71.99992799999998,
          "value": -0.203125
        },
        {
          "ticks": 59908,
          "time": 72.00473568749999,
          "value": -0.171875
        },
        {
          "ticks": 59920,
          "time": 72.01915874999999,
          "value": -0.140625
        },
        {
          "ticks": 59924,
          "time": 72.0239664375,
          "value": -0.109375
        },
        {
          "ticks": 59936,
          "time": 72.0383895,
          "value": -0.078125
        },
        {
          "ticks": 59940,
          "time": 72.0431971875,
          "value": -0.046875
        },
        {
          "ticks": 59952,
          "time": 72.05762024999999,
          "value": -0.015625
        },
        {
          "ticks": 59956,
          "time": 72.06242793749999,
          "value": 0.015625
        },
        {
          "ticks": 62976,
          "time": 75.69223199999999,
          "value": -0.203125
        },
        {
          "ticks": 62980,
          "time": 75.6970396875,
          "value": -0.171875
        },
        {
          "ticks": 62992,
          "time": 75.71146274999998,
          "value": -0.140625
        },
        {
          "ticks": 62996,
          "time": 75.71627043749999,
          "value": -0.109375
        },
        {
          "ticks": 63008,
          "time": 75.73069349999999,
          "value": -0.078125
        },
        {
          "ticks": 63012,
          "time": 75.73550118749999,
          "value": -0.046875
        },
        {
          "ticks": 63024,
          "time": 75.74992424999999,
          "value": -0.015625
        },
        {
          "ticks": 63028,
          "time": 75.7547319375,
          "value": 0.015625
        },
        {
          "ticks": 66048,
          "time": 79.384536,
          "value": -0.203125
        },
        {
          "ticks": 66052,
          "time": 79.38934368749999,
          "value": -0.171875
        },
        {
          "ticks": 66064,
          "time": 79.40376674999999,
          "value": -0.140625
        },
        {
          "ticks": 66068,
          "time": 79.4085744375,
          "value": -0.109375
        },
        {
          "ticks": 66080,
          "time": 79.42299749999998,
          "value": -0.078125
        },
        {
          "ticks": 66084,
          "time": 79.42780518749998,
          "value": -0.046875
        },
        {
          "ticks": 66096,
          "time": 79.44222824999999,
          "value": -0.015625
        },
        {
          "ticks": 66100,
          "time": 79.44703593749999,
          "value": 0.015625
        },
        {
          "ticks": 69120,
          "time": 83.07683999999999,
          "value": -0.203125
        },
        {
          "ticks": 69124,
          "time": 83.0816476875,
          "value": -0.171875
        },
        {
          "ticks": 69136,
          "time": 83.09607075,
          "value": -0.140625
        },
        {
          "ticks": 69140,
          "time": 83.10087843749999,
          "value": -0.109375
        },
        {
          "ticks": 69152,
          "time": 83.11530149999999,
          "value": -0.078125
        },
        {
          "ticks": 69156,
          "time": 83.12010918749999,
          "value": -0.046875
        },
        {
          "ticks": 69168,
          "time": 83.13453224999999,
          "value": -0.015625
        },
        {
          "ticks": 69172,
          "time": 83.13933993749998,
          "value": 0.015625
        },
        {
          "ticks": 72192,
          "time": 86.76914399999998,
          "value": -0.203125
        },
        {
          "ticks": 72196,
          "time": 86.77395168749999,
          "value": -0.171875
        },
        {
          "ticks": 72208,
          "time": 86.78837474999999,
          "value": -0.140625
        },
        {
          "ticks": 72212,
          "time": 86.79318243749998,
          "value": -0.109375
        },
        {
          "ticks": 72224,
          "time": 86.8076055,
          "value": -0.078125
        },
        {
          "ticks": 72228,
          "time": 86.8124131875,
          "value": -0.046875
        },
        {
          "ticks": 72240,
          "time": 86.82683624999999,
          "value": -0.015625
        },
        {
          "ticks": 72244,
          "time": 86.83164393749999,
          "value": 0.015625
        },
        {
          "ticks": 75264,
          "time": 90.46144799999999,
          "value": -0.203125
        },
        {
          "ticks": 75268,
          "time": 90.4662556875,
          "value": -0.171875
        },
        {
          "ticks": 75280,
          "time": 90.48067874999998,
          "value": -0.140625
        },
        {
          "ticks": 75284,
          "time": 90.48548643749999,
          "value": -0.109375
        },
        {
          "ticks": 75296,
          "time": 90.49990949999999,
          "value": -0.078125
        },
        {
          "ticks": 75300,
          "time": 90.50471718749999,
          "value": -0.046875
        },
        {
          "ticks": 75312,
          "time": 90.51914024999999,
          "value": -0.015625
        },
        {
          "ticks": 75316,
          "time": 90.5239479375,
          "value": 0.015625
        },
        {
          "ticks": 78336,
          "time": 94.153752,
          "value": -0.203125
        },
        {
          "ticks": 78340,
          "time": 94.15855968749999,
          "value": -0.171875
        },
        {
          "ticks": 78352,
          "time": 94.17298274999999,
          "value": -0.140625
        },
        {
          "ticks": 78356,
          "time": 94.1777904375,
          "value": -0.109375
        },
        {
          "ticks": 78368,
          "time": 94.19221349999998,
          "value": -0.078125
        },
        {
          "ticks": 78372,
          "time": 94.19702118749998,
          "value": -0.046875
        },
        {
          "ticks": 78384,
          "time": 94.21144424999999,
          "value": -0.015625
        },
        {
          "ticks": 78388,
          "time": 94.21625193749999,
          "value": 0.015625
        },
        {
          "ticks": 101376,
          "time": 121.84603199999998,
          "value": -0.203125
        },
        {
          "ticks": 101380,
          "time": 121.85083968749998,
          "value": -0.171875
        },
        {
          "ticks": 101392,
          "time": 121.86526274999999,
          "value": -0.140625
        },
        {
          "ticks": 101396,
          "time": 121.87007043749999,
          "value": -0.109375
        },
        {
          "ticks": 101408,
          "time": 121.88449349999999,
          "value": -0.078125
        },
        {
          "ticks": 101412,
          "time": 121.88930118749998,
          "value": -0.046875
        },
        {
          "ticks": 101424,
          "time": 121.90372424999998,
          "value": -0.015625
        },
        {
          "ticks": 101428,
          "time": 121.90853193749999,
          "value": 0.015625
        },
        {
          "ticks": 104448,
          "time": 125.53833599999999,
          "value": -0.203125
        },
        {
          "ticks": 104452,
          "time": 125.54314368749999,
          "value": -0.171875
        },
        {
          "ticks": 104464,
          "time": 125.55756674999998,
          "value": -0.140625
        },
        {
          "ticks": 104468,
          "time": 125.56237443749998,
          "value": -0.109375
        },
        {
          "ticks": 104480,
          "time": 125.57679749999998,
          "value": -0.078125
        },
        {
          "ticks": 104484,
          "time": 125.58160518749999,
          "value": -0.046875
        },
        {
          "ticks": 104496,
          "time": 125.59602824999999,
          "value": -0.015625
        },
        {
          "ticks": 104500,
          "time": 125.60083593749998,
          "value": 0.015625
        },
        {
          "ticks": 107520,
          "time": 129.23064,
          "value": -0.203125
        },
        {
          "ticks": 107524,
          "time": 129.23544768749997,
          "value": -0.171875
        },
        {
          "ticks": 107536,
          "time": 129.24987074999999,
          "value": -0.140625
        },
        {
          "ticks": 107540,
          "time": 129.2546784375,
          "value": -0.109375
        },
        {
          "ticks": 107552,
          "time": 129.26910149999998,
          "value": -0.078125
        },
        {
          "ticks": 107556,
          "time": 129.27390918749998,
          "value": -0.046875
        },
        {
          "ticks": 107568,
          "time": 129.28833225,
          "value": -0.015625
        },
        {
          "ticks": 107572,
          "time": 129.29313993749997,
          "value": 0.015625
        },
        {
          "ticks": 110592,
          "time": 132.92294399999997,
          "value": -0.203125
        },
        {
          "ticks": 110596,
          "time": 132.92775168749998,
          "value": -0.171875
        },
        {
          "ticks": 110608,
          "time": 132.94217475,
          "value": -0.140625
        },
        {
          "ticks": 110612,
          "time": 132.94698243749997,
          "value": -0.109375
        },
        {
          "ticks": 110624,
          "time": 132.96140549999998,
          "value": -0.078125
        },
        {
          "ticks": 110628,
          "time": 132.9662131875,
          "value": -0.046875
        },
        {
          "ticks": 110640,
          "time": 132.98063624999998,
          "value": -0.015625
        },
        {
          "ticks": 110644,
          "time": 132.98544393749998,
          "value": 0.015625
        },
        {
          "ticks": 113664,
          "time": 136.61524799999998,
          "value": -0.203125
        },
        {
          "ticks": 113668,
          "time": 136.62005568749998,
          "value": -0.171875
        },
        {
          "ticks": 113680,
          "time": 136.63447874999997,
          "value": -0.140625
        },
        {
          "ticks": 113684,
          "time": 136.63928643749998,
          "value": -0.109375
        },
        {
          "ticks": 113696,
          "time": 136.6537095,
          "value": -0.078125
        },
        {
          "ticks": 113700,
          "time": 136.65851718749997,
          "value": -0.046875
        },
        {
          "ticks": 113712,
          "time": 136.67294024999998,
          "value": -0.015625
        },
        {
          "ticks": 113716,
          "time": 136.6777479375,
          "value": 0.015625
        },
        {
          "ticks": 116736,
          "time": 140.307552,
          "value": -0.203125
        },
        {
          "ticks": 116740,
          "time": 140.3123596875,
          "value": -0.171875
        },
        {
          "ticks": 116752,
          "time": 140.32678274999998,
          "value": -0.140625
        },
        {
          "ticks": 116756,
          "time": 140.33159043749998,
          "value": -0.109375
        },
        {
          "ticks": 116768,
          "time": 140.34601349999997,
          "value": -0.078125
        },
        {
          "ticks": 116772,
          "time": 140.35082118749997,
          "value": -0.046875
        },
        {
          "ticks": 116784,
          "time": 140.36524425,
          "value": -0.015625
        },
        {
          "ticks": 116788,
          "time": 140.3700519375,
          "value": 0.015625
        },
        {
          "ticks": 119808,
          "time": 143.99985599999997,
          "value": -0.203125
        },
        {
          "ticks": 119812,
          "time": 144.0046636875,
          "value": -0.171875
        },
        {
          "ticks": 119824,
          "time": 144.01908674999999,
          "value": -0.140625
        },
        {
          "ticks": 119828,
          "time": 144.0238944375,
          "value": -0.109375
        },
        {
          "ticks": 119840,
          "time": 144.03831749999998,
          "value": -0.078125
        },
        {
          "ticks": 119844,
          "time": 144.04312518749998,
          "value": -0.046875
        },
        {
          "ticks": 119856,
          "time": 144.05754824999997,
          "value": -0.015625
        },
        {
          "ticks": 119860,
          "time": 144.0623559375,
          "value": 0.015625
        },
        {
          "ticks": 122880,
          "time": 147.69215999999997,
          "value": -0.203125
        },
        {
          "ticks": 122884,
          "time": 147.69696768749998,
          "value": -0.171875
        },
        {
          "ticks": 122896,
          "time": 147.71139075,
          "value": -0.140625
        },
        {
          "ticks": 122900,
          "time": 147.71619843749997,
          "value": -0.109375
        },
        {
          "ticks": 122912,
          "time": 147.73062149999998,
          "value": -0.078125
        },
        {
          "ticks": 122916,
          "time": 147.7354291875,
          "value": -0.046875
        },
        {
          "ticks": 122928,
          "time": 147.74985224999998,
          "value": -0.015625
        },
        {
          "ticks": 122932,
          "time": 147.75465993749998,
          "value": 0.015625
        },
        {
          "ticks": 125952,
          "time": 151.38446399999998,
          "value": -0.203125
        },
        {
          "ticks": 125956,
          "time": 151.38927168749998,
          "value": -0.171875
        },
        {
          "ticks": 125968,
          "time": 151.40369474999997,
          "value": -0.140625
        },
        {
          "ticks": 125972,
          "time": 151.40850243749998,
          "value": -0.109375
        },
        {
          "ticks": 125984,
          "time": 151.4229255,
          "value": -0.078125
        },
        {
          "ticks": 125988,
          "time": 151.42773318749997,
          "value": -0.046875
        },
        {
          "ticks": 126000,
          "time": 151.44215624999998,
          "value": -0.015625
        },
        {
          "ticks": 126004,
          "time": 151.4469639375,
          "value": 0.015625
        },
        {
          "ticks": 129024,
          "time": 155.076768,
          "value": -0.203125
        },
        {
          "ticks": 129028,
          "time": 155.0815756875,
          "value": -0.171875
        },
        {
          "ticks": 129040,
          "time": 155.09599874999998,
          "value": -0.140625
        },
        {
          "ticks": 129044,
          "time": 155.10080643749998,
          "value": -0.109375
        },
        {
          "ticks": 129056,
          "time": 155.11522949999997,
          "value": -0.078125
        },
        {
          "ticks": 129060,
          "time": 155.12003718749997,
          "value": -0.046875
        },
        {
          "ticks": 129072,
          "time": 155.13446025,
          "value": -0.015625
        },
        {
          "ticks": 129076,
          "time": 155.13926793749997,
          "value": 0.015625
        },
        {
          "ticks": 132096,
          "time": 158.76907199999997,
          "value": -0.203125
        },
        {
          "ticks": 132100,
          "time": 158.77387968749997,
          "value": -0.171875
        },
        {
          "ticks": 132112,
          "time": 158.78830274999999,
          "value": -0.140625
        },
        {
          "ticks": 132116,
          "time": 158.7931104375,
          "value": -0.109375
        },
        {
          "ticks": 132128,
          "time": 158.80753349999998,
          "value": -0.078125
        },
        {
          "ticks": 132132,
          "time": 158.81234118749998,
          "value": -0.046875
        },
        {
          "ticks": 132144,
          "time": 158.82676424999997,
          "value": -0.015625
        },
        {
          "ticks": 132148,
          "time": 158.83157193749997,
          "value": 0.015625
        },
        {
          "ticks": 158208,
          "time": 190.15365599999998,
          "value": -0.203125
        },
        {
          "ticks": 158212,
          "time": 190.1584636875,
          "value": -0.171875
        },
        {
          "ticks": 158224,
          "time": 190.17288674999998,
          "value": -0.140625
        },
        {
          "ticks": 158228,
          "time": 190.17769443749998,
          "value": -0.109375
        },
        {
          "ticks": 158240,
          "time": 190.19211749999997,
          "value": -0.078125
        },
        {
          "ticks": 158244,
          "time": 190.19692518749997,
          "value": -0.046875
        },
        {
          "ticks": 158256,
          "time": 190.21134825,
          "value": -0.015625
        },
        {
          "ticks": 158260,
          "time": 190.2161559375,
          "value": 0.015625
        },
        {
          "ticks": 161280,
          "time": 193.84596,
          "value": -0.203125
        },
        {
          "ticks": 161284,
          "time": 193.85076768749997,
          "value": -0.171875
        },
        {
          "ticks": 161296,
          "time": 193.86519074999998,
          "value": -0.140625
        },
        {
          "ticks": 161300,
          "time": 193.8699984375,
          "value": -0.109375
        },
        {
          "ticks": 161312,
          "time": 193.88442149999997,
          "value": -0.078125
        },
        {
          "ticks": 161316,
          "time": 193.88922918749998,
          "value": -0.046875
        },
        {
          "ticks": 161328,
          "time": 193.90365224999996,
          "value": -0.015625
        },
        {
          "ticks": 161332,
          "time": 193.90845993749997,
          "value": 0.015625
        },
        {
          "ticks": 164352,
          "time": 197.53826399999997,
          "value": -0.203125
        },
        {
          "ticks": 164356,
          "time": 197.54307168749997,
          "value": -0.171875
        },
        {
          "ticks": 164368,
          "time": 197.55749475,
          "value": -0.140625
        },
        {
          "ticks": 164372,
          "time": 197.56230243749997,
          "value": -0.109375
        },
        {
          "ticks": 164384,
          "time": 197.57672549999998,
          "value": -0.078125
        },
        {
          "ticks": 164388,
          "time": 197.58153318749999,
          "value": -0.046875
        },
        {
          "ticks": 164400,
          "time": 197.59595624999997,
          "value": -0.015625
        },
        {
          "ticks": 164404,
          "time": 197.60076393749998,
          "value": 0.015625
        },
        {
          "ticks": 167424,
          "time": 201.23056799999998,
          "value": -0.203125
        },
        {
          "ticks": 167428,
          "time": 201.23537568749998,
          "value": -0.171875
        },
        {
          "ticks": 167440,
          "time": 201.24979874999997,
          "value": -0.140625
        },
        {
          "ticks": 167444,
          "time": 201.25460643749997,
          "value": -0.109375
        },
        {
          "ticks": 167456,
          "time": 201.2690295,
          "value": -0.078125
        },
        {
          "ticks": 167460,
          "time": 201.2738371875,
          "value": -0.046875
        },
        {
          "ticks": 167472,
          "time": 201.28826024999998,
          "value": -0.015625
        },
        {
          "ticks": 167476,
          "time": 201.29306793749998,
          "value": 0.015625
        },
        {
          "ticks": 170496,
          "time": 204.92287199999998,
          "value": -0.203125
        },
        {
          "ticks": 170500,
          "time": 204.9276796875,
          "value": -0.171875
        },
        {
          "ticks": 170512,
          "time": 204.94210274999998,
          "value": -0.140625
        },
        {
          "ticks": 170516,
          "time": 204.94691043749998,
          "value": -0.109375
        },
        {
          "ticks": 170528,
          "time": 204.96133349999997,
          "value": -0.078125
        },
        {
          "ticks": 170532,
          "time": 204.96614118749997,
          "value": -0.046875
        },
        {
          "ticks": 170544,
          "time": 204.98056425,
          "value": -0.015625
        },
        {
          "ticks": 170548,
          "time": 204.9853719375,
          "value": 0.015625
        }
      ],
      "instrument": {
        "family": "organ",
        "number": 22,
        "name": "harmonica"
      },
      "name": "",
      "notes": [
        {
          "duration": 0.11538450000000022,
          "durationTicks": 96,
          "midi": 66,
          "name": "F#4",
          "ticks": 5664,
          "time": 6.807685499999999,
          "velocity": 0.7874015748031497
        },
        {
          "duration": 0.11538450000000022,
          "durationTicks": 96,
          "midi": 66,
          "name": "F#4",
          "ticks": 5664,
          "time": 6.807685499999999,
          "velocity": 0.7874015748031497
        },
        {
          "duration": 0.3461534999999998,
          "durationTicks": 288,
          "midi": 69,
          "name": "A4",
          "ticks": 5760,
          "time": 6.923069999999999,
          "velocity": 0.7874015748031497
        },
        {
          "duration": 0.3461534999999998,
          "durationTicks": 288,
          "midi": 69,
          "name": "A4",
          "ticks": 5760,
          "time": 6.923069999999999,
          "velocity": 0.7874015748031497
        },
        {
          "duration": 0.11538450000000022,
          "durationTicks": 96,
          "midi": 67,
          "name": "G4",
          "ticks": 6048,
          "time": 7.269223499999999,
          "velocity": 0.7874015748031497
        },
        {
          "duration": 0.11538450000000022,
          "durationTicks": 96,
          "midi": 67,
          "name": "G4",
          "ticks": 6048,
          "time": 7.269223499999999,
          "velocity": 0.7874015748031497
        },
        {
          "duration": 0.461538,
          "durationTicks": 384,
          "midi": 68,
          "name": "G#4",
          "ticks": 6144,
          "time": 7.384607999999999,
          "velocity": 0.7874015748031497
        },
        {
          "duration": 0.461538,
          "durationTicks": 384,
          "midi": 68,
          "name": "G#4",
          "ticks": 6144,
          "time": 7.384607999999999,
          "velocity": 0.7874015748031497
        },
        {
          "duration": 0.11538450000000111,
          "durationTicks": 96,
          "midi": 66,
          "name": "F#4",
          "ticks": 8736,
          "time": 10.499989499999998,
          "velocity": 0.7874015748031497
        },
        {
          "duration": 0.3461534999999998,
          "durationTicks": 288,
          "midi": 69,
          "name": "A4",
          "ticks": 8832,
          "time": 10.615374,
          "velocity": 0.7874015748031497
        },
        {
          "duration": 0.11538449999999933,
          "durationTicks": 96,
          "midi": 67,
          "name": "G4",
          "ticks": 9120,
          "time": 10.961527499999999,
          "velocity": 0.7874015748031497
        },
        {
          "duration": 0.4615380000000009,
          "durationTicks": 384,
          "midi": 68,
          "name": "G#4",
          "ticks": 9216,
          "time": 11.076911999999998,
          "velocity": 0.7874015748031497
        },
        {
          "duration": 0.11538450000000111,
          "durationTicks": 96,
          "midi": 66,
          "name": "F#4",
          "ticks": 11808,
          "time": 14.192293499999998,
          "velocity": 0.7874015748031497
        },
        {
          "duration": 0.3461534999999998,
          "durationTicks": 288,
          "midi": 69,
          "name": "A4",
          "ticks": 11904,
          "time": 14.307678,
          "velocity": 0.7874015748031497
        },
        {
          "duration": 0.11538449999999933,
          "durationTicks": 96,
          "midi": 67,
          "name": "G4",
          "ticks": 12192,
          "time": 14.653831499999999,
          "velocity": 0.7874015748031497
        },
        {
          "duration": 0.4615379999999991,
          "durationTicks": 384,
          "midi": 68,
          "name": "G#4",
          "ticks": 12288,
          "time": 14.769215999999998,
          "velocity": 0.7874015748031497
        },
        {
          "duration": 0.11538450000000111,
          "durationTicks": 96,
          "midi": 66,
          "name": "F#4",
          "ticks": 14880,
          "time": 17.884597499999998,
          "velocity": 0.7874015748031497
        },
        {
          "duration": 0.3461534999999998,
          "durationTicks": 288,
          "midi": 69,
          "name": "A4",
          "ticks": 14976,
          "time": 17.999982,
          "velocity": 0.7874015748031497
        },
        {
          "duration": 0.11538449999999756,
          "durationTicks": 96,
          "midi": 67,
          "name": "G4",
          "ticks": 15264,
          "time": 18.3461355,
          "velocity": 0.7874015748031497
        },
        {
          "duration": 0.4615380000000009,
          "durationTicks": 384,
          "midi": 68,
          "name": "G#4",
          "ticks": 15360,
          "time": 18.461519999999997,
          "velocity": 0.7874015748031497
        },
        {
          "duration": 0.11538450000000111,
          "durationTicks": 96,
          "midi": 66,
          "name": "F#4",
          "ticks": 17952,
          "time": 21.576901499999998,
          "velocity": 0.7874015748031497
        },
        {
          "duration": 0.3461534999999998,
          "durationTicks": 288,
          "midi": 69,
          "name": "A4",
          "ticks": 18048,
          "time": 21.692286,
          "velocity": 0.7874015748031497
        },
        {
          "duration": 0.11538449999999756,
          "durationTicks": 96,
          "midi": 67,
          "name": "G4",
          "ticks": 18336,
          "time": 22.0384395,
          "velocity": 0.7874015748031497
        },
        {
          "duration": 0.4615380000000009,
          "durationTicks": 384,
          "midi": 68,
          "name": "G#4",
          "ticks": 18432,
          "time": 22.153823999999997,
          "velocity": 0.7874015748031497
        },
        {
          "duration": 0.11538449999999756,
          "durationTicks": 96,
          "midi": 66,
          "name": "F#4",
          "ticks": 21024,
          "time": 25.269205499999998,
          "velocity": 0.7874015748031497
        },
        {
          "duration": 0.3461534999999998,
          "durationTicks": 288,
          "midi": 69,
          "name": "A4",
          "ticks": 21120,
          "time": 25.384589999999996,
          "velocity": 0.7874015748031497
        },
        {
          "duration": 0.11538450000000111,
          "durationTicks": 96,
          "midi": 67,
          "name": "G4",
          "ticks": 21408,
          "time": 25.730743499999996,
          "velocity": 0.7874015748031497
        },
        {
          "duration": 0.4615380000000009,
          "durationTicks": 384,
          "midi": 68,
          "name": "G#4",
          "ticks": 21504,
          "time": 25.846127999999997,
          "velocity": 0.7874015748031497
        },
        {
          "duration": 0.11538449999999756,
          "durationTicks": 96,
          "midi": 66,
          "name": "F#4",
          "ticks": 24096,
          "time": 28.9615095,
          "velocity": 0.7874015748031497
        },
        {
          "duration": 0.3461534999999998,
          "durationTicks": 288,
          "midi": 69,
          "name": "A4",
          "ticks": 24192,
          "time": 29.076893999999996,
          "velocity": 0.7874015748031497
        },
        {
          "duration": 0.11538450000000111,
          "durationTicks": 96,
          "midi": 67,
          "name": "G4",
          "ticks": 24480,
          "time": 29.423047499999996,
          "velocity": 0.7874015748031497
        },
        {
          "duration": 0.4615380000000009,
          "durationTicks": 384,
          "midi": 68,
          "name": "G#4",
          "ticks": 24576,
          "time": 29.538431999999997,
          "velocity": 0.7874015748031497
        },
        {
          "duration": 0.11538449999999756,
          "durationTicks": 96,
          "midi": 66,
          "name": "F#4",
          "ticks": 27168,
          "time": 32.6538135,
          "velocity": 0.7874015748031497
        },
        {
          "duration": 0.3461534999999998,
          "durationTicks": 288,
          "midi": 69,
          "name": "A4",
          "ticks": 27264,
          "time": 32.769197999999996,
          "velocity": 0.7874015748031497
        },
        {
          "duration": 0.11538449999999756,
          "durationTicks": 96,
          "midi": 67,
          "name": "G4",
          "ticks": 27552,
          "time": 33.115351499999996,
          "velocity": 0.7874015748031497
        },
        {
          "duration": 0.46153800000000444,
          "durationTicks": 384,
          "midi": 68,
          "name": "G#4",
          "ticks": 27648,
          "time": 33.23073599999999,
          "velocity": 0.7874015748031497
        },
        {
          "duration": 0.46153800000000444,
          "durationTicks": 384,
          "midi": 69,
          "name": "A4",
          "ticks": 31872,
          "time": 38.30765399999999,
          "velocity": 0.7874015748031497
        },
        {
          "duration": 0.46153799999999734,
          "durationTicks": 384,
          "midi": 71,
          "name": "B4",
          "ticks": 32256,
          "time": 38.769192,
          "velocity": 0.7874015748031497
        },
        {
          "duration": 0.23076899999999512,
          "durationTicks": 192,
          "midi": 71,
          "name": "B4",
          "ticks": 34752,
          "time": 41.769189,
          "velocity": 0.7874015748031497
        },
        {
          "duration": 0.46153800000000444,
          "durationTicks": 384,
          "midi": 69,
          "name": "A4",
          "ticks": 34944,
          "time": 41.99995799999999,
          "velocity": 0.7874015748031497
        },
        {
          "duration": 0.46153799999999734,
          "durationTicks": 384,
          "midi": 71,
          "name": "B4",
          "ticks": 35328,
          "time": 42.461496,
          "velocity": 0.7874015748031497
        },
        {
          "duration": 0.23076899999999512,
          "durationTicks": 192,
          "midi": 71,
          "name": "B4",
          "ticks": 37824,
          "time": 45.461493,
          "velocity": 0.7874015748031497
        },
        {
          "duration": 0.46153800000000444,
          "durationTicks": 384,
          "midi": 69,
          "name": "A4",
          "ticks": 38016,
          "time": 45.69226199999999,
          "velocity": 0.7874015748031497
        },
        {
          "duration": 0.46153799999999734,
          "durationTicks": 384,
          "midi": 71,
          "name": "B4",
          "ticks": 38400,
          "time": 46.1538,
          "velocity": 0.7874015748031497
        },
        {
          "duration": 0.23076900000000222,
          "durationTicks": 192,
          "midi": 71,
          "name": "B4",
          "ticks": 40896,
          "time": 49.15379699999999,
          "velocity": 0.7874015748031497
        },
        {
          "duration": 0.46153799999999734,
          "durationTicks": 384,
          "midi": 69,
          "name": "A4",
          "ticks": 41088,
          "time": 49.38456599999999,
          "velocity": 0.7874015748031497
        },
        {
          "duration": 0.46153800000000444,
          "durationTicks": 384,
          "midi": 71,
          "name": "B4",
          "ticks": 41472,
          "time": 49.84610399999999,
          "velocity": 0.7874015748031497
        },
        {
          "duration": 0.11538450000000466,
          "durationTicks": 96,
          "midi": 66,
          "name": "F#4",
          "ticks": 53280,
          "time": 64.03839749999999,
          "velocity": 0.7874015748031497
        },
        {
          "duration": 0.46153800000000444,
          "durationTicks": 384,
          "midi": 69,
          "name": "A4",
          "ticks": 53376,
          "time": 64.15378199999999,
          "velocity": 0.7874015748031497
        },
        {
          "duration": 0.46153799999999023,
          "durationTicks": 384,
          "midi": 68,
          "name": "G#4",
          "ticks": 53760,
          "time": 64.61532,
          "velocity": 0.7874015748031497
        },
        {
          "duration": 0.11538449999999045,
          "durationTicks": 96,
          "midi": 66,
          "name": "F#4",
          "ticks": 56352,
          "time": 67.7307015,
          "velocity": 0.7874015748031497
        },
        {
          "duration": 0.346153500000014,
          "durationTicks": 288,
          "midi": 69,
          "name": "A4",
          "ticks": 56448,
          "time": 67.84608599999999,
          "velocity": 0.7874015748031497
        },
        {
          "duration": 0.11538449999999045,
          "durationTicks": 96,
          "midi": 67,
          "name": "G4",
          "ticks": 56736,
          "time": 68.1922395,
          "velocity": 0.7874015748031497
        },
        {
          "duration": 0.46153800000000444,
          "durationTicks": 384,
          "midi": 68,
          "name": "G#4",
          "ticks": 56832,
          "time": 68.30762399999999,
          "velocity": 0.7874015748031497
        },
        {
          "duration": 0.11538450000000466,
          "durationTicks": 96,
          "midi": 66,
          "name": "F#4",
          "ticks": 59424,
          "time": 71.42300549999999,
          "velocity": 0.7874015748031497
        },
        {
          "duration": 0.3461534999999998,
          "durationTicks": 288,
          "midi": 69,
          "name": "A4",
          "ticks": 59520,
          "time": 71.53838999999999,
          "velocity": 0.7874015748031497
        },
        {
          "duration": 0.11538449999999045,
          "durationTicks": 96,
          "midi": 67,
          "name": "G4",
          "ticks": 59808,
          "time": 71.88454349999999,
          "velocity": 0.7874015748031497
        },
        {
          "duration": 0.46153800000000444,
          "durationTicks": 384,
          "midi": 68,
          "name": "G#4",
          "ticks": 59904,
          "time": 71.99992799999998,
          "velocity": 0.7874015748031497
        },
        {
          "duration": 0.11538449999999045,
          "durationTicks": 96,
          "midi": 66,
          "name": "F#4",
          "ticks": 62496,
          "time": 75.1153095,
          "velocity": 0.7874015748031497
        },
        {
          "duration": 0.3461534999999998,
          "durationTicks": 288,
          "midi": 69,
          "name": "A4",
          "ticks": 62592,
          "time": 75.23069399999999,
          "velocity": 0.7874015748031497
        },
        {
          "duration": 0.11538450000000466,
          "durationTicks": 96,
          "midi": 67,
          "name": "G4",
          "ticks": 62880,
          "time": 75.57684749999999,
          "velocity": 0.7874015748031497
        },
        {
          "duration": 0.46153800000000444,
          "durationTicks": 384,
          "midi": 68,
          "name": "G#4",
          "ticks": 62976,
          "time": 75.69223199999999,
          "velocity": 0.7874015748031497
        },
        {
          "duration": 0.11538450000000466,
          "durationTicks": 96,
          "midi": 66,
          "name": "F#4",
          "ticks": 65568,
          "time": 78.80761349999999,
          "velocity": 0.7874015748031497
        },
        {
          "duration": 0.3461534999999998,
          "durationTicks": 288,
          "midi": 69,
          "name": "A4",
          "ticks": 65664,
          "time": 78.92299799999999,
          "velocity": 0.7874015748031497
        },
        {
          "duration": 0.11538450000000466,
          "durationTicks": 96,
          "midi": 67,
          "name": "G4",
          "ticks": 65952,
          "time": 79.26915149999999,
          "velocity": 0.7874015748031497
        },
        {
          "duration": 0.46153799999999023,
          "durationTicks": 384,
          "midi": 68,
          "name": "G#4",
          "ticks": 66048,
          "time": 79.384536,
          "velocity": 0.7874015748031497
        },
        {
          "duration": 0.11538450000000466,
          "durationTicks": 96,
          "midi": 66,
          "name": "F#4",
          "ticks": 68640,
          "time": 82.49991749999998,
          "velocity": 0.7874015748031497
        },
        {
          "duration": 0.346153500000014,
          "durationTicks": 288,
          "midi": 69,
          "name": "A4",
          "ticks": 68736,
          "time": 82.61530199999999,
          "velocity": 0.7874015748031497
        },
        {
          "duration": 0.11538449999999045,
          "durationTicks": 96,
          "midi": 67,
          "name": "G4",
          "ticks": 69024,
          "time": 82.9614555,
          "velocity": 0.7874015748031497
        },
        {
          "duration": 0.46153800000000444,
          "durationTicks": 384,
          "midi": 68,
          "name": "G#4",
          "ticks": 69120,
          "time": 83.07683999999999,
          "velocity": 0.7874015748031497
        },
        {
          "duration": 0.11538450000000466,
          "durationTicks": 96,
          "midi": 66,
          "name": "F#4",
          "ticks": 71712,
          "time": 86.19222149999999,
          "velocity": 0.7874015748031497
        },
        {
          "duration": 0.3461534999999998,
          "durationTicks": 288,
          "midi": 69,
          "name": "A4",
          "ticks": 71808,
          "time": 86.30760599999999,
          "velocity": 0.7874015748031497
        },
        {
          "duration": 0.11538449999999045,
          "durationTicks": 96,
          "midi": 67,
          "name": "G4",
          "ticks": 72096,
          "time": 86.65375949999999,
          "velocity": 0.7874015748031497
        },
        {
          "duration": 0.46153800000000444,
          "durationTicks": 384,
          "midi": 68,
          "name": "G#4",
          "ticks": 72192,
          "time": 86.76914399999998,
          "velocity": 0.7874015748031497
        },
        {
          "duration": 0.11538449999999045,
          "durationTicks": 96,
          "midi": 66,
          "name": "F#4",
          "ticks": 74784,
          "time": 89.8845255,
          "velocity": 0.7874015748031497
        },
        {
          "duration": 0.3461534999999998,
          "durationTicks": 288,
          "midi": 69,
          "name": "A4",
          "ticks": 74880,
          "time": 89.99990999999999,
          "velocity": 0.7874015748031497
        },
        {
          "duration": 0.11538450000000466,
          "durationTicks": 96,
          "midi": 67,
          "name": "G4",
          "ticks": 75168,
          "time": 90.34606349999999,
          "velocity": 0.7874015748031497
        },
        {
          "duration": 0.46153799999999023,
          "durationTicks": 384,
          "midi": 68,
          "name": "G#4",
          "ticks": 75264,
          "time": 90.46144799999999,
          "velocity": 0.7874015748031497
        },
        {
          "duration": 0.46153799999999023,
          "durationTicks": 384,
          "midi": 69,
          "name": "A4",
          "ticks": 79488,
          "time": 95.538366,
          "velocity": 0.7874015748031497
        },
        {
          "duration": 0.46153800000000444,
          "durationTicks": 384,
          "midi": 71,
          "name": "B4",
          "ticks": 79872,
          "time": 95.99990399999999,
          "velocity": 0.7874015748031497
        },
        {
          "duration": 0.23076899999999512,
          "durationTicks": 192,
          "midi": 71,
          "name": "B4",
          "ticks": 82368,
          "time": 98.999901,
          "velocity": 0.7874015748031497
        },
        {
          "duration": 0.46153800000000444,
          "durationTicks": 384,
          "midi": 69,
          "name": "A4",
          "ticks": 82560,
          "time": 99.23066999999999,
          "velocity": 0.7874015748031497
        },
        {
          "duration": 0.46153799999999023,
          "durationTicks": 384,
          "midi": 71,
          "name": "B4",
          "ticks": 82944,
          "time": 99.692208,
          "velocity": 0.7874015748031497
        },
        {
          "duration": 0.23076899999999512,
          "durationTicks": 192,
          "midi": 71,
          "name": "B4",
          "ticks": 85440,
          "time": 102.69220499999999,
          "velocity": 0.7874015748031497
        },
        {
          "duration": 0.46153800000000444,
          "durationTicks": 384,
          "midi": 69,
          "name": "A4",
          "ticks": 85632,
          "time": 102.92297399999998,
          "velocity": 0.7874015748031497
        },
        {
          "duration": 0.46153800000000444,
          "durationTicks": 384,
          "midi": 71,
          "name": "B4",
          "ticks": 86016,
          "time": 103.38451199999999,
          "velocity": 0.7874015748031497
        },
        {
          "duration": 0.23076900000000933,
          "durationTicks": 192,
          "midi": 71,
          "name": "B4",
          "ticks": 88512,
          "time": 106.38450899999998,
          "velocity": 0.7874015748031497
        },
        {
          "duration": 0.46153799999999023,
          "durationTicks": 384,
          "midi": 69,
          "name": "A4",
          "ticks": 88704,
          "time": 106.61527799999999,
          "velocity": 0.7874015748031497
        },
        {
          "duration": 0.46153800000000444,
          "durationTicks": 384,
          "midi": 71,
          "name": "B4",
          "ticks": 89088,
          "time": 107.07681599999998,
          "velocity": 0.7874015748031497
        },
        {
          "duration": 0.11538450000000466,
          "durationTicks": 96,
          "midi": 66,
          "name": "F#4",
          "ticks": 100896,
          "time": 121.26910949999998,
          "velocity": 0.7874015748031497
        },
        {
          "duration": 0.3461534999999998,
          "durationTicks": 288,
          "midi": 69,
          "name": "A4",
          "ticks": 100992,
          "time": 121.38449399999999,
          "velocity": 0.7874015748031497
        },
        {
          "duration": 0.11538449999999045,
          "durationTicks": 96,
          "midi": 67,
          "name": "G4",
          "ticks": 101280,
          "time": 121.73064749999999,
          "velocity": 0.7874015748031497
        },
        {
          "duration": 0.46153800000000444,
          "durationTicks": 384,
          "midi": 68,
          "name": "G#4",
          "ticks": 101376,
          "time": 121.84603199999998,
          "velocity": 0.7874015748031497
        },
        {
          "duration": 0.11538449999999045,
          "durationTicks": 96,
          "midi": 66,
          "name": "F#4",
          "ticks": 103968,
          "time": 124.96141349999999,
          "velocity": 0.7874015748031497
        },
        {
          "duration": 0.3461534999999998,
          "durationTicks": 288,
          "midi": 69,
          "name": "A4",
          "ticks": 104064,
          "time": 125.07679799999998,
          "velocity": 0.7874015748031497
        },
        {
          "duration": 0.11538450000000466,
          "durationTicks": 96,
          "midi": 67,
          "name": "G4",
          "ticks": 104352,
          "time": 125.42295149999998,
          "velocity": 0.7874015748031497
        },
        {
          "duration": 0.46153799999999023,
          "durationTicks": 384,
          "midi": 68,
          "name": "G#4",
          "ticks": 104448,
          "time": 125.53833599999999,
          "velocity": 0.7874015748031497
        },
        {
          "duration": 0.11538450000000466,
          "durationTicks": 96,
          "midi": 66,
          "name": "F#4",
          "ticks": 107040,
          "time": 128.65371749999997,
          "velocity": 0.7874015748031497
        },
        {
          "duration": 0.346153500000014,
          "durationTicks": 288,
          "midi": 69,
          "name": "A4",
          "ticks": 107136,
          "time": 128.76910199999998,
          "velocity": 0.7874015748031497
        },
        {
          "duration": 0.11538450000000466,
          "durationTicks": 96,
          "midi": 67,
          "name": "G4",
          "ticks": 107424,
          "time": 129.1152555,
          "velocity": 0.7874015748031497
        },
        {
          "duration": 0.46153799999999023,
          "durationTicks": 384,
          "midi": 68,
          "name": "G#4",
          "ticks": 107520,
          "time": 129.23064,
          "velocity": 0.7874015748031497
        },
        {
          "duration": 0.11538450000000466,
          "durationTicks": 96,
          "midi": 66,
          "name": "F#4",
          "ticks": 110112,
          "time": 132.34602149999998,
          "velocity": 0.7874015748031497
        },
        {
          "duration": 0.34615349999998557,
          "durationTicks": 288,
          "midi": 69,
          "name": "A4",
          "ticks": 110208,
          "time": 132.46140599999998,
          "velocity": 0.7874015748031497
        },
        {
          "duration": 0.11538450000000466,
          "durationTicks": 96,
          "midi": 67,
          "name": "G4",
          "ticks": 110496,
          "time": 132.80755949999997,
          "velocity": 0.7874015748031497
        },
        {
          "duration": 0.46153800000001866,
          "durationTicks": 384,
          "midi": 68,
          "name": "G#4",
          "ticks": 110592,
          "time": 132.92294399999997,
          "velocity": 0.7874015748031497
        },
        {
          "duration": 0.11538450000000466,
          "durationTicks": 96,
          "midi": 66,
          "name": "F#4",
          "ticks": 113184,
          "time": 136.03832549999998,
          "velocity": 0.7874015748031497
        },
        {
          "duration": 0.34615349999998557,
          "durationTicks": 288,
          "midi": 69,
          "name": "A4",
          "ticks": 113280,
          "time": 136.15371,
          "velocity": 0.7874015748031497
        },
        {
          "duration": 0.11538450000000466,
          "durationTicks": 96,
          "midi": 67,
          "name": "G4",
          "ticks": 113568,
          "time": 136.49986349999998,
          "velocity": 0.7874015748031497
        },
        {
          "duration": 0.46153799999999023,
          "durationTicks": 384,
          "midi": 68,
          "name": "G#4",
          "ticks": 113664,
          "time": 136.61524799999998,
          "velocity": 0.7874015748031497
        },
        {
          "duration": 0.11538449999997624,
          "durationTicks": 96,
          "midi": 66,
          "name": "F#4",
          "ticks": 116256,
          "time": 139.7306295,
          "velocity": 0.7874015748031497
        },
        {
          "duration": 0.346153500000014,
          "durationTicks": 288,
          "midi": 69,
          "name": "A4",
          "ticks": 116352,
          "time": 139.84601399999997,
          "velocity": 0.7874015748031497
        },
        {
          "duration": 0.11538450000000466,
          "durationTicks": 96,
          "midi": 67,
          "name": "G4",
          "ticks": 116640,
          "time": 140.19216749999998,
          "velocity": 0.7874015748031497
        },
        {
          "duration": 0.46153799999999023,
          "durationTicks": 384,
          "midi": 68,
          "name": "G#4",
          "ticks": 116736,
          "time": 140.307552,
          "velocity": 0.7874015748031497
        },
        {
          "duration": 0.11538449999997624,
          "durationTicks": 96,
          "midi": 66,
          "name": "F#4",
          "ticks": 119328,
          "time": 143.4229335,
          "velocity": 0.7874015748031497
        },
        {
          "duration": 0.346153500000014,
          "durationTicks": 288,
          "midi": 69,
          "name": "A4",
          "ticks": 119424,
          "time": 143.53831799999998,
          "velocity": 0.7874015748031497
        },
        {
          "duration": 0.11538449999997624,
          "durationTicks": 96,
          "midi": 67,
          "name": "G4",
          "ticks": 119712,
          "time": 143.8844715,
          "velocity": 0.7874015748031497
        },
        {
          "duration": 0.46153800000001866,
          "durationTicks": 384,
          "midi": 68,
          "name": "G#4",
          "ticks": 119808,
          "time": 143.99985599999997,
          "velocity": 0.7874015748031497
        },
        {
          "duration": 0.11538450000000466,
          "durationTicks": 96,
          "midi": 66,
          "name": "F#4",
          "ticks": 122400,
          "time": 147.11523749999998,
          "velocity": 0.7874015748031497
        },
        {
          "duration": 0.346153500000014,
          "durationTicks": 288,
          "midi": 69,
          "name": "A4",
          "ticks": 122496,
          "time": 147.23062199999998,
          "velocity": 0.7874015748031497
        },
        {
          "duration": 0.11538449999997624,
          "durationTicks": 96,
          "midi": 67,
          "name": "G4",
          "ticks": 122784,
          "time": 147.5767755,
          "velocity": 0.7874015748031497
        },
        {
          "duration": 0.46153800000001866,
          "durationTicks": 384,
          "midi": 68,
          "name": "G#4",
          "ticks": 122880,
          "time": 147.69215999999997,
          "velocity": 0.7874015748031497
        },
        {
          "duration": 0.11538450000000466,
          "durationTicks": 96,
          "midi": 66,
          "name": "F#4",
          "ticks": 125472,
          "time": 150.80754149999999,
          "velocity": 0.7874015748031497
        },
        {
          "duration": 0.34615349999998557,
          "durationTicks": 288,
          "midi": 69,
          "name": "A4",
          "ticks": 125568,
          "time": 150.922926,
          "velocity": 0.7874015748031497
        },
        {
          "duration": 0.11538450000000466,
          "durationTicks": 96,
          "midi": 67,
          "name": "G4",
          "ticks": 125856,
          "time": 151.26907949999998,
          "velocity": 0.7874015748031497
        },
        {
          "duration": 0.46153799999999023,
          "durationTicks": 384,
          "midi": 68,
          "name": "G#4",
          "ticks": 125952,
          "time": 151.38446399999998,
          "velocity": 0.7874015748031497
        },
        {
          "duration": 0.11538449999997624,
          "durationTicks": 96,
          "midi": 66,
          "name": "F#4",
          "ticks": 128544,
          "time": 154.4998455,
          "velocity": 0.7874015748031497
        },
        {
          "duration": 0.346153500000014,
          "durationTicks": 288,
          "midi": 69,
          "name": "A4",
          "ticks": 128640,
          "time": 154.61522999999997,
          "velocity": 0.7874015748031497
        },
        {
          "duration": 0.11538450000000466,
          "durationTicks": 96,
          "midi": 67,
          "name": "G4",
          "ticks": 128928,
          "time": 154.96138349999998,
          "velocity": 0.7874015748031497
        },
        {
          "duration": 0.46153799999999023,
          "durationTicks": 384,
          "midi": 68,
          "name": "G#4",
          "ticks": 129024,
          "time": 155.076768,
          "velocity": 0.7874015748031497
        },
        {
          "duration": 0.11538450000000466,
          "durationTicks": 96,
          "midi": 66,
          "name": "F#4",
          "ticks": 131616,
          "time": 158.19214949999997,
          "velocity": 0.7874015748031497
        },
        {
          "duration": 0.346153500000014,
          "durationTicks": 288,
          "midi": 69,
          "name": "A4",
          "ticks": 131712,
          "time": 158.30753399999998,
          "velocity": 0.7874015748031497
        },
        {
          "duration": 0.11538449999997624,
          "durationTicks": 96,
          "midi": 67,
          "name": "G4",
          "ticks": 132000,
          "time": 158.6536875,
          "velocity": 0.7874015748031497
        },
        {
          "duration": 0.46153800000001866,
          "durationTicks": 384,
          "midi": 68,
          "name": "G#4",
          "ticks": 132096,
          "time": 158.76907199999997,
          "velocity": 0.7874015748031497
        },
        {
          "duration": 0.46153800000001866,
          "durationTicks": 384,
          "midi": 69,
          "name": "A4",
          "ticks": 136320,
          "time": 163.84598999999997,
          "velocity": 0.7874015748031497
        },
        {
          "duration": 0.46153799999999023,
          "durationTicks": 384,
          "midi": 71,
          "name": "B4",
          "ticks": 136704,
          "time": 164.307528,
          "velocity": 0.7874015748031497
        },
        {
          "duration": 0.23076900000000933,
          "durationTicks": 192,
          "midi": 71,
          "name": "B4",
          "ticks": 139200,
          "time": 167.30752499999997,
          "velocity": 0.7874015748031497
        },
        {
          "duration": 0.46153799999999023,
          "durationTicks": 384,
          "midi": 69,
          "name": "A4",
          "ticks": 139392,
          "time": 167.53829399999998,
          "velocity": 0.7874015748031497
        },
        {
          "duration": 0.46153800000001866,
          "durationTicks": 384,
          "midi": 71,
          "name": "B4",
          "ticks": 139776,
          "time": 167.99983199999997,
          "velocity": 0.7874015748031497
        },
        {
          "duration": 0.23076900000000933,
          "durationTicks": 192,
          "midi": 71,
          "name": "B4",
          "ticks": 142272,
          "time": 170.99982899999998,
          "velocity": 0.7874015748031497
        },
        {
          "duration": 0.46153799999999023,
          "durationTicks": 384,
          "midi": 69,
          "name": "A4",
          "ticks": 142464,
          "time": 171.230598,
          "velocity": 0.7874015748031497
        },
        {
          "duration": 0.46153799999999023,
          "durationTicks": 384,
          "midi": 71,
          "name": "B4",
          "ticks": 142848,
          "time": 171.69213599999998,
          "velocity": 0.7874015748031497
        },
        {
          "duration": 0.2307689999999809,
          "durationTicks": 192,
          "midi": 71,
          "name": "B4",
          "ticks": 145344,
          "time": 174.69213299999998,
          "velocity": 0.7874015748031497
        },
        {
          "duration": 0.46153800000001866,
          "durationTicks": 384,
          "midi": 69,
          "name": "A4",
          "ticks": 145536,
          "time": 174.92290199999997,
          "velocity": 0.7874015748031497
        },
        {
          "duration": 0.46153799999999023,
          "durationTicks": 384,
          "midi": 71,
          "name": "B4",
          "ticks": 145920,
          "time": 175.38443999999998,
          "velocity": 0.7874015748031497
        },
        {
          "duration": 0.11538449999997624,
          "durationTicks": 96,
          "midi": 66,
          "name": "F#4",
          "ticks": 157728,
          "time": 189.5767335,
          "velocity": 0.7874015748031497
        },
        {
          "duration": 0.346153500000014,
          "durationTicks": 288,
          "midi": 69,
          "name": "A4",
          "ticks": 157824,
          "time": 189.69211799999997,
          "velocity": 0.7874015748031497
        },
        {
          "duration": 0.11538450000000466,
          "durationTicks": 96,
          "midi": 67,
          "name": "G4",
          "ticks": 158112,
          "time": 190.03827149999998,
          "velocity": 0.7874015748031497
        },
        {
          "duration": 0.46153799999999023,
          "durationTicks": 384,
          "midi": 68,
          "name": "G#4",
          "ticks": 158208,
          "time": 190.15365599999998,
          "velocity": 0.7874015748031497
        },
        {
          "duration": 0.11538450000000466,
          "durationTicks": 96,
          "midi": 66,
          "name": "F#4",
          "ticks": 160800,
          "time": 193.26903749999997,
          "velocity": 0.7874015748031497
        },
        {
          "duration": 0.346153500000014,
          "durationTicks": 288,
          "midi": 69,
          "name": "A4",
          "ticks": 160896,
          "time": 193.38442199999997,
          "velocity": 0.7874015748031497
        },
        {
          "duration": 0.11538450000000466,
          "durationTicks": 96,
          "midi": 67,
          "name": "G4",
          "ticks": 161184,
          "time": 193.7305755,
          "velocity": 0.7874015748031497
        },
        {
          "duration": 0.46153799999999023,
          "durationTicks": 384,
          "midi": 68,
          "name": "G#4",
          "ticks": 161280,
          "time": 193.84596,
          "velocity": 0.7874015748031497
        },
        {
          "duration": 0.11538450000000466,
          "durationTicks": 96,
          "midi": 66,
          "name": "F#4",
          "ticks": 163872,
          "time": 196.96134149999997,
          "velocity": 0.7874015748031497
        },
        {
          "duration": 0.346153500000014,
          "durationTicks": 288,
          "midi": 69,
          "name": "A4",
          "ticks": 163968,
          "time": 197.07672599999998,
          "velocity": 0.7874015748031497
        },
        {
          "duration": 0.11538449999997624,
          "durationTicks": 96,
          "midi": 67,
          "name": "G4",
          "ticks": 164256,
          "time": 197.4228795,
          "velocity": 0.7874015748031497
        },
        {
          "duration": 0.46153800000001866,
          "durationTicks": 384,
          "midi": 68,
          "name": "G#4",
          "ticks": 164352,
          "time": 197.53826399999997,
          "velocity": 0.7874015748031497
        },
        {
          "duration": 0.11538450000000466,
          "durationTicks": 96,
          "midi": 66,
          "name": "F#4",
          "ticks": 166944,
          "time": 200.65364549999998,
          "velocity": 0.7874015748031497
        },
        {
          "duration": 0.34615349999998557,
          "durationTicks": 288,
          "midi": 69,
          "name": "A4",
          "ticks": 167040,
          "time": 200.76903,
          "velocity": 0.7874015748031497
        },
        {
          "duration": 0.11538450000000466,
          "durationTicks": 96,
          "midi": 67,
          "name": "G4",
          "ticks": 167328,
          "time": 201.11518349999997,
          "velocity": 0.7874015748031497
        },
        {
          "duration": 0.46153799999999023,
          "durationTicks": 384,
          "midi": 68,
          "name": "G#4",
          "ticks": 167424,
          "time": 201.23056799999998,
          "velocity": 0.7874015748031497
        },
        {
          "duration": 0.11538449999997624,
          "durationTicks": 96,
          "midi": 66,
          "name": "F#4",
          "ticks": 170016,
          "time": 204.3459495,
          "velocity": 0.7874015748031497
        },
        {
          "duration": 0.346153500000014,
          "durationTicks": 288,
          "midi": 69,
          "name": "A4",
          "ticks": 170112,
          "time": 204.46133399999997,
          "velocity": 0.7874015748031497
        },
        {
          "duration": 0.11538450000000466,
          "durationTicks": 96,
          "midi": 67,
          "name": "G4",
          "ticks": 170400,
          "time": 204.80748749999998,
          "velocity": 0.7874015748031497
        },
        {
          "duration": 0.46153799999999023,
          "durationTicks": 384,
          "midi": 68,
          "name": "G#4",
          "ticks": 170496,
          "time": 204.92287199999998,
          "velocity": 0.7874015748031497
        }
      ]
    },
    {
      "channel": 9,
      "controlChanges": {
        "7": [
          {
            "number": 7,
            "ticks": 0,
            "time": 0,
            "value": 0.8661417322834646
          }
        ]
      },
      "pitchBends": [],
      "instrument": {
        "family": "drums",
        "number": 0,
        "name": "standard kit"
      },
      "name": "",
      "notes": [
        {
          "duration": 0.05769225000000011,
          "durationTicks": 48,
          "midi": 38,
          "name": "D2",
          "ticks": 2688,
          "time": 3.2307659999999996,
          "velocity": 0.7874015748031497
        },
        {
          "duration": 0.05769225000000011,
          "durationTicks": 48,
          "midi": 54,
          "name": "F#3",
          "ticks": 3072,
          "time": 3.6923039999999996,
          "velocity": 0.7874015748031497
        },
        {
          "duration": 0.05769225000000011,
          "durationTicks": 48,
          "midi": 42,
          "name": "F#2",
          "ticks": 3072,
          "time": 3.6923039999999996,
          "velocity": 0.7874015748031497
        },
        {
          "duration": 0.05769225000000011,
          "durationTicks": 48,
          "midi": 36,
          "name": "C2",
          "ticks": 3072,
          "time": 3.6923039999999996,
          "velocity": 0.7874015748031497
        },
        {
          "duration": 0.057692250000000556,
          "durationTicks": 48,
          "midi": 54,
          "name": "F#3",
          "ticks": 3456,
          "time": 4.153841999999999,
          "velocity": 0.7874015748031497
        },
        {
          "duration": 0.057692250000000556,
          "durationTicks": 48,
          "midi": 42,
          "name": "F#2",
          "ticks": 3456,
          "time": 4.153841999999999,
          "velocity": 0.7874015748031497
        },
        {
          "duration": 0.057692250000000556,
          "durationTicks": 48,
          "midi": 38,
          "name": "D2",
          "ticks": 3456,
          "time": 4.153841999999999,
          "velocity": 0.7874015748031497
        },
        {
          "duration": 0.057692250000000556,
          "durationTicks": 48,
          "midi": 54,
          "name": "F#3",
          "ticks": 3840,
          "time": 4.615379999999999,
          "velocity": 0.7874015748031497
        },
        {
          "duration": 0.057692250000000556,
          "durationTicks": 48,
          "midi": 42,
          "name": "F#2",
          "ticks": 3840,
          "time": 4.615379999999999,
          "velocity": 0.7874015748031497
        },
        {
          "duration": 0.057692250000000556,
          "durationTicks": 48,
          "midi": 36,
          "name": "C2",
          "ticks": 3840,
          "time": 4.615379999999999,
          "velocity": 0.7874015748031497
        },
        {
          "duration": 0.057692250000000556,
          "durationTicks": 48,
          "midi": 54,
          "name": "F#3",
          "ticks": 4224,
          "time": 5.076917999999999,
          "velocity": 0.7874015748031497
        },
        {
          "duration": 0.057692250000000556,
          "durationTicks": 48,
          "midi": 42,
          "name": "F#2",
          "ticks": 4224,
          "time": 5.076917999999999,
          "velocity": 0.7874015748031497
        },
        {
          "duration": 0.057692250000000556,
          "durationTicks": 48,
          "midi": 38,
          "name": "D2",
          "ticks": 4224,
          "time": 5.076917999999999,
          "velocity": 0.7874015748031497
        },
        {
          "duration": 0.057692250000000556,
          "durationTicks": 48,
          "midi": 54,
          "name": "F#3",
          "ticks": 4608,
          "time": 5.538455999999999,
          "velocity": 0.7874015748031497
        },
        {
          "duration": 0.057692250000000556,
          "durationTicks": 48,
          "midi": 42,
          "name": "F#2",
          "ticks": 4608,
          "time": 5.538455999999999,
          "velocity": 0.7874015748031497
        },
        {
          "duration": 0.057692250000000556,
          "durationTicks": 48,
          "midi": 36,
          "name": "C2",
          "ticks": 4608,
          "time": 5.538455999999999,
          "velocity": 0.7874015748031497
        },
        {
          "duration": 0.057692250000000556,
          "durationTicks": 48,
          "midi": 54,
          "name": "F#3",
          "ticks": 4992,
          "time": 5.999993999999999,
          "velocity": 0.7874015748031497
        },
        {
          "duration": 0.057692250000000556,
          "durationTicks": 48,
          "midi": 42,
          "name": "F#2",
          "ticks": 4992,
          "time": 5.999993999999999,
          "velocity": 0.7874015748031497
        },
        {
          "duration": 0.057692250000000556,
          "durationTicks": 48,
          "midi": 38,
          "name": "D2",
          "ticks": 4992,
          "time": 5.999993999999999,
          "velocity": 0.7874015748031497
        },
        {
          "duration": 0.05769224999999967,
          "durationTicks": 48,
          "midi": 54,
          "name": "F#3",
          "ticks": 5376,
          "time": 6.461531999999999,
          "velocity": 0.7874015748031497
        },
        {
          "duration": 0.05769224999999967,
          "durationTicks": 48,
          "midi": 42,
          "name": "F#2",
          "ticks": 5376,
          "time": 6.461531999999999,
          "velocity": 0.7874015748031497
        },
        {
          "duration": 0.05769224999999967,
          "durationTicks": 48,
          "midi": 36,
          "name": "C2",
          "ticks": 5376,
          "time": 6.461531999999999,
          "velocity": 0.7874015748031497
        },
        {
          "duration": 0.05769224999999967,
          "durationTicks": 48,
          "midi": 54,
          "name": "F#3",
          "ticks": 5760,
          "time": 6.923069999999999,
          "velocity": 0.7874015748031497
        },
        {
          "duration": 0.05769224999999967,
          "durationTicks": 48,
          "midi": 42,
          "name": "F#2",
          "ticks": 5760,
          "time": 6.923069999999999,
          "velocity": 0.7874015748031497
        },
        {
          "duration": 0.05769224999999967,
          "durationTicks": 48,
          "midi": 38,
          "name": "D2",
          "ticks": 5760,
          "time": 6.923069999999999,
          "velocity": 0.7874015748031497
        },
        {
          "duration": 0.05769224999999967,
          "durationTicks": 48,
          "midi": 54,
          "name": "F#3",
          "ticks": 6144,
          "time": 7.384607999999999,
          "velocity": 0.7874015748031497
        },
        {
          "duration": 0.05769224999999967,
          "durationTicks": 48,
          "midi": 42,
          "name": "F#2",
          "ticks": 6144,
          "time": 7.384607999999999,
          "velocity": 0.7874015748031497
        },
        {
          "duration": 0.05769224999999967,
          "durationTicks": 48,
          "midi": 36,
          "name": "C2",
          "ticks": 6144,
          "time": 7.384607999999999,
          "velocity": 0.7874015748031497
        },
        {
          "duration": 0.05769224999999967,
          "durationTicks": 48,
          "midi": 54,
          "name": "F#3",
          "ticks": 6528,
          "time": 7.846145999999999,
          "velocity": 0.7874015748031497
        },
        {
          "duration": 0.05769224999999967,
          "durationTicks": 48,
          "midi": 42,
          "name": "F#2",
          "ticks": 6528,
          "time": 7.846145999999999,
          "velocity": 0.7874015748031497
        },
        {
          "duration": 0.05769224999999967,
          "durationTicks": 48,
          "midi": 38,
          "name": "D2",
          "ticks": 6528,
          "time": 7.846145999999999,
          "velocity": 0.7874015748031497
        },
        {
          "duration": 0.057692250000000556,
          "durationTicks": 48,
          "midi": 54,
          "name": "F#3",
          "ticks": 6912,
          "time": 8.307683999999998,
          "velocity": 0.7874015748031497
        },
        {
          "duration": 0.057692250000000556,
          "durationTicks": 48,
          "midi": 42,
          "name": "F#2",
          "ticks": 6912,
          "time": 8.307683999999998,
          "velocity": 0.7874015748031497
        },
        {
          "duration": 0.057692250000000556,
          "durationTicks": 48,
          "midi": 36,
          "name": "C2",
          "ticks": 6912,
          "time": 8.307683999999998,
          "velocity": 0.7874015748031497
        },
        {
          "duration": 0.057692250000000556,
          "durationTicks": 48,
          "midi": 54,
          "name": "F#3",
          "ticks": 7296,
          "time": 8.769222,
          "velocity": 0.7874015748031497
        },
        {
          "duration": 0.057692250000000556,
          "durationTicks": 48,
          "midi": 42,
          "name": "F#2",
          "ticks": 7296,
          "time": 8.769222,
          "velocity": 0.7874015748031497
        },
        {
          "duration": 0.057692250000000556,
          "durationTicks": 48,
          "midi": 38,
          "name": "D2",
          "ticks": 7296,
          "time": 8.769222,
          "velocity": 0.7874015748031497
        },
        {
          "duration": 0.057692250000000556,
          "durationTicks": 48,
          "midi": 70,
          "name": "A#4",
          "ticks": 7680,
          "time": 9.230759999999998,
          "velocity": 0.3858267716535433
        },
        {
          "duration": 0.057692250000000556,
          "durationTicks": 48,
          "midi": 54,
          "name": "F#3",
          "ticks": 7680,
          "time": 9.230759999999998,
          "velocity": 0.7874015748031497
        },
        {
          "duration": 0.057692250000000556,
          "durationTicks": 48,
          "midi": 42,
          "name": "F#2",
          "ticks": 7680,
          "time": 9.230759999999998,
          "velocity": 0.7874015748031497
        },
        {
          "duration": 0.057692250000000556,
          "durationTicks": 48,
          "midi": 36,
          "name": "C2",
          "ticks": 7680,
          "time": 9.230759999999998,
          "velocity": 0.7874015748031497
        },
        {
          "duration": 0.057692250000000556,
          "durationTicks": 48,
          "midi": 70,
          "name": "A#4",
          "ticks": 7744,
          "time": 9.307682999999999,
          "velocity": 0.4015748031496063
        },
        {
          "duration": 0.057692250000000556,
          "durationTicks": 48,
          "midi": 70,
          "name": "A#4",
          "ticks": 7808,
          "time": 9.384605999999998,
          "velocity": 0.41732283464566927
        },
        {
          "duration": 0.057692250000000556,
          "durationTicks": 48,
          "midi": 70,
          "name": "A#4",
          "ticks": 7872,
          "time": 9.461528999999999,
          "velocity": 0.4330708661417323
        },
        {
          "duration": 0.057692250000000556,
          "durationTicks": 48,
          "midi": 70,
          "name": "A#4",
          "ticks": 7936,
          "time": 9.538452,
          "velocity": 0.44881889763779526
        },
        {
          "duration": 0.057692250000000556,
          "durationTicks": 48,
          "midi": 70,
          "name": "A#4",
          "ticks": 8000,
          "time": 9.615374999999998,
          "velocity": 0.47244094488188976
        },
        {
          "duration": 0.057692250000000556,
          "durationTicks": 48,
          "midi": 70,
          "name": "A#4",
          "ticks": 8064,
          "time": 9.692298,
          "velocity": 0.4881889763779528
        },
        {
          "duration": 0.057692250000000556,
          "durationTicks": 48,
          "midi": 54,
          "name": "F#3",
          "ticks": 8064,
          "time": 9.692298,
          "velocity": 0.7874015748031497
        },
        {
          "duration": 0.057692250000000556,
          "durationTicks": 48,
          "midi": 42,
          "name": "F#2",
          "ticks": 8064,
          "time": 9.692298,
          "velocity": 0.7874015748031497
        },
        {
          "duration": 0.057692250000000556,
          "durationTicks": 48,
          "midi": 38,
          "name": "D2",
          "ticks": 8064,
          "time": 9.692298,
          "velocity": 0.7874015748031497
        },
        {
          "duration": 0.05769224999999878,
          "durationTicks": 48,
          "midi": 70,
          "name": "A#4",
          "ticks": 8128,
          "time": 9.769221,
          "velocity": 0.5039370078740157
        },
        {
          "duration": 0.05769224999999878,
          "durationTicks": 48,
          "midi": 70,
          "name": "A#4",
          "ticks": 8192,
          "time": 9.846143999999999,
          "velocity": 0.5196850393700787
        },
        {
          "duration": 0.05769224999999878,
          "durationTicks": 48,
          "midi": 70,
          "name": "A#4",
          "ticks": 8256,
          "time": 9.923067,
          "velocity": 0.5354330708661418
        },
        {
          "duration": 0.057692250000000556,
          "durationTicks": 48,
          "midi": 70,
          "name": "A#4",
          "ticks": 8320,
          "time": 9.999989999999999,
          "velocity": 0.5590551181102362
        },
        {
          "duration": 0.057692250000000556,
          "durationTicks": 48,
          "midi": 70,
          "name": "A#4",
          "ticks": 8384,
          "time": 10.076912999999998,
          "velocity": 0.5748031496062992
        },
        {
          "duration": 0.057692250000000556,
          "durationTicks": 48,
          "midi": 70,
          "name": "A#4",
          "ticks": 8448,
          "time": 10.153835999999998,
          "velocity": 0.5905511811023622
        },
        {
          "duration": 0.057692250000000556,
          "durationTicks": 48,
          "midi": 54,
          "name": "F#3",
          "ticks": 8448,
          "time": 10.153835999999998,
          "velocity": 0.7874015748031497
        },
        {
          "duration": 0.057692250000000556,
          "durationTicks": 48,
          "midi": 42,
          "name": "F#2",
          "ticks": 8448,
          "time": 10.153835999999998,
          "velocity": 0.7874015748031497
        },
        {
          "duration": 0.057692250000000556,
          "durationTicks": 48,
          "midi": 36,
          "name": "C2",
          "ticks": 8448,
          "time": 10.153835999999998,
          "velocity": 0.7874015748031497
        },
        {
          "duration": 0.057692250000000556,
          "durationTicks": 48,
          "midi": 70,
          "name": "A#4",
          "ticks": 8512,
          "time": 10.230758999999999,
          "velocity": 0.6062992125984252
        },
        {
          "duration": 0.057692250000000556,
          "durationTicks": 48,
          "midi": 70,
          "name": "A#4",
          "ticks": 8576,
          "time": 10.307681999999998,
          "velocity": 0.6299212598425197
        },
        {
          "duration": 0.057692250000000556,
          "durationTicks": 48,
          "midi": 70,
          "name": "A#4",
          "ticks": 8640,
          "time": 10.384604999999999,
          "velocity": 0.6456692913385826
        },
        {
          "duration": 0.057692250000000556,
          "durationTicks": 48,
          "midi": 70,
          "name": "A#4",
          "ticks": 8704,
          "time": 10.461528,
          "velocity": 0.6614173228346457
        },
        {
          "duration": 0.057692250000000556,
          "durationTicks": 48,
          "midi": 70,
          "name": "A#4",
          "ticks": 8768,
          "time": 10.538450999999998,
          "velocity": 0.6771653543307087
        },
        {
          "duration": 0.05769224999999878,
          "durationTicks": 48,
          "midi": 70,
          "name": "A#4",
          "ticks": 8832,
          "time": 10.615374,
          "velocity": 0.6929133858267716
        },
        {
          "duration": 0.05769224999999878,
          "durationTicks": 48,
          "midi": 54,
          "name": "F#3",
          "ticks": 8832,
          "time": 10.615374,
          "velocity": 0.7874015748031497
        },
        {
          "duration": 0.05769224999999878,
          "durationTicks": 48,
          "midi": 42,
          "name": "F#2",
          "ticks": 8832,
          "time": 10.615374,
          "velocity": 0.7874015748031497
        },
        {
          "duration": 0.05769224999999878,
          "durationTicks": 48,
          "midi": 38,
          "name": "D2",
          "ticks": 8832,
          "time": 10.615374,
          "velocity": 0.7874015748031497
        },
        {
          "duration": 0.05769224999999878,
          "durationTicks": 48,
          "midi": 70,
          "name": "A#4",
          "ticks": 8896,
          "time": 10.692297,
          "velocity": 0.7165354330708661
        },
        {
          "duration": 0.05769224999999878,
          "durationTicks": 48,
          "midi": 70,
          "name": "A#4",
          "ticks": 8960,
          "time": 10.769219999999999,
          "velocity": 0.7322834645669292
        },
        {
          "duration": 0.05769224999999878,
          "durationTicks": 48,
          "midi": 70,
          "name": "A#4",
          "ticks": 9024,
          "time": 10.846143,
          "velocity": 0.7480314960629921
        },
        {
          "duration": 0.057692250000000556,
          "durationTicks": 48,
          "midi": 70,
          "name": "A#4",
          "ticks": 9088,
          "time": 10.923065999999999,
          "velocity": 0.7637795275590551
        },
        {
          "duration": 0.057692250000000556,
          "durationTicks": 48,
          "midi": 70,
          "name": "A#4",
          "ticks": 9152,
          "time": 10.999988999999998,
          "velocity": 0.7874015748031497
        },
        {
          "duration": 0.057692250000000556,
          "durationTicks": 48,
          "midi": 70,
          "name": "A#4",
          "ticks": 9216,
          "time": 11.076911999999998,
          "velocity": 0.7874015748031497
        },
        {
          "duration": 0.057692250000000556,
          "durationTicks": 48,
          "midi": 54,
          "name": "F#3",
          "ticks": 9216,
          "time": 11.076911999999998,
          "velocity": 0.7874015748031497
        },
        {
          "duration": 0.057692250000000556,
          "durationTicks": 48,
          "midi": 42,
          "name": "F#2",
          "ticks": 9216,
          "time": 11.076911999999998,
          "velocity": 0.7874015748031497
        },
        {
          "duration": 0.057692250000000556,
          "durationTicks": 48,
          "midi": 36,
          "name": "C2",
          "ticks": 9216,
          "time": 11.076911999999998,
          "velocity": 0.7874015748031497
        },
        {
          "duration": 0.05769224999999878,
          "durationTicks": 48,
          "midi": 54,
          "name": "F#3",
          "ticks": 9600,
          "time": 11.53845,
          "velocity": 0.7874015748031497
        },
        {
          "duration": 0.05769224999999878,
          "durationTicks": 48,
          "midi": 42,
          "name": "F#2",
          "ticks": 9600,
          "time": 11.53845,
          "velocity": 0.7874015748031497
        },
        {
          "duration": 0.05769224999999878,
          "durationTicks": 48,
          "midi": 38,
          "name": "D2",
          "ticks": 9600,
          "time": 11.53845,
          "velocity": 0.7874015748031497
        },
        {
          "duration": 0.057692250000000556,
          "durationTicks": 48,
          "midi": 54,
          "name": "F#3",
          "ticks": 9984,
          "time": 11.999987999999998,
          "velocity": 0.7874015748031497
        },
        {
          "duration": 0.057692250000000556,
          "durationTicks": 48,
          "midi": 42,
          "name": "F#2",
          "ticks": 9984,
          "time": 11.999987999999998,
          "velocity": 0.7874015748031497
        },
        {
          "duration": 0.057692250000000556,
          "durationTicks": 48,
          "midi": 36,
          "name": "C2",
          "ticks": 9984,
          "time": 11.999987999999998,
          "velocity": 0.7874015748031497
        },
        {
          "duration": 0.05769224999999878,
          "durationTicks": 48,
          "midi": 54,
          "name": "F#3",
          "ticks": 10368,
          "time": 12.461526,
          "velocity": 0.7874015748031497
        },
        {
          "duration": 0.05769224999999878,
          "durationTicks": 48,
          "midi": 42,
          "name": "F#2",
          "ticks": 10368,
          "time": 12.461526,
          "velocity": 0.7874015748031497
        },
        {
          "duration": 0.05769224999999878,
          "durationTicks": 48,
          "midi": 38,
          "name": "D2",
          "ticks": 10368,
          "time": 12.461526,
          "velocity": 0.7874015748031497
        },
        {
          "duration": 0.057692250000000556,
          "durationTicks": 48,
          "midi": 54,
          "name": "F#3",
          "ticks": 10752,
          "time": 12.923063999999998,
          "velocity": 0.7874015748031497
        },
        {
          "duration": 0.057692250000000556,
          "durationTicks": 48,
          "midi": 42,
          "name": "F#2",
          "ticks": 10752,
          "time": 12.923063999999998,
          "velocity": 0.7874015748031497
        },
        {
          "duration": 0.057692250000000556,
          "durationTicks": 48,
          "midi": 36,
          "name": "C2",
          "ticks": 10752,
          "time": 12.923063999999998,
          "velocity": 0.7874015748031497
        },
        {
          "duration": 0.05769224999999878,
          "durationTicks": 48,
          "midi": 54,
          "name": "F#3",
          "ticks": 11136,
          "time": 13.384602,
          "velocity": 0.7874015748031497
        },
        {
          "duration": 0.05769224999999878,
          "durationTicks": 48,
          "midi": 42,
          "name": "F#2",
          "ticks": 11136,
          "time": 13.384602,
          "velocity": 0.7874015748031497
        },
        {
          "duration": 0.05769224999999878,
          "durationTicks": 48,
          "midi": 38,
          "name": "D2",
          "ticks": 11136,
          "time": 13.384602,
          "velocity": 0.7874015748031497
        },
        {
          "duration": 0.057692250000000556,
          "durationTicks": 48,
          "midi": 54,
          "name": "F#3",
          "ticks": 11520,
          "time": 13.846139999999998,
          "velocity": 0.7874015748031497
        },
        {
          "duration": 0.057692250000000556,
          "durationTicks": 48,
          "midi": 42,
          "name": "F#2",
          "ticks": 11520,
          "time": 13.846139999999998,
          "velocity": 0.7874015748031497
        },
        {
          "duration": 0.057692250000000556,
          "durationTicks": 48,
          "midi": 36,
          "name": "C2",
          "ticks": 11520,
          "time": 13.846139999999998,
          "velocity": 0.7874015748031497
        },
        {
          "duration": 0.05769224999999878,
          "durationTicks": 48,
          "midi": 54,
          "name": "F#3",
          "ticks": 11904,
          "time": 14.307678,
          "velocity": 0.7874015748031497
        },
        {
          "duration": 0.05769224999999878,
          "durationTicks": 48,
          "midi": 42,
          "name": "F#2",
          "ticks": 11904,
          "time": 14.307678,
          "velocity": 0.7874015748031497
        },
        {
          "duration": 0.05769224999999878,
          "durationTicks": 48,
          "midi": 38,
          "name": "D2",
          "ticks": 11904,
          "time": 14.307678,
          "velocity": 0.7874015748031497
        },
        {
          "duration": 0.057692250000000556,
          "durationTicks": 48,
          "midi": 54,
          "name": "F#3",
          "ticks": 12288,
          "time": 14.769215999999998,
          "velocity": 0.7874015748031497
        },
        {
          "duration": 0.057692250000000556,
          "durationTicks": 48,
          "midi": 42,
          "name": "F#2",
          "ticks": 12288,
          "time": 14.769215999999998,
          "velocity": 0.7874015748031497
        },
        {
          "duration": 0.057692250000000556,
          "durationTicks": 48,
          "midi": 36,
          "name": "C2",
          "ticks": 12288,
          "time": 14.769215999999998,
          "velocity": 0.7874015748031497
        },
        {
          "duration": 0.057692250000000556,
          "durationTicks": 48,
          "midi": 54,
          "name": "F#3",
          "ticks": 12672,
          "time": 15.230753999999997,
          "velocity": 0.7874015748031497
        },
        {
          "duration": 0.057692250000000556,
          "durationTicks": 48,
          "midi": 42,
          "name": "F#2",
          "ticks": 12672,
          "time": 15.230753999999997,
          "velocity": 0.7874015748031497
        },
        {
          "duration": 0.057692250000000556,
          "durationTicks": 48,
          "midi": 38,
          "name": "D2",
          "ticks": 12672,
          "time": 15.230753999999997,
          "velocity": 0.7874015748031497
        },
        {
          "duration": 0.057692250000000556,
          "durationTicks": 48,
          "midi": 54,
          "name": "F#3",
          "ticks": 13056,
          "time": 15.692291999999998,
          "velocity": 0.7874015748031497
        },
        {
          "duration": 0.057692250000000556,
          "durationTicks": 48,
          "midi": 42,
          "name": "F#2",
          "ticks": 13056,
          "time": 15.692291999999998,
          "velocity": 0.7874015748031497
        },
        {
          "duration": 0.057692250000000556,
          "durationTicks": 48,
          "midi": 36,
          "name": "C2",
          "ticks": 13056,
          "time": 15.692291999999998,
          "velocity": 0.7874015748031497
        },
        {
          "duration": 0.05769224999999878,
          "durationTicks": 48,
          "midi": 54,
          "name": "F#3",
          "ticks": 13440,
          "time": 16.15383,
          "velocity": 0.7874015748031497
        },
        {
          "duration": 0.05769224999999878,
          "durationTicks": 48,
          "midi": 42,
          "name": "F#2",
          "ticks": 13440,
          "time": 16.15383,
          "velocity": 0.7874015748031497
        },
        {
          "duration": 0.05769224999999878,
          "durationTicks": 48,
          "midi": 38,
          "name": "D2",
          "ticks": 13440,
          "time": 16.15383,
          "velocity": 0.7874015748031497
        },
        {
          "duration": 0.05769225000000233,
          "durationTicks": 48,
          "midi": 54,
          "name": "F#3",
          "ticks": 13824,
          "time": 16.615367999999997,
          "velocity": 0.7874015748031497
        },
        {
          "duration": 0.05769225000000233,
          "durationTicks": 48,
          "midi": 42,
          "name": "F#2",
          "ticks": 13824,
          "time": 16.615367999999997,
          "velocity": 0.7874015748031497
        },
        {
          "duration": 0.05769225000000233,
          "durationTicks": 48,
          "midi": 36,
          "name": "C2",
          "ticks": 13824,
          "time": 16.615367999999997,
          "velocity": 0.7874015748031497
        },
        {
          "duration": 0.05769225000000233,
          "durationTicks": 48,
          "midi": 54,
          "name": "F#3",
          "ticks": 14208,
          "time": 17.076905999999997,
          "velocity": 0.7874015748031497
        },
        {
          "duration": 0.05769225000000233,
          "durationTicks": 48,
          "midi": 42,
          "name": "F#2",
          "ticks": 14208,
          "time": 17.076905999999997,
          "velocity": 0.7874015748031497
        },
        {
          "duration": 0.05769225000000233,
          "durationTicks": 48,
          "midi": 38,
          "name": "D2",
          "ticks": 14208,
          "time": 17.076905999999997,
          "velocity": 0.7874015748031497
        },
        {
          "duration": 0.05769224999999878,
          "durationTicks": 48,
          "midi": 54,
          "name": "F#3",
          "ticks": 14592,
          "time": 17.538444,
          "velocity": 0.7874015748031497
        },
        {
          "duration": 0.05769224999999878,
          "durationTicks": 48,
          "midi": 42,
          "name": "F#2",
          "ticks": 14592,
          "time": 17.538444,
          "velocity": 0.7874015748031497
        },
        {
          "duration": 0.05769224999999878,
          "durationTicks": 48,
          "midi": 36,
          "name": "C2",
          "ticks": 14592,
          "time": 17.538444,
          "velocity": 0.7874015748031497
        },
        {
          "duration": 0.05769224999999878,
          "durationTicks": 48,
          "midi": 54,
          "name": "F#3",
          "ticks": 14976,
          "time": 17.999982,
          "velocity": 0.7874015748031497
        },
        {
          "duration": 0.05769224999999878,
          "durationTicks": 48,
          "midi": 42,
          "name": "F#2",
          "ticks": 14976,
          "time": 17.999982,
          "velocity": 0.7874015748031497
        },
        {
          "duration": 0.05769224999999878,
          "durationTicks": 48,
          "midi": 38,
          "name": "D2",
          "ticks": 14976,
          "time": 17.999982,
          "velocity": 0.7874015748031497
        },
        {
          "duration": 0.05769225000000233,
          "durationTicks": 48,
          "midi": 54,
          "name": "F#3",
          "ticks": 15360,
          "time": 18.461519999999997,
          "velocity": 0.7874015748031497
        },
        {
          "duration": 0.05769225000000233,
          "durationTicks": 48,
          "midi": 42,
          "name": "F#2",
          "ticks": 15360,
          "time": 18.461519999999997,
          "velocity": 0.7874015748031497
        },
        {
          "duration": 0.05769225000000233,
          "durationTicks": 48,
          "midi": 36,
          "name": "C2",
          "ticks": 15360,
          "time": 18.461519999999997,
          "velocity": 0.7874015748031497
        },
        {
          "duration": 0.05769224999999878,
          "durationTicks": 48,
          "midi": 54,
          "name": "F#3",
          "ticks": 15744,
          "time": 18.923057999999997,
          "velocity": 0.7874015748031497
        },
        {
          "duration": 0.05769224999999878,
          "durationTicks": 48,
          "midi": 42,
          "name": "F#2",
          "ticks": 15744,
          "time": 18.923057999999997,
          "velocity": 0.7874015748031497
        },
        {
          "duration": 0.05769224999999878,
          "durationTicks": 48,
          "midi": 38,
          "name": "D2",
          "ticks": 15744,
          "time": 18.923057999999997,
          "velocity": 0.7874015748031497
        },
        {
          "duration": 0.05769224999999878,
          "durationTicks": 48,
          "midi": 54,
          "name": "F#3",
          "ticks": 16128,
          "time": 19.384596,
          "velocity": 0.7874015748031497
        },
        {
          "duration": 0.05769224999999878,
          "durationTicks": 48,
          "midi": 42,
          "name": "F#2",
          "ticks": 16128,
          "time": 19.384596,
          "velocity": 0.7874015748031497
        },
        {
          "duration": 0.05769224999999878,
          "durationTicks": 48,
          "midi": 36,
          "name": "C2",
          "ticks": 16128,
          "time": 19.384596,
          "velocity": 0.7874015748031497
        },
        {
          "duration": 0.05769224999999878,
          "durationTicks": 48,
          "midi": 54,
          "name": "F#3",
          "ticks": 16512,
          "time": 19.846134,
          "velocity": 0.7874015748031497
        },
        {
          "duration": 0.05769224999999878,
          "durationTicks": 48,
          "midi": 42,
          "name": "F#2",
          "ticks": 16512,
          "time": 19.846134,
          "velocity": 0.7874015748031497
        },
        {
          "duration": 0.05769224999999878,
          "durationTicks": 48,
          "midi": 38,
          "name": "D2",
          "ticks": 16512,
          "time": 19.846134,
          "velocity": 0.7874015748031497
        },
        {
          "duration": 0.05769225000000233,
          "durationTicks": 48,
          "midi": 54,
          "name": "F#3",
          "ticks": 16896,
          "time": 20.307671999999997,
          "velocity": 0.7874015748031497
        },
        {
          "duration": 0.05769225000000233,
          "durationTicks": 48,
          "midi": 42,
          "name": "F#2",
          "ticks": 16896,
          "time": 20.307671999999997,
          "velocity": 0.7874015748031497
        },
        {
          "duration": 0.05769225000000233,
          "durationTicks": 48,
          "midi": 36,
          "name": "C2",
          "ticks": 16896,
          "time": 20.307671999999997,
          "velocity": 0.7874015748031497
        },
        {
          "duration": 0.05769224999999878,
          "durationTicks": 48,
          "midi": 54,
          "name": "F#3",
          "ticks": 17280,
          "time": 20.769209999999998,
          "velocity": 0.7874015748031497
        },
        {
          "duration": 0.05769224999999878,
          "durationTicks": 48,
          "midi": 42,
          "name": "F#2",
          "ticks": 17280,
          "time": 20.769209999999998,
          "velocity": 0.7874015748031497
        },
        {
          "duration": 0.05769224999999878,
          "durationTicks": 48,
          "midi": 38,
          "name": "D2",
          "ticks": 17280,
          "time": 20.769209999999998,
          "velocity": 0.7874015748031497
        },
        {
          "duration": 0.05769224999999878,
          "durationTicks": 48,
          "midi": 54,
          "name": "F#3",
          "ticks": 17664,
          "time": 21.230748,
          "velocity": 0.7874015748031497
        },
        {
          "duration": 0.05769224999999878,
          "durationTicks": 48,
          "midi": 42,
          "name": "F#2",
          "ticks": 17664,
          "time": 21.230748,
          "velocity": 0.7874015748031497
        },
        {
          "duration": 0.05769224999999878,
          "durationTicks": 48,
          "midi": 36,
          "name": "C2",
          "ticks": 17664,
          "time": 21.230748,
          "velocity": 0.7874015748031497
        },
        {
          "duration": 0.05769224999999878,
          "durationTicks": 48,
          "midi": 54,
          "name": "F#3",
          "ticks": 18048,
          "time": 21.692286,
          "velocity": 0.7874015748031497
        },
        {
          "duration": 0.05769224999999878,
          "durationTicks": 48,
          "midi": 42,
          "name": "F#2",
          "ticks": 18048,
          "time": 21.692286,
          "velocity": 0.7874015748031497
        },
        {
          "duration": 0.05769224999999878,
          "durationTicks": 48,
          "midi": 38,
          "name": "D2",
          "ticks": 18048,
          "time": 21.692286,
          "velocity": 0.7874015748031497
        },
        {
          "duration": 0.05769225000000233,
          "durationTicks": 48,
          "midi": 54,
          "name": "F#3",
          "ticks": 18432,
          "time": 22.153823999999997,
          "velocity": 0.7874015748031497
        },
        {
          "duration": 0.05769225000000233,
          "durationTicks": 48,
          "midi": 42,
          "name": "F#2",
          "ticks": 18432,
          "time": 22.153823999999997,
          "velocity": 0.7874015748031497
        },
        {
          "duration": 0.05769225000000233,
          "durationTicks": 48,
          "midi": 36,
          "name": "C2",
          "ticks": 18432,
          "time": 22.153823999999997,
          "velocity": 0.7874015748031497
        },
        {
          "duration": 0.05769224999999878,
          "durationTicks": 48,
          "midi": 54,
          "name": "F#3",
          "ticks": 18816,
          "time": 22.615361999999998,
          "velocity": 0.7874015748031497
        },
        {
          "duration": 0.05769224999999878,
          "durationTicks": 48,
          "midi": 42,
          "name": "F#2",
          "ticks": 18816,
          "time": 22.615361999999998,
          "velocity": 0.7874015748031497
        },
        {
          "duration": 0.05769224999999878,
          "durationTicks": 48,
          "midi": 38,
          "name": "D2",
          "ticks": 18816,
          "time": 22.615361999999998,
          "velocity": 0.7874015748031497
        },
        {
          "duration": 0.05769224999999878,
          "durationTicks": 48,
          "midi": 54,
          "name": "F#3",
          "ticks": 19200,
          "time": 23.0769,
          "velocity": 0.7874015748031497
        },
        {
          "duration": 0.05769224999999878,
          "durationTicks": 48,
          "midi": 42,
          "name": "F#2",
          "ticks": 19200,
          "time": 23.0769,
          "velocity": 0.7874015748031497
        },
        {
          "duration": 0.05769224999999878,
          "durationTicks": 48,
          "midi": 36,
          "name": "C2",
          "ticks": 19200,
          "time": 23.0769,
          "velocity": 0.7874015748031497
        },
        {
          "duration": 0.05769225000000233,
          "durationTicks": 48,
          "midi": 54,
          "name": "F#3",
          "ticks": 19584,
          "time": 23.538437999999996,
          "velocity": 0.7874015748031497
        },
        {
          "duration": 0.05769225000000233,
          "durationTicks": 48,
          "midi": 42,
          "name": "F#2",
          "ticks": 19584,
          "time": 23.538437999999996,
          "velocity": 0.7874015748031497
        },
        {
          "duration": 0.05769225000000233,
          "durationTicks": 48,
          "midi": 38,
          "name": "D2",
          "ticks": 19584,
          "time": 23.538437999999996,
          "velocity": 0.7874015748031497
        },
        {
          "duration": 0.05769225000000233,
          "durationTicks": 48,
          "midi": 54,
          "name": "F#3",
          "ticks": 19968,
          "time": 23.999975999999997,
          "velocity": 0.7874015748031497
        },
        {
          "duration": 0.05769225000000233,
          "durationTicks": 48,
          "midi": 42,
          "name": "F#2",
          "ticks": 19968,
          "time": 23.999975999999997,
          "velocity": 0.7874015748031497
        },
        {
          "duration": 0.05769225000000233,
          "durationTicks": 48,
          "midi": 36,
          "name": "C2",
          "ticks": 19968,
          "time": 23.999975999999997,
          "velocity": 0.7874015748031497
        },
        {
          "duration": 0.05769224999999878,
          "durationTicks": 48,
          "midi": 54,
          "name": "F#3",
          "ticks": 20352,
          "time": 24.461513999999998,
          "velocity": 0.7874015748031497
        },
        {
          "duration": 0.05769224999999878,
          "durationTicks": 48,
          "midi": 42,
          "name": "F#2",
          "ticks": 20352,
          "time": 24.461513999999998,
          "velocity": 0.7874015748031497
        },
        {
          "duration": 0.05769224999999878,
          "durationTicks": 48,
          "midi": 38,
          "name": "D2",
          "ticks": 20352,
          "time": 24.461513999999998,
          "velocity": 0.7874015748031497
        },
        {
          "duration": 0.05769224999999878,
          "durationTicks": 48,
          "midi": 54,
          "name": "F#3",
          "ticks": 20736,
          "time": 24.923052,
          "velocity": 0.7874015748031497
        },
        {
          "duration": 0.05769224999999878,
          "durationTicks": 48,
          "midi": 42,
          "name": "F#2",
          "ticks": 20736,
          "time": 24.923052,
          "velocity": 0.7874015748031497
        },
        {
          "duration": 0.05769224999999878,
          "durationTicks": 48,
          "midi": 36,
          "name": "C2",
          "ticks": 20736,
          "time": 24.923052,
          "velocity": 0.7874015748031497
        },
        {
          "duration": 0.05769225000000233,
          "durationTicks": 48,
          "midi": 54,
          "name": "F#3",
          "ticks": 21120,
          "time": 25.384589999999996,
          "velocity": 0.7874015748031497
        },
        {
          "duration": 0.05769225000000233,
          "durationTicks": 48,
          "midi": 42,
          "name": "F#2",
          "ticks": 21120,
          "time": 25.384589999999996,
          "velocity": 0.7874015748031497
        },
        {
          "duration": 0.05769225000000233,
          "durationTicks": 48,
          "midi": 38,
          "name": "D2",
          "ticks": 21120,
          "time": 25.384589999999996,
          "velocity": 0.7874015748031497
        },
        {
          "duration": 0.05769224999999878,
          "durationTicks": 48,
          "midi": 54,
          "name": "F#3",
          "ticks": 21504,
          "time": 25.846127999999997,
          "velocity": 0.7874015748031497
        },
        {
          "duration": 0.05769224999999878,
          "durationTicks": 48,
          "midi": 42,
          "name": "F#2",
          "ticks": 21504,
          "time": 25.846127999999997,
          "velocity": 0.7874015748031497
        },
        {
          "duration": 0.05769224999999878,
          "durationTicks": 48,
          "midi": 36,
          "name": "C2",
          "ticks": 21504,
          "time": 25.846127999999997,
          "velocity": 0.7874015748031497
        },
        {
          "duration": 0.05769224999999878,
          "durationTicks": 48,
          "midi": 54,
          "name": "F#3",
          "ticks": 21888,
          "time": 26.307665999999998,
          "velocity": 0.7874015748031497
        },
        {
          "duration": 0.05769224999999878,
          "durationTicks": 48,
          "midi": 42,
          "name": "F#2",
          "ticks": 21888,
          "time": 26.307665999999998,
          "velocity": 0.7874015748031497
        },
        {
          "duration": 0.05769224999999878,
          "durationTicks": 48,
          "midi": 38,
          "name": "D2",
          "ticks": 21888,
          "time": 26.307665999999998,
          "velocity": 0.7874015748031497
        },
        {
          "duration": 0.05769224999999878,
          "durationTicks": 48,
          "midi": 54,
          "name": "F#3",
          "ticks": 22272,
          "time": 26.769204,
          "velocity": 0.7874015748031497
        },
        {
          "duration": 0.05769224999999878,
          "durationTicks": 48,
          "midi": 42,
          "name": "F#2",
          "ticks": 22272,
          "time": 26.769204,
          "velocity": 0.7874015748031497
        },
        {
          "duration": 0.05769224999999878,
          "durationTicks": 48,
          "midi": 36,
          "name": "C2",
          "ticks": 22272,
          "time": 26.769204,
          "velocity": 0.7874015748031497
        },
        {
          "duration": 0.05769225000000233,
          "durationTicks": 48,
          "midi": 54,
          "name": "F#3",
          "ticks": 22656,
          "time": 27.230741999999996,
          "velocity": 0.7874015748031497
        },
        {
          "duration": 0.05769225000000233,
          "durationTicks": 48,
          "midi": 42,
          "name": "F#2",
          "ticks": 22656,
          "time": 27.230741999999996,
          "velocity": 0.7874015748031497
        },
        {
          "duration": 0.05769225000000233,
          "durationTicks": 48,
          "midi": 38,
          "name": "D2",
          "ticks": 22656,
          "time": 27.230741999999996,
          "velocity": 0.7874015748031497
        },
        {
          "duration": 0.05769224999999878,
          "durationTicks": 48,
          "midi": 54,
          "name": "F#3",
          "ticks": 23040,
          "time": 27.692279999999997,
          "velocity": 0.7874015748031497
        },
        {
          "duration": 0.05769224999999878,
          "durationTicks": 48,
          "midi": 42,
          "name": "F#2",
          "ticks": 23040,
          "time": 27.692279999999997,
          "velocity": 0.7874015748031497
        },
        {
          "duration": 0.05769224999999878,
          "durationTicks": 48,
          "midi": 36,
          "name": "C2",
          "ticks": 23040,
          "time": 27.692279999999997,
          "velocity": 0.7874015748031497
        },
        {
          "duration": 0.05769224999999878,
          "durationTicks": 48,
          "midi": 54,
          "name": "F#3",
          "ticks": 23424,
          "time": 28.153817999999998,
          "velocity": 0.7874015748031497
        },
        {
          "duration": 0.05769224999999878,
          "durationTicks": 48,
          "midi": 42,
          "name": "F#2",
          "ticks": 23424,
          "time": 28.153817999999998,
          "velocity": 0.7874015748031497
        },
        {
          "duration": 0.05769224999999878,
          "durationTicks": 48,
          "midi": 38,
          "name": "D2",
          "ticks": 23424,
          "time": 28.153817999999998,
          "velocity": 0.7874015748031497
        },
        {
          "duration": 0.05769224999999878,
          "durationTicks": 48,
          "midi": 54,
          "name": "F#3",
          "ticks": 23808,
          "time": 28.615356,
          "velocity": 0.7874015748031497
        },
        {
          "duration": 0.05769224999999878,
          "durationTicks": 48,
          "midi": 42,
          "name": "F#2",
          "ticks": 23808,
          "time": 28.615356,
          "velocity": 0.7874015748031497
        },
        {
          "duration": 0.05769224999999878,
          "durationTicks": 48,
          "midi": 36,
          "name": "C2",
          "ticks": 23808,
          "time": 28.615356,
          "velocity": 0.7874015748031497
        },
        {
          "duration": 0.05769225000000233,
          "durationTicks": 48,
          "midi": 54,
          "name": "F#3",
          "ticks": 24192,
          "time": 29.076893999999996,
          "velocity": 0.7874015748031497
        },
        {
          "duration": 0.05769225000000233,
          "durationTicks": 48,
          "midi": 42,
          "name": "F#2",
          "ticks": 24192,
          "time": 29.076893999999996,
          "velocity": 0.7874015748031497
        },
        {
          "duration": 0.05769225000000233,
          "durationTicks": 48,
          "midi": 38,
          "name": "D2",
          "ticks": 24192,
          "time": 29.076893999999996,
          "velocity": 0.7874015748031497
        },
        {
          "duration": 0.05769224999999878,
          "durationTicks": 48,
          "midi": 54,
          "name": "F#3",
          "ticks": 24576,
          "time": 29.538431999999997,
          "velocity": 0.7874015748031497
        },
        {
          "duration": 0.05769224999999878,
          "durationTicks": 48,
          "midi": 42,
          "name": "F#2",
          "ticks": 24576,
          "time": 29.538431999999997,
          "velocity": 0.7874015748031497
        },
        {
          "duration": 0.05769224999999878,
          "durationTicks": 48,
          "midi": 36,
          "name": "C2",
          "ticks": 24576,
          "time": 29.538431999999997,
          "velocity": 0.7874015748031497
        },
        {
          "duration": 0.05769224999999878,
          "durationTicks": 48,
          "midi": 54,
          "name": "F#3",
          "ticks": 24960,
          "time": 29.999969999999998,
          "velocity": 0.7874015748031497
        },
        {
          "duration": 0.05769224999999878,
          "durationTicks": 48,
          "midi": 42,
          "name": "F#2",
          "ticks": 24960,
          "time": 29.999969999999998,
          "velocity": 0.7874015748031497
        },
        {
          "duration": 0.05769224999999878,
          "durationTicks": 48,
          "midi": 38,
          "name": "D2",
          "ticks": 24960,
          "time": 29.999969999999998,
          "velocity": 0.7874015748031497
        },
        {
          "duration": 0.05769225000000233,
          "durationTicks": 48,
          "midi": 54,
          "name": "F#3",
          "ticks": 25344,
          "time": 30.461507999999995,
          "velocity": 0.7874015748031497
        },
        {
          "duration": 0.05769225000000233,
          "durationTicks": 48,
          "midi": 42,
          "name": "F#2",
          "ticks": 25344,
          "time": 30.461507999999995,
          "velocity": 0.7874015748031497
        },
        {
          "duration": 0.05769225000000233,
          "durationTicks": 48,
          "midi": 36,
          "name": "C2",
          "ticks": 25344,
          "time": 30.461507999999995,
          "velocity": 0.7874015748031497
        },
        {
          "duration": 0.05769225000000233,
          "durationTicks": 48,
          "midi": 54,
          "name": "F#3",
          "ticks": 25728,
          "time": 30.923045999999996,
          "velocity": 0.7874015748031497
        },
        {
          "duration": 0.05769225000000233,
          "durationTicks": 48,
          "midi": 42,
          "name": "F#2",
          "ticks": 25728,
          "time": 30.923045999999996,
          "velocity": 0.7874015748031497
        },
        {
          "duration": 0.05769225000000233,
          "durationTicks": 48,
          "midi": 38,
          "name": "D2",
          "ticks": 25728,
          "time": 30.923045999999996,
          "velocity": 0.7874015748031497
        },
        {
          "duration": 0.05769224999999878,
          "durationTicks": 48,
          "midi": 54,
          "name": "F#3",
          "ticks": 26112,
          "time": 31.384583999999997,
          "velocity": 0.7874015748031497
        },
        {
          "duration": 0.05769224999999878,
          "durationTicks": 48,
          "midi": 42,
          "name": "F#2",
          "ticks": 26112,
          "time": 31.384583999999997,
          "velocity": 0.7874015748031497
        },
        {
          "duration": 0.05769224999999878,
          "durationTicks": 48,
          "midi": 36,
          "name": "C2",
          "ticks": 26112,
          "time": 31.384583999999997,
          "velocity": 0.7874015748031497
        },
        {
          "duration": 0.05769224999999878,
          "durationTicks": 48,
          "midi": 54,
          "name": "F#3",
          "ticks": 26496,
          "time": 31.846121999999998,
          "velocity": 0.7874015748031497
        },
        {
          "duration": 0.05769224999999878,
          "durationTicks": 48,
          "midi": 42,
          "name": "F#2",
          "ticks": 26496,
          "time": 31.846121999999998,
          "velocity": 0.7874015748031497
        },
        {
          "duration": 0.05769224999999878,
          "durationTicks": 48,
          "midi": 38,
          "name": "D2",
          "ticks": 26496,
          "time": 31.846121999999998,
          "velocity": 0.7874015748031497
        },
        {
          "duration": 0.057692249999995227,
          "durationTicks": 48,
          "midi": 54,
          "name": "F#3",
          "ticks": 26880,
          "time": 32.30766,
          "velocity": 0.7874015748031497
        },
        {
          "duration": 0.057692249999995227,
          "durationTicks": 48,
          "midi": 42,
          "name": "F#2",
          "ticks": 26880,
          "time": 32.30766,
          "velocity": 0.7874015748031497
        },
        {
          "duration": 0.057692249999995227,
          "durationTicks": 48,
          "midi": 36,
          "name": "C2",
          "ticks": 26880,
          "time": 32.30766,
          "velocity": 0.7874015748031497
        },
        {
          "duration": 0.05769225000000233,
          "durationTicks": 48,
          "midi": 54,
          "name": "F#3",
          "ticks": 27264,
          "time": 32.769197999999996,
          "velocity": 0.7874015748031497
        },
        {
          "duration": 0.05769225000000233,
          "durationTicks": 48,
          "midi": 42,
          "name": "F#2",
          "ticks": 27264,
          "time": 32.769197999999996,
          "velocity": 0.7874015748031497
        },
        {
          "duration": 0.05769225000000233,
          "durationTicks": 48,
          "midi": 38,
          "name": "D2",
          "ticks": 27264,
          "time": 32.769197999999996,
          "velocity": 0.7874015748031497
        },
        {
          "duration": 0.05769225000000233,
          "durationTicks": 48,
          "midi": 54,
          "name": "F#3",
          "ticks": 27648,
          "time": 33.23073599999999,
          "velocity": 0.7874015748031497
        },
        {
          "duration": 0.05769225000000233,
          "durationTicks": 48,
          "midi": 42,
          "name": "F#2",
          "ticks": 27648,
          "time": 33.23073599999999,
          "velocity": 0.7874015748031497
        },
        {
          "duration": 0.05769225000000233,
          "durationTicks": 48,
          "midi": 36,
          "name": "C2",
          "ticks": 27648,
          "time": 33.23073599999999,
          "velocity": 0.7874015748031497
        },
        {
          "duration": 0.057692249999995227,
          "durationTicks": 48,
          "midi": 54,
          "name": "F#3",
          "ticks": 28032,
          "time": 33.692274,
          "velocity": 0.7874015748031497
        },
        {
          "duration": 0.057692249999995227,
          "durationTicks": 48,
          "midi": 42,
          "name": "F#2",
          "ticks": 28032,
          "time": 33.692274,
          "velocity": 0.7874015748031497
        },
        {
          "duration": 0.057692249999995227,
          "durationTicks": 48,
          "midi": 38,
          "name": "D2",
          "ticks": 28032,
          "time": 33.692274,
          "velocity": 0.7874015748031497
        },
        {
          "duration": 0.05769225000000233,
          "durationTicks": 48,
          "midi": 54,
          "name": "F#3",
          "ticks": 28416,
          "time": 34.153811999999995,
          "velocity": 0.7874015748031497
        },
        {
          "duration": 0.05769225000000233,
          "durationTicks": 48,
          "midi": 42,
          "name": "F#2",
          "ticks": 28416,
          "time": 34.153811999999995,
          "velocity": 0.7874015748031497
        },
        {
          "duration": 0.05769225000000233,
          "durationTicks": 48,
          "midi": 36,
          "name": "C2",
          "ticks": 28416,
          "time": 34.153811999999995,
          "velocity": 0.7874015748031497
        },
        {
          "duration": 0.057692249999995227,
          "durationTicks": 48,
          "midi": 54,
          "name": "F#3",
          "ticks": 28800,
          "time": 34.61535,
          "velocity": 0.7874015748031497
        },
        {
          "duration": 0.057692249999995227,
          "durationTicks": 48,
          "midi": 42,
          "name": "F#2",
          "ticks": 28800,
          "time": 34.61535,
          "velocity": 0.7874015748031497
        },
        {
          "duration": 0.057692249999995227,
          "durationTicks": 48,
          "midi": 38,
          "name": "D2",
          "ticks": 28800,
          "time": 34.61535,
          "velocity": 0.7874015748031497
        },
        {
          "duration": 0.05769225000000233,
          "durationTicks": 48,
          "midi": 54,
          "name": "F#3",
          "ticks": 29184,
          "time": 35.076888,
          "velocity": 0.7874015748031497
        },
        {
          "duration": 0.05769225000000233,
          "durationTicks": 48,
          "midi": 42,
          "name": "F#2",
          "ticks": 29184,
          "time": 35.076888,
          "velocity": 0.7874015748031497
        },
        {
          "duration": 0.05769225000000233,
          "durationTicks": 48,
          "midi": 36,
          "name": "C2",
          "ticks": 29184,
          "time": 35.076888,
          "velocity": 0.7874015748031497
        },
        {
          "duration": 0.05769225000000233,
          "durationTicks": 48,
          "midi": 54,
          "name": "F#3",
          "ticks": 29568,
          "time": 35.538425999999994,
          "velocity": 0.7874015748031497
        },
        {
          "duration": 0.05769225000000233,
          "durationTicks": 48,
          "midi": 42,
          "name": "F#2",
          "ticks": 29568,
          "time": 35.538425999999994,
          "velocity": 0.7874015748031497
        },
        {
          "duration": 0.05769225000000233,
          "durationTicks": 48,
          "midi": 38,
          "name": "D2",
          "ticks": 29568,
          "time": 35.538425999999994,
          "velocity": 0.7874015748031497
        },
        {
          "duration": 0.057692249999995227,
          "durationTicks": 48,
          "midi": 54,
          "name": "F#3",
          "ticks": 29952,
          "time": 35.999964,
          "velocity": 0.7874015748031497
        },
        {
          "duration": 0.057692249999995227,
          "durationTicks": 48,
          "midi": 42,
          "name": "F#2",
          "ticks": 29952,
          "time": 35.999964,
          "velocity": 0.7874015748031497
        },
        {
          "duration": 0.057692249999995227,
          "durationTicks": 48,
          "midi": 36,
          "name": "C2",
          "ticks": 29952,
          "time": 35.999964,
          "velocity": 0.7874015748031497
        },
        {
          "duration": 0.05769225000000233,
          "durationTicks": 48,
          "midi": 54,
          "name": "F#3",
          "ticks": 30336,
          "time": 36.461501999999996,
          "velocity": 0.7874015748031497
        },
        {
          "duration": 0.05769225000000233,
          "durationTicks": 48,
          "midi": 42,
          "name": "F#2",
          "ticks": 30336,
          "time": 36.461501999999996,
          "velocity": 0.7874015748031497
        },
        {
          "duration": 0.05769225000000233,
          "durationTicks": 48,
          "midi": 38,
          "name": "D2",
          "ticks": 30336,
          "time": 36.461501999999996,
          "velocity": 0.7874015748031497
        },
        {
          "duration": 0.05769225000000233,
          "durationTicks": 48,
          "midi": 54,
          "name": "F#3",
          "ticks": 30720,
          "time": 36.92303999999999,
          "velocity": 0.7874015748031497
        },
        {
          "duration": 0.05769225000000233,
          "durationTicks": 48,
          "midi": 42,
          "name": "F#2",
          "ticks": 30720,
          "time": 36.92303999999999,
          "velocity": 0.7874015748031497
        },
        {
          "duration": 0.05769225000000233,
          "durationTicks": 48,
          "midi": 36,
          "name": "C2",
          "ticks": 30720,
          "time": 36.92303999999999,
          "velocity": 0.7874015748031497
        },
        {
          "duration": 0.057692249999995227,
          "durationTicks": 48,
          "midi": 54,
          "name": "F#3",
          "ticks": 31104,
          "time": 37.384578,
          "velocity": 0.7874015748031497
        },
        {
          "duration": 0.057692249999995227,
          "durationTicks": 48,
          "midi": 42,
          "name": "F#2",
          "ticks": 31104,
          "time": 37.384578,
          "velocity": 0.7874015748031497
        },
        {
          "duration": 0.057692249999995227,
          "durationTicks": 48,
          "midi": 38,
          "name": "D2",
          "ticks": 31104,
          "time": 37.384578,
          "velocity": 0.7874015748031497
        },
        {
          "duration": 0.05769225000000233,
          "durationTicks": 48,
          "midi": 54,
          "name": "F#3",
          "ticks": 31488,
          "time": 37.846115999999995,
          "velocity": 0.7874015748031497
        },
        {
          "duration": 0.05769225000000233,
          "durationTicks": 48,
          "midi": 42,
          "name": "F#2",
          "ticks": 31488,
          "time": 37.846115999999995,
          "velocity": 0.7874015748031497
        },
        {
          "duration": 0.05769225000000233,
          "durationTicks": 48,
          "midi": 36,
          "name": "C2",
          "ticks": 31488,
          "time": 37.846115999999995,
          "velocity": 0.7874015748031497
        },
        {
          "duration": 0.05769225000000233,
          "durationTicks": 48,
          "midi": 54,
          "name": "F#3",
          "ticks": 31872,
          "time": 38.30765399999999,
          "velocity": 0.7874015748031497
        },
        {
          "duration": 0.05769225000000233,
          "durationTicks": 48,
          "midi": 42,
          "name": "F#2",
          "ticks": 31872,
          "time": 38.30765399999999,
          "velocity": 0.7874015748031497
        },
        {
          "duration": 0.05769225000000233,
          "durationTicks": 48,
          "midi": 38,
          "name": "D2",
          "ticks": 31872,
          "time": 38.30765399999999,
          "velocity": 0.7874015748031497
        },
        {
          "duration": 0.05769225000000233,
          "durationTicks": 48,
          "midi": 70,
          "name": "A#4",
          "ticks": 32256,
          "time": 38.769192,
          "velocity": 0.7874015748031497
        },
        {
          "duration": 0.05769225000000233,
          "durationTicks": 48,
          "midi": 54,
          "name": "F#3",
          "ticks": 32256,
          "time": 38.769192,
          "velocity": 0.7874015748031497
        },
        {
          "duration": 0.05769225000000233,
          "durationTicks": 48,
          "midi": 42,
          "name": "F#2",
          "ticks": 32256,
          "time": 38.769192,
          "velocity": 0.7874015748031497
        },
        {
          "duration": 0.05769225000000233,
          "durationTicks": 48,
          "midi": 36,
          "name": "C2",
          "ticks": 32256,
          "time": 38.769192,
          "velocity": 0.7874015748031497
        },
        {
          "duration": 0.05769225000000233,
          "durationTicks": 48,
          "midi": 70,
          "name": "A#4",
          "ticks": 32320,
          "time": 38.846115,
          "velocity": 0.7874015748031497
        },
        {
          "duration": 0.05769225000000233,
          "durationTicks": 48,
          "midi": 70,
          "name": "A#4",
          "ticks": 32384,
          "time": 38.92303799999999,
          "velocity": 0.7874015748031497
        },
        {
          "duration": 0.057692249999995227,
          "durationTicks": 48,
          "midi": 70,
          "name": "A#4",
          "ticks": 32448,
          "time": 38.999961,
          "velocity": 0.7874015748031497
        },
        {
          "duration": 0.057692249999995227,
          "durationTicks": 48,
          "midi": 70,
          "name": "A#4",
          "ticks": 32512,
          "time": 39.076884,
          "velocity": 0.7874015748031497
        },
        {
          "duration": 0.05769225000000233,
          "durationTicks": 48,
          "midi": 70,
          "name": "A#4",
          "ticks": 32576,
          "time": 39.15380699999999,
          "velocity": 0.7874015748031497
        },
        {
          "duration": 0.05769225000000233,
          "durationTicks": 48,
          "midi": 70,
          "name": "A#4",
          "ticks": 32640,
          "time": 39.230729999999994,
          "velocity": 0.7874015748031497
        },
        {
          "duration": 0.05769225000000233,
          "durationTicks": 48,
          "midi": 54,
          "name": "F#3",
          "ticks": 32640,
          "time": 39.230729999999994,
          "velocity": 0.7874015748031497
        },
        {
          "duration": 0.05769225000000233,
          "durationTicks": 48,
          "midi": 42,
          "name": "F#2",
          "ticks": 32640,
          "time": 39.230729999999994,
          "velocity": 0.7874015748031497
        },
        {
          "duration": 0.05769225000000233,
          "durationTicks": 48,
          "midi": 38,
          "name": "D2",
          "ticks": 32640,
          "time": 39.230729999999994,
          "velocity": 0.7874015748031497
        },
        {
          "duration": 0.05769225000000233,
          "durationTicks": 48,
          "midi": 70,
          "name": "A#4",
          "ticks": 32704,
          "time": 39.307652999999995,
          "velocity": 0.7874015748031497
        },
        {
          "duration": 0.057692249999995227,
          "durationTicks": 48,
          "midi": 70,
          "name": "A#4",
          "ticks": 32768,
          "time": 39.384575999999996,
          "velocity": 0.7874015748031497
        },
        {
          "duration": 0.05769225000000233,
          "durationTicks": 48,
          "midi": 70,
          "name": "A#4",
          "ticks": 32832,
          "time": 39.461498999999996,
          "velocity": 0.7874015748031497
        },
        {
          "duration": 0.05769225000000233,
          "durationTicks": 48,
          "midi": 70,
          "name": "A#4",
          "ticks": 32896,
          "time": 39.538422,
          "velocity": 0.7874015748031497
        },
        {
          "duration": 0.05769225000000233,
          "durationTicks": 48,
          "midi": 70,
          "name": "A#4",
          "ticks": 32960,
          "time": 39.61534499999999,
          "velocity": 0.7874015748031497
        },
        {
          "duration": 0.057692249999995227,
          "durationTicks": 48,
          "midi": 70,
          "name": "A#4",
          "ticks": 33024,
          "time": 39.692268,
          "velocity": 0.7874015748031497
        },
        {
          "duration": 0.057692249999995227,
          "durationTicks": 48,
          "midi": 54,
          "name": "F#3",
          "ticks": 33024,
          "time": 39.692268,
          "velocity": 0.7874015748031497
        },
        {
          "duration": 0.057692249999995227,
          "durationTicks": 48,
          "midi": 42,
          "name": "F#2",
          "ticks": 33024,
          "time": 39.692268,
          "velocity": 0.7874015748031497
        },
        {
          "duration": 0.057692249999995227,
          "durationTicks": 48,
          "midi": 36,
          "name": "C2",
          "ticks": 33024,
          "time": 39.692268,
          "velocity": 0.7874015748031497
        },
        {
          "duration": 0.057692249999995227,
          "durationTicks": 48,
          "midi": 70,
          "name": "A#4",
          "ticks": 33088,
          "time": 39.769191,
          "velocity": 0.7874015748031497
        },
        {
          "duration": 0.05769225000000233,
          "durationTicks": 48,
          "midi": 70,
          "name": "A#4",
          "ticks": 33152,
          "time": 39.84611399999999,
          "velocity": 0.7874015748031497
        },
        {
          "duration": 0.05769225000000233,
          "durationTicks": 48,
          "midi": 70,
          "name": "A#4",
          "ticks": 33216,
          "time": 39.923036999999994,
          "velocity": 0.7874015748031497
        },
        {
          "duration": 0.05769225000000233,
          "durationTicks": 48,
          "midi": 70,
          "name": "A#4",
          "ticks": 33280,
          "time": 39.999959999999994,
          "velocity": 0.7874015748031497
        },
        {
          "duration": 0.057692249999995227,
          "durationTicks": 48,
          "midi": 70,
          "name": "A#4",
          "ticks": 33344,
          "time": 40.076882999999995,
          "velocity": 0.7874015748031497
        },
        {
          "duration": 0.05769225000000233,
          "durationTicks": 48,
          "midi": 54,
          "name": "F#3",
          "ticks": 33408,
          "time": 40.153805999999996,
          "velocity": 0.7874015748031497
        },
        {
          "duration": 0.05769225000000233,
          "durationTicks": 48,
          "midi": 42,
          "name": "F#2",
          "ticks": 33408,
          "time": 40.153805999999996,
          "velocity": 0.7874015748031497
        },
        {
          "duration": 0.05769225000000233,
          "durationTicks": 48,
          "midi": 38,
          "name": "D2",
          "ticks": 33408,
          "time": 40.153805999999996,
          "velocity": 0.7874015748031497
        },
        {
          "duration": 0.05769225000000233,
          "durationTicks": 48,
          "midi": 54,
          "name": "F#3",
          "ticks": 33792,
          "time": 40.61534399999999,
          "velocity": 0.7874015748031497
        },
        {
          "duration": 0.05769225000000233,
          "durationTicks": 48,
          "midi": 42,
          "name": "F#2",
          "ticks": 33792,
          "time": 40.61534399999999,
          "velocity": 0.7874015748031497
        },
        {
          "duration": 0.05769225000000233,
          "durationTicks": 48,
          "midi": 36,
          "name": "C2",
          "ticks": 33792,
          "time": 40.61534399999999,
          "velocity": 0.7874015748031497
        },
        {
          "duration": 0.057692249999995227,
          "durationTicks": 48,
          "midi": 54,
          "name": "F#3",
          "ticks": 34176,
          "time": 41.076882,
          "velocity": 0.7874015748031497
        },
        {
          "duration": 0.057692249999995227,
          "durationTicks": 48,
          "midi": 42,
          "name": "F#2",
          "ticks": 34176,
          "time": 41.076882,
          "velocity": 0.7874015748031497
        },
        {
          "duration": 0.057692249999995227,
          "durationTicks": 48,
          "midi": 38,
          "name": "D2",
          "ticks": 34176,
          "time": 41.076882,
          "velocity": 0.7874015748031497
        },
        {
          "duration": 0.05769225000000233,
          "durationTicks": 48,
          "midi": 54,
          "name": "F#3",
          "ticks": 34560,
          "time": 41.538419999999995,
          "velocity": 0.7874015748031497
        },
        {
          "duration": 0.05769225000000233,
          "durationTicks": 48,
          "midi": 42,
          "name": "F#2",
          "ticks": 34560,
          "time": 41.538419999999995,
          "velocity": 0.7874015748031497
        },
        {
          "duration": 0.05769225000000233,
          "durationTicks": 48,
          "midi": 36,
          "name": "C2",
          "ticks": 34560,
          "time": 41.538419999999995,
          "velocity": 0.7874015748031497
        },
        {
          "duration": 0.05769225000000233,
          "durationTicks": 48,
          "midi": 54,
          "name": "F#3",
          "ticks": 34944,
          "time": 41.99995799999999,
          "velocity": 0.7874015748031497
        },
        {
          "duration": 0.05769225000000233,
          "durationTicks": 48,
          "midi": 42,
          "name": "F#2",
          "ticks": 34944,
          "time": 41.99995799999999,
          "velocity": 0.7874015748031497
        },
        {
          "duration": 0.05769225000000233,
          "durationTicks": 48,
          "midi": 38,
          "name": "D2",
          "ticks": 34944,
          "time": 41.99995799999999,
          "velocity": 0.7874015748031497
        },
        {
          "duration": 0.057692249999995227,
          "durationTicks": 48,
          "midi": 54,
          "name": "F#3",
          "ticks": 35328,
          "time": 42.461496,
          "velocity": 0.7874015748031497
        },
        {
          "duration": 0.057692249999995227,
          "durationTicks": 48,
          "midi": 42,
          "name": "F#2",
          "ticks": 35328,
          "time": 42.461496,
          "velocity": 0.7874015748031497
        },
        {
          "duration": 0.057692249999995227,
          "durationTicks": 48,
          "midi": 36,
          "name": "C2",
          "ticks": 35328,
          "time": 42.461496,
          "velocity": 0.7874015748031497
        },
        {
          "duration": 0.057692249999995227,
          "durationTicks": 48,
          "midi": 70,
          "name": "A#4",
          "ticks": 35328,
          "time": 42.461496,
          "velocity": 0.7874015748031497
        },
        {
          "duration": 0.05769225000000233,
          "durationTicks": 48,
          "midi": 70,
          "name": "A#4",
          "ticks": 35392,
          "time": 42.538419,
          "velocity": 0.7874015748031497
        },
        {
          "duration": 0.05769225000000233,
          "durationTicks": 48,
          "midi": 70,
          "name": "A#4",
          "ticks": 35456,
          "time": 42.61534199999999,
          "velocity": 0.7874015748031497
        },
        {
          "duration": 0.05769225000000233,
          "durationTicks": 48,
          "midi": 70,
          "name": "A#4",
          "ticks": 35520,
          "time": 42.69226499999999,
          "velocity": 0.7874015748031497
        },
        {
          "duration": 0.057692249999995227,
          "durationTicks": 48,
          "midi": 70,
          "name": "A#4",
          "ticks": 35584,
          "time": 42.769188,
          "velocity": 0.7874015748031497
        },
        {
          "duration": 0.05769225000000233,
          "durationTicks": 48,
          "midi": 70,
          "name": "A#4",
          "ticks": 35648,
          "time": 42.84611099999999,
          "velocity": 0.7874015748031497
        },
        {
          "duration": 0.05769225000000233,
          "durationTicks": 48,
          "midi": 54,
          "name": "F#3",
          "ticks": 35712,
          "time": 42.923033999999994,
          "velocity": 0.7874015748031497
        },
        {
          "duration": 0.05769225000000233,
          "durationTicks": 48,
          "midi": 42,
          "name": "F#2",
          "ticks": 35712,
          "time": 42.923033999999994,
          "velocity": 0.7874015748031497
        },
        {
          "duration": 0.05769225000000233,
          "durationTicks": 48,
          "midi": 38,
          "name": "D2",
          "ticks": 35712,
          "time": 42.923033999999994,
          "velocity": 0.7874015748031497
        },
        {
          "duration": 0.05769225000000233,
          "durationTicks": 48,
          "midi": 70,
          "name": "A#4",
          "ticks": 35712,
          "time": 42.923033999999994,
          "velocity": 0.7874015748031497
        },
        {
          "duration": 0.05769225000000233,
          "durationTicks": 48,
          "midi": 70,
          "name": "A#4",
          "ticks": 35776,
          "time": 42.999956999999995,
          "velocity": 0.7874015748031497
        },
        {
          "duration": 0.057692249999995227,
          "durationTicks": 48,
          "midi": 70,
          "name": "A#4",
          "ticks": 35840,
          "time": 43.076879999999996,
          "velocity": 0.7874015748031497
        },
        {
          "duration": 0.05769225000000233,
          "durationTicks": 48,
          "midi": 70,
          "name": "A#4",
          "ticks": 35904,
          "time": 43.153802999999996,
          "velocity": 0.7874015748031497
        },
        {
          "duration": 0.05769225000000233,
          "durationTicks": 48,
          "midi": 70,
          "name": "A#4",
          "ticks": 35968,
          "time": 43.230726,
          "velocity": 0.7874015748031497
        },
        {
          "duration": 0.05769225000000233,
          "durationTicks": 48,
          "midi": 70,
          "name": "A#4",
          "ticks": 36032,
          "time": 43.30764899999999,
          "velocity": 0.7874015748031497
        },
        {
          "duration": 0.057692249999995227,
          "durationTicks": 48,
          "midi": 54,
          "name": "F#3",
          "ticks": 36096,
          "time": 43.384572,
          "velocity": 0.7874015748031497
        },
        {
          "duration": 0.057692249999995227,
          "durationTicks": 48,
          "midi": 42,
          "name": "F#2",
          "ticks": 36096,
          "time": 43.384572,
          "velocity": 0.7874015748031497
        },
        {
          "duration": 0.057692249999995227,
          "durationTicks": 48,
          "midi": 36,
          "name": "C2",
          "ticks": 36096,
          "time": 43.384572,
          "velocity": 0.7874015748031497
        },
        {
          "duration": 0.057692249999995227,
          "durationTicks": 48,
          "midi": 70,
          "name": "A#4",
          "ticks": 36096,
          "time": 43.384572,
          "velocity": 0.7874015748031497
        },
        {
          "duration": 0.057692249999995227,
          "durationTicks": 48,
          "midi": 70,
          "name": "A#4",
          "ticks": 36160,
          "time": 43.461495,
          "velocity": 0.7874015748031497
        },
        {
          "duration": 0.05769225000000233,
          "durationTicks": 48,
          "midi": 70,
          "name": "A#4",
          "ticks": 36224,
          "time": 43.53841799999999,
          "velocity": 0.7874015748031497
        },
        {
          "duration": 0.05769225000000233,
          "durationTicks": 48,
          "midi": 70,
          "name": "A#4",
          "ticks": 36288,
          "time": 43.615340999999994,
          "velocity": 0.7874015748031497
        },
        {
          "duration": 0.05769225000000233,
          "durationTicks": 48,
          "midi": 70,
          "name": "A#4",
          "ticks": 36352,
          "time": 43.692263999999994,
          "velocity": 0.7874015748031497
        },
        {
          "duration": 0.057692249999995227,
          "durationTicks": 48,
          "midi": 70,
          "name": "A#4",
          "ticks": 36416,
          "time": 43.769186999999995,
          "velocity": 0.7874015748031497
        },
        {
          "duration": 0.05769225000000233,
          "durationTicks": 48,
          "midi": 54,
          "name": "F#3",
          "ticks": 36480,
          "time": 43.846109999999996,
          "velocity": 0.7874015748031497
        },
        {
          "duration": 0.05769225000000233,
          "durationTicks": 48,
          "midi": 42,
          "name": "F#2",
          "ticks": 36480,
          "time": 43.846109999999996,
          "velocity": 0.7874015748031497
        },
        {
          "duration": 0.05769225000000233,
          "durationTicks": 48,
          "midi": 38,
          "name": "D2",
          "ticks": 36480,
          "time": 43.846109999999996,
          "velocity": 0.7874015748031497
        },
        {
          "duration": 0.05769225000000233,
          "durationTicks": 48,
          "midi": 54,
          "name": "F#3",
          "ticks": 36864,
          "time": 44.30764799999999,
          "velocity": 0.7874015748031497
        },
        {
          "duration": 0.05769225000000233,
          "durationTicks": 48,
          "midi": 42,
          "name": "F#2",
          "ticks": 36864,
          "time": 44.30764799999999,
          "velocity": 0.7874015748031497
        },
        {
          "duration": 0.05769225000000233,
          "durationTicks": 48,
          "midi": 36,
          "name": "C2",
          "ticks": 36864,
          "time": 44.30764799999999,
          "velocity": 0.7874015748031497
        },
        {
          "duration": 0.057692249999995227,
          "durationTicks": 48,
          "midi": 54,
          "name": "F#3",
          "ticks": 37248,
          "time": 44.769186,
          "velocity": 0.7874015748031497
        },
        {
          "duration": 0.057692249999995227,
          "durationTicks": 48,
          "midi": 42,
          "name": "F#2",
          "ticks": 37248,
          "time": 44.769186,
          "velocity": 0.7874015748031497
        },
        {
          "duration": 0.057692249999995227,
          "durationTicks": 48,
          "midi": 38,
          "name": "D2",
          "ticks": 37248,
          "time": 44.769186,
          "velocity": 0.7874015748031497
        },
        {
          "duration": 0.05769225000000233,
          "durationTicks": 48,
          "midi": 54,
          "name": "F#3",
          "ticks": 37632,
          "time": 45.230723999999995,
          "velocity": 0.7874015748031497
        },
        {
          "duration": 0.05769225000000233,
          "durationTicks": 48,
          "midi": 42,
          "name": "F#2",
          "ticks": 37632,
          "time": 45.230723999999995,
          "velocity": 0.7874015748031497
        },
        {
          "duration": 0.05769225000000233,
          "durationTicks": 48,
          "midi": 36,
          "name": "C2",
          "ticks": 37632,
          "time": 45.230723999999995,
          "velocity": 0.7874015748031497
        },
        {
          "duration": 0.05769225000000233,
          "durationTicks": 48,
          "midi": 54,
          "name": "F#3",
          "ticks": 38016,
          "time": 45.69226199999999,
          "velocity": 0.7874015748031497
        },
        {
          "duration": 0.05769225000000233,
          "durationTicks": 48,
          "midi": 42,
          "name": "F#2",
          "ticks": 38016,
          "time": 45.69226199999999,
          "velocity": 0.7874015748031497
        },
        {
          "duration": 0.05769225000000233,
          "durationTicks": 48,
          "midi": 38,
          "name": "D2",
          "ticks": 38016,
          "time": 45.69226199999999,
          "velocity": 0.7874015748031497
        },
        {
          "duration": 0.057692249999995227,
          "durationTicks": 48,
          "midi": 54,
          "name": "F#3",
          "ticks": 38400,
          "time": 46.1538,
          "velocity": 0.7874015748031497
        },
        {
          "duration": 0.057692249999995227,
          "durationTicks": 48,
          "midi": 42,
          "name": "F#2",
          "ticks": 38400,
          "time": 46.1538,
          "velocity": 0.7874015748031497
        },
        {
          "duration": 0.057692249999995227,
          "durationTicks": 48,
          "midi": 36,
          "name": "C2",
          "ticks": 38400,
          "time": 46.1538,
          "velocity": 0.7874015748031497
        },
        {
          "duration": 0.057692249999995227,
          "durationTicks": 48,
          "midi": 70,
          "name": "A#4",
          "ticks": 38400,
          "time": 46.1538,
          "velocity": 0.7874015748031497
        },
        {
          "duration": 0.05769225000000233,
          "durationTicks": 48,
          "midi": 70,
          "name": "A#4",
          "ticks": 38464,
          "time": 46.230723,
          "velocity": 0.7874015748031497
        },
        {
          "duration": 0.05769225000000233,
          "durationTicks": 48,
          "midi": 70,
          "name": "A#4",
          "ticks": 38528,
          "time": 46.30764599999999,
          "velocity": 0.7874015748031497
        },
        {
          "duration": 0.05769225000000233,
          "durationTicks": 48,
          "midi": 70,
          "name": "A#4",
          "ticks": 38592,
          "time": 46.38456899999999,
          "velocity": 0.7874015748031497
        },
        {
          "duration": 0.057692249999995227,
          "durationTicks": 48,
          "midi": 70,
          "name": "A#4",
          "ticks": 38656,
          "time": 46.461492,
          "velocity": 0.7874015748031497
        },
        {
          "duration": 0.05769225000000233,
          "durationTicks": 48,
          "midi": 70,
          "name": "A#4",
          "ticks": 38720,
          "time": 46.53841499999999,
          "velocity": 0.7874015748031497
        },
        {
          "duration": 0.05769225000000233,
          "durationTicks": 48,
          "midi": 54,
          "name": "F#3",
          "ticks": 38784,
          "time": 46.615337999999994,
          "velocity": 0.7874015748031497
        },
        {
          "duration": 0.05769225000000233,
          "durationTicks": 48,
          "midi": 42,
          "name": "F#2",
          "ticks": 38784,
          "time": 46.615337999999994,
          "velocity": 0.7874015748031497
        },
        {
          "duration": 0.05769225000000233,
          "durationTicks": 48,
          "midi": 38,
          "name": "D2",
          "ticks": 38784,
          "time": 46.615337999999994,
          "velocity": 0.7874015748031497
        },
        {
          "duration": 0.05769225000000233,
          "durationTicks": 48,
          "midi": 70,
          "name": "A#4",
          "ticks": 38784,
          "time": 46.615337999999994,
          "velocity": 0.7874015748031497
        },
        {
          "duration": 0.05769225000000233,
          "durationTicks": 48,
          "midi": 70,
          "name": "A#4",
          "ticks": 38848,
          "time": 46.692260999999995,
          "velocity": 0.7874015748031497
        },
        {
          "duration": 0.057692249999995227,
          "durationTicks": 48,
          "midi": 70,
          "name": "A#4",
          "ticks": 38912,
          "time": 46.769183999999996,
          "velocity": 0.7874015748031497
        },
        {
          "duration": 0.057692249999995227,
          "durationTicks": 48,
          "midi": 70,
          "name": "A#4",
          "ticks": 38976,
          "time": 46.846106999999996,
          "velocity": 0.7874015748031497
        },
        {
          "duration": 0.05769225000000233,
          "durationTicks": 48,
          "midi": 70,
          "name": "A#4",
          "ticks": 39040,
          "time": 46.92303,
          "velocity": 0.7874015748031497
        },
        {
          "duration": 0.05769225000000233,
          "durationTicks": 48,
          "midi": 70,
          "name": "A#4",
          "ticks": 39104,
          "time": 46.99995299999999,
          "velocity": 0.7874015748031497
        },
        {
          "duration": 0.05769225000000233,
          "durationTicks": 48,
          "midi": 54,
          "name": "F#3",
          "ticks": 39168,
          "time": 47.07687599999999,
          "velocity": 0.7874015748031497
        },
        {
          "duration": 0.05769225000000233,
          "durationTicks": 48,
          "midi": 42,
          "name": "F#2",
          "ticks": 39168,
          "time": 47.07687599999999,
          "velocity": 0.7874015748031497
        },
        {
          "duration": 0.05769225000000233,
          "durationTicks": 48,
          "midi": 36,
          "name": "C2",
          "ticks": 39168,
          "time": 47.07687599999999,
          "velocity": 0.7874015748031497
        },
        {
          "duration": 0.05769225000000233,
          "durationTicks": 48,
          "midi": 70,
          "name": "A#4",
          "ticks": 39168,
          "time": 47.07687599999999,
          "velocity": 0.7874015748031497
        },
        {
          "duration": 0.057692249999995227,
          "durationTicks": 48,
          "midi": 70,
          "name": "A#4",
          "ticks": 39232,
          "time": 47.153799,
          "velocity": 0.7874015748031497
        },
        {
          "duration": 0.05769225000000233,
          "durationTicks": 48,
          "midi": 70,
          "name": "A#4",
          "ticks": 39296,
          "time": 47.23072199999999,
          "velocity": 0.7874015748031497
        },
        {
          "duration": 0.05769225000000233,
          "durationTicks": 48,
          "midi": 70,
          "name": "A#4",
          "ticks": 39360,
          "time": 47.307644999999994,
          "velocity": 0.7874015748031497
        },
        {
          "duration": 0.05769225000000233,
          "durationTicks": 48,
          "midi": 70,
          "name": "A#4",
          "ticks": 39424,
          "time": 47.384567999999994,
          "velocity": 0.7874015748031497
        },
        {
          "duration": 0.057692249999995227,
          "durationTicks": 48,
          "midi": 70,
          "name": "A#4",
          "ticks": 39488,
          "time": 47.461490999999995,
          "velocity": 0.7874015748031497
        },
        {
          "duration": 0.057692249999995227,
          "durationTicks": 48,
          "midi": 54,
          "name": "F#3",
          "ticks": 39552,
          "time": 47.538413999999996,
          "velocity": 0.7874015748031497
        },
        {
          "duration": 0.057692249999995227,
          "durationTicks": 48,
          "midi": 42,
          "name": "F#2",
          "ticks": 39552,
          "time": 47.538413999999996,
          "velocity": 0.7874015748031497
        },
        {
          "duration": 0.057692249999995227,
          "durationTicks": 48,
          "midi": 38,
          "name": "D2",
          "ticks": 39552,
          "time": 47.538413999999996,
          "velocity": 0.7874015748031497
        },
        {
          "duration": 0.05769225000000233,
          "durationTicks": 48,
          "midi": 54,
          "name": "F#3",
          "ticks": 39936,
          "time": 47.99995199999999,
          "velocity": 0.7874015748031497
        },
        {
          "duration": 0.05769225000000233,
          "durationTicks": 48,
          "midi": 42,
          "name": "F#2",
          "ticks": 39936,
          "time": 47.99995199999999,
          "velocity": 0.7874015748031497
        },
        {
          "duration": 0.05769225000000233,
          "durationTicks": 48,
          "midi": 36,
          "name": "C2",
          "ticks": 39936,
          "time": 47.99995199999999,
          "velocity": 0.7874015748031497
        },
        {
          "duration": 0.05769225000000233,
          "durationTicks": 48,
          "midi": 54,
          "name": "F#3",
          "ticks": 40320,
          "time": 48.46148999999999,
          "velocity": 0.7874015748031497
        },
        {
          "duration": 0.05769225000000233,
          "durationTicks": 48,
          "midi": 42,
          "name": "F#2",
          "ticks": 40320,
          "time": 48.46148999999999,
          "velocity": 0.7874015748031497
        },
        {
          "duration": 0.05769225000000233,
          "durationTicks": 48,
          "midi": 38,
          "name": "D2",
          "ticks": 40320,
          "time": 48.46148999999999,
          "velocity": 0.7874015748031497
        },
        {
          "duration": 0.057692249999995227,
          "durationTicks": 48,
          "midi": 54,
          "name": "F#3",
          "ticks": 40704,
          "time": 48.923027999999995,
          "velocity": 0.7874015748031497
        },
        {
          "duration": 0.057692249999995227,
          "durationTicks": 48,
          "midi": 42,
          "name": "F#2",
          "ticks": 40704,
          "time": 48.923027999999995,
          "velocity": 0.7874015748031497
        },
        {
          "duration": 0.057692249999995227,
          "durationTicks": 48,
          "midi": 36,
          "name": "C2",
          "ticks": 40704,
          "time": 48.923027999999995,
          "velocity": 0.7874015748031497
        },
        {
          "duration": 0.05769225000000233,
          "durationTicks": 48,
          "midi": 54,
          "name": "F#3",
          "ticks": 41088,
          "time": 49.38456599999999,
          "velocity": 0.7874015748031497
        },
        {
          "duration": 0.05769225000000233,
          "durationTicks": 48,
          "midi": 42,
          "name": "F#2",
          "ticks": 41088,
          "time": 49.38456599999999,
          "velocity": 0.7874015748031497
        },
        {
          "duration": 0.05769225000000233,
          "durationTicks": 48,
          "midi": 38,
          "name": "D2",
          "ticks": 41088,
          "time": 49.38456599999999,
          "velocity": 0.7874015748031497
        },
        {
          "duration": 0.05769225000000233,
          "durationTicks": 48,
          "midi": 54,
          "name": "F#3",
          "ticks": 41472,
          "time": 49.84610399999999,
          "velocity": 0.7874015748031497
        },
        {
          "duration": 0.05769225000000233,
          "durationTicks": 48,
          "midi": 42,
          "name": "F#2",
          "ticks": 41472,
          "time": 49.84610399999999,
          "velocity": 0.7874015748031497
        },
        {
          "duration": 0.05769225000000233,
          "durationTicks": 48,
          "midi": 36,
          "name": "C2",
          "ticks": 41472,
          "time": 49.84610399999999,
          "velocity": 0.7874015748031497
        },
        {
          "duration": 0.05769225000000233,
          "durationTicks": 48,
          "midi": 70,
          "name": "A#4",
          "ticks": 41472,
          "time": 49.84610399999999,
          "velocity": 0.7874015748031497
        },
        {
          "duration": 0.05769225000000233,
          "durationTicks": 48,
          "midi": 70,
          "name": "A#4",
          "ticks": 41536,
          "time": 49.92302699999999,
          "velocity": 0.7874015748031497
        },
        {
          "duration": 0.05769225000000233,
          "durationTicks": 48,
          "midi": 70,
          "name": "A#4",
          "ticks": 41600,
          "time": 49.99994999999999,
          "velocity": 0.7874015748031497
        },
        {
          "duration": 0.05769225000000233,
          "durationTicks": 48,
          "midi": 70,
          "name": "A#4",
          "ticks": 41664,
          "time": 50.07687299999999,
          "velocity": 0.7874015748031497
        },
        {
          "duration": 0.05769225000000233,
          "durationTicks": 48,
          "midi": 70,
          "name": "A#4",
          "ticks": 41728,
          "time": 50.15379599999999,
          "velocity": 0.7874015748031497
        },
        {
          "duration": 0.05769225000000233,
          "durationTicks": 48,
          "midi": 70,
          "name": "A#4",
          "ticks": 41792,
          "time": 50.23071899999999,
          "velocity": 0.7874015748031497
        },
        {
          "duration": 0.057692249999995227,
          "durationTicks": 48,
          "midi": 54,
          "name": "F#3",
          "ticks": 41856,
          "time": 50.307641999999994,
          "velocity": 0.7874015748031497
        },
        {
          "duration": 0.057692249999995227,
          "durationTicks": 48,
          "midi": 42,
          "name": "F#2",
          "ticks": 41856,
          "time": 50.307641999999994,
          "velocity": 0.7874015748031497
        },
        {
          "duration": 0.057692249999995227,
          "durationTicks": 48,
          "midi": 38,
          "name": "D2",
          "ticks": 41856,
          "time": 50.307641999999994,
          "velocity": 0.7874015748031497
        },
        {
          "duration": 0.057692249999995227,
          "durationTicks": 48,
          "midi": 70,
          "name": "A#4",
          "ticks": 41856,
          "time": 50.307641999999994,
          "velocity": 0.7874015748031497
        },
        {
          "duration": 0.057692249999995227,
          "durationTicks": 48,
          "midi": 70,
          "name": "A#4",
          "ticks": 41920,
          "time": 50.384564999999995,
          "velocity": 0.7874015748031497
        },
        {
          "duration": 0.057692249999995227,
          "durationTicks": 48,
          "midi": 70,
          "name": "A#4",
          "ticks": 41984,
          "time": 50.461487999999996,
          "velocity": 0.7874015748031497
        },
        {
          "duration": 0.057692249999995227,
          "durationTicks": 48,
          "midi": 70,
          "name": "A#4",
          "ticks": 42048,
          "time": 50.538410999999996,
          "velocity": 0.7874015748031497
        },
        {
          "duration": 0.05769225000000233,
          "durationTicks": 48,
          "midi": 70,
          "name": "A#4",
          "ticks": 42112,
          "time": 50.61533399999999,
          "velocity": 0.7874015748031497
        },
        {
          "duration": 0.05769225000000233,
          "durationTicks": 48,
          "midi": 70,
          "name": "A#4",
          "ticks": 42176,
          "time": 50.69225699999999,
          "velocity": 0.7874015748031497
        },
        {
          "duration": 0.05769225000000233,
          "durationTicks": 48,
          "midi": 54,
          "name": "F#3",
          "ticks": 42240,
          "time": 50.76917999999999,
          "velocity": 0.7874015748031497
        },
        {
          "duration": 0.05769225000000233,
          "durationTicks": 48,
          "midi": 42,
          "name": "F#2",
          "ticks": 42240,
          "time": 50.76917999999999,
          "velocity": 0.7874015748031497
        },
        {
          "duration": 0.05769225000000233,
          "durationTicks": 48,
          "midi": 36,
          "name": "C2",
          "ticks": 42240,
          "time": 50.76917999999999,
          "velocity": 0.7874015748031497
        },
        {
          "duration": 0.05769225000000233,
          "durationTicks": 48,
          "midi": 70,
          "name": "A#4",
          "ticks": 42240,
          "time": 50.76917999999999,
          "velocity": 0.7874015748031497
        },
        {
          "duration": 0.05769225000000233,
          "durationTicks": 48,
          "midi": 70,
          "name": "A#4",
          "ticks": 42304,
          "time": 50.84610299999999,
          "velocity": 0.7874015748031497
        },
        {
          "duration": 0.05769225000000233,
          "durationTicks": 48,
          "midi": 70,
          "name": "A#4",
          "ticks": 42368,
          "time": 50.92302599999999,
          "velocity": 0.7874015748031497
        },
        {
          "duration": 0.05769225000000233,
          "durationTicks": 48,
          "midi": 70,
          "name": "A#4",
          "ticks": 42432,
          "time": 50.999948999999994,
          "velocity": 0.7874015748031497
        },
        {
          "duration": 0.05769225000000233,
          "durationTicks": 48,
          "midi": 70,
          "name": "A#4",
          "ticks": 42496,
          "time": 51.076871999999995,
          "velocity": 0.7874015748031497
        },
        {
          "duration": 0.057692249999995227,
          "durationTicks": 48,
          "midi": 70,
          "name": "A#4",
          "ticks": 42560,
          "time": 51.153794999999995,
          "velocity": 0.7874015748031497
        },
        {
          "duration": 0.057692249999995227,
          "durationTicks": 48,
          "midi": 54,
          "name": "F#3",
          "ticks": 42624,
          "time": 51.230717999999996,
          "velocity": 0.7874015748031497
        },
        {
          "duration": 0.057692249999995227,
          "durationTicks": 48,
          "midi": 42,
          "name": "F#2",
          "ticks": 42624,
          "time": 51.230717999999996,
          "velocity": 0.7874015748031497
        },
        {
          "duration": 0.057692249999995227,
          "durationTicks": 48,
          "midi": 38,
          "name": "D2",
          "ticks": 42624,
          "time": 51.230717999999996,
          "velocity": 0.7874015748031497
        },
        {
          "duration": 0.05769225000000233,
          "durationTicks": 48,
          "midi": 54,
          "name": "F#3",
          "ticks": 43008,
          "time": 51.69225599999999,
          "velocity": 0.7874015748031497
        },
        {
          "duration": 0.05769225000000233,
          "durationTicks": 48,
          "midi": 42,
          "name": "F#2",
          "ticks": 43008,
          "time": 51.69225599999999,
          "velocity": 0.7874015748031497
        },
        {
          "duration": 0.05769225000000233,
          "durationTicks": 48,
          "midi": 36,
          "name": "C2",
          "ticks": 43008,
          "time": 51.69225599999999,
          "velocity": 0.7874015748031497
        },
        {
          "duration": 0.05769225000000233,
          "durationTicks": 48,
          "midi": 54,
          "name": "F#3",
          "ticks": 43392,
          "time": 52.15379399999999,
          "velocity": 0.7874015748031497
        },
        {
          "duration": 0.05769225000000233,
          "durationTicks": 48,
          "midi": 42,
          "name": "F#2",
          "ticks": 43392,
          "time": 52.15379399999999,
          "velocity": 0.7874015748031497
        },
        {
          "duration": 0.05769225000000233,
          "durationTicks": 48,
          "midi": 38,
          "name": "D2",
          "ticks": 43392,
          "time": 52.15379399999999,
          "velocity": 0.7874015748031497
        },
        {
          "duration": 0.057692249999995227,
          "durationTicks": 48,
          "midi": 54,
          "name": "F#3",
          "ticks": 43776,
          "time": 52.615331999999995,
          "velocity": 0.7874015748031497
        },
        {
          "duration": 0.057692249999995227,
          "durationTicks": 48,
          "midi": 42,
          "name": "F#2",
          "ticks": 43776,
          "time": 52.615331999999995,
          "velocity": 0.7874015748031497
        },
        {
          "duration": 0.057692249999995227,
          "durationTicks": 48,
          "midi": 36,
          "name": "C2",
          "ticks": 43776,
          "time": 52.615331999999995,
          "velocity": 0.7874015748031497
        },
        {
          "duration": 0.05769225000000233,
          "durationTicks": 48,
          "midi": 54,
          "name": "F#3",
          "ticks": 44160,
          "time": 53.07686999999999,
          "velocity": 0.7874015748031497
        },
        {
          "duration": 0.05769225000000233,
          "durationTicks": 48,
          "midi": 42,
          "name": "F#2",
          "ticks": 44160,
          "time": 53.07686999999999,
          "velocity": 0.7874015748031497
        },
        {
          "duration": 0.05769225000000233,
          "durationTicks": 48,
          "midi": 38,
          "name": "D2",
          "ticks": 44160,
          "time": 53.07686999999999,
          "velocity": 0.7874015748031497
        },
        {
          "duration": 0.05769225000000233,
          "durationTicks": 48,
          "midi": 54,
          "name": "F#3",
          "ticks": 44544,
          "time": 53.53840799999999,
          "velocity": 0.7874015748031497
        },
        {
          "duration": 0.05769225000000233,
          "durationTicks": 48,
          "midi": 42,
          "name": "F#2",
          "ticks": 44544,
          "time": 53.53840799999999,
          "velocity": 0.7874015748031497
        },
        {
          "duration": 0.05769225000000233,
          "durationTicks": 48,
          "midi": 36,
          "name": "C2",
          "ticks": 44544,
          "time": 53.53840799999999,
          "velocity": 0.7874015748031497
        },
        {
          "duration": 0.05769225000000233,
          "durationTicks": 48,
          "midi": 54,
          "name": "F#3",
          "ticks": 44928,
          "time": 53.999945999999994,
          "velocity": 0.7874015748031497
        },
        {
          "duration": 0.05769225000000233,
          "durationTicks": 48,
          "midi": 42,
          "name": "F#2",
          "ticks": 44928,
          "time": 53.999945999999994,
          "velocity": 0.7874015748031497
        },
        {
          "duration": 0.05769225000000233,
          "durationTicks": 48,
          "midi": 38,
          "name": "D2",
          "ticks": 44928,
          "time": 53.999945999999994,
          "velocity": 0.7874015748031497
        },
        {
          "duration": 0.05769225000000233,
          "durationTicks": 48,
          "midi": 54,
          "name": "F#3",
          "ticks": 45312,
          "time": 54.46148399999999,
          "velocity": 0.7874015748031497
        },
        {
          "duration": 0.05769225000000233,
          "durationTicks": 48,
          "midi": 42,
          "name": "F#2",
          "ticks": 45312,
          "time": 54.46148399999999,
          "velocity": 0.7874015748031497
        },
        {
          "duration": 0.05769225000000233,
          "durationTicks": 48,
          "midi": 36,
          "name": "C2",
          "ticks": 45312,
          "time": 54.46148399999999,
          "velocity": 0.7874015748031497
        },
        {
          "duration": 0.05769225000000233,
          "durationTicks": 48,
          "midi": 54,
          "name": "F#3",
          "ticks": 45696,
          "time": 54.92302199999999,
          "velocity": 0.7874015748031497
        },
        {
          "duration": 0.05769225000000233,
          "durationTicks": 48,
          "midi": 42,
          "name": "F#2",
          "ticks": 45696,
          "time": 54.92302199999999,
          "velocity": 0.7874015748031497
        },
        {
          "duration": 0.05769225000000233,
          "durationTicks": 48,
          "midi": 38,
          "name": "D2",
          "ticks": 45696,
          "time": 54.92302199999999,
          "velocity": 0.7874015748031497
        },
        {
          "duration": 0.05769225000000233,
          "durationTicks": 48,
          "midi": 54,
          "name": "F#3",
          "ticks": 46080,
          "time": 55.38455999999999,
          "velocity": 0.7874015748031497
        },
        {
          "duration": 0.05769225000000233,
          "durationTicks": 48,
          "midi": 42,
          "name": "F#2",
          "ticks": 46080,
          "time": 55.38455999999999,
          "velocity": 0.7874015748031497
        },
        {
          "duration": 0.05769225000000233,
          "durationTicks": 48,
          "midi": 36,
          "name": "C2",
          "ticks": 46080,
          "time": 55.38455999999999,
          "velocity": 0.7874015748031497
        },
        {
          "duration": 0.05769225000000233,
          "durationTicks": 48,
          "midi": 54,
          "name": "F#3",
          "ticks": 46464,
          "time": 55.84609799999999,
          "velocity": 0.7874015748031497
        },
        {
          "duration": 0.05769225000000233,
          "durationTicks": 48,
          "midi": 42,
          "name": "F#2",
          "ticks": 46464,
          "time": 55.84609799999999,
          "velocity": 0.7874015748031497
        },
        {
          "duration": 0.05769225000000233,
          "durationTicks": 48,
          "midi": 38,
          "name": "D2",
          "ticks": 46464,
          "time": 55.84609799999999,
          "velocity": 0.7874015748031497
        },
        {
          "duration": 0.05769225000000233,
          "durationTicks": 48,
          "midi": 54,
          "name": "F#3",
          "ticks": 46848,
          "time": 56.30763599999999,
          "velocity": 0.7874015748031497
        },
        {
          "duration": 0.05769225000000233,
          "durationTicks": 48,
          "midi": 42,
          "name": "F#2",
          "ticks": 46848,
          "time": 56.30763599999999,
          "velocity": 0.7874015748031497
        },
        {
          "duration": 0.05769225000000233,
          "durationTicks": 48,
          "midi": 36,
          "name": "C2",
          "ticks": 46848,
          "time": 56.30763599999999,
          "velocity": 0.7874015748031497
        },
        {
          "duration": 0.05769225000000233,
          "durationTicks": 48,
          "midi": 54,
          "name": "F#3",
          "ticks": 47232,
          "time": 56.76917399999999,
          "velocity": 0.7874015748031497
        },
        {
          "duration": 0.05769225000000233,
          "durationTicks": 48,
          "midi": 42,
          "name": "F#2",
          "ticks": 47232,
          "time": 56.76917399999999,
          "velocity": 0.7874015748031497
        },
        {
          "duration": 0.05769225000000233,
          "durationTicks": 48,
          "midi": 38,
          "name": "D2",
          "ticks": 47232,
          "time": 56.76917399999999,
          "velocity": 0.7874015748031497
        },
        {
          "duration": 0.05769225000000233,
          "durationTicks": 48,
          "midi": 54,
          "name": "F#3",
          "ticks": 47616,
          "time": 57.23071199999999,
          "velocity": 0.7874015748031497
        },
        {
          "duration": 0.05769225000000233,
          "durationTicks": 48,
          "midi": 42,
          "name": "F#2",
          "ticks": 47616,
          "time": 57.23071199999999,
          "velocity": 0.7874015748031497
        },
        {
          "duration": 0.05769225000000233,
          "durationTicks": 48,
          "midi": 36,
          "name": "C2",
          "ticks": 47616,
          "time": 57.23071199999999,
          "velocity": 0.7874015748031497
        },
        {
          "duration": 0.057692249999995227,
          "durationTicks": 48,
          "midi": 54,
          "name": "F#3",
          "ticks": 48000,
          "time": 57.692249999999994,
          "velocity": 0.7874015748031497
        },
        {
          "duration": 0.057692249999995227,
          "durationTicks": 48,
          "midi": 42,
          "name": "F#2",
          "ticks": 48000,
          "time": 57.692249999999994,
          "velocity": 0.7874015748031497
        },
        {
          "duration": 0.057692249999995227,
          "durationTicks": 48,
          "midi": 38,
          "name": "D2",
          "ticks": 48000,
          "time": 57.692249999999994,
          "velocity": 0.7874015748031497
        },
        {
          "duration": 0.05769225000000233,
          "durationTicks": 48,
          "midi": 54,
          "name": "F#3",
          "ticks": 48384,
          "time": 58.15378799999999,
          "velocity": 0.7874015748031497
        },
        {
          "duration": 0.05769225000000233,
          "durationTicks": 48,
          "midi": 42,
          "name": "F#2",
          "ticks": 48384,
          "time": 58.15378799999999,
          "velocity": 0.7874015748031497
        },
        {
          "duration": 0.05769225000000233,
          "durationTicks": 48,
          "midi": 36,
          "name": "C2",
          "ticks": 48384,
          "time": 58.15378799999999,
          "velocity": 0.7874015748031497
        },
        {
          "duration": 0.057692249999995227,
          "durationTicks": 48,
          "midi": 54,
          "name": "F#3",
          "ticks": 48768,
          "time": 58.615325999999996,
          "velocity": 0.7874015748031497
        },
        {
          "duration": 0.057692249999995227,
          "durationTicks": 48,
          "midi": 42,
          "name": "F#2",
          "ticks": 48768,
          "time": 58.615325999999996,
          "velocity": 0.7874015748031497
        },
        {
          "duration": 0.057692249999995227,
          "durationTicks": 48,
          "midi": 38,
          "name": "D2",
          "ticks": 48768,
          "time": 58.615325999999996,
          "velocity": 0.7874015748031497
        },
        {
          "duration": 0.057692249999995227,
          "durationTicks": 48,
          "midi": 54,
          "name": "F#3",
          "ticks": 49152,
          "time": 59.07686399999999,
          "velocity": 0.7874015748031497
        },
        {
          "duration": 0.057692249999995227,
          "durationTicks": 48,
          "midi": 42,
          "name": "F#2",
          "ticks": 49152,
          "time": 59.07686399999999,
          "velocity": 0.7874015748031497
        },
        {
          "duration": 0.057692249999995227,
          "durationTicks": 48,
          "midi": 36,
          "name": "C2",
          "ticks": 49152,
          "time": 59.07686399999999,
          "velocity": 0.7874015748031497
        },
        {
          "duration": 0.05769225000000233,
          "durationTicks": 48,
          "midi": 54,
          "name": "F#3",
          "ticks": 49536,
          "time": 59.53840199999999,
          "velocity": 0.7874015748031497
        },
        {
          "duration": 0.05769225000000233,
          "durationTicks": 48,
          "midi": 42,
          "name": "F#2",
          "ticks": 49536,
          "time": 59.53840199999999,
          "velocity": 0.7874015748031497
        },
        {
          "duration": 0.05769225000000233,
          "durationTicks": 48,
          "midi": 38,
          "name": "D2",
          "ticks": 49536,
          "time": 59.53840199999999,
          "velocity": 0.7874015748031497
        },
        {
          "duration": 0.057692249999995227,
          "durationTicks": 48,
          "midi": 54,
          "name": "F#3",
          "ticks": 49920,
          "time": 59.999939999999995,
          "velocity": 0.7874015748031497
        },
        {
          "duration": 0.057692249999995227,
          "durationTicks": 48,
          "midi": 42,
          "name": "F#2",
          "ticks": 49920,
          "time": 59.999939999999995,
          "velocity": 0.7874015748031497
        },
        {
          "duration": 0.057692249999995227,
          "durationTicks": 48,
          "midi": 36,
          "name": "C2",
          "ticks": 49920,
          "time": 59.999939999999995,
          "velocity": 0.7874015748031497
        },
        {
          "duration": 0.057692249999995227,
          "durationTicks": 48,
          "midi": 54,
          "name": "F#3",
          "ticks": 50304,
          "time": 60.46147799999999,
          "velocity": 0.7874015748031497
        },
        {
          "duration": 0.057692249999995227,
          "durationTicks": 48,
          "midi": 42,
          "name": "F#2",
          "ticks": 50304,
          "time": 60.46147799999999,
          "velocity": 0.7874015748031497
        },
        {
          "duration": 0.057692249999995227,
          "durationTicks": 48,
          "midi": 38,
          "name": "D2",
          "ticks": 50304,
          "time": 60.46147799999999,
          "velocity": 0.7874015748031497
        },
        {
          "duration": 0.05769225000000233,
          "durationTicks": 48,
          "midi": 54,
          "name": "F#3",
          "ticks": 50688,
          "time": 60.92301599999999,
          "velocity": 0.7874015748031497
        },
        {
          "duration": 0.05769225000000233,
          "durationTicks": 48,
          "midi": 42,
          "name": "F#2",
          "ticks": 50688,
          "time": 60.92301599999999,
          "velocity": 0.7874015748031497
        },
        {
          "duration": 0.05769225000000233,
          "durationTicks": 48,
          "midi": 36,
          "name": "C2",
          "ticks": 50688,
          "time": 60.92301599999999,
          "velocity": 0.7874015748031497
        },
        {
          "duration": 0.057692249999995227,
          "durationTicks": 48,
          "midi": 54,
          "name": "F#3",
          "ticks": 51072,
          "time": 61.384553999999994,
          "velocity": 0.7874015748031497
        },
        {
          "duration": 0.057692249999995227,
          "durationTicks": 48,
          "midi": 42,
          "name": "F#2",
          "ticks": 51072,
          "time": 61.384553999999994,
          "velocity": 0.7874015748031497
        },
        {
          "duration": 0.057692249999995227,
          "durationTicks": 48,
          "midi": 38,
          "name": "D2",
          "ticks": 51072,
          "time": 61.384553999999994,
          "velocity": 0.7874015748031497
        },
        {
          "duration": 0.05769225000000233,
          "durationTicks": 48,
          "midi": 54,
          "name": "F#3",
          "ticks": 51456,
          "time": 61.84609199999999,
          "velocity": 0.7874015748031497
        },
        {
          "duration": 0.05769225000000233,
          "durationTicks": 48,
          "midi": 42,
          "name": "F#2",
          "ticks": 51456,
          "time": 61.84609199999999,
          "velocity": 0.7874015748031497
        },
        {
          "duration": 0.05769225000000233,
          "durationTicks": 48,
          "midi": 36,
          "name": "C2",
          "ticks": 51456,
          "time": 61.84609199999999,
          "velocity": 0.7874015748031497
        },
        {
          "duration": 0.05769225000000233,
          "durationTicks": 48,
          "midi": 54,
          "name": "F#3",
          "ticks": 51840,
          "time": 62.30762999999999,
          "velocity": 0.7874015748031497
        },
        {
          "duration": 0.05769225000000233,
          "durationTicks": 48,
          "midi": 42,
          "name": "F#2",
          "ticks": 51840,
          "time": 62.30762999999999,
          "velocity": 0.7874015748031497
        },
        {
          "duration": 0.05769225000000233,
          "durationTicks": 48,
          "midi": 38,
          "name": "D2",
          "ticks": 51840,
          "time": 62.30762999999999,
          "velocity": 0.7874015748031497
        },
        {
          "duration": 0.05769225000000233,
          "durationTicks": 48,
          "midi": 54,
          "name": "F#3",
          "ticks": 52224,
          "time": 62.76916799999999,
          "velocity": 0.7874015748031497
        },
        {
          "duration": 0.05769225000000233,
          "durationTicks": 48,
          "midi": 42,
          "name": "F#2",
          "ticks": 52224,
          "time": 62.76916799999999,
          "velocity": 0.7874015748031497
        },
        {
          "duration": 0.05769225000000233,
          "durationTicks": 48,
          "midi": 36,
          "name": "C2",
          "ticks": 52224,
          "time": 62.76916799999999,
          "velocity": 0.7874015748031497
        },
        {
          "duration": 0.05769225000000233,
          "durationTicks": 48,
          "midi": 54,
          "name": "F#3",
          "ticks": 52608,
          "time": 63.23070599999999,
          "velocity": 0.7874015748031497
        },
        {
          "duration": 0.05769225000000233,
          "durationTicks": 48,
          "midi": 42,
          "name": "F#2",
          "ticks": 52608,
          "time": 63.23070599999999,
          "velocity": 0.7874015748031497
        },
        {
          "duration": 0.05769225000000233,
          "durationTicks": 48,
          "midi": 38,
          "name": "D2",
          "ticks": 52608,
          "time": 63.23070599999999,
          "velocity": 0.7874015748031497
        },
        {
          "duration": 0.05769225000000233,
          "durationTicks": 48,
          "midi": 54,
          "name": "F#3",
          "ticks": 52992,
          "time": 63.69224399999999,
          "velocity": 0.7874015748031497
        },
        {
          "duration": 0.05769225000000233,
          "durationTicks": 48,
          "midi": 42,
          "name": "F#2",
          "ticks": 52992,
          "time": 63.69224399999999,
          "velocity": 0.7874015748031497
        },
        {
          "duration": 0.05769225000000233,
          "durationTicks": 48,
          "midi": 36,
          "name": "C2",
          "ticks": 52992,
          "time": 63.69224399999999,
          "velocity": 0.7874015748031497
        },
        {
          "duration": 0.05769225000000233,
          "durationTicks": 48,
          "midi": 54,
          "name": "F#3",
          "ticks": 53376,
          "time": 64.15378199999999,
          "velocity": 0.7874015748031497
        },
        {
          "duration": 0.05769225000000233,
          "durationTicks": 48,
          "midi": 42,
          "name": "F#2",
          "ticks": 53376,
          "time": 64.15378199999999,
          "velocity": 0.7874015748031497
        },
        {
          "duration": 0.05769225000000233,
          "durationTicks": 48,
          "midi": 38,
          "name": "D2",
          "ticks": 53376,
          "time": 64.15378199999999,
          "velocity": 0.7874015748031497
        },
        {
          "duration": 0.05769225000000233,
          "durationTicks": 48,
          "midi": 54,
          "name": "F#3",
          "ticks": 53760,
          "time": 64.61532,
          "velocity": 0.7874015748031497
        },
        {
          "duration": 0.05769225000000233,
          "durationTicks": 48,
          "midi": 42,
          "name": "F#2",
          "ticks": 53760,
          "time": 64.61532,
          "velocity": 0.7874015748031497
        },
        {
          "duration": 0.05769225000000233,
          "durationTicks": 48,
          "midi": 36,
          "name": "C2",
          "ticks": 53760,
          "time": 64.61532,
          "velocity": 0.7874015748031497
        },
        {
          "duration": 0.05769225000000233,
          "durationTicks": 48,
          "midi": 54,
          "name": "F#3",
          "ticks": 54144,
          "time": 65.07685799999999,
          "velocity": 0.7874015748031497
        },
        {
          "duration": 0.05769225000000233,
          "durationTicks": 48,
          "midi": 42,
          "name": "F#2",
          "ticks": 54144,
          "time": 65.07685799999999,
          "velocity": 0.7874015748031497
        },
        {
          "duration": 0.05769225000000233,
          "durationTicks": 48,
          "midi": 38,
          "name": "D2",
          "ticks": 54144,
          "time": 65.07685799999999,
          "velocity": 0.7874015748031497
        },
        {
          "duration": 0.05769225000000233,
          "durationTicks": 48,
          "midi": 54,
          "name": "F#3",
          "ticks": 54528,
          "time": 65.53839599999999,
          "velocity": 0.7874015748031497
        },
        {
          "duration": 0.05769225000000233,
          "durationTicks": 48,
          "midi": 42,
          "name": "F#2",
          "ticks": 54528,
          "time": 65.53839599999999,
          "velocity": 0.7874015748031497
        },
        {
          "duration": 0.05769225000000233,
          "durationTicks": 48,
          "midi": 36,
          "name": "C2",
          "ticks": 54528,
          "time": 65.53839599999999,
          "velocity": 0.7874015748031497
        },
        {
          "duration": 0.05769225000000233,
          "durationTicks": 48,
          "midi": 54,
          "name": "F#3",
          "ticks": 54912,
          "time": 65.999934,
          "velocity": 0.7874015748031497
        },
        {
          "duration": 0.05769225000000233,
          "durationTicks": 48,
          "midi": 42,
          "name": "F#2",
          "ticks": 54912,
          "time": 65.999934,
          "velocity": 0.7874015748031497
        },
        {
          "duration": 0.05769225000000233,
          "durationTicks": 48,
          "midi": 38,
          "name": "D2",
          "ticks": 54912,
          "time": 65.999934,
          "velocity": 0.7874015748031497
        },
        {
          "duration": 0.05769225000000233,
          "durationTicks": 48,
          "midi": 70,
          "name": "A#4",
          "ticks": 55296,
          "time": 66.46147199999999,
          "velocity": 0.3858267716535433
        },
        {
          "duration": 0.05769225000000233,
          "durationTicks": 48,
          "midi": 54,
          "name": "F#3",
          "ticks": 55296,
          "time": 66.46147199999999,
          "velocity": 0.7874015748031497
        },
        {
          "duration": 0.05769225000000233,
          "durationTicks": 48,
          "midi": 42,
          "name": "F#2",
          "ticks": 55296,
          "time": 66.46147199999999,
          "velocity": 0.7874015748031497
        },
        {
          "duration": 0.05769225000000233,
          "durationTicks": 48,
          "midi": 36,
          "name": "C2",
          "ticks": 55296,
          "time": 66.46147199999999,
          "velocity": 0.7874015748031497
        },
        {
          "duration": 0.05769224999998812,
          "durationTicks": 48,
          "midi": 70,
          "name": "A#4",
          "ticks": 55360,
          "time": 66.538395,
          "velocity": 0.4015748031496063
        },
        {
          "duration": 0.05769225000000233,
          "durationTicks": 48,
          "midi": 70,
          "name": "A#4",
          "ticks": 55424,
          "time": 66.61531799999999,
          "velocity": 0.41732283464566927
        },
        {
          "duration": 0.05769225000000233,
          "durationTicks": 48,
          "midi": 70,
          "name": "A#4",
          "ticks": 55488,
          "time": 66.692241,
          "velocity": 0.4330708661417323
        },
        {
          "duration": 0.05769225000000233,
          "durationTicks": 48,
          "midi": 70,
          "name": "A#4",
          "ticks": 55552,
          "time": 66.76916399999999,
          "velocity": 0.44881889763779526
        },
        {
          "duration": 0.05769224999998812,
          "durationTicks": 48,
          "midi": 70,
          "name": "A#4",
          "ticks": 55616,
          "time": 66.846087,
          "velocity": 0.47244094488188976
        },
        {
          "duration": 0.05769225000000233,
          "durationTicks": 48,
          "midi": 70,
          "name": "A#4",
          "ticks": 55680,
          "time": 66.92300999999999,
          "velocity": 0.4881889763779528
        },
        {
          "duration": 0.05769225000000233,
          "durationTicks": 48,
          "midi": 54,
          "name": "F#3",
          "ticks": 55680,
          "time": 66.92300999999999,
          "velocity": 0.7874015748031497
        },
        {
          "duration": 0.05769225000000233,
          "durationTicks": 48,
          "midi": 42,
          "name": "F#2",
          "ticks": 55680,
          "time": 66.92300999999999,
          "velocity": 0.7874015748031497
        },
        {
          "duration": 0.05769225000000233,
          "durationTicks": 48,
          "midi": 38,
          "name": "D2",
          "ticks": 55680,
          "time": 66.92300999999999,
          "velocity": 0.7874015748031497
        },
        {
          "duration": 0.05769224999998812,
          "durationTicks": 48,
          "midi": 70,
          "name": "A#4",
          "ticks": 55744,
          "time": 66.999933,
          "velocity": 0.5039370078740157
        },
        {
          "duration": 0.05769225000000233,
          "durationTicks": 48,
          "midi": 70,
          "name": "A#4",
          "ticks": 55808,
          "time": 67.07685599999999,
          "velocity": 0.5196850393700787
        },
        {
          "duration": 0.05769225000000233,
          "durationTicks": 48,
          "midi": 70,
          "name": "A#4",
          "ticks": 55872,
          "time": 67.15377899999999,
          "velocity": 0.5354330708661418
        },
        {
          "duration": 0.05769224999998812,
          "durationTicks": 48,
          "midi": 70,
          "name": "A#4",
          "ticks": 55936,
          "time": 67.230702,
          "velocity": 0.5590551181102362
        },
        {
          "duration": 0.05769225000000233,
          "durationTicks": 48,
          "midi": 70,
          "name": "A#4",
          "ticks": 56000,
          "time": 67.30762499999999,
          "velocity": 0.5748031496062992
        },
        {
          "duration": 0.05769225000000233,
          "durationTicks": 48,
          "midi": 70,
          "name": "A#4",
          "ticks": 56064,
          "time": 67.384548,
          "velocity": 0.5905511811023622
        },
        {
          "duration": 0.05769225000000233,
          "durationTicks": 48,
          "midi": 54,
          "name": "F#3",
          "ticks": 56064,
          "time": 67.384548,
          "velocity": 0.7874015748031497
        },
        {
          "duration": 0.05769225000000233,
          "durationTicks": 48,
          "midi": 42,
          "name": "F#2",
          "ticks": 56064,
          "time": 67.384548,
          "velocity": 0.7874015748031497
        },
        {
          "duration": 0.05769225000000233,
          "durationTicks": 48,
          "midi": 36,
          "name": "C2",
          "ticks": 56064,
          "time": 67.384548,
          "velocity": 0.7874015748031497
        },
        {
          "duration": 0.05769225000000233,
          "durationTicks": 48,
          "midi": 70,
          "name": "A#4",
          "ticks": 56128,
          "time": 67.46147099999999,
          "velocity": 0.6062992125984252
        },
        {
          "duration": 0.05769224999998812,
          "durationTicks": 48,
          "midi": 70,
          "name": "A#4",
          "ticks": 56192,
          "time": 67.538394,
          "velocity": 0.6299212598425197
        },
        {
          "duration": 0.05769225000000233,
          "durationTicks": 48,
          "midi": 70,
          "name": "A#4",
          "ticks": 56256,
          "time": 67.61531699999999,
          "velocity": 0.6456692913385826
        },
        {
          "duration": 0.05769224999998812,
          "durationTicks": 48,
          "midi": 70,
          "name": "A#4",
          "ticks": 56320,
          "time": 67.69224,
          "velocity": 0.6614173228346457
        },
        {
          "duration": 0.05769225000000233,
          "durationTicks": 48,
          "midi": 70,
          "name": "A#4",
          "ticks": 56384,
          "time": 67.76916299999999,
          "velocity": 0.6771653543307087
        },
        {
          "duration": 0.05769225000000233,
          "durationTicks": 48,
          "midi": 70,
          "name": "A#4",
          "ticks": 56448,
          "time": 67.84608599999999,
          "velocity": 0.6929133858267716
        },
        {
          "duration": 0.05769225000000233,
          "durationTicks": 48,
          "midi": 54,
          "name": "F#3",
          "ticks": 56448,
          "time": 67.84608599999999,
          "velocity": 0.7874015748031497
        },
        {
          "duration": 0.05769225000000233,
          "durationTicks": 48,
          "midi": 42,
          "name": "F#2",
          "ticks": 56448,
          "time": 67.84608599999999,
          "velocity": 0.7874015748031497
        },
        {
          "duration": 0.05769225000000233,
          "durationTicks": 48,
          "midi": 38,
          "name": "D2",
          "ticks": 56448,
          "time": 67.84608599999999,
          "velocity": 0.7874015748031497
        },
        {
          "duration": 0.05769224999998812,
          "durationTicks": 48,
          "midi": 70,
          "name": "A#4",
          "ticks": 56512,
          "time": 67.923009,
          "velocity": 0.7165354330708661
        },
        {
          "duration": 0.05769225000000233,
          "durationTicks": 48,
          "midi": 70,
          "name": "A#4",
          "ticks": 56576,
          "time": 67.99993199999999,
          "velocity": 0.7322834645669292
        },
        {
          "duration": 0.05769225000000233,
          "durationTicks": 48,
          "midi": 70,
          "name": "A#4",
          "ticks": 56640,
          "time": 68.076855,
          "velocity": 0.7480314960629921
        },
        {
          "duration": 0.05769225000000233,
          "durationTicks": 48,
          "midi": 70,
          "name": "A#4",
          "ticks": 56704,
          "time": 68.15377799999999,
          "velocity": 0.7637795275590551
        },
        {
          "duration": 0.05769224999998812,
          "durationTicks": 48,
          "midi": 70,
          "name": "A#4",
          "ticks": 56768,
          "time": 68.230701,
          "velocity": 0.7874015748031497
        },
        {
          "duration": 0.05769225000000233,
          "durationTicks": 48,
          "midi": 70,
          "name": "A#4",
          "ticks": 56832,
          "time": 68.30762399999999,
          "velocity": 0.7874015748031497
        },
        {
          "duration": 0.05769225000000233,
          "durationTicks": 48,
          "midi": 54,
          "name": "F#3",
          "ticks": 56832,
          "time": 68.30762399999999,
          "velocity": 0.7874015748031497
        },
        {
          "duration": 0.05769225000000233,
          "durationTicks": 48,
          "midi": 42,
          "name": "F#2",
          "ticks": 56832,
          "time": 68.30762399999999,
          "velocity": 0.7874015748031497
        },
        {
          "duration": 0.05769225000000233,
          "durationTicks": 48,
          "midi": 36,
          "name": "C2",
          "ticks": 56832,
          "time": 68.30762399999999,
          "velocity": 0.7874015748031497
        },
        {
          "duration": 0.05769225000000233,
          "durationTicks": 48,
          "midi": 54,
          "name": "F#3",
          "ticks": 57216,
          "time": 68.769162,
          "velocity": 0.7874015748031497
        },
        {
          "duration": 0.05769225000000233,
          "durationTicks": 48,
          "midi": 42,
          "name": "F#2",
          "ticks": 57216,
          "time": 68.769162,
          "velocity": 0.7874015748031497
        },
        {
          "duration": 0.05769225000000233,
          "durationTicks": 48,
          "midi": 38,
          "name": "D2",
          "ticks": 57216,
          "time": 68.769162,
          "velocity": 0.7874015748031497
        },
        {
          "duration": 0.05769225000000233,
          "durationTicks": 48,
          "midi": 54,
          "name": "F#3",
          "ticks": 57600,
          "time": 69.23069999999998,
          "velocity": 0.7874015748031497
        },
        {
          "duration": 0.05769225000000233,
          "durationTicks": 48,
          "midi": 42,
          "name": "F#2",
          "ticks": 57600,
          "time": 69.23069999999998,
          "velocity": 0.7874015748031497
        },
        {
          "duration": 0.05769225000000233,
          "durationTicks": 48,
          "midi": 36,
          "name": "C2",
          "ticks": 57600,
          "time": 69.23069999999998,
          "velocity": 0.7874015748031497
        },
        {
          "duration": 0.05769225000000233,
          "durationTicks": 48,
          "midi": 54,
          "name": "F#3",
          "ticks": 57984,
          "time": 69.69223799999999,
          "velocity": 0.7874015748031497
        },
        {
          "duration": 0.05769225000000233,
          "durationTicks": 48,
          "midi": 42,
          "name": "F#2",
          "ticks": 57984,
          "time": 69.69223799999999,
          "velocity": 0.7874015748031497
        },
        {
          "duration": 0.05769225000000233,
          "durationTicks": 48,
          "midi": 38,
          "name": "D2",
          "ticks": 57984,
          "time": 69.69223799999999,
          "velocity": 0.7874015748031497
        },
        {
          "duration": 0.05769225000000233,
          "durationTicks": 48,
          "midi": 54,
          "name": "F#3",
          "ticks": 58368,
          "time": 70.153776,
          "velocity": 0.7874015748031497
        },
        {
          "duration": 0.05769225000000233,
          "durationTicks": 48,
          "midi": 42,
          "name": "F#2",
          "ticks": 58368,
          "time": 70.153776,
          "velocity": 0.7874015748031497
        },
        {
          "duration": 0.05769225000000233,
          "durationTicks": 48,
          "midi": 36,
          "name": "C2",
          "ticks": 58368,
          "time": 70.153776,
          "velocity": 0.7874015748031497
        },
        {
          "duration": 0.05769225000000233,
          "durationTicks": 48,
          "midi": 54,
          "name": "F#3",
          "ticks": 58752,
          "time": 70.61531399999998,
          "velocity": 0.7874015748031497
        },
        {
          "duration": 0.05769225000000233,
          "durationTicks": 48,
          "midi": 42,
          "name": "F#2",
          "ticks": 58752,
          "time": 70.61531399999998,
          "velocity": 0.7874015748031497
        },
        {
          "duration": 0.05769225000000233,
          "durationTicks": 48,
          "midi": 38,
          "name": "D2",
          "ticks": 58752,
          "time": 70.61531399999998,
          "velocity": 0.7874015748031497
        },
        {
          "duration": 0.05769225000000233,
          "durationTicks": 48,
          "midi": 54,
          "name": "F#3",
          "ticks": 59136,
          "time": 71.07685199999999,
          "velocity": 0.7874015748031497
        },
        {
          "duration": 0.05769225000000233,
          "durationTicks": 48,
          "midi": 42,
          "name": "F#2",
          "ticks": 59136,
          "time": 71.07685199999999,
          "velocity": 0.7874015748031497
        },
        {
          "duration": 0.05769225000000233,
          "durationTicks": 48,
          "midi": 36,
          "name": "C2",
          "ticks": 59136,
          "time": 71.07685199999999,
          "velocity": 0.7874015748031497
        },
        {
          "duration": 0.05769225000000233,
          "durationTicks": 48,
          "midi": 54,
          "name": "F#3",
          "ticks": 59520,
          "time": 71.53838999999999,
          "velocity": 0.7874015748031497
        },
        {
          "duration": 0.05769225000000233,
          "durationTicks": 48,
          "midi": 42,
          "name": "F#2",
          "ticks": 59520,
          "time": 71.53838999999999,
          "velocity": 0.7874015748031497
        },
        {
          "duration": 0.05769225000000233,
          "durationTicks": 48,
          "midi": 38,
          "name": "D2",
          "ticks": 59520,
          "time": 71.53838999999999,
          "velocity": 0.7874015748031497
        },
        {
          "duration": 0.05769225000000233,
          "durationTicks": 48,
          "midi": 54,
          "name": "F#3",
          "ticks": 59904,
          "time": 71.99992799999998,
          "velocity": 0.7874015748031497
        },
        {
          "duration": 0.05769225000000233,
          "durationTicks": 48,
          "midi": 42,
          "name": "F#2",
          "ticks": 59904,
          "time": 71.99992799999998,
          "velocity": 0.7874015748031497
        },
        {
          "duration": 0.05769225000000233,
          "durationTicks": 48,
          "midi": 36,
          "name": "C2",
          "ticks": 59904,
          "time": 71.99992799999998,
          "velocity": 0.7874015748031497
        },
        {
          "duration": 0.05769225000000233,
          "durationTicks": 48,
          "midi": 54,
          "name": "F#3",
          "ticks": 60288,
          "time": 72.46146599999999,
          "velocity": 0.7874015748031497
        },
        {
          "duration": 0.05769225000000233,
          "durationTicks": 48,
          "midi": 42,
          "name": "F#2",
          "ticks": 60288,
          "time": 72.46146599999999,
          "velocity": 0.7874015748031497
        },
        {
          "duration": 0.05769225000000233,
          "durationTicks": 48,
          "midi": 38,
          "name": "D2",
          "ticks": 60288,
          "time": 72.46146599999999,
          "velocity": 0.7874015748031497
        },
        {
          "duration": 0.05769225000000233,
          "durationTicks": 48,
          "midi": 54,
          "name": "F#3",
          "ticks": 60672,
          "time": 72.92300399999999,
          "velocity": 0.7874015748031497
        },
        {
          "duration": 0.05769225000000233,
          "durationTicks": 48,
          "midi": 42,
          "name": "F#2",
          "ticks": 60672,
          "time": 72.92300399999999,
          "velocity": 0.7874015748031497
        },
        {
          "duration": 0.05769225000000233,
          "durationTicks": 48,
          "midi": 36,
          "name": "C2",
          "ticks": 60672,
          "time": 72.92300399999999,
          "velocity": 0.7874015748031497
        },
        {
          "duration": 0.05769225000000233,
          "durationTicks": 48,
          "midi": 54,
          "name": "F#3",
          "ticks": 61056,
          "time": 73.38454199999998,
          "velocity": 0.7874015748031497
        },
        {
          "duration": 0.05769225000000233,
          "durationTicks": 48,
          "midi": 42,
          "name": "F#2",
          "ticks": 61056,
          "time": 73.38454199999998,
          "velocity": 0.7874015748031497
        },
        {
          "duration": 0.05769225000000233,
          "durationTicks": 48,
          "midi": 38,
          "name": "D2",
          "ticks": 61056,
          "time": 73.38454199999998,
          "velocity": 0.7874015748031497
        },
        {
          "duration": 0.05769225000000233,
          "durationTicks": 48,
          "midi": 54,
          "name": "F#3",
          "ticks": 61440,
          "time": 73.84607999999999,
          "velocity": 0.7874015748031497
        },
        {
          "duration": 0.05769225000000233,
          "durationTicks": 48,
          "midi": 42,
          "name": "F#2",
          "ticks": 61440,
          "time": 73.84607999999999,
          "velocity": 0.7874015748031497
        },
        {
          "duration": 0.05769225000000233,
          "durationTicks": 48,
          "midi": 36,
          "name": "C2",
          "ticks": 61440,
          "time": 73.84607999999999,
          "velocity": 0.7874015748031497
        },
        {
          "duration": 0.05769225000000233,
          "durationTicks": 48,
          "midi": 54,
          "name": "F#3",
          "ticks": 61824,
          "time": 74.30761799999999,
          "velocity": 0.7874015748031497
        },
        {
          "duration": 0.05769225000000233,
          "durationTicks": 48,
          "midi": 42,
          "name": "F#2",
          "ticks": 61824,
          "time": 74.30761799999999,
          "velocity": 0.7874015748031497
        },
        {
          "duration": 0.05769225000000233,
          "durationTicks": 48,
          "midi": 38,
          "name": "D2",
          "ticks": 61824,
          "time": 74.30761799999999,
          "velocity": 0.7874015748031497
        },
        {
          "duration": 0.05769224999998812,
          "durationTicks": 48,
          "midi": 54,
          "name": "F#3",
          "ticks": 62208,
          "time": 74.769156,
          "velocity": 0.7874015748031497
        },
        {
          "duration": 0.05769224999998812,
          "durationTicks": 48,
          "midi": 42,
          "name": "F#2",
          "ticks": 62208,
          "time": 74.769156,
          "velocity": 0.7874015748031497
        },
        {
          "duration": 0.05769224999998812,
          "durationTicks": 48,
          "midi": 36,
          "name": "C2",
          "ticks": 62208,
          "time": 74.769156,
          "velocity": 0.7874015748031497
        },
        {
          "duration": 0.05769225000000233,
          "durationTicks": 48,
          "midi": 54,
          "name": "F#3",
          "ticks": 62592,
          "time": 75.23069399999999,
          "velocity": 0.7874015748031497
        },
        {
          "duration": 0.05769225000000233,
          "durationTicks": 48,
          "midi": 42,
          "name": "F#2",
          "ticks": 62592,
          "time": 75.23069399999999,
          "velocity": 0.7874015748031497
        },
        {
          "duration": 0.05769225000000233,
          "durationTicks": 48,
          "midi": 38,
          "name": "D2",
          "ticks": 62592,
          "time": 75.23069399999999,
          "velocity": 0.7874015748031497
        },
        {
          "duration": 0.05769225000000233,
          "durationTicks": 48,
          "midi": 54,
          "name": "F#3",
          "ticks": 62976,
          "time": 75.69223199999999,
          "velocity": 0.7874015748031497
        },
        {
          "duration": 0.05769225000000233,
          "durationTicks": 48,
          "midi": 42,
          "name": "F#2",
          "ticks": 62976,
          "time": 75.69223199999999,
          "velocity": 0.7874015748031497
        },
        {
          "duration": 0.05769225000000233,
          "durationTicks": 48,
          "midi": 36,
          "name": "C2",
          "ticks": 62976,
          "time": 75.69223199999999,
          "velocity": 0.7874015748031497
        },
        {
          "duration": 0.05769224999998812,
          "durationTicks": 48,
          "midi": 54,
          "name": "F#3",
          "ticks": 63360,
          "time": 76.15377,
          "velocity": 0.7874015748031497
        },
        {
          "duration": 0.05769224999998812,
          "durationTicks": 48,
          "midi": 42,
          "name": "F#2",
          "ticks": 63360,
          "time": 76.15377,
          "velocity": 0.7874015748031497
        },
        {
          "duration": 0.05769224999998812,
          "durationTicks": 48,
          "midi": 38,
          "name": "D2",
          "ticks": 63360,
          "time": 76.15377,
          "velocity": 0.7874015748031497
        },
        {
          "duration": 0.05769224999998812,
          "durationTicks": 48,
          "midi": 54,
          "name": "F#3",
          "ticks": 63744,
          "time": 76.615308,
          "velocity": 0.7874015748031497
        },
        {
          "duration": 0.05769224999998812,
          "durationTicks": 48,
          "midi": 42,
          "name": "F#2",
          "ticks": 63744,
          "time": 76.615308,
          "velocity": 0.7874015748031497
        },
        {
          "duration": 0.05769224999998812,
          "durationTicks": 48,
          "midi": 36,
          "name": "C2",
          "ticks": 63744,
          "time": 76.615308,
          "velocity": 0.7874015748031497
        },
        {
          "duration": 0.05769225000000233,
          "durationTicks": 48,
          "midi": 54,
          "name": "F#3",
          "ticks": 64128,
          "time": 77.07684599999999,
          "velocity": 0.7874015748031497
        },
        {
          "duration": 0.05769225000000233,
          "durationTicks": 48,
          "midi": 42,
          "name": "F#2",
          "ticks": 64128,
          "time": 77.07684599999999,
          "velocity": 0.7874015748031497
        },
        {
          "duration": 0.05769225000000233,
          "durationTicks": 48,
          "midi": 38,
          "name": "D2",
          "ticks": 64128,
          "time": 77.07684599999999,
          "velocity": 0.7874015748031497
        },
        {
          "duration": 0.05769224999998812,
          "durationTicks": 48,
          "midi": 54,
          "name": "F#3",
          "ticks": 64512,
          "time": 77.538384,
          "velocity": 0.7874015748031497
        },
        {
          "duration": 0.05769224999998812,
          "durationTicks": 48,
          "midi": 42,
          "name": "F#2",
          "ticks": 64512,
          "time": 77.538384,
          "velocity": 0.7874015748031497
        },
        {
          "duration": 0.05769224999998812,
          "durationTicks": 48,
          "midi": 36,
          "name": "C2",
          "ticks": 64512,
          "time": 77.538384,
          "velocity": 0.7874015748031497
        },
        {
          "duration": 0.05769224999998812,
          "durationTicks": 48,
          "midi": 54,
          "name": "F#3",
          "ticks": 64896,
          "time": 77.999922,
          "velocity": 0.7874015748031497
        },
        {
          "duration": 0.05769224999998812,
          "durationTicks": 48,
          "midi": 42,
          "name": "F#2",
          "ticks": 64896,
          "time": 77.999922,
          "velocity": 0.7874015748031497
        },
        {
          "duration": 0.05769224999998812,
          "durationTicks": 48,
          "midi": 38,
          "name": "D2",
          "ticks": 64896,
          "time": 77.999922,
          "velocity": 0.7874015748031497
        },
        {
          "duration": 0.05769225000000233,
          "durationTicks": 48,
          "midi": 54,
          "name": "F#3",
          "ticks": 65280,
          "time": 78.46145999999999,
          "velocity": 0.7874015748031497
        },
        {
          "duration": 0.05769225000000233,
          "durationTicks": 48,
          "midi": 42,
          "name": "F#2",
          "ticks": 65280,
          "time": 78.46145999999999,
          "velocity": 0.7874015748031497
        },
        {
          "duration": 0.05769225000000233,
          "durationTicks": 48,
          "midi": 36,
          "name": "C2",
          "ticks": 65280,
          "time": 78.46145999999999,
          "velocity": 0.7874015748031497
        },
        {
          "duration": 0.05769225000000233,
          "durationTicks": 48,
          "midi": 54,
          "name": "F#3",
          "ticks": 65664,
          "time": 78.92299799999999,
          "velocity": 0.7874015748031497
        },
        {
          "duration": 0.05769225000000233,
          "durationTicks": 48,
          "midi": 42,
          "name": "F#2",
          "ticks": 65664,
          "time": 78.92299799999999,
          "velocity": 0.7874015748031497
        },
        {
          "duration": 0.05769225000000233,
          "durationTicks": 48,
          "midi": 38,
          "name": "D2",
          "ticks": 65664,
          "time": 78.92299799999999,
          "velocity": 0.7874015748031497
        },
        {
          "duration": 0.05769224999998812,
          "durationTicks": 48,
          "midi": 54,
          "name": "F#3",
          "ticks": 66048,
          "time": 79.384536,
          "velocity": 0.7874015748031497
        },
        {
          "duration": 0.05769224999998812,
          "durationTicks": 48,
          "midi": 42,
          "name": "F#2",
          "ticks": 66048,
          "time": 79.384536,
          "velocity": 0.7874015748031497
        },
        {
          "duration": 0.05769224999998812,
          "durationTicks": 48,
          "midi": 36,
          "name": "C2",
          "ticks": 66048,
          "time": 79.384536,
          "velocity": 0.7874015748031497
        },
        {
          "duration": 0.05769225000000233,
          "durationTicks": 48,
          "midi": 54,
          "name": "F#3",
          "ticks": 66432,
          "time": 79.84607399999999,
          "velocity": 0.7874015748031497
        },
        {
          "duration": 0.05769225000000233,
          "durationTicks": 48,
          "midi": 42,
          "name": "F#2",
          "ticks": 66432,
          "time": 79.84607399999999,
          "velocity": 0.7874015748031497
        },
        {
          "duration": 0.05769225000000233,
          "durationTicks": 48,
          "midi": 38,
          "name": "D2",
          "ticks": 66432,
          "time": 79.84607399999999,
          "velocity": 0.7874015748031497
        },
        {
          "duration": 0.05769224999998812,
          "durationTicks": 48,
          "midi": 54,
          "name": "F#3",
          "ticks": 66816,
          "time": 80.30761199999999,
          "velocity": 0.7874015748031497
        },
        {
          "duration": 0.05769224999998812,
          "durationTicks": 48,
          "midi": 42,
          "name": "F#2",
          "ticks": 66816,
          "time": 80.30761199999999,
          "velocity": 0.7874015748031497
        },
        {
          "duration": 0.05769224999998812,
          "durationTicks": 48,
          "midi": 36,
          "name": "C2",
          "ticks": 66816,
          "time": 80.30761199999999,
          "velocity": 0.7874015748031497
        },
        {
          "duration": 0.05769225000000233,
          "durationTicks": 48,
          "midi": 54,
          "name": "F#3",
          "ticks": 67200,
          "time": 80.76915,
          "velocity": 0.7874015748031497
        },
        {
          "duration": 0.05769225000000233,
          "durationTicks": 48,
          "midi": 42,
          "name": "F#2",
          "ticks": 67200,
          "time": 80.76915,
          "velocity": 0.7874015748031497
        },
        {
          "duration": 0.05769225000000233,
          "durationTicks": 48,
          "midi": 38,
          "name": "D2",
          "ticks": 67200,
          "time": 80.76915,
          "velocity": 0.7874015748031497
        },
        {
          "duration": 0.05769225000000233,
          "durationTicks": 48,
          "midi": 54,
          "name": "F#3",
          "ticks": 67584,
          "time": 81.23068799999999,
          "velocity": 0.7874015748031497
        },
        {
          "duration": 0.05769225000000233,
          "durationTicks": 48,
          "midi": 42,
          "name": "F#2",
          "ticks": 67584,
          "time": 81.23068799999999,
          "velocity": 0.7874015748031497
        },
        {
          "duration": 0.05769225000000233,
          "durationTicks": 48,
          "midi": 36,
          "name": "C2",
          "ticks": 67584,
          "time": 81.23068799999999,
          "velocity": 0.7874015748031497
        },
        {
          "duration": 0.05769224999998812,
          "durationTicks": 48,
          "midi": 54,
          "name": "F#3",
          "ticks": 67968,
          "time": 81.69222599999999,
          "velocity": 0.7874015748031497
        },
        {
          "duration": 0.05769224999998812,
          "durationTicks": 48,
          "midi": 42,
          "name": "F#2",
          "ticks": 67968,
          "time": 81.69222599999999,
          "velocity": 0.7874015748031497
        },
        {
          "duration": 0.05769224999998812,
          "durationTicks": 48,
          "midi": 38,
          "name": "D2",
          "ticks": 67968,
          "time": 81.69222599999999,
          "velocity": 0.7874015748031497
        },
        {
          "duration": 0.05769225000000233,
          "durationTicks": 48,
          "midi": 54,
          "name": "F#3",
          "ticks": 68352,
          "time": 82.153764,
          "velocity": 0.7874015748031497
        },
        {
          "duration": 0.05769225000000233,
          "durationTicks": 48,
          "midi": 42,
          "name": "F#2",
          "ticks": 68352,
          "time": 82.153764,
          "velocity": 0.7874015748031497
        },
        {
          "duration": 0.05769225000000233,
          "durationTicks": 48,
          "midi": 36,
          "name": "C2",
          "ticks": 68352,
          "time": 82.153764,
          "velocity": 0.7874015748031497
        },
        {
          "duration": 0.05769225000000233,
          "durationTicks": 48,
          "midi": 54,
          "name": "F#3",
          "ticks": 68736,
          "time": 82.61530199999999,
          "velocity": 0.7874015748031497
        },
        {
          "duration": 0.05769225000000233,
          "durationTicks": 48,
          "midi": 42,
          "name": "F#2",
          "ticks": 68736,
          "time": 82.61530199999999,
          "velocity": 0.7874015748031497
        },
        {
          "duration": 0.05769225000000233,
          "durationTicks": 48,
          "midi": 38,
          "name": "D2",
          "ticks": 68736,
          "time": 82.61530199999999,
          "velocity": 0.7874015748031497
        },
        {
          "duration": 0.05769225000000233,
          "durationTicks": 48,
          "midi": 54,
          "name": "F#3",
          "ticks": 69120,
          "time": 83.07683999999999,
          "velocity": 0.7874015748031497
        },
        {
          "duration": 0.05769225000000233,
          "durationTicks": 48,
          "midi": 42,
          "name": "F#2",
          "ticks": 69120,
          "time": 83.07683999999999,
          "velocity": 0.7874015748031497
        },
        {
          "duration": 0.05769225000000233,
          "durationTicks": 48,
          "midi": 36,
          "name": "C2",
          "ticks": 69120,
          "time": 83.07683999999999,
          "velocity": 0.7874015748031497
        },
        {
          "duration": 0.05769225000000233,
          "durationTicks": 48,
          "midi": 54,
          "name": "F#3",
          "ticks": 69504,
          "time": 83.538378,
          "velocity": 0.7874015748031497
        },
        {
          "duration": 0.05769225000000233,
          "durationTicks": 48,
          "midi": 42,
          "name": "F#2",
          "ticks": 69504,
          "time": 83.538378,
          "velocity": 0.7874015748031497
        },
        {
          "duration": 0.05769225000000233,
          "durationTicks": 48,
          "midi": 38,
          "name": "D2",
          "ticks": 69504,
          "time": 83.538378,
          "velocity": 0.7874015748031497
        },
        {
          "duration": 0.05769225000000233,
          "durationTicks": 48,
          "midi": 54,
          "name": "F#3",
          "ticks": 69888,
          "time": 83.99991599999998,
          "velocity": 0.7874015748031497
        },
        {
          "duration": 0.05769225000000233,
          "durationTicks": 48,
          "midi": 42,
          "name": "F#2",
          "ticks": 69888,
          "time": 83.99991599999998,
          "velocity": 0.7874015748031497
        },
        {
          "duration": 0.05769225000000233,
          "durationTicks": 48,
          "midi": 36,
          "name": "C2",
          "ticks": 69888,
          "time": 83.99991599999998,
          "velocity": 0.7874015748031497
        },
        {
          "duration": 0.05769225000000233,
          "durationTicks": 48,
          "midi": 54,
          "name": "F#3",
          "ticks": 70272,
          "time": 84.46145399999999,
          "velocity": 0.7874015748031497
        },
        {
          "duration": 0.05769225000000233,
          "durationTicks": 48,
          "midi": 42,
          "name": "F#2",
          "ticks": 70272,
          "time": 84.46145399999999,
          "velocity": 0.7874015748031497
        },
        {
          "duration": 0.05769225000000233,
          "durationTicks": 48,
          "midi": 38,
          "name": "D2",
          "ticks": 70272,
          "time": 84.46145399999999,
          "velocity": 0.7874015748031497
        },
        {
          "duration": 0.05769225000000233,
          "durationTicks": 48,
          "midi": 54,
          "name": "F#3",
          "ticks": 70656,
          "time": 84.922992,
          "velocity": 0.7874015748031497
        },
        {
          "duration": 0.05769225000000233,
          "durationTicks": 48,
          "midi": 42,
          "name": "F#2",
          "ticks": 70656,
          "time": 84.922992,
          "velocity": 0.7874015748031497
        },
        {
          "duration": 0.05769225000000233,
          "durationTicks": 48,
          "midi": 36,
          "name": "C2",
          "ticks": 70656,
          "time": 84.922992,
          "velocity": 0.7874015748031497
        },
        {
          "duration": 0.05769225000000233,
          "durationTicks": 48,
          "midi": 54,
          "name": "F#3",
          "ticks": 71040,
          "time": 85.38452999999998,
          "velocity": 0.7874015748031497
        },
        {
          "duration": 0.05769225000000233,
          "durationTicks": 48,
          "midi": 42,
          "name": "F#2",
          "ticks": 71040,
          "time": 85.38452999999998,
          "velocity": 0.7874015748031497
        },
        {
          "duration": 0.05769225000000233,
          "durationTicks": 48,
          "midi": 38,
          "name": "D2",
          "ticks": 71040,
          "time": 85.38452999999998,
          "velocity": 0.7874015748031497
        },
        {
          "duration": 0.05769225000000233,
          "durationTicks": 48,
          "midi": 54,
          "name": "F#3",
          "ticks": 71424,
          "time": 85.84606799999999,
          "velocity": 0.7874015748031497
        },
        {
          "duration": 0.05769225000000233,
          "durationTicks": 48,
          "midi": 42,
          "name": "F#2",
          "ticks": 71424,
          "time": 85.84606799999999,
          "velocity": 0.7874015748031497
        },
        {
          "duration": 0.05769225000000233,
          "durationTicks": 48,
          "midi": 36,
          "name": "C2",
          "ticks": 71424,
          "time": 85.84606799999999,
          "velocity": 0.7874015748031497
        },
        {
          "duration": 0.05769225000000233,
          "durationTicks": 48,
          "midi": 54,
          "name": "F#3",
          "ticks": 71808,
          "time": 86.30760599999999,
          "velocity": 0.7874015748031497
        },
        {
          "duration": 0.05769225000000233,
          "durationTicks": 48,
          "midi": 42,
          "name": "F#2",
          "ticks": 71808,
          "time": 86.30760599999999,
          "velocity": 0.7874015748031497
        },
        {
          "duration": 0.05769225000000233,
          "durationTicks": 48,
          "midi": 38,
          "name": "D2",
          "ticks": 71808,
          "time": 86.30760599999999,
          "velocity": 0.7874015748031497
        },
        {
          "duration": 0.05769225000000233,
          "durationTicks": 48,
          "midi": 54,
          "name": "F#3",
          "ticks": 72192,
          "time": 86.76914399999998,
          "velocity": 0.7874015748031497
        },
        {
          "duration": 0.05769225000000233,
          "durationTicks": 48,
          "midi": 42,
          "name": "F#2",
          "ticks": 72192,
          "time": 86.76914399999998,
          "velocity": 0.7874015748031497
        },
        {
          "duration": 0.05769225000000233,
          "durationTicks": 48,
          "midi": 36,
          "name": "C2",
          "ticks": 72192,
          "time": 86.76914399999998,
          "velocity": 0.7874015748031497
        },
        {
          "duration": 0.05769225000000233,
          "durationTicks": 48,
          "midi": 54,
          "name": "F#3",
          "ticks": 72576,
          "time": 87.23068199999999,
          "velocity": 0.7874015748031497
        },
        {
          "duration": 0.05769225000000233,
          "durationTicks": 48,
          "midi": 42,
          "name": "F#2",
          "ticks": 72576,
          "time": 87.23068199999999,
          "velocity": 0.7874015748031497
        },
        {
          "duration": 0.05769225000000233,
          "durationTicks": 48,
          "midi": 38,
          "name": "D2",
          "ticks": 72576,
          "time": 87.23068199999999,
          "velocity": 0.7874015748031497
        },
        {
          "duration": 0.05769225000000233,
          "durationTicks": 48,
          "midi": 54,
          "name": "F#3",
          "ticks": 72960,
          "time": 87.69221999999999,
          "velocity": 0.7874015748031497
        },
        {
          "duration": 0.05769225000000233,
          "durationTicks": 48,
          "midi": 42,
          "name": "F#2",
          "ticks": 72960,
          "time": 87.69221999999999,
          "velocity": 0.7874015748031497
        },
        {
          "duration": 0.05769225000000233,
          "durationTicks": 48,
          "midi": 36,
          "name": "C2",
          "ticks": 72960,
          "time": 87.69221999999999,
          "velocity": 0.7874015748031497
        },
        {
          "duration": 0.05769225000000233,
          "durationTicks": 48,
          "midi": 54,
          "name": "F#3",
          "ticks": 73344,
          "time": 88.15375799999998,
          "velocity": 0.7874015748031497
        },
        {
          "duration": 0.05769225000000233,
          "durationTicks": 48,
          "midi": 42,
          "name": "F#2",
          "ticks": 73344,
          "time": 88.15375799999998,
          "velocity": 0.7874015748031497
        },
        {
          "duration": 0.05769225000000233,
          "durationTicks": 48,
          "midi": 38,
          "name": "D2",
          "ticks": 73344,
          "time": 88.15375799999998,
          "velocity": 0.7874015748031497
        },
        {
          "duration": 0.05769225000000233,
          "durationTicks": 48,
          "midi": 54,
          "name": "F#3",
          "ticks": 73728,
          "time": 88.61529599999999,
          "velocity": 0.7874015748031497
        },
        {
          "duration": 0.05769225000000233,
          "durationTicks": 48,
          "midi": 42,
          "name": "F#2",
          "ticks": 73728,
          "time": 88.61529599999999,
          "velocity": 0.7874015748031497
        },
        {
          "duration": 0.05769225000000233,
          "durationTicks": 48,
          "midi": 36,
          "name": "C2",
          "ticks": 73728,
          "time": 88.61529599999999,
          "velocity": 0.7874015748031497
        },
        {
          "duration": 0.05769225000000233,
          "durationTicks": 48,
          "midi": 54,
          "name": "F#3",
          "ticks": 74112,
          "time": 89.07683399999999,
          "velocity": 0.7874015748031497
        },
        {
          "duration": 0.05769225000000233,
          "durationTicks": 48,
          "midi": 42,
          "name": "F#2",
          "ticks": 74112,
          "time": 89.07683399999999,
          "velocity": 0.7874015748031497
        },
        {
          "duration": 0.05769225000000233,
          "durationTicks": 48,
          "midi": 38,
          "name": "D2",
          "ticks": 74112,
          "time": 89.07683399999999,
          "velocity": 0.7874015748031497
        },
        {
          "duration": 0.05769225000000233,
          "durationTicks": 48,
          "midi": 54,
          "name": "F#3",
          "ticks": 74496,
          "time": 89.53837199999998,
          "velocity": 0.7874015748031497
        },
        {
          "duration": 0.05769225000000233,
          "durationTicks": 48,
          "midi": 42,
          "name": "F#2",
          "ticks": 74496,
          "time": 89.53837199999998,
          "velocity": 0.7874015748031497
        },
        {
          "duration": 0.05769225000000233,
          "durationTicks": 48,
          "midi": 36,
          "name": "C2",
          "ticks": 74496,
          "time": 89.53837199999998,
          "velocity": 0.7874015748031497
        },
        {
          "duration": 0.05769225000000233,
          "durationTicks": 48,
          "midi": 54,
          "name": "F#3",
          "ticks": 74880,
          "time": 89.99990999999999,
          "velocity": 0.7874015748031497
        },
        {
          "duration": 0.05769225000000233,
          "durationTicks": 48,
          "midi": 42,
          "name": "F#2",
          "ticks": 74880,
          "time": 89.99990999999999,
          "velocity": 0.7874015748031497
        },
        {
          "duration": 0.05769225000000233,
          "durationTicks": 48,
          "midi": 38,
          "name": "D2",
          "ticks": 74880,
          "time": 89.99990999999999,
          "velocity": 0.7874015748031497
        },
        {
          "duration": 0.05769225000000233,
          "durationTicks": 48,
          "midi": 54,
          "name": "F#3",
          "ticks": 75264,
          "time": 90.46144799999999,
          "velocity": 0.7874015748031497
        },
        {
          "duration": 0.05769225000000233,
          "durationTicks": 48,
          "midi": 42,
          "name": "F#2",
          "ticks": 75264,
          "time": 90.46144799999999,
          "velocity": 0.7874015748031497
        },
        {
          "duration": 0.05769225000000233,
          "durationTicks": 48,
          "midi": 36,
          "name": "C2",
          "ticks": 75264,
          "time": 90.46144799999999,
          "velocity": 0.7874015748031497
        },
        {
          "duration": 0.05769225000000233,
          "durationTicks": 48,
          "midi": 54,
          "name": "F#3",
          "ticks": 75648,
          "time": 90.92298599999998,
          "velocity": 0.7874015748031497
        },
        {
          "duration": 0.05769225000000233,
          "durationTicks": 48,
          "midi": 42,
          "name": "F#2",
          "ticks": 75648,
          "time": 90.92298599999998,
          "velocity": 0.7874015748031497
        },
        {
          "duration": 0.05769225000000233,
          "durationTicks": 48,
          "midi": 38,
          "name": "D2",
          "ticks": 75648,
          "time": 90.92298599999998,
          "velocity": 0.7874015748031497
        },
        {
          "duration": 0.05769224999998812,
          "durationTicks": 48,
          "midi": 54,
          "name": "F#3",
          "ticks": 76032,
          "time": 91.384524,
          "velocity": 0.7874015748031497
        },
        {
          "duration": 0.05769224999998812,
          "durationTicks": 48,
          "midi": 42,
          "name": "F#2",
          "ticks": 76032,
          "time": 91.384524,
          "velocity": 0.7874015748031497
        },
        {
          "duration": 0.05769224999998812,
          "durationTicks": 48,
          "midi": 36,
          "name": "C2",
          "ticks": 76032,
          "time": 91.384524,
          "velocity": 0.7874015748031497
        },
        {
          "duration": 0.05769225000000233,
          "durationTicks": 48,
          "midi": 54,
          "name": "F#3",
          "ticks": 76416,
          "time": 91.84606199999999,
          "velocity": 0.7874015748031497
        },
        {
          "duration": 0.05769225000000233,
          "durationTicks": 48,
          "midi": 42,
          "name": "F#2",
          "ticks": 76416,
          "time": 91.84606199999999,
          "velocity": 0.7874015748031497
        },
        {
          "duration": 0.05769225000000233,
          "durationTicks": 48,
          "midi": 38,
          "name": "D2",
          "ticks": 76416,
          "time": 91.84606199999999,
          "velocity": 0.7874015748031497
        },
        {
          "duration": 0.05769225000000233,
          "durationTicks": 48,
          "midi": 54,
          "name": "F#3",
          "ticks": 76800,
          "time": 92.30759999999998,
          "velocity": 0.7874015748031497
        },
        {
          "duration": 0.05769225000000233,
          "durationTicks": 48,
          "midi": 42,
          "name": "F#2",
          "ticks": 76800,
          "time": 92.30759999999998,
          "velocity": 0.7874015748031497
        },
        {
          "duration": 0.05769225000000233,
          "durationTicks": 48,
          "midi": 36,
          "name": "C2",
          "ticks": 76800,
          "time": 92.30759999999998,
          "velocity": 0.7874015748031497
        },
        {
          "duration": 0.05769224999998812,
          "durationTicks": 48,
          "midi": 54,
          "name": "F#3",
          "ticks": 77184,
          "time": 92.769138,
          "velocity": 0.7874015748031497
        },
        {
          "duration": 0.05769224999998812,
          "durationTicks": 48,
          "midi": 42,
          "name": "F#2",
          "ticks": 77184,
          "time": 92.769138,
          "velocity": 0.7874015748031497
        },
        {
          "duration": 0.05769224999998812,
          "durationTicks": 48,
          "midi": 38,
          "name": "D2",
          "ticks": 77184,
          "time": 92.769138,
          "velocity": 0.7874015748031497
        },
        {
          "duration": 0.05769225000000233,
          "durationTicks": 48,
          "midi": 54,
          "name": "F#3",
          "ticks": 77568,
          "time": 93.23067599999999,
          "velocity": 0.7874015748031497
        },
        {
          "duration": 0.05769225000000233,
          "durationTicks": 48,
          "midi": 42,
          "name": "F#2",
          "ticks": 77568,
          "time": 93.23067599999999,
          "velocity": 0.7874015748031497
        },
        {
          "duration": 0.05769225000000233,
          "durationTicks": 48,
          "midi": 36,
          "name": "C2",
          "ticks": 77568,
          "time": 93.23067599999999,
          "velocity": 0.7874015748031497
        },
        {
          "duration": 0.05769225000000233,
          "durationTicks": 48,
          "midi": 54,
          "name": "F#3",
          "ticks": 77952,
          "time": 93.69221399999998,
          "velocity": 0.7874015748031497
        },
        {
          "duration": 0.05769225000000233,
          "durationTicks": 48,
          "midi": 42,
          "name": "F#2",
          "ticks": 77952,
          "time": 93.69221399999998,
          "velocity": 0.7874015748031497
        },
        {
          "duration": 0.05769225000000233,
          "durationTicks": 48,
          "midi": 38,
          "name": "D2",
          "ticks": 77952,
          "time": 93.69221399999998,
          "velocity": 0.7874015748031497
        },
        {
          "duration": 0.05769224999998812,
          "durationTicks": 48,
          "midi": 54,
          "name": "F#3",
          "ticks": 78336,
          "time": 94.153752,
          "velocity": 0.7874015748031497
        },
        {
          "duration": 0.05769224999998812,
          "durationTicks": 48,
          "midi": 42,
          "name": "F#2",
          "ticks": 78336,
          "time": 94.153752,
          "velocity": 0.7874015748031497
        },
        {
          "duration": 0.05769224999998812,
          "durationTicks": 48,
          "midi": 36,
          "name": "C2",
          "ticks": 78336,
          "time": 94.153752,
          "velocity": 0.7874015748031497
        },
        {
          "duration": 0.05769225000000233,
          "durationTicks": 48,
          "midi": 54,
          "name": "F#3",
          "ticks": 78720,
          "time": 94.61528999999999,
          "velocity": 0.7874015748031497
        },
        {
          "duration": 0.05769225000000233,
          "durationTicks": 48,
          "midi": 42,
          "name": "F#2",
          "ticks": 78720,
          "time": 94.61528999999999,
          "velocity": 0.7874015748031497
        },
        {
          "duration": 0.05769225000000233,
          "durationTicks": 48,
          "midi": 38,
          "name": "D2",
          "ticks": 78720,
          "time": 94.61528999999999,
          "velocity": 0.7874015748031497
        },
        {
          "duration": 0.05769225000000233,
          "durationTicks": 48,
          "midi": 54,
          "name": "F#3",
          "ticks": 79104,
          "time": 95.07682799999998,
          "velocity": 0.7874015748031497
        },
        {
          "duration": 0.05769225000000233,
          "durationTicks": 48,
          "midi": 42,
          "name": "F#2",
          "ticks": 79104,
          "time": 95.07682799999998,
          "velocity": 0.7874015748031497
        },
        {
          "duration": 0.05769225000000233,
          "durationTicks": 48,
          "midi": 36,
          "name": "C2",
          "ticks": 79104,
          "time": 95.07682799999998,
          "velocity": 0.7874015748031497
        },
        {
          "duration": 0.05769224999998812,
          "durationTicks": 48,
          "midi": 54,
          "name": "F#3",
          "ticks": 79488,
          "time": 95.538366,
          "velocity": 0.7874015748031497
        },
        {
          "duration": 0.05769224999998812,
          "durationTicks": 48,
          "midi": 42,
          "name": "F#2",
          "ticks": 79488,
          "time": 95.538366,
          "velocity": 0.7874015748031497
        },
        {
          "duration": 0.05769224999998812,
          "durationTicks": 48,
          "midi": 38,
          "name": "D2",
          "ticks": 79488,
          "time": 95.538366,
          "velocity": 0.7874015748031497
        },
        {
          "duration": 0.05769225000000233,
          "durationTicks": 48,
          "midi": 70,
          "name": "A#4",
          "ticks": 79872,
          "time": 95.99990399999999,
          "velocity": 0.7874015748031497
        },
        {
          "duration": 0.05769225000000233,
          "durationTicks": 48,
          "midi": 54,
          "name": "F#3",
          "ticks": 79872,
          "time": 95.99990399999999,
          "velocity": 0.7874015748031497
        },
        {
          "duration": 0.05769225000000233,
          "durationTicks": 48,
          "midi": 42,
          "name": "F#2",
          "ticks": 79872,
          "time": 95.99990399999999,
          "velocity": 0.7874015748031497
        },
        {
          "duration": 0.05769225000000233,
          "durationTicks": 48,
          "midi": 36,
          "name": "C2",
          "ticks": 79872,
          "time": 95.99990399999999,
          "velocity": 0.7874015748031497
        },
        {
          "duration": 0.05769225000000233,
          "durationTicks": 48,
          "midi": 70,
          "name": "A#4",
          "ticks": 79936,
          "time": 96.07682699999998,
          "velocity": 0.7874015748031497
        },
        {
          "duration": 0.05769224999998812,
          "durationTicks": 48,
          "midi": 70,
          "name": "A#4",
          "ticks": 80000,
          "time": 96.15374999999999,
          "velocity": 0.7874015748031497
        },
        {
          "duration": 0.05769225000000233,
          "durationTicks": 48,
          "midi": 70,
          "name": "A#4",
          "ticks": 80064,
          "time": 96.230673,
          "velocity": 0.7874015748031497
        },
        {
          "duration": 0.05769225000000233,
          "durationTicks": 48,
          "midi": 70,
          "name": "A#4",
          "ticks": 80128,
          "time": 96.30759599999999,
          "velocity": 0.7874015748031497
        },
        {
          "duration": 0.05769225000000233,
          "durationTicks": 48,
          "midi": 70,
          "name": "A#4",
          "ticks": 80192,
          "time": 96.38451899999998,
          "velocity": 0.7874015748031497
        },
        {
          "duration": 0.05769224999998812,
          "durationTicks": 48,
          "midi": 70,
          "name": "A#4",
          "ticks": 80256,
          "time": 96.46144199999999,
          "velocity": 0.7874015748031497
        },
        {
          "duration": 0.05769224999998812,
          "durationTicks": 48,
          "midi": 54,
          "name": "F#3",
          "ticks": 80256,
          "time": 96.46144199999999,
          "velocity": 0.7874015748031497
        },
        {
          "duration": 0.05769224999998812,
          "durationTicks": 48,
          "midi": 42,
          "name": "F#2",
          "ticks": 80256,
          "time": 96.46144199999999,
          "velocity": 0.7874015748031497
        },
        {
          "duration": 0.05769224999998812,
          "durationTicks": 48,
          "midi": 38,
          "name": "D2",
          "ticks": 80256,
          "time": 96.46144199999999,
          "velocity": 0.7874015748031497
        },
        {
          "duration": 0.05769224999998812,
          "durationTicks": 48,
          "midi": 70,
          "name": "A#4",
          "ticks": 80320,
          "time": 96.538365,
          "velocity": 0.7874015748031497
        },
        {
          "duration": 0.05769225000000233,
          "durationTicks": 48,
          "midi": 70,
          "name": "A#4",
          "ticks": 80384,
          "time": 96.61528799999999,
          "velocity": 0.7874015748031497
        },
        {
          "duration": 0.05769225000000233,
          "durationTicks": 48,
          "midi": 70,
          "name": "A#4",
          "ticks": 80448,
          "time": 96.69221099999999,
          "velocity": 0.7874015748031497
        },
        {
          "duration": 0.05769225000000233,
          "durationTicks": 48,
          "midi": 70,
          "name": "A#4",
          "ticks": 80512,
          "time": 96.76913399999998,
          "velocity": 0.7874015748031497
        },
        {
          "duration": 0.05769224999998812,
          "durationTicks": 48,
          "midi": 70,
          "name": "A#4",
          "ticks": 80576,
          "time": 96.84605699999999,
          "velocity": 0.7874015748031497
        },
        {
          "duration": 0.05769225000000233,
          "durationTicks": 48,
          "midi": 70,
          "name": "A#4",
          "ticks": 80640,
          "time": 96.92298,
          "velocity": 0.7874015748031497
        },
        {
          "duration": 0.05769225000000233,
          "durationTicks": 48,
          "midi": 54,
          "name": "F#3",
          "ticks": 80640,
          "time": 96.92298,
          "velocity": 0.7874015748031497
        },
        {
          "duration": 0.05769225000000233,
          "durationTicks": 48,
          "midi": 42,
          "name": "F#2",
          "ticks": 80640,
          "time": 96.92298,
          "velocity": 0.7874015748031497
        },
        {
          "duration": 0.05769225000000233,
          "durationTicks": 48,
          "midi": 36,
          "name": "C2",
          "ticks": 80640,
          "time": 96.92298,
          "velocity": 0.7874015748031497
        },
        {
          "duration": 0.05769225000000233,
          "durationTicks": 48,
          "midi": 70,
          "name": "A#4",
          "ticks": 80704,
          "time": 96.99990299999999,
          "velocity": 0.7874015748031497
        },
        {
          "duration": 0.05769225000000233,
          "durationTicks": 48,
          "midi": 70,
          "name": "A#4",
          "ticks": 80768,
          "time": 97.07682599999998,
          "velocity": 0.7874015748031497
        },
        {
          "duration": 0.05769224999998812,
          "durationTicks": 48,
          "midi": 70,
          "name": "A#4",
          "ticks": 80832,
          "time": 97.15374899999999,
          "velocity": 0.7874015748031497
        },
        {
          "duration": 0.05769224999998812,
          "durationTicks": 48,
          "midi": 70,
          "name": "A#4",
          "ticks": 80896,
          "time": 97.230672,
          "velocity": 0.7874015748031497
        },
        {
          "duration": 0.05769225000000233,
          "durationTicks": 48,
          "midi": 70,
          "name": "A#4",
          "ticks": 80960,
          "time": 97.30759499999999,
          "velocity": 0.7874015748031497
        },
        {
          "duration": 0.05769225000000233,
          "durationTicks": 48,
          "midi": 54,
          "name": "F#3",
          "ticks": 81024,
          "time": 97.38451799999999,
          "velocity": 0.7874015748031497
        },
        {
          "duration": 0.05769225000000233,
          "durationTicks": 48,
          "midi": 42,
          "name": "F#2",
          "ticks": 81024,
          "time": 97.38451799999999,
          "velocity": 0.7874015748031497
        },
        {
          "duration": 0.05769225000000233,
          "durationTicks": 48,
          "midi": 38,
          "name": "D2",
          "ticks": 81024,
          "time": 97.38451799999999,
          "velocity": 0.7874015748031497
        },
        {
          "duration": 0.05769224999998812,
          "durationTicks": 48,
          "midi": 54,
          "name": "F#3",
          "ticks": 81408,
          "time": 97.84605599999999,
          "velocity": 0.7874015748031497
        },
        {
          "duration": 0.05769224999998812,
          "durationTicks": 48,
          "midi": 42,
          "name": "F#2",
          "ticks": 81408,
          "time": 97.84605599999999,
          "velocity": 0.7874015748031497
        },
        {
          "duration": 0.05769224999998812,
          "durationTicks": 48,
          "midi": 36,
          "name": "C2",
          "ticks": 81408,
          "time": 97.84605599999999,
          "velocity": 0.7874015748031497
        },
        {
          "duration": 0.05769225000000233,
          "durationTicks": 48,
          "midi": 54,
          "name": "F#3",
          "ticks": 81792,
          "time": 98.307594,
          "velocity": 0.7874015748031497
        },
        {
          "duration": 0.05769225000000233,
          "durationTicks": 48,
          "midi": 42,
          "name": "F#2",
          "ticks": 81792,
          "time": 98.307594,
          "velocity": 0.7874015748031497
        },
        {
          "duration": 0.05769225000000233,
          "durationTicks": 48,
          "midi": 38,
          "name": "D2",
          "ticks": 81792,
          "time": 98.307594,
          "velocity": 0.7874015748031497
        },
        {
          "duration": 0.05769225000000233,
          "durationTicks": 48,
          "midi": 54,
          "name": "F#3",
          "ticks": 82176,
          "time": 98.76913199999998,
          "velocity": 0.7874015748031497
        },
        {
          "duration": 0.05769225000000233,
          "durationTicks": 48,
          "midi": 42,
          "name": "F#2",
          "ticks": 82176,
          "time": 98.76913199999998,
          "velocity": 0.7874015748031497
        },
        {
          "duration": 0.05769225000000233,
          "durationTicks": 48,
          "midi": 36,
          "name": "C2",
          "ticks": 82176,
          "time": 98.76913199999998,
          "velocity": 0.7874015748031497
        },
        {
          "duration": 0.05769224999998812,
          "durationTicks": 48,
          "midi": 54,
          "name": "F#3",
          "ticks": 82560,
          "time": 99.23066999999999,
          "velocity": 0.7874015748031497
        },
        {
          "duration": 0.05769224999998812,
          "durationTicks": 48,
          "midi": 42,
          "name": "F#2",
          "ticks": 82560,
          "time": 99.23066999999999,
          "velocity": 0.7874015748031497
        },
        {
          "duration": 0.05769224999998812,
          "durationTicks": 48,
          "midi": 38,
          "name": "D2",
          "ticks": 82560,
          "time": 99.23066999999999,
          "velocity": 0.7874015748031497
        },
        {
          "duration": 0.05769225000000233,
          "durationTicks": 48,
          "midi": 54,
          "name": "F#3",
          "ticks": 82944,
          "time": 99.692208,
          "velocity": 0.7874015748031497
        },
        {
          "duration": 0.05769225000000233,
          "durationTicks": 48,
          "midi": 42,
          "name": "F#2",
          "ticks": 82944,
          "time": 99.692208,
          "velocity": 0.7874015748031497
        },
        {
          "duration": 0.05769225000000233,
          "durationTicks": 48,
          "midi": 36,
          "name": "C2",
          "ticks": 82944,
          "time": 99.692208,
          "velocity": 0.7874015748031497
        },
        {
          "duration": 0.05769225000000233,
          "durationTicks": 48,
          "midi": 70,
          "name": "A#4",
          "ticks": 82944,
          "time": 99.692208,
          "velocity": 0.7874015748031497
        },
        {
          "duration": 0.05769225000000233,
          "durationTicks": 48,
          "midi": 70,
          "name": "A#4",
          "ticks": 83008,
          "time": 99.76913099999999,
          "velocity": 0.7874015748031497
        },
        {
          "duration": 0.05769225000000233,
          "durationTicks": 48,
          "midi": 70,
          "name": "A#4",
          "ticks": 83072,
          "time": 99.84605399999998,
          "velocity": 0.7874015748031497
        },
        {
          "duration": 0.05769224999998812,
          "durationTicks": 48,
          "midi": 70,
          "name": "A#4",
          "ticks": 83136,
          "time": 99.92297699999999,
          "velocity": 0.7874015748031497
        },
        {
          "duration": 0.05769225000000233,
          "durationTicks": 48,
          "midi": 70,
          "name": "A#4",
          "ticks": 83200,
          "time": 99.9999,
          "velocity": 0.7874015748031497
        },
        {
          "duration": 0.05769225000000233,
          "durationTicks": 48,
          "midi": 70,
          "name": "A#4",
          "ticks": 83264,
          "time": 100.07682299999999,
          "velocity": 0.7874015748031497
        },
        {
          "duration": 0.05769225000000233,
          "durationTicks": 48,
          "midi": 54,
          "name": "F#3",
          "ticks": 83328,
          "time": 100.15374599999998,
          "velocity": 0.7874015748031497
        },
        {
          "duration": 0.05769225000000233,
          "durationTicks": 48,
          "midi": 42,
          "name": "F#2",
          "ticks": 83328,
          "time": 100.15374599999998,
          "velocity": 0.7874015748031497
        },
        {
          "duration": 0.05769225000000233,
          "durationTicks": 48,
          "midi": 38,
          "name": "D2",
          "ticks": 83328,
          "time": 100.15374599999998,
          "velocity": 0.7874015748031497
        },
        {
          "duration": 0.05769225000000233,
          "durationTicks": 48,
          "midi": 70,
          "name": "A#4",
          "ticks": 83328,
          "time": 100.15374599999998,
          "velocity": 0.7874015748031497
        },
        {
          "duration": 0.05769224999998812,
          "durationTicks": 48,
          "midi": 70,
          "name": "A#4",
          "ticks": 83392,
          "time": 100.23066899999999,
          "velocity": 0.7874015748031497
        },
        {
          "duration": 0.05769225000000233,
          "durationTicks": 48,
          "midi": 70,
          "name": "A#4",
          "ticks": 83456,
          "time": 100.30759199999999,
          "velocity": 0.7874015748031497
        },
        {
          "duration": 0.05769225000000233,
          "durationTicks": 48,
          "midi": 70,
          "name": "A#4",
          "ticks": 83520,
          "time": 100.384515,
          "velocity": 0.7874015748031497
        },
        {
          "duration": 0.05769225000000233,
          "durationTicks": 48,
          "midi": 70,
          "name": "A#4",
          "ticks": 83584,
          "time": 100.46143799999999,
          "velocity": 0.7874015748031497
        },
        {
          "duration": 0.05769225000000233,
          "durationTicks": 48,
          "midi": 70,
          "name": "A#4",
          "ticks": 83648,
          "time": 100.53836099999998,
          "velocity": 0.7874015748031497
        },
        {
          "duration": 0.05769225000000233,
          "durationTicks": 48,
          "midi": 54,
          "name": "F#3",
          "ticks": 83712,
          "time": 100.61528399999999,
          "velocity": 0.7874015748031497
        },
        {
          "duration": 0.05769225000000233,
          "durationTicks": 48,
          "midi": 42,
          "name": "F#2",
          "ticks": 83712,
          "time": 100.61528399999999,
          "velocity": 0.7874015748031497
        },
        {
          "duration": 0.05769225000000233,
          "durationTicks": 48,
          "midi": 36,
          "name": "C2",
          "ticks": 83712,
          "time": 100.61528399999999,
          "velocity": 0.7874015748031497
        },
        {
          "duration": 0.05769225000000233,
          "durationTicks": 48,
          "midi": 70,
          "name": "A#4",
          "ticks": 83712,
          "time": 100.61528399999999,
          "velocity": 0.7874015748031497
        },
        {
          "duration": 0.05769225000000233,
          "durationTicks": 48,
          "midi": 70,
          "name": "A#4",
          "ticks": 83776,
          "time": 100.692207,
          "velocity": 0.7874015748031497
        },
        {
          "duration": 0.05769225000000233,
          "durationTicks": 48,
          "midi": 70,
          "name": "A#4",
          "ticks": 83840,
          "time": 100.76912999999999,
          "velocity": 0.7874015748031497
        },
        {
          "duration": 0.05769225000000233,
          "durationTicks": 48,
          "midi": 70,
          "name": "A#4",
          "ticks": 83904,
          "time": 100.84605299999998,
          "velocity": 0.7874015748031497
        },
        {
          "duration": 0.05769224999998812,
          "durationTicks": 48,
          "midi": 70,
          "name": "A#4",
          "ticks": 83968,
          "time": 100.92297599999999,
          "velocity": 0.7874015748031497
        },
        {
          "duration": 0.05769225000000233,
          "durationTicks": 48,
          "midi": 70,
          "name": "A#4",
          "ticks": 84032,
          "time": 100.99989899999998,
          "velocity": 0.7874015748031497
        },
        {
          "duration": 0.05769225000000233,
          "durationTicks": 48,
          "midi": 54,
          "name": "F#3",
          "ticks": 84096,
          "time": 101.07682199999999,
          "velocity": 0.7874015748031497
        },
        {
          "duration": 0.05769225000000233,
          "durationTicks": 48,
          "midi": 42,
          "name": "F#2",
          "ticks": 84096,
          "time": 101.07682199999999,
          "velocity": 0.7874015748031497
        },
        {
          "duration": 0.05769225000000233,
          "durationTicks": 48,
          "midi": 38,
          "name": "D2",
          "ticks": 84096,
          "time": 101.07682199999999,
          "velocity": 0.7874015748031497
        },
        {
          "duration": 0.05769225000000233,
          "durationTicks": 48,
          "midi": 54,
          "name": "F#3",
          "ticks": 84480,
          "time": 101.53835999999998,
          "velocity": 0.7874015748031497
        },
        {
          "duration": 0.05769225000000233,
          "durationTicks": 48,
          "midi": 42,
          "name": "F#2",
          "ticks": 84480,
          "time": 101.53835999999998,
          "velocity": 0.7874015748031497
        },
        {
          "duration": 0.05769225000000233,
          "durationTicks": 48,
          "midi": 36,
          "name": "C2",
          "ticks": 84480,
          "time": 101.53835999999998,
          "velocity": 0.7874015748031497
        },
        {
          "duration": 0.05769225000000233,
          "durationTicks": 48,
          "midi": 54,
          "name": "F#3",
          "ticks": 84864,
          "time": 101.99989799999999,
          "velocity": 0.7874015748031497
        },
        {
          "duration": 0.05769225000000233,
          "durationTicks": 48,
          "midi": 42,
          "name": "F#2",
          "ticks": 84864,
          "time": 101.99989799999999,
          "velocity": 0.7874015748031497
        },
        {
          "duration": 0.05769225000000233,
          "durationTicks": 48,
          "midi": 38,
          "name": "D2",
          "ticks": 84864,
          "time": 101.99989799999999,
          "velocity": 0.7874015748031497
        },
        {
          "duration": 0.05769225000000233,
          "durationTicks": 48,
          "midi": 54,
          "name": "F#3",
          "ticks": 85248,
          "time": 102.46143599999999,
          "velocity": 0.7874015748031497
        },
        {
          "duration": 0.05769225000000233,
          "durationTicks": 48,
          "midi": 42,
          "name": "F#2",
          "ticks": 85248,
          "time": 102.46143599999999,
          "velocity": 0.7874015748031497
        },
        {
          "duration": 0.05769225000000233,
          "durationTicks": 48,
          "midi": 36,
          "name": "C2",
          "ticks": 85248,
          "time": 102.46143599999999,
          "velocity": 0.7874015748031497
        },
        {
          "duration": 0.05769225000000233,
          "durationTicks": 48,
          "midi": 54,
          "name": "F#3",
          "ticks": 85632,
          "time": 102.92297399999998,
          "velocity": 0.7874015748031497
        },
        {
          "duration": 0.05769225000000233,
          "durationTicks": 48,
          "midi": 42,
          "name": "F#2",
          "ticks": 85632,
          "time": 102.92297399999998,
          "velocity": 0.7874015748031497
        },
        {
          "duration": 0.05769225000000233,
          "durationTicks": 48,
          "midi": 38,
          "name": "D2",
          "ticks": 85632,
          "time": 102.92297399999998,
          "velocity": 0.7874015748031497
        },
        {
          "duration": 0.05769225000000233,
          "durationTicks": 48,
          "midi": 54,
          "name": "F#3",
          "ticks": 86016,
          "time": 103.38451199999999,
          "velocity": 0.7874015748031497
        },
        {
          "duration": 0.05769225000000233,
          "durationTicks": 48,
          "midi": 42,
          "name": "F#2",
          "ticks": 86016,
          "time": 103.38451199999999,
          "velocity": 0.7874015748031497
        },
        {
          "duration": 0.05769225000000233,
          "durationTicks": 48,
          "midi": 36,
          "name": "C2",
          "ticks": 86016,
          "time": 103.38451199999999,
          "velocity": 0.7874015748031497
        },
        {
          "duration": 0.05769225000000233,
          "durationTicks": 48,
          "midi": 70,
          "name": "A#4",
          "ticks": 86016,
          "time": 103.38451199999999,
          "velocity": 0.7874015748031497
        },
        {
          "duration": 0.05769225000000233,
          "durationTicks": 48,
          "midi": 70,
          "name": "A#4",
          "ticks": 86080,
          "time": 103.46143499999998,
          "velocity": 0.7874015748031497
        },
        {
          "duration": 0.05769225000000233,
          "durationTicks": 48,
          "midi": 70,
          "name": "A#4",
          "ticks": 86144,
          "time": 103.53835799999999,
          "velocity": 0.7874015748031497
        },
        {
          "duration": 0.05769225000000233,
          "durationTicks": 48,
          "midi": 70,
          "name": "A#4",
          "ticks": 86208,
          "time": 103.61528099999998,
          "velocity": 0.7874015748031497
        },
        {
          "duration": 0.05769225000000233,
          "durationTicks": 48,
          "midi": 70,
          "name": "A#4",
          "ticks": 86272,
          "time": 103.69220399999999,
          "velocity": 0.7874015748031497
        },
        {
          "duration": 0.05769225000000233,
          "durationTicks": 48,
          "midi": 70,
          "name": "A#4",
          "ticks": 86336,
          "time": 103.76912699999998,
          "velocity": 0.7874015748031497
        },
        {
          "duration": 0.05769225000000233,
          "durationTicks": 48,
          "midi": 54,
          "name": "F#3",
          "ticks": 86400,
          "time": 103.84604999999999,
          "velocity": 0.7874015748031497
        },
        {
          "duration": 0.05769225000000233,
          "durationTicks": 48,
          "midi": 42,
          "name": "F#2",
          "ticks": 86400,
          "time": 103.84604999999999,
          "velocity": 0.7874015748031497
        },
        {
          "duration": 0.05769225000000233,
          "durationTicks": 48,
          "midi": 38,
          "name": "D2",
          "ticks": 86400,
          "time": 103.84604999999999,
          "velocity": 0.7874015748031497
        },
        {
          "duration": 0.05769225000000233,
          "durationTicks": 48,
          "midi": 70,
          "name": "A#4",
          "ticks": 86400,
          "time": 103.84604999999999,
          "velocity": 0.7874015748031497
        },
        {
          "duration": 0.05769225000000233,
          "durationTicks": 48,
          "midi": 70,
          "name": "A#4",
          "ticks": 86464,
          "time": 103.92297299999998,
          "velocity": 0.7874015748031497
        },
        {
          "duration": 0.05769224999998812,
          "durationTicks": 48,
          "midi": 70,
          "name": "A#4",
          "ticks": 86528,
          "time": 103.99989599999999,
          "velocity": 0.7874015748031497
        },
        {
          "duration": 0.05769225000000233,
          "durationTicks": 48,
          "midi": 70,
          "name": "A#4",
          "ticks": 86592,
          "time": 104.07681899999999,
          "velocity": 0.7874015748031497
        },
        {
          "duration": 0.05769225000000233,
          "durationTicks": 48,
          "midi": 70,
          "name": "A#4",
          "ticks": 86656,
          "time": 104.15374199999998,
          "velocity": 0.7874015748031497
        },
        {
          "duration": 0.05769225000000233,
          "durationTicks": 48,
          "midi": 70,
          "name": "A#4",
          "ticks": 86720,
          "time": 104.23066499999999,
          "velocity": 0.7874015748031497
        },
        {
          "duration": 0.05769225000000233,
          "durationTicks": 48,
          "midi": 54,
          "name": "F#3",
          "ticks": 86784,
          "time": 104.30758799999998,
          "velocity": 0.7874015748031497
        },
        {
          "duration": 0.05769225000000233,
          "durationTicks": 48,
          "midi": 42,
          "name": "F#2",
          "ticks": 86784,
          "time": 104.30758799999998,
          "velocity": 0.7874015748031497
        },
        {
          "duration": 0.05769225000000233,
          "durationTicks": 48,
          "midi": 36,
          "name": "C2",
          "ticks": 86784,
          "time": 104.30758799999998,
          "velocity": 0.7874015748031497
        },
        {
          "duration": 0.05769225000000233,
          "durationTicks": 48,
          "midi": 70,
          "name": "A#4",
          "ticks": 86784,
          "time": 104.30758799999998,
          "velocity": 0.7874015748031497
        },
        {
          "duration": 0.05769225000000233,
          "durationTicks": 48,
          "midi": 70,
          "name": "A#4",
          "ticks": 86848,
          "time": 104.38451099999999,
          "velocity": 0.7874015748031497
        },
        {
          "duration": 0.05769225000000233,
          "durationTicks": 48,
          "midi": 70,
          "name": "A#4",
          "ticks": 86912,
          "time": 104.46143399999998,
          "velocity": 0.7874015748031497
        },
        {
          "duration": 0.05769225000000233,
          "durationTicks": 48,
          "midi": 70,
          "name": "A#4",
          "ticks": 86976,
          "time": 104.53835699999999,
          "velocity": 0.7874015748031497
        },
        {
          "duration": 0.05769225000000233,
          "durationTicks": 48,
          "midi": 70,
          "name": "A#4",
          "ticks": 87040,
          "time": 104.61527999999998,
          "velocity": 0.7874015748031497
        },
        {
          "duration": 0.05769224999998812,
          "durationTicks": 48,
          "midi": 70,
          "name": "A#4",
          "ticks": 87104,
          "time": 104.69220299999999,
          "velocity": 0.7874015748031497
        },
        {
          "duration": 0.05769225000000233,
          "durationTicks": 48,
          "midi": 54,
          "name": "F#3",
          "ticks": 87168,
          "time": 104.76912599999999,
          "velocity": 0.7874015748031497
        },
        {
          "duration": 0.05769225000000233,
          "durationTicks": 48,
          "midi": 42,
          "name": "F#2",
          "ticks": 87168,
          "time": 104.76912599999999,
          "velocity": 0.7874015748031497
        },
        {
          "duration": 0.05769225000000233,
          "durationTicks": 48,
          "midi": 38,
          "name": "D2",
          "ticks": 87168,
          "time": 104.76912599999999,
          "velocity": 0.7874015748031497
        },
        {
          "duration": 0.05769225000000233,
          "durationTicks": 48,
          "midi": 54,
          "name": "F#3",
          "ticks": 87552,
          "time": 105.23066399999999,
          "velocity": 0.7874015748031497
        },
        {
          "duration": 0.05769225000000233,
          "durationTicks": 48,
          "midi": 42,
          "name": "F#2",
          "ticks": 87552,
          "time": 105.23066399999999,
          "velocity": 0.7874015748031497
        },
        {
          "duration": 0.05769225000000233,
          "durationTicks": 48,
          "midi": 36,
          "name": "C2",
          "ticks": 87552,
          "time": 105.23066399999999,
          "velocity": 0.7874015748031497
        },
        {
          "duration": 0.05769225000000233,
          "durationTicks": 48,
          "midi": 54,
          "name": "F#3",
          "ticks": 87936,
          "time": 105.69220199999998,
          "velocity": 0.7874015748031497
        },
        {
          "duration": 0.05769225000000233,
          "durationTicks": 48,
          "midi": 42,
          "name": "F#2",
          "ticks": 87936,
          "time": 105.69220199999998,
          "velocity": 0.7874015748031497
        },
        {
          "duration": 0.05769225000000233,
          "durationTicks": 48,
          "midi": 38,
          "name": "D2",
          "ticks": 87936,
          "time": 105.69220199999998,
          "velocity": 0.7874015748031497
        },
        {
          "duration": 0.05769225000000233,
          "durationTicks": 48,
          "midi": 54,
          "name": "F#3",
          "ticks": 88320,
          "time": 106.15373999999998,
          "velocity": 0.7874015748031497
        },
        {
          "duration": 0.05769225000000233,
          "durationTicks": 48,
          "midi": 42,
          "name": "F#2",
          "ticks": 88320,
          "time": 106.15373999999998,
          "velocity": 0.7874015748031497
        },
        {
          "duration": 0.05769225000000233,
          "durationTicks": 48,
          "midi": 36,
          "name": "C2",
          "ticks": 88320,
          "time": 106.15373999999998,
          "velocity": 0.7874015748031497
        },
        {
          "duration": 0.05769225000000233,
          "durationTicks": 48,
          "midi": 54,
          "name": "F#3",
          "ticks": 88704,
          "time": 106.61527799999999,
          "velocity": 0.7874015748031497
        },
        {
          "duration": 0.05769225000000233,
          "durationTicks": 48,
          "midi": 42,
          "name": "F#2",
          "ticks": 88704,
          "time": 106.61527799999999,
          "velocity": 0.7874015748031497
        },
        {
          "duration": 0.05769225000000233,
          "durationTicks": 48,
          "midi": 38,
          "name": "D2",
          "ticks": 88704,
          "time": 106.61527799999999,
          "velocity": 0.7874015748031497
        },
        {
          "duration": 0.05769225000000233,
          "durationTicks": 48,
          "midi": 54,
          "name": "F#3",
          "ticks": 89088,
          "time": 107.07681599999998,
          "velocity": 0.7874015748031497
        },
        {
          "duration": 0.05769225000000233,
          "durationTicks": 48,
          "midi": 42,
          "name": "F#2",
          "ticks": 89088,
          "time": 107.07681599999998,
          "velocity": 0.7874015748031497
        },
        {
          "duration": 0.05769225000000233,
          "durationTicks": 48,
          "midi": 36,
          "name": "C2",
          "ticks": 89088,
          "time": 107.07681599999998,
          "velocity": 0.7874015748031497
        },
        {
          "duration": 0.05769225000000233,
          "durationTicks": 48,
          "midi": 70,
          "name": "A#4",
          "ticks": 89088,
          "time": 107.07681599999998,
          "velocity": 0.7874015748031497
        },
        {
          "duration": 0.05769225000000233,
          "durationTicks": 48,
          "midi": 70,
          "name": "A#4",
          "ticks": 89152,
          "time": 107.15373899999999,
          "velocity": 0.7874015748031497
        },
        {
          "duration": 0.05769225000000233,
          "durationTicks": 48,
          "midi": 70,
          "name": "A#4",
          "ticks": 89216,
          "time": 107.23066199999998,
          "velocity": 0.7874015748031497
        },
        {
          "duration": 0.05769225000000233,
          "durationTicks": 48,
          "midi": 70,
          "name": "A#4",
          "ticks": 89280,
          "time": 107.30758499999999,
          "velocity": 0.7874015748031497
        },
        {
          "duration": 0.05769225000000233,
          "durationTicks": 48,
          "midi": 70,
          "name": "A#4",
          "ticks": 89344,
          "time": 107.38450799999998,
          "velocity": 0.7874015748031497
        },
        {
          "duration": 0.05769225000000233,
          "durationTicks": 48,
          "midi": 70,
          "name": "A#4",
          "ticks": 89408,
          "time": 107.46143099999999,
          "velocity": 0.7874015748031497
        },
        {
          "duration": 0.05769225000000233,
          "durationTicks": 48,
          "midi": 54,
          "name": "F#3",
          "ticks": 89472,
          "time": 107.53835399999998,
          "velocity": 0.7874015748031497
        },
        {
          "duration": 0.05769225000000233,
          "durationTicks": 48,
          "midi": 42,
          "name": "F#2",
          "ticks": 89472,
          "time": 107.53835399999998,
          "velocity": 0.7874015748031497
        },
        {
          "duration": 0.05769225000000233,
          "durationTicks": 48,
          "midi": 38,
          "name": "D2",
          "ticks": 89472,
          "time": 107.53835399999998,
          "velocity": 0.7874015748031497
        },
        {
          "duration": 0.05769225000000233,
          "durationTicks": 48,
          "midi": 70,
          "name": "A#4",
          "ticks": 89472,
          "time": 107.53835399999998,
          "velocity": 0.7874015748031497
        },
        {
          "duration": 0.05769224999998812,
          "durationTicks": 48,
          "midi": 70,
          "name": "A#4",
          "ticks": 89536,
          "time": 107.61527699999999,
          "velocity": 0.7874015748031497
        },
        {
          "duration": 0.05769225000000233,
          "durationTicks": 48,
          "midi": 70,
          "name": "A#4",
          "ticks": 89600,
          "time": 107.69219999999999,
          "velocity": 0.7874015748031497
        },
        {
          "duration": 0.05769225000000233,
          "durationTicks": 48,
          "midi": 70,
          "name": "A#4",
          "ticks": 89664,
          "time": 107.76912299999998,
          "velocity": 0.7874015748031497
        },
        {
          "duration": 0.05769225000000233,
          "durationTicks": 48,
          "midi": 70,
          "name": "A#4",
          "ticks": 89728,
          "time": 107.84604599999999,
          "velocity": 0.7874015748031497
        },
        {
          "duration": 0.05769225000000233,
          "durationTicks": 48,
          "midi": 70,
          "name": "A#4",
          "ticks": 89792,
          "time": 107.92296899999998,
          "velocity": 0.7874015748031497
        },
        {
          "duration": 0.05769225000000233,
          "durationTicks": 48,
          "midi": 54,
          "name": "F#3",
          "ticks": 89856,
          "time": 107.99989199999999,
          "velocity": 0.7874015748031497
        },
        {
          "duration": 0.05769225000000233,
          "durationTicks": 48,
          "midi": 42,
          "name": "F#2",
          "ticks": 89856,
          "time": 107.99989199999999,
          "velocity": 0.7874015748031497
        },
        {
          "duration": 0.05769225000000233,
          "durationTicks": 48,
          "midi": 36,
          "name": "C2",
          "ticks": 89856,
          "time": 107.99989199999999,
          "velocity": 0.7874015748031497
        },
        {
          "duration": 0.05769225000000233,
          "durationTicks": 48,
          "midi": 70,
          "name": "A#4",
          "ticks": 89856,
          "time": 107.99989199999999,
          "velocity": 0.7874015748031497
        },
        {
          "duration": 0.05769225000000233,
          "durationTicks": 48,
          "midi": 70,
          "name": "A#4",
          "ticks": 89920,
          "time": 108.07681499999998,
          "velocity": 0.7874015748031497
        },
        {
          "duration": 0.05769225000000233,
          "durationTicks": 48,
          "midi": 70,
          "name": "A#4",
          "ticks": 89984,
          "time": 108.15373799999999,
          "velocity": 0.7874015748031497
        },
        {
          "duration": 0.05769225000000233,
          "durationTicks": 48,
          "midi": 70,
          "name": "A#4",
          "ticks": 90048,
          "time": 108.23066099999998,
          "velocity": 0.7874015748031497
        },
        {
          "duration": 0.05769224999998812,
          "durationTicks": 48,
          "midi": 70,
          "name": "A#4",
          "ticks": 90112,
          "time": 108.30758399999999,
          "velocity": 0.7874015748031497
        },
        {
          "duration": 0.05769225000000233,
          "durationTicks": 48,
          "midi": 70,
          "name": "A#4",
          "ticks": 90176,
          "time": 108.38450699999999,
          "velocity": 0.7874015748031497
        },
        {
          "duration": 0.05769225000000233,
          "durationTicks": 48,
          "midi": 54,
          "name": "F#3",
          "ticks": 90240,
          "time": 108.46142999999998,
          "velocity": 0.7874015748031497
        },
        {
          "duration": 0.05769225000000233,
          "durationTicks": 48,
          "midi": 42,
          "name": "F#2",
          "ticks": 90240,
          "time": 108.46142999999998,
          "velocity": 0.7874015748031497
        },
        {
          "duration": 0.05769225000000233,
          "durationTicks": 48,
          "midi": 38,
          "name": "D2",
          "ticks": 90240,
          "time": 108.46142999999998,
          "velocity": 0.7874015748031497
        },
        {
          "duration": 0.05769225000000233,
          "durationTicks": 48,
          "midi": 54,
          "name": "F#3",
          "ticks": 90624,
          "time": 108.92296799999998,
          "velocity": 0.7874015748031497
        },
        {
          "duration": 0.05769225000000233,
          "durationTicks": 48,
          "midi": 42,
          "name": "F#2",
          "ticks": 90624,
          "time": 108.92296799999998,
          "velocity": 0.7874015748031497
        },
        {
          "duration": 0.05769225000000233,
          "durationTicks": 48,
          "midi": 36,
          "name": "C2",
          "ticks": 90624,
          "time": 108.92296799999998,
          "velocity": 0.7874015748031497
        },
        {
          "duration": 0.05769225000000233,
          "durationTicks": 48,
          "midi": 54,
          "name": "F#3",
          "ticks": 91008,
          "time": 109.38450599999999,
          "velocity": 0.7874015748031497
        },
        {
          "duration": 0.05769225000000233,
          "durationTicks": 48,
          "midi": 42,
          "name": "F#2",
          "ticks": 91008,
          "time": 109.38450599999999,
          "velocity": 0.7874015748031497
        },
        {
          "duration": 0.05769225000000233,
          "durationTicks": 48,
          "midi": 38,
          "name": "D2",
          "ticks": 91008,
          "time": 109.38450599999999,
          "velocity": 0.7874015748031497
        },
        {
          "duration": 0.05769224999998812,
          "durationTicks": 48,
          "midi": 54,
          "name": "F#3",
          "ticks": 91392,
          "time": 109.84604399999999,
          "velocity": 0.7874015748031497
        },
        {
          "duration": 0.05769224999998812,
          "durationTicks": 48,
          "midi": 42,
          "name": "F#2",
          "ticks": 91392,
          "time": 109.84604399999999,
          "velocity": 0.7874015748031497
        },
        {
          "duration": 0.05769224999998812,
          "durationTicks": 48,
          "midi": 36,
          "name": "C2",
          "ticks": 91392,
          "time": 109.84604399999999,
          "velocity": 0.7874015748031497
        },
        {
          "duration": 0.05769225000000233,
          "durationTicks": 48,
          "midi": 54,
          "name": "F#3",
          "ticks": 91776,
          "time": 110.30758199999998,
          "velocity": 0.7874015748031497
        },
        {
          "duration": 0.05769225000000233,
          "durationTicks": 48,
          "midi": 42,
          "name": "F#2",
          "ticks": 91776,
          "time": 110.30758199999998,
          "velocity": 0.7874015748031497
        },
        {
          "duration": 0.05769225000000233,
          "durationTicks": 48,
          "midi": 38,
          "name": "D2",
          "ticks": 91776,
          "time": 110.30758199999998,
          "velocity": 0.7874015748031497
        },
        {
          "duration": 0.05769225000000233,
          "durationTicks": 48,
          "midi": 54,
          "name": "F#3",
          "ticks": 92160,
          "time": 110.76911999999999,
          "velocity": 0.7874015748031497
        },
        {
          "duration": 0.05769225000000233,
          "durationTicks": 48,
          "midi": 42,
          "name": "F#2",
          "ticks": 92160,
          "time": 110.76911999999999,
          "velocity": 0.7874015748031497
        },
        {
          "duration": 0.05769225000000233,
          "durationTicks": 48,
          "midi": 36,
          "name": "C2",
          "ticks": 92160,
          "time": 110.76911999999999,
          "velocity": 0.7874015748031497
        },
        {
          "duration": 0.05769224999998812,
          "durationTicks": 48,
          "midi": 54,
          "name": "F#3",
          "ticks": 92544,
          "time": 111.23065799999999,
          "velocity": 0.7874015748031497
        },
        {
          "duration": 0.05769224999998812,
          "durationTicks": 48,
          "midi": 42,
          "name": "F#2",
          "ticks": 92544,
          "time": 111.23065799999999,
          "velocity": 0.7874015748031497
        },
        {
          "duration": 0.05769224999998812,
          "durationTicks": 48,
          "midi": 38,
          "name": "D2",
          "ticks": 92544,
          "time": 111.23065799999999,
          "velocity": 0.7874015748031497
        },
        {
          "duration": 0.05769225000000233,
          "durationTicks": 48,
          "midi": 54,
          "name": "F#3",
          "ticks": 92928,
          "time": 111.69219599999998,
          "velocity": 0.7874015748031497
        },
        {
          "duration": 0.05769225000000233,
          "durationTicks": 48,
          "midi": 42,
          "name": "F#2",
          "ticks": 92928,
          "time": 111.69219599999998,
          "velocity": 0.7874015748031497
        },
        {
          "duration": 0.05769225000000233,
          "durationTicks": 48,
          "midi": 36,
          "name": "C2",
          "ticks": 92928,
          "time": 111.69219599999998,
          "velocity": 0.7874015748031497
        },
        {
          "duration": 0.05769225000000233,
          "durationTicks": 48,
          "midi": 54,
          "name": "F#3",
          "ticks": 93312,
          "time": 112.15373399999999,
          "velocity": 0.7874015748031497
        },
        {
          "duration": 0.05769225000000233,
          "durationTicks": 48,
          "midi": 42,
          "name": "F#2",
          "ticks": 93312,
          "time": 112.15373399999999,
          "velocity": 0.7874015748031497
        },
        {
          "duration": 0.05769225000000233,
          "durationTicks": 48,
          "midi": 38,
          "name": "D2",
          "ticks": 93312,
          "time": 112.15373399999999,
          "velocity": 0.7874015748031497
        },
        {
          "duration": 0.05769224999998812,
          "durationTicks": 48,
          "midi": 54,
          "name": "F#3",
          "ticks": 93696,
          "time": 112.61527199999999,
          "velocity": 0.7874015748031497
        },
        {
          "duration": 0.05769224999998812,
          "durationTicks": 48,
          "midi": 42,
          "name": "F#2",
          "ticks": 93696,
          "time": 112.61527199999999,
          "velocity": 0.7874015748031497
        },
        {
          "duration": 0.05769224999998812,
          "durationTicks": 48,
          "midi": 36,
          "name": "C2",
          "ticks": 93696,
          "time": 112.61527199999999,
          "velocity": 0.7874015748031497
        },
        {
          "duration": 0.05769225000000233,
          "durationTicks": 48,
          "midi": 54,
          "name": "F#3",
          "ticks": 94080,
          "time": 113.07680999999998,
          "velocity": 0.7874015748031497
        },
        {
          "duration": 0.05769225000000233,
          "durationTicks": 48,
          "midi": 42,
          "name": "F#2",
          "ticks": 94080,
          "time": 113.07680999999998,
          "velocity": 0.7874015748031497
        },
        {
          "duration": 0.05769225000000233,
          "durationTicks": 48,
          "midi": 38,
          "name": "D2",
          "ticks": 94080,
          "time": 113.07680999999998,
          "velocity": 0.7874015748031497
        },
        {
          "duration": 0.05769225000000233,
          "durationTicks": 48,
          "midi": 54,
          "name": "F#3",
          "ticks": 94464,
          "time": 113.53834799999998,
          "velocity": 0.7874015748031497
        },
        {
          "duration": 0.05769225000000233,
          "durationTicks": 48,
          "midi": 42,
          "name": "F#2",
          "ticks": 94464,
          "time": 113.53834799999998,
          "velocity": 0.7874015748031497
        },
        {
          "duration": 0.05769225000000233,
          "durationTicks": 48,
          "midi": 36,
          "name": "C2",
          "ticks": 94464,
          "time": 113.53834799999998,
          "velocity": 0.7874015748031497
        },
        {
          "duration": 0.05769224999998812,
          "durationTicks": 48,
          "midi": 54,
          "name": "F#3",
          "ticks": 94848,
          "time": 113.99988599999999,
          "velocity": 0.7874015748031497
        },
        {
          "duration": 0.05769224999998812,
          "durationTicks": 48,
          "midi": 42,
          "name": "F#2",
          "ticks": 94848,
          "time": 113.99988599999999,
          "velocity": 0.7874015748031497
        },
        {
          "duration": 0.05769224999998812,
          "durationTicks": 48,
          "midi": 38,
          "name": "D2",
          "ticks": 94848,
          "time": 113.99988599999999,
          "velocity": 0.7874015748031497
        },
        {
          "duration": 0.05769225000000233,
          "durationTicks": 48,
          "midi": 54,
          "name": "F#3",
          "ticks": 95232,
          "time": 114.46142399999998,
          "velocity": 0.7874015748031497
        },
        {
          "duration": 0.05769225000000233,
          "durationTicks": 48,
          "midi": 42,
          "name": "F#2",
          "ticks": 95232,
          "time": 114.46142399999998,
          "velocity": 0.7874015748031497
        },
        {
          "duration": 0.05769225000000233,
          "durationTicks": 48,
          "midi": 36,
          "name": "C2",
          "ticks": 95232,
          "time": 114.46142399999998,
          "velocity": 0.7874015748031497
        },
        {
          "duration": 0.05769225000000233,
          "durationTicks": 48,
          "midi": 54,
          "name": "F#3",
          "ticks": 95616,
          "time": 114.92296199999998,
          "velocity": 0.7874015748031497
        },
        {
          "duration": 0.05769225000000233,
          "durationTicks": 48,
          "midi": 42,
          "name": "F#2",
          "ticks": 95616,
          "time": 114.92296199999998,
          "velocity": 0.7874015748031497
        },
        {
          "duration": 0.05769225000000233,
          "durationTicks": 48,
          "midi": 38,
          "name": "D2",
          "ticks": 95616,
          "time": 114.92296199999998,
          "velocity": 0.7874015748031497
        },
        {
          "duration": 0.05769225000000233,
          "durationTicks": 48,
          "midi": 54,
          "name": "F#3",
          "ticks": 96000,
          "time": 115.38449999999999,
          "velocity": 0.7874015748031497
        },
        {
          "duration": 0.05769225000000233,
          "durationTicks": 48,
          "midi": 42,
          "name": "F#2",
          "ticks": 96000,
          "time": 115.38449999999999,
          "velocity": 0.7874015748031497
        },
        {
          "duration": 0.05769225000000233,
          "durationTicks": 48,
          "midi": 36,
          "name": "C2",
          "ticks": 96000,
          "time": 115.38449999999999,
          "velocity": 0.7874015748031497
        },
        {
          "duration": 0.05769224999998812,
          "durationTicks": 48,
          "midi": 54,
          "name": "F#3",
          "ticks": 96384,
          "time": 115.846038,
          "velocity": 0.7874015748031497
        },
        {
          "duration": 0.05769224999998812,
          "durationTicks": 48,
          "midi": 42,
          "name": "F#2",
          "ticks": 96384,
          "time": 115.846038,
          "velocity": 0.7874015748031497
        },
        {
          "duration": 0.05769224999998812,
          "durationTicks": 48,
          "midi": 38,
          "name": "D2",
          "ticks": 96384,
          "time": 115.846038,
          "velocity": 0.7874015748031497
        },
        {
          "duration": 0.05769225000000233,
          "durationTicks": 48,
          "midi": 54,
          "name": "F#3",
          "ticks": 96768,
          "time": 116.30757599999998,
          "velocity": 0.7874015748031497
        },
        {
          "duration": 0.05769225000000233,
          "durationTicks": 48,
          "midi": 42,
          "name": "F#2",
          "ticks": 96768,
          "time": 116.30757599999998,
          "velocity": 0.7874015748031497
        },
        {
          "duration": 0.05769225000000233,
          "durationTicks": 48,
          "midi": 36,
          "name": "C2",
          "ticks": 96768,
          "time": 116.30757599999998,
          "velocity": 0.7874015748031497
        },
        {
          "duration": 0.05769225000000233,
          "durationTicks": 48,
          "midi": 54,
          "name": "F#3",
          "ticks": 97152,
          "time": 116.76911399999999,
          "velocity": 0.7874015748031497
        },
        {
          "duration": 0.05769225000000233,
          "durationTicks": 48,
          "midi": 42,
          "name": "F#2",
          "ticks": 97152,
          "time": 116.76911399999999,
          "velocity": 0.7874015748031497
        },
        {
          "duration": 0.05769225000000233,
          "durationTicks": 48,
          "midi": 38,
          "name": "D2",
          "ticks": 97152,
          "time": 116.76911399999999,
          "velocity": 0.7874015748031497
        },
        {
          "duration": 0.05769224999998812,
          "durationTicks": 48,
          "midi": 54,
          "name": "F#3",
          "ticks": 97536,
          "time": 117.23065199999999,
          "velocity": 0.7874015748031497
        },
        {
          "duration": 0.05769224999998812,
          "durationTicks": 48,
          "midi": 42,
          "name": "F#2",
          "ticks": 97536,
          "time": 117.23065199999999,
          "velocity": 0.7874015748031497
        },
        {
          "duration": 0.05769224999998812,
          "durationTicks": 48,
          "midi": 36,
          "name": "C2",
          "ticks": 97536,
          "time": 117.23065199999999,
          "velocity": 0.7874015748031497
        },
        {
          "duration": 0.05769225000000233,
          "durationTicks": 48,
          "midi": 54,
          "name": "F#3",
          "ticks": 97920,
          "time": 117.69218999999998,
          "velocity": 0.7874015748031497
        },
        {
          "duration": 0.05769225000000233,
          "durationTicks": 48,
          "midi": 42,
          "name": "F#2",
          "ticks": 97920,
          "time": 117.69218999999998,
          "velocity": 0.7874015748031497
        },
        {
          "duration": 0.05769225000000233,
          "durationTicks": 48,
          "midi": 38,
          "name": "D2",
          "ticks": 97920,
          "time": 117.69218999999998,
          "velocity": 0.7874015748031497
        },
        {
          "duration": 0.05769225000000233,
          "durationTicks": 48,
          "midi": 54,
          "name": "F#3",
          "ticks": 98304,
          "time": 118.15372799999999,
          "velocity": 0.7874015748031497
        },
        {
          "duration": 0.05769225000000233,
          "durationTicks": 48,
          "midi": 42,
          "name": "F#2",
          "ticks": 98304,
          "time": 118.15372799999999,
          "velocity": 0.7874015748031497
        },
        {
          "duration": 0.05769225000000233,
          "durationTicks": 48,
          "midi": 36,
          "name": "C2",
          "ticks": 98304,
          "time": 118.15372799999999,
          "velocity": 0.7874015748031497
        },
        {
          "duration": 0.05769224999998812,
          "durationTicks": 48,
          "midi": 54,
          "name": "F#3",
          "ticks": 98688,
          "time": 118.61526599999999,
          "velocity": 0.7874015748031497
        },
        {
          "duration": 0.05769224999998812,
          "durationTicks": 48,
          "midi": 42,
          "name": "F#2",
          "ticks": 98688,
          "time": 118.61526599999999,
          "velocity": 0.7874015748031497
        },
        {
          "duration": 0.05769224999998812,
          "durationTicks": 48,
          "midi": 38,
          "name": "D2",
          "ticks": 98688,
          "time": 118.61526599999999,
          "velocity": 0.7874015748031497
        },
        {
          "duration": 0.05769225000000233,
          "durationTicks": 48,
          "midi": 54,
          "name": "F#3",
          "ticks": 99072,
          "time": 119.07680399999998,
          "velocity": 0.7874015748031497
        },
        {
          "duration": 0.05769225000000233,
          "durationTicks": 48,
          "midi": 42,
          "name": "F#2",
          "ticks": 99072,
          "time": 119.07680399999998,
          "velocity": 0.7874015748031497
        },
        {
          "duration": 0.05769225000000233,
          "durationTicks": 48,
          "midi": 36,
          "name": "C2",
          "ticks": 99072,
          "time": 119.07680399999998,
          "velocity": 0.7874015748031497
        },
        {
          "duration": 0.05769225000000233,
          "durationTicks": 48,
          "midi": 54,
          "name": "F#3",
          "ticks": 99456,
          "time": 119.53834199999999,
          "velocity": 0.7874015748031497
        },
        {
          "duration": 0.05769225000000233,
          "durationTicks": 48,
          "midi": 42,
          "name": "F#2",
          "ticks": 99456,
          "time": 119.53834199999999,
          "velocity": 0.7874015748031497
        },
        {
          "duration": 0.05769225000000233,
          "durationTicks": 48,
          "midi": 38,
          "name": "D2",
          "ticks": 99456,
          "time": 119.53834199999999,
          "velocity": 0.7874015748031497
        },
        {
          "duration": 0.05769225000000233,
          "durationTicks": 48,
          "midi": 54,
          "name": "F#3",
          "ticks": 99840,
          "time": 119.99987999999999,
          "velocity": 0.7874015748031497
        },
        {
          "duration": 0.05769225000000233,
          "durationTicks": 48,
          "midi": 42,
          "name": "F#2",
          "ticks": 99840,
          "time": 119.99987999999999,
          "velocity": 0.7874015748031497
        },
        {
          "duration": 0.05769225000000233,
          "durationTicks": 48,
          "midi": 36,
          "name": "C2",
          "ticks": 99840,
          "time": 119.99987999999999,
          "velocity": 0.7874015748031497
        },
        {
          "duration": 0.05769225000000233,
          "durationTicks": 48,
          "midi": 54,
          "name": "F#3",
          "ticks": 100224,
          "time": 120.46141799999998,
          "velocity": 0.7874015748031497
        },
        {
          "duration": 0.05769225000000233,
          "durationTicks": 48,
          "midi": 42,
          "name": "F#2",
          "ticks": 100224,
          "time": 120.46141799999998,
          "velocity": 0.7874015748031497
        },
        {
          "duration": 0.05769225000000233,
          "durationTicks": 48,
          "midi": 38,
          "name": "D2",
          "ticks": 100224,
          "time": 120.46141799999998,
          "velocity": 0.7874015748031497
        },
        {
          "duration": 0.05769225000000233,
          "durationTicks": 48,
          "midi": 54,
          "name": "F#3",
          "ticks": 100608,
          "time": 120.92295599999999,
          "velocity": 0.7874015748031497
        },
        {
          "duration": 0.05769225000000233,
          "durationTicks": 48,
          "midi": 42,
          "name": "F#2",
          "ticks": 100608,
          "time": 120.92295599999999,
          "velocity": 0.7874015748031497
        },
        {
          "duration": 0.05769225000000233,
          "durationTicks": 48,
          "midi": 36,
          "name": "C2",
          "ticks": 100608,
          "time": 120.92295599999999,
          "velocity": 0.7874015748031497
        },
        {
          "duration": 0.05769225000000233,
          "durationTicks": 48,
          "midi": 54,
          "name": "F#3",
          "ticks": 100992,
          "time": 121.38449399999999,
          "velocity": 0.7874015748031497
        },
        {
          "duration": 0.05769225000000233,
          "durationTicks": 48,
          "midi": 42,
          "name": "F#2",
          "ticks": 100992,
          "time": 121.38449399999999,
          "velocity": 0.7874015748031497
        },
        {
          "duration": 0.05769225000000233,
          "durationTicks": 48,
          "midi": 38,
          "name": "D2",
          "ticks": 100992,
          "time": 121.38449399999999,
          "velocity": 0.7874015748031497
        },
        {
          "duration": 0.05769225000000233,
          "durationTicks": 48,
          "midi": 54,
          "name": "F#3",
          "ticks": 101376,
          "time": 121.84603199999998,
          "velocity": 0.7874015748031497
        },
        {
          "duration": 0.05769225000000233,
          "durationTicks": 48,
          "midi": 42,
          "name": "F#2",
          "ticks": 101376,
          "time": 121.84603199999998,
          "velocity": 0.7874015748031497
        },
        {
          "duration": 0.05769225000000233,
          "durationTicks": 48,
          "midi": 36,
          "name": "C2",
          "ticks": 101376,
          "time": 121.84603199999998,
          "velocity": 0.7874015748031497
        },
        {
          "duration": 0.05769225000000233,
          "durationTicks": 48,
          "midi": 54,
          "name": "F#3",
          "ticks": 101760,
          "time": 122.30756999999998,
          "velocity": 0.7874015748031497
        },
        {
          "duration": 0.05769225000000233,
          "durationTicks": 48,
          "midi": 42,
          "name": "F#2",
          "ticks": 101760,
          "time": 122.30756999999998,
          "velocity": 0.7874015748031497
        },
        {
          "duration": 0.05769225000000233,
          "durationTicks": 48,
          "midi": 38,
          "name": "D2",
          "ticks": 101760,
          "time": 122.30756999999998,
          "velocity": 0.7874015748031497
        },
        {
          "duration": 0.05769225000000233,
          "durationTicks": 48,
          "midi": 54,
          "name": "F#3",
          "ticks": 102144,
          "time": 122.76910799999999,
          "velocity": 0.7874015748031497
        },
        {
          "duration": 0.05769225000000233,
          "durationTicks": 48,
          "midi": 42,
          "name": "F#2",
          "ticks": 102144,
          "time": 122.76910799999999,
          "velocity": 0.7874015748031497
        },
        {
          "duration": 0.05769225000000233,
          "durationTicks": 48,
          "midi": 36,
          "name": "C2",
          "ticks": 102144,
          "time": 122.76910799999999,
          "velocity": 0.7874015748031497
        },
        {
          "duration": 0.05769225000000233,
          "durationTicks": 48,
          "midi": 54,
          "name": "F#3",
          "ticks": 102528,
          "time": 123.23064599999998,
          "velocity": 0.7874015748031497
        },
        {
          "duration": 0.05769225000000233,
          "durationTicks": 48,
          "midi": 42,
          "name": "F#2",
          "ticks": 102528,
          "time": 123.23064599999998,
          "velocity": 0.7874015748031497
        },
        {
          "duration": 0.05769225000000233,
          "durationTicks": 48,
          "midi": 38,
          "name": "D2",
          "ticks": 102528,
          "time": 123.23064599999998,
          "velocity": 0.7874015748031497
        },
        {
          "duration": 0.05769225000000233,
          "durationTicks": 48,
          "midi": 70,
          "name": "A#4",
          "ticks": 102912,
          "time": 123.69218399999998,
          "velocity": 0.3858267716535433
        },
        {
          "duration": 0.05769225000000233,
          "durationTicks": 48,
          "midi": 54,
          "name": "F#3",
          "ticks": 102912,
          "time": 123.69218399999998,
          "velocity": 0.7874015748031497
        },
        {
          "duration": 0.05769225000000233,
          "durationTicks": 48,
          "midi": 42,
          "name": "F#2",
          "ticks": 102912,
          "time": 123.69218399999998,
          "velocity": 0.7874015748031497
        },
        {
          "duration": 0.05769225000000233,
          "durationTicks": 48,
          "midi": 36,
          "name": "C2",
          "ticks": 102912,
          "time": 123.69218399999998,
          "velocity": 0.7874015748031497
        },
        {
          "duration": 0.05769224999998812,
          "durationTicks": 48,
          "midi": 70,
          "name": "A#4",
          "ticks": 102976,
          "time": 123.76910699999999,
          "velocity": 0.4015748031496063
        },
        {
          "duration": 0.05769225000000233,
          "durationTicks": 48,
          "midi": 70,
          "name": "A#4",
          "ticks": 103040,
          "time": 123.84602999999998,
          "velocity": 0.41732283464566927
        },
        {
          "duration": 0.05769225000000233,
          "durationTicks": 48,
          "midi": 70,
          "name": "A#4",
          "ticks": 103104,
          "time": 123.92295299999998,
          "velocity": 0.4330708661417323
        },
        {
          "duration": 0.05769225000000233,
          "durationTicks": 48,
          "midi": 70,
          "name": "A#4",
          "ticks": 103168,
          "time": 123.99987599999999,
          "velocity": 0.44881889763779526
        },
        {
          "duration": 0.05769224999998812,
          "durationTicks": 48,
          "midi": 70,
          "name": "A#4",
          "ticks": 103232,
          "time": 124.076799,
          "velocity": 0.47244094488188976
        },
        {
          "duration": 0.05769225000000233,
          "durationTicks": 48,
          "midi": 70,
          "name": "A#4",
          "ticks": 103296,
          "time": 124.15372199999999,
          "velocity": 0.4881889763779528
        },
        {
          "duration": 0.05769225000000233,
          "durationTicks": 48,
          "midi": 54,
          "name": "F#3",
          "ticks": 103296,
          "time": 124.15372199999999,
          "velocity": 0.7874015748031497
        },
        {
          "duration": 0.05769225000000233,
          "durationTicks": 48,
          "midi": 42,
          "name": "F#2",
          "ticks": 103296,
          "time": 124.15372199999999,
          "velocity": 0.7874015748031497
        },
        {
          "duration": 0.05769225000000233,
          "durationTicks": 48,
          "midi": 38,
          "name": "D2",
          "ticks": 103296,
          "time": 124.15372199999999,
          "velocity": 0.7874015748031497
        },
        {
          "duration": 0.05769225000000233,
          "durationTicks": 48,
          "midi": 70,
          "name": "A#4",
          "ticks": 103360,
          "time": 124.23064499999998,
          "velocity": 0.5039370078740157
        },
        {
          "duration": 0.05769224999998812,
          "durationTicks": 48,
          "midi": 70,
          "name": "A#4",
          "ticks": 103424,
          "time": 124.30756799999999,
          "velocity": 0.5196850393700787
        },
        {
          "duration": 0.05769225000000233,
          "durationTicks": 48,
          "midi": 70,
          "name": "A#4",
          "ticks": 103488,
          "time": 124.38449099999998,
          "velocity": 0.5354330708661418
        },
        {
          "duration": 0.05769224999998812,
          "durationTicks": 48,
          "midi": 70,
          "name": "A#4",
          "ticks": 103552,
          "time": 124.46141399999999,
          "velocity": 0.5590551181102362
        },
        {
          "duration": 0.05769225000000233,
          "durationTicks": 48,
          "midi": 70,
          "name": "A#4",
          "ticks": 103616,
          "time": 124.53833699999998,
          "velocity": 0.5748031496062992
        },
        {
          "duration": 0.05769225000000233,
          "durationTicks": 48,
          "midi": 70,
          "name": "A#4",
          "ticks": 103680,
          "time": 124.61525999999998,
          "velocity": 0.5905511811023622
        },
        {
          "duration": 0.05769225000000233,
          "durationTicks": 48,
          "midi": 54,
          "name": "F#3",
          "ticks": 103680,
          "time": 124.61525999999998,
          "velocity": 0.7874015748031497
        },
        {
          "duration": 0.05769225000000233,
          "durationTicks": 48,
          "midi": 42,
          "name": "F#2",
          "ticks": 103680,
          "time": 124.61525999999998,
          "velocity": 0.7874015748031497
        },
        {
          "duration": 0.05769225000000233,
          "durationTicks": 48,
          "midi": 36,
          "name": "C2",
          "ticks": 103680,
          "time": 124.61525999999998,
          "velocity": 0.7874015748031497
        },
        {
          "duration": 0.05769225000000233,
          "durationTicks": 48,
          "midi": 70,
          "name": "A#4",
          "ticks": 103744,
          "time": 124.69218299999999,
          "velocity": 0.6062992125984252
        },
        {
          "duration": 0.05769224999998812,
          "durationTicks": 48,
          "midi": 70,
          "name": "A#4",
          "ticks": 103808,
          "time": 124.769106,
          "velocity": 0.6299212598425197
        },
        {
          "duration": 0.05769225000000233,
          "durationTicks": 48,
          "midi": 70,
          "name": "A#4",
          "ticks": 103872,
          "time": 124.84602899999999,
          "velocity": 0.6456692913385826
        },
        {
          "duration": 0.05769225000000233,
          "durationTicks": 48,
          "midi": 70,
          "name": "A#4",
          "ticks": 103936,
          "time": 124.92295199999998,
          "velocity": 0.6614173228346457
        },
        {
          "duration": 0.05769224999998812,
          "durationTicks": 48,
          "midi": 70,
          "name": "A#4",
          "ticks": 104000,
          "time": 124.99987499999999,
          "velocity": 0.6771653543307087
        },
        {
          "duration": 0.05769225000000233,
          "durationTicks": 48,
          "midi": 70,
          "name": "A#4",
          "ticks": 104064,
          "time": 125.07679799999998,
          "velocity": 0.6929133858267716
        },
        {
          "duration": 0.05769225000000233,
          "durationTicks": 48,
          "midi": 54,
          "name": "F#3",
          "ticks": 104064,
          "time": 125.07679799999998,
          "velocity": 0.7874015748031497
        },
        {
          "duration": 0.05769225000000233,
          "durationTicks": 48,
          "midi": 42,
          "name": "F#2",
          "ticks": 104064,
          "time": 125.07679799999998,
          "velocity": 0.7874015748031497
        },
        {
          "duration": 0.05769225000000233,
          "durationTicks": 48,
          "midi": 38,
          "name": "D2",
          "ticks": 104064,
          "time": 125.07679799999998,
          "velocity": 0.7874015748031497
        },
        {
          "duration": 0.05769224999998812,
          "durationTicks": 48,
          "midi": 70,
          "name": "A#4",
          "ticks": 104128,
          "time": 125.15372099999999,
          "velocity": 0.7165354330708661
        },
        {
          "duration": 0.05769225000000233,
          "durationTicks": 48,
          "midi": 70,
          "name": "A#4",
          "ticks": 104192,
          "time": 125.23064399999998,
          "velocity": 0.7322834645669292
        },
        {
          "duration": 0.05769225000000233,
          "durationTicks": 48,
          "midi": 70,
          "name": "A#4",
          "ticks": 104256,
          "time": 125.30756699999998,
          "velocity": 0.7480314960629921
        },
        {
          "duration": 0.05769225000000233,
          "durationTicks": 48,
          "midi": 70,
          "name": "A#4",
          "ticks": 104320,
          "time": 125.38448999999999,
          "velocity": 0.7637795275590551
        },
        {
          "duration": 0.05769224999998812,
          "durationTicks": 48,
          "midi": 70,
          "name": "A#4",
          "ticks": 104384,
          "time": 125.461413,
          "velocity": 0.7874015748031497
        },
        {
          "duration": 0.05769225000000233,
          "durationTicks": 48,
          "midi": 70,
          "name": "A#4",
          "ticks": 104448,
          "time": 125.53833599999999,
          "velocity": 0.7874015748031497
        },
        {
          "duration": 0.05769225000000233,
          "durationTicks": 48,
          "midi": 54,
          "name": "F#3",
          "ticks": 104448,
          "time": 125.53833599999999,
          "velocity": 0.7874015748031497
        },
        {
          "duration": 0.05769225000000233,
          "durationTicks": 48,
          "midi": 42,
          "name": "F#2",
          "ticks": 104448,
          "time": 125.53833599999999,
          "velocity": 0.7874015748031497
        },
        {
          "duration": 0.05769225000000233,
          "durationTicks": 48,
          "midi": 36,
          "name": "C2",
          "ticks": 104448,
          "time": 125.53833599999999,
          "velocity": 0.7874015748031497
        },
        {
          "duration": 0.05769225000000233,
          "durationTicks": 48,
          "midi": 54,
          "name": "F#3",
          "ticks": 104832,
          "time": 125.99987399999998,
          "velocity": 0.7874015748031497
        },
        {
          "duration": 0.05769225000000233,
          "durationTicks": 48,
          "midi": 42,
          "name": "F#2",
          "ticks": 104832,
          "time": 125.99987399999998,
          "velocity": 0.7874015748031497
        },
        {
          "duration": 0.05769225000000233,
          "durationTicks": 48,
          "midi": 38,
          "name": "D2",
          "ticks": 104832,
          "time": 125.99987399999998,
          "velocity": 0.7874015748031497
        },
        {
          "duration": 0.05769225000000233,
          "durationTicks": 48,
          "midi": 54,
          "name": "F#3",
          "ticks": 105216,
          "time": 126.46141199999998,
          "velocity": 0.7874015748031497
        },
        {
          "duration": 0.05769225000000233,
          "durationTicks": 48,
          "midi": 42,
          "name": "F#2",
          "ticks": 105216,
          "time": 126.46141199999998,
          "velocity": 0.7874015748031497
        },
        {
          "duration": 0.05769225000000233,
          "durationTicks": 48,
          "midi": 36,
          "name": "C2",
          "ticks": 105216,
          "time": 126.46141199999998,
          "velocity": 0.7874015748031497
        },
        {
          "duration": 0.05769225000000233,
          "durationTicks": 48,
          "midi": 54,
          "name": "F#3",
          "ticks": 105600,
          "time": 126.92294999999999,
          "velocity": 0.7874015748031497
        },
        {
          "duration": 0.05769225000000233,
          "durationTicks": 48,
          "midi": 42,
          "name": "F#2",
          "ticks": 105600,
          "time": 126.92294999999999,
          "velocity": 0.7874015748031497
        },
        {
          "duration": 0.05769225000000233,
          "durationTicks": 48,
          "midi": 38,
          "name": "D2",
          "ticks": 105600,
          "time": 126.92294999999999,
          "velocity": 0.7874015748031497
        },
        {
          "duration": 0.05769225000000233,
          "durationTicks": 48,
          "midi": 54,
          "name": "F#3",
          "ticks": 105984,
          "time": 127.38448799999998,
          "velocity": 0.7874015748031497
        },
        {
          "duration": 0.05769225000000233,
          "durationTicks": 48,
          "midi": 42,
          "name": "F#2",
          "ticks": 105984,
          "time": 127.38448799999998,
          "velocity": 0.7874015748031497
        },
        {
          "duration": 0.05769225000000233,
          "durationTicks": 48,
          "midi": 36,
          "name": "C2",
          "ticks": 105984,
          "time": 127.38448799999998,
          "velocity": 0.7874015748031497
        },
        {
          "duration": 0.05769225000000233,
          "durationTicks": 48,
          "midi": 54,
          "name": "F#3",
          "ticks": 106368,
          "time": 127.84602599999998,
          "velocity": 0.7874015748031497
        },
        {
          "duration": 0.05769225000000233,
          "durationTicks": 48,
          "midi": 42,
          "name": "F#2",
          "ticks": 106368,
          "time": 127.84602599999998,
          "velocity": 0.7874015748031497
        },
        {
          "duration": 0.05769225000000233,
          "durationTicks": 48,
          "midi": 38,
          "name": "D2",
          "ticks": 106368,
          "time": 127.84602599999998,
          "velocity": 0.7874015748031497
        },
        {
          "duration": 0.05769225000000233,
          "durationTicks": 48,
          "midi": 54,
          "name": "F#3",
          "ticks": 106752,
          "time": 128.30756399999999,
          "velocity": 0.7874015748031497
        },
        {
          "duration": 0.05769225000000233,
          "durationTicks": 48,
          "midi": 42,
          "name": "F#2",
          "ticks": 106752,
          "time": 128.30756399999999,
          "velocity": 0.7874015748031497
        },
        {
          "duration": 0.05769225000000233,
          "durationTicks": 48,
          "midi": 36,
          "name": "C2",
          "ticks": 106752,
          "time": 128.30756399999999,
          "velocity": 0.7874015748031497
        },
        {
          "duration": 0.05769225000000233,
          "durationTicks": 48,
          "midi": 54,
          "name": "F#3",
          "ticks": 107136,
          "time": 128.76910199999998,
          "velocity": 0.7874015748031497
        },
        {
          "duration": 0.05769225000000233,
          "durationTicks": 48,
          "midi": 42,
          "name": "F#2",
          "ticks": 107136,
          "time": 128.76910199999998,
          "velocity": 0.7874015748031497
        },
        {
          "duration": 0.05769225000000233,
          "durationTicks": 48,
          "midi": 38,
          "name": "D2",
          "ticks": 107136,
          "time": 128.76910199999998,
          "velocity": 0.7874015748031497
        },
        {
          "duration": 0.05769225000000233,
          "durationTicks": 48,
          "midi": 54,
          "name": "F#3",
          "ticks": 107520,
          "time": 129.23064,
          "velocity": 0.7874015748031497
        },
        {
          "duration": 0.05769225000000233,
          "durationTicks": 48,
          "midi": 42,
          "name": "F#2",
          "ticks": 107520,
          "time": 129.23064,
          "velocity": 0.7874015748031497
        },
        {
          "duration": 0.05769225000000233,
          "durationTicks": 48,
          "midi": 36,
          "name": "C2",
          "ticks": 107520,
          "time": 129.23064,
          "velocity": 0.7874015748031497
        },
        {
          "duration": 0.05769225000000233,
          "durationTicks": 48,
          "midi": 54,
          "name": "F#3",
          "ticks": 107904,
          "time": 129.69217799999998,
          "velocity": 0.7874015748031497
        },
        {
          "duration": 0.05769225000000233,
          "durationTicks": 48,
          "midi": 42,
          "name": "F#2",
          "ticks": 107904,
          "time": 129.69217799999998,
          "velocity": 0.7874015748031497
        },
        {
          "duration": 0.05769225000000233,
          "durationTicks": 48,
          "midi": 38,
          "name": "D2",
          "ticks": 107904,
          "time": 129.69217799999998,
          "velocity": 0.7874015748031497
        },
        {
          "duration": 0.05769225000000233,
          "durationTicks": 48,
          "midi": 54,
          "name": "F#3",
          "ticks": 108288,
          "time": 130.15371599999997,
          "velocity": 0.7874015748031497
        },
        {
          "duration": 0.05769225000000233,
          "durationTicks": 48,
          "midi": 42,
          "name": "F#2",
          "ticks": 108288,
          "time": 130.15371599999997,
          "velocity": 0.7874015748031497
        },
        {
          "duration": 0.05769225000000233,
          "durationTicks": 48,
          "midi": 36,
          "name": "C2",
          "ticks": 108288,
          "time": 130.15371599999997,
          "velocity": 0.7874015748031497
        },
        {
          "duration": 0.05769225000000233,
          "durationTicks": 48,
          "midi": 54,
          "name": "F#3",
          "ticks": 108672,
          "time": 130.615254,
          "velocity": 0.7874015748031497
        },
        {
          "duration": 0.05769225000000233,
          "durationTicks": 48,
          "midi": 42,
          "name": "F#2",
          "ticks": 108672,
          "time": 130.615254,
          "velocity": 0.7874015748031497
        },
        {
          "duration": 0.05769225000000233,
          "durationTicks": 48,
          "midi": 38,
          "name": "D2",
          "ticks": 108672,
          "time": 130.615254,
          "velocity": 0.7874015748031497
        },
        {
          "duration": 0.05769225000000233,
          "durationTicks": 48,
          "midi": 54,
          "name": "F#3",
          "ticks": 109056,
          "time": 131.07679199999998,
          "velocity": 0.7874015748031497
        },
        {
          "duration": 0.05769225000000233,
          "durationTicks": 48,
          "midi": 42,
          "name": "F#2",
          "ticks": 109056,
          "time": 131.07679199999998,
          "velocity": 0.7874015748031497
        },
        {
          "duration": 0.05769225000000233,
          "durationTicks": 48,
          "midi": 36,
          "name": "C2",
          "ticks": 109056,
          "time": 131.07679199999998,
          "velocity": 0.7874015748031497
        },
        {
          "duration": 0.05769225000000233,
          "durationTicks": 48,
          "midi": 54,
          "name": "F#3",
          "ticks": 109440,
          "time": 131.53832999999997,
          "velocity": 0.7874015748031497
        },
        {
          "duration": 0.05769225000000233,
          "durationTicks": 48,
          "midi": 42,
          "name": "F#2",
          "ticks": 109440,
          "time": 131.53832999999997,
          "velocity": 0.7874015748031497
        },
        {
          "duration": 0.05769225000000233,
          "durationTicks": 48,
          "midi": 38,
          "name": "D2",
          "ticks": 109440,
          "time": 131.53832999999997,
          "velocity": 0.7874015748031497
        },
        {
          "duration": 0.05769225000000233,
          "durationTicks": 48,
          "midi": 54,
          "name": "F#3",
          "ticks": 109824,
          "time": 131.999868,
          "velocity": 0.7874015748031497
        },
        {
          "duration": 0.05769225000000233,
          "durationTicks": 48,
          "midi": 42,
          "name": "F#2",
          "ticks": 109824,
          "time": 131.999868,
          "velocity": 0.7874015748031497
        },
        {
          "duration": 0.05769225000000233,
          "durationTicks": 48,
          "midi": 36,
          "name": "C2",
          "ticks": 109824,
          "time": 131.999868,
          "velocity": 0.7874015748031497
        },
        {
          "duration": 0.05769225000000233,
          "durationTicks": 48,
          "midi": 54,
          "name": "F#3",
          "ticks": 110208,
          "time": 132.46140599999998,
          "velocity": 0.7874015748031497
        },
        {
          "duration": 0.05769225000000233,
          "durationTicks": 48,
          "midi": 42,
          "name": "F#2",
          "ticks": 110208,
          "time": 132.46140599999998,
          "velocity": 0.7874015748031497
        },
        {
          "duration": 0.05769225000000233,
          "durationTicks": 48,
          "midi": 38,
          "name": "D2",
          "ticks": 110208,
          "time": 132.46140599999998,
          "velocity": 0.7874015748031497
        },
        {
          "duration": 0.05769225000000233,
          "durationTicks": 48,
          "midi": 54,
          "name": "F#3",
          "ticks": 110592,
          "time": 132.92294399999997,
          "velocity": 0.7874015748031497
        },
        {
          "duration": 0.05769225000000233,
          "durationTicks": 48,
          "midi": 42,
          "name": "F#2",
          "ticks": 110592,
          "time": 132.92294399999997,
          "velocity": 0.7874015748031497
        },
        {
          "duration": 0.05769225000000233,
          "durationTicks": 48,
          "midi": 36,
          "name": "C2",
          "ticks": 110592,
          "time": 132.92294399999997,
          "velocity": 0.7874015748031497
        },
        {
          "duration": 0.05769225000000233,
          "durationTicks": 48,
          "midi": 54,
          "name": "F#3",
          "ticks": 110976,
          "time": 133.384482,
          "velocity": 0.7874015748031497
        },
        {
          "duration": 0.05769225000000233,
          "durationTicks": 48,
          "midi": 42,
          "name": "F#2",
          "ticks": 110976,
          "time": 133.384482,
          "velocity": 0.7874015748031497
        },
        {
          "duration": 0.05769225000000233,
          "durationTicks": 48,
          "midi": 38,
          "name": "D2",
          "ticks": 110976,
          "time": 133.384482,
          "velocity": 0.7874015748031497
        },
        {
          "duration": 0.05769225000000233,
          "durationTicks": 48,
          "midi": 54,
          "name": "F#3",
          "ticks": 111360,
          "time": 133.84601999999998,
          "velocity": 0.7874015748031497
        },
        {
          "duration": 0.05769225000000233,
          "durationTicks": 48,
          "midi": 42,
          "name": "F#2",
          "ticks": 111360,
          "time": 133.84601999999998,
          "velocity": 0.7874015748031497
        },
        {
          "duration": 0.05769225000000233,
          "durationTicks": 48,
          "midi": 36,
          "name": "C2",
          "ticks": 111360,
          "time": 133.84601999999998,
          "velocity": 0.7874015748031497
        },
        {
          "duration": 0.05769225000000233,
          "durationTicks": 48,
          "midi": 54,
          "name": "F#3",
          "ticks": 111744,
          "time": 134.30755799999997,
          "velocity": 0.7874015748031497
        },
        {
          "duration": 0.05769225000000233,
          "durationTicks": 48,
          "midi": 42,
          "name": "F#2",
          "ticks": 111744,
          "time": 134.30755799999997,
          "velocity": 0.7874015748031497
        },
        {
          "duration": 0.05769225000000233,
          "durationTicks": 48,
          "midi": 38,
          "name": "D2",
          "ticks": 111744,
          "time": 134.30755799999997,
          "velocity": 0.7874015748031497
        },
        {
          "duration": 0.05769225000000233,
          "durationTicks": 48,
          "midi": 54,
          "name": "F#3",
          "ticks": 112128,
          "time": 134.769096,
          "velocity": 0.7874015748031497
        },
        {
          "duration": 0.05769225000000233,
          "durationTicks": 48,
          "midi": 42,
          "name": "F#2",
          "ticks": 112128,
          "time": 134.769096,
          "velocity": 0.7874015748031497
        },
        {
          "duration": 0.05769225000000233,
          "durationTicks": 48,
          "midi": 36,
          "name": "C2",
          "ticks": 112128,
          "time": 134.769096,
          "velocity": 0.7874015748031497
        },
        {
          "duration": 0.05769225000000233,
          "durationTicks": 48,
          "midi": 54,
          "name": "F#3",
          "ticks": 112512,
          "time": 135.23063399999998,
          "velocity": 0.7874015748031497
        },
        {
          "duration": 0.05769225000000233,
          "durationTicks": 48,
          "midi": 42,
          "name": "F#2",
          "ticks": 112512,
          "time": 135.23063399999998,
          "velocity": 0.7874015748031497
        },
        {
          "duration": 0.05769225000000233,
          "durationTicks": 48,
          "midi": 38,
          "name": "D2",
          "ticks": 112512,
          "time": 135.23063399999998,
          "velocity": 0.7874015748031497
        },
        {
          "duration": 0.05769225000000233,
          "durationTicks": 48,
          "midi": 54,
          "name": "F#3",
          "ticks": 112896,
          "time": 135.69217199999997,
          "velocity": 0.7874015748031497
        },
        {
          "duration": 0.05769225000000233,
          "durationTicks": 48,
          "midi": 42,
          "name": "F#2",
          "ticks": 112896,
          "time": 135.69217199999997,
          "velocity": 0.7874015748031497
        },
        {
          "duration": 0.05769225000000233,
          "durationTicks": 48,
          "midi": 36,
          "name": "C2",
          "ticks": 112896,
          "time": 135.69217199999997,
          "velocity": 0.7874015748031497
        },
        {
          "duration": 0.05769225000000233,
          "durationTicks": 48,
          "midi": 54,
          "name": "F#3",
          "ticks": 113280,
          "time": 136.15371,
          "velocity": 0.7874015748031497
        },
        {
          "duration": 0.05769225000000233,
          "durationTicks": 48,
          "midi": 42,
          "name": "F#2",
          "ticks": 113280,
          "time": 136.15371,
          "velocity": 0.7874015748031497
        },
        {
          "duration": 0.05769225000000233,
          "durationTicks": 48,
          "midi": 38,
          "name": "D2",
          "ticks": 113280,
          "time": 136.15371,
          "velocity": 0.7874015748031497
        },
        {
          "duration": 0.05769225000000233,
          "durationTicks": 48,
          "midi": 54,
          "name": "F#3",
          "ticks": 113664,
          "time": 136.61524799999998,
          "velocity": 0.7874015748031497
        },
        {
          "duration": 0.05769225000000233,
          "durationTicks": 48,
          "midi": 42,
          "name": "F#2",
          "ticks": 113664,
          "time": 136.61524799999998,
          "velocity": 0.7874015748031497
        },
        {
          "duration": 0.05769225000000233,
          "durationTicks": 48,
          "midi": 36,
          "name": "C2",
          "ticks": 113664,
          "time": 136.61524799999998,
          "velocity": 0.7874015748031497
        },
        {
          "duration": 0.05769225000000233,
          "durationTicks": 48,
          "midi": 54,
          "name": "F#3",
          "ticks": 114048,
          "time": 137.07678599999997,
          "velocity": 0.7874015748031497
        },
        {
          "duration": 0.05769225000000233,
          "durationTicks": 48,
          "midi": 42,
          "name": "F#2",
          "ticks": 114048,
          "time": 137.07678599999997,
          "velocity": 0.7874015748031497
        },
        {
          "duration": 0.05769225000000233,
          "durationTicks": 48,
          "midi": 38,
          "name": "D2",
          "ticks": 114048,
          "time": 137.07678599999997,
          "velocity": 0.7874015748031497
        },
        {
          "duration": 0.05769225000000233,
          "durationTicks": 48,
          "midi": 54,
          "name": "F#3",
          "ticks": 114432,
          "time": 137.538324,
          "velocity": 0.7874015748031497
        },
        {
          "duration": 0.05769225000000233,
          "durationTicks": 48,
          "midi": 42,
          "name": "F#2",
          "ticks": 114432,
          "time": 137.538324,
          "velocity": 0.7874015748031497
        },
        {
          "duration": 0.05769225000000233,
          "durationTicks": 48,
          "midi": 36,
          "name": "C2",
          "ticks": 114432,
          "time": 137.538324,
          "velocity": 0.7874015748031497
        },
        {
          "duration": 0.05769225000000233,
          "durationTicks": 48,
          "midi": 54,
          "name": "F#3",
          "ticks": 114816,
          "time": 137.99986199999998,
          "velocity": 0.7874015748031497
        },
        {
          "duration": 0.05769225000000233,
          "durationTicks": 48,
          "midi": 42,
          "name": "F#2",
          "ticks": 114816,
          "time": 137.99986199999998,
          "velocity": 0.7874015748031497
        },
        {
          "duration": 0.05769225000000233,
          "durationTicks": 48,
          "midi": 38,
          "name": "D2",
          "ticks": 114816,
          "time": 137.99986199999998,
          "velocity": 0.7874015748031497
        },
        {
          "duration": 0.05769225000000233,
          "durationTicks": 48,
          "midi": 54,
          "name": "F#3",
          "ticks": 115200,
          "time": 138.46139999999997,
          "velocity": 0.7874015748031497
        },
        {
          "duration": 0.05769225000000233,
          "durationTicks": 48,
          "midi": 42,
          "name": "F#2",
          "ticks": 115200,
          "time": 138.46139999999997,
          "velocity": 0.7874015748031497
        },
        {
          "duration": 0.05769225000000233,
          "durationTicks": 48,
          "midi": 36,
          "name": "C2",
          "ticks": 115200,
          "time": 138.46139999999997,
          "velocity": 0.7874015748031497
        },
        {
          "duration": 0.05769225000000233,
          "durationTicks": 48,
          "midi": 54,
          "name": "F#3",
          "ticks": 115584,
          "time": 138.922938,
          "velocity": 0.7874015748031497
        },
        {
          "duration": 0.05769225000000233,
          "durationTicks": 48,
          "midi": 42,
          "name": "F#2",
          "ticks": 115584,
          "time": 138.922938,
          "velocity": 0.7874015748031497
        },
        {
          "duration": 0.05769225000000233,
          "durationTicks": 48,
          "midi": 38,
          "name": "D2",
          "ticks": 115584,
          "time": 138.922938,
          "velocity": 0.7874015748031497
        },
        {
          "duration": 0.05769225000000233,
          "durationTicks": 48,
          "midi": 54,
          "name": "F#3",
          "ticks": 115968,
          "time": 139.38447599999998,
          "velocity": 0.7874015748031497
        },
        {
          "duration": 0.05769225000000233,
          "durationTicks": 48,
          "midi": 42,
          "name": "F#2",
          "ticks": 115968,
          "time": 139.38447599999998,
          "velocity": 0.7874015748031497
        },
        {
          "duration": 0.05769225000000233,
          "durationTicks": 48,
          "midi": 36,
          "name": "C2",
          "ticks": 115968,
          "time": 139.38447599999998,
          "velocity": 0.7874015748031497
        },
        {
          "duration": 0.05769225000000233,
          "durationTicks": 48,
          "midi": 54,
          "name": "F#3",
          "ticks": 116352,
          "time": 139.84601399999997,
          "velocity": 0.7874015748031497
        },
        {
          "duration": 0.05769225000000233,
          "durationTicks": 48,
          "midi": 42,
          "name": "F#2",
          "ticks": 116352,
          "time": 139.84601399999997,
          "velocity": 0.7874015748031497
        },
        {
          "duration": 0.05769225000000233,
          "durationTicks": 48,
          "midi": 38,
          "name": "D2",
          "ticks": 116352,
          "time": 139.84601399999997,
          "velocity": 0.7874015748031497
        },
        {
          "duration": 0.05769225000000233,
          "durationTicks": 48,
          "midi": 54,
          "name": "F#3",
          "ticks": 116736,
          "time": 140.307552,
          "velocity": 0.7874015748031497
        },
        {
          "duration": 0.05769225000000233,
          "durationTicks": 48,
          "midi": 42,
          "name": "F#2",
          "ticks": 116736,
          "time": 140.307552,
          "velocity": 0.7874015748031497
        },
        {
          "duration": 0.05769225000000233,
          "durationTicks": 48,
          "midi": 36,
          "name": "C2",
          "ticks": 116736,
          "time": 140.307552,
          "velocity": 0.7874015748031497
        },
        {
          "duration": 0.05769225000000233,
          "durationTicks": 48,
          "midi": 54,
          "name": "F#3",
          "ticks": 117120,
          "time": 140.76908999999998,
          "velocity": 0.7874015748031497
        },
        {
          "duration": 0.05769225000000233,
          "durationTicks": 48,
          "midi": 42,
          "name": "F#2",
          "ticks": 117120,
          "time": 140.76908999999998,
          "velocity": 0.7874015748031497
        },
        {
          "duration": 0.05769225000000233,
          "durationTicks": 48,
          "midi": 38,
          "name": "D2",
          "ticks": 117120,
          "time": 140.76908999999998,
          "velocity": 0.7874015748031497
        },
        {
          "duration": 0.05769225000000233,
          "durationTicks": 48,
          "midi": 54,
          "name": "F#3",
          "ticks": 117504,
          "time": 141.23062799999997,
          "velocity": 0.7874015748031497
        },
        {
          "duration": 0.05769225000000233,
          "durationTicks": 48,
          "midi": 42,
          "name": "F#2",
          "ticks": 117504,
          "time": 141.23062799999997,
          "velocity": 0.7874015748031497
        },
        {
          "duration": 0.05769225000000233,
          "durationTicks": 48,
          "midi": 36,
          "name": "C2",
          "ticks": 117504,
          "time": 141.23062799999997,
          "velocity": 0.7874015748031497
        },
        {
          "duration": 0.05769225000000233,
          "durationTicks": 48,
          "midi": 54,
          "name": "F#3",
          "ticks": 117888,
          "time": 141.692166,
          "velocity": 0.7874015748031497
        },
        {
          "duration": 0.05769225000000233,
          "durationTicks": 48,
          "midi": 42,
          "name": "F#2",
          "ticks": 117888,
          "time": 141.692166,
          "velocity": 0.7874015748031497
        },
        {
          "duration": 0.05769225000000233,
          "durationTicks": 48,
          "midi": 38,
          "name": "D2",
          "ticks": 117888,
          "time": 141.692166,
          "velocity": 0.7874015748031497
        },
        {
          "duration": 0.05769225000000233,
          "durationTicks": 48,
          "midi": 54,
          "name": "F#3",
          "ticks": 118272,
          "time": 142.15370399999998,
          "velocity": 0.7874015748031497
        },
        {
          "duration": 0.05769225000000233,
          "durationTicks": 48,
          "midi": 42,
          "name": "F#2",
          "ticks": 118272,
          "time": 142.15370399999998,
          "velocity": 0.7874015748031497
        },
        {
          "duration": 0.05769225000000233,
          "durationTicks": 48,
          "midi": 36,
          "name": "C2",
          "ticks": 118272,
          "time": 142.15370399999998,
          "velocity": 0.7874015748031497
        },
        {
          "duration": 0.05769225000000233,
          "durationTicks": 48,
          "midi": 54,
          "name": "F#3",
          "ticks": 118656,
          "time": 142.61524199999997,
          "velocity": 0.7874015748031497
        },
        {
          "duration": 0.05769225000000233,
          "durationTicks": 48,
          "midi": 42,
          "name": "F#2",
          "ticks": 118656,
          "time": 142.61524199999997,
          "velocity": 0.7874015748031497
        },
        {
          "duration": 0.05769225000000233,
          "durationTicks": 48,
          "midi": 38,
          "name": "D2",
          "ticks": 118656,
          "time": 142.61524199999997,
          "velocity": 0.7874015748031497
        },
        {
          "duration": 0.05769225000000233,
          "durationTicks": 48,
          "midi": 54,
          "name": "F#3",
          "ticks": 119040,
          "time": 143.07677999999999,
          "velocity": 0.7874015748031497
        },
        {
          "duration": 0.05769225000000233,
          "durationTicks": 48,
          "midi": 42,
          "name": "F#2",
          "ticks": 119040,
          "time": 143.07677999999999,
          "velocity": 0.7874015748031497
        },
        {
          "duration": 0.05769225000000233,
          "durationTicks": 48,
          "midi": 36,
          "name": "C2",
          "ticks": 119040,
          "time": 143.07677999999999,
          "velocity": 0.7874015748031497
        },
        {
          "duration": 0.05769225000000233,
          "durationTicks": 48,
          "midi": 54,
          "name": "F#3",
          "ticks": 119424,
          "time": 143.53831799999998,
          "velocity": 0.7874015748031497
        },
        {
          "duration": 0.05769225000000233,
          "durationTicks": 48,
          "midi": 42,
          "name": "F#2",
          "ticks": 119424,
          "time": 143.53831799999998,
          "velocity": 0.7874015748031497
        },
        {
          "duration": 0.05769225000000233,
          "durationTicks": 48,
          "midi": 38,
          "name": "D2",
          "ticks": 119424,
          "time": 143.53831799999998,
          "velocity": 0.7874015748031497
        },
        {
          "duration": 0.05769225000000233,
          "durationTicks": 48,
          "midi": 54,
          "name": "F#3",
          "ticks": 119808,
          "time": 143.99985599999997,
          "velocity": 0.7874015748031497
        },
        {
          "duration": 0.05769225000000233,
          "durationTicks": 48,
          "midi": 42,
          "name": "F#2",
          "ticks": 119808,
          "time": 143.99985599999997,
          "velocity": 0.7874015748031497
        },
        {
          "duration": 0.05769225000000233,
          "durationTicks": 48,
          "midi": 36,
          "name": "C2",
          "ticks": 119808,
          "time": 143.99985599999997,
          "velocity": 0.7874015748031497
        },
        {
          "duration": 0.05769225000000233,
          "durationTicks": 48,
          "midi": 54,
          "name": "F#3",
          "ticks": 120192,
          "time": 144.46139399999998,
          "velocity": 0.7874015748031497
        },
        {
          "duration": 0.05769225000000233,
          "durationTicks": 48,
          "midi": 42,
          "name": "F#2",
          "ticks": 120192,
          "time": 144.46139399999998,
          "velocity": 0.7874015748031497
        },
        {
          "duration": 0.05769225000000233,
          "durationTicks": 48,
          "midi": 38,
          "name": "D2",
          "ticks": 120192,
          "time": 144.46139399999998,
          "velocity": 0.7874015748031497
        },
        {
          "duration": 0.05769225000000233,
          "durationTicks": 48,
          "midi": 54,
          "name": "F#3",
          "ticks": 120576,
          "time": 144.92293199999997,
          "velocity": 0.7874015748031497
        },
        {
          "duration": 0.05769225000000233,
          "durationTicks": 48,
          "midi": 42,
          "name": "F#2",
          "ticks": 120576,
          "time": 144.92293199999997,
          "velocity": 0.7874015748031497
        },
        {
          "duration": 0.05769225000000233,
          "durationTicks": 48,
          "midi": 36,
          "name": "C2",
          "ticks": 120576,
          "time": 144.92293199999997,
          "velocity": 0.7874015748031497
        },
        {
          "duration": 0.05769225000000233,
          "durationTicks": 48,
          "midi": 54,
          "name": "F#3",
          "ticks": 120960,
          "time": 145.38446999999996,
          "velocity": 0.7874015748031497
        },
        {
          "duration": 0.05769225000000233,
          "durationTicks": 48,
          "midi": 42,
          "name": "F#2",
          "ticks": 120960,
          "time": 145.38446999999996,
          "velocity": 0.7874015748031497
        },
        {
          "duration": 0.05769225000000233,
          "durationTicks": 48,
          "midi": 38,
          "name": "D2",
          "ticks": 120960,
          "time": 145.38446999999996,
          "velocity": 0.7874015748031497
        },
        {
          "duration": 0.05769225000000233,
          "durationTicks": 48,
          "midi": 54,
          "name": "F#3",
          "ticks": 121344,
          "time": 145.84600799999998,
          "velocity": 0.7874015748031497
        },
        {
          "duration": 0.05769225000000233,
          "durationTicks": 48,
          "midi": 42,
          "name": "F#2",
          "ticks": 121344,
          "time": 145.84600799999998,
          "velocity": 0.7874015748031497
        },
        {
          "duration": 0.05769225000000233,
          "durationTicks": 48,
          "midi": 36,
          "name": "C2",
          "ticks": 121344,
          "time": 145.84600799999998,
          "velocity": 0.7874015748031497
        },
        {
          "duration": 0.05769225000000233,
          "durationTicks": 48,
          "midi": 54,
          "name": "F#3",
          "ticks": 121728,
          "time": 146.30754599999997,
          "velocity": 0.7874015748031497
        },
        {
          "duration": 0.05769225000000233,
          "durationTicks": 48,
          "midi": 42,
          "name": "F#2",
          "ticks": 121728,
          "time": 146.30754599999997,
          "velocity": 0.7874015748031497
        },
        {
          "duration": 0.05769225000000233,
          "durationTicks": 48,
          "midi": 38,
          "name": "D2",
          "ticks": 121728,
          "time": 146.30754599999997,
          "velocity": 0.7874015748031497
        },
        {
          "duration": 0.05769224999997391,
          "durationTicks": 48,
          "midi": 54,
          "name": "F#3",
          "ticks": 122112,
          "time": 146.769084,
          "velocity": 0.7874015748031497
        },
        {
          "duration": 0.05769224999997391,
          "durationTicks": 48,
          "midi": 42,
          "name": "F#2",
          "ticks": 122112,
          "time": 146.769084,
          "velocity": 0.7874015748031497
        },
        {
          "duration": 0.05769224999997391,
          "durationTicks": 48,
          "midi": 36,
          "name": "C2",
          "ticks": 122112,
          "time": 146.769084,
          "velocity": 0.7874015748031497
        },
        {
          "duration": 0.05769225000000233,
          "durationTicks": 48,
          "midi": 54,
          "name": "F#3",
          "ticks": 122496,
          "time": 147.23062199999998,
          "velocity": 0.7874015748031497
        },
        {
          "duration": 0.05769225000000233,
          "durationTicks": 48,
          "midi": 42,
          "name": "F#2",
          "ticks": 122496,
          "time": 147.23062199999998,
          "velocity": 0.7874015748031497
        },
        {
          "duration": 0.05769225000000233,
          "durationTicks": 48,
          "midi": 38,
          "name": "D2",
          "ticks": 122496,
          "time": 147.23062199999998,
          "velocity": 0.7874015748031497
        },
        {
          "duration": 0.05769225000000233,
          "durationTicks": 48,
          "midi": 54,
          "name": "F#3",
          "ticks": 122880,
          "time": 147.69215999999997,
          "velocity": 0.7874015748031497
        },
        {
          "duration": 0.05769225000000233,
          "durationTicks": 48,
          "midi": 42,
          "name": "F#2",
          "ticks": 122880,
          "time": 147.69215999999997,
          "velocity": 0.7874015748031497
        },
        {
          "duration": 0.05769225000000233,
          "durationTicks": 48,
          "midi": 36,
          "name": "C2",
          "ticks": 122880,
          "time": 147.69215999999997,
          "velocity": 0.7874015748031497
        },
        {
          "duration": 0.05769224999997391,
          "durationTicks": 48,
          "midi": 54,
          "name": "F#3",
          "ticks": 123264,
          "time": 148.153698,
          "velocity": 0.7874015748031497
        },
        {
          "duration": 0.05769224999997391,
          "durationTicks": 48,
          "midi": 42,
          "name": "F#2",
          "ticks": 123264,
          "time": 148.153698,
          "velocity": 0.7874015748031497
        },
        {
          "duration": 0.05769224999997391,
          "durationTicks": 48,
          "midi": 38,
          "name": "D2",
          "ticks": 123264,
          "time": 148.153698,
          "velocity": 0.7874015748031497
        },
        {
          "duration": 0.05769225000000233,
          "durationTicks": 48,
          "midi": 54,
          "name": "F#3",
          "ticks": 123648,
          "time": 148.61523599999998,
          "velocity": 0.7874015748031497
        },
        {
          "duration": 0.05769225000000233,
          "durationTicks": 48,
          "midi": 42,
          "name": "F#2",
          "ticks": 123648,
          "time": 148.61523599999998,
          "velocity": 0.7874015748031497
        },
        {
          "duration": 0.05769225000000233,
          "durationTicks": 48,
          "midi": 36,
          "name": "C2",
          "ticks": 123648,
          "time": 148.61523599999998,
          "velocity": 0.7874015748031497
        },
        {
          "duration": 0.05769225000000233,
          "durationTicks": 48,
          "midi": 54,
          "name": "F#3",
          "ticks": 124032,
          "time": 149.07677399999997,
          "velocity": 0.7874015748031497
        },
        {
          "duration": 0.05769225000000233,
          "durationTicks": 48,
          "midi": 42,
          "name": "F#2",
          "ticks": 124032,
          "time": 149.07677399999997,
          "velocity": 0.7874015748031497
        },
        {
          "duration": 0.05769225000000233,
          "durationTicks": 48,
          "midi": 38,
          "name": "D2",
          "ticks": 124032,
          "time": 149.07677399999997,
          "velocity": 0.7874015748031497
        },
        {
          "duration": 0.05769224999997391,
          "durationTicks": 48,
          "midi": 54,
          "name": "F#3",
          "ticks": 124416,
          "time": 149.538312,
          "velocity": 0.7874015748031497
        },
        {
          "duration": 0.05769224999997391,
          "durationTicks": 48,
          "midi": 42,
          "name": "F#2",
          "ticks": 124416,
          "time": 149.538312,
          "velocity": 0.7874015748031497
        },
        {
          "duration": 0.05769224999997391,
          "durationTicks": 48,
          "midi": 36,
          "name": "C2",
          "ticks": 124416,
          "time": 149.538312,
          "velocity": 0.7874015748031497
        },
        {
          "duration": 0.05769225000000233,
          "durationTicks": 48,
          "midi": 54,
          "name": "F#3",
          "ticks": 124800,
          "time": 149.99984999999998,
          "velocity": 0.7874015748031497
        },
        {
          "duration": 0.05769225000000233,
          "durationTicks": 48,
          "midi": 42,
          "name": "F#2",
          "ticks": 124800,
          "time": 149.99984999999998,
          "velocity": 0.7874015748031497
        },
        {
          "duration": 0.05769225000000233,
          "durationTicks": 48,
          "midi": 38,
          "name": "D2",
          "ticks": 124800,
          "time": 149.99984999999998,
          "velocity": 0.7874015748031497
        },
        {
          "duration": 0.05769225000000233,
          "durationTicks": 48,
          "midi": 54,
          "name": "F#3",
          "ticks": 125184,
          "time": 150.46138799999997,
          "velocity": 0.7874015748031497
        },
        {
          "duration": 0.05769225000000233,
          "durationTicks": 48,
          "midi": 42,
          "name": "F#2",
          "ticks": 125184,
          "time": 150.46138799999997,
          "velocity": 0.7874015748031497
        },
        {
          "duration": 0.05769225000000233,
          "durationTicks": 48,
          "midi": 36,
          "name": "C2",
          "ticks": 125184,
          "time": 150.46138799999997,
          "velocity": 0.7874015748031497
        },
        {
          "duration": 0.05769224999997391,
          "durationTicks": 48,
          "midi": 54,
          "name": "F#3",
          "ticks": 125568,
          "time": 150.922926,
          "velocity": 0.7874015748031497
        },
        {
          "duration": 0.05769224999997391,
          "durationTicks": 48,
          "midi": 42,
          "name": "F#2",
          "ticks": 125568,
          "time": 150.922926,
          "velocity": 0.7874015748031497
        },
        {
          "duration": 0.05769224999997391,
          "durationTicks": 48,
          "midi": 38,
          "name": "D2",
          "ticks": 125568,
          "time": 150.922926,
          "velocity": 0.7874015748031497
        },
        {
          "duration": 0.05769225000000233,
          "durationTicks": 48,
          "midi": 54,
          "name": "F#3",
          "ticks": 125952,
          "time": 151.38446399999998,
          "velocity": 0.7874015748031497
        },
        {
          "duration": 0.05769225000000233,
          "durationTicks": 48,
          "midi": 42,
          "name": "F#2",
          "ticks": 125952,
          "time": 151.38446399999998,
          "velocity": 0.7874015748031497
        },
        {
          "duration": 0.05769225000000233,
          "durationTicks": 48,
          "midi": 36,
          "name": "C2",
          "ticks": 125952,
          "time": 151.38446399999998,
          "velocity": 0.7874015748031497
        },
        {
          "duration": 0.05769225000000233,
          "durationTicks": 48,
          "midi": 54,
          "name": "F#3",
          "ticks": 126336,
          "time": 151.84600199999997,
          "velocity": 0.7874015748031497
        },
        {
          "duration": 0.05769225000000233,
          "durationTicks": 48,
          "midi": 42,
          "name": "F#2",
          "ticks": 126336,
          "time": 151.84600199999997,
          "velocity": 0.7874015748031497
        },
        {
          "duration": 0.05769225000000233,
          "durationTicks": 48,
          "midi": 38,
          "name": "D2",
          "ticks": 126336,
          "time": 151.84600199999997,
          "velocity": 0.7874015748031497
        },
        {
          "duration": 0.05769225000000233,
          "durationTicks": 48,
          "midi": 54,
          "name": "F#3",
          "ticks": 126720,
          "time": 152.30754,
          "velocity": 0.7874015748031497
        },
        {
          "duration": 0.05769225000000233,
          "durationTicks": 48,
          "midi": 42,
          "name": "F#2",
          "ticks": 126720,
          "time": 152.30754,
          "velocity": 0.7874015748031497
        },
        {
          "duration": 0.05769225000000233,
          "durationTicks": 48,
          "midi": 36,
          "name": "C2",
          "ticks": 126720,
          "time": 152.30754,
          "velocity": 0.7874015748031497
        },
        {
          "duration": 0.05769225000000233,
          "durationTicks": 48,
          "midi": 54,
          "name": "F#3",
          "ticks": 127104,
          "time": 152.76907799999998,
          "velocity": 0.7874015748031497
        },
        {
          "duration": 0.05769225000000233,
          "durationTicks": 48,
          "midi": 42,
          "name": "F#2",
          "ticks": 127104,
          "time": 152.76907799999998,
          "velocity": 0.7874015748031497
        },
        {
          "duration": 0.05769225000000233,
          "durationTicks": 48,
          "midi": 38,
          "name": "D2",
          "ticks": 127104,
          "time": 152.76907799999998,
          "velocity": 0.7874015748031497
        },
        {
          "duration": 0.05769225000000233,
          "durationTicks": 48,
          "midi": 54,
          "name": "F#3",
          "ticks": 127488,
          "time": 153.23061599999997,
          "velocity": 0.7874015748031497
        },
        {
          "duration": 0.05769225000000233,
          "durationTicks": 48,
          "midi": 42,
          "name": "F#2",
          "ticks": 127488,
          "time": 153.23061599999997,
          "velocity": 0.7874015748031497
        },
        {
          "duration": 0.05769225000000233,
          "durationTicks": 48,
          "midi": 36,
          "name": "C2",
          "ticks": 127488,
          "time": 153.23061599999997,
          "velocity": 0.7874015748031497
        },
        {
          "duration": 0.05769225000000233,
          "durationTicks": 48,
          "midi": 54,
          "name": "F#3",
          "ticks": 127872,
          "time": 153.692154,
          "velocity": 0.7874015748031497
        },
        {
          "duration": 0.05769225000000233,
          "durationTicks": 48,
          "midi": 42,
          "name": "F#2",
          "ticks": 127872,
          "time": 153.692154,
          "velocity": 0.7874015748031497
        },
        {
          "duration": 0.05769225000000233,
          "durationTicks": 48,
          "midi": 38,
          "name": "D2",
          "ticks": 127872,
          "time": 153.692154,
          "velocity": 0.7874015748031497
        },
        {
          "duration": 0.05769225000000233,
          "durationTicks": 48,
          "midi": 54,
          "name": "F#3",
          "ticks": 128256,
          "time": 154.15369199999998,
          "velocity": 0.7874015748031497
        },
        {
          "duration": 0.05769225000000233,
          "durationTicks": 48,
          "midi": 42,
          "name": "F#2",
          "ticks": 128256,
          "time": 154.15369199999998,
          "velocity": 0.7874015748031497
        },
        {
          "duration": 0.05769225000000233,
          "durationTicks": 48,
          "midi": 36,
          "name": "C2",
          "ticks": 128256,
          "time": 154.15369199999998,
          "velocity": 0.7874015748031497
        },
        {
          "duration": 0.05769225000000233,
          "durationTicks": 48,
          "midi": 54,
          "name": "F#3",
          "ticks": 128640,
          "time": 154.61522999999997,
          "velocity": 0.7874015748031497
        },
        {
          "duration": 0.05769225000000233,
          "durationTicks": 48,
          "midi": 42,
          "name": "F#2",
          "ticks": 128640,
          "time": 154.61522999999997,
          "velocity": 0.7874015748031497
        },
        {
          "duration": 0.05769225000000233,
          "durationTicks": 48,
          "midi": 38,
          "name": "D2",
          "ticks": 128640,
          "time": 154.61522999999997,
          "velocity": 0.7874015748031497
        },
        {
          "duration": 0.05769225000000233,
          "durationTicks": 48,
          "midi": 54,
          "name": "F#3",
          "ticks": 129024,
          "time": 155.076768,
          "velocity": 0.7874015748031497
        },
        {
          "duration": 0.05769225000000233,
          "durationTicks": 48,
          "midi": 42,
          "name": "F#2",
          "ticks": 129024,
          "time": 155.076768,
          "velocity": 0.7874015748031497
        },
        {
          "duration": 0.05769225000000233,
          "durationTicks": 48,
          "midi": 36,
          "name": "C2",
          "ticks": 129024,
          "time": 155.076768,
          "velocity": 0.7874015748031497
        },
        {
          "duration": 0.05769225000000233,
          "durationTicks": 48,
          "midi": 54,
          "name": "F#3",
          "ticks": 129408,
          "time": 155.53830599999998,
          "velocity": 0.7874015748031497
        },
        {
          "duration": 0.05769225000000233,
          "durationTicks": 48,
          "midi": 42,
          "name": "F#2",
          "ticks": 129408,
          "time": 155.53830599999998,
          "velocity": 0.7874015748031497
        },
        {
          "duration": 0.05769225000000233,
          "durationTicks": 48,
          "midi": 38,
          "name": "D2",
          "ticks": 129408,
          "time": 155.53830599999998,
          "velocity": 0.7874015748031497
        },
        {
          "duration": 0.05769225000000233,
          "durationTicks": 48,
          "midi": 54,
          "name": "F#3",
          "ticks": 129792,
          "time": 155.99984399999997,
          "velocity": 0.7874015748031497
        },
        {
          "duration": 0.05769225000000233,
          "durationTicks": 48,
          "midi": 42,
          "name": "F#2",
          "ticks": 129792,
          "time": 155.99984399999997,
          "velocity": 0.7874015748031497
        },
        {
          "duration": 0.05769225000000233,
          "durationTicks": 48,
          "midi": 36,
          "name": "C2",
          "ticks": 129792,
          "time": 155.99984399999997,
          "velocity": 0.7874015748031497
        },
        {
          "duration": 0.05769225000000233,
          "durationTicks": 48,
          "midi": 54,
          "name": "F#3",
          "ticks": 130176,
          "time": 156.461382,
          "velocity": 0.7874015748031497
        },
        {
          "duration": 0.05769225000000233,
          "durationTicks": 48,
          "midi": 42,
          "name": "F#2",
          "ticks": 130176,
          "time": 156.461382,
          "velocity": 0.7874015748031497
        },
        {
          "duration": 0.05769225000000233,
          "durationTicks": 48,
          "midi": 38,
          "name": "D2",
          "ticks": 130176,
          "time": 156.461382,
          "velocity": 0.7874015748031497
        },
        {
          "duration": 0.05769225000000233,
          "durationTicks": 48,
          "midi": 54,
          "name": "F#3",
          "ticks": 130560,
          "time": 156.92291999999998,
          "velocity": 0.7874015748031497
        },
        {
          "duration": 0.05769225000000233,
          "durationTicks": 48,
          "midi": 42,
          "name": "F#2",
          "ticks": 130560,
          "time": 156.92291999999998,
          "velocity": 0.7874015748031497
        },
        {
          "duration": 0.05769225000000233,
          "durationTicks": 48,
          "midi": 36,
          "name": "C2",
          "ticks": 130560,
          "time": 156.92291999999998,
          "velocity": 0.7874015748031497
        },
        {
          "duration": 0.05769225000000233,
          "durationTicks": 48,
          "midi": 54,
          "name": "F#3",
          "ticks": 130944,
          "time": 157.38445799999997,
          "velocity": 0.7874015748031497
        },
        {
          "duration": 0.05769225000000233,
          "durationTicks": 48,
          "midi": 42,
          "name": "F#2",
          "ticks": 130944,
          "time": 157.38445799999997,
          "velocity": 0.7874015748031497
        },
        {
          "duration": 0.05769225000000233,
          "durationTicks": 48,
          "midi": 38,
          "name": "D2",
          "ticks": 130944,
          "time": 157.38445799999997,
          "velocity": 0.7874015748031497
        },
        {
          "duration": 0.05769225000000233,
          "durationTicks": 48,
          "midi": 54,
          "name": "F#3",
          "ticks": 131328,
          "time": 157.84599599999999,
          "velocity": 0.7874015748031497
        },
        {
          "duration": 0.05769225000000233,
          "durationTicks": 48,
          "midi": 42,
          "name": "F#2",
          "ticks": 131328,
          "time": 157.84599599999999,
          "velocity": 0.7874015748031497
        },
        {
          "duration": 0.05769225000000233,
          "durationTicks": 48,
          "midi": 36,
          "name": "C2",
          "ticks": 131328,
          "time": 157.84599599999999,
          "velocity": 0.7874015748031497
        },
        {
          "duration": 0.05769225000000233,
          "durationTicks": 48,
          "midi": 54,
          "name": "F#3",
          "ticks": 131712,
          "time": 158.30753399999998,
          "velocity": 0.7874015748031497
        },
        {
          "duration": 0.05769225000000233,
          "durationTicks": 48,
          "midi": 42,
          "name": "F#2",
          "ticks": 131712,
          "time": 158.30753399999998,
          "velocity": 0.7874015748031497
        },
        {
          "duration": 0.05769225000000233,
          "durationTicks": 48,
          "midi": 38,
          "name": "D2",
          "ticks": 131712,
          "time": 158.30753399999998,
          "velocity": 0.7874015748031497
        },
        {
          "duration": 0.05769225000000233,
          "durationTicks": 48,
          "midi": 54,
          "name": "F#3",
          "ticks": 132096,
          "time": 158.76907199999997,
          "velocity": 0.7874015748031497
        },
        {
          "duration": 0.05769225000000233,
          "durationTicks": 48,
          "midi": 42,
          "name": "F#2",
          "ticks": 132096,
          "time": 158.76907199999997,
          "velocity": 0.7874015748031497
        },
        {
          "duration": 0.05769225000000233,
          "durationTicks": 48,
          "midi": 36,
          "name": "C2",
          "ticks": 132096,
          "time": 158.76907199999997,
          "velocity": 0.7874015748031497
        },
        {
          "duration": 0.05769225000000233,
          "durationTicks": 48,
          "midi": 54,
          "name": "F#3",
          "ticks": 132480,
          "time": 159.23060999999998,
          "velocity": 0.7874015748031497
        },
        {
          "duration": 0.05769225000000233,
          "durationTicks": 48,
          "midi": 42,
          "name": "F#2",
          "ticks": 132480,
          "time": 159.23060999999998,
          "velocity": 0.7874015748031497
        },
        {
          "duration": 0.05769225000000233,
          "durationTicks": 48,
          "midi": 38,
          "name": "D2",
          "ticks": 132480,
          "time": 159.23060999999998,
          "velocity": 0.7874015748031497
        },
        {
          "duration": 0.05769225000000233,
          "durationTicks": 48,
          "midi": 54,
          "name": "F#3",
          "ticks": 132864,
          "time": 159.69214799999997,
          "velocity": 0.7874015748031497
        },
        {
          "duration": 0.05769225000000233,
          "durationTicks": 48,
          "midi": 42,
          "name": "F#2",
          "ticks": 132864,
          "time": 159.69214799999997,
          "velocity": 0.7874015748031497
        },
        {
          "duration": 0.05769225000000233,
          "durationTicks": 48,
          "midi": 36,
          "name": "C2",
          "ticks": 132864,
          "time": 159.69214799999997,
          "velocity": 0.7874015748031497
        },
        {
          "duration": 0.05769224999997391,
          "durationTicks": 48,
          "midi": 54,
          "name": "F#3",
          "ticks": 133248,
          "time": 160.153686,
          "velocity": 0.7874015748031497
        },
        {
          "duration": 0.05769224999997391,
          "durationTicks": 48,
          "midi": 42,
          "name": "F#2",
          "ticks": 133248,
          "time": 160.153686,
          "velocity": 0.7874015748031497
        },
        {
          "duration": 0.05769224999997391,
          "durationTicks": 48,
          "midi": 38,
          "name": "D2",
          "ticks": 133248,
          "time": 160.153686,
          "velocity": 0.7874015748031497
        },
        {
          "duration": 0.05769225000000233,
          "durationTicks": 48,
          "midi": 54,
          "name": "F#3",
          "ticks": 133632,
          "time": 160.61522399999998,
          "velocity": 0.7874015748031497
        },
        {
          "duration": 0.05769225000000233,
          "durationTicks": 48,
          "midi": 42,
          "name": "F#2",
          "ticks": 133632,
          "time": 160.61522399999998,
          "velocity": 0.7874015748031497
        },
        {
          "duration": 0.05769225000000233,
          "durationTicks": 48,
          "midi": 36,
          "name": "C2",
          "ticks": 133632,
          "time": 160.61522399999998,
          "velocity": 0.7874015748031497
        },
        {
          "duration": 0.05769225000000233,
          "durationTicks": 48,
          "midi": 54,
          "name": "F#3",
          "ticks": 134016,
          "time": 161.07676199999997,
          "velocity": 0.7874015748031497
        },
        {
          "duration": 0.05769225000000233,
          "durationTicks": 48,
          "midi": 42,
          "name": "F#2",
          "ticks": 134016,
          "time": 161.07676199999997,
          "velocity": 0.7874015748031497
        },
        {
          "duration": 0.05769225000000233,
          "durationTicks": 48,
          "midi": 38,
          "name": "D2",
          "ticks": 134016,
          "time": 161.07676199999997,
          "velocity": 0.7874015748031497
        },
        {
          "duration": 0.05769224999997391,
          "durationTicks": 48,
          "midi": 54,
          "name": "F#3",
          "ticks": 134400,
          "time": 161.5383,
          "velocity": 0.7874015748031497
        },
        {
          "duration": 0.05769224999997391,
          "durationTicks": 48,
          "midi": 42,
          "name": "F#2",
          "ticks": 134400,
          "time": 161.5383,
          "velocity": 0.7874015748031497
        },
        {
          "duration": 0.05769224999997391,
          "durationTicks": 48,
          "midi": 36,
          "name": "C2",
          "ticks": 134400,
          "time": 161.5383,
          "velocity": 0.7874015748031497
        },
        {
          "duration": 0.05769225000000233,
          "durationTicks": 48,
          "midi": 54,
          "name": "F#3",
          "ticks": 134784,
          "time": 161.99983799999998,
          "velocity": 0.7874015748031497
        },
        {
          "duration": 0.05769225000000233,
          "durationTicks": 48,
          "midi": 42,
          "name": "F#2",
          "ticks": 134784,
          "time": 161.99983799999998,
          "velocity": 0.7874015748031497
        },
        {
          "duration": 0.05769225000000233,
          "durationTicks": 48,
          "midi": 38,
          "name": "D2",
          "ticks": 134784,
          "time": 161.99983799999998,
          "velocity": 0.7874015748031497
        },
        {
          "duration": 0.05769225000000233,
          "durationTicks": 48,
          "midi": 54,
          "name": "F#3",
          "ticks": 135168,
          "time": 162.46137599999997,
          "velocity": 0.7874015748031497
        },
        {
          "duration": 0.05769225000000233,
          "durationTicks": 48,
          "midi": 42,
          "name": "F#2",
          "ticks": 135168,
          "time": 162.46137599999997,
          "velocity": 0.7874015748031497
        },
        {
          "duration": 0.05769225000000233,
          "durationTicks": 48,
          "midi": 36,
          "name": "C2",
          "ticks": 135168,
          "time": 162.46137599999997,
          "velocity": 0.7874015748031497
        },
        {
          "duration": 0.05769224999997391,
          "durationTicks": 48,
          "midi": 54,
          "name": "F#3",
          "ticks": 135552,
          "time": 162.922914,
          "velocity": 0.7874015748031497
        },
        {
          "duration": 0.05769224999997391,
          "durationTicks": 48,
          "midi": 42,
          "name": "F#2",
          "ticks": 135552,
          "time": 162.922914,
          "velocity": 0.7874015748031497
        },
        {
          "duration": 0.05769224999997391,
          "durationTicks": 48,
          "midi": 38,
          "name": "D2",
          "ticks": 135552,
          "time": 162.922914,
          "velocity": 0.7874015748031497
        },
        {
          "duration": 0.05769225000000233,
          "durationTicks": 48,
          "midi": 54,
          "name": "F#3",
          "ticks": 135936,
          "time": 163.38445199999998,
          "velocity": 0.7874015748031497
        },
        {
          "duration": 0.05769225000000233,
          "durationTicks": 48,
          "midi": 42,
          "name": "F#2",
          "ticks": 135936,
          "time": 163.38445199999998,
          "velocity": 0.7874015748031497
        },
        {
          "duration": 0.05769225000000233,
          "durationTicks": 48,
          "midi": 36,
          "name": "C2",
          "ticks": 135936,
          "time": 163.38445199999998,
          "velocity": 0.7874015748031497
        },
        {
          "duration": 0.05769225000000233,
          "durationTicks": 48,
          "midi": 54,
          "name": "F#3",
          "ticks": 136320,
          "time": 163.84598999999997,
          "velocity": 0.7874015748031497
        },
        {
          "duration": 0.05769225000000233,
          "durationTicks": 48,
          "midi": 42,
          "name": "F#2",
          "ticks": 136320,
          "time": 163.84598999999997,
          "velocity": 0.7874015748031497
        },
        {
          "duration": 0.05769225000000233,
          "durationTicks": 48,
          "midi": 38,
          "name": "D2",
          "ticks": 136320,
          "time": 163.84598999999997,
          "velocity": 0.7874015748031497
        },
        {
          "duration": 0.05769225000000233,
          "durationTicks": 48,
          "midi": 70,
          "name": "A#4",
          "ticks": 136704,
          "time": 164.307528,
          "velocity": 0.7874015748031497
        },
        {
          "duration": 0.05769225000000233,
          "durationTicks": 48,
          "midi": 54,
          "name": "F#3",
          "ticks": 136704,
          "time": 164.307528,
          "velocity": 0.7874015748031497
        },
        {
          "duration": 0.05769225000000233,
          "durationTicks": 48,
          "midi": 42,
          "name": "F#2",
          "ticks": 136704,
          "time": 164.307528,
          "velocity": 0.7874015748031497
        },
        {
          "duration": 0.05769225000000233,
          "durationTicks": 48,
          "midi": 36,
          "name": "C2",
          "ticks": 136704,
          "time": 164.307528,
          "velocity": 0.7874015748031497
        },
        {
          "duration": 0.05769225000000233,
          "durationTicks": 48,
          "midi": 70,
          "name": "A#4",
          "ticks": 136768,
          "time": 164.38445099999998,
          "velocity": 0.7874015748031497
        },
        {
          "duration": 0.05769225000000233,
          "durationTicks": 48,
          "midi": 70,
          "name": "A#4",
          "ticks": 136832,
          "time": 164.46137399999998,
          "velocity": 0.7874015748031497
        },
        {
          "duration": 0.05769225000000233,
          "durationTicks": 48,
          "midi": 70,
          "name": "A#4",
          "ticks": 136896,
          "time": 164.53829699999997,
          "velocity": 0.7874015748031497
        },
        {
          "duration": 0.05769225000000233,
          "durationTicks": 48,
          "midi": 70,
          "name": "A#4",
          "ticks": 136960,
          "time": 164.61521999999997,
          "velocity": 0.7874015748031497
        },
        {
          "duration": 0.05769225000000233,
          "durationTicks": 48,
          "midi": 70,
          "name": "A#4",
          "ticks": 137024,
          "time": 164.692143,
          "velocity": 0.7874015748031497
        },
        {
          "duration": 0.05769225000000233,
          "durationTicks": 48,
          "midi": 70,
          "name": "A#4",
          "ticks": 137088,
          "time": 164.76906599999998,
          "velocity": 0.7874015748031497
        },
        {
          "duration": 0.05769225000000233,
          "durationTicks": 48,
          "midi": 54,
          "name": "F#3",
          "ticks": 137088,
          "time": 164.76906599999998,
          "velocity": 0.7874015748031497
        },
        {
          "duration": 0.05769225000000233,
          "durationTicks": 48,
          "midi": 42,
          "name": "F#2",
          "ticks": 137088,
          "time": 164.76906599999998,
          "velocity": 0.7874015748031497
        },
        {
          "duration": 0.05769225000000233,
          "durationTicks": 48,
          "midi": 38,
          "name": "D2",
          "ticks": 137088,
          "time": 164.76906599999998,
          "velocity": 0.7874015748031497
        },
        {
          "duration": 0.05769225000000233,
          "durationTicks": 48,
          "midi": 70,
          "name": "A#4",
          "ticks": 137152,
          "time": 164.84598899999997,
          "velocity": 0.7874015748031497
        },
        {
          "duration": 0.05769225000000233,
          "durationTicks": 48,
          "midi": 70,
          "name": "A#4",
          "ticks": 137216,
          "time": 164.92291199999997,
          "velocity": 0.7874015748031497
        },
        {
          "duration": 0.05769224999997391,
          "durationTicks": 48,
          "midi": 70,
          "name": "A#4",
          "ticks": 137280,
          "time": 164.999835,
          "velocity": 0.7874015748031497
        },
        {
          "duration": 0.05769225000000233,
          "durationTicks": 48,
          "midi": 70,
          "name": "A#4",
          "ticks": 137344,
          "time": 165.07675799999998,
          "velocity": 0.7874015748031497
        },
        {
          "duration": 0.05769225000000233,
          "durationTicks": 48,
          "midi": 70,
          "name": "A#4",
          "ticks": 137408,
          "time": 165.15368099999998,
          "velocity": 0.7874015748031497
        },
        {
          "duration": 0.05769225000000233,
          "durationTicks": 48,
          "midi": 70,
          "name": "A#4",
          "ticks": 137472,
          "time": 165.23060399999997,
          "velocity": 0.7874015748031497
        },
        {
          "duration": 0.05769225000000233,
          "durationTicks": 48,
          "midi": 54,
          "name": "F#3",
          "ticks": 137472,
          "time": 165.23060399999997,
          "velocity": 0.7874015748031497
        },
        {
          "duration": 0.05769225000000233,
          "durationTicks": 48,
          "midi": 42,
          "name": "F#2",
          "ticks": 137472,
          "time": 165.23060399999997,
          "velocity": 0.7874015748031497
        },
        {
          "duration": 0.05769225000000233,
          "durationTicks": 48,
          "midi": 36,
          "name": "C2",
          "ticks": 137472,
          "time": 165.23060399999997,
          "velocity": 0.7874015748031497
        },
        {
          "duration": 0.05769224999997391,
          "durationTicks": 48,
          "midi": 70,
          "name": "A#4",
          "ticks": 137536,
          "time": 165.307527,
          "velocity": 0.7874015748031497
        },
        {
          "duration": 0.05769225000000233,
          "durationTicks": 48,
          "midi": 70,
          "name": "A#4",
          "ticks": 137600,
          "time": 165.38445,
          "velocity": 0.7874015748031497
        },
        {
          "duration": 0.05769225000000233,
          "durationTicks": 48,
          "midi": 70,
          "name": "A#4",
          "ticks": 137664,
          "time": 165.46137299999998,
          "velocity": 0.7874015748031497
        },
        {
          "duration": 0.05769225000000233,
          "durationTicks": 48,
          "midi": 70,
          "name": "A#4",
          "ticks": 137728,
          "time": 165.53829599999997,
          "velocity": 0.7874015748031497
        },
        {
          "duration": 0.05769225000000233,
          "durationTicks": 48,
          "midi": 70,
          "name": "A#4",
          "ticks": 137792,
          "time": 165.61521899999997,
          "velocity": 0.7874015748031497
        },
        {
          "duration": 0.05769225000000233,
          "durationTicks": 48,
          "midi": 54,
          "name": "F#3",
          "ticks": 137856,
          "time": 165.692142,
          "velocity": 0.7874015748031497
        },
        {
          "duration": 0.05769225000000233,
          "durationTicks": 48,
          "midi": 42,
          "name": "F#2",
          "ticks": 137856,
          "time": 165.692142,
          "velocity": 0.7874015748031497
        },
        {
          "duration": 0.05769225000000233,
          "durationTicks": 48,
          "midi": 38,
          "name": "D2",
          "ticks": 137856,
          "time": 165.692142,
          "velocity": 0.7874015748031497
        },
        {
          "duration": 0.05769225000000233,
          "durationTicks": 48,
          "midi": 54,
          "name": "F#3",
          "ticks": 138240,
          "time": 166.15367999999998,
          "velocity": 0.7874015748031497
        },
        {
          "duration": 0.05769225000000233,
          "durationTicks": 48,
          "midi": 42,
          "name": "F#2",
          "ticks": 138240,
          "time": 166.15367999999998,
          "velocity": 0.7874015748031497
        },
        {
          "duration": 0.05769225000000233,
          "durationTicks": 48,
          "midi": 36,
          "name": "C2",
          "ticks": 138240,
          "time": 166.15367999999998,
          "velocity": 0.7874015748031497
        },
        {
          "duration": 0.05769225000000233,
          "durationTicks": 48,
          "midi": 54,
          "name": "F#3",
          "ticks": 138624,
          "time": 166.61521799999997,
          "velocity": 0.7874015748031497
        },
        {
          "duration": 0.05769225000000233,
          "durationTicks": 48,
          "midi": 42,
          "name": "F#2",
          "ticks": 138624,
          "time": 166.61521799999997,
          "velocity": 0.7874015748031497
        },
        {
          "duration": 0.05769225000000233,
          "durationTicks": 48,
          "midi": 38,
          "name": "D2",
          "ticks": 138624,
          "time": 166.61521799999997,
          "velocity": 0.7874015748031497
        },
        {
          "duration": 0.05769225000000233,
          "durationTicks": 48,
          "midi": 54,
          "name": "F#3",
          "ticks": 139008,
          "time": 167.076756,
          "velocity": 0.7874015748031497
        },
        {
          "duration": 0.05769225000000233,
          "durationTicks": 48,
          "midi": 42,
          "name": "F#2",
          "ticks": 139008,
          "time": 167.076756,
          "velocity": 0.7874015748031497
        },
        {
          "duration": 0.05769225000000233,
          "durationTicks": 48,
          "midi": 36,
          "name": "C2",
          "ticks": 139008,
          "time": 167.076756,
          "velocity": 0.7874015748031497
        },
        {
          "duration": 0.05769225000000233,
          "durationTicks": 48,
          "midi": 54,
          "name": "F#3",
          "ticks": 139392,
          "time": 167.53829399999998,
          "velocity": 0.7874015748031497
        },
        {
          "duration": 0.05769225000000233,
          "durationTicks": 48,
          "midi": 42,
          "name": "F#2",
          "ticks": 139392,
          "time": 167.53829399999998,
          "velocity": 0.7874015748031497
        },
        {
          "duration": 0.05769225000000233,
          "durationTicks": 48,
          "midi": 38,
          "name": "D2",
          "ticks": 139392,
          "time": 167.53829399999998,
          "velocity": 0.7874015748031497
        },
        {
          "duration": 0.05769225000000233,
          "durationTicks": 48,
          "midi": 54,
          "name": "F#3",
          "ticks": 139776,
          "time": 167.99983199999997,
          "velocity": 0.7874015748031497
        },
        {
          "duration": 0.05769225000000233,
          "durationTicks": 48,
          "midi": 42,
          "name": "F#2",
          "ticks": 139776,
          "time": 167.99983199999997,
          "velocity": 0.7874015748031497
        },
        {
          "duration": 0.05769225000000233,
          "durationTicks": 48,
          "midi": 36,
          "name": "C2",
          "ticks": 139776,
          "time": 167.99983199999997,
          "velocity": 0.7874015748031497
        },
        {
          "duration": 0.05769225000000233,
          "durationTicks": 48,
          "midi": 70,
          "name": "A#4",
          "ticks": 139776,
          "time": 167.99983199999997,
          "velocity": 0.7874015748031497
        },
        {
          "duration": 0.05769224999997391,
          "durationTicks": 48,
          "midi": 70,
          "name": "A#4",
          "ticks": 139840,
          "time": 168.076755,
          "velocity": 0.7874015748031497
        },
        {
          "duration": 0.05769225000000233,
          "durationTicks": 48,
          "midi": 70,
          "name": "A#4",
          "ticks": 139904,
          "time": 168.15367799999999,
          "velocity": 0.7874015748031497
        },
        {
          "duration": 0.05769225000000233,
          "durationTicks": 48,
          "midi": 70,
          "name": "A#4",
          "ticks": 139968,
          "time": 168.23060099999998,
          "velocity": 0.7874015748031497
        },
        {
          "duration": 0.05769225000000233,
          "durationTicks": 48,
          "midi": 70,
          "name": "A#4",
          "ticks": 140032,
          "time": 168.30752399999997,
          "velocity": 0.7874015748031497
        },
        {
          "duration": 0.05769225000000233,
          "durationTicks": 48,
          "midi": 70,
          "name": "A#4",
          "ticks": 140096,
          "time": 168.38444699999997,
          "velocity": 0.7874015748031497
        },
        {
          "duration": 0.05769225000000233,
          "durationTicks": 48,
          "midi": 54,
          "name": "F#3",
          "ticks": 140160,
          "time": 168.46137,
          "velocity": 0.7874015748031497
        },
        {
          "duration": 0.05769225000000233,
          "durationTicks": 48,
          "midi": 42,
          "name": "F#2",
          "ticks": 140160,
          "time": 168.46137,
          "velocity": 0.7874015748031497
        },
        {
          "duration": 0.05769225000000233,
          "durationTicks": 48,
          "midi": 38,
          "name": "D2",
          "ticks": 140160,
          "time": 168.46137,
          "velocity": 0.7874015748031497
        },
        {
          "duration": 0.05769225000000233,
          "durationTicks": 48,
          "midi": 70,
          "name": "A#4",
          "ticks": 140160,
          "time": 168.46137,
          "velocity": 0.7874015748031497
        },
        {
          "duration": 0.05769225000000233,
          "durationTicks": 48,
          "midi": 70,
          "name": "A#4",
          "ticks": 140224,
          "time": 168.53829299999998,
          "velocity": 0.7874015748031497
        },
        {
          "duration": 0.05769225000000233,
          "durationTicks": 48,
          "midi": 70,
          "name": "A#4",
          "ticks": 140288,
          "time": 168.61521599999998,
          "velocity": 0.7874015748031497
        },
        {
          "duration": 0.05769225000000233,
          "durationTicks": 48,
          "midi": 70,
          "name": "A#4",
          "ticks": 140352,
          "time": 168.69213899999997,
          "velocity": 0.7874015748031497
        },
        {
          "duration": 0.05769225000000233,
          "durationTicks": 48,
          "midi": 70,
          "name": "A#4",
          "ticks": 140416,
          "time": 168.76906199999996,
          "velocity": 0.7874015748031497
        },
        {
          "duration": 0.05769225000000233,
          "durationTicks": 48,
          "midi": 70,
          "name": "A#4",
          "ticks": 140480,
          "time": 168.84598499999998,
          "velocity": 0.7874015748031497
        },
        {
          "duration": 0.05769225000000233,
          "durationTicks": 48,
          "midi": 54,
          "name": "F#3",
          "ticks": 140544,
          "time": 168.92290799999998,
          "velocity": 0.7874015748031497
        },
        {
          "duration": 0.05769225000000233,
          "durationTicks": 48,
          "midi": 42,
          "name": "F#2",
          "ticks": 140544,
          "time": 168.92290799999998,
          "velocity": 0.7874015748031497
        },
        {
          "duration": 0.05769225000000233,
          "durationTicks": 48,
          "midi": 36,
          "name": "C2",
          "ticks": 140544,
          "time": 168.92290799999998,
          "velocity": 0.7874015748031497
        },
        {
          "duration": 0.05769225000000233,
          "durationTicks": 48,
          "midi": 70,
          "name": "A#4",
          "ticks": 140544,
          "time": 168.92290799999998,
          "velocity": 0.7874015748031497
        },
        {
          "duration": 0.05769225000000233,
          "durationTicks": 48,
          "midi": 70,
          "name": "A#4",
          "ticks": 140608,
          "time": 168.99983099999997,
          "velocity": 0.7874015748031497
        },
        {
          "duration": 0.05769224999997391,
          "durationTicks": 48,
          "midi": 70,
          "name": "A#4",
          "ticks": 140672,
          "time": 169.076754,
          "velocity": 0.7874015748031497
        },
        {
          "duration": 0.05769225000000233,
          "durationTicks": 48,
          "midi": 70,
          "name": "A#4",
          "ticks": 140736,
          "time": 169.153677,
          "velocity": 0.7874015748031497
        },
        {
          "duration": 0.05769225000000233,
          "durationTicks": 48,
          "midi": 70,
          "name": "A#4",
          "ticks": 140800,
          "time": 169.23059999999998,
          "velocity": 0.7874015748031497
        },
        {
          "duration": 0.05769225000000233,
          "durationTicks": 48,
          "midi": 70,
          "name": "A#4",
          "ticks": 140864,
          "time": 169.30752299999997,
          "velocity": 0.7874015748031497
        },
        {
          "duration": 0.05769225000000233,
          "durationTicks": 48,
          "midi": 54,
          "name": "F#3",
          "ticks": 140928,
          "time": 169.38444599999997,
          "velocity": 0.7874015748031497
        },
        {
          "duration": 0.05769225000000233,
          "durationTicks": 48,
          "midi": 42,
          "name": "F#2",
          "ticks": 140928,
          "time": 169.38444599999997,
          "velocity": 0.7874015748031497
        },
        {
          "duration": 0.05769225000000233,
          "durationTicks": 48,
          "midi": 38,
          "name": "D2",
          "ticks": 140928,
          "time": 169.38444599999997,
          "velocity": 0.7874015748031497
        },
        {
          "duration": 0.05769225000000233,
          "durationTicks": 48,
          "midi": 54,
          "name": "F#3",
          "ticks": 141312,
          "time": 169.845984,
          "velocity": 0.7874015748031497
        },
        {
          "duration": 0.05769225000000233,
          "durationTicks": 48,
          "midi": 42,
          "name": "F#2",
          "ticks": 141312,
          "time": 169.845984,
          "velocity": 0.7874015748031497
        },
        {
          "duration": 0.05769225000000233,
          "durationTicks": 48,
          "midi": 36,
          "name": "C2",
          "ticks": 141312,
          "time": 169.845984,
          "velocity": 0.7874015748031497
        },
        {
          "duration": 0.05769225000000233,
          "durationTicks": 48,
          "midi": 54,
          "name": "F#3",
          "ticks": 141696,
          "time": 170.30752199999998,
          "velocity": 0.7874015748031497
        },
        {
          "duration": 0.05769225000000233,
          "durationTicks": 48,
          "midi": 42,
          "name": "F#2",
          "ticks": 141696,
          "time": 170.30752199999998,
          "velocity": 0.7874015748031497
        },
        {
          "duration": 0.05769225000000233,
          "durationTicks": 48,
          "midi": 38,
          "name": "D2",
          "ticks": 141696,
          "time": 170.30752199999998,
          "velocity": 0.7874015748031497
        },
        {
          "duration": 0.05769225000000233,
          "durationTicks": 48,
          "midi": 54,
          "name": "F#3",
          "ticks": 142080,
          "time": 170.76905999999997,
          "velocity": 0.7874015748031497
        },
        {
          "duration": 0.05769225000000233,
          "durationTicks": 48,
          "midi": 42,
          "name": "F#2",
          "ticks": 142080,
          "time": 170.76905999999997,
          "velocity": 0.7874015748031497
        },
        {
          "duration": 0.05769225000000233,
          "durationTicks": 48,
          "midi": 36,
          "name": "C2",
          "ticks": 142080,
          "time": 170.76905999999997,
          "velocity": 0.7874015748031497
        },
        {
          "duration": 0.05769225000000233,
          "durationTicks": 48,
          "midi": 54,
          "name": "F#3",
          "ticks": 142464,
          "time": 171.230598,
          "velocity": 0.7874015748031497
        },
        {
          "duration": 0.05769225000000233,
          "durationTicks": 48,
          "midi": 42,
          "name": "F#2",
          "ticks": 142464,
          "time": 171.230598,
          "velocity": 0.7874015748031497
        },
        {
          "duration": 0.05769225000000233,
          "durationTicks": 48,
          "midi": 38,
          "name": "D2",
          "ticks": 142464,
          "time": 171.230598,
          "velocity": 0.7874015748031497
        },
        {
          "duration": 0.05769225000000233,
          "durationTicks": 48,
          "midi": 54,
          "name": "F#3",
          "ticks": 142848,
          "time": 171.69213599999998,
          "velocity": 0.7874015748031497
        },
        {
          "duration": 0.05769225000000233,
          "durationTicks": 48,
          "midi": 42,
          "name": "F#2",
          "ticks": 142848,
          "time": 171.69213599999998,
          "velocity": 0.7874015748031497
        },
        {
          "duration": 0.05769225000000233,
          "durationTicks": 48,
          "midi": 36,
          "name": "C2",
          "ticks": 142848,
          "time": 171.69213599999998,
          "velocity": 0.7874015748031497
        },
        {
          "duration": 0.05769225000000233,
          "durationTicks": 48,
          "midi": 70,
          "name": "A#4",
          "ticks": 142848,
          "time": 171.69213599999998,
          "velocity": 0.7874015748031497
        },
        {
          "duration": 0.05769225000000233,
          "durationTicks": 48,
          "midi": 70,
          "name": "A#4",
          "ticks": 142912,
          "time": 171.76905899999997,
          "velocity": 0.7874015748031497
        },
        {
          "duration": 0.05769225000000233,
          "durationTicks": 48,
          "midi": 70,
          "name": "A#4",
          "ticks": 142976,
          "time": 171.845982,
          "velocity": 0.7874015748031497
        },
        {
          "duration": 0.05769225000000233,
          "durationTicks": 48,
          "midi": 70,
          "name": "A#4",
          "ticks": 143040,
          "time": 171.922905,
          "velocity": 0.7874015748031497
        },
        {
          "duration": 0.05769225000000233,
          "durationTicks": 48,
          "midi": 70,
          "name": "A#4",
          "ticks": 143104,
          "time": 171.99982799999998,
          "velocity": 0.7874015748031497
        },
        {
          "duration": 0.05769225000000233,
          "durationTicks": 48,
          "midi": 70,
          "name": "A#4",
          "ticks": 143168,
          "time": 172.07675099999997,
          "velocity": 0.7874015748031497
        },
        {
          "duration": 0.05769225000000233,
          "durationTicks": 48,
          "midi": 54,
          "name": "F#3",
          "ticks": 143232,
          "time": 172.15367399999997,
          "velocity": 0.7874015748031497
        },
        {
          "duration": 0.05769225000000233,
          "durationTicks": 48,
          "midi": 42,
          "name": "F#2",
          "ticks": 143232,
          "time": 172.15367399999997,
          "velocity": 0.7874015748031497
        },
        {
          "duration": 0.05769225000000233,
          "durationTicks": 48,
          "midi": 38,
          "name": "D2",
          "ticks": 143232,
          "time": 172.15367399999997,
          "velocity": 0.7874015748031497
        },
        {
          "duration": 0.05769225000000233,
          "durationTicks": 48,
          "midi": 70,
          "name": "A#4",
          "ticks": 143232,
          "time": 172.15367399999997,
          "velocity": 0.7874015748031497
        },
        {
          "duration": 0.05769225000000233,
          "durationTicks": 48,
          "midi": 70,
          "name": "A#4",
          "ticks": 143296,
          "time": 172.230597,
          "velocity": 0.7874015748031497
        },
        {
          "duration": 0.05769225000000233,
          "durationTicks": 48,
          "midi": 70,
          "name": "A#4",
          "ticks": 143360,
          "time": 172.30751999999998,
          "velocity": 0.7874015748031497
        },
        {
          "duration": 0.05769225000000233,
          "durationTicks": 48,
          "midi": 70,
          "name": "A#4",
          "ticks": 143424,
          "time": 172.38444299999998,
          "velocity": 0.7874015748031497
        },
        {
          "duration": 0.05769225000000233,
          "durationTicks": 48,
          "midi": 70,
          "name": "A#4",
          "ticks": 143488,
          "time": 172.46136599999997,
          "velocity": 0.7874015748031497
        },
        {
          "duration": 0.05769225000000233,
          "durationTicks": 48,
          "midi": 70,
          "name": "A#4",
          "ticks": 143552,
          "time": 172.53828899999996,
          "velocity": 0.7874015748031497
        },
        {
          "duration": 0.05769225000000233,
          "durationTicks": 48,
          "midi": 54,
          "name": "F#3",
          "ticks": 143616,
          "time": 172.61521199999999,
          "velocity": 0.7874015748031497
        },
        {
          "duration": 0.05769225000000233,
          "durationTicks": 48,
          "midi": 42,
          "name": "F#2",
          "ticks": 143616,
          "time": 172.61521199999999,
          "velocity": 0.7874015748031497
        },
        {
          "duration": 0.05769225000000233,
          "durationTicks": 48,
          "midi": 36,
          "name": "C2",
          "ticks": 143616,
          "time": 172.61521199999999,
          "velocity": 0.7874015748031497
        },
        {
          "duration": 0.05769225000000233,
          "durationTicks": 48,
          "midi": 70,
          "name": "A#4",
          "ticks": 143616,
          "time": 172.61521199999999,
          "velocity": 0.7874015748031497
        },
        {
          "duration": 0.05769225000000233,
          "durationTicks": 48,
          "midi": 70,
          "name": "A#4",
          "ticks": 143680,
          "time": 172.69213499999998,
          "velocity": 0.7874015748031497
        },
        {
          "duration": 0.05769225000000233,
          "durationTicks": 48,
          "midi": 70,
          "name": "A#4",
          "ticks": 143744,
          "time": 172.76905799999997,
          "velocity": 0.7874015748031497
        },
        {
          "duration": 0.05769225000000233,
          "durationTicks": 48,
          "midi": 70,
          "name": "A#4",
          "ticks": 143808,
          "time": 172.84598099999997,
          "velocity": 0.7874015748031497
        },
        {
          "duration": 0.05769224999997391,
          "durationTicks": 48,
          "midi": 70,
          "name": "A#4",
          "ticks": 143872,
          "time": 172.922904,
          "velocity": 0.7874015748031497
        },
        {
          "duration": 0.05769225000000233,
          "durationTicks": 48,
          "midi": 70,
          "name": "A#4",
          "ticks": 143936,
          "time": 172.99982699999998,
          "velocity": 0.7874015748031497
        },
        {
          "duration": 0.05769225000000233,
          "durationTicks": 48,
          "midi": 54,
          "name": "F#3",
          "ticks": 144000,
          "time": 173.07674999999998,
          "velocity": 0.7874015748031497
        },
        {
          "duration": 0.05769225000000233,
          "durationTicks": 48,
          "midi": 42,
          "name": "F#2",
          "ticks": 144000,
          "time": 173.07674999999998,
          "velocity": 0.7874015748031497
        },
        {
          "duration": 0.05769225000000233,
          "durationTicks": 48,
          "midi": 38,
          "name": "D2",
          "ticks": 144000,
          "time": 173.07674999999998,
          "velocity": 0.7874015748031497
        },
        {
          "duration": 0.05769225000000233,
          "durationTicks": 48,
          "midi": 54,
          "name": "F#3",
          "ticks": 144384,
          "time": 173.53828799999997,
          "velocity": 0.7874015748031497
        },
        {
          "duration": 0.05769225000000233,
          "durationTicks": 48,
          "midi": 42,
          "name": "F#2",
          "ticks": 144384,
          "time": 173.53828799999997,
          "velocity": 0.7874015748031497
        },
        {
          "duration": 0.05769225000000233,
          "durationTicks": 48,
          "midi": 36,
          "name": "C2",
          "ticks": 144384,
          "time": 173.53828799999997,
          "velocity": 0.7874015748031497
        },
        {
          "duration": 0.05769225000000233,
          "durationTicks": 48,
          "midi": 54,
          "name": "F#3",
          "ticks": 144768,
          "time": 173.99982599999998,
          "velocity": 0.7874015748031497
        },
        {
          "duration": 0.05769225000000233,
          "durationTicks": 48,
          "midi": 42,
          "name": "F#2",
          "ticks": 144768,
          "time": 173.99982599999998,
          "velocity": 0.7874015748031497
        },
        {
          "duration": 0.05769225000000233,
          "durationTicks": 48,
          "midi": 38,
          "name": "D2",
          "ticks": 144768,
          "time": 173.99982599999998,
          "velocity": 0.7874015748031497
        },
        {
          "duration": 0.05769225000000233,
          "durationTicks": 48,
          "midi": 54,
          "name": "F#3",
          "ticks": 145152,
          "time": 174.46136399999997,
          "velocity": 0.7874015748031497
        },
        {
          "duration": 0.05769225000000233,
          "durationTicks": 48,
          "midi": 42,
          "name": "F#2",
          "ticks": 145152,
          "time": 174.46136399999997,
          "velocity": 0.7874015748031497
        },
        {
          "duration": 0.05769225000000233,
          "durationTicks": 48,
          "midi": 36,
          "name": "C2",
          "ticks": 145152,
          "time": 174.46136399999997,
          "velocity": 0.7874015748031497
        },
        {
          "duration": 0.05769225000000233,
          "durationTicks": 48,
          "midi": 54,
          "name": "F#3",
          "ticks": 145536,
          "time": 174.92290199999997,
          "velocity": 0.7874015748031497
        },
        {
          "duration": 0.05769225000000233,
          "durationTicks": 48,
          "midi": 42,
          "name": "F#2",
          "ticks": 145536,
          "time": 174.92290199999997,
          "velocity": 0.7874015748031497
        },
        {
          "duration": 0.05769225000000233,
          "durationTicks": 48,
          "midi": 38,
          "name": "D2",
          "ticks": 145536,
          "time": 174.92290199999997,
          "velocity": 0.7874015748031497
        },
        {
          "duration": 0.05769225000000233,
          "durationTicks": 48,
          "midi": 54,
          "name": "F#3",
          "ticks": 145920,
          "time": 175.38443999999998,
          "velocity": 0.7874015748031497
        },
        {
          "duration": 0.05769225000000233,
          "durationTicks": 48,
          "midi": 42,
          "name": "F#2",
          "ticks": 145920,
          "time": 175.38443999999998,
          "velocity": 0.7874015748031497
        },
        {
          "duration": 0.05769225000000233,
          "durationTicks": 48,
          "midi": 36,
          "name": "C2",
          "ticks": 145920,
          "time": 175.38443999999998,
          "velocity": 0.7874015748031497
        },
        {
          "duration": 0.05769225000000233,
          "durationTicks": 48,
          "midi": 70,
          "name": "A#4",
          "ticks": 145920,
          "time": 175.38443999999998,
          "velocity": 0.7874015748031497
        },
        {
          "duration": 0.05769225000000233,
          "durationTicks": 48,
          "midi": 70,
          "name": "A#4",
          "ticks": 145984,
          "time": 175.46136299999998,
          "velocity": 0.7874015748031497
        },
        {
          "duration": 0.05769225000000233,
          "durationTicks": 48,
          "midi": 70,
          "name": "A#4",
          "ticks": 146048,
          "time": 175.53828599999997,
          "velocity": 0.7874015748031497
        },
        {
          "duration": 0.05769224999997391,
          "durationTicks": 48,
          "midi": 70,
          "name": "A#4",
          "ticks": 146112,
          "time": 175.615209,
          "velocity": 0.7874015748031497
        },
        {
          "duration": 0.05769224999997391,
          "durationTicks": 48,
          "midi": 70,
          "name": "A#4",
          "ticks": 146176,
          "time": 175.692132,
          "velocity": 0.7874015748031497
        },
        {
          "duration": 0.05769225000000233,
          "durationTicks": 48,
          "midi": 70,
          "name": "A#4",
          "ticks": 146240,
          "time": 175.76905499999998,
          "velocity": 0.7874015748031497
        },
        {
          "duration": 0.05769225000000233,
          "durationTicks": 48,
          "midi": 54,
          "name": "F#3",
          "ticks": 146304,
          "time": 175.84597799999997,
          "velocity": 0.7874015748031497
        },
        {
          "duration": 0.05769225000000233,
          "durationTicks": 48,
          "midi": 42,
          "name": "F#2",
          "ticks": 146304,
          "time": 175.84597799999997,
          "velocity": 0.7874015748031497
        },
        {
          "duration": 0.05769225000000233,
          "durationTicks": 48,
          "midi": 38,
          "name": "D2",
          "ticks": 146304,
          "time": 175.84597799999997,
          "velocity": 0.7874015748031497
        },
        {
          "duration": 0.05769225000000233,
          "durationTicks": 48,
          "midi": 70,
          "name": "A#4",
          "ticks": 146304,
          "time": 175.84597799999997,
          "velocity": 0.7874015748031497
        },
        {
          "duration": 0.05769225000000233,
          "durationTicks": 48,
          "midi": 70,
          "name": "A#4",
          "ticks": 146368,
          "time": 175.92290099999997,
          "velocity": 0.7874015748031497
        },
        {
          "duration": 0.05769225000000233,
          "durationTicks": 48,
          "midi": 70,
          "name": "A#4",
          "ticks": 146432,
          "time": 175.999824,
          "velocity": 0.7874015748031497
        },
        {
          "duration": 0.05769225000000233,
          "durationTicks": 48,
          "midi": 70,
          "name": "A#4",
          "ticks": 146496,
          "time": 176.07674699999998,
          "velocity": 0.7874015748031497
        },
        {
          "duration": 0.05769225000000233,
          "durationTicks": 48,
          "midi": 70,
          "name": "A#4",
          "ticks": 146560,
          "time": 176.15366999999998,
          "velocity": 0.7874015748031497
        },
        {
          "duration": 0.05769225000000233,
          "durationTicks": 48,
          "midi": 70,
          "name": "A#4",
          "ticks": 146624,
          "time": 176.23059299999997,
          "velocity": 0.7874015748031497
        },
        {
          "duration": 0.05769225000000233,
          "durationTicks": 48,
          "midi": 54,
          "name": "F#3",
          "ticks": 146688,
          "time": 176.30751599999996,
          "velocity": 0.7874015748031497
        },
        {
          "duration": 0.05769225000000233,
          "durationTicks": 48,
          "midi": 42,
          "name": "F#2",
          "ticks": 146688,
          "time": 176.30751599999996,
          "velocity": 0.7874015748031497
        },
        {
          "duration": 0.05769225000000233,
          "durationTicks": 48,
          "midi": 36,
          "name": "C2",
          "ticks": 146688,
          "time": 176.30751599999996,
          "velocity": 0.7874015748031497
        },
        {
          "duration": 0.05769225000000233,
          "durationTicks": 48,
          "midi": 70,
          "name": "A#4",
          "ticks": 146688,
          "time": 176.30751599999996,
          "velocity": 0.7874015748031497
        },
        {
          "duration": 0.05769225000000233,
          "durationTicks": 48,
          "midi": 70,
          "name": "A#4",
          "ticks": 146752,
          "time": 176.384439,
          "velocity": 0.7874015748031497
        },
        {
          "duration": 0.05769225000000233,
          "durationTicks": 48,
          "midi": 70,
          "name": "A#4",
          "ticks": 146816,
          "time": 176.46136199999998,
          "velocity": 0.7874015748031497
        },
        {
          "duration": 0.05769225000000233,
          "durationTicks": 48,
          "midi": 70,
          "name": "A#4",
          "ticks": 146880,
          "time": 176.53828499999997,
          "velocity": 0.7874015748031497
        },
        {
          "duration": 0.05769225000000233,
          "durationTicks": 48,
          "midi": 70,
          "name": "A#4",
          "ticks": 146944,
          "time": 176.61520799999997,
          "velocity": 0.7874015748031497
        },
        {
          "duration": 0.05769224999997391,
          "durationTicks": 48,
          "midi": 70,
          "name": "A#4",
          "ticks": 147008,
          "time": 176.692131,
          "velocity": 0.7874015748031497
        },
        {
          "duration": 0.05769225000000233,
          "durationTicks": 48,
          "midi": 54,
          "name": "F#3",
          "ticks": 147072,
          "time": 176.76905399999998,
          "velocity": 0.7874015748031497
        },
        {
          "duration": 0.05769225000000233,
          "durationTicks": 48,
          "midi": 42,
          "name": "F#2",
          "ticks": 147072,
          "time": 176.76905399999998,
          "velocity": 0.7874015748031497
        },
        {
          "duration": 0.05769225000000233,
          "durationTicks": 48,
          "midi": 38,
          "name": "D2",
          "ticks": 147072,
          "time": 176.76905399999998,
          "velocity": 0.7874015748031497
        },
        {
          "duration": 0.05769225000000233,
          "durationTicks": 48,
          "midi": 54,
          "name": "F#3",
          "ticks": 147456,
          "time": 177.23059199999997,
          "velocity": 0.7874015748031497
        },
        {
          "duration": 0.05769225000000233,
          "durationTicks": 48,
          "midi": 42,
          "name": "F#2",
          "ticks": 147456,
          "time": 177.23059199999997,
          "velocity": 0.7874015748031497
        },
        {
          "duration": 0.05769225000000233,
          "durationTicks": 48,
          "midi": 36,
          "name": "C2",
          "ticks": 147456,
          "time": 177.23059199999997,
          "velocity": 0.7874015748031497
        },
        {
          "duration": 0.05769225000000233,
          "durationTicks": 48,
          "midi": 54,
          "name": "F#3",
          "ticks": 147840,
          "time": 177.69212999999996,
          "velocity": 0.7874015748031497
        },
        {
          "duration": 0.05769225000000233,
          "durationTicks": 48,
          "midi": 42,
          "name": "F#2",
          "ticks": 147840,
          "time": 177.69212999999996,
          "velocity": 0.7874015748031497
        },
        {
          "duration": 0.05769225000000233,
          "durationTicks": 48,
          "midi": 38,
          "name": "D2",
          "ticks": 147840,
          "time": 177.69212999999996,
          "velocity": 0.7874015748031497
        },
        {
          "duration": 0.05769225000000233,
          "durationTicks": 48,
          "midi": 54,
          "name": "F#3",
          "ticks": 148224,
          "time": 178.15366799999998,
          "velocity": 0.7874015748031497
        },
        {
          "duration": 0.05769225000000233,
          "durationTicks": 48,
          "midi": 42,
          "name": "F#2",
          "ticks": 148224,
          "time": 178.15366799999998,
          "velocity": 0.7874015748031497
        },
        {
          "duration": 0.05769225000000233,
          "durationTicks": 48,
          "midi": 36,
          "name": "C2",
          "ticks": 148224,
          "time": 178.15366799999998,
          "velocity": 0.7874015748031497
        },
        {
          "duration": 0.05769225000000233,
          "durationTicks": 48,
          "midi": 54,
          "name": "F#3",
          "ticks": 148608,
          "time": 178.61520599999997,
          "velocity": 0.7874015748031497
        },
        {
          "duration": 0.05769225000000233,
          "durationTicks": 48,
          "midi": 42,
          "name": "F#2",
          "ticks": 148608,
          "time": 178.61520599999997,
          "velocity": 0.7874015748031497
        },
        {
          "duration": 0.05769225000000233,
          "durationTicks": 48,
          "midi": 38,
          "name": "D2",
          "ticks": 148608,
          "time": 178.61520599999997,
          "velocity": 0.7874015748031497
        },
        {
          "duration": 0.05769225000000233,
          "durationTicks": 48,
          "midi": 54,
          "name": "F#3",
          "ticks": 148992,
          "time": 179.07674399999996,
          "velocity": 0.7874015748031497
        },
        {
          "duration": 0.05769225000000233,
          "durationTicks": 48,
          "midi": 42,
          "name": "F#2",
          "ticks": 148992,
          "time": 179.07674399999996,
          "velocity": 0.7874015748031497
        },
        {
          "duration": 0.05769225000000233,
          "durationTicks": 48,
          "midi": 36,
          "name": "C2",
          "ticks": 148992,
          "time": 179.07674399999996,
          "velocity": 0.7874015748031497
        },
        {
          "duration": 0.05769225000000233,
          "durationTicks": 48,
          "midi": 54,
          "name": "F#3",
          "ticks": 149376,
          "time": 179.53828199999998,
          "velocity": 0.7874015748031497
        },
        {
          "duration": 0.05769225000000233,
          "durationTicks": 48,
          "midi": 42,
          "name": "F#2",
          "ticks": 149376,
          "time": 179.53828199999998,
          "velocity": 0.7874015748031497
        },
        {
          "duration": 0.05769225000000233,
          "durationTicks": 48,
          "midi": 38,
          "name": "D2",
          "ticks": 149376,
          "time": 179.53828199999998,
          "velocity": 0.7874015748031497
        },
        {
          "duration": 0.05769225000000233,
          "durationTicks": 48,
          "midi": 54,
          "name": "F#3",
          "ticks": 149760,
          "time": 179.99981999999997,
          "velocity": 0.7874015748031497
        },
        {
          "duration": 0.05769225000000233,
          "durationTicks": 48,
          "midi": 42,
          "name": "F#2",
          "ticks": 149760,
          "time": 179.99981999999997,
          "velocity": 0.7874015748031497
        },
        {
          "duration": 0.05769225000000233,
          "durationTicks": 48,
          "midi": 36,
          "name": "C2",
          "ticks": 149760,
          "time": 179.99981999999997,
          "velocity": 0.7874015748031497
        },
        {
          "duration": 0.05769225000000233,
          "durationTicks": 48,
          "midi": 54,
          "name": "F#3",
          "ticks": 150144,
          "time": 180.46135799999996,
          "velocity": 0.7874015748031497
        },
        {
          "duration": 0.05769225000000233,
          "durationTicks": 48,
          "midi": 42,
          "name": "F#2",
          "ticks": 150144,
          "time": 180.46135799999996,
          "velocity": 0.7874015748031497
        },
        {
          "duration": 0.05769225000000233,
          "durationTicks": 48,
          "midi": 38,
          "name": "D2",
          "ticks": 150144,
          "time": 180.46135799999996,
          "velocity": 0.7874015748031497
        },
        {
          "duration": 0.05769225000000233,
          "durationTicks": 48,
          "midi": 54,
          "name": "F#3",
          "ticks": 150528,
          "time": 180.92289599999998,
          "velocity": 0.7874015748031497
        },
        {
          "duration": 0.05769225000000233,
          "durationTicks": 48,
          "midi": 42,
          "name": "F#2",
          "ticks": 150528,
          "time": 180.92289599999998,
          "velocity": 0.7874015748031497
        },
        {
          "duration": 0.05769225000000233,
          "durationTicks": 48,
          "midi": 36,
          "name": "C2",
          "ticks": 150528,
          "time": 180.92289599999998,
          "velocity": 0.7874015748031497
        },
        {
          "duration": 0.05769225000000233,
          "durationTicks": 48,
          "midi": 54,
          "name": "F#3",
          "ticks": 150912,
          "time": 181.38443399999997,
          "velocity": 0.7874015748031497
        },
        {
          "duration": 0.05769225000000233,
          "durationTicks": 48,
          "midi": 42,
          "name": "F#2",
          "ticks": 150912,
          "time": 181.38443399999997,
          "velocity": 0.7874015748031497
        },
        {
          "duration": 0.05769225000000233,
          "durationTicks": 48,
          "midi": 38,
          "name": "D2",
          "ticks": 150912,
          "time": 181.38443399999997,
          "velocity": 0.7874015748031497
        },
        {
          "duration": 0.05769225000000233,
          "durationTicks": 48,
          "midi": 54,
          "name": "F#3",
          "ticks": 151296,
          "time": 181.84597199999996,
          "velocity": 0.7874015748031497
        },
        {
          "duration": 0.05769225000000233,
          "durationTicks": 48,
          "midi": 42,
          "name": "F#2",
          "ticks": 151296,
          "time": 181.84597199999996,
          "velocity": 0.7874015748031497
        },
        {
          "duration": 0.05769225000000233,
          "durationTicks": 48,
          "midi": 36,
          "name": "C2",
          "ticks": 151296,
          "time": 181.84597199999996,
          "velocity": 0.7874015748031497
        },
        {
          "duration": 0.05769225000000233,
          "durationTicks": 48,
          "midi": 54,
          "name": "F#3",
          "ticks": 151680,
          "time": 182.30750999999998,
          "velocity": 0.7874015748031497
        },
        {
          "duration": 0.05769225000000233,
          "durationTicks": 48,
          "midi": 42,
          "name": "F#2",
          "ticks": 151680,
          "time": 182.30750999999998,
          "velocity": 0.7874015748031497
        },
        {
          "duration": 0.05769225000000233,
          "durationTicks": 48,
          "midi": 38,
          "name": "D2",
          "ticks": 151680,
          "time": 182.30750999999998,
          "velocity": 0.7874015748031497
        },
        {
          "duration": 0.05769225000000233,
          "durationTicks": 48,
          "midi": 54,
          "name": "F#3",
          "ticks": 152064,
          "time": 182.76904799999997,
          "velocity": 0.7874015748031497
        },
        {
          "duration": 0.05769225000000233,
          "durationTicks": 48,
          "midi": 42,
          "name": "F#2",
          "ticks": 152064,
          "time": 182.76904799999997,
          "velocity": 0.7874015748031497
        },
        {
          "duration": 0.05769225000000233,
          "durationTicks": 48,
          "midi": 36,
          "name": "C2",
          "ticks": 152064,
          "time": 182.76904799999997,
          "velocity": 0.7874015748031497
        },
        {
          "duration": 0.05769224999997391,
          "durationTicks": 48,
          "midi": 54,
          "name": "F#3",
          "ticks": 152448,
          "time": 183.230586,
          "velocity": 0.7874015748031497
        },
        {
          "duration": 0.05769224999997391,
          "durationTicks": 48,
          "midi": 42,
          "name": "F#2",
          "ticks": 152448,
          "time": 183.230586,
          "velocity": 0.7874015748031497
        },
        {
          "duration": 0.05769224999997391,
          "durationTicks": 48,
          "midi": 38,
          "name": "D2",
          "ticks": 152448,
          "time": 183.230586,
          "velocity": 0.7874015748031497
        },
        {
          "duration": 0.05769225000000233,
          "durationTicks": 48,
          "midi": 54,
          "name": "F#3",
          "ticks": 152832,
          "time": 183.69212399999998,
          "velocity": 0.7874015748031497
        },
        {
          "duration": 0.05769225000000233,
          "durationTicks": 48,
          "midi": 42,
          "name": "F#2",
          "ticks": 152832,
          "time": 183.69212399999998,
          "velocity": 0.7874015748031497
        },
        {
          "duration": 0.05769225000000233,
          "durationTicks": 48,
          "midi": 36,
          "name": "C2",
          "ticks": 152832,
          "time": 183.69212399999998,
          "velocity": 0.7874015748031497
        },
        {
          "duration": 0.05769225000000233,
          "durationTicks": 48,
          "midi": 54,
          "name": "F#3",
          "ticks": 153216,
          "time": 184.15366199999997,
          "velocity": 0.7874015748031497
        },
        {
          "duration": 0.05769225000000233,
          "durationTicks": 48,
          "midi": 42,
          "name": "F#2",
          "ticks": 153216,
          "time": 184.15366199999997,
          "velocity": 0.7874015748031497
        },
        {
          "duration": 0.05769225000000233,
          "durationTicks": 48,
          "midi": 38,
          "name": "D2",
          "ticks": 153216,
          "time": 184.15366199999997,
          "velocity": 0.7874015748031497
        },
        {
          "duration": 0.05769225000000233,
          "durationTicks": 48,
          "midi": 54,
          "name": "F#3",
          "ticks": 153600,
          "time": 184.61519999999996,
          "velocity": 0.7874015748031497
        },
        {
          "duration": 0.05769225000000233,
          "durationTicks": 48,
          "midi": 42,
          "name": "F#2",
          "ticks": 153600,
          "time": 184.61519999999996,
          "velocity": 0.7874015748031497
        },
        {
          "duration": 0.05769225000000233,
          "durationTicks": 48,
          "midi": 36,
          "name": "C2",
          "ticks": 153600,
          "time": 184.61519999999996,
          "velocity": 0.7874015748031497
        },
        {
          "duration": 0.05769225000000233,
          "durationTicks": 48,
          "midi": 54,
          "name": "F#3",
          "ticks": 153984,
          "time": 185.07673799999998,
          "velocity": 0.7874015748031497
        },
        {
          "duration": 0.05769225000000233,
          "durationTicks": 48,
          "midi": 42,
          "name": "F#2",
          "ticks": 153984,
          "time": 185.07673799999998,
          "velocity": 0.7874015748031497
        },
        {
          "duration": 0.05769225000000233,
          "durationTicks": 48,
          "midi": 38,
          "name": "D2",
          "ticks": 153984,
          "time": 185.07673799999998,
          "velocity": 0.7874015748031497
        },
        {
          "duration": 0.05769225000000233,
          "durationTicks": 48,
          "midi": 54,
          "name": "F#3",
          "ticks": 154368,
          "time": 185.53827599999997,
          "velocity": 0.7874015748031497
        },
        {
          "duration": 0.05769225000000233,
          "durationTicks": 48,
          "midi": 42,
          "name": "F#2",
          "ticks": 154368,
          "time": 185.53827599999997,
          "velocity": 0.7874015748031497
        },
        {
          "duration": 0.05769225000000233,
          "durationTicks": 48,
          "midi": 36,
          "name": "C2",
          "ticks": 154368,
          "time": 185.53827599999997,
          "velocity": 0.7874015748031497
        },
        {
          "duration": 0.05769224999997391,
          "durationTicks": 48,
          "midi": 54,
          "name": "F#3",
          "ticks": 154752,
          "time": 185.999814,
          "velocity": 0.7874015748031497
        },
        {
          "duration": 0.05769224999997391,
          "durationTicks": 48,
          "midi": 42,
          "name": "F#2",
          "ticks": 154752,
          "time": 185.999814,
          "velocity": 0.7874015748031497
        },
        {
          "duration": 0.05769224999997391,
          "durationTicks": 48,
          "midi": 38,
          "name": "D2",
          "ticks": 154752,
          "time": 185.999814,
          "velocity": 0.7874015748031497
        },
        {
          "duration": 0.05769225000000233,
          "durationTicks": 48,
          "midi": 54,
          "name": "F#3",
          "ticks": 155136,
          "time": 186.46135199999998,
          "velocity": 0.7874015748031497
        },
        {
          "duration": 0.05769225000000233,
          "durationTicks": 48,
          "midi": 42,
          "name": "F#2",
          "ticks": 155136,
          "time": 186.46135199999998,
          "velocity": 0.7874015748031497
        },
        {
          "duration": 0.05769225000000233,
          "durationTicks": 48,
          "midi": 36,
          "name": "C2",
          "ticks": 155136,
          "time": 186.46135199999998,
          "velocity": 0.7874015748031497
        },
        {
          "duration": 0.05769225000000233,
          "durationTicks": 48,
          "midi": 54,
          "name": "F#3",
          "ticks": 155520,
          "time": 186.92288999999997,
          "velocity": 0.7874015748031497
        },
        {
          "duration": 0.05769225000000233,
          "durationTicks": 48,
          "midi": 42,
          "name": "F#2",
          "ticks": 155520,
          "time": 186.92288999999997,
          "velocity": 0.7874015748031497
        },
        {
          "duration": 0.05769225000000233,
          "durationTicks": 48,
          "midi": 38,
          "name": "D2",
          "ticks": 155520,
          "time": 186.92288999999997,
          "velocity": 0.7874015748031497
        },
        {
          "duration": 0.05769224999997391,
          "durationTicks": 48,
          "midi": 54,
          "name": "F#3",
          "ticks": 155904,
          "time": 187.38442799999999,
          "velocity": 0.7874015748031497
        },
        {
          "duration": 0.05769224999997391,
          "durationTicks": 48,
          "midi": 42,
          "name": "F#2",
          "ticks": 155904,
          "time": 187.38442799999999,
          "velocity": 0.7874015748031497
        },
        {
          "duration": 0.05769224999997391,
          "durationTicks": 48,
          "midi": 36,
          "name": "C2",
          "ticks": 155904,
          "time": 187.38442799999999,
          "velocity": 0.7874015748031497
        },
        {
          "duration": 0.05769225000000233,
          "durationTicks": 48,
          "midi": 54,
          "name": "F#3",
          "ticks": 156288,
          "time": 187.84596599999998,
          "velocity": 0.7874015748031497
        },
        {
          "duration": 0.05769225000000233,
          "durationTicks": 48,
          "midi": 42,
          "name": "F#2",
          "ticks": 156288,
          "time": 187.84596599999998,
          "velocity": 0.7874015748031497
        },
        {
          "duration": 0.05769225000000233,
          "durationTicks": 48,
          "midi": 38,
          "name": "D2",
          "ticks": 156288,
          "time": 187.84596599999998,
          "velocity": 0.7874015748031497
        },
        {
          "duration": 0.05769225000000233,
          "durationTicks": 48,
          "midi": 54,
          "name": "F#3",
          "ticks": 156672,
          "time": 188.30750399999997,
          "velocity": 0.7874015748031497
        },
        {
          "duration": 0.05769225000000233,
          "durationTicks": 48,
          "midi": 42,
          "name": "F#2",
          "ticks": 156672,
          "time": 188.30750399999997,
          "velocity": 0.7874015748031497
        },
        {
          "duration": 0.05769225000000233,
          "durationTicks": 48,
          "midi": 36,
          "name": "C2",
          "ticks": 156672,
          "time": 188.30750399999997,
          "velocity": 0.7874015748031497
        },
        {
          "duration": 0.05769224999997391,
          "durationTicks": 48,
          "midi": 54,
          "name": "F#3",
          "ticks": 157056,
          "time": 188.76904199999998,
          "velocity": 0.7874015748031497
        },
        {
          "duration": 0.05769224999997391,
          "durationTicks": 48,
          "midi": 42,
          "name": "F#2",
          "ticks": 157056,
          "time": 188.76904199999998,
          "velocity": 0.7874015748031497
        },
        {
          "duration": 0.05769224999997391,
          "durationTicks": 48,
          "midi": 38,
          "name": "D2",
          "ticks": 157056,
          "time": 188.76904199999998,
          "velocity": 0.7874015748031497
        },
        {
          "duration": 0.05769225000000233,
          "durationTicks": 48,
          "midi": 54,
          "name": "F#3",
          "ticks": 157440,
          "time": 189.23057999999997,
          "velocity": 0.7874015748031497
        },
        {
          "duration": 0.05769225000000233,
          "durationTicks": 48,
          "midi": 42,
          "name": "F#2",
          "ticks": 157440,
          "time": 189.23057999999997,
          "velocity": 0.7874015748031497
        },
        {
          "duration": 0.05769225000000233,
          "durationTicks": 48,
          "midi": 36,
          "name": "C2",
          "ticks": 157440,
          "time": 189.23057999999997,
          "velocity": 0.7874015748031497
        },
        {
          "duration": 0.05769225000000233,
          "durationTicks": 48,
          "midi": 54,
          "name": "F#3",
          "ticks": 157824,
          "time": 189.69211799999997,
          "velocity": 0.7874015748031497
        },
        {
          "duration": 0.05769225000000233,
          "durationTicks": 48,
          "midi": 42,
          "name": "F#2",
          "ticks": 157824,
          "time": 189.69211799999997,
          "velocity": 0.7874015748031497
        },
        {
          "duration": 0.05769225000000233,
          "durationTicks": 48,
          "midi": 38,
          "name": "D2",
          "ticks": 157824,
          "time": 189.69211799999997,
          "velocity": 0.7874015748031497
        },
        {
          "duration": 0.05769225000000233,
          "durationTicks": 48,
          "midi": 54,
          "name": "F#3",
          "ticks": 158208,
          "time": 190.15365599999998,
          "velocity": 0.7874015748031497
        },
        {
          "duration": 0.05769225000000233,
          "durationTicks": 48,
          "midi": 42,
          "name": "F#2",
          "ticks": 158208,
          "time": 190.15365599999998,
          "velocity": 0.7874015748031497
        },
        {
          "duration": 0.05769225000000233,
          "durationTicks": 48,
          "midi": 36,
          "name": "C2",
          "ticks": 158208,
          "time": 190.15365599999998,
          "velocity": 0.7874015748031497
        },
        {
          "duration": 0.05769225000000233,
          "durationTicks": 48,
          "midi": 54,
          "name": "F#3",
          "ticks": 158592,
          "time": 190.61519399999997,
          "velocity": 0.7874015748031497
        },
        {
          "duration": 0.05769225000000233,
          "durationTicks": 48,
          "midi": 42,
          "name": "F#2",
          "ticks": 158592,
          "time": 190.61519399999997,
          "velocity": 0.7874015748031497
        },
        {
          "duration": 0.05769225000000233,
          "durationTicks": 48,
          "midi": 38,
          "name": "D2",
          "ticks": 158592,
          "time": 190.61519399999997,
          "velocity": 0.7874015748031497
        },
        {
          "duration": 0.05769224999997391,
          "durationTicks": 48,
          "midi": 54,
          "name": "F#3",
          "ticks": 158976,
          "time": 191.076732,
          "velocity": 0.7874015748031497
        },
        {
          "duration": 0.05769224999997391,
          "durationTicks": 48,
          "midi": 42,
          "name": "F#2",
          "ticks": 158976,
          "time": 191.076732,
          "velocity": 0.7874015748031497
        },
        {
          "duration": 0.05769224999997391,
          "durationTicks": 48,
          "midi": 36,
          "name": "C2",
          "ticks": 158976,
          "time": 191.076732,
          "velocity": 0.7874015748031497
        },
        {
          "duration": 0.05769225000000233,
          "durationTicks": 48,
          "midi": 54,
          "name": "F#3",
          "ticks": 159360,
          "time": 191.53826999999998,
          "velocity": 0.7874015748031497
        },
        {
          "duration": 0.05769225000000233,
          "durationTicks": 48,
          "midi": 42,
          "name": "F#2",
          "ticks": 159360,
          "time": 191.53826999999998,
          "velocity": 0.7874015748031497
        },
        {
          "duration": 0.05769225000000233,
          "durationTicks": 48,
          "midi": 38,
          "name": "D2",
          "ticks": 159360,
          "time": 191.53826999999998,
          "velocity": 0.7874015748031497
        },
        {
          "duration": 0.05769225000000233,
          "durationTicks": 48,
          "midi": 70,
          "name": "A#4",
          "ticks": 159744,
          "time": 191.99980799999997,
          "velocity": 0.3858267716535433
        },
        {
          "duration": 0.05769225000000233,
          "durationTicks": 48,
          "midi": 54,
          "name": "F#3",
          "ticks": 159744,
          "time": 191.99980799999997,
          "velocity": 0.7874015748031497
        },
        {
          "duration": 0.05769225000000233,
          "durationTicks": 48,
          "midi": 42,
          "name": "F#2",
          "ticks": 159744,
          "time": 191.99980799999997,
          "velocity": 0.7874015748031497
        },
        {
          "duration": 0.05769225000000233,
          "durationTicks": 48,
          "midi": 36,
          "name": "C2",
          "ticks": 159744,
          "time": 191.99980799999997,
          "velocity": 0.7874015748031497
        },
        {
          "duration": 0.05769224999997391,
          "durationTicks": 48,
          "midi": 70,
          "name": "A#4",
          "ticks": 159808,
          "time": 192.076731,
          "velocity": 0.4015748031496063
        },
        {
          "duration": 0.05769225000000233,
          "durationTicks": 48,
          "midi": 70,
          "name": "A#4",
          "ticks": 159872,
          "time": 192.15365399999996,
          "velocity": 0.41732283464566927
        },
        {
          "duration": 0.05769225000000233,
          "durationTicks": 48,
          "midi": 70,
          "name": "A#4",
          "ticks": 159936,
          "time": 192.23057699999998,
          "velocity": 0.4330708661417323
        },
        {
          "duration": 0.05769225000000233,
          "durationTicks": 48,
          "midi": 70,
          "name": "A#4",
          "ticks": 160000,
          "time": 192.30749999999998,
          "velocity": 0.44881889763779526
        },
        {
          "duration": 0.05769225000000233,
          "durationTicks": 48,
          "midi": 70,
          "name": "A#4",
          "ticks": 160064,
          "time": 192.38442299999997,
          "velocity": 0.47244094488188976
        },
        {
          "duration": 0.05769224999997391,
          "durationTicks": 48,
          "midi": 70,
          "name": "A#4",
          "ticks": 160128,
          "time": 192.461346,
          "velocity": 0.4881889763779528
        },
        {
          "duration": 0.05769224999997391,
          "durationTicks": 48,
          "midi": 54,
          "name": "F#3",
          "ticks": 160128,
          "time": 192.461346,
          "velocity": 0.7874015748031497
        },
        {
          "duration": 0.05769224999997391,
          "durationTicks": 48,
          "midi": 42,
          "name": "F#2",
          "ticks": 160128,
          "time": 192.461346,
          "velocity": 0.7874015748031497
        },
        {
          "duration": 0.05769224999997391,
          "durationTicks": 48,
          "midi": 38,
          "name": "D2",
          "ticks": 160128,
          "time": 192.461346,
          "velocity": 0.7874015748031497
        },
        {
          "duration": 0.05769225000000233,
          "durationTicks": 48,
          "midi": 70,
          "name": "A#4",
          "ticks": 160192,
          "time": 192.53826899999999,
          "velocity": 0.5039370078740157
        },
        {
          "duration": 0.05769225000000233,
          "durationTicks": 48,
          "midi": 70,
          "name": "A#4",
          "ticks": 160256,
          "time": 192.61519199999998,
          "velocity": 0.5196850393700787
        },
        {
          "duration": 0.05769225000000233,
          "durationTicks": 48,
          "midi": 70,
          "name": "A#4",
          "ticks": 160320,
          "time": 192.69211499999997,
          "velocity": 0.5354330708661418
        },
        {
          "duration": 0.05769225000000233,
          "durationTicks": 48,
          "midi": 70,
          "name": "A#4",
          "ticks": 160384,
          "time": 192.76903799999997,
          "velocity": 0.5590551181102362
        },
        {
          "duration": 0.05769225000000233,
          "durationTicks": 48,
          "midi": 70,
          "name": "A#4",
          "ticks": 160448,
          "time": 192.845961,
          "velocity": 0.5748031496062992
        },
        {
          "duration": 0.05769225000000233,
          "durationTicks": 48,
          "midi": 70,
          "name": "A#4",
          "ticks": 160512,
          "time": 192.92288399999998,
          "velocity": 0.5905511811023622
        },
        {
          "duration": 0.05769225000000233,
          "durationTicks": 48,
          "midi": 54,
          "name": "F#3",
          "ticks": 160512,
          "time": 192.92288399999998,
          "velocity": 0.7874015748031497
        },
        {
          "duration": 0.05769225000000233,
          "durationTicks": 48,
          "midi": 42,
          "name": "F#2",
          "ticks": 160512,
          "time": 192.92288399999998,
          "velocity": 0.7874015748031497
        },
        {
          "duration": 0.05769225000000233,
          "durationTicks": 48,
          "midi": 36,
          "name": "C2",
          "ticks": 160512,
          "time": 192.92288399999998,
          "velocity": 0.7874015748031497
        },
        {
          "duration": 0.05769225000000233,
          "durationTicks": 48,
          "midi": 70,
          "name": "A#4",
          "ticks": 160576,
          "time": 192.99980699999998,
          "velocity": 0.6062992125984252
        },
        {
          "duration": 0.05769225000000233,
          "durationTicks": 48,
          "midi": 70,
          "name": "A#4",
          "ticks": 160640,
          "time": 193.07672999999997,
          "velocity": 0.6299212598425197
        },
        {
          "duration": 0.05769225000000233,
          "durationTicks": 48,
          "midi": 70,
          "name": "A#4",
          "ticks": 160704,
          "time": 193.15365299999996,
          "velocity": 0.6456692913385826
        },
        {
          "duration": 0.05769225000000233,
          "durationTicks": 48,
          "midi": 70,
          "name": "A#4",
          "ticks": 160768,
          "time": 193.23057599999999,
          "velocity": 0.6614173228346457
        },
        {
          "duration": 0.05769225000000233,
          "durationTicks": 48,
          "midi": 70,
          "name": "A#4",
          "ticks": 160832,
          "time": 193.30749899999998,
          "velocity": 0.6771653543307087
        },
        {
          "duration": 0.05769225000000233,
          "durationTicks": 48,
          "midi": 70,
          "name": "A#4",
          "ticks": 160896,
          "time": 193.38442199999997,
          "velocity": 0.6929133858267716
        },
        {
          "duration": 0.05769225000000233,
          "durationTicks": 48,
          "midi": 54,
          "name": "F#3",
          "ticks": 160896,
          "time": 193.38442199999997,
          "velocity": 0.7874015748031497
        },
        {
          "duration": 0.05769225000000233,
          "durationTicks": 48,
          "midi": 42,
          "name": "F#2",
          "ticks": 160896,
          "time": 193.38442199999997,
          "velocity": 0.7874015748031497
        },
        {
          "duration": 0.05769225000000233,
          "durationTicks": 48,
          "midi": 38,
          "name": "D2",
          "ticks": 160896,
          "time": 193.38442199999997,
          "velocity": 0.7874015748031497
        },
        {
          "duration": 0.05769224999997391,
          "durationTicks": 48,
          "midi": 70,
          "name": "A#4",
          "ticks": 160960,
          "time": 193.461345,
          "velocity": 0.7165354330708661
        },
        {
          "duration": 0.05769225000000233,
          "durationTicks": 48,
          "midi": 70,
          "name": "A#4",
          "ticks": 161024,
          "time": 193.53826799999996,
          "velocity": 0.7322834645669292
        },
        {
          "duration": 0.05769225000000233,
          "durationTicks": 48,
          "midi": 70,
          "name": "A#4",
          "ticks": 161088,
          "time": 193.61519099999998,
          "velocity": 0.7480314960629921
        },
        {
          "duration": 0.05769225000000233,
          "durationTicks": 48,
          "midi": 70,
          "name": "A#4",
          "ticks": 161152,
          "time": 193.69211399999998,
          "velocity": 0.7637795275590551
        },
        {
          "duration": 0.05769225000000233,
          "durationTicks": 48,
          "midi": 70,
          "name": "A#4",
          "ticks": 161216,
          "time": 193.76903699999997,
          "velocity": 0.7874015748031497
        },
        {
          "duration": 0.05769224999997391,
          "durationTicks": 48,
          "midi": 70,
          "name": "A#4",
          "ticks": 161280,
          "time": 193.84596,
          "velocity": 0.7874015748031497
        },
        {
          "duration": 0.05769224999997391,
          "durationTicks": 48,
          "midi": 54,
          "name": "F#3",
          "ticks": 161280,
          "time": 193.84596,
          "velocity": 0.7874015748031497
        },
        {
          "duration": 0.05769224999997391,
          "durationTicks": 48,
          "midi": 42,
          "name": "F#2",
          "ticks": 161280,
          "time": 193.84596,
          "velocity": 0.7874015748031497
        },
        {
          "duration": 0.05769224999997391,
          "durationTicks": 48,
          "midi": 36,
          "name": "C2",
          "ticks": 161280,
          "time": 193.84596,
          "velocity": 0.7874015748031497
        },
        {
          "duration": 0.05769225000000233,
          "durationTicks": 48,
          "midi": 54,
          "name": "F#3",
          "ticks": 161664,
          "time": 194.30749799999998,
          "velocity": 0.7874015748031497
        },
        {
          "duration": 0.05769225000000233,
          "durationTicks": 48,
          "midi": 42,
          "name": "F#2",
          "ticks": 161664,
          "time": 194.30749799999998,
          "velocity": 0.7874015748031497
        },
        {
          "duration": 0.05769225000000233,
          "durationTicks": 48,
          "midi": 38,
          "name": "D2",
          "ticks": 161664,
          "time": 194.30749799999998,
          "velocity": 0.7874015748031497
        },
        {
          "duration": 0.05769225000000233,
          "durationTicks": 48,
          "midi": 54,
          "name": "F#3",
          "ticks": 162048,
          "time": 194.76903599999997,
          "velocity": 0.7874015748031497
        },
        {
          "duration": 0.05769225000000233,
          "durationTicks": 48,
          "midi": 42,
          "name": "F#2",
          "ticks": 162048,
          "time": 194.76903599999997,
          "velocity": 0.7874015748031497
        },
        {
          "duration": 0.05769225000000233,
          "durationTicks": 48,
          "midi": 36,
          "name": "C2",
          "ticks": 162048,
          "time": 194.76903599999997,
          "velocity": 0.7874015748031497
        },
        {
          "duration": 0.05769225000000233,
          "durationTicks": 48,
          "midi": 54,
          "name": "F#3",
          "ticks": 162432,
          "time": 195.230574,
          "velocity": 0.7874015748031497
        },
        {
          "duration": 0.05769225000000233,
          "durationTicks": 48,
          "midi": 42,
          "name": "F#2",
          "ticks": 162432,
          "time": 195.230574,
          "velocity": 0.7874015748031497
        },
        {
          "duration": 0.05769225000000233,
          "durationTicks": 48,
          "midi": 38,
          "name": "D2",
          "ticks": 162432,
          "time": 195.230574,
          "velocity": 0.7874015748031497
        },
        {
          "duration": 0.05769225000000233,
          "durationTicks": 48,
          "midi": 54,
          "name": "F#3",
          "ticks": 162816,
          "time": 195.69211199999998,
          "velocity": 0.7874015748031497
        },
        {
          "duration": 0.05769225000000233,
          "durationTicks": 48,
          "midi": 42,
          "name": "F#2",
          "ticks": 162816,
          "time": 195.69211199999998,
          "velocity": 0.7874015748031497
        },
        {
          "duration": 0.05769225000000233,
          "durationTicks": 48,
          "midi": 36,
          "name": "C2",
          "ticks": 162816,
          "time": 195.69211199999998,
          "velocity": 0.7874015748031497
        },
        {
          "duration": 0.05769225000000233,
          "durationTicks": 48,
          "midi": 54,
          "name": "F#3",
          "ticks": 163200,
          "time": 196.15364999999997,
          "velocity": 0.7874015748031497
        },
        {
          "duration": 0.05769225000000233,
          "durationTicks": 48,
          "midi": 42,
          "name": "F#2",
          "ticks": 163200,
          "time": 196.15364999999997,
          "velocity": 0.7874015748031497
        },
        {
          "duration": 0.05769225000000233,
          "durationTicks": 48,
          "midi": 38,
          "name": "D2",
          "ticks": 163200,
          "time": 196.15364999999997,
          "velocity": 0.7874015748031497
        },
        {
          "duration": 0.05769225000000233,
          "durationTicks": 48,
          "midi": 54,
          "name": "F#3",
          "ticks": 163584,
          "time": 196.615188,
          "velocity": 0.7874015748031497
        },
        {
          "duration": 0.05769225000000233,
          "durationTicks": 48,
          "midi": 42,
          "name": "F#2",
          "ticks": 163584,
          "time": 196.615188,
          "velocity": 0.7874015748031497
        },
        {
          "duration": 0.05769225000000233,
          "durationTicks": 48,
          "midi": 36,
          "name": "C2",
          "ticks": 163584,
          "time": 196.615188,
          "velocity": 0.7874015748031497
        },
        {
          "duration": 0.05769225000000233,
          "durationTicks": 48,
          "midi": 54,
          "name": "F#3",
          "ticks": 163968,
          "time": 197.07672599999998,
          "velocity": 0.7874015748031497
        },
        {
          "duration": 0.05769225000000233,
          "durationTicks": 48,
          "midi": 42,
          "name": "F#2",
          "ticks": 163968,
          "time": 197.07672599999998,
          "velocity": 0.7874015748031497
        },
        {
          "duration": 0.05769225000000233,
          "durationTicks": 48,
          "midi": 38,
          "name": "D2",
          "ticks": 163968,
          "time": 197.07672599999998,
          "velocity": 0.7874015748031497
        },
        {
          "duration": 0.05769225000000233,
          "durationTicks": 48,
          "midi": 54,
          "name": "F#3",
          "ticks": 164352,
          "time": 197.53826399999997,
          "velocity": 0.7874015748031497
        },
        {
          "duration": 0.05769225000000233,
          "durationTicks": 48,
          "midi": 42,
          "name": "F#2",
          "ticks": 164352,
          "time": 197.53826399999997,
          "velocity": 0.7874015748031497
        },
        {
          "duration": 0.05769225000000233,
          "durationTicks": 48,
          "midi": 36,
          "name": "C2",
          "ticks": 164352,
          "time": 197.53826399999997,
          "velocity": 0.7874015748031497
        },
        {
          "duration": 0.05769225000000233,
          "durationTicks": 48,
          "midi": 54,
          "name": "F#3",
          "ticks": 164736,
          "time": 197.999802,
          "velocity": 0.7874015748031497
        },
        {
          "duration": 0.05769225000000233,
          "durationTicks": 48,
          "midi": 42,
          "name": "F#2",
          "ticks": 164736,
          "time": 197.999802,
          "velocity": 0.7874015748031497
        },
        {
          "duration": 0.05769225000000233,
          "durationTicks": 48,
          "midi": 38,
          "name": "D2",
          "ticks": 164736,
          "time": 197.999802,
          "velocity": 0.7874015748031497
        },
        {
          "duration": 0.05769225000000233,
          "durationTicks": 48,
          "midi": 54,
          "name": "F#3",
          "ticks": 165120,
          "time": 198.46133999999998,
          "velocity": 0.7874015748031497
        },
        {
          "duration": 0.05769225000000233,
          "durationTicks": 48,
          "midi": 42,
          "name": "F#2",
          "ticks": 165120,
          "time": 198.46133999999998,
          "velocity": 0.7874015748031497
        },
        {
          "duration": 0.05769225000000233,
          "durationTicks": 48,
          "midi": 36,
          "name": "C2",
          "ticks": 165120,
          "time": 198.46133999999998,
          "velocity": 0.7874015748031497
        },
        {
          "duration": 0.05769225000000233,
          "durationTicks": 48,
          "midi": 54,
          "name": "F#3",
          "ticks": 165504,
          "time": 198.92287799999997,
          "velocity": 0.7874015748031497
        },
        {
          "duration": 0.05769225000000233,
          "durationTicks": 48,
          "midi": 42,
          "name": "F#2",
          "ticks": 165504,
          "time": 198.92287799999997,
          "velocity": 0.7874015748031497
        },
        {
          "duration": 0.05769225000000233,
          "durationTicks": 48,
          "midi": 38,
          "name": "D2",
          "ticks": 165504,
          "time": 198.92287799999997,
          "velocity": 0.7874015748031497
        },
        {
          "duration": 0.05769225000000233,
          "durationTicks": 48,
          "midi": 54,
          "name": "F#3",
          "ticks": 165888,
          "time": 199.384416,
          "velocity": 0.7874015748031497
        },
        {
          "duration": 0.05769225000000233,
          "durationTicks": 48,
          "midi": 42,
          "name": "F#2",
          "ticks": 165888,
          "time": 199.384416,
          "velocity": 0.7874015748031497
        },
        {
          "duration": 0.05769225000000233,
          "durationTicks": 48,
          "midi": 36,
          "name": "C2",
          "ticks": 165888,
          "time": 199.384416,
          "velocity": 0.7874015748031497
        },
        {
          "duration": 0.05769225000000233,
          "durationTicks": 48,
          "midi": 54,
          "name": "F#3",
          "ticks": 166272,
          "time": 199.84595399999998,
          "velocity": 0.7874015748031497
        },
        {
          "duration": 0.05769225000000233,
          "durationTicks": 48,
          "midi": 42,
          "name": "F#2",
          "ticks": 166272,
          "time": 199.84595399999998,
          "velocity": 0.7874015748031497
        },
        {
          "duration": 0.05769225000000233,
          "durationTicks": 48,
          "midi": 38,
          "name": "D2",
          "ticks": 166272,
          "time": 199.84595399999998,
          "velocity": 0.7874015748031497
        },
        {
          "duration": 0.05769225000000233,
          "durationTicks": 48,
          "midi": 54,
          "name": "F#3",
          "ticks": 166656,
          "time": 200.30749199999997,
          "velocity": 0.7874015748031497
        },
        {
          "duration": 0.05769225000000233,
          "durationTicks": 48,
          "midi": 42,
          "name": "F#2",
          "ticks": 166656,
          "time": 200.30749199999997,
          "velocity": 0.7874015748031497
        },
        {
          "duration": 0.05769225000000233,
          "durationTicks": 48,
          "midi": 36,
          "name": "C2",
          "ticks": 166656,
          "time": 200.30749199999997,
          "velocity": 0.7874015748031497
        },
        {
          "duration": 0.05769225000000233,
          "durationTicks": 48,
          "midi": 54,
          "name": "F#3",
          "ticks": 167040,
          "time": 200.76903,
          "velocity": 0.7874015748031497
        },
        {
          "duration": 0.05769225000000233,
          "durationTicks": 48,
          "midi": 42,
          "name": "F#2",
          "ticks": 167040,
          "time": 200.76903,
          "velocity": 0.7874015748031497
        },
        {
          "duration": 0.05769225000000233,
          "durationTicks": 48,
          "midi": 38,
          "name": "D2",
          "ticks": 167040,
          "time": 200.76903,
          "velocity": 0.7874015748031497
        },
        {
          "duration": 0.05769225000000233,
          "durationTicks": 48,
          "midi": 54,
          "name": "F#3",
          "ticks": 167424,
          "time": 201.23056799999998,
          "velocity": 0.7874015748031497
        },
        {
          "duration": 0.05769225000000233,
          "durationTicks": 48,
          "midi": 42,
          "name": "F#2",
          "ticks": 167424,
          "time": 201.23056799999998,
          "velocity": 0.7874015748031497
        },
        {
          "duration": 0.05769225000000233,
          "durationTicks": 48,
          "midi": 36,
          "name": "C2",
          "ticks": 167424,
          "time": 201.23056799999998,
          "velocity": 0.7874015748031497
        },
        {
          "duration": 0.05769225000000233,
          "durationTicks": 48,
          "midi": 54,
          "name": "F#3",
          "ticks": 167808,
          "time": 201.69210599999997,
          "velocity": 0.7874015748031497
        },
        {
          "duration": 0.05769225000000233,
          "durationTicks": 48,
          "midi": 42,
          "name": "F#2",
          "ticks": 167808,
          "time": 201.69210599999997,
          "velocity": 0.7874015748031497
        },
        {
          "duration": 0.05769225000000233,
          "durationTicks": 48,
          "midi": 38,
          "name": "D2",
          "ticks": 167808,
          "time": 201.69210599999997,
          "velocity": 0.7874015748031497
        },
        {
          "duration": 0.05769225000000233,
          "durationTicks": 48,
          "midi": 54,
          "name": "F#3",
          "ticks": 168192,
          "time": 202.15364399999999,
          "velocity": 0.7874015748031497
        },
        {
          "duration": 0.05769225000000233,
          "durationTicks": 48,
          "midi": 42,
          "name": "F#2",
          "ticks": 168192,
          "time": 202.15364399999999,
          "velocity": 0.7874015748031497
        },
        {
          "duration": 0.05769225000000233,
          "durationTicks": 48,
          "midi": 36,
          "name": "C2",
          "ticks": 168192,
          "time": 202.15364399999999,
          "velocity": 0.7874015748031497
        },
        {
          "duration": 0.05769225000000233,
          "durationTicks": 48,
          "midi": 54,
          "name": "F#3",
          "ticks": 168576,
          "time": 202.61518199999998,
          "velocity": 0.7874015748031497
        },
        {
          "duration": 0.05769225000000233,
          "durationTicks": 48,
          "midi": 42,
          "name": "F#2",
          "ticks": 168576,
          "time": 202.61518199999998,
          "velocity": 0.7874015748031497
        },
        {
          "duration": 0.05769225000000233,
          "durationTicks": 48,
          "midi": 38,
          "name": "D2",
          "ticks": 168576,
          "time": 202.61518199999998,
          "velocity": 0.7874015748031497
        },
        {
          "duration": 0.05769225000000233,
          "durationTicks": 48,
          "midi": 54,
          "name": "F#3",
          "ticks": 168960,
          "time": 203.07671999999997,
          "velocity": 0.7874015748031497
        },
        {
          "duration": 0.05769225000000233,
          "durationTicks": 48,
          "midi": 42,
          "name": "F#2",
          "ticks": 168960,
          "time": 203.07671999999997,
          "velocity": 0.7874015748031497
        },
        {
          "duration": 0.05769225000000233,
          "durationTicks": 48,
          "midi": 36,
          "name": "C2",
          "ticks": 168960,
          "time": 203.07671999999997,
          "velocity": 0.7874015748031497
        },
        {
          "duration": 0.05769225000000233,
          "durationTicks": 48,
          "midi": 54,
          "name": "F#3",
          "ticks": 169344,
          "time": 203.53825799999998,
          "velocity": 0.7874015748031497
        },
        {
          "duration": 0.05769225000000233,
          "durationTicks": 48,
          "midi": 42,
          "name": "F#2",
          "ticks": 169344,
          "time": 203.53825799999998,
          "velocity": 0.7874015748031497
        },
        {
          "duration": 0.05769225000000233,
          "durationTicks": 48,
          "midi": 38,
          "name": "D2",
          "ticks": 169344,
          "time": 203.53825799999998,
          "velocity": 0.7874015748031497
        },
        {
          "duration": 0.05769225000000233,
          "durationTicks": 48,
          "midi": 54,
          "name": "F#3",
          "ticks": 169728,
          "time": 203.99979599999998,
          "velocity": 0.7874015748031497
        },
        {
          "duration": 0.05769225000000233,
          "durationTicks": 48,
          "midi": 42,
          "name": "F#2",
          "ticks": 169728,
          "time": 203.99979599999998,
          "velocity": 0.7874015748031497
        },
        {
          "duration": 0.05769225000000233,
          "durationTicks": 48,
          "midi": 36,
          "name": "C2",
          "ticks": 169728,
          "time": 203.99979599999998,
          "velocity": 0.7874015748031497
        },
        {
          "duration": 0.05769225000000233,
          "durationTicks": 48,
          "midi": 54,
          "name": "F#3",
          "ticks": 170112,
          "time": 204.46133399999997,
          "velocity": 0.7874015748031497
        },
        {
          "duration": 0.05769225000000233,
          "durationTicks": 48,
          "midi": 42,
          "name": "F#2",
          "ticks": 170112,
          "time": 204.46133399999997,
          "velocity": 0.7874015748031497
        },
        {
          "duration": 0.05769225000000233,
          "durationTicks": 48,
          "midi": 38,
          "name": "D2",
          "ticks": 170112,
          "time": 204.46133399999997,
          "velocity": 0.7874015748031497
        },
        {
          "duration": 0.05769225000000233,
          "durationTicks": 48,
          "midi": 54,
          "name": "F#3",
          "ticks": 170496,
          "time": 204.92287199999998,
          "velocity": 0.7874015748031497
        },
        {
          "duration": 0.05769225000000233,
          "durationTicks": 48,
          "midi": 42,
          "name": "F#2",
          "ticks": 170496,
          "time": 204.92287199999998,
          "velocity": 0.7874015748031497
        },
        {
          "duration": 0.05769225000000233,
          "durationTicks": 48,
          "midi": 36,
          "name": "C2",
          "ticks": 170496,
          "time": 204.92287199999998,
          "velocity": 0.7874015748031497
        },
        {
          "duration": 0.05769225000000233,
          "durationTicks": 48,
          "midi": 54,
          "name": "F#3",
          "ticks": 170880,
          "time": 205.38440999999997,
          "velocity": 0.7874015748031497
        },
        {
          "duration": 0.05769225000000233,
          "durationTicks": 48,
          "midi": 42,
          "name": "F#2",
          "ticks": 170880,
          "time": 205.38440999999997,
          "velocity": 0.7874015748031497
        },
        {
          "duration": 0.05769225000000233,
          "durationTicks": 48,
          "midi": 38,
          "name": "D2",
          "ticks": 170880,
          "time": 205.38440999999997,
          "velocity": 0.7874015748031497
        },
        {
          "duration": 0.05769225000000233,
          "durationTicks": 48,
          "midi": 54,
          "name": "F#3",
          "ticks": 171264,
          "time": 205.84594799999996,
          "velocity": 0.7874015748031497
        },
        {
          "duration": 0.05769225000000233,
          "durationTicks": 48,
          "midi": 42,
          "name": "F#2",
          "ticks": 171264,
          "time": 205.84594799999996,
          "velocity": 0.7874015748031497
        },
        {
          "duration": 0.05769225000000233,
          "durationTicks": 48,
          "midi": 36,
          "name": "C2",
          "ticks": 171264,
          "time": 205.84594799999996,
          "velocity": 0.7874015748031497
        },
        {
          "duration": 0.05769225000000233,
          "durationTicks": 48,
          "midi": 54,
          "name": "F#3",
          "ticks": 171648,
          "time": 206.30748599999998,
          "velocity": 0.7874015748031497
        },
        {
          "duration": 0.05769225000000233,
          "durationTicks": 48,
          "midi": 42,
          "name": "F#2",
          "ticks": 171648,
          "time": 206.30748599999998,
          "velocity": 0.7874015748031497
        },
        {
          "duration": 0.05769225000000233,
          "durationTicks": 48,
          "midi": 38,
          "name": "D2",
          "ticks": 171648,
          "time": 206.30748599999998,
          "velocity": 0.7874015748031497
        },
        {
          "duration": 0.05769225000000233,
          "durationTicks": 48,
          "midi": 54,
          "name": "F#3",
          "ticks": 172032,
          "time": 206.76902399999997,
          "velocity": 0.7874015748031497
        },
        {
          "duration": 0.05769225000000233,
          "durationTicks": 48,
          "midi": 42,
          "name": "F#2",
          "ticks": 172032,
          "time": 206.76902399999997,
          "velocity": 0.7874015748031497
        },
        {
          "duration": 0.05769225000000233,
          "durationTicks": 48,
          "midi": 36,
          "name": "C2",
          "ticks": 172032,
          "time": 206.76902399999997,
          "velocity": 0.7874015748031497
        },
        {
          "duration": 0.05769224999997391,
          "durationTicks": 48,
          "midi": 54,
          "name": "F#3",
          "ticks": 172416,
          "time": 207.230562,
          "velocity": 0.7874015748031497
        },
        {
          "duration": 0.05769224999997391,
          "durationTicks": 48,
          "midi": 42,
          "name": "F#2",
          "ticks": 172416,
          "time": 207.230562,
          "velocity": 0.7874015748031497
        },
        {
          "duration": 0.05769224999997391,
          "durationTicks": 48,
          "midi": 38,
          "name": "D2",
          "ticks": 172416,
          "time": 207.230562,
          "velocity": 0.7874015748031497
        },
        {
          "duration": 0.05769225000000233,
          "durationTicks": 48,
          "midi": 54,
          "name": "F#3",
          "ticks": 172800,
          "time": 207.69209999999998,
          "velocity": 0.7874015748031497
        },
        {
          "duration": 0.05769225000000233,
          "durationTicks": 48,
          "midi": 42,
          "name": "F#2",
          "ticks": 172800,
          "time": 207.69209999999998,
          "velocity": 0.7874015748031497
        },
        {
          "duration": 0.05769225000000233,
          "durationTicks": 48,
          "midi": 36,
          "name": "C2",
          "ticks": 172800,
          "time": 207.69209999999998,
          "velocity": 0.7874015748031497
        },
        {
          "duration": 0.05769225000000233,
          "durationTicks": 48,
          "midi": 54,
          "name": "F#3",
          "ticks": 173184,
          "time": 208.15363799999997,
          "velocity": 0.7874015748031497
        },
        {
          "duration": 0.05769225000000233,
          "durationTicks": 48,
          "midi": 42,
          "name": "F#2",
          "ticks": 173184,
          "time": 208.15363799999997,
          "velocity": 0.7874015748031497
        },
        {
          "duration": 0.05769225000000233,
          "durationTicks": 48,
          "midi": 38,
          "name": "D2",
          "ticks": 173184,
          "time": 208.15363799999997,
          "velocity": 0.7874015748031497
        },
        {
          "duration": 0.05769224999997391,
          "durationTicks": 48,
          "midi": 54,
          "name": "F#3",
          "ticks": 173568,
          "time": 208.615176,
          "velocity": 0.7874015748031497
        },
        {
          "duration": 0.05769224999997391,
          "durationTicks": 48,
          "midi": 42,
          "name": "F#2",
          "ticks": 173568,
          "time": 208.615176,
          "velocity": 0.7874015748031497
        },
        {
          "duration": 0.05769224999997391,
          "durationTicks": 48,
          "midi": 36,
          "name": "C2",
          "ticks": 173568,
          "time": 208.615176,
          "velocity": 0.7874015748031497
        },
        {
          "duration": 0.05769225000000233,
          "durationTicks": 48,
          "midi": 54,
          "name": "F#3",
          "ticks": 173952,
          "time": 209.07671399999998,
          "velocity": 0.7874015748031497
        },
        {
          "duration": 0.05769225000000233,
          "durationTicks": 48,
          "midi": 42,
          "name": "F#2",
          "ticks": 173952,
          "time": 209.07671399999998,
          "velocity": 0.7874015748031497
        },
        {
          "duration": 0.05769225000000233,
          "durationTicks": 48,
          "midi": 38,
          "name": "D2",
          "ticks": 173952,
          "time": 209.07671399999998,
          "velocity": 0.7874015748031497
        },
        {
          "duration": 0.05769225000000233,
          "durationTicks": 48,
          "midi": 54,
          "name": "F#3",
          "ticks": 174336,
          "time": 209.53825199999997,
          "velocity": 0.7874015748031497
        },
        {
          "duration": 0.05769225000000233,
          "durationTicks": 48,
          "midi": 42,
          "name": "F#2",
          "ticks": 174336,
          "time": 209.53825199999997,
          "velocity": 0.7874015748031497
        },
        {
          "duration": 0.05769225000000233,
          "durationTicks": 48,
          "midi": 36,
          "name": "C2",
          "ticks": 174336,
          "time": 209.53825199999997,
          "velocity": 0.7874015748031497
        },
        {
          "duration": 0.05769224999997391,
          "durationTicks": 48,
          "midi": 54,
          "name": "F#3",
          "ticks": 174720,
          "time": 209.99979,
          "velocity": 0.7874015748031497
        },
        {
          "duration": 0.05769224999997391,
          "durationTicks": 48,
          "midi": 42,
          "name": "F#2",
          "ticks": 174720,
          "time": 209.99979,
          "velocity": 0.7874015748031497
        },
        {
          "duration": 0.05769224999997391,
          "durationTicks": 48,
          "midi": 38,
          "name": "D2",
          "ticks": 174720,
          "time": 209.99979,
          "velocity": 0.7874015748031497
        },
        {
          "duration": 0.05769225000000233,
          "durationTicks": 48,
          "midi": 54,
          "name": "F#3",
          "ticks": 175104,
          "time": 210.46132799999998,
          "velocity": 0.7874015748031497
        },
        {
          "duration": 0.05769225000000233,
          "durationTicks": 48,
          "midi": 42,
          "name": "F#2",
          "ticks": 175104,
          "time": 210.46132799999998,
          "velocity": 0.7874015748031497
        },
        {
          "duration": 0.05769225000000233,
          "durationTicks": 48,
          "midi": 36,
          "name": "C2",
          "ticks": 175104,
          "time": 210.46132799999998,
          "velocity": 0.7874015748031497
        },
        {
          "duration": 0.05769225000000233,
          "durationTicks": 48,
          "midi": 54,
          "name": "F#3",
          "ticks": 175488,
          "time": 210.92286599999997,
          "velocity": 0.7874015748031497
        },
        {
          "duration": 0.05769225000000233,
          "durationTicks": 48,
          "midi": 42,
          "name": "F#2",
          "ticks": 175488,
          "time": 210.92286599999997,
          "velocity": 0.7874015748031497
        },
        {
          "duration": 0.05769225000000233,
          "durationTicks": 48,
          "midi": 38,
          "name": "D2",
          "ticks": 175488,
          "time": 210.92286599999997,
          "velocity": 0.7874015748031497
        },
        {
          "duration": 0.05769225000000233,
          "durationTicks": 48,
          "midi": 54,
          "name": "F#3",
          "ticks": 175872,
          "time": 211.384404,
          "velocity": 0.7874015748031497
        },
        {
          "duration": 0.05769225000000233,
          "durationTicks": 48,
          "midi": 42,
          "name": "F#2",
          "ticks": 175872,
          "time": 211.384404,
          "velocity": 0.7874015748031497
        },
        {
          "duration": 0.05769225000000233,
          "durationTicks": 48,
          "midi": 36,
          "name": "C2",
          "ticks": 175872,
          "time": 211.384404,
          "velocity": 0.7874015748031497
        },
        {
          "duration": 0.05769225000000233,
          "durationTicks": 48,
          "midi": 54,
          "name": "F#3",
          "ticks": 176256,
          "time": 211.84594199999998,
          "velocity": 0.7874015748031497
        },
        {
          "duration": 0.05769225000000233,
          "durationTicks": 48,
          "midi": 42,
          "name": "F#2",
          "ticks": 176256,
          "time": 211.84594199999998,
          "velocity": 0.7874015748031497
        },
        {
          "duration": 0.05769225000000233,
          "durationTicks": 48,
          "midi": 38,
          "name": "D2",
          "ticks": 176256,
          "time": 211.84594199999998,
          "velocity": 0.7874015748031497
        },
        {
          "duration": 0.05769225000000233,
          "durationTicks": 48,
          "midi": 54,
          "name": "F#3",
          "ticks": 176640,
          "time": 212.30747999999997,
          "velocity": 0.7874015748031497
        },
        {
          "duration": 0.05769225000000233,
          "durationTicks": 48,
          "midi": 42,
          "name": "F#2",
          "ticks": 176640,
          "time": 212.30747999999997,
          "velocity": 0.6771653543307087
        },
        {
          "duration": 0.05769225000000233,
          "durationTicks": 48,
          "midi": 36,
          "name": "C2",
          "ticks": 176640,
          "time": 212.30747999999997,
          "velocity": 0.7874015748031497
        },
        {
          "duration": 0.05769225000000233,
          "durationTicks": 48,
          "midi": 42,
          "name": "F#2",
          "ticks": 176768,
          "time": 212.46132599999999,
          "velocity": 0.6771653543307087
        },
        {
          "duration": 0.05769225000000233,
          "durationTicks": 48,
          "midi": 42,
          "name": "F#2",
          "ticks": 176896,
          "time": 212.61517199999997,
          "velocity": 0.6850393700787402
        },
        {
          "duration": 0.05769225000000233,
          "durationTicks": 48,
          "midi": 54,
          "name": "F#3",
          "ticks": 177024,
          "time": 212.769018,
          "velocity": 0.7874015748031497
        },
        {
          "duration": 0.05769225000000233,
          "durationTicks": 48,
          "midi": 42,
          "name": "F#2",
          "ticks": 177024,
          "time": 212.769018,
          "velocity": 0.6929133858267716
        },
        {
          "duration": 0.05769225000000233,
          "durationTicks": 48,
          "midi": 38,
          "name": "D2",
          "ticks": 177024,
          "time": 212.769018,
          "velocity": 0.7874015748031497
        },
        {
          "duration": 0.05769225000000233,
          "durationTicks": 48,
          "midi": 54,
          "name": "F#3",
          "ticks": 177088,
          "time": 212.84594099999998,
          "velocity": 0.7874015748031497
        },
        {
          "duration": 0.05769225000000233,
          "durationTicks": 48,
          "midi": 42,
          "name": "F#2",
          "ticks": 177152,
          "time": 212.92286399999998,
          "velocity": 0.7007874015748031
        },
        {
          "duration": 0.05769225000000233,
          "durationTicks": 48,
          "midi": 54,
          "name": "F#3",
          "ticks": 177152,
          "time": 212.92286399999998,
          "velocity": 0.7874015748031497
        },
        {
          "duration": 0.05769225000000233,
          "durationTicks": 48,
          "midi": 54,
          "name": "F#3",
          "ticks": 177216,
          "time": 212.99978699999997,
          "velocity": 0.7874015748031497
        },
        {
          "duration": 0.05769224999997391,
          "durationTicks": 48,
          "midi": 42,
          "name": "F#2",
          "ticks": 177280,
          "time": 213.07671,
          "velocity": 0.7086614173228346
        },
        {
          "duration": 0.05769224999997391,
          "durationTicks": 48,
          "midi": 54,
          "name": "F#3",
          "ticks": 177280,
          "time": 213.07671,
          "velocity": 0.7874015748031497
        },
        {
          "duration": 0.05769225000000233,
          "durationTicks": 48,
          "midi": 54,
          "name": "F#3",
          "ticks": 177344,
          "time": 213.15363299999999,
          "velocity": 0.7874015748031497
        },
        {
          "duration": 0.05769225000000233,
          "durationTicks": 48,
          "midi": 54,
          "name": "F#3",
          "ticks": 177408,
          "time": 213.23055599999998,
          "velocity": 0.7874015748031497
        },
        {
          "duration": 0.05769225000000233,
          "durationTicks": 48,
          "midi": 42,
          "name": "F#2",
          "ticks": 177408,
          "time": 213.23055599999998,
          "velocity": 0.7165354330708661
        },
        {
          "duration": 0.05769225000000233,
          "durationTicks": 48,
          "midi": 36,
          "name": "C2",
          "ticks": 177408,
          "time": 213.23055599999998,
          "velocity": 0.7874015748031497
        },
        {
          "duration": 0.05769225000000233,
          "durationTicks": 48,
          "midi": 54,
          "name": "F#3",
          "ticks": 177472,
          "time": 213.30747899999997,
          "velocity": 0.7874015748031497
        },
        {
          "duration": 0.05769225000000233,
          "durationTicks": 48,
          "midi": 42,
          "name": "F#2",
          "ticks": 177536,
          "time": 213.38440199999997,
          "velocity": 0.7165354330708661
        },
        {
          "duration": 0.05769225000000233,
          "durationTicks": 48,
          "midi": 54,
          "name": "F#3",
          "ticks": 177536,
          "time": 213.38440199999997,
          "velocity": 0.7874015748031497
        },
        {
          "duration": 0.05769225000000233,
          "durationTicks": 48,
          "midi": 54,
          "name": "F#3",
          "ticks": 177600,
          "time": 213.461325,
          "velocity": 0.7874015748031497
        },
        {
          "duration": 0.05769225000000233,
          "durationTicks": 48,
          "midi": 42,
          "name": "F#2",
          "ticks": 177664,
          "time": 213.53824799999998,
          "velocity": 0.7244094488188977
        },
        {
          "duration": 0.05769225000000233,
          "durationTicks": 48,
          "midi": 54,
          "name": "F#3",
          "ticks": 177664,
          "time": 213.53824799999998,
          "velocity": 0.7874015748031497
        },
        {
          "duration": 0.05769225000000233,
          "durationTicks": 48,
          "midi": 54,
          "name": "F#3",
          "ticks": 177728,
          "time": 213.61517099999998,
          "velocity": 0.7874015748031497
        },
        {
          "duration": 0.05769225000000233,
          "durationTicks": 48,
          "midi": 54,
          "name": "F#3",
          "ticks": 177792,
          "time": 213.69209399999997,
          "velocity": 0.7874015748031497
        },
        {
          "duration": 0.05769225000000233,
          "durationTicks": 48,
          "midi": 54,
          "name": "F#3",
          "ticks": 177792,
          "time": 213.69209399999997,
          "velocity": 0.7874015748031497
        },
        {
          "duration": 0.05769225000000233,
          "durationTicks": 48,
          "midi": 42,
          "name": "F#2",
          "ticks": 177792,
          "time": 213.69209399999997,
          "velocity": 0.7322834645669292
        },
        {
          "duration": 0.05769225000000233,
          "durationTicks": 48,
          "midi": 38,
          "name": "D2",
          "ticks": 177792,
          "time": 213.69209399999997,
          "velocity": 0.7874015748031497
        },
        {
          "duration": 0.05769225000000233,
          "durationTicks": 48,
          "midi": 54,
          "name": "F#3",
          "ticks": 177856,
          "time": 213.76901699999996,
          "velocity": 0.7874015748031497
        },
        {
          "duration": 0.05769225000000233,
          "durationTicks": 48,
          "midi": 42,
          "name": "F#2",
          "ticks": 177920,
          "time": 213.84593999999998,
          "velocity": 0.7401574803149606
        },
        {
          "duration": 0.05769225000000233,
          "durationTicks": 48,
          "midi": 54,
          "name": "F#3",
          "ticks": 177920,
          "time": 213.84593999999998,
          "velocity": 0.7874015748031497
        },
        {
          "duration": 0.05769225000000233,
          "durationTicks": 48,
          "midi": 54,
          "name": "F#3",
          "ticks": 177984,
          "time": 213.92286299999998,
          "velocity": 0.7874015748031497
        },
        {
          "duration": 0.05769225000000233,
          "durationTicks": 48,
          "midi": 42,
          "name": "F#2",
          "ticks": 178048,
          "time": 213.99978599999997,
          "velocity": 0.7480314960629921
        },
        {
          "duration": 0.05769225000000233,
          "durationTicks": 48,
          "midi": 54,
          "name": "F#3",
          "ticks": 178048,
          "time": 213.99978599999997,
          "velocity": 0.7874015748031497
        },
        {
          "duration": 0.05769224999997391,
          "durationTicks": 48,
          "midi": 54,
          "name": "F#3",
          "ticks": 178112,
          "time": 214.076709,
          "velocity": 0.7874015748031497
        },
        {
          "duration": 0.05769225000000233,
          "durationTicks": 48,
          "midi": 54,
          "name": "F#3",
          "ticks": 178176,
          "time": 214.153632,
          "velocity": 0.7874015748031497
        },
        {
          "duration": 0.05769225000000233,
          "durationTicks": 48,
          "midi": 42,
          "name": "F#2",
          "ticks": 178176,
          "time": 214.153632,
          "velocity": 0.7559055118110236
        },
        {
          "duration": 0.05769225000000233,
          "durationTicks": 48,
          "midi": 36,
          "name": "C2",
          "ticks": 178176,
          "time": 214.153632,
          "velocity": 0.7874015748031497
        },
        {
          "duration": 0.05769225000000233,
          "durationTicks": 48,
          "midi": 54,
          "name": "F#3",
          "ticks": 178240,
          "time": 214.23055499999998,
          "velocity": 0.7874015748031497
        },
        {
          "duration": 0.05769225000000233,
          "durationTicks": 48,
          "midi": 42,
          "name": "F#2",
          "ticks": 178304,
          "time": 214.30747799999997,
          "velocity": 0.7559055118110236
        },
        {
          "duration": 0.05769225000000233,
          "durationTicks": 48,
          "midi": 54,
          "name": "F#3",
          "ticks": 178304,
          "time": 214.30747799999997,
          "velocity": 0.7874015748031497
        },
        {
          "duration": 0.05769225000000233,
          "durationTicks": 48,
          "midi": 54,
          "name": "F#3",
          "ticks": 178368,
          "time": 214.38440099999997,
          "velocity": 0.7874015748031497
        },
        {
          "duration": 0.05769225000000233,
          "durationTicks": 48,
          "midi": 42,
          "name": "F#2",
          "ticks": 178432,
          "time": 214.461324,
          "velocity": 0.7637795275590551
        },
        {
          "duration": 0.05769225000000233,
          "durationTicks": 48,
          "midi": 54,
          "name": "F#3",
          "ticks": 178432,
          "time": 214.461324,
          "velocity": 0.7874015748031497
        },
        {
          "duration": 0.05769225000000233,
          "durationTicks": 48,
          "midi": 54,
          "name": "F#3",
          "ticks": 178496,
          "time": 214.53824699999998,
          "velocity": 0.7874015748031497
        },
        {
          "duration": 0.05769225000000233,
          "durationTicks": 48,
          "midi": 54,
          "name": "F#3",
          "ticks": 178560,
          "time": 214.61516999999998,
          "velocity": 0.7874015748031497
        },
        {
          "duration": 0.05769225000000233,
          "durationTicks": 48,
          "midi": 42,
          "name": "F#2",
          "ticks": 178560,
          "time": 214.61516999999998,
          "velocity": 0.7716535433070866
        },
        {
          "duration": 0.05769225000000233,
          "durationTicks": 48,
          "midi": 38,
          "name": "D2",
          "ticks": 178560,
          "time": 214.61516999999998,
          "velocity": 0.7874015748031497
        },
        {
          "duration": 0.05769225000000233,
          "durationTicks": 48,
          "midi": 54,
          "name": "F#3",
          "ticks": 178624,
          "time": 214.69209299999997,
          "velocity": 0.7874015748031497
        },
        {
          "duration": 0.05769225000000233,
          "durationTicks": 48,
          "midi": 42,
          "name": "F#2",
          "ticks": 178688,
          "time": 214.76901599999997,
          "velocity": 0.7795275590551181
        },
        {
          "duration": 0.05769225000000233,
          "durationTicks": 48,
          "midi": 54,
          "name": "F#3",
          "ticks": 178688,
          "time": 214.76901599999997,
          "velocity": 0.7874015748031497
        },
        {
          "duration": 0.05769225000000233,
          "durationTicks": 48,
          "midi": 54,
          "name": "F#3",
          "ticks": 178752,
          "time": 214.845939,
          "velocity": 0.7874015748031497
        },
        {
          "duration": 0.05769225000000233,
          "durationTicks": 48,
          "midi": 42,
          "name": "F#2",
          "ticks": 178816,
          "time": 214.92286199999998,
          "velocity": 0.7874015748031497
        },
        {
          "duration": 0.05769225000000233,
          "durationTicks": 48,
          "midi": 54,
          "name": "F#3",
          "ticks": 178816,
          "time": 214.92286199999998,
          "velocity": 0.7874015748031497
        },
        {
          "duration": 0.05769225000000233,
          "durationTicks": 48,
          "midi": 54,
          "name": "F#3",
          "ticks": 178880,
          "time": 214.99978499999997,
          "velocity": 0.7874015748031497
        },
        {
          "duration": 0.05769225000000233,
          "durationTicks": 48,
          "midi": 54,
          "name": "F#3",
          "ticks": 178944,
          "time": 215.07670799999997,
          "velocity": 0.7874015748031497
        },
        {
          "duration": 0.05769225000000233,
          "durationTicks": 48,
          "midi": 42,
          "name": "F#2",
          "ticks": 178944,
          "time": 215.07670799999997,
          "velocity": 0.7952755905511811
        },
        {
          "duration": 0.05769225000000233,
          "durationTicks": 48,
          "midi": 36,
          "name": "C2",
          "ticks": 178944,
          "time": 215.07670799999997,
          "velocity": 0.7874015748031497
        },
        {
          "duration": 0.05769225000000233,
          "durationTicks": 48,
          "midi": 54,
          "name": "F#3",
          "ticks": 179008,
          "time": 215.15363099999996,
          "velocity": 0.7874015748031497
        },
        {
          "duration": 0.05769225000000233,
          "durationTicks": 48,
          "midi": 42,
          "name": "F#2",
          "ticks": 179072,
          "time": 215.23055399999998,
          "velocity": 0.7952755905511811
        },
        {
          "duration": 0.05769225000000233,
          "durationTicks": 48,
          "midi": 54,
          "name": "F#3",
          "ticks": 179072,
          "time": 215.23055399999998,
          "velocity": 0.7874015748031497
        },
        {
          "duration": 0.05769225000000233,
          "durationTicks": 48,
          "midi": 54,
          "name": "F#3",
          "ticks": 179136,
          "time": 215.30747699999998,
          "velocity": 0.7874015748031497
        },
        {
          "duration": 0.05769225000000233,
          "durationTicks": 48,
          "midi": 42,
          "name": "F#2",
          "ticks": 179200,
          "time": 215.38439999999997,
          "velocity": 0.8031496062992126
        },
        {
          "duration": 0.05769225000000233,
          "durationTicks": 48,
          "midi": 54,
          "name": "F#3",
          "ticks": 179200,
          "time": 215.38439999999997,
          "velocity": 0.7874015748031497
        },
        {
          "duration": 0.05769224999997391,
          "durationTicks": 48,
          "midi": 54,
          "name": "F#3",
          "ticks": 179264,
          "time": 215.461323,
          "velocity": 0.7874015748031497
        },
        {
          "duration": 0.05769225000000233,
          "durationTicks": 48,
          "midi": 54,
          "name": "F#3",
          "ticks": 179328,
          "time": 215.538246,
          "velocity": 0.7874015748031497
        },
        {
          "duration": 0.05769225000000233,
          "durationTicks": 48,
          "midi": 42,
          "name": "F#2",
          "ticks": 179328,
          "time": 215.538246,
          "velocity": 0.8110236220472441
        },
        {
          "duration": 0.05769225000000233,
          "durationTicks": 48,
          "midi": 38,
          "name": "D2",
          "ticks": 179328,
          "time": 215.538246,
          "velocity": 0.7874015748031497
        },
        {
          "duration": 0.05769225000000233,
          "durationTicks": 48,
          "midi": 54,
          "name": "F#3",
          "ticks": 179392,
          "time": 215.61516899999998,
          "velocity": 0.7874015748031497
        },
        {
          "duration": 0.05769225000000233,
          "durationTicks": 48,
          "midi": 42,
          "name": "F#2",
          "ticks": 179456,
          "time": 215.69209199999997,
          "velocity": 0.8188976377952756
        },
        {
          "duration": 0.05769225000000233,
          "durationTicks": 48,
          "midi": 54,
          "name": "F#3",
          "ticks": 179456,
          "time": 215.69209199999997,
          "velocity": 0.7874015748031497
        },
        {
          "duration": 0.05769225000000233,
          "durationTicks": 48,
          "midi": 54,
          "name": "F#3",
          "ticks": 179520,
          "time": 215.76901499999997,
          "velocity": 0.7874015748031497
        },
        {
          "duration": 0.05769225000000233,
          "durationTicks": 48,
          "midi": 42,
          "name": "F#2",
          "ticks": 179584,
          "time": 215.845938,
          "velocity": 0.8267716535433071
        },
        {
          "duration": 0.05769225000000233,
          "durationTicks": 48,
          "midi": 54,
          "name": "F#3",
          "ticks": 179584,
          "time": 215.845938,
          "velocity": 0.7874015748031497
        },
        {
          "duration": 0.05769225000000233,
          "durationTicks": 48,
          "midi": 54,
          "name": "F#3",
          "ticks": 179648,
          "time": 215.92286099999998,
          "velocity": 0.7874015748031497
        },
        {
          "duration": 0.05769225000000233,
          "durationTicks": 48,
          "midi": 54,
          "name": "F#3",
          "ticks": 179712,
          "time": 215.99978399999998,
          "velocity": 0.7874015748031497
        },
        {
          "duration": 0.05769225000000233,
          "durationTicks": 48,
          "midi": 49,
          "name": "C#3",
          "ticks": 179712,
          "time": 215.99978399999998,
          "velocity": 0.7874015748031497
        },
        {
          "duration": 0.05769225000000233,
          "durationTicks": 48,
          "midi": 36,
          "name": "C2",
          "ticks": 179712,
          "time": 215.99978399999998,
          "velocity": 0.7874015748031497
        },
        {
          "duration": 0.05769225000000233,
          "durationTicks": 48,
          "midi": 42,
          "name": "F#2",
          "ticks": 179712,
          "time": 215.99978399999998,
          "velocity": 0.8346456692913385
        }
      ]
    },
    {
      "channel": 0,
      "controlChanges": {
        "0": [
          {
            "number": 0,
            "ticks": 0,
            "time": 0,
            "value": 0
          }
        ]
      },
      "pitchBends": [],
      "instrument": {
        "family": "piano",
        "number": 0,
        "name": "acoustic grand piano"
      },
      "name": "",
      "notes": []
    },
    {
      "channel": 6,
      "controlChanges": {
        "7": [
          {
            "number": 7,
            "ticks": 0,
            "time": 0,
            "value": 0.9448818897637795
          }
        ]
      },
      "pitchBends": [],
      "instrument": {
        "family": "percussive",
        "number": 119,
        "name": "reverse cymbal"
      },
      "name": "",
      "notes": [
        {
          "duration": 0.4615379999999991,
          "durationTicks": 384,
          "midi": 76,
          "name": "E5",
          "ticks": 8832,
          "time": 10.615374,
          "velocity": 0.7874015748031497
        },
        {
          "duration": 0.4615379999999991,
          "durationTicks": 384,
          "midi": 64,
          "name": "E4",
          "ticks": 8832,
          "time": 10.615374,
          "velocity": 0.7874015748031497
        },
        {
          "duration": 0.46153800000000444,
          "durationTicks": 384,
          "midi": 76,
          "name": "E5",
          "ticks": 56448,
          "time": 67.84608599999999,
          "velocity": 0.7874015748031497
        },
        {
          "duration": 0.46153800000000444,
          "durationTicks": 384,
          "midi": 64,
          "name": "E4",
          "ticks": 56448,
          "time": 67.84608599999999,
          "velocity": 0.7874015748031497
        },
        {
          "duration": 0.46153800000000444,
          "durationTicks": 384,
          "midi": 76,
          "name": "E5",
          "ticks": 104064,
          "time": 125.07679799999998,
          "velocity": 0.7874015748031497
        },
        {
          "duration": 0.46153800000000444,
          "durationTicks": 384,
          "midi": 64,
          "name": "E4",
          "ticks": 104064,
          "time": 125.07679799999998,
          "velocity": 0.7874015748031497
        },
        {
          "duration": 0.46153800000001866,
          "durationTicks": 384,
          "midi": 76,
          "name": "E5",
          "ticks": 160896,
          "time": 193.38442199999997,
          "velocity": 0.7874015748031497
        },
        {
          "duration": 0.46153800000001866,
          "durationTicks": 384,
          "midi": 64,
          "name": "E4",
          "ticks": 160896,
          "time": 193.38442199999997,
          "velocity": 0.7874015748031497
        }
      ]
    },
    {
      "channel": 0,
      "controlChanges": {
        "0": [
          {
            "number": 0,
            "ticks": 0,
            "time": 0,
            "value": 0
          }
        ]
      },
      "pitchBends": [],
      "instrument": {
        "family": "piano",
        "number": 0,
        "name": "acoustic grand piano"
      },
      "name": "",
      "notes": []
    },
    {
      "channel": 7,
      "controlChanges": {
        "7": [
          {
            "number": 7,
            "ticks": 0,
            "time": 0,
            "value": 0.7086614173228346
          }
        ],
        "10": [
          {
            "number": 10,
            "ticks": 0,
            "time": 0,
            "value": 0.5511811023622047
          }
        ]
      },
      "pitchBends": [],
      "instrument": {
        "family": "bass",
        "number": 33,
        "name": "electric bass (finger)"
      },
      "name": "",
      "notes": [
        {
          "duration": 0.15384599999999998,
          "durationTicks": 128,
          "midi": 52,
          "name": "E3",
          "ticks": 0,
          "time": 0,
          "velocity": 0.7874015748031497
        },
        {
          "duration": 0.15384599999999998,
          "durationTicks": 128,
          "midi": 52,
          "name": "E3",
          "ticks": 128,
          "time": 0.15384599999999998,
          "velocity": 0.7874015748031497
        },
        {
          "duration": 0.15384599999999998,
          "durationTicks": 128,
          "midi": 52,
          "name": "E3",
          "ticks": 256,
          "time": 0.30769199999999997,
          "velocity": 0.7874015748031497
        },
        {
          "duration": 0.15384599999999998,
          "durationTicks": 128,
          "midi": 52,
          "name": "E3",
          "ticks": 384,
          "time": 0.46153799999999995,
          "velocity": 0.7874015748031497
        },
        {
          "duration": 0.15384600000000004,
          "durationTicks": 128,
          "midi": 52,
          "name": "E3",
          "ticks": 512,
          "time": 0.6153839999999999,
          "velocity": 0.7874015748031497
        },
        {
          "duration": 0.15384599999999993,
          "durationTicks": 128,
          "midi": 52,
          "name": "E3",
          "ticks": 640,
          "time": 0.76923,
          "velocity": 0.7874015748031497
        },
        {
          "duration": 0.15384600000000004,
          "durationTicks": 128,
          "midi": 52,
          "name": "E3",
          "ticks": 768,
          "time": 0.9230759999999999,
          "velocity": 0.7874015748031497
        },
        {
          "duration": 0.15384599999999993,
          "durationTicks": 128,
          "midi": 52,
          "name": "E3",
          "ticks": 896,
          "time": 1.076922,
          "velocity": 0.7874015748031497
        },
        {
          "duration": 0.15384599999999993,
          "durationTicks": 128,
          "midi": 52,
          "name": "E3",
          "ticks": 1024,
          "time": 1.2307679999999999,
          "velocity": 0.7874015748031497
        },
        {
          "duration": 0.15384600000000015,
          "durationTicks": 128,
          "midi": 52,
          "name": "E3",
          "ticks": 1152,
          "time": 1.3846139999999998,
          "velocity": 0.7874015748031497
        },
        {
          "duration": 0.1538459999999997,
          "durationTicks": 128,
          "midi": 52,
          "name": "E3",
          "ticks": 1280,
          "time": 1.53846,
          "velocity": 0.7874015748031497
        },
        {
          "duration": 0.15384600000000015,
          "durationTicks": 128,
          "midi": 52,
          "name": "E3",
          "ticks": 1408,
          "time": 1.6923059999999996,
          "velocity": 0.7874015748031497
        },
        {
          "duration": 0.15384599999999993,
          "durationTicks": 128,
          "midi": 52,
          "name": "E3",
          "ticks": 1536,
          "time": 1.8461519999999998,
          "velocity": 0.7874015748031497
        },
        {
          "duration": 0.15384600000000015,
          "durationTicks": 128,
          "midi": 52,
          "name": "E3",
          "ticks": 1664,
          "time": 1.9999979999999997,
          "velocity": 0.7874015748031497
        },
        {
          "duration": 0.1538459999999997,
          "durationTicks": 128,
          "midi": 52,
          "name": "E3",
          "ticks": 1792,
          "time": 2.153844,
          "velocity": 0.7874015748031497
        },
        {
          "duration": 0.15384600000000015,
          "durationTicks": 128,
          "midi": 50,
          "name": "D3",
          "ticks": 1920,
          "time": 2.3076899999999996,
          "velocity": 0.7874015748031497
        },
        {
          "duration": 0.15384600000000015,
          "durationTicks": 128,
          "midi": 50,
          "name": "D3",
          "ticks": 2048,
          "time": 2.4615359999999997,
          "velocity": 0.7874015748031497
        },
        {
          "duration": 0.1538459999999997,
          "durationTicks": 128,
          "midi": 50,
          "name": "D3",
          "ticks": 2176,
          "time": 2.615382,
          "velocity": 0.7874015748031497
        },
        {
          "duration": 0.15384600000000015,
          "durationTicks": 128,
          "midi": 49,
          "name": "C#3",
          "ticks": 2304,
          "time": 2.7692279999999996,
          "velocity": 0.7874015748031497
        },
        {
          "duration": 0.15384600000000015,
          "durationTicks": 128,
          "midi": 49,
          "name": "C#3",
          "ticks": 2432,
          "time": 2.9230739999999997,
          "velocity": 0.7874015748031497
        },
        {
          "duration": 0.1538459999999997,
          "durationTicks": 128,
          "midi": 49,
          "name": "C#3",
          "ticks": 2560,
          "time": 3.07692,
          "velocity": 0.7874015748031497
        },
        {
          "duration": 0.461538,
          "durationTicks": 384,
          "midi": 47,
          "name": "B2",
          "ticks": 2688,
          "time": 3.2307659999999996,
          "velocity": 0.7874015748031497
        },
        {
          "duration": 0.46153799999999956,
          "durationTicks": 384,
          "midi": 40,
          "name": "E2",
          "ticks": 3072,
          "time": 3.6923039999999996,
          "velocity": 0.7874015748031497
        },
        {
          "duration": 0.461538,
          "durationTicks": 384,
          "midi": 40,
          "name": "E2",
          "ticks": 3456,
          "time": 4.153841999999999,
          "velocity": 0.7874015748031497
        },
        {
          "duration": 0.34615350000000067,
          "durationTicks": 288,
          "midi": 40,
          "name": "E2",
          "ticks": 3840,
          "time": 4.615379999999999,
          "velocity": 0.7874015748031497
        },
        {
          "duration": 0.11538449999999933,
          "durationTicks": 96,
          "midi": 43,
          "name": "G2",
          "ticks": 4128,
          "time": 4.9615335,
          "velocity": 0.7874015748031497
        },
        {
          "duration": 0.34615350000000067,
          "durationTicks": 288,
          "midi": 45,
          "name": "A2",
          "ticks": 4224,
          "time": 5.076917999999999,
          "velocity": 0.7874015748031497
        },
        {
          "duration": 0.11538449999999933,
          "durationTicks": 96,
          "midi": 43,
          "name": "G2",
          "ticks": 4512,
          "time": 5.4230715,
          "velocity": 0.7874015748031497
        },
        {
          "duration": 0.461538,
          "durationTicks": 384,
          "midi": 40,
          "name": "E2",
          "ticks": 4608,
          "time": 5.538455999999999,
          "velocity": 0.7874015748031497
        },
        {
          "duration": 0.461538,
          "durationTicks": 384,
          "midi": 40,
          "name": "E2",
          "ticks": 4992,
          "time": 5.999993999999999,
          "velocity": 0.7874015748031497
        },
        {
          "duration": 0.3461534999999998,
          "durationTicks": 288,
          "midi": 40,
          "name": "E2",
          "ticks": 5376,
          "time": 6.461531999999999,
          "velocity": 0.7874015748031497
        },
        {
          "duration": 0.11538450000000022,
          "durationTicks": 96,
          "midi": 43,
          "name": "G2",
          "ticks": 5664,
          "time": 6.807685499999999,
          "velocity": 0.7874015748031497
        },
        {
          "duration": 0.3461534999999998,
          "durationTicks": 288,
          "midi": 45,
          "name": "A2",
          "ticks": 5760,
          "time": 6.923069999999999,
          "velocity": 0.7874015748031497
        },
        {
          "duration": 0.11538450000000022,
          "durationTicks": 96,
          "midi": 43,
          "name": "G2",
          "ticks": 6048,
          "time": 7.269223499999999,
          "velocity": 0.7874015748031497
        },
        {
          "duration": 0.461538,
          "durationTicks": 384,
          "midi": 40,
          "name": "E2",
          "ticks": 6144,
          "time": 7.384607999999999,
          "velocity": 0.7874015748031497
        },
        {
          "duration": 0.4615379999999991,
          "durationTicks": 384,
          "midi": 40,
          "name": "E2",
          "ticks": 6528,
          "time": 7.846145999999999,
          "velocity": 0.7874015748031497
        },
        {
          "duration": 0.34615350000000156,
          "durationTicks": 288,
          "midi": 40,
          "name": "E2",
          "ticks": 6912,
          "time": 8.307683999999998,
          "velocity": 0.7874015748031497
        },
        {
          "duration": 0.11538449999999933,
          "durationTicks": 96,
          "midi": 43,
          "name": "G2",
          "ticks": 7200,
          "time": 8.6538375,
          "velocity": 0.7874015748031497
        },
        {
          "duration": 0.3461534999999998,
          "durationTicks": 288,
          "midi": 45,
          "name": "A2",
          "ticks": 7296,
          "time": 8.769222,
          "velocity": 0.7874015748031497
        },
        {
          "duration": 0.11538449999999933,
          "durationTicks": 96,
          "midi": 43,
          "name": "G2",
          "ticks": 7584,
          "time": 9.115375499999999,
          "velocity": 0.7874015748031497
        },
        {
          "duration": 0.4615380000000009,
          "durationTicks": 384,
          "midi": 40,
          "name": "E2",
          "ticks": 7680,
          "time": 9.230759999999998,
          "velocity": 0.7874015748031497
        },
        {
          "duration": 0.4615379999999991,
          "durationTicks": 384,
          "midi": 40,
          "name": "E2",
          "ticks": 8064,
          "time": 9.692298,
          "velocity": 0.7874015748031497
        },
        {
          "duration": 0.3461534999999998,
          "durationTicks": 288,
          "midi": 40,
          "name": "E2",
          "ticks": 8448,
          "time": 10.153835999999998,
          "velocity": 0.7874015748031497
        },
        {
          "duration": 0.11538450000000111,
          "durationTicks": 96,
          "midi": 43,
          "name": "G2",
          "ticks": 8736,
          "time": 10.499989499999998,
          "velocity": 0.7874015748031497
        },
        {
          "duration": 0.3461534999999998,
          "durationTicks": 288,
          "midi": 45,
          "name": "A2",
          "ticks": 8832,
          "time": 10.615374,
          "velocity": 0.7874015748031497
        },
        {
          "duration": 0.11538449999999933,
          "durationTicks": 96,
          "midi": 43,
          "name": "G2",
          "ticks": 9120,
          "time": 10.961527499999999,
          "velocity": 0.7874015748031497
        },
        {
          "duration": 0.4615380000000009,
          "durationTicks": 384,
          "midi": 40,
          "name": "E2",
          "ticks": 9216,
          "time": 11.076911999999998,
          "velocity": 0.7874015748031497
        },
        {
          "duration": 0.4615379999999991,
          "durationTicks": 384,
          "midi": 40,
          "name": "E2",
          "ticks": 9600,
          "time": 11.53845,
          "velocity": 0.7874015748031497
        },
        {
          "duration": 0.3461534999999998,
          "durationTicks": 288,
          "midi": 40,
          "name": "E2",
          "ticks": 9984,
          "time": 11.999987999999998,
          "velocity": 0.7874015748031497
        },
        {
          "duration": 0.11538450000000111,
          "durationTicks": 96,
          "midi": 43,
          "name": "G2",
          "ticks": 10272,
          "time": 12.346141499999998,
          "velocity": 0.7874015748031497
        },
        {
          "duration": 0.3461534999999998,
          "durationTicks": 288,
          "midi": 45,
          "name": "A2",
          "ticks": 10368,
          "time": 12.461526,
          "velocity": 0.7874015748031497
        },
        {
          "duration": 0.11538449999999933,
          "durationTicks": 96,
          "midi": 43,
          "name": "G2",
          "ticks": 10656,
          "time": 12.807679499999999,
          "velocity": 0.7874015748031497
        },
        {
          "duration": 0.4615380000000009,
          "durationTicks": 384,
          "midi": 40,
          "name": "E2",
          "ticks": 10752,
          "time": 12.923063999999998,
          "velocity": 0.7874015748031497
        },
        {
          "duration": 0.4615379999999991,
          "durationTicks": 384,
          "midi": 40,
          "name": "E2",
          "ticks": 11136,
          "time": 13.384602,
          "velocity": 0.7874015748031497
        },
        {
          "duration": 0.3461534999999998,
          "durationTicks": 288,
          "midi": 40,
          "name": "E2",
          "ticks": 11520,
          "time": 13.846139999999998,
          "velocity": 0.7874015748031497
        },
        {
          "duration": 0.11538450000000111,
          "durationTicks": 96,
          "midi": 43,
          "name": "G2",
          "ticks": 11808,
          "time": 14.192293499999998,
          "velocity": 0.7874015748031497
        },
        {
          "duration": 0.3461534999999998,
          "durationTicks": 288,
          "midi": 45,
          "name": "A2",
          "ticks": 11904,
          "time": 14.307678,
          "velocity": 0.7874015748031497
        },
        {
          "duration": 0.11538449999999933,
          "durationTicks": 96,
          "midi": 43,
          "name": "G2",
          "ticks": 12192,
          "time": 14.653831499999999,
          "velocity": 0.7874015748031497
        },
        {
          "duration": 0.4615379999999991,
          "durationTicks": 384,
          "midi": 40,
          "name": "E2",
          "ticks": 12288,
          "time": 14.769215999999998,
          "velocity": 0.7874015748031497
        },
        {
          "duration": 0.4615380000000009,
          "durationTicks": 384,
          "midi": 40,
          "name": "E2",
          "ticks": 12672,
          "time": 15.230753999999997,
          "velocity": 0.7874015748031497
        },
        {
          "duration": 0.3461534999999998,
          "durationTicks": 288,
          "midi": 40,
          "name": "E2",
          "ticks": 13056,
          "time": 15.692291999999998,
          "velocity": 0.7874015748031497
        },
        {
          "duration": 0.11538450000000111,
          "durationTicks": 96,
          "midi": 43,
          "name": "G2",
          "ticks": 13344,
          "time": 16.038445499999998,
          "velocity": 0.7874015748031497
        },
        {
          "duration": 0.3461534999999998,
          "durationTicks": 288,
          "midi": 45,
          "name": "A2",
          "ticks": 13440,
          "time": 16.15383,
          "velocity": 0.7874015748031497
        },
        {
          "duration": 0.11538449999999756,
          "durationTicks": 96,
          "midi": 43,
          "name": "G2",
          "ticks": 13728,
          "time": 16.4999835,
          "velocity": 0.7874015748031497
        },
        {
          "duration": 0.4615380000000009,
          "durationTicks": 384,
          "midi": 40,
          "name": "E2",
          "ticks": 13824,
          "time": 16.615367999999997,
          "velocity": 0.7874015748031497
        },
        {
          "duration": 0.4615380000000009,
          "durationTicks": 384,
          "midi": 40,
          "name": "E2",
          "ticks": 14208,
          "time": 17.076905999999997,
          "velocity": 0.7874015748031497
        },
        {
          "duration": 0.3461534999999998,
          "durationTicks": 288,
          "midi": 40,
          "name": "E2",
          "ticks": 14592,
          "time": 17.538444,
          "velocity": 0.7874015748031497
        },
        {
          "duration": 0.11538450000000111,
          "durationTicks": 96,
          "midi": 43,
          "name": "G2",
          "ticks": 14880,
          "time": 17.884597499999998,
          "velocity": 0.7874015748031497
        },
        {
          "duration": 0.3461534999999998,
          "durationTicks": 288,
          "midi": 45,
          "name": "A2",
          "ticks": 14976,
          "time": 17.999982,
          "velocity": 0.7874015748031497
        },
        {
          "duration": 0.11538449999999756,
          "durationTicks": 96,
          "midi": 43,
          "name": "G2",
          "ticks": 15264,
          "time": 18.3461355,
          "velocity": 0.7874015748031497
        },
        {
          "duration": 0.4615380000000009,
          "durationTicks": 384,
          "midi": 40,
          "name": "E2",
          "ticks": 15360,
          "time": 18.461519999999997,
          "velocity": 0.7874015748031497
        },
        {
          "duration": 0.4615380000000009,
          "durationTicks": 384,
          "midi": 40,
          "name": "E2",
          "ticks": 15744,
          "time": 18.923057999999997,
          "velocity": 0.7874015748031497
        },
        {
          "duration": 0.3461534999999998,
          "durationTicks": 288,
          "midi": 40,
          "name": "E2",
          "ticks": 16128,
          "time": 19.384596,
          "velocity": 0.7874015748031497
        },
        {
          "duration": 0.11538450000000111,
          "durationTicks": 96,
          "midi": 43,
          "name": "G2",
          "ticks": 16416,
          "time": 19.730749499999998,
          "velocity": 0.7874015748031497
        },
        {
          "duration": 0.3461534999999998,
          "durationTicks": 288,
          "midi": 45,
          "name": "A2",
          "ticks": 16512,
          "time": 19.846134,
          "velocity": 0.7874015748031497
        },
        {
          "duration": 0.11538449999999756,
          "durationTicks": 96,
          "midi": 43,
          "name": "G2",
          "ticks": 16800,
          "time": 20.1922875,
          "velocity": 0.7874015748031497
        },
        {
          "duration": 0.4615380000000009,
          "durationTicks": 384,
          "midi": 40,
          "name": "E2",
          "ticks": 16896,
          "time": 20.307671999999997,
          "velocity": 0.7874015748031497
        },
        {
          "duration": 0.4615380000000009,
          "durationTicks": 384,
          "midi": 40,
          "name": "E2",
          "ticks": 17280,
          "time": 20.769209999999998,
          "velocity": 0.7874015748031497
        },
        {
          "duration": 0.3461534999999998,
          "durationTicks": 288,
          "midi": 40,
          "name": "E2",
          "ticks": 17664,
          "time": 21.230748,
          "velocity": 0.7874015748031497
        },
        {
          "duration": 0.11538450000000111,
          "durationTicks": 96,
          "midi": 43,
          "name": "G2",
          "ticks": 17952,
          "time": 21.576901499999998,
          "velocity": 0.7874015748031497
        },
        {
          "duration": 0.3461534999999998,
          "durationTicks": 288,
          "midi": 45,
          "name": "A2",
          "ticks": 18048,
          "time": 21.692286,
          "velocity": 0.7874015748031497
        },
        {
          "duration": 0.11538449999999756,
          "durationTicks": 96,
          "midi": 43,
          "name": "G2",
          "ticks": 18336,
          "time": 22.0384395,
          "velocity": 0.7874015748031497
        },
        {
          "duration": 0.4615380000000009,
          "durationTicks": 384,
          "midi": 40,
          "name": "E2",
          "ticks": 18432,
          "time": 22.153823999999997,
          "velocity": 0.7874015748031497
        },
        {
          "duration": 0.4615380000000009,
          "durationTicks": 384,
          "midi": 40,
          "name": "E2",
          "ticks": 18816,
          "time": 22.615361999999998,
          "velocity": 0.7874015748031497
        },
        {
          "duration": 0.3461534999999998,
          "durationTicks": 288,
          "midi": 40,
          "name": "E2",
          "ticks": 19200,
          "time": 23.0769,
          "velocity": 0.7874015748031497
        },
        {
          "duration": 0.11538449999999756,
          "durationTicks": 96,
          "midi": 43,
          "name": "G2",
          "ticks": 19488,
          "time": 23.423053499999998,
          "velocity": 0.7874015748031497
        },
        {
          "duration": 0.34615350000000333,
          "durationTicks": 288,
          "midi": 45,
          "name": "A2",
          "ticks": 19584,
          "time": 23.538437999999996,
          "velocity": 0.7874015748031497
        },
        {
          "duration": 0.11538449999999756,
          "durationTicks": 96,
          "midi": 43,
          "name": "G2",
          "ticks": 19872,
          "time": 23.8845915,
          "velocity": 0.7874015748031497
        },
        {
          "duration": 0.4615380000000009,
          "durationTicks": 384,
          "midi": 40,
          "name": "E2",
          "ticks": 19968,
          "time": 23.999975999999997,
          "velocity": 0.7874015748031497
        },
        {
          "duration": 0.4615380000000009,
          "durationTicks": 384,
          "midi": 40,
          "name": "E2",
          "ticks": 20352,
          "time": 24.461513999999998,
          "velocity": 0.7874015748031497
        },
        {
          "duration": 0.3461534999999998,
          "durationTicks": 288,
          "midi": 40,
          "name": "E2",
          "ticks": 20736,
          "time": 24.923052,
          "velocity": 0.7874015748031497
        },
        {
          "duration": 0.11538449999999756,
          "durationTicks": 96,
          "midi": 43,
          "name": "G2",
          "ticks": 21024,
          "time": 25.269205499999998,
          "velocity": 0.7874015748031497
        },
        {
          "duration": 0.3461534999999998,
          "durationTicks": 288,
          "midi": 45,
          "name": "A2",
          "ticks": 21120,
          "time": 25.384589999999996,
          "velocity": 0.7874015748031497
        },
        {
          "duration": 0.11538450000000111,
          "durationTicks": 96,
          "midi": 43,
          "name": "G2",
          "ticks": 21408,
          "time": 25.730743499999996,
          "velocity": 0.7874015748031497
        },
        {
          "duration": 0.4615380000000009,
          "durationTicks": 384,
          "midi": 40,
          "name": "E2",
          "ticks": 21504,
          "time": 25.846127999999997,
          "velocity": 0.7874015748031497
        },
        {
          "duration": 0.4615380000000009,
          "durationTicks": 384,
          "midi": 40,
          "name": "E2",
          "ticks": 21888,
          "time": 26.307665999999998,
          "velocity": 0.7874015748031497
        },
        {
          "duration": 0.3461534999999998,
          "durationTicks": 288,
          "midi": 40,
          "name": "E2",
          "ticks": 22272,
          "time": 26.769204,
          "velocity": 0.7874015748031497
        },
        {
          "duration": 0.11538449999999756,
          "durationTicks": 96,
          "midi": 43,
          "name": "G2",
          "ticks": 22560,
          "time": 27.1153575,
          "velocity": 0.7874015748031497
        },
        {
          "duration": 0.3461534999999998,
          "durationTicks": 288,
          "midi": 45,
          "name": "A2",
          "ticks": 22656,
          "time": 27.230741999999996,
          "velocity": 0.7874015748031497
        },
        {
          "duration": 0.11538450000000111,
          "durationTicks": 96,
          "midi": 43,
          "name": "G2",
          "ticks": 22944,
          "time": 27.576895499999996,
          "velocity": 0.7874015748031497
        },
        {
          "duration": 0.4615380000000009,
          "durationTicks": 384,
          "midi": 40,
          "name": "E2",
          "ticks": 23040,
          "time": 27.692279999999997,
          "velocity": 0.7874015748031497
        },
        {
          "duration": 0.4615380000000009,
          "durationTicks": 384,
          "midi": 40,
          "name": "E2",
          "ticks": 23424,
          "time": 28.153817999999998,
          "velocity": 0.7874015748031497
        },
        {
          "duration": 0.3461534999999998,
          "durationTicks": 288,
          "midi": 40,
          "name": "E2",
          "ticks": 23808,
          "time": 28.615356,
          "velocity": 0.7874015748031497
        },
        {
          "duration": 0.11538449999999756,
          "durationTicks": 96,
          "midi": 43,
          "name": "G2",
          "ticks": 24096,
          "time": 28.9615095,
          "velocity": 0.7874015748031497
        },
        {
          "duration": 0.3461534999999998,
          "durationTicks": 288,
          "midi": 45,
          "name": "A2",
          "ticks": 24192,
          "time": 29.076893999999996,
          "velocity": 0.7874015748031497
        },
        {
          "duration": 0.11538450000000111,
          "durationTicks": 96,
          "midi": 43,
          "name": "G2",
          "ticks": 24480,
          "time": 29.423047499999996,
          "velocity": 0.7874015748031497
        },
        {
          "duration": 0.4615380000000009,
          "durationTicks": 384,
          "midi": 40,
          "name": "E2",
          "ticks": 24576,
          "time": 29.538431999999997,
          "velocity": 0.7874015748031497
        },
        {
          "duration": 0.46153799999999734,
          "durationTicks": 384,
          "midi": 40,
          "name": "E2",
          "ticks": 24960,
          "time": 29.999969999999998,
          "velocity": 0.7874015748031497
        },
        {
          "duration": 0.34615350000000333,
          "durationTicks": 288,
          "midi": 40,
          "name": "E2",
          "ticks": 25344,
          "time": 30.461507999999995,
          "velocity": 0.7874015748031497
        },
        {
          "duration": 0.11538449999999756,
          "durationTicks": 96,
          "midi": 43,
          "name": "G2",
          "ticks": 25632,
          "time": 30.8076615,
          "velocity": 0.7874015748031497
        },
        {
          "duration": 0.3461534999999998,
          "durationTicks": 288,
          "midi": 45,
          "name": "A2",
          "ticks": 25728,
          "time": 30.923045999999996,
          "velocity": 0.7874015748031497
        },
        {
          "duration": 0.11538450000000111,
          "durationTicks": 96,
          "midi": 43,
          "name": "G2",
          "ticks": 26016,
          "time": 31.269199499999996,
          "velocity": 0.7874015748031497
        },
        {
          "duration": 0.4615380000000009,
          "durationTicks": 384,
          "midi": 40,
          "name": "E2",
          "ticks": 26112,
          "time": 31.384583999999997,
          "velocity": 0.7874015748031497
        },
        {
          "duration": 0.4615380000000009,
          "durationTicks": 384,
          "midi": 40,
          "name": "E2",
          "ticks": 26496,
          "time": 31.846121999999998,
          "velocity": 0.7874015748031497
        },
        {
          "duration": 0.3461534999999998,
          "durationTicks": 288,
          "midi": 40,
          "name": "E2",
          "ticks": 26880,
          "time": 32.30766,
          "velocity": 0.7874015748031497
        },
        {
          "duration": 0.11538449999999756,
          "durationTicks": 96,
          "midi": 43,
          "name": "G2",
          "ticks": 27168,
          "time": 32.6538135,
          "velocity": 0.7874015748031497
        },
        {
          "duration": 0.3461534999999998,
          "durationTicks": 288,
          "midi": 45,
          "name": "A2",
          "ticks": 27264,
          "time": 32.769197999999996,
          "velocity": 0.7874015748031497
        },
        {
          "duration": 0.11538449999999756,
          "durationTicks": 96,
          "midi": 43,
          "name": "G2",
          "ticks": 27552,
          "time": 33.115351499999996,
          "velocity": 0.7874015748031497
        },
        {
          "duration": 0.46153800000000444,
          "durationTicks": 384,
          "midi": 40,
          "name": "E2",
          "ticks": 27648,
          "time": 33.23073599999999,
          "velocity": 0.7874015748031497
        },
        {
          "duration": 0.46153799999999734,
          "durationTicks": 384,
          "midi": 40,
          "name": "E2",
          "ticks": 28032,
          "time": 33.692274,
          "velocity": 0.7874015748031497
        },
        {
          "duration": 0.3461534999999998,
          "durationTicks": 288,
          "midi": 40,
          "name": "E2",
          "ticks": 28416,
          "time": 34.153811999999995,
          "velocity": 0.7874015748031497
        },
        {
          "duration": 0.11538450000000466,
          "durationTicks": 96,
          "midi": 43,
          "name": "G2",
          "ticks": 28704,
          "time": 34.499965499999995,
          "velocity": 0.7874015748031497
        },
        {
          "duration": 0.3461534999999998,
          "durationTicks": 288,
          "midi": 45,
          "name": "A2",
          "ticks": 28800,
          "time": 34.61535,
          "velocity": 0.7874015748031497
        },
        {
          "duration": 0.11538449999999756,
          "durationTicks": 96,
          "midi": 43,
          "name": "G2",
          "ticks": 29088,
          "time": 34.9615035,
          "velocity": 0.7874015748031497
        },
        {
          "duration": 0.46153799999999734,
          "durationTicks": 384,
          "midi": 40,
          "name": "E2",
          "ticks": 29184,
          "time": 35.076888,
          "velocity": 0.7874015748031497
        },
        {
          "duration": 0.46153800000000444,
          "durationTicks": 384,
          "midi": 40,
          "name": "E2",
          "ticks": 29568,
          "time": 35.538425999999994,
          "velocity": 0.7874015748031497
        },
        {
          "duration": 0.3461534999999998,
          "durationTicks": 288,
          "midi": 40,
          "name": "E2",
          "ticks": 29952,
          "time": 35.999964,
          "velocity": 0.7874015748031497
        },
        {
          "duration": 0.11538449999999756,
          "durationTicks": 96,
          "midi": 43,
          "name": "G2",
          "ticks": 30240,
          "time": 36.3461175,
          "velocity": 0.7874015748031497
        },
        {
          "duration": 0.3461534999999998,
          "durationTicks": 288,
          "midi": 45,
          "name": "A2",
          "ticks": 30336,
          "time": 36.461501999999996,
          "velocity": 0.7874015748031497
        },
        {
          "duration": 0.11538449999999756,
          "durationTicks": 96,
          "midi": 43,
          "name": "G2",
          "ticks": 30624,
          "time": 36.807655499999996,
          "velocity": 0.7874015748031497
        },
        {
          "duration": 0.46153800000000444,
          "durationTicks": 384,
          "midi": 47,
          "name": "B2",
          "ticks": 30720,
          "time": 36.92303999999999,
          "velocity": 0.7874015748031497
        },
        {
          "duration": 0.46153799999999734,
          "durationTicks": 384,
          "midi": 47,
          "name": "B2",
          "ticks": 31104,
          "time": 37.384578,
          "velocity": 0.7874015748031497
        },
        {
          "duration": 0.46153799999999734,
          "durationTicks": 384,
          "midi": 47,
          "name": "B2",
          "ticks": 31488,
          "time": 37.846115999999995,
          "velocity": 0.7874015748031497
        },
        {
          "duration": 0.46153800000000444,
          "durationTicks": 384,
          "midi": 47,
          "name": "B2",
          "ticks": 31872,
          "time": 38.30765399999999,
          "velocity": 0.7874015748031497
        },
        {
          "duration": 0.46153799999999734,
          "durationTicks": 384,
          "midi": 35,
          "name": "B1",
          "ticks": 32256,
          "time": 38.769192,
          "velocity": 0.7874015748031497
        },
        {
          "duration": 0.46153800000000444,
          "durationTicks": 384,
          "midi": 35,
          "name": "B1",
          "ticks": 32640,
          "time": 39.230729999999994,
          "velocity": 0.7874015748031497
        },
        {
          "duration": 0.30769199999999586,
          "durationTicks": 256,
          "midi": 35,
          "name": "B1",
          "ticks": 33024,
          "time": 39.692268,
          "velocity": 0.7874015748031497
        },
        {
          "duration": 0.15384600000000148,
          "durationTicks": 128,
          "midi": 35,
          "name": "B1",
          "ticks": 33280,
          "time": 39.999959999999994,
          "velocity": 0.7874015748031497
        },
        {
          "duration": 0.30769200000000296,
          "durationTicks": 256,
          "midi": 35,
          "name": "B1",
          "ticks": 33408,
          "time": 40.153805999999996,
          "velocity": 0.7874015748031497
        },
        {
          "duration": 0.15384599999999438,
          "durationTicks": 128,
          "midi": 35,
          "name": "B1",
          "ticks": 33664,
          "time": 40.461498,
          "velocity": 0.7874015748031497
        },
        {
          "duration": 0.30769200000000296,
          "durationTicks": 256,
          "midi": 35,
          "name": "B1",
          "ticks": 33792,
          "time": 40.61534399999999,
          "velocity": 0.7874015748031497
        },
        {
          "duration": 0.15384600000000148,
          "durationTicks": 128,
          "midi": 35,
          "name": "B1",
          "ticks": 34048,
          "time": 40.923035999999996,
          "velocity": 0.7874015748031497
        },
        {
          "duration": 0.30769200000000296,
          "durationTicks": 256,
          "midi": 35,
          "name": "B1",
          "ticks": 34176,
          "time": 41.076882,
          "velocity": 0.7874015748031497
        },
        {
          "duration": 0.15384599999999438,
          "durationTicks": 128,
          "midi": 35,
          "name": "B1",
          "ticks": 34432,
          "time": 41.384574,
          "velocity": 0.7874015748031497
        },
        {
          "duration": 0.30769200000000296,
          "durationTicks": 256,
          "midi": 35,
          "name": "B1",
          "ticks": 34560,
          "time": 41.538419999999995,
          "velocity": 0.7874015748031497
        },
        {
          "duration": 0.15384600000000148,
          "durationTicks": 128,
          "midi": 40,
          "name": "E2",
          "ticks": 34800,
          "time": 41.82688124999999,
          "velocity": 0.7874015748031497
        },
        {
          "duration": 0.26923049999999904,
          "durationTicks": 224,
          "midi": 40,
          "name": "E2",
          "ticks": 34944,
          "time": 41.99995799999999,
          "velocity": 0.7874015748031497
        },
        {
          "duration": 0.1730767499999999,
          "durationTicks": 144,
          "midi": 40,
          "name": "E2",
          "ticks": 35184,
          "time": 42.28841925,
          "velocity": 0.7874015748031497
        },
        {
          "duration": 0.46153799999999734,
          "durationTicks": 384,
          "midi": 35,
          "name": "B1",
          "ticks": 35328,
          "time": 42.461496,
          "velocity": 0.7874015748031497
        },
        {
          "duration": 0.46153800000000444,
          "durationTicks": 384,
          "midi": 35,
          "name": "B1",
          "ticks": 35712,
          "time": 42.923033999999994,
          "velocity": 0.7874015748031497
        },
        {
          "duration": 0.30769199999999586,
          "durationTicks": 256,
          "midi": 35,
          "name": "B1",
          "ticks": 36096,
          "time": 43.384572,
          "velocity": 0.7874015748031497
        },
        {
          "duration": 0.15384600000000148,
          "durationTicks": 128,
          "midi": 35,
          "name": "B1",
          "ticks": 36352,
          "time": 43.692263999999994,
          "velocity": 0.7874015748031497
        },
        {
          "duration": 0.30769200000000296,
          "durationTicks": 256,
          "midi": 35,
          "name": "B1",
          "ticks": 36480,
          "time": 43.846109999999996,
          "velocity": 0.7874015748031497
        },
        {
          "duration": 0.15384599999999438,
          "durationTicks": 128,
          "midi": 35,
          "name": "B1",
          "ticks": 36736,
          "time": 44.153802,
          "velocity": 0.7874015748031497
        },
        {
          "duration": 0.30769200000000296,
          "durationTicks": 256,
          "midi": 35,
          "name": "B1",
          "ticks": 36864,
          "time": 44.30764799999999,
          "velocity": 0.7874015748031497
        },
        {
          "duration": 0.15384600000000148,
          "durationTicks": 128,
          "midi": 35,
          "name": "B1",
          "ticks": 37120,
          "time": 44.615339999999996,
          "velocity": 0.7874015748031497
        },
        {
          "duration": 0.30769200000000296,
          "durationTicks": 256,
          "midi": 35,
          "name": "B1",
          "ticks": 37248,
          "time": 44.769186,
          "velocity": 0.7874015748031497
        },
        {
          "duration": 0.15384599999999438,
          "durationTicks": 128,
          "midi": 35,
          "name": "B1",
          "ticks": 37504,
          "time": 45.076878,
          "velocity": 0.7874015748031497
        },
        {
          "duration": 0.30769200000000296,
          "durationTicks": 256,
          "midi": 35,
          "name": "B1",
          "ticks": 37632,
          "time": 45.230723999999995,
          "velocity": 0.7874015748031497
        },
        {
          "duration": 0.15384600000000148,
          "durationTicks": 128,
          "midi": 40,
          "name": "E2",
          "ticks": 37872,
          "time": 45.51918524999999,
          "velocity": 0.7874015748031497
        },
        {
          "duration": 0.26923049999999904,
          "durationTicks": 224,
          "midi": 40,
          "name": "E2",
          "ticks": 38016,
          "time": 45.69226199999999,
          "velocity": 0.7874015748031497
        },
        {
          "duration": 0.16346137499999713,
          "durationTicks": 136,
          "midi": 40,
          "name": "E2",
          "ticks": 38256,
          "time": 45.98072325,
          "velocity": 0.7874015748031497
        },
        {
          "duration": 0.46153799999999734,
          "durationTicks": 384,
          "midi": 35,
          "name": "B1",
          "ticks": 38400,
          "time": 46.1538,
          "velocity": 0.7874015748031497
        },
        {
          "duration": 0.46153799999999734,
          "durationTicks": 384,
          "midi": 35,
          "name": "B1",
          "ticks": 38784,
          "time": 46.615337999999994,
          "velocity": 0.7874015748031497
        },
        {
          "duration": 0.30769200000000296,
          "durationTicks": 256,
          "midi": 35,
          "name": "B1",
          "ticks": 39168,
          "time": 47.07687599999999,
          "velocity": 0.7874015748031497
        },
        {
          "duration": 0.15384600000000148,
          "durationTicks": 128,
          "midi": 35,
          "name": "B1",
          "ticks": 39424,
          "time": 47.384567999999994,
          "velocity": 0.7874015748031497
        },
        {
          "duration": 0.30769200000000296,
          "durationTicks": 256,
          "midi": 35,
          "name": "B1",
          "ticks": 39552,
          "time": 47.538413999999996,
          "velocity": 0.7874015748031497
        },
        {
          "duration": 0.15384599999999438,
          "durationTicks": 128,
          "midi": 35,
          "name": "B1",
          "ticks": 39808,
          "time": 47.846106,
          "velocity": 0.7874015748031497
        },
        {
          "duration": 0.30769200000000296,
          "durationTicks": 256,
          "midi": 35,
          "name": "B1",
          "ticks": 39936,
          "time": 47.99995199999999,
          "velocity": 0.7874015748031497
        },
        {
          "duration": 0.15384599999999438,
          "durationTicks": 128,
          "midi": 35,
          "name": "B1",
          "ticks": 40192,
          "time": 48.307643999999996,
          "velocity": 0.7874015748031497
        },
        {
          "duration": 0.30769200000000296,
          "durationTicks": 256,
          "midi": 35,
          "name": "B1",
          "ticks": 40320,
          "time": 48.46148999999999,
          "velocity": 0.7874015748031497
        },
        {
          "duration": 0.15384600000000148,
          "durationTicks": 128,
          "midi": 35,
          "name": "B1",
          "ticks": 40576,
          "time": 48.769181999999994,
          "velocity": 0.7874015748031497
        },
        {
          "duration": 0.30769199999999586,
          "durationTicks": 256,
          "midi": 35,
          "name": "B1",
          "ticks": 40704,
          "time": 48.923027999999995,
          "velocity": 0.7874015748031497
        },
        {
          "duration": 0.15384600000000148,
          "durationTicks": 128,
          "midi": 40,
          "name": "E2",
          "ticks": 40944,
          "time": 49.21148924999999,
          "velocity": 0.7874015748031497
        },
        {
          "duration": 0.26923049999999904,
          "durationTicks": 224,
          "midi": 40,
          "name": "E2",
          "ticks": 41088,
          "time": 49.38456599999999,
          "velocity": 0.7874015748031497
        },
        {
          "duration": 0.1730767499999999,
          "durationTicks": 144,
          "midi": 40,
          "name": "E2",
          "ticks": 41328,
          "time": 49.67302724999999,
          "velocity": 0.7874015748031497
        },
        {
          "duration": 0.46153800000000444,
          "durationTicks": 384,
          "midi": 35,
          "name": "B1",
          "ticks": 41472,
          "time": 49.84610399999999,
          "velocity": 0.7874015748031497
        },
        {
          "duration": 0.46153799999999734,
          "durationTicks": 384,
          "midi": 35,
          "name": "B1",
          "ticks": 41856,
          "time": 50.307641999999994,
          "velocity": 0.7874015748031497
        },
        {
          "duration": 0.30769200000000296,
          "durationTicks": 256,
          "midi": 35,
          "name": "B1",
          "ticks": 42240,
          "time": 50.76917999999999,
          "velocity": 0.7874015748031497
        },
        {
          "duration": 0.15384600000000148,
          "durationTicks": 128,
          "midi": 35,
          "name": "B1",
          "ticks": 42496,
          "time": 51.076871999999995,
          "velocity": 0.7874015748031497
        },
        {
          "duration": 0.30769199999999586,
          "durationTicks": 256,
          "midi": 35,
          "name": "B1",
          "ticks": 42624,
          "time": 51.230717999999996,
          "velocity": 0.7874015748031497
        },
        {
          "duration": 0.15384600000000148,
          "durationTicks": 128,
          "midi": 35,
          "name": "B1",
          "ticks": 42880,
          "time": 51.53840999999999,
          "velocity": 0.7874015748031497
        },
        {
          "duration": 0.30769199999999586,
          "durationTicks": 256,
          "midi": 35,
          "name": "B1",
          "ticks": 43008,
          "time": 51.69225599999999,
          "velocity": 0.7874015748031497
        },
        {
          "duration": 0.15384600000000148,
          "durationTicks": 128,
          "midi": 35,
          "name": "B1",
          "ticks": 43264,
          "time": 51.99994799999999,
          "velocity": 0.7874015748031497
        },
        {
          "duration": 0.30769200000000296,
          "durationTicks": 256,
          "midi": 35,
          "name": "B1",
          "ticks": 43392,
          "time": 52.15379399999999,
          "velocity": 0.7874015748031497
        },
        {
          "duration": 0.15384600000000148,
          "durationTicks": 128,
          "midi": 35,
          "name": "B1",
          "ticks": 43648,
          "time": 52.461485999999994,
          "velocity": 0.7874015748031497
        },
        {
          "duration": 0.30769199999999586,
          "durationTicks": 256,
          "midi": 35,
          "name": "B1",
          "ticks": 43776,
          "time": 52.615331999999995,
          "velocity": 0.7874015748031497
        },
        {
          "duration": 0.15384600000000148,
          "durationTicks": 128,
          "midi": 40,
          "name": "E2",
          "ticks": 44016,
          "time": 52.90379324999999,
          "velocity": 0.7874015748031497
        },
        {
          "duration": 0.26923049999999904,
          "durationTicks": 224,
          "midi": 40,
          "name": "E2",
          "ticks": 44160,
          "time": 53.07686999999999,
          "velocity": 0.7874015748031497
        },
        {
          "duration": 0.1730767499999999,
          "durationTicks": 144,
          "midi": 40,
          "name": "E2",
          "ticks": 44400,
          "time": 53.36533124999999,
          "velocity": 0.7874015748031497
        },
        {
          "duration": 0.46153800000000444,
          "durationTicks": 384,
          "midi": 33,
          "name": "A1",
          "ticks": 44544,
          "time": 53.53840799999999,
          "velocity": 0.7874015748031497
        },
        {
          "duration": 0.46153799999999734,
          "durationTicks": 384,
          "midi": 33,
          "name": "A1",
          "ticks": 44928,
          "time": 53.999945999999994,
          "velocity": 0.7874015748031497
        },
        {
          "duration": 0.30769200000000296,
          "durationTicks": 256,
          "midi": 33,
          "name": "A1",
          "ticks": 45312,
          "time": 54.46148399999999,
          "velocity": 0.7874015748031497
        },
        {
          "duration": 0.15384599999999438,
          "durationTicks": 128,
          "midi": 33,
          "name": "A1",
          "ticks": 45568,
          "time": 54.769175999999995,
          "velocity": 0.7874015748031497
        },
        {
          "duration": 0.30769200000000296,
          "durationTicks": 256,
          "midi": 33,
          "name": "A1",
          "ticks": 45696,
          "time": 54.92302199999999,
          "velocity": 0.7874015748031497
        },
        {
          "duration": 0.15384600000000148,
          "durationTicks": 128,
          "midi": 33,
          "name": "A1",
          "ticks": 45952,
          "time": 55.23071399999999,
          "velocity": 0.7874015748031497
        },
        {
          "duration": 0.30769200000000296,
          "durationTicks": 256,
          "midi": 33,
          "name": "A1",
          "ticks": 46080,
          "time": 55.38455999999999,
          "velocity": 0.7874015748031497
        },
        {
          "duration": 0.15384599999999438,
          "durationTicks": 128,
          "midi": 33,
          "name": "A1",
          "ticks": 46336,
          "time": 55.692251999999996,
          "velocity": 0.7874015748031497
        },
        {
          "duration": 0.30769200000000296,
          "durationTicks": 256,
          "midi": 33,
          "name": "A1",
          "ticks": 46464,
          "time": 55.84609799999999,
          "velocity": 0.7874015748031497
        },
        {
          "duration": 0.15384599999999438,
          "durationTicks": 128,
          "midi": 33,
          "name": "A1",
          "ticks": 46720,
          "time": 56.153789999999994,
          "velocity": 0.7874015748031497
        },
        {
          "duration": 0.30769200000000296,
          "durationTicks": 256,
          "midi": 33,
          "name": "A1",
          "ticks": 46848,
          "time": 56.30763599999999,
          "velocity": 0.7874015748031497
        },
        {
          "duration": 0.15384600000000148,
          "durationTicks": 128,
          "midi": 38,
          "name": "D2",
          "ticks": 47088,
          "time": 56.59609724999999,
          "velocity": 0.7874015748031497
        },
        {
          "duration": 0.26923049999999904,
          "durationTicks": 224,
          "midi": 38,
          "name": "D2",
          "ticks": 47232,
          "time": 56.76917399999999,
          "velocity": 0.7874015748031497
        },
        {
          "duration": 0.15384600000000148,
          "durationTicks": 128,
          "midi": 38,
          "name": "D2",
          "ticks": 47472,
          "time": 57.05763524999999,
          "velocity": 0.7874015748031497
        },
        {
          "duration": 0.46153800000000444,
          "durationTicks": 384,
          "midi": 33,
          "name": "A1",
          "ticks": 47616,
          "time": 57.23071199999999,
          "velocity": 0.7874015748031497
        },
        {
          "duration": 0.46153799999999734,
          "durationTicks": 384,
          "midi": 33,
          "name": "A1",
          "ticks": 48000,
          "time": 57.692249999999994,
          "velocity": 0.7874015748031497
        },
        {
          "duration": 0.30769200000000296,
          "durationTicks": 256,
          "midi": 33,
          "name": "A1",
          "ticks": 48384,
          "time": 58.15378799999999,
          "velocity": 0.7874015748031497
        },
        {
          "duration": 0.15384600000000148,
          "durationTicks": 128,
          "midi": 33,
          "name": "A1",
          "ticks": 48640,
          "time": 58.461479999999995,
          "velocity": 0.7874015748031497
        },
        {
          "duration": 0.30769199999999586,
          "durationTicks": 256,
          "midi": 33,
          "name": "A1",
          "ticks": 48768,
          "time": 58.615325999999996,
          "velocity": 0.7874015748031497
        },
        {
          "duration": 0.15384600000000148,
          "durationTicks": 128,
          "midi": 33,
          "name": "A1",
          "ticks": 49024,
          "time": 58.92301799999999,
          "velocity": 0.7874015748031497
        },
        {
          "duration": 0.30769199999999586,
          "durationTicks": 256,
          "midi": 33,
          "name": "A1",
          "ticks": 49152,
          "time": 59.07686399999999,
          "velocity": 0.7874015748031497
        },
        {
          "duration": 0.15384600000000148,
          "durationTicks": 128,
          "midi": 33,
          "name": "A1",
          "ticks": 49408,
          "time": 59.38455599999999,
          "velocity": 0.7874015748031497
        },
        {
          "duration": 0.30769200000000296,
          "durationTicks": 256,
          "midi": 33,
          "name": "A1",
          "ticks": 49536,
          "time": 59.53840199999999,
          "velocity": 0.7874015748031497
        },
        {
          "duration": 0.15384600000000148,
          "durationTicks": 128,
          "midi": 33,
          "name": "A1",
          "ticks": 49792,
          "time": 59.846093999999994,
          "velocity": 0.7874015748031497
        },
        {
          "duration": 0.30769199999999586,
          "durationTicks": 256,
          "midi": 33,
          "name": "A1",
          "ticks": 49920,
          "time": 59.999939999999995,
          "velocity": 0.7874015748031497
        },
        {
          "duration": 0.15384600000000148,
          "durationTicks": 128,
          "midi": 38,
          "name": "D2",
          "ticks": 50160,
          "time": 60.28840124999999,
          "velocity": 0.7874015748031497
        },
        {
          "duration": 0.26923049999999904,
          "durationTicks": 224,
          "midi": 38,
          "name": "D2",
          "ticks": 50304,
          "time": 60.46147799999999,
          "velocity": 0.7874015748031497
        },
        {
          "duration": 0.15384600000000148,
          "durationTicks": 128,
          "midi": 38,
          "name": "D2",
          "ticks": 50544,
          "time": 60.74993924999999,
          "velocity": 0.7874015748031497
        },
        {
          "duration": 0.46153800000000444,
          "durationTicks": 384,
          "midi": 40,
          "name": "E2",
          "ticks": 50688,
          "time": 60.92301599999999,
          "velocity": 0.7874015748031497
        },
        {
          "duration": 0.46153799999999734,
          "durationTicks": 384,
          "midi": 40,
          "name": "E2",
          "ticks": 51072,
          "time": 61.384553999999994,
          "velocity": 0.7874015748031497
        },
        {
          "duration": 0.3461534999999998,
          "durationTicks": 288,
          "midi": 40,
          "name": "E2",
          "ticks": 51456,
          "time": 61.84609199999999,
          "velocity": 0.7874015748031497
        },
        {
          "duration": 0.11538449999999756,
          "durationTicks": 96,
          "midi": 43,
          "name": "G2",
          "ticks": 51744,
          "time": 62.19224549999999,
          "velocity": 0.7874015748031497
        },
        {
          "duration": 0.3461534999999998,
          "durationTicks": 288,
          "midi": 45,
          "name": "A2",
          "ticks": 51840,
          "time": 62.30762999999999,
          "velocity": 0.7874015748031497
        },
        {
          "duration": 0.11538450000000466,
          "durationTicks": 96,
          "midi": 43,
          "name": "G2",
          "ticks": 52128,
          "time": 62.65378349999999,
          "velocity": 0.7874015748031497
        },
        {
          "duration": 0.46153799999999734,
          "durationTicks": 384,
          "midi": 40,
          "name": "E2",
          "ticks": 52224,
          "time": 62.76916799999999,
          "velocity": 0.7874015748031497
        },
        {
          "duration": 0.46153799999999734,
          "durationTicks": 384,
          "midi": 40,
          "name": "E2",
          "ticks": 52608,
          "time": 63.23070599999999,
          "velocity": 0.7874015748031497
        },
        {
          "duration": 0.3461534999999998,
          "durationTicks": 288,
          "midi": 40,
          "name": "E2",
          "ticks": 52992,
          "time": 63.69224399999999,
          "velocity": 0.7874015748031497
        },
        {
          "duration": 0.11538450000000466,
          "durationTicks": 96,
          "midi": 43,
          "name": "G2",
          "ticks": 53280,
          "time": 64.03839749999999,
          "velocity": 0.7874015748031497
        },
        {
          "duration": 0.3461534999999998,
          "durationTicks": 288,
          "midi": 45,
          "name": "A2",
          "ticks": 53376,
          "time": 64.15378199999999,
          "velocity": 0.7874015748031497
        },
        {
          "duration": 0.11538450000000466,
          "durationTicks": 96,
          "midi": 43,
          "name": "G2",
          "ticks": 53664,
          "time": 64.49993549999999,
          "velocity": 0.7874015748031497
        },
        {
          "duration": 0.46153799999999023,
          "durationTicks": 384,
          "midi": 40,
          "name": "E2",
          "ticks": 53760,
          "time": 64.61532,
          "velocity": 0.7874015748031497
        },
        {
          "duration": 0.46153800000000444,
          "durationTicks": 384,
          "midi": 40,
          "name": "E2",
          "ticks": 54144,
          "time": 65.07685799999999,
          "velocity": 0.7874015748031497
        },
        {
          "duration": 0.3461534999999998,
          "durationTicks": 288,
          "midi": 40,
          "name": "E2",
          "ticks": 54528,
          "time": 65.53839599999999,
          "velocity": 0.7874015748031497
        },
        {
          "duration": 0.11538450000000466,
          "durationTicks": 96,
          "midi": 43,
          "name": "G2",
          "ticks": 54816,
          "time": 65.88454949999999,
          "velocity": 0.7874015748031497
        },
        {
          "duration": 0.3461534999999998,
          "durationTicks": 288,
          "midi": 45,
          "name": "A2",
          "ticks": 54912,
          "time": 65.999934,
          "velocity": 0.7874015748031497
        },
        {
          "duration": 0.11538449999999045,
          "durationTicks": 96,
          "midi": 43,
          "name": "G2",
          "ticks": 55200,
          "time": 66.3460875,
          "velocity": 0.7874015748031497
        },
        {
          "duration": 0.46153800000000444,
          "durationTicks": 384,
          "midi": 40,
          "name": "E2",
          "ticks": 55296,
          "time": 66.46147199999999,
          "velocity": 0.7874015748031497
        },
        {
          "duration": 0.46153800000000444,
          "durationTicks": 384,
          "midi": 40,
          "name": "E2",
          "ticks": 55680,
          "time": 66.92300999999999,
          "velocity": 0.7874015748031497
        },
        {
          "duration": 0.3461534999999998,
          "durationTicks": 288,
          "midi": 40,
          "name": "E2",
          "ticks": 56064,
          "time": 67.384548,
          "velocity": 0.7874015748031497
        },
        {
          "duration": 0.11538449999999045,
          "durationTicks": 96,
          "midi": 43,
          "name": "G2",
          "ticks": 56352,
          "time": 67.7307015,
          "velocity": 0.7874015748031497
        },
        {
          "duration": 0.346153500000014,
          "durationTicks": 288,
          "midi": 45,
          "name": "A2",
          "ticks": 56448,
          "time": 67.84608599999999,
          "velocity": 0.7874015748031497
        },
        {
          "duration": 0.11538449999999045,
          "durationTicks": 96,
          "midi": 43,
          "name": "G2",
          "ticks": 56736,
          "time": 68.1922395,
          "velocity": 0.7874015748031497
        },
        {
          "duration": 0.46153800000000444,
          "durationTicks": 384,
          "midi": 40,
          "name": "E2",
          "ticks": 56832,
          "time": 68.30762399999999,
          "velocity": 0.7874015748031497
        },
        {
          "duration": 0.46153799999999023,
          "durationTicks": 384,
          "midi": 40,
          "name": "E2",
          "ticks": 57216,
          "time": 68.769162,
          "velocity": 0.7874015748031497
        },
        {
          "duration": 0.346153500000014,
          "durationTicks": 288,
          "midi": 40,
          "name": "E2",
          "ticks": 57600,
          "time": 69.23069999999998,
          "velocity": 0.7874015748031497
        },
        {
          "duration": 0.11538449999999045,
          "durationTicks": 96,
          "midi": 43,
          "name": "G2",
          "ticks": 57888,
          "time": 69.5768535,
          "velocity": 0.7874015748031497
        },
        {
          "duration": 0.3461534999999998,
          "durationTicks": 288,
          "midi": 45,
          "name": "A2",
          "ticks": 57984,
          "time": 69.69223799999999,
          "velocity": 0.7874015748031497
        },
        {
          "duration": 0.11538450000000466,
          "durationTicks": 96,
          "midi": 43,
          "name": "G2",
          "ticks": 58272,
          "time": 70.03839149999999,
          "velocity": 0.7874015748031497
        },
        {
          "duration": 0.46153799999999023,
          "durationTicks": 384,
          "midi": 40,
          "name": "E2",
          "ticks": 58368,
          "time": 70.153776,
          "velocity": 0.7874015748031497
        },
        {
          "duration": 0.46153800000000444,
          "durationTicks": 384,
          "midi": 40,
          "name": "E2",
          "ticks": 58752,
          "time": 70.61531399999998,
          "velocity": 0.7874015748031497
        },
        {
          "duration": 0.3461534999999998,
          "durationTicks": 288,
          "midi": 40,
          "name": "E2",
          "ticks": 59136,
          "time": 71.07685199999999,
          "velocity": 0.7874015748031497
        },
        {
          "duration": 0.11538450000000466,
          "durationTicks": 96,
          "midi": 43,
          "name": "G2",
          "ticks": 59424,
          "time": 71.42300549999999,
          "velocity": 0.7874015748031497
        },
        {
          "duration": 0.3461534999999998,
          "durationTicks": 288,
          "midi": 45,
          "name": "A2",
          "ticks": 59520,
          "time": 71.53838999999999,
          "velocity": 0.7874015748031497
        },
        {
          "duration": 0.11538449999999045,
          "durationTicks": 96,
          "midi": 43,
          "name": "G2",
          "ticks": 59808,
          "time": 71.88454349999999,
          "velocity": 0.7874015748031497
        },
        {
          "duration": 0.46153800000000444,
          "durationTicks": 384,
          "midi": 40,
          "name": "E2",
          "ticks": 59904,
          "time": 71.99992799999998,
          "velocity": 0.7874015748031497
        },
        {
          "duration": 0.46153800000000444,
          "durationTicks": 384,
          "midi": 40,
          "name": "E2",
          "ticks": 60288,
          "time": 72.46146599999999,
          "velocity": 0.7874015748031497
        },
        {
          "duration": 0.3461534999999998,
          "durationTicks": 288,
          "midi": 40,
          "name": "E2",
          "ticks": 60672,
          "time": 72.92300399999999,
          "velocity": 0.7874015748031497
        },
        {
          "duration": 0.11538449999999045,
          "durationTicks": 96,
          "midi": 43,
          "name": "G2",
          "ticks": 60960,
          "time": 73.26915749999999,
          "velocity": 0.7874015748031497
        },
        {
          "duration": 0.346153500000014,
          "durationTicks": 288,
          "midi": 45,
          "name": "A2",
          "ticks": 61056,
          "time": 73.38454199999998,
          "velocity": 0.7874015748031497
        },
        {
          "duration": 0.11538449999999045,
          "durationTicks": 96,
          "midi": 43,
          "name": "G2",
          "ticks": 61344,
          "time": 73.7306955,
          "velocity": 0.7874015748031497
        },
        {
          "duration": 0.46153800000000444,
          "durationTicks": 384,
          "midi": 40,
          "name": "E2",
          "ticks": 61440,
          "time": 73.84607999999999,
          "velocity": 0.7874015748031497
        },
        {
          "duration": 0.46153800000000444,
          "durationTicks": 384,
          "midi": 40,
          "name": "E2",
          "ticks": 61824,
          "time": 74.30761799999999,
          "velocity": 0.7874015748031497
        },
        {
          "duration": 0.3461534999999998,
          "durationTicks": 288,
          "midi": 40,
          "name": "E2",
          "ticks": 62208,
          "time": 74.769156,
          "velocity": 0.7874015748031497
        },
        {
          "duration": 0.11538449999999045,
          "durationTicks": 96,
          "midi": 43,
          "name": "G2",
          "ticks": 62496,
          "time": 75.1153095,
          "velocity": 0.7874015748031497
        },
        {
          "duration": 0.3461534999999998,
          "durationTicks": 288,
          "midi": 45,
          "name": "A2",
          "ticks": 62592,
          "time": 75.23069399999999,
          "velocity": 0.7874015748031497
        },
        {
          "duration": 0.11538450000000466,
          "durationTicks": 96,
          "midi": 43,
          "name": "G2",
          "ticks": 62880,
          "time": 75.57684749999999,
          "velocity": 0.7874015748031497
        },
        {
          "duration": 0.46153800000000444,
          "durationTicks": 384,
          "midi": 40,
          "name": "E2",
          "ticks": 62976,
          "time": 75.69223199999999,
          "velocity": 0.7874015748031497
        },
        {
          "duration": 0.46153800000000444,
          "durationTicks": 384,
          "midi": 40,
          "name": "E2",
          "ticks": 63360,
          "time": 76.15377,
          "velocity": 0.7874015748031497
        },
        {
          "duration": 0.34615349999998557,
          "durationTicks": 288,
          "midi": 40,
          "name": "E2",
          "ticks": 63744,
          "time": 76.615308,
          "velocity": 0.7874015748031497
        },
        {
          "duration": 0.11538450000000466,
          "durationTicks": 96,
          "midi": 43,
          "name": "G2",
          "ticks": 64032,
          "time": 76.96146149999998,
          "velocity": 0.7874015748031497
        },
        {
          "duration": 0.3461534999999998,
          "durationTicks": 288,
          "midi": 45,
          "name": "A2",
          "ticks": 64128,
          "time": 77.07684599999999,
          "velocity": 0.7874015748031497
        },
        {
          "duration": 0.11538450000000466,
          "durationTicks": 96,
          "midi": 43,
          "name": "G2",
          "ticks": 64416,
          "time": 77.42299949999999,
          "velocity": 0.7874015748031497
        },
        {
          "duration": 0.46153800000000444,
          "durationTicks": 384,
          "midi": 40,
          "name": "E2",
          "ticks": 64512,
          "time": 77.538384,
          "velocity": 0.7874015748031497
        },
        {
          "duration": 0.46153799999999023,
          "durationTicks": 384,
          "midi": 40,
          "name": "E2",
          "ticks": 64896,
          "time": 77.999922,
          "velocity": 0.7874015748031497
        },
        {
          "duration": 0.3461534999999998,
          "durationTicks": 288,
          "midi": 40,
          "name": "E2",
          "ticks": 65280,
          "time": 78.46145999999999,
          "velocity": 0.7874015748031497
        },
        {
          "duration": 0.11538450000000466,
          "durationTicks": 96,
          "midi": 43,
          "name": "G2",
          "ticks": 65568,
          "time": 78.80761349999999,
          "velocity": 0.7874015748031497
        },
        {
          "duration": 0.3461534999999998,
          "durationTicks": 288,
          "midi": 45,
          "name": "A2",
          "ticks": 65664,
          "time": 78.92299799999999,
          "velocity": 0.7874015748031497
        },
        {
          "duration": 0.11538450000000466,
          "durationTicks": 96,
          "midi": 43,
          "name": "G2",
          "ticks": 65952,
          "time": 79.26915149999999,
          "velocity": 0.7874015748031497
        },
        {
          "duration": 0.46153799999999023,
          "durationTicks": 384,
          "midi": 40,
          "name": "E2",
          "ticks": 66048,
          "time": 79.384536,
          "velocity": 0.7874015748031497
        },
        {
          "duration": 0.46153800000000444,
          "durationTicks": 384,
          "midi": 40,
          "name": "E2",
          "ticks": 66432,
          "time": 79.84607399999999,
          "velocity": 0.7874015748031497
        },
        {
          "duration": 0.3461534999999998,
          "durationTicks": 288,
          "midi": 40,
          "name": "E2",
          "ticks": 66816,
          "time": 80.30761199999999,
          "velocity": 0.7874015748031497
        },
        {
          "duration": 0.11538450000000466,
          "durationTicks": 96,
          "midi": 43,
          "name": "G2",
          "ticks": 67104,
          "time": 80.65376549999999,
          "velocity": 0.7874015748031497
        },
        {
          "duration": 0.34615349999998557,
          "durationTicks": 288,
          "midi": 45,
          "name": "A2",
          "ticks": 67200,
          "time": 80.76915,
          "velocity": 0.7874015748031497
        },
        {
          "duration": 0.11538450000000466,
          "durationTicks": 96,
          "midi": 43,
          "name": "G2",
          "ticks": 67488,
          "time": 81.11530349999998,
          "velocity": 0.7874015748031497
        },
        {
          "duration": 0.46153800000000444,
          "durationTicks": 384,
          "midi": 40,
          "name": "E2",
          "ticks": 67584,
          "time": 81.23068799999999,
          "velocity": 0.7874015748031497
        },
        {
          "duration": 0.46153800000000444,
          "durationTicks": 384,
          "midi": 40,
          "name": "E2",
          "ticks": 67968,
          "time": 81.69222599999999,
          "velocity": 0.7874015748031497
        },
        {
          "duration": 0.34615349999998557,
          "durationTicks": 288,
          "midi": 40,
          "name": "E2",
          "ticks": 68352,
          "time": 82.153764,
          "velocity": 0.7874015748031497
        },
        {
          "duration": 0.11538450000000466,
          "durationTicks": 96,
          "midi": 43,
          "name": "G2",
          "ticks": 68640,
          "time": 82.49991749999998,
          "velocity": 0.7874015748031497
        },
        {
          "duration": 0.346153500000014,
          "durationTicks": 288,
          "midi": 45,
          "name": "A2",
          "ticks": 68736,
          "time": 82.61530199999999,
          "velocity": 0.7874015748031497
        },
        {
          "duration": 0.11538449999999045,
          "durationTicks": 96,
          "midi": 43,
          "name": "G2",
          "ticks": 69024,
          "time": 82.9614555,
          "velocity": 0.7874015748031497
        },
        {
          "duration": 0.46153800000000444,
          "durationTicks": 384,
          "midi": 40,
          "name": "E2",
          "ticks": 69120,
          "time": 83.07683999999999,
          "velocity": 0.7874015748031497
        },
        {
          "duration": 0.46153799999999023,
          "durationTicks": 384,
          "midi": 40,
          "name": "E2",
          "ticks": 69504,
          "time": 83.538378,
          "velocity": 0.7874015748031497
        },
        {
          "duration": 0.346153500000014,
          "durationTicks": 288,
          "midi": 40,
          "name": "E2",
          "ticks": 69888,
          "time": 83.99991599999998,
          "velocity": 0.7874015748031497
        },
        {
          "duration": 0.11538449999999045,
          "durationTicks": 96,
          "midi": 43,
          "name": "G2",
          "ticks": 70176,
          "time": 84.3460695,
          "velocity": 0.7874015748031497
        },
        {
          "duration": 0.3461534999999998,
          "durationTicks": 288,
          "midi": 45,
          "name": "A2",
          "ticks": 70272,
          "time": 84.46145399999999,
          "velocity": 0.7874015748031497
        },
        {
          "duration": 0.11538450000000466,
          "durationTicks": 96,
          "midi": 43,
          "name": "G2",
          "ticks": 70560,
          "time": 84.80760749999999,
          "velocity": 0.7874015748031497
        },
        {
          "duration": 0.46153799999999023,
          "durationTicks": 384,
          "midi": 40,
          "name": "E2",
          "ticks": 70656,
          "time": 84.922992,
          "velocity": 0.7874015748031497
        },
        {
          "duration": 0.46153800000000444,
          "durationTicks": 384,
          "midi": 40,
          "name": "E2",
          "ticks": 71040,
          "time": 85.38452999999998,
          "velocity": 0.7874015748031497
        },
        {
          "duration": 0.3461534999999998,
          "durationTicks": 288,
          "midi": 40,
          "name": "E2",
          "ticks": 71424,
          "time": 85.84606799999999,
          "velocity": 0.7874015748031497
        },
        {
          "duration": 0.11538450000000466,
          "durationTicks": 96,
          "midi": 43,
          "name": "G2",
          "ticks": 71712,
          "time": 86.19222149999999,
          "velocity": 0.7874015748031497
        },
        {
          "duration": 0.3461534999999998,
          "durationTicks": 288,
          "midi": 45,
          "name": "A2",
          "ticks": 71808,
          "time": 86.30760599999999,
          "velocity": 0.7874015748031497
        },
        {
          "duration": 0.11538449999999045,
          "durationTicks": 96,
          "midi": 43,
          "name": "G2",
          "ticks": 72096,
          "time": 86.65375949999999,
          "velocity": 0.7874015748031497
        },
        {
          "duration": 0.46153800000000444,
          "durationTicks": 384,
          "midi": 40,
          "name": "E2",
          "ticks": 72192,
          "time": 86.76914399999998,
          "velocity": 0.7874015748031497
        },
        {
          "duration": 0.46153800000000444,
          "durationTicks": 384,
          "midi": 40,
          "name": "E2",
          "ticks": 72576,
          "time": 87.23068199999999,
          "velocity": 0.7874015748031497
        },
        {
          "duration": 0.3461534999999998,
          "durationTicks": 288,
          "midi": 40,
          "name": "E2",
          "ticks": 72960,
          "time": 87.69221999999999,
          "velocity": 0.7874015748031497
        },
        {
          "duration": 0.11538449999999045,
          "durationTicks": 96,
          "midi": 43,
          "name": "G2",
          "ticks": 73248,
          "time": 88.03837349999999,
          "velocity": 0.7874015748031497
        },
        {
          "duration": 0.346153500000014,
          "durationTicks": 288,
          "midi": 45,
          "name": "A2",
          "ticks": 73344,
          "time": 88.15375799999998,
          "velocity": 0.7874015748031497
        },
        {
          "duration": 0.11538449999999045,
          "durationTicks": 96,
          "midi": 43,
          "name": "G2",
          "ticks": 73632,
          "time": 88.4999115,
          "velocity": 0.7874015748031497
        },
        {
          "duration": 0.46153800000000444,
          "durationTicks": 384,
          "midi": 40,
          "name": "E2",
          "ticks": 73728,
          "time": 88.61529599999999,
          "velocity": 0.7874015748031497
        },
        {
          "duration": 0.46153799999999023,
          "durationTicks": 384,
          "midi": 40,
          "name": "E2",
          "ticks": 74112,
          "time": 89.07683399999999,
          "velocity": 0.7874015748031497
        },
        {
          "duration": 0.346153500000014,
          "durationTicks": 288,
          "midi": 40,
          "name": "E2",
          "ticks": 74496,
          "time": 89.53837199999998,
          "velocity": 0.7874015748031497
        },
        {
          "duration": 0.11538449999999045,
          "durationTicks": 96,
          "midi": 43,
          "name": "G2",
          "ticks": 74784,
          "time": 89.8845255,
          "velocity": 0.7874015748031497
        },
        {
          "duration": 0.3461534999999998,
          "durationTicks": 288,
          "midi": 45,
          "name": "A2",
          "ticks": 74880,
          "time": 89.99990999999999,
          "velocity": 0.7874015748031497
        },
        {
          "duration": 0.11538450000000466,
          "durationTicks": 96,
          "midi": 43,
          "name": "G2",
          "ticks": 75168,
          "time": 90.34606349999999,
          "velocity": 0.7874015748031497
        },
        {
          "duration": 0.46153799999999023,
          "durationTicks": 384,
          "midi": 40,
          "name": "E2",
          "ticks": 75264,
          "time": 90.46144799999999,
          "velocity": 0.7874015748031497
        },
        {
          "duration": 0.46153800000001866,
          "durationTicks": 384,
          "midi": 40,
          "name": "E2",
          "ticks": 75648,
          "time": 90.92298599999998,
          "velocity": 0.7874015748031497
        },
        {
          "duration": 0.34615349999998557,
          "durationTicks": 288,
          "midi": 40,
          "name": "E2",
          "ticks": 76032,
          "time": 91.384524,
          "velocity": 0.7874015748031497
        },
        {
          "duration": 0.11538450000000466,
          "durationTicks": 96,
          "midi": 43,
          "name": "G2",
          "ticks": 76320,
          "time": 91.73067749999998,
          "velocity": 0.7874015748031497
        },
        {
          "duration": 0.3461534999999998,
          "durationTicks": 288,
          "midi": 45,
          "name": "A2",
          "ticks": 76416,
          "time": 91.84606199999999,
          "velocity": 0.7874015748031497
        },
        {
          "duration": 0.11538449999999045,
          "durationTicks": 96,
          "midi": 43,
          "name": "G2",
          "ticks": 76704,
          "time": 92.19221549999999,
          "velocity": 0.7874015748031497
        },
        {
          "duration": 0.46153800000001866,
          "durationTicks": 384,
          "midi": 40,
          "name": "E2",
          "ticks": 76800,
          "time": 92.30759999999998,
          "velocity": 0.7874015748031497
        },
        {
          "duration": 0.46153799999999023,
          "durationTicks": 384,
          "midi": 40,
          "name": "E2",
          "ticks": 77184,
          "time": 92.769138,
          "velocity": 0.7874015748031497
        },
        {
          "duration": 0.3461534999999998,
          "durationTicks": 288,
          "midi": 40,
          "name": "E2",
          "ticks": 77568,
          "time": 93.23067599999999,
          "velocity": 0.7874015748031497
        },
        {
          "duration": 0.11538449999999045,
          "durationTicks": 96,
          "midi": 43,
          "name": "G2",
          "ticks": 77856,
          "time": 93.57682949999999,
          "velocity": 0.7874015748031497
        },
        {
          "duration": 0.346153500000014,
          "durationTicks": 288,
          "midi": 45,
          "name": "A2",
          "ticks": 77952,
          "time": 93.69221399999998,
          "velocity": 0.7874015748031497
        },
        {
          "duration": 0.11538450000000466,
          "durationTicks": 96,
          "midi": 43,
          "name": "G2",
          "ticks": 78240,
          "time": 94.03836749999999,
          "velocity": 0.7874015748031497
        },
        {
          "duration": 0.46153799999999023,
          "durationTicks": 384,
          "midi": 47,
          "name": "B2",
          "ticks": 78336,
          "time": 94.153752,
          "velocity": 0.7874015748031497
        },
        {
          "duration": 0.46153799999999023,
          "durationTicks": 384,
          "midi": 47,
          "name": "B2",
          "ticks": 78720,
          "time": 94.61528999999999,
          "velocity": 0.7874015748031497
        },
        {
          "duration": 0.46153800000001866,
          "durationTicks": 384,
          "midi": 47,
          "name": "B2",
          "ticks": 79104,
          "time": 95.07682799999998,
          "velocity": 0.7874015748031497
        },
        {
          "duration": 0.46153799999999023,
          "durationTicks": 384,
          "midi": 47,
          "name": "B2",
          "ticks": 79488,
          "time": 95.538366,
          "velocity": 0.7874015748031497
        },
        {
          "duration": 0.46153800000000444,
          "durationTicks": 384,
          "midi": 35,
          "name": "B1",
          "ticks": 79872,
          "time": 95.99990399999999,
          "velocity": 0.7874015748031497
        },
        {
          "duration": 0.46153800000000444,
          "durationTicks": 384,
          "midi": 35,
          "name": "B1",
          "ticks": 80256,
          "time": 96.46144199999999,
          "velocity": 0.7874015748031497
        },
        {
          "duration": 0.30769200000000296,
          "durationTicks": 256,
          "midi": 35,
          "name": "B1",
          "ticks": 80640,
          "time": 96.92298,
          "velocity": 0.7874015748031497
        },
        {
          "duration": 0.15384599999998727,
          "durationTicks": 128,
          "midi": 35,
          "name": "B1",
          "ticks": 80896,
          "time": 97.230672,
          "velocity": 0.7874015748031497
        },
        {
          "duration": 0.30769200000000296,
          "durationTicks": 256,
          "midi": 35,
          "name": "B1",
          "ticks": 81024,
          "time": 97.38451799999999,
          "velocity": 0.7874015748031497
        },
        {
          "duration": 0.15384600000000148,
          "durationTicks": 128,
          "midi": 35,
          "name": "B1",
          "ticks": 81280,
          "time": 97.69220999999999,
          "velocity": 0.7874015748031497
        },
        {
          "duration": 0.30769200000000296,
          "durationTicks": 256,
          "midi": 35,
          "name": "B1",
          "ticks": 81408,
          "time": 97.84605599999999,
          "velocity": 0.7874015748031497
        },
        {
          "duration": 0.15384600000000148,
          "durationTicks": 128,
          "midi": 35,
          "name": "B1",
          "ticks": 81664,
          "time": 98.153748,
          "velocity": 0.7874015748031497
        },
        {
          "duration": 0.30769200000000296,
          "durationTicks": 256,
          "midi": 35,
          "name": "B1",
          "ticks": 81792,
          "time": 98.307594,
          "velocity": 0.7874015748031497
        },
        {
          "duration": 0.15384599999998727,
          "durationTicks": 128,
          "midi": 35,
          "name": "B1",
          "ticks": 82048,
          "time": 98.615286,
          "velocity": 0.7874015748031497
        },
        {
          "duration": 0.30769200000000296,
          "durationTicks": 256,
          "midi": 35,
          "name": "B1",
          "ticks": 82176,
          "time": 98.76913199999998,
          "velocity": 0.7874015748031497
        },
        {
          "duration": 0.15384599999998727,
          "durationTicks": 128,
          "midi": 40,
          "name": "E2",
          "ticks": 82416,
          "time": 99.05759325,
          "velocity": 0.7874015748031497
        },
        {
          "duration": 0.26923050000000615,
          "durationTicks": 224,
          "midi": 40,
          "name": "E2",
          "ticks": 82560,
          "time": 99.23066999999999,
          "velocity": 0.7874015748031497
        },
        {
          "duration": 0.173076750000007,
          "durationTicks": 144,
          "midi": 40,
          "name": "E2",
          "ticks": 82800,
          "time": 99.51913124999999,
          "velocity": 0.7874015748031497
        },
        {
          "duration": 0.46153799999999023,
          "durationTicks": 384,
          "midi": 35,
          "name": "B1",
          "ticks": 82944,
          "time": 99.692208,
          "velocity": 0.7874015748031497
        },
        {
          "duration": 0.46153800000000444,
          "durationTicks": 384,
          "midi": 35,
          "name": "B1",
          "ticks": 83328,
          "time": 100.15374599999998,
          "velocity": 0.7874015748031497
        },
        {
          "duration": 0.30769200000000296,
          "durationTicks": 256,
          "midi": 35,
          "name": "B1",
          "ticks": 83712,
          "time": 100.61528399999999,
          "velocity": 0.7874015748031497
        },
        {
          "duration": 0.15384600000000148,
          "durationTicks": 128,
          "midi": 35,
          "name": "B1",
          "ticks": 83968,
          "time": 100.92297599999999,
          "velocity": 0.7874015748031497
        },
        {
          "duration": 0.30769200000000296,
          "durationTicks": 256,
          "midi": 35,
          "name": "B1",
          "ticks": 84096,
          "time": 101.07682199999999,
          "velocity": 0.7874015748031497
        },
        {
          "duration": 0.15384599999998727,
          "durationTicks": 128,
          "midi": 35,
          "name": "B1",
          "ticks": 84352,
          "time": 101.384514,
          "velocity": 0.7874015748031497
        },
        {
          "duration": 0.30769200000000296,
          "durationTicks": 256,
          "midi": 35,
          "name": "B1",
          "ticks": 84480,
          "time": 101.53835999999998,
          "velocity": 0.7874015748031497
        },
        {
          "duration": 0.15384600000000148,
          "durationTicks": 128,
          "midi": 35,
          "name": "B1",
          "ticks": 84736,
          "time": 101.84605199999999,
          "velocity": 0.7874015748031497
        },
        {
          "duration": 0.30769200000000296,
          "durationTicks": 256,
          "midi": 35,
          "name": "B1",
          "ticks": 84864,
          "time": 101.99989799999999,
          "velocity": 0.7874015748031497
        },
        {
          "duration": 0.15384600000000148,
          "durationTicks": 128,
          "midi": 35,
          "name": "B1",
          "ticks": 85120,
          "time": 102.30758999999999,
          "velocity": 0.7874015748031497
        },
        {
          "duration": 0.30769200000000296,
          "durationTicks": 256,
          "midi": 35,
          "name": "B1",
          "ticks": 85248,
          "time": 102.46143599999999,
          "velocity": 0.7874015748031497
        },
        {
          "duration": 0.15384600000000148,
          "durationTicks": 128,
          "midi": 40,
          "name": "E2",
          "ticks": 85488,
          "time": 102.74989724999999,
          "velocity": 0.7874015748031497
        },
        {
          "duration": 0.26923050000000615,
          "durationTicks": 224,
          "midi": 40,
          "name": "E2",
          "ticks": 85632,
          "time": 102.92297399999998,
          "velocity": 0.7874015748031497
        },
        {
          "duration": 0.16346137499999713,
          "durationTicks": 136,
          "midi": 40,
          "name": "E2",
          "ticks": 85872,
          "time": 103.21143525,
          "velocity": 0.7874015748031497
        },
        {
          "duration": 0.46153800000000444,
          "durationTicks": 384,
          "midi": 35,
          "name": "B1",
          "ticks": 86016,
          "time": 103.38451199999999,
          "velocity": 0.7874015748031497
        },
        {
          "duration": 0.46153799999999023,
          "durationTicks": 384,
          "midi": 35,
          "name": "B1",
          "ticks": 86400,
          "time": 103.84604999999999,
          "velocity": 0.7874015748031497
        },
        {
          "duration": 0.30769200000000296,
          "durationTicks": 256,
          "midi": 35,
          "name": "B1",
          "ticks": 86784,
          "time": 104.30758799999998,
          "velocity": 0.7874015748031497
        },
        {
          "duration": 0.15384600000000148,
          "durationTicks": 128,
          "midi": 35,
          "name": "B1",
          "ticks": 87040,
          "time": 104.61527999999998,
          "velocity": 0.7874015748031497
        },
        {
          "duration": 0.30769200000000296,
          "durationTicks": 256,
          "midi": 35,
          "name": "B1",
          "ticks": 87168,
          "time": 104.76912599999999,
          "velocity": 0.7874015748031497
        },
        {
          "duration": 0.15384600000000148,
          "durationTicks": 128,
          "midi": 35,
          "name": "B1",
          "ticks": 87424,
          "time": 105.07681799999999,
          "velocity": 0.7874015748031497
        },
        {
          "duration": 0.30769200000000296,
          "durationTicks": 256,
          "midi": 35,
          "name": "B1",
          "ticks": 87552,
          "time": 105.23066399999999,
          "velocity": 0.7874015748031497
        },
        {
          "duration": 0.15384599999998727,
          "durationTicks": 128,
          "midi": 35,
          "name": "B1",
          "ticks": 87808,
          "time": 105.538356,
          "velocity": 0.7874015748031497
        },
        {
          "duration": 0.30769200000000296,
          "durationTicks": 256,
          "midi": 35,
          "name": "B1",
          "ticks": 87936,
          "time": 105.69220199999998,
          "velocity": 0.7874015748031497
        },
        {
          "duration": 0.15384600000000148,
          "durationTicks": 128,
          "midi": 35,
          "name": "B1",
          "ticks": 88192,
          "time": 105.99989399999998,
          "velocity": 0.7874015748031497
        },
        {
          "duration": 0.30769200000000296,
          "durationTicks": 256,
          "midi": 35,
          "name": "B1",
          "ticks": 88320,
          "time": 106.15373999999998,
          "velocity": 0.7874015748031497
        },
        {
          "duration": 0.15384600000000148,
          "durationTicks": 128,
          "midi": 40,
          "name": "E2",
          "ticks": 88560,
          "time": 106.44220124999998,
          "velocity": 0.7874015748031497
        },
        {
          "duration": 0.26923049999999193,
          "durationTicks": 224,
          "midi": 40,
          "name": "E2",
          "ticks": 88704,
          "time": 106.61527799999999,
          "velocity": 0.7874015748031497
        },
        {
          "duration": 0.17307674999999278,
          "durationTicks": 144,
          "midi": 40,
          "name": "E2",
          "ticks": 88944,
          "time": 106.90373924999999,
          "velocity": 0.7874015748031497
        },
        {
          "duration": 0.46153800000000444,
          "durationTicks": 384,
          "midi": 35,
          "name": "B1",
          "ticks": 89088,
          "time": 107.07681599999998,
          "velocity": 0.7874015748031497
        },
        {
          "duration": 0.46153800000000444,
          "durationTicks": 384,
          "midi": 35,
          "name": "B1",
          "ticks": 89472,
          "time": 107.53835399999998,
          "velocity": 0.7874015748031497
        },
        {
          "duration": 0.30769200000000296,
          "durationTicks": 256,
          "midi": 35,
          "name": "B1",
          "ticks": 89856,
          "time": 107.99989199999999,
          "velocity": 0.7874015748031497
        },
        {
          "duration": 0.15384599999998727,
          "durationTicks": 128,
          "midi": 35,
          "name": "B1",
          "ticks": 90112,
          "time": 108.30758399999999,
          "velocity": 0.7874015748031497
        },
        {
          "duration": 0.30769200000000296,
          "durationTicks": 256,
          "midi": 35,
          "name": "B1",
          "ticks": 90240,
          "time": 108.46142999999998,
          "velocity": 0.7874015748031497
        },
        {
          "duration": 0.15384600000000148,
          "durationTicks": 128,
          "midi": 35,
          "name": "B1",
          "ticks": 90496,
          "time": 108.76912199999998,
          "velocity": 0.7874015748031497
        },
        {
          "duration": 0.30769200000000296,
          "durationTicks": 256,
          "midi": 35,
          "name": "B1",
          "ticks": 90624,
          "time": 108.92296799999998,
          "velocity": 0.7874015748031497
        },
        {
          "duration": 0.15384600000000148,
          "durationTicks": 128,
          "midi": 35,
          "name": "B1",
          "ticks": 90880,
          "time": 109.23065999999999,
          "velocity": 0.7874015748031497
        },
        {
          "duration": 0.30769200000000296,
          "durationTicks": 256,
          "midi": 35,
          "name": "B1",
          "ticks": 91008,
          "time": 109.38450599999999,
          "velocity": 0.7874015748031497
        },
        {
          "duration": 0.15384600000000148,
          "durationTicks": 128,
          "midi": 35,
          "name": "B1",
          "ticks": 91264,
          "time": 109.69219799999999,
          "velocity": 0.7874015748031497
        },
        {
          "duration": 0.30769199999998875,
          "durationTicks": 256,
          "midi": 35,
          "name": "B1",
          "ticks": 91392,
          "time": 109.84604399999999,
          "velocity": 0.7874015748031497
        },
        {
          "duration": 0.15384600000000148,
          "durationTicks": 128,
          "midi": 40,
          "name": "E2",
          "ticks": 91632,
          "time": 110.13450524999999,
          "velocity": 0.7874015748031497
        },
        {
          "duration": 0.26923050000000615,
          "durationTicks": 224,
          "midi": 40,
          "name": "E2",
          "ticks": 91776,
          "time": 110.30758199999998,
          "velocity": 0.7874015748031497
        },
        {
          "duration": 0.173076750000007,
          "durationTicks": 144,
          "midi": 40,
          "name": "E2",
          "ticks": 92016,
          "time": 110.59604324999998,
          "velocity": 0.7874015748031497
        },
        {
          "duration": 0.46153800000000444,
          "durationTicks": 384,
          "midi": 33,
          "name": "A1",
          "ticks": 92160,
          "time": 110.76911999999999,
          "velocity": 0.7874015748031497
        },
        {
          "duration": 0.46153799999999023,
          "durationTicks": 384,
          "midi": 33,
          "name": "A1",
          "ticks": 92544,
          "time": 111.23065799999999,
          "velocity": 0.7874015748031497
        },
        {
          "duration": 0.30769200000000296,
          "durationTicks": 256,
          "midi": 33,
          "name": "A1",
          "ticks": 92928,
          "time": 111.69219599999998,
          "velocity": 0.7874015748031497
        },
        {
          "duration": 0.15384600000000148,
          "durationTicks": 128,
          "midi": 33,
          "name": "A1",
          "ticks": 93184,
          "time": 111.99988799999998,
          "velocity": 0.7874015748031497
        },
        {
          "duration": 0.30769200000000296,
          "durationTicks": 256,
          "midi": 33,
          "name": "A1",
          "ticks": 93312,
          "time": 112.15373399999999,
          "velocity": 0.7874015748031497
        },
        {
          "duration": 0.15384600000000148,
          "durationTicks": 128,
          "midi": 33,
          "name": "A1",
          "ticks": 93568,
          "time": 112.46142599999999,
          "velocity": 0.7874015748031497
        },
        {
          "duration": 0.30769199999998875,
          "durationTicks": 256,
          "midi": 33,
          "name": "A1",
          "ticks": 93696,
          "time": 112.61527199999999,
          "velocity": 0.7874015748031497
        },
        {
          "duration": 0.15384600000000148,
          "durationTicks": 128,
          "midi": 33,
          "name": "A1",
          "ticks": 93952,
          "time": 112.92296399999998,
          "velocity": 0.7874015748031497
        },
        {
          "duration": 0.30769200000000296,
          "durationTicks": 256,
          "midi": 33,
          "name": "A1",
          "ticks": 94080,
          "time": 113.07680999999998,
          "velocity": 0.7874015748031497
        },
        {
          "duration": 0.15384600000000148,
          "durationTicks": 128,
          "midi": 33,
          "name": "A1",
          "ticks": 94336,
          "time": 113.38450199999998,
          "velocity": 0.7874015748031497
        },
        {
          "duration": 0.30769200000000296,
          "durationTicks": 256,
          "midi": 33,
          "name": "A1",
          "ticks": 94464,
          "time": 113.53834799999998,
          "velocity": 0.7874015748031497
        },
        {
          "duration": 0.15384600000000148,
          "durationTicks": 128,
          "midi": 38,
          "name": "D2",
          "ticks": 94704,
          "time": 113.82680924999998,
          "velocity": 0.7874015748031497
        },
        {
          "duration": 0.26923049999999193,
          "durationTicks": 224,
          "midi": 38,
          "name": "D2",
          "ticks": 94848,
          "time": 113.99988599999999,
          "velocity": 0.7874015748031497
        },
        {
          "duration": 0.15384600000000148,
          "durationTicks": 128,
          "midi": 38,
          "name": "D2",
          "ticks": 95088,
          "time": 114.28834724999999,
          "velocity": 0.7874015748031497
        },
        {
          "duration": 0.46153800000000444,
          "durationTicks": 384,
          "midi": 33,
          "name": "A1",
          "ticks": 95232,
          "time": 114.46142399999998,
          "velocity": 0.7874015748031497
        },
        {
          "duration": 0.46153800000000444,
          "durationTicks": 384,
          "midi": 33,
          "name": "A1",
          "ticks": 95616,
          "time": 114.92296199999998,
          "velocity": 0.7874015748031497
        },
        {
          "duration": 0.30769200000000296,
          "durationTicks": 256,
          "midi": 33,
          "name": "A1",
          "ticks": 96000,
          "time": 115.38449999999999,
          "velocity": 0.7874015748031497
        },
        {
          "duration": 0.15384600000000148,
          "durationTicks": 128,
          "midi": 33,
          "name": "A1",
          "ticks": 96256,
          "time": 115.69219199999999,
          "velocity": 0.7874015748031497
        },
        {
          "duration": 0.30769199999998875,
          "durationTicks": 256,
          "midi": 33,
          "name": "A1",
          "ticks": 96384,
          "time": 115.846038,
          "velocity": 0.7874015748031497
        },
        {
          "duration": 0.15384600000000148,
          "durationTicks": 128,
          "midi": 33,
          "name": "A1",
          "ticks": 96640,
          "time": 116.15372999999998,
          "velocity": 0.7874015748031497
        },
        {
          "duration": 0.30769200000000296,
          "durationTicks": 256,
          "midi": 33,
          "name": "A1",
          "ticks": 96768,
          "time": 116.30757599999998,
          "velocity": 0.7874015748031497
        },
        {
          "duration": 0.15384600000000148,
          "durationTicks": 128,
          "midi": 33,
          "name": "A1",
          "ticks": 97024,
          "time": 116.61526799999999,
          "velocity": 0.7874015748031497
        },
        {
          "duration": 0.30769200000000296,
          "durationTicks": 256,
          "midi": 33,
          "name": "A1",
          "ticks": 97152,
          "time": 116.76911399999999,
          "velocity": 0.7874015748031497
        },
        {
          "duration": 0.15384600000000148,
          "durationTicks": 128,
          "midi": 33,
          "name": "A1",
          "ticks": 97408,
          "time": 117.07680599999999,
          "velocity": 0.7874015748031497
        },
        {
          "duration": 0.30769199999998875,
          "durationTicks": 256,
          "midi": 33,
          "name": "A1",
          "ticks": 97536,
          "time": 117.23065199999999,
          "velocity": 0.7874015748031497
        },
        {
          "duration": 0.15384600000000148,
          "durationTicks": 128,
          "midi": 38,
          "name": "D2",
          "ticks": 97776,
          "time": 117.51911324999999,
          "velocity": 0.7874015748031497
        },
        {
          "duration": 0.26923050000000615,
          "durationTicks": 224,
          "midi": 38,
          "name": "D2",
          "ticks": 97920,
          "time": 117.69218999999998,
          "velocity": 0.7874015748031497
        },
        {
          "duration": 0.15384600000000148,
          "durationTicks": 128,
          "midi": 38,
          "name": "D2",
          "ticks": 98160,
          "time": 117.98065124999998,
          "velocity": 0.7874015748031497
        },
        {
          "duration": 0.46153800000000444,
          "durationTicks": 384,
          "midi": 40,
          "name": "E2",
          "ticks": 98304,
          "time": 118.15372799999999,
          "velocity": 0.7874015748031497
        },
        {
          "duration": 0.46153799999999023,
          "durationTicks": 384,
          "midi": 40,
          "name": "E2",
          "ticks": 98688,
          "time": 118.61526599999999,
          "velocity": 0.7874015748031497
        },
        {
          "duration": 0.3461534999999998,
          "durationTicks": 288,
          "midi": 40,
          "name": "E2",
          "ticks": 99072,
          "time": 119.07680399999998,
          "velocity": 0.7874015748031497
        },
        {
          "duration": 0.11538450000000466,
          "durationTicks": 96,
          "midi": 43,
          "name": "G2",
          "ticks": 99360,
          "time": 119.42295749999998,
          "velocity": 0.7874015748031497
        },
        {
          "duration": 0.3461534999999998,
          "durationTicks": 288,
          "midi": 45,
          "name": "A2",
          "ticks": 99456,
          "time": 119.53834199999999,
          "velocity": 0.7874015748031497
        },
        {
          "duration": 0.11538450000000466,
          "durationTicks": 96,
          "midi": 43,
          "name": "G2",
          "ticks": 99744,
          "time": 119.88449549999999,
          "velocity": 0.7874015748031497
        },
        {
          "duration": 0.46153799999999023,
          "durationTicks": 384,
          "midi": 40,
          "name": "E2",
          "ticks": 99840,
          "time": 119.99987999999999,
          "velocity": 0.7874015748031497
        },
        {
          "duration": 0.46153800000000444,
          "durationTicks": 384,
          "midi": 40,
          "name": "E2",
          "ticks": 100224,
          "time": 120.46141799999998,
          "velocity": 0.7874015748031497
        },
        {
          "duration": 0.3461534999999998,
          "durationTicks": 288,
          "midi": 40,
          "name": "E2",
          "ticks": 100608,
          "time": 120.92295599999999,
          "velocity": 0.7874015748031497
        },
        {
          "duration": 0.11538450000000466,
          "durationTicks": 96,
          "midi": 43,
          "name": "G2",
          "ticks": 100896,
          "time": 121.26910949999998,
          "velocity": 0.7874015748031497
        },
        {
          "duration": 0.3461534999999998,
          "durationTicks": 288,
          "midi": 45,
          "name": "A2",
          "ticks": 100992,
          "time": 121.38449399999999,
          "velocity": 0.7874015748031497
        },
        {
          "duration": 0.11538449999999045,
          "durationTicks": 96,
          "midi": 43,
          "name": "G2",
          "ticks": 101280,
          "time": 121.73064749999999,
          "velocity": 0.7874015748031497
        },
        {
          "duration": 0.46153800000000444,
          "durationTicks": 384,
          "midi": 40,
          "name": "E2",
          "ticks": 101376,
          "time": 121.84603199999998,
          "velocity": 0.7874015748031497
        },
        {
          "duration": 0.46153800000000444,
          "durationTicks": 384,
          "midi": 40,
          "name": "E2",
          "ticks": 101760,
          "time": 122.30756999999998,
          "velocity": 0.7874015748031497
        },
        {
          "duration": 0.3461534999999998,
          "durationTicks": 288,
          "midi": 40,
          "name": "E2",
          "ticks": 102144,
          "time": 122.76910799999999,
          "velocity": 0.7874015748031497
        },
        {
          "duration": 0.11538449999999045,
          "durationTicks": 96,
          "midi": 43,
          "name": "G2",
          "ticks": 102432,
          "time": 123.11526149999999,
          "velocity": 0.7874015748031497
        },
        {
          "duration": 0.346153500000014,
          "durationTicks": 288,
          "midi": 45,
          "name": "A2",
          "ticks": 102528,
          "time": 123.23064599999998,
          "velocity": 0.7874015748031497
        },
        {
          "duration": 0.11538449999999045,
          "durationTicks": 96,
          "midi": 43,
          "name": "G2",
          "ticks": 102816,
          "time": 123.57679949999999,
          "velocity": 0.7874015748031497
        },
        {
          "duration": 0.46153800000000444,
          "durationTicks": 384,
          "midi": 40,
          "name": "E2",
          "ticks": 102912,
          "time": 123.69218399999998,
          "velocity": 0.7874015748031497
        },
        {
          "duration": 0.46153799999999023,
          "durationTicks": 384,
          "midi": 40,
          "name": "E2",
          "ticks": 103296,
          "time": 124.15372199999999,
          "velocity": 0.7874015748031497
        },
        {
          "duration": 0.346153500000014,
          "durationTicks": 288,
          "midi": 40,
          "name": "E2",
          "ticks": 103680,
          "time": 124.61525999999998,
          "velocity": 0.7874015748031497
        },
        {
          "duration": 0.11538449999999045,
          "durationTicks": 96,
          "midi": 43,
          "name": "G2",
          "ticks": 103968,
          "time": 124.96141349999999,
          "velocity": 0.7874015748031497
        },
        {
          "duration": 0.3461534999999998,
          "durationTicks": 288,
          "midi": 45,
          "name": "A2",
          "ticks": 104064,
          "time": 125.07679799999998,
          "velocity": 0.7874015748031497
        },
        {
          "duration": 0.11538450000000466,
          "durationTicks": 96,
          "midi": 43,
          "name": "G2",
          "ticks": 104352,
          "time": 125.42295149999998,
          "velocity": 0.7874015748031497
        },
        {
          "duration": 0.46153799999999023,
          "durationTicks": 384,
          "midi": 40,
          "name": "E2",
          "ticks": 104448,
          "time": 125.53833599999999,
          "velocity": 0.7874015748031497
        },
        {
          "duration": 0.46153800000000444,
          "durationTicks": 384,
          "midi": 40,
          "name": "E2",
          "ticks": 104832,
          "time": 125.99987399999998,
          "velocity": 0.7874015748031497
        },
        {
          "duration": 0.3461534999999998,
          "durationTicks": 288,
          "midi": 40,
          "name": "E2",
          "ticks": 105216,
          "time": 126.46141199999998,
          "velocity": 0.7874015748031497
        },
        {
          "duration": 0.11538450000000466,
          "durationTicks": 96,
          "midi": 43,
          "name": "G2",
          "ticks": 105504,
          "time": 126.80756549999998,
          "velocity": 0.7874015748031497
        },
        {
          "duration": 0.3461534999999998,
          "durationTicks": 288,
          "midi": 45,
          "name": "A2",
          "ticks": 105600,
          "time": 126.92294999999999,
          "velocity": 0.7874015748031497
        },
        {
          "duration": 0.11538449999999045,
          "durationTicks": 96,
          "midi": 43,
          "name": "G2",
          "ticks": 105888,
          "time": 127.26910349999999,
          "velocity": 0.7874015748031497
        },
        {
          "duration": 0.46153800000000444,
          "durationTicks": 384,
          "midi": 40,
          "name": "E2",
          "ticks": 105984,
          "time": 127.38448799999998,
          "velocity": 0.7874015748031497
        },
        {
          "duration": 0.46153800000000444,
          "durationTicks": 384,
          "midi": 40,
          "name": "E2",
          "ticks": 106368,
          "time": 127.84602599999998,
          "velocity": 0.7874015748031497
        },
        {
          "duration": 0.34615349999998557,
          "durationTicks": 288,
          "midi": 40,
          "name": "E2",
          "ticks": 106752,
          "time": 128.30756399999999,
          "velocity": 0.7874015748031497
        },
        {
          "duration": 0.11538450000000466,
          "durationTicks": 96,
          "midi": 43,
          "name": "G2",
          "ticks": 107040,
          "time": 128.65371749999997,
          "velocity": 0.7874015748031497
        },
        {
          "duration": 0.346153500000014,
          "durationTicks": 288,
          "midi": 45,
          "name": "A2",
          "ticks": 107136,
          "time": 128.76910199999998,
          "velocity": 0.7874015748031497
        },
        {
          "duration": 0.11538450000000466,
          "durationTicks": 96,
          "midi": 43,
          "name": "G2",
          "ticks": 107424,
          "time": 129.1152555,
          "velocity": 0.7874015748031497
        },
        {
          "duration": 0.46153799999999023,
          "durationTicks": 384,
          "midi": 40,
          "name": "E2",
          "ticks": 107520,
          "time": 129.23064,
          "velocity": 0.7874015748031497
        },
        {
          "duration": 0.46153799999999023,
          "durationTicks": 384,
          "midi": 40,
          "name": "E2",
          "ticks": 107904,
          "time": 129.69217799999998,
          "velocity": 0.7874015748031497
        },
        {
          "duration": 0.346153500000014,
          "durationTicks": 288,
          "midi": 40,
          "name": "E2",
          "ticks": 108288,
          "time": 130.15371599999997,
          "velocity": 0.7874015748031497
        },
        {
          "duration": 0.11538450000000466,
          "durationTicks": 96,
          "midi": 43,
          "name": "G2",
          "ticks": 108576,
          "time": 130.4998695,
          "velocity": 0.7874015748031497
        },
        {
          "duration": 0.34615349999998557,
          "durationTicks": 288,
          "midi": 45,
          "name": "A2",
          "ticks": 108672,
          "time": 130.615254,
          "velocity": 0.7874015748031497
        },
        {
          "duration": 0.11538450000000466,
          "durationTicks": 96,
          "midi": 43,
          "name": "G2",
          "ticks": 108960,
          "time": 130.96140749999998,
          "velocity": 0.7874015748031497
        },
        {
          "duration": 0.46153799999999023,
          "durationTicks": 384,
          "midi": 40,
          "name": "E2",
          "ticks": 109056,
          "time": 131.07679199999998,
          "velocity": 0.7874015748031497
        },
        {
          "duration": 0.46153800000001866,
          "durationTicks": 384,
          "midi": 40,
          "name": "E2",
          "ticks": 109440,
          "time": 131.53832999999997,
          "velocity": 0.7874015748031497
        },
        {
          "duration": 0.34615349999998557,
          "durationTicks": 288,
          "midi": 40,
          "name": "E2",
          "ticks": 109824,
          "time": 131.999868,
          "velocity": 0.7874015748031497
        },
        {
          "duration": 0.11538450000000466,
          "durationTicks": 96,
          "midi": 43,
          "name": "G2",
          "ticks": 110112,
          "time": 132.34602149999998,
          "velocity": 0.7874015748031497
        },
        {
          "duration": 0.34615349999998557,
          "durationTicks": 288,
          "midi": 45,
          "name": "A2",
          "ticks": 110208,
          "time": 132.46140599999998,
          "velocity": 0.7874015748031497
        },
        {
          "duration": 0.11538450000000466,
          "durationTicks": 96,
          "midi": 43,
          "name": "G2",
          "ticks": 110496,
          "time": 132.80755949999997,
          "velocity": 0.7874015748031497
        },
        {
          "duration": 0.46153800000001866,
          "durationTicks": 384,
          "midi": 40,
          "name": "E2",
          "ticks": 110592,
          "time": 132.92294399999997,
          "velocity": 0.7874015748031497
        },
        {
          "duration": 0.46153799999999023,
          "durationTicks": 384,
          "midi": 40,
          "name": "E2",
          "ticks": 110976,
          "time": 133.384482,
          "velocity": 0.7874015748031497
        },
        {
          "duration": 0.346153500000014,
          "durationTicks": 288,
          "midi": 40,
          "name": "E2",
          "ticks": 111360,
          "time": 133.84601999999998,
          "velocity": 0.7874015748031497
        },
        {
          "duration": 0.11538449999997624,
          "durationTicks": 96,
          "midi": 43,
          "name": "G2",
          "ticks": 111648,
          "time": 134.1921735,
          "velocity": 0.7874015748031497
        },
        {
          "duration": 0.346153500000014,
          "durationTicks": 288,
          "midi": 45,
          "name": "A2",
          "ticks": 111744,
          "time": 134.30755799999997,
          "velocity": 0.7874015748031497
        },
        {
          "duration": 0.11538450000000466,
          "durationTicks": 96,
          "midi": 43,
          "name": "G2",
          "ticks": 112032,
          "time": 134.6537115,
          "velocity": 0.7874015748031497
        },
        {
          "duration": 0.46153799999999023,
          "durationTicks": 384,
          "midi": 40,
          "name": "E2",
          "ticks": 112128,
          "time": 134.769096,
          "velocity": 0.7874015748031497
        },
        {
          "duration": 0.46153799999999023,
          "durationTicks": 384,
          "midi": 40,
          "name": "E2",
          "ticks": 112512,
          "time": 135.23063399999998,
          "velocity": 0.7874015748031497
        },
        {
          "duration": 0.346153500000014,
          "durationTicks": 288,
          "midi": 40,
          "name": "E2",
          "ticks": 112896,
          "time": 135.69217199999997,
          "velocity": 0.7874015748031497
        },
        {
          "duration": 0.11538450000000466,
          "durationTicks": 96,
          "midi": 43,
          "name": "G2",
          "ticks": 113184,
          "time": 136.03832549999998,
          "velocity": 0.7874015748031497
        },
        {
          "duration": 0.34615349999998557,
          "durationTicks": 288,
          "midi": 45,
          "name": "A2",
          "ticks": 113280,
          "time": 136.15371,
          "velocity": 0.7874015748031497
        },
        {
          "duration": 0.11538450000000466,
          "durationTicks": 96,
          "midi": 43,
          "name": "G2",
          "ticks": 113568,
          "time": 136.49986349999998,
          "velocity": 0.7874015748031497
        },
        {
          "duration": 0.46153799999999023,
          "durationTicks": 384,
          "midi": 40,
          "name": "E2",
          "ticks": 113664,
          "time": 136.61524799999998,
          "velocity": 0.7874015748031497
        },
        {
          "duration": 0.46153800000001866,
          "durationTicks": 384,
          "midi": 40,
          "name": "E2",
          "ticks": 114048,
          "time": 137.07678599999997,
          "velocity": 0.7874015748031497
        },
        {
          "duration": 0.34615349999998557,
          "durationTicks": 288,
          "midi": 40,
          "name": "E2",
          "ticks": 114432,
          "time": 137.538324,
          "velocity": 0.7874015748031497
        },
        {
          "duration": 0.11538450000000466,
          "durationTicks": 96,
          "midi": 43,
          "name": "G2",
          "ticks": 114720,
          "time": 137.88447749999997,
          "velocity": 0.7874015748031497
        },
        {
          "duration": 0.346153500000014,
          "durationTicks": 288,
          "midi": 45,
          "name": "A2",
          "ticks": 114816,
          "time": 137.99986199999998,
          "velocity": 0.7874015748031497
        },
        {
          "duration": 0.11538449999997624,
          "durationTicks": 96,
          "midi": 43,
          "name": "G2",
          "ticks": 115104,
          "time": 138.3460155,
          "velocity": 0.7874015748031497
        },
        {
          "duration": 0.46153800000001866,
          "durationTicks": 384,
          "midi": 40,
          "name": "E2",
          "ticks": 115200,
          "time": 138.46139999999997,
          "velocity": 0.7874015748031497
        },
        {
          "duration": 0.46153799999999023,
          "durationTicks": 384,
          "midi": 40,
          "name": "E2",
          "ticks": 115584,
          "time": 138.922938,
          "velocity": 0.7874015748031497
        },
        {
          "duration": 0.346153500000014,
          "durationTicks": 288,
          "midi": 40,
          "name": "E2",
          "ticks": 115968,
          "time": 139.38447599999998,
          "velocity": 0.7874015748031497
        },
        {
          "duration": 0.11538449999997624,
          "durationTicks": 96,
          "midi": 43,
          "name": "G2",
          "ticks": 116256,
          "time": 139.7306295,
          "velocity": 0.7874015748031497
        },
        {
          "duration": 0.346153500000014,
          "durationTicks": 288,
          "midi": 45,
          "name": "A2",
          "ticks": 116352,
          "time": 139.84601399999997,
          "velocity": 0.7874015748031497
        },
        {
          "duration": 0.11538450000000466,
          "durationTicks": 96,
          "midi": 43,
          "name": "G2",
          "ticks": 116640,
          "time": 140.19216749999998,
          "velocity": 0.7874015748031497
        },
        {
          "duration": 0.46153799999999023,
          "durationTicks": 384,
          "midi": 40,
          "name": "E2",
          "ticks": 116736,
          "time": 140.307552,
          "velocity": 0.7874015748031497
        },
        {
          "duration": 0.46153799999999023,
          "durationTicks": 384,
          "midi": 40,
          "name": "E2",
          "ticks": 117120,
          "time": 140.76908999999998,
          "velocity": 0.7874015748031497
        },
        {
          "duration": 0.346153500000014,
          "durationTicks": 288,
          "midi": 40,
          "name": "E2",
          "ticks": 117504,
          "time": 141.23062799999997,
          "velocity": 0.7874015748031497
        },
        {
          "duration": 0.11538450000000466,
          "durationTicks": 96,
          "midi": 43,
          "name": "G2",
          "ticks": 117792,
          "time": 141.57678149999998,
          "velocity": 0.7874015748031497
        },
        {
          "duration": 0.346153500000014,
          "durationTicks": 288,
          "midi": 45,
          "name": "A2",
          "ticks": 117888,
          "time": 141.692166,
          "velocity": 0.7874015748031497
        },
        {
          "duration": 0.11538449999997624,
          "durationTicks": 96,
          "midi": 43,
          "name": "G2",
          "ticks": 118176,
          "time": 142.0383195,
          "velocity": 0.7874015748031497
        },
        {
          "duration": 0.46153799999999023,
          "durationTicks": 384,
          "midi": 40,
          "name": "E2",
          "ticks": 118272,
          "time": 142.15370399999998,
          "velocity": 0.7874015748031497
        },
        {
          "duration": 0.46153800000001866,
          "durationTicks": 384,
          "midi": 40,
          "name": "E2",
          "ticks": 118656,
          "time": 142.61524199999997,
          "velocity": 0.7874015748031497
        },
        {
          "duration": 0.346153500000014,
          "durationTicks": 288,
          "midi": 40,
          "name": "E2",
          "ticks": 119040,
          "time": 143.07677999999999,
          "velocity": 0.7874015748031497
        },
        {
          "duration": 0.11538449999997624,
          "durationTicks": 96,
          "midi": 43,
          "name": "G2",
          "ticks": 119328,
          "time": 143.4229335,
          "velocity": 0.7874015748031497
        },
        {
          "duration": 0.346153500000014,
          "durationTicks": 288,
          "midi": 45,
          "name": "A2",
          "ticks": 119424,
          "time": 143.53831799999998,
          "velocity": 0.7874015748031497
        },
        {
          "duration": 0.11538449999997624,
          "durationTicks": 96,
          "midi": 43,
          "name": "G2",
          "ticks": 119712,
          "time": 143.8844715,
          "velocity": 0.7874015748031497
        },
        {
          "duration": 0.46153800000001866,
          "durationTicks": 384,
          "midi": 40,
          "name": "E2",
          "ticks": 119808,
          "time": 143.99985599999997,
          "velocity": 0.7874015748031497
        },
        {
          "duration": 0.46153799999999023,
          "durationTicks": 384,
          "midi": 40,
          "name": "E2",
          "ticks": 120192,
          "time": 144.46139399999998,
          "velocity": 0.7874015748031497
        },
        {
          "duration": 0.346153500000014,
          "durationTicks": 288,
          "midi": 40,
          "name": "E2",
          "ticks": 120576,
          "time": 144.92293199999997,
          "velocity": 0.7874015748031497
        },
        {
          "duration": 0.11538449999997624,
          "durationTicks": 96,
          "midi": 43,
          "name": "G2",
          "ticks": 120864,
          "time": 145.2690855,
          "velocity": 0.7874015748031497
        },
        {
          "duration": 0.346153500000014,
          "durationTicks": 288,
          "midi": 45,
          "name": "A2",
          "ticks": 120960,
          "time": 145.38446999999996,
          "velocity": 0.7874015748031497
        },
        {
          "duration": 0.11538450000000466,
          "durationTicks": 96,
          "midi": 43,
          "name": "G2",
          "ticks": 121248,
          "time": 145.73062349999998,
          "velocity": 0.7874015748031497
        },
        {
          "duration": 0.46153799999999023,
          "durationTicks": 384,
          "midi": 40,
          "name": "E2",
          "ticks": 121344,
          "time": 145.84600799999998,
          "velocity": 0.7874015748031497
        },
        {
          "duration": 0.46153800000001866,
          "durationTicks": 384,
          "midi": 40,
          "name": "E2",
          "ticks": 121728,
          "time": 146.30754599999997,
          "velocity": 0.7874015748031497
        },
        {
          "duration": 0.34615349999998557,
          "durationTicks": 288,
          "midi": 40,
          "name": "E2",
          "ticks": 122112,
          "time": 146.769084,
          "velocity": 0.7874015748031497
        },
        {
          "duration": 0.11538450000000466,
          "durationTicks": 96,
          "midi": 43,
          "name": "G2",
          "ticks": 122400,
          "time": 147.11523749999998,
          "velocity": 0.7874015748031497
        },
        {
          "duration": 0.346153500000014,
          "durationTicks": 288,
          "midi": 45,
          "name": "A2",
          "ticks": 122496,
          "time": 147.23062199999998,
          "velocity": 0.7874015748031497
        },
        {
          "duration": 0.11538449999997624,
          "durationTicks": 96,
          "midi": 43,
          "name": "G2",
          "ticks": 122784,
          "time": 147.5767755,
          "velocity": 0.7874015748031497
        },
        {
          "duration": 0.46153800000001866,
          "durationTicks": 384,
          "midi": 40,
          "name": "E2",
          "ticks": 122880,
          "time": 147.69215999999997,
          "velocity": 0.7874015748031497
        },
        {
          "duration": 0.46153799999999023,
          "durationTicks": 384,
          "midi": 40,
          "name": "E2",
          "ticks": 123264,
          "time": 148.153698,
          "velocity": 0.7874015748031497
        },
        {
          "duration": 0.346153500000014,
          "durationTicks": 288,
          "midi": 40,
          "name": "E2",
          "ticks": 123648,
          "time": 148.61523599999998,
          "velocity": 0.7874015748031497
        },
        {
          "duration": 0.11538449999997624,
          "durationTicks": 96,
          "midi": 43,
          "name": "G2",
          "ticks": 123936,
          "time": 148.9613895,
          "velocity": 0.7874015748031497
        },
        {
          "duration": 0.346153500000014,
          "durationTicks": 288,
          "midi": 45,
          "name": "A2",
          "ticks": 124032,
          "time": 149.07677399999997,
          "velocity": 0.7874015748031497
        },
        {
          "duration": 0.11538450000000466,
          "durationTicks": 96,
          "midi": 43,
          "name": "G2",
          "ticks": 124320,
          "time": 149.4229275,
          "velocity": 0.7874015748031497
        },
        {
          "duration": 0.46153799999999023,
          "durationTicks": 384,
          "midi": 40,
          "name": "E2",
          "ticks": 124416,
          "time": 149.538312,
          "velocity": 0.7874015748031497
        },
        {
          "duration": 0.46153799999999023,
          "durationTicks": 384,
          "midi": 40,
          "name": "E2",
          "ticks": 124800,
          "time": 149.99984999999998,
          "velocity": 0.7874015748031497
        },
        {
          "duration": 0.346153500000014,
          "durationTicks": 288,
          "midi": 40,
          "name": "E2",
          "ticks": 125184,
          "time": 150.46138799999997,
          "velocity": 0.7874015748031497
        },
        {
          "duration": 0.11538450000000466,
          "durationTicks": 96,
          "midi": 43,
          "name": "G2",
          "ticks": 125472,
          "time": 150.80754149999999,
          "velocity": 0.7874015748031497
        },
        {
          "duration": 0.34615349999998557,
          "durationTicks": 288,
          "midi": 45,
          "name": "A2",
          "ticks": 125568,
          "time": 150.922926,
          "velocity": 0.7874015748031497
        },
        {
          "duration": 0.11538450000000466,
          "durationTicks": 96,
          "midi": 43,
          "name": "G2",
          "ticks": 125856,
          "time": 151.26907949999998,
          "velocity": 0.7874015748031497
        },
        {
          "duration": 0.46153799999999023,
          "durationTicks": 384,
          "midi": 40,
          "name": "E2",
          "ticks": 125952,
          "time": 151.38446399999998,
          "velocity": 0.7874015748031497
        },
        {
          "duration": 0.46153800000001866,
          "durationTicks": 384,
          "midi": 40,
          "name": "E2",
          "ticks": 126336,
          "time": 151.84600199999997,
          "velocity": 0.7874015748031497
        },
        {
          "duration": 0.34615349999998557,
          "durationTicks": 288,
          "midi": 40,
          "name": "E2",
          "ticks": 126720,
          "time": 152.30754,
          "velocity": 0.7874015748031497
        },
        {
          "duration": 0.11538450000000466,
          "durationTicks": 96,
          "midi": 43,
          "name": "G2",
          "ticks": 127008,
          "time": 152.65369349999997,
          "velocity": 0.7874015748031497
        },
        {
          "duration": 0.346153500000014,
          "durationTicks": 288,
          "midi": 45,
          "name": "A2",
          "ticks": 127104,
          "time": 152.76907799999998,
          "velocity": 0.7874015748031497
        },
        {
          "duration": 0.11538449999997624,
          "durationTicks": 96,
          "midi": 43,
          "name": "G2",
          "ticks": 127392,
          "time": 153.1152315,
          "velocity": 0.7874015748031497
        },
        {
          "duration": 0.46153800000001866,
          "durationTicks": 384,
          "midi": 40,
          "name": "E2",
          "ticks": 127488,
          "time": 153.23061599999997,
          "velocity": 0.7874015748031497
        },
        {
          "duration": 0.46153799999999023,
          "durationTicks": 384,
          "midi": 40,
          "name": "E2",
          "ticks": 127872,
          "time": 153.692154,
          "velocity": 0.7874015748031497
        },
        {
          "duration": 0.346153500000014,
          "durationTicks": 288,
          "midi": 40,
          "name": "E2",
          "ticks": 128256,
          "time": 154.15369199999998,
          "velocity": 0.7874015748031497
        },
        {
          "duration": 0.11538449999997624,
          "durationTicks": 96,
          "midi": 43,
          "name": "G2",
          "ticks": 128544,
          "time": 154.4998455,
          "velocity": 0.7874015748031497
        },
        {
          "duration": 0.346153500000014,
          "durationTicks": 288,
          "midi": 45,
          "name": "A2",
          "ticks": 128640,
          "time": 154.61522999999997,
          "velocity": 0.7874015748031497
        },
        {
          "duration": 0.11538450000000466,
          "durationTicks": 96,
          "midi": 43,
          "name": "G2",
          "ticks": 128928,
          "time": 154.96138349999998,
          "velocity": 0.7874015748031497
        },
        {
          "duration": 0.46153799999999023,
          "durationTicks": 384,
          "midi": 40,
          "name": "E2",
          "ticks": 129024,
          "time": 155.076768,
          "velocity": 0.7874015748031497
        },
        {
          "duration": 0.46153799999999023,
          "durationTicks": 384,
          "midi": 40,
          "name": "E2",
          "ticks": 129408,
          "time": 155.53830599999998,
          "velocity": 0.7874015748031497
        },
        {
          "duration": 0.346153500000014,
          "durationTicks": 288,
          "midi": 40,
          "name": "E2",
          "ticks": 129792,
          "time": 155.99984399999997,
          "velocity": 0.7874015748031497
        },
        {
          "duration": 0.11538450000000466,
          "durationTicks": 96,
          "midi": 43,
          "name": "G2",
          "ticks": 130080,
          "time": 156.34599749999998,
          "velocity": 0.7874015748031497
        },
        {
          "duration": 0.34615349999998557,
          "durationTicks": 288,
          "midi": 45,
          "name": "A2",
          "ticks": 130176,
          "time": 156.461382,
          "velocity": 0.7874015748031497
        },
        {
          "duration": 0.11538450000000466,
          "durationTicks": 96,
          "midi": 43,
          "name": "G2",
          "ticks": 130464,
          "time": 156.80753549999997,
          "velocity": 0.7874015748031497
        },
        {
          "duration": 0.46153799999999023,
          "durationTicks": 384,
          "midi": 40,
          "name": "E2",
          "ticks": 130560,
          "time": 156.92291999999998,
          "velocity": 0.7874015748031497
        },
        {
          "duration": 0.46153800000001866,
          "durationTicks": 384,
          "midi": 40,
          "name": "E2",
          "ticks": 130944,
          "time": 157.38445799999997,
          "velocity": 0.7874015748031497
        },
        {
          "duration": 0.34615349999998557,
          "durationTicks": 288,
          "midi": 40,
          "name": "E2",
          "ticks": 131328,
          "time": 157.84599599999999,
          "velocity": 0.7874015748031497
        },
        {
          "duration": 0.11538450000000466,
          "durationTicks": 96,
          "midi": 43,
          "name": "G2",
          "ticks": 131616,
          "time": 158.19214949999997,
          "velocity": 0.7874015748031497
        },
        {
          "duration": 0.346153500000014,
          "durationTicks": 288,
          "midi": 45,
          "name": "A2",
          "ticks": 131712,
          "time": 158.30753399999998,
          "velocity": 0.7874015748031497
        },
        {
          "duration": 0.11538449999997624,
          "durationTicks": 96,
          "midi": 43,
          "name": "G2",
          "ticks": 132000,
          "time": 158.6536875,
          "velocity": 0.7874015748031497
        },
        {
          "duration": 0.46153800000001866,
          "durationTicks": 384,
          "midi": 40,
          "name": "E2",
          "ticks": 132096,
          "time": 158.76907199999997,
          "velocity": 0.7874015748031497
        },
        {
          "duration": 0.46153799999999023,
          "durationTicks": 384,
          "midi": 40,
          "name": "E2",
          "ticks": 132480,
          "time": 159.23060999999998,
          "velocity": 0.7874015748031497
        },
        {
          "duration": 0.346153500000014,
          "durationTicks": 288,
          "midi": 40,
          "name": "E2",
          "ticks": 132864,
          "time": 159.69214799999997,
          "velocity": 0.7874015748031497
        },
        {
          "duration": 0.11538450000000466,
          "durationTicks": 96,
          "midi": 43,
          "name": "G2",
          "ticks": 133152,
          "time": 160.0383015,
          "velocity": 0.7874015748031497
        },
        {
          "duration": 0.34615349999998557,
          "durationTicks": 288,
          "midi": 45,
          "name": "A2",
          "ticks": 133248,
          "time": 160.153686,
          "velocity": 0.7874015748031497
        },
        {
          "duration": 0.11538450000000466,
          "durationTicks": 96,
          "midi": 43,
          "name": "G2",
          "ticks": 133536,
          "time": 160.49983949999998,
          "velocity": 0.7874015748031497
        },
        {
          "duration": 0.15384599999998727,
          "durationTicks": 128,
          "midi": 40,
          "name": "E2",
          "ticks": 133632,
          "time": 160.61522399999998,
          "velocity": 0.7874015748031497
        },
        {
          "duration": 0.1538460000000157,
          "durationTicks": 128,
          "midi": 40,
          "name": "E2",
          "ticks": 133760,
          "time": 160.76906999999997,
          "velocity": 0.7874015748031497
        },
        {
          "duration": 0.15384599999998727,
          "durationTicks": 128,
          "midi": 40,
          "name": "E2",
          "ticks": 133888,
          "time": 160.922916,
          "velocity": 0.7874015748031497
        },
        {
          "duration": 0.1538460000000157,
          "durationTicks": 128,
          "midi": 40,
          "name": "E2",
          "ticks": 134016,
          "time": 161.07676199999997,
          "velocity": 0.7874015748031497
        },
        {
          "duration": 0.15384599999998727,
          "durationTicks": 128,
          "midi": 40,
          "name": "E2",
          "ticks": 134144,
          "time": 161.230608,
          "velocity": 0.7874015748031497
        },
        {
          "duration": 0.1538460000000157,
          "durationTicks": 128,
          "midi": 40,
          "name": "E2",
          "ticks": 134272,
          "time": 161.38445399999998,
          "velocity": 0.7874015748031497
        },
        {
          "duration": 0.15384599999998727,
          "durationTicks": 128,
          "midi": 40,
          "name": "E2",
          "ticks": 134400,
          "time": 161.5383,
          "velocity": 0.7874015748031497
        },
        {
          "duration": 0.15384599999998727,
          "durationTicks": 128,
          "midi": 40,
          "name": "E2",
          "ticks": 134528,
          "time": 161.69214599999998,
          "velocity": 0.7874015748031497
        },
        {
          "duration": 0.1538460000000157,
          "durationTicks": 128,
          "midi": 40,
          "name": "E2",
          "ticks": 134656,
          "time": 161.84599199999997,
          "velocity": 0.7874015748031497
        },
        {
          "duration": 0.15384599999998727,
          "durationTicks": 128,
          "midi": 40,
          "name": "E2",
          "ticks": 134784,
          "time": 161.99983799999998,
          "velocity": 0.7874015748031497
        },
        {
          "duration": 0.1538460000000157,
          "durationTicks": 128,
          "midi": 40,
          "name": "E2",
          "ticks": 134912,
          "time": 162.15368399999997,
          "velocity": 0.7874015748031497
        },
        {
          "duration": 0.15384599999998727,
          "durationTicks": 128,
          "midi": 40,
          "name": "E2",
          "ticks": 135040,
          "time": 162.30752999999999,
          "velocity": 0.7874015748031497
        },
        {
          "duration": 0.1538460000000157,
          "durationTicks": 128,
          "midi": 52,
          "name": "E3",
          "ticks": 135168,
          "time": 162.46137599999997,
          "velocity": 0.7874015748031497
        },
        {
          "duration": 0.15384599999998727,
          "durationTicks": 128,
          "midi": 52,
          "name": "E3",
          "ticks": 135296,
          "time": 162.615222,
          "velocity": 0.7874015748031497
        },
        {
          "duration": 0.1538460000000157,
          "durationTicks": 128,
          "midi": 52,
          "name": "E3",
          "ticks": 135424,
          "time": 162.76906799999998,
          "velocity": 0.7874015748031497
        },
        {
          "duration": 0.15384599999998727,
          "durationTicks": 128,
          "midi": 52,
          "name": "E3",
          "ticks": 135552,
          "time": 162.922914,
          "velocity": 0.7874015748031497
        },
        {
          "duration": 0.15384599999998727,
          "durationTicks": 128,
          "midi": 52,
          "name": "E3",
          "ticks": 135680,
          "time": 163.07675999999998,
          "velocity": 0.7874015748031497
        },
        {
          "duration": 0.1538460000000157,
          "durationTicks": 128,
          "midi": 52,
          "name": "E3",
          "ticks": 135808,
          "time": 163.23060599999997,
          "velocity": 0.7874015748031497
        },
        {
          "duration": 0.15384599999998727,
          "durationTicks": 128,
          "midi": 52,
          "name": "E3",
          "ticks": 135936,
          "time": 163.38445199999998,
          "velocity": 0.7874015748031497
        },
        {
          "duration": 0.1538460000000157,
          "durationTicks": 128,
          "midi": 52,
          "name": "E3",
          "ticks": 136064,
          "time": 163.53829799999997,
          "velocity": 0.7874015748031497
        },
        {
          "duration": 0.15384599999998727,
          "durationTicks": 128,
          "midi": 52,
          "name": "E3",
          "ticks": 136192,
          "time": 163.69214399999998,
          "velocity": 0.7874015748031497
        },
        {
          "duration": 0.1538460000000157,
          "durationTicks": 128,
          "midi": 52,
          "name": "E3",
          "ticks": 136320,
          "time": 163.84598999999997,
          "velocity": 0.7874015748031497
        },
        {
          "duration": 0.15384599999998727,
          "durationTicks": 128,
          "midi": 52,
          "name": "E3",
          "ticks": 136448,
          "time": 163.999836,
          "velocity": 0.7874015748031497
        },
        {
          "duration": 0.1538460000000157,
          "durationTicks": 128,
          "midi": 52,
          "name": "E3",
          "ticks": 136576,
          "time": 164.15368199999998,
          "velocity": 0.7874015748031497
        },
        {
          "duration": 0.46153799999999023,
          "durationTicks": 384,
          "midi": 35,
          "name": "B1",
          "ticks": 136704,
          "time": 164.307528,
          "velocity": 0.7874015748031497
        },
        {
          "duration": 0.46153799999999023,
          "durationTicks": 384,
          "midi": 35,
          "name": "B1",
          "ticks": 137088,
          "time": 164.76906599999998,
          "velocity": 0.7874015748031497
        },
        {
          "duration": 0.30769200000000296,
          "durationTicks": 256,
          "midi": 35,
          "name": "B1",
          "ticks": 137472,
          "time": 165.23060399999997,
          "velocity": 0.7874015748031497
        },
        {
          "duration": 0.1538460000000157,
          "durationTicks": 128,
          "midi": 35,
          "name": "B1",
          "ticks": 137728,
          "time": 165.53829599999997,
          "velocity": 0.7874015748031497
        },
        {
          "duration": 0.30769199999997454,
          "durationTicks": 256,
          "midi": 35,
          "name": "B1",
          "ticks": 137856,
          "time": 165.692142,
          "velocity": 0.7874015748031497
        },
        {
          "duration": 0.1538460000000157,
          "durationTicks": 128,
          "midi": 35,
          "name": "B1",
          "ticks": 138112,
          "time": 165.99983399999996,
          "velocity": 0.7874015748031497
        },
        {
          "duration": 0.30769200000000296,
          "durationTicks": 256,
          "midi": 35,
          "name": "B1",
          "ticks": 138240,
          "time": 166.15367999999998,
          "velocity": 0.7874015748031497
        },
        {
          "duration": 0.15384599999998727,
          "durationTicks": 128,
          "midi": 35,
          "name": "B1",
          "ticks": 138496,
          "time": 166.46137199999998,
          "velocity": 0.7874015748031497
        },
        {
          "duration": 0.30769200000000296,
          "durationTicks": 256,
          "midi": 35,
          "name": "B1",
          "ticks": 138624,
          "time": 166.61521799999997,
          "velocity": 0.7874015748031497
        },
        {
          "duration": 0.1538460000000157,
          "durationTicks": 128,
          "midi": 35,
          "name": "B1",
          "ticks": 138880,
          "time": 166.92290999999997,
          "velocity": 0.7874015748031497
        },
        {
          "duration": 0.30769199999997454,
          "durationTicks": 256,
          "midi": 35,
          "name": "B1",
          "ticks": 139008,
          "time": 167.076756,
          "velocity": 0.7874015748031497
        },
        {
          "duration": 0.1538460000000157,
          "durationTicks": 128,
          "midi": 40,
          "name": "E2",
          "ticks": 139248,
          "time": 167.36521724999997,
          "velocity": 0.7874015748031497
        },
        {
          "duration": 0.26923049999999193,
          "durationTicks": 224,
          "midi": 40,
          "name": "E2",
          "ticks": 139392,
          "time": 167.53829399999998,
          "velocity": 0.7874015748031497
        },
        {
          "duration": 0.173076750000007,
          "durationTicks": 144,
          "midi": 40,
          "name": "E2",
          "ticks": 139632,
          "time": 167.82675524999996,
          "velocity": 0.7874015748031497
        },
        {
          "duration": 0.46153800000001866,
          "durationTicks": 384,
          "midi": 35,
          "name": "B1",
          "ticks": 139776,
          "time": 167.99983199999997,
          "velocity": 0.7874015748031497
        },
        {
          "duration": 0.46153799999999023,
          "durationTicks": 384,
          "midi": 35,
          "name": "B1",
          "ticks": 140160,
          "time": 168.46137,
          "velocity": 0.7874015748031497
        },
        {
          "duration": 0.30769200000000296,
          "durationTicks": 256,
          "midi": 35,
          "name": "B1",
          "ticks": 140544,
          "time": 168.92290799999998,
          "velocity": 0.7874015748031497
        },
        {
          "duration": 0.15384599999998727,
          "durationTicks": 128,
          "midi": 35,
          "name": "B1",
          "ticks": 140800,
          "time": 169.23059999999998,
          "velocity": 0.7874015748031497
        },
        {
          "duration": 0.30769200000000296,
          "durationTicks": 256,
          "midi": 35,
          "name": "B1",
          "ticks": 140928,
          "time": 169.38444599999997,
          "velocity": 0.7874015748031497
        },
        {
          "duration": 0.1538460000000157,
          "durationTicks": 128,
          "midi": 35,
          "name": "B1",
          "ticks": 141184,
          "time": 169.69213799999997,
          "velocity": 0.7874015748031497
        },
        {
          "duration": 0.30769199999997454,
          "durationTicks": 256,
          "midi": 35,
          "name": "B1",
          "ticks": 141312,
          "time": 169.845984,
          "velocity": 0.7874015748031497
        },
        {
          "duration": 0.1538460000000157,
          "durationTicks": 128,
          "midi": 35,
          "name": "B1",
          "ticks": 141568,
          "time": 170.15367599999996,
          "velocity": 0.7874015748031497
        },
        {
          "duration": 0.30769200000000296,
          "durationTicks": 256,
          "midi": 35,
          "name": "B1",
          "ticks": 141696,
          "time": 170.30752199999998,
          "velocity": 0.7874015748031497
        },
        {
          "duration": 0.15384599999998727,
          "durationTicks": 128,
          "midi": 35,
          "name": "B1",
          "ticks": 141952,
          "time": 170.61521399999998,
          "velocity": 0.7874015748031497
        },
        {
          "duration": 0.30769200000000296,
          "durationTicks": 256,
          "midi": 35,
          "name": "B1",
          "ticks": 142080,
          "time": 170.76905999999997,
          "velocity": 0.7874015748031497
        },
        {
          "duration": 0.15384599999998727,
          "durationTicks": 128,
          "midi": 40,
          "name": "E2",
          "ticks": 142320,
          "time": 171.05752124999998,
          "velocity": 0.7874015748031497
        },
        {
          "duration": 0.26923049999999193,
          "durationTicks": 224,
          "midi": 40,
          "name": "E2",
          "ticks": 142464,
          "time": 171.230598,
          "velocity": 0.7874015748031497
        },
        {
          "duration": 0.16346137499999713,
          "durationTicks": 136,
          "midi": 40,
          "name": "E2",
          "ticks": 142704,
          "time": 171.51905924999997,
          "velocity": 0.7874015748031497
        },
        {
          "duration": 0.46153799999999023,
          "durationTicks": 384,
          "midi": 35,
          "name": "B1",
          "ticks": 142848,
          "time": 171.69213599999998,
          "velocity": 0.7874015748031497
        },
        {
          "duration": 0.46153800000001866,
          "durationTicks": 384,
          "midi": 35,
          "name": "B1",
          "ticks": 143232,
          "time": 172.15367399999997,
          "velocity": 0.7874015748031497
        },
        {
          "duration": 0.30769200000000296,
          "durationTicks": 256,
          "midi": 35,
          "name": "B1",
          "ticks": 143616,
          "time": 172.61521199999999,
          "velocity": 0.7874015748031497
        },
        {
          "duration": 0.15384599999998727,
          "durationTicks": 128,
          "midi": 35,
          "name": "B1",
          "ticks": 143872,
          "time": 172.922904,
          "velocity": 0.7874015748031497
        },
        {
          "duration": 0.30769200000000296,
          "durationTicks": 256,
          "midi": 35,
          "name": "B1",
          "ticks": 144000,
          "time": 173.07674999999998,
          "velocity": 0.7874015748031497
        },
        {
          "duration": 0.15384599999998727,
          "durationTicks": 128,
          "midi": 35,
          "name": "B1",
          "ticks": 144256,
          "time": 173.38444199999998,
          "velocity": 0.7874015748031497
        },
        {
          "duration": 0.30769200000000296,
          "durationTicks": 256,
          "midi": 35,
          "name": "B1",
          "ticks": 144384,
          "time": 173.53828799999997,
          "velocity": 0.7874015748031497
        },
        {
          "duration": 0.1538460000000157,
          "durationTicks": 128,
          "midi": 35,
          "name": "B1",
          "ticks": 144640,
          "time": 173.84597999999997,
          "velocity": 0.7874015748031497
        },
        {
          "duration": 0.30769200000000296,
          "durationTicks": 256,
          "midi": 35,
          "name": "B1",
          "ticks": 144768,
          "time": 173.99982599999998,
          "velocity": 0.7874015748031497
        },
        {
          "duration": 0.15384599999998727,
          "durationTicks": 128,
          "midi": 35,
          "name": "B1",
          "ticks": 145024,
          "time": 174.307518,
          "velocity": 0.7874015748031497
        },
        {
          "duration": 0.30769200000000296,
          "durationTicks": 256,
          "midi": 35,
          "name": "B1",
          "ticks": 145152,
          "time": 174.46136399999997,
          "velocity": 0.7874015748031497
        },
        {
          "duration": 0.15384599999998727,
          "durationTicks": 128,
          "midi": 40,
          "name": "E2",
          "ticks": 145392,
          "time": 174.74982525,
          "velocity": 0.7874015748031497
        },
        {
          "duration": 0.26923050000002036,
          "durationTicks": 224,
          "midi": 40,
          "name": "E2",
          "ticks": 145536,
          "time": 174.92290199999997,
          "velocity": 0.7874015748031497
        },
        {
          "duration": 0.173076750000007,
          "durationTicks": 144,
          "midi": 40,
          "name": "E2",
          "ticks": 145776,
          "time": 175.21136324999998,
          "velocity": 0.7874015748031497
        },
        {
          "duration": 0.46153799999999023,
          "durationTicks": 384,
          "midi": 35,
          "name": "B1",
          "ticks": 145920,
          "time": 175.38443999999998,
          "velocity": 0.7874015748031497
        },
        {
          "duration": 0.46153799999999023,
          "durationTicks": 384,
          "midi": 35,
          "name": "B1",
          "ticks": 146304,
          "time": 175.84597799999997,
          "velocity": 0.7874015748031497
        },
        {
          "duration": 0.30769200000000296,
          "durationTicks": 256,
          "midi": 35,
          "name": "B1",
          "ticks": 146688,
          "time": 176.30751599999996,
          "velocity": 0.7874015748031497
        },
        {
          "duration": 0.1538460000000157,
          "durationTicks": 128,
          "midi": 35,
          "name": "B1",
          "ticks": 146944,
          "time": 176.61520799999997,
          "velocity": 0.7874015748031497
        },
        {
          "duration": 0.30769200000000296,
          "durationTicks": 256,
          "midi": 35,
          "name": "B1",
          "ticks": 147072,
          "time": 176.76905399999998,
          "velocity": 0.7874015748031497
        },
        {
          "duration": 0.15384599999998727,
          "durationTicks": 128,
          "midi": 35,
          "name": "B1",
          "ticks": 147328,
          "time": 177.07674599999999,
          "velocity": 0.7874015748031497
        },
        {
          "duration": 0.30769200000000296,
          "durationTicks": 256,
          "midi": 35,
          "name": "B1",
          "ticks": 147456,
          "time": 177.23059199999997,
          "velocity": 0.7874015748031497
        },
        {
          "duration": 0.15384599999998727,
          "durationTicks": 128,
          "midi": 35,
          "name": "B1",
          "ticks": 147712,
          "time": 177.53828399999998,
          "velocity": 0.7874015748031497
        },
        {
          "duration": 0.30769200000000296,
          "durationTicks": 256,
          "midi": 35,
          "name": "B1",
          "ticks": 147840,
          "time": 177.69212999999996,
          "velocity": 0.7874015748031497
        },
        {
          "duration": 0.1538460000000157,
          "durationTicks": 128,
          "midi": 35,
          "name": "B1",
          "ticks": 148096,
          "time": 177.99982199999997,
          "velocity": 0.7874015748031497
        },
        {
          "duration": 0.30769200000000296,
          "durationTicks": 256,
          "midi": 35,
          "name": "B1",
          "ticks": 148224,
          "time": 178.15366799999998,
          "velocity": 0.7874015748031497
        },
        {
          "duration": 0.1538460000000157,
          "durationTicks": 128,
          "midi": 40,
          "name": "E2",
          "ticks": 148464,
          "time": 178.44212924999997,
          "velocity": 0.7874015748031497
        },
        {
          "duration": 0.26923050000002036,
          "durationTicks": 224,
          "midi": 40,
          "name": "E2",
          "ticks": 148608,
          "time": 178.61520599999997,
          "velocity": 0.7874015748031497
        },
        {
          "duration": 0.17307674999997857,
          "durationTicks": 144,
          "midi": 40,
          "name": "E2",
          "ticks": 148848,
          "time": 178.90366724999998,
          "velocity": 0.7874015748031497
        },
        {
          "duration": 0.46153800000001866,
          "durationTicks": 384,
          "midi": 33,
          "name": "A1",
          "ticks": 148992,
          "time": 179.07674399999996,
          "velocity": 0.7874015748031497
        },
        {
          "duration": 0.46153799999999023,
          "durationTicks": 384,
          "midi": 33,
          "name": "A1",
          "ticks": 149376,
          "time": 179.53828199999998,
          "velocity": 0.7874015748031497
        },
        {
          "duration": 0.30769200000000296,
          "durationTicks": 256,
          "midi": 33,
          "name": "A1",
          "ticks": 149760,
          "time": 179.99981999999997,
          "velocity": 0.7874015748031497
        },
        {
          "duration": 0.15384599999998727,
          "durationTicks": 128,
          "midi": 33,
          "name": "A1",
          "ticks": 150016,
          "time": 180.30751199999997,
          "velocity": 0.7874015748031497
        },
        {
          "duration": 0.30769200000000296,
          "durationTicks": 256,
          "midi": 33,
          "name": "A1",
          "ticks": 150144,
          "time": 180.46135799999996,
          "velocity": 0.7874015748031497
        },
        {
          "duration": 0.1538460000000157,
          "durationTicks": 128,
          "midi": 33,
          "name": "A1",
          "ticks": 150400,
          "time": 180.76904999999996,
          "velocity": 0.7874015748031497
        },
        {
          "duration": 0.30769200000000296,
          "durationTicks": 256,
          "midi": 33,
          "name": "A1",
          "ticks": 150528,
          "time": 180.92289599999998,
          "velocity": 0.7874015748031497
        },
        {
          "duration": 0.15384599999998727,
          "durationTicks": 128,
          "midi": 33,
          "name": "A1",
          "ticks": 150784,
          "time": 181.23058799999998,
          "velocity": 0.7874015748031497
        },
        {
          "duration": 0.30769200000000296,
          "durationTicks": 256,
          "midi": 33,
          "name": "A1",
          "ticks": 150912,
          "time": 181.38443399999997,
          "velocity": 0.7874015748031497
        },
        {
          "duration": 0.15384599999998727,
          "durationTicks": 128,
          "midi": 33,
          "name": "A1",
          "ticks": 151168,
          "time": 181.69212599999997,
          "velocity": 0.7874015748031497
        },
        {
          "duration": 0.3076920000000314,
          "durationTicks": 256,
          "midi": 33,
          "name": "A1",
          "ticks": 151296,
          "time": 181.84597199999996,
          "velocity": 0.7874015748031497
        },
        {
          "duration": 0.15384599999998727,
          "durationTicks": 128,
          "midi": 38,
          "name": "D2",
          "ticks": 151536,
          "time": 182.13443324999997,
          "velocity": 0.7874015748031497
        },
        {
          "duration": 0.26923049999999193,
          "durationTicks": 224,
          "midi": 38,
          "name": "D2",
          "ticks": 151680,
          "time": 182.30750999999998,
          "velocity": 0.7874015748031497
        },
        {
          "duration": 0.15384599999998727,
          "durationTicks": 128,
          "midi": 38,
          "name": "D2",
          "ticks": 151920,
          "time": 182.59597125,
          "velocity": 0.7874015748031497
        },
        {
          "duration": 0.46153800000001866,
          "durationTicks": 384,
          "midi": 33,
          "name": "A1",
          "ticks": 152064,
          "time": 182.76904799999997,
          "velocity": 0.7874015748031497
        },
        {
          "duration": 0.46153799999999023,
          "durationTicks": 384,
          "midi": 33,
          "name": "A1",
          "ticks": 152448,
          "time": 183.230586,
          "velocity": 0.7874015748031497
        },
        {
          "duration": 0.30769200000000296,
          "durationTicks": 256,
          "midi": 33,
          "name": "A1",
          "ticks": 152832,
          "time": 183.69212399999998,
          "velocity": 0.7874015748031497
        },
        {
          "duration": 0.15384599999998727,
          "durationTicks": 128,
          "midi": 33,
          "name": "A1",
          "ticks": 153088,
          "time": 183.99981599999998,
          "velocity": 0.7874015748031497
        },
        {
          "duration": 0.30769200000000296,
          "durationTicks": 256,
          "midi": 33,
          "name": "A1",
          "ticks": 153216,
          "time": 184.15366199999997,
          "velocity": 0.7874015748031497
        },
        {
          "duration": 0.15384599999998727,
          "durationTicks": 128,
          "midi": 33,
          "name": "A1",
          "ticks": 153472,
          "time": 184.46135399999997,
          "velocity": 0.7874015748031497
        },
        {
          "duration": 0.3076920000000314,
          "durationTicks": 256,
          "midi": 33,
          "name": "A1",
          "ticks": 153600,
          "time": 184.61519999999996,
          "velocity": 0.7874015748031497
        },
        {
          "duration": 0.15384599999998727,
          "durationTicks": 128,
          "midi": 33,
          "name": "A1",
          "ticks": 153856,
          "time": 184.922892,
          "velocity": 0.7874015748031497
        },
        {
          "duration": 0.30769200000000296,
          "durationTicks": 256,
          "midi": 33,
          "name": "A1",
          "ticks": 153984,
          "time": 185.07673799999998,
          "velocity": 0.7874015748031497
        },
        {
          "duration": 0.15384599999998727,
          "durationTicks": 128,
          "midi": 33,
          "name": "A1",
          "ticks": 154240,
          "time": 185.38442999999998,
          "velocity": 0.7874015748031497
        },
        {
          "duration": 0.30769200000000296,
          "durationTicks": 256,
          "midi": 33,
          "name": "A1",
          "ticks": 154368,
          "time": 185.53827599999997,
          "velocity": 0.7874015748031497
        },
        {
          "duration": 0.15384599999998727,
          "durationTicks": 128,
          "midi": 38,
          "name": "D2",
          "ticks": 154608,
          "time": 185.82673724999998,
          "velocity": 0.7874015748031497
        },
        {
          "duration": 0.26923049999999193,
          "durationTicks": 224,
          "midi": 38,
          "name": "D2",
          "ticks": 154752,
          "time": 185.999814,
          "velocity": 0.7874015748031497
        },
        {
          "duration": 0.15384599999998727,
          "durationTicks": 128,
          "midi": 38,
          "name": "D2",
          "ticks": 154992,
          "time": 186.28827524999997,
          "velocity": 0.7874015748031497
        },
        {
          "duration": 0.46153799999999023,
          "durationTicks": 384,
          "midi": 40,
          "name": "E2",
          "ticks": 155136,
          "time": 186.46135199999998,
          "velocity": 0.7874015748031497
        },
        {
          "duration": 0.46153800000001866,
          "durationTicks": 384,
          "midi": 40,
          "name": "E2",
          "ticks": 155520,
          "time": 186.92288999999997,
          "velocity": 0.7874015748031497
        },
        {
          "duration": 0.34615349999998557,
          "durationTicks": 288,
          "midi": 40,
          "name": "E2",
          "ticks": 155904,
          "time": 187.38442799999999,
          "velocity": 0.7874015748031497
        },
        {
          "duration": 0.11538450000000466,
          "durationTicks": 96,
          "midi": 43,
          "name": "G2",
          "ticks": 156192,
          "time": 187.73058149999997,
          "velocity": 0.7874015748031497
        },
        {
          "duration": 0.346153500000014,
          "durationTicks": 288,
          "midi": 45,
          "name": "A2",
          "ticks": 156288,
          "time": 187.84596599999998,
          "velocity": 0.7874015748031497
        },
        {
          "duration": 0.11538449999997624,
          "durationTicks": 96,
          "midi": 43,
          "name": "G2",
          "ticks": 156576,
          "time": 188.1921195,
          "velocity": 0.7874015748031497
        },
        {
          "duration": 0.46153800000001866,
          "durationTicks": 384,
          "midi": 40,
          "name": "E2",
          "ticks": 156672,
          "time": 188.30750399999997,
          "velocity": 0.7874015748031497
        },
        {
          "duration": 0.46153799999999023,
          "durationTicks": 384,
          "midi": 40,
          "name": "E2",
          "ticks": 157056,
          "time": 188.76904199999998,
          "velocity": 0.7874015748031497
        },
        {
          "duration": 0.346153500000014,
          "durationTicks": 288,
          "midi": 40,
          "name": "E2",
          "ticks": 157440,
          "time": 189.23057999999997,
          "velocity": 0.7874015748031497
        },
        {
          "duration": 0.11538449999997624,
          "durationTicks": 96,
          "midi": 43,
          "name": "G2",
          "ticks": 157728,
          "time": 189.5767335,
          "velocity": 0.7874015748031497
        },
        {
          "duration": 0.346153500000014,
          "durationTicks": 288,
          "midi": 45,
          "name": "A2",
          "ticks": 157824,
          "time": 189.69211799999997,
          "velocity": 0.7874015748031497
        },
        {
          "duration": 0.11538450000000466,
          "durationTicks": 96,
          "midi": 43,
          "name": "G2",
          "ticks": 158112,
          "time": 190.03827149999998,
          "velocity": 0.7874015748031497
        },
        {
          "duration": 0.46153799999999023,
          "durationTicks": 384,
          "midi": 40,
          "name": "E2",
          "ticks": 158208,
          "time": 190.15365599999998,
          "velocity": 0.7874015748031497
        },
        {
          "duration": 0.46153800000001866,
          "durationTicks": 384,
          "midi": 40,
          "name": "E2",
          "ticks": 158592,
          "time": 190.61519399999997,
          "velocity": 0.7874015748031497
        },
        {
          "duration": 0.34615349999998557,
          "durationTicks": 288,
          "midi": 40,
          "name": "E2",
          "ticks": 158976,
          "time": 191.076732,
          "velocity": 0.7874015748031497
        },
        {
          "duration": 0.11538450000000466,
          "durationTicks": 96,
          "midi": 43,
          "name": "G2",
          "ticks": 159264,
          "time": 191.42288549999998,
          "velocity": 0.7874015748031497
        },
        {
          "duration": 0.34615349999998557,
          "durationTicks": 288,
          "midi": 45,
          "name": "A2",
          "ticks": 159360,
          "time": 191.53826999999998,
          "velocity": 0.7874015748031497
        },
        {
          "duration": 0.11538450000000466,
          "durationTicks": 96,
          "midi": 43,
          "name": "G2",
          "ticks": 159648,
          "time": 191.88442349999997,
          "velocity": 0.7874015748031497
        },
        {
          "duration": 0.46153800000001866,
          "durationTicks": 384,
          "midi": 40,
          "name": "E2",
          "ticks": 159744,
          "time": 191.99980799999997,
          "velocity": 0.7874015748031497
        },
        {
          "duration": 0.46153799999999023,
          "durationTicks": 384,
          "midi": 40,
          "name": "E2",
          "ticks": 160128,
          "time": 192.461346,
          "velocity": 0.7874015748031497
        },
        {
          "duration": 0.34615349999998557,
          "durationTicks": 288,
          "midi": 40,
          "name": "E2",
          "ticks": 160512,
          "time": 192.92288399999998,
          "velocity": 0.7874015748031497
        },
        {
          "duration": 0.11538450000000466,
          "durationTicks": 96,
          "midi": 43,
          "name": "G2",
          "ticks": 160800,
          "time": 193.26903749999997,
          "velocity": 0.7874015748031497
        },
        {
          "duration": 0.346153500000014,
          "durationTicks": 288,
          "midi": 45,
          "name": "A2",
          "ticks": 160896,
          "time": 193.38442199999997,
          "velocity": 0.7874015748031497
        },
        {
          "duration": 0.11538450000000466,
          "durationTicks": 96,
          "midi": 43,
          "name": "G2",
          "ticks": 161184,
          "time": 193.7305755,
          "velocity": 0.7874015748031497
        },
        {
          "duration": 0.46153799999999023,
          "durationTicks": 384,
          "midi": 40,
          "name": "E2",
          "ticks": 161280,
          "time": 193.84596,
          "velocity": 0.7874015748031497
        },
        {
          "duration": 0.46153799999999023,
          "durationTicks": 384,
          "midi": 40,
          "name": "E2",
          "ticks": 161664,
          "time": 194.30749799999998,
          "velocity": 0.7874015748031497
        },
        {
          "duration": 0.346153500000014,
          "durationTicks": 288,
          "midi": 40,
          "name": "E2",
          "ticks": 162048,
          "time": 194.76903599999997,
          "velocity": 0.7874015748031497
        },
        {
          "duration": 0.11538450000000466,
          "durationTicks": 96,
          "midi": 43,
          "name": "G2",
          "ticks": 162336,
          "time": 195.11518949999999,
          "velocity": 0.7874015748031497
        },
        {
          "duration": 0.34615349999998557,
          "durationTicks": 288,
          "midi": 45,
          "name": "A2",
          "ticks": 162432,
          "time": 195.230574,
          "velocity": 0.7874015748031497
        },
        {
          "duration": 0.11538450000000466,
          "durationTicks": 96,
          "midi": 43,
          "name": "G2",
          "ticks": 162720,
          "time": 195.57672749999998,
          "velocity": 0.7874015748031497
        },
        {
          "duration": 0.46153799999999023,
          "durationTicks": 384,
          "midi": 40,
          "name": "E2",
          "ticks": 162816,
          "time": 195.69211199999998,
          "velocity": 0.7874015748031497
        },
        {
          "duration": 0.46153800000001866,
          "durationTicks": 384,
          "midi": 40,
          "name": "E2",
          "ticks": 163200,
          "time": 196.15364999999997,
          "velocity": 0.7874015748031497
        },
        {
          "duration": 0.34615349999998557,
          "durationTicks": 288,
          "midi": 40,
          "name": "E2",
          "ticks": 163584,
          "time": 196.615188,
          "velocity": 0.7874015748031497
        },
        {
          "duration": 0.11538450000000466,
          "durationTicks": 96,
          "midi": 43,
          "name": "G2",
          "ticks": 163872,
          "time": 196.96134149999997,
          "velocity": 0.7874015748031497
        },
        {
          "duration": 0.346153500000014,
          "durationTicks": 288,
          "midi": 45,
          "name": "A2",
          "ticks": 163968,
          "time": 197.07672599999998,
          "velocity": 0.7874015748031497
        },
        {
          "duration": 0.11538449999997624,
          "durationTicks": 96,
          "midi": 43,
          "name": "G2",
          "ticks": 164256,
          "time": 197.4228795,
          "velocity": 0.7874015748031497
        },
        {
          "duration": 0.46153800000001866,
          "durationTicks": 384,
          "midi": 40,
          "name": "E2",
          "ticks": 164352,
          "time": 197.53826399999997,
          "velocity": 0.7874015748031497
        },
        {
          "duration": 0.46153799999999023,
          "durationTicks": 384,
          "midi": 40,
          "name": "E2",
          "ticks": 164736,
          "time": 197.999802,
          "velocity": 0.7874015748031497
        },
        {
          "duration": 0.346153500000014,
          "durationTicks": 288,
          "midi": 40,
          "name": "E2",
          "ticks": 165120,
          "time": 198.46133999999998,
          "velocity": 0.7874015748031497
        },
        {
          "duration": 0.11538449999997624,
          "durationTicks": 96,
          "midi": 43,
          "name": "G2",
          "ticks": 165408,
          "time": 198.8074935,
          "velocity": 0.7874015748031497
        },
        {
          "duration": 0.346153500000014,
          "durationTicks": 288,
          "midi": 45,
          "name": "A2",
          "ticks": 165504,
          "time": 198.92287799999997,
          "velocity": 0.7874015748031497
        },
        {
          "duration": 0.11538450000000466,
          "durationTicks": 96,
          "midi": 43,
          "name": "G2",
          "ticks": 165792,
          "time": 199.26903149999998,
          "velocity": 0.7874015748031497
        },
        {
          "duration": 0.46153799999999023,
          "durationTicks": 384,
          "midi": 40,
          "name": "E2",
          "ticks": 165888,
          "time": 199.384416,
          "velocity": 0.7874015748031497
        },
        {
          "duration": 0.46153799999999023,
          "durationTicks": 384,
          "midi": 40,
          "name": "E2",
          "ticks": 166272,
          "time": 199.84595399999998,
          "velocity": 0.7874015748031497
        },
        {
          "duration": 0.346153500000014,
          "durationTicks": 288,
          "midi": 40,
          "name": "E2",
          "ticks": 166656,
          "time": 200.30749199999997,
          "velocity": 0.7874015748031497
        },
        {
          "duration": 0.11538450000000466,
          "durationTicks": 96,
          "midi": 43,
          "name": "G2",
          "ticks": 166944,
          "time": 200.65364549999998,
          "velocity": 0.7874015748031497
        },
        {
          "duration": 0.34615349999998557,
          "durationTicks": 288,
          "midi": 45,
          "name": "A2",
          "ticks": 167040,
          "time": 200.76903,
          "velocity": 0.7874015748031497
        },
        {
          "duration": 0.11538450000000466,
          "durationTicks": 96,
          "midi": 43,
          "name": "G2",
          "ticks": 167328,
          "time": 201.11518349999997,
          "velocity": 0.7874015748031497
        },
        {
          "duration": 0.46153799999999023,
          "durationTicks": 384,
          "midi": 40,
          "name": "E2",
          "ticks": 167424,
          "time": 201.23056799999998,
          "velocity": 0.7874015748031497
        },
        {
          "duration": 0.46153800000001866,
          "durationTicks": 384,
          "midi": 40,
          "name": "E2",
          "ticks": 167808,
          "time": 201.69210599999997,
          "velocity": 0.7874015748031497
        },
        {
          "duration": 0.34615349999998557,
          "durationTicks": 288,
          "midi": 40,
          "name": "E2",
          "ticks": 168192,
          "time": 202.15364399999999,
          "velocity": 0.7874015748031497
        },
        {
          "duration": 0.11538450000000466,
          "durationTicks": 96,
          "midi": 43,
          "name": "G2",
          "ticks": 168480,
          "time": 202.49979749999997,
          "velocity": 0.7874015748031497
        },
        {
          "duration": 0.346153500000014,
          "durationTicks": 288,
          "midi": 45,
          "name": "A2",
          "ticks": 168576,
          "time": 202.61518199999998,
          "velocity": 0.7874015748031497
        },
        {
          "duration": 0.11538449999997624,
          "durationTicks": 96,
          "midi": 43,
          "name": "G2",
          "ticks": 168864,
          "time": 202.9613355,
          "velocity": 0.7874015748031497
        },
        {
          "duration": 0.46153800000001866,
          "durationTicks": 384,
          "midi": 40,
          "name": "E2",
          "ticks": 168960,
          "time": 203.07671999999997,
          "velocity": 0.7874015748031497
        },
        {
          "duration": 0.46153799999999023,
          "durationTicks": 384,
          "midi": 40,
          "name": "E2",
          "ticks": 169344,
          "time": 203.53825799999998,
          "velocity": 0.7874015748031497
        },
        {
          "duration": 0.346153500000014,
          "durationTicks": 288,
          "midi": 40,
          "name": "E2",
          "ticks": 169728,
          "time": 203.99979599999998,
          "velocity": 0.7874015748031497
        },
        {
          "duration": 0.11538449999997624,
          "durationTicks": 96,
          "midi": 43,
          "name": "G2",
          "ticks": 170016,
          "time": 204.3459495,
          "velocity": 0.7874015748031497
        },
        {
          "duration": 0.346153500000014,
          "durationTicks": 288,
          "midi": 45,
          "name": "A2",
          "ticks": 170112,
          "time": 204.46133399999997,
          "velocity": 0.7874015748031497
        },
        {
          "duration": 0.11538450000000466,
          "durationTicks": 96,
          "midi": 43,
          "name": "G2",
          "ticks": 170400,
          "time": 204.80748749999998,
          "velocity": 0.7874015748031497
        },
        {
          "duration": 0.46153799999999023,
          "durationTicks": 384,
          "midi": 40,
          "name": "E2",
          "ticks": 170496,
          "time": 204.92287199999998,
          "velocity": 0.7874015748031497
        },
        {
          "duration": 0.46153799999999023,
          "durationTicks": 384,
          "midi": 40,
          "name": "E2",
          "ticks": 170880,
          "time": 205.38440999999997,
          "velocity": 0.7874015748031497
        },
        {
          "duration": 0.346153500000014,
          "durationTicks": 288,
          "midi": 40,
          "name": "E2",
          "ticks": 171264,
          "time": 205.84594799999996,
          "velocity": 0.7874015748031497
        },
        {
          "duration": 0.11538450000000466,
          "durationTicks": 96,
          "midi": 43,
          "name": "G2",
          "ticks": 171552,
          "time": 206.19210149999998,
          "velocity": 0.7874015748031497
        },
        {
          "duration": 0.34615349999998557,
          "durationTicks": 288,
          "midi": 45,
          "name": "A2",
          "ticks": 171648,
          "time": 206.30748599999998,
          "velocity": 0.7874015748031497
        },
        {
          "duration": 0.11538450000000466,
          "durationTicks": 96,
          "midi": 43,
          "name": "G2",
          "ticks": 171936,
          "time": 206.65363949999997,
          "velocity": 0.7874015748031497
        },
        {
          "duration": 0.46153800000001866,
          "durationTicks": 384,
          "midi": 40,
          "name": "E2",
          "ticks": 172032,
          "time": 206.76902399999997,
          "velocity": 0.7874015748031497
        },
        {
          "duration": 0.46153799999999023,
          "durationTicks": 384,
          "midi": 40,
          "name": "E2",
          "ticks": 172416,
          "time": 207.230562,
          "velocity": 0.7874015748031497
        },
        {
          "duration": 0.34615349999998557,
          "durationTicks": 288,
          "midi": 40,
          "name": "E2",
          "ticks": 172800,
          "time": 207.69209999999998,
          "velocity": 0.7874015748031497
        },
        {
          "duration": 0.11538450000000466,
          "durationTicks": 96,
          "midi": 43,
          "name": "G2",
          "ticks": 173088,
          "time": 208.03825349999997,
          "velocity": 0.7874015748031497
        },
        {
          "duration": 0.346153500000014,
          "durationTicks": 288,
          "midi": 45,
          "name": "A2",
          "ticks": 173184,
          "time": 208.15363799999997,
          "velocity": 0.7874015748031497
        },
        {
          "duration": 0.11538450000000466,
          "durationTicks": 96,
          "midi": 43,
          "name": "G2",
          "ticks": 173472,
          "time": 208.4997915,
          "velocity": 0.7874015748031497
        },
        {
          "duration": 0.15384599999998727,
          "durationTicks": 128,
          "midi": 40,
          "name": "E2",
          "ticks": 173568,
          "time": 208.615176,
          "velocity": 0.7874015748031497
        },
        {
          "duration": 0.1538460000000157,
          "durationTicks": 128,
          "midi": 40,
          "name": "E2",
          "ticks": 173696,
          "time": 208.76902199999998,
          "velocity": 0.7874015748031497
        },
        {
          "duration": 0.15384599999998727,
          "durationTicks": 128,
          "midi": 40,
          "name": "E2",
          "ticks": 173824,
          "time": 208.922868,
          "velocity": 0.7874015748031497
        },
        {
          "duration": 0.15384599999998727,
          "durationTicks": 128,
          "midi": 40,
          "name": "E2",
          "ticks": 173952,
          "time": 209.07671399999998,
          "velocity": 0.7874015748031497
        },
        {
          "duration": 0.1538460000000157,
          "durationTicks": 128,
          "midi": 40,
          "name": "E2",
          "ticks": 174080,
          "time": 209.23055999999997,
          "velocity": 0.7874015748031497
        },
        {
          "duration": 0.15384599999998727,
          "durationTicks": 128,
          "midi": 40,
          "name": "E2",
          "ticks": 174208,
          "time": 209.38440599999998,
          "velocity": 0.7874015748031497
        },
        {
          "duration": 0.1538460000000157,
          "durationTicks": 128,
          "midi": 40,
          "name": "E2",
          "ticks": 174336,
          "time": 209.53825199999997,
          "velocity": 0.7874015748031497
        },
        {
          "duration": 0.15384599999998727,
          "durationTicks": 128,
          "midi": 40,
          "name": "E2",
          "ticks": 174464,
          "time": 209.692098,
          "velocity": 0.7874015748031497
        },
        {
          "duration": 0.1538460000000157,
          "durationTicks": 128,
          "midi": 40,
          "name": "E2",
          "ticks": 174592,
          "time": 209.84594399999997,
          "velocity": 0.7874015748031497
        },
        {
          "duration": 0.15384599999998727,
          "durationTicks": 128,
          "midi": 40,
          "name": "E2",
          "ticks": 174720,
          "time": 209.99979,
          "velocity": 0.7874015748031497
        },
        {
          "duration": 0.1538460000000157,
          "durationTicks": 128,
          "midi": 40,
          "name": "E2",
          "ticks": 174848,
          "time": 210.15363599999998,
          "velocity": 0.7874015748031497
        },
        {
          "duration": 0.15384599999998727,
          "durationTicks": 128,
          "midi": 40,
          "name": "E2",
          "ticks": 174976,
          "time": 210.307482,
          "velocity": 0.7874015748031497
        },
        {
          "duration": 0.15384599999998727,
          "durationTicks": 128,
          "midi": 40,
          "name": "E2",
          "ticks": 175104,
          "time": 210.46132799999998,
          "velocity": 0.7874015748031497
        },
        {
          "duration": 0.1538460000000157,
          "durationTicks": 128,
          "midi": 40,
          "name": "E2",
          "ticks": 175232,
          "time": 210.61517399999997,
          "velocity": 0.7874015748031497
        },
        {
          "duration": 0.15384599999998727,
          "durationTicks": 128,
          "midi": 40,
          "name": "E2",
          "ticks": 175360,
          "time": 210.76901999999998,
          "velocity": 0.7874015748031497
        },
        {
          "duration": 0.1538460000000157,
          "durationTicks": 128,
          "midi": 40,
          "name": "E2",
          "ticks": 175488,
          "time": 210.92286599999997,
          "velocity": 0.7874015748031497
        },
        {
          "duration": 0.15384599999998727,
          "durationTicks": 128,
          "midi": 40,
          "name": "E2",
          "ticks": 175616,
          "time": 211.076712,
          "velocity": 0.7874015748031497
        },
        {
          "duration": 0.1538460000000157,
          "durationTicks": 128,
          "midi": 40,
          "name": "E2",
          "ticks": 175744,
          "time": 211.23055799999997,
          "velocity": 0.7874015748031497
        },
        {
          "duration": 0.15384599999998727,
          "durationTicks": 128,
          "midi": 40,
          "name": "E2",
          "ticks": 175872,
          "time": 211.384404,
          "velocity": 0.7874015748031497
        },
        {
          "duration": 0.1538460000000157,
          "durationTicks": 128,
          "midi": 40,
          "name": "E2",
          "ticks": 176000,
          "time": 211.53824999999998,
          "velocity": 0.7874015748031497
        },
        {
          "duration": 0.15384599999998727,
          "durationTicks": 128,
          "midi": 40,
          "name": "E2",
          "ticks": 176128,
          "time": 211.692096,
          "velocity": 0.7874015748031497
        },
        {
          "duration": 0.15384599999998727,
          "durationTicks": 128,
          "midi": 40,
          "name": "E2",
          "ticks": 176256,
          "time": 211.84594199999998,
          "velocity": 0.7874015748031497
        },
        {
          "duration": 0.1538460000000157,
          "durationTicks": 128,
          "midi": 40,
          "name": "E2",
          "ticks": 176384,
          "time": 211.99978799999997,
          "velocity": 0.7874015748031497
        },
        {
          "duration": 0.15384599999998727,
          "durationTicks": 128,
          "midi": 40,
          "name": "E2",
          "ticks": 176512,
          "time": 212.15363399999998,
          "velocity": 0.7874015748031497
        },
        {
          "duration": 0.1538460000000157,
          "durationTicks": 128,
          "midi": 52,
          "name": "E3",
          "ticks": 176640,
          "time": 212.30747999999997,
          "velocity": 0.7874015748031497
        },
        {
          "duration": 0.15384599999998727,
          "durationTicks": 128,
          "midi": 52,
          "name": "E3",
          "ticks": 176768,
          "time": 212.46132599999999,
          "velocity": 0.7874015748031497
        },
        {
          "duration": 0.1538460000000157,
          "durationTicks": 128,
          "midi": 52,
          "name": "E3",
          "ticks": 176896,
          "time": 212.61517199999997,
          "velocity": 0.7874015748031497
        },
        {
          "duration": 0.15384599999998727,
          "durationTicks": 128,
          "midi": 52,
          "name": "E3",
          "ticks": 177024,
          "time": 212.769018,
          "velocity": 0.7874015748031497
        },
        {
          "duration": 0.1538460000000157,
          "durationTicks": 128,
          "midi": 52,
          "name": "E3",
          "ticks": 177152,
          "time": 212.92286399999998,
          "velocity": 0.7874015748031497
        },
        {
          "duration": 0.15384599999998727,
          "durationTicks": 128,
          "midi": 52,
          "name": "E3",
          "ticks": 177280,
          "time": 213.07671,
          "velocity": 0.7874015748031497
        },
        {
          "duration": 0.15384599999998727,
          "durationTicks": 128,
          "midi": 52,
          "name": "E3",
          "ticks": 177408,
          "time": 213.23055599999998,
          "velocity": 0.7874015748031497
        },
        {
          "duration": 0.1538460000000157,
          "durationTicks": 128,
          "midi": 52,
          "name": "E3",
          "ticks": 177536,
          "time": 213.38440199999997,
          "velocity": 0.7874015748031497
        },
        {
          "duration": 0.15384599999998727,
          "durationTicks": 128,
          "midi": 52,
          "name": "E3",
          "ticks": 177664,
          "time": 213.53824799999998,
          "velocity": 0.7874015748031497
        },
        {
          "duration": 0.1538460000000157,
          "durationTicks": 128,
          "midi": 52,
          "name": "E3",
          "ticks": 177792,
          "time": 213.69209399999997,
          "velocity": 0.7874015748031497
        },
        {
          "duration": 0.15384599999998727,
          "durationTicks": 128,
          "midi": 52,
          "name": "E3",
          "ticks": 177920,
          "time": 213.84593999999998,
          "velocity": 0.7874015748031497
        },
        {
          "duration": 0.1538460000000157,
          "durationTicks": 128,
          "midi": 52,
          "name": "E3",
          "ticks": 178048,
          "time": 213.99978599999997,
          "velocity": 0.7874015748031497
        },
        {
          "duration": 0.15384599999998727,
          "durationTicks": 128,
          "midi": 52,
          "name": "E3",
          "ticks": 178176,
          "time": 214.153632,
          "velocity": 0.7874015748031497
        },
        {
          "duration": 0.1538460000000157,
          "durationTicks": 128,
          "midi": 52,
          "name": "E3",
          "ticks": 178304,
          "time": 214.30747799999997,
          "velocity": 0.7874015748031497
        },
        {
          "duration": 0.15384599999998727,
          "durationTicks": 128,
          "midi": 52,
          "name": "E3",
          "ticks": 178432,
          "time": 214.461324,
          "velocity": 0.7874015748031497
        },
        {
          "duration": 0.15384599999998727,
          "durationTicks": 128,
          "midi": 52,
          "name": "E3",
          "ticks": 178560,
          "time": 214.61516999999998,
          "velocity": 0.7874015748031497
        },
        {
          "duration": 0.1538460000000157,
          "durationTicks": 128,
          "midi": 52,
          "name": "E3",
          "ticks": 178688,
          "time": 214.76901599999997,
          "velocity": 0.7874015748031497
        },
        {
          "duration": 0.15384599999998727,
          "durationTicks": 128,
          "midi": 52,
          "name": "E3",
          "ticks": 178816,
          "time": 214.92286199999998,
          "velocity": 0.7874015748031497
        },
        {
          "duration": 0.1538460000000157,
          "durationTicks": 128,
          "midi": 52,
          "name": "E3",
          "ticks": 178944,
          "time": 215.07670799999997,
          "velocity": 0.7874015748031497
        },
        {
          "duration": 0.15384599999998727,
          "durationTicks": 128,
          "midi": 52,
          "name": "E3",
          "ticks": 179072,
          "time": 215.23055399999998,
          "velocity": 0.7874015748031497
        },
        {
          "duration": 0.1538460000000157,
          "durationTicks": 128,
          "midi": 52,
          "name": "E3",
          "ticks": 179200,
          "time": 215.38439999999997,
          "velocity": 0.7874015748031497
        },
        {
          "duration": 0.15384599999998727,
          "durationTicks": 128,
          "midi": 52,
          "name": "E3",
          "ticks": 179328,
          "time": 215.538246,
          "velocity": 0.7874015748031497
        },
        {
          "duration": 0.1538460000000157,
          "durationTicks": 128,
          "midi": 52,
          "name": "E3",
          "ticks": 179456,
          "time": 215.69209199999997,
          "velocity": 0.7874015748031497
        },
        {
          "duration": 0.15384599999998727,
          "durationTicks": 128,
          "midi": 52,
          "name": "E3",
          "ticks": 179584,
          "time": 215.845938,
          "velocity": 0.7874015748031497
        },
        {
          "duration": 1.8461519999999894,
          "durationTicks": 1536,
          "midi": 52,
          "name": "E3",
          "ticks": 179712,
          "time": 215.99978399999998,
          "velocity": 0.7874015748031497
        }
      ]
    },
    {
      "channel": 0,
      "controlChanges": {
        "0": [
          {
            "number": 0,
            "ticks": 0,
            "time": 0,
            "value": 0
          }
        ]
      },
      "pitchBends": [],
      "instrument": {
        "family": "piano",
        "number": 0,
        "name": "acoustic grand piano"
      },
      "name": "",
      "notes": []
    },
    {
      "channel": 8,
      "controlChanges": {
        "7": [
          {
            "number": 7,
            "ticks": 0,
            "time": 0,
            "value": 0.6692913385826772
          }
        ],
        "10": [
          {
            "number": 10,
            "ticks": 0,
            "time": 0,
            "value": 0.8661417322834646
          }
        ]
      },
      "pitchBends": [],
      "instrument": {
        "family": "guitar",
        "number": 25,
        "name": "acoustic guitar (steel)"
      },
      "name": "",
      "notes": [
        {
          "duration": 0.07692299999999364,
          "durationTicks": 64,
          "midi": 52,
          "name": "E3",
          "ticks": 104448,
          "time": 125.53833599999999,
          "velocity": 0.7874015748031497
        },
        {
          "duration": 0.07692300000000785,
          "durationTicks": 64,
          "midi": 52,
          "name": "E3",
          "ticks": 104512,
          "time": 125.61525899999998,
          "velocity": 0.7874015748031497
        },
        {
          "duration": 0.07692299999999364,
          "durationTicks": 64,
          "midi": 52,
          "name": "E3",
          "ticks": 104576,
          "time": 125.69218199999999,
          "velocity": 0.7874015748031497
        },
        {
          "duration": 0.07692300000000785,
          "durationTicks": 64,
          "midi": 52,
          "name": "E3",
          "ticks": 104640,
          "time": 125.76910499999998,
          "velocity": 0.7874015748031497
        },
        {
          "duration": 0.07692299999999364,
          "durationTicks": 64,
          "midi": 52,
          "name": "E3",
          "ticks": 104704,
          "time": 125.84602799999999,
          "velocity": 0.7874015748031497
        },
        {
          "duration": 0.07692299999999364,
          "durationTicks": 64,
          "midi": 52,
          "name": "E3",
          "ticks": 104768,
          "time": 125.92295099999998,
          "velocity": 0.7874015748031497
        },
        {
          "duration": 0.07692300000000785,
          "durationTicks": 64,
          "midi": 52,
          "name": "E3",
          "ticks": 104832,
          "time": 125.99987399999998,
          "velocity": 0.7874015748031497
        },
        {
          "duration": 0.07692300000000785,
          "durationTicks": 64,
          "midi": 52,
          "name": "E3",
          "ticks": 104896,
          "time": 126.07679699999998,
          "velocity": 0.7874015748031497
        },
        {
          "duration": 0.07692299999999364,
          "durationTicks": 64,
          "midi": 52,
          "name": "E3",
          "ticks": 104960,
          "time": 126.15371999999999,
          "velocity": 0.7874015748031497
        },
        {
          "duration": 0.07692299999999364,
          "durationTicks": 64,
          "midi": 52,
          "name": "E3",
          "ticks": 105024,
          "time": 126.23064299999999,
          "velocity": 0.7874015748031497
        },
        {
          "duration": 0.07692300000000785,
          "durationTicks": 64,
          "midi": 52,
          "name": "E3",
          "ticks": 105088,
          "time": 126.30756599999998,
          "velocity": 0.7874015748031497
        },
        {
          "duration": 0.07692299999999364,
          "durationTicks": 64,
          "midi": 52,
          "name": "E3",
          "ticks": 105152,
          "time": 126.38448899999999,
          "velocity": 0.7874015748031497
        },
        {
          "duration": 0.07692300000000785,
          "durationTicks": 64,
          "midi": 52,
          "name": "E3",
          "ticks": 105216,
          "time": 126.46141199999998,
          "velocity": 0.7874015748031497
        },
        {
          "duration": 0.07692299999999364,
          "durationTicks": 64,
          "midi": 52,
          "name": "E3",
          "ticks": 105280,
          "time": 126.53833499999999,
          "velocity": 0.7874015748031497
        },
        {
          "duration": 0.07692299999999364,
          "durationTicks": 64,
          "midi": 52,
          "name": "E3",
          "ticks": 105344,
          "time": 126.61525799999998,
          "velocity": 0.7874015748031497
        },
        {
          "duration": 0.07692300000000785,
          "durationTicks": 64,
          "midi": 52,
          "name": "E3",
          "ticks": 105408,
          "time": 126.69218099999998,
          "velocity": 0.7874015748031497
        },
        {
          "duration": 0.07692300000000785,
          "durationTicks": 64,
          "midi": 52,
          "name": "E3",
          "ticks": 105472,
          "time": 126.76910399999998,
          "velocity": 0.7874015748031497
        },
        {
          "duration": 0.07692299999999364,
          "durationTicks": 64,
          "midi": 52,
          "name": "E3",
          "ticks": 105536,
          "time": 126.84602699999999,
          "velocity": 0.7874015748031497
        },
        {
          "duration": 0.07692299999999364,
          "durationTicks": 64,
          "midi": 52,
          "name": "E3",
          "ticks": 105600,
          "time": 126.92294999999999,
          "velocity": 0.7874015748031497
        },
        {
          "duration": 0.07692300000000785,
          "durationTicks": 64,
          "midi": 52,
          "name": "E3",
          "ticks": 105664,
          "time": 126.99987299999998,
          "velocity": 0.7874015748031497
        },
        {
          "duration": 0.07692299999999364,
          "durationTicks": 64,
          "midi": 52,
          "name": "E3",
          "ticks": 105728,
          "time": 127.07679599999999,
          "velocity": 0.7874015748031497
        },
        {
          "duration": 0.07692300000000785,
          "durationTicks": 64,
          "midi": 52,
          "name": "E3",
          "ticks": 105792,
          "time": 127.15371899999998,
          "velocity": 0.7874015748031497
        },
        {
          "duration": 0.07692299999999364,
          "durationTicks": 64,
          "midi": 52,
          "name": "E3",
          "ticks": 105856,
          "time": 127.23064199999999,
          "velocity": 0.7874015748031497
        },
        {
          "duration": 0.07692299999999364,
          "durationTicks": 64,
          "midi": 52,
          "name": "E3",
          "ticks": 105920,
          "time": 127.30756499999998,
          "velocity": 0.7874015748031497
        },
        {
          "duration": 0.07692300000000785,
          "durationTicks": 64,
          "midi": 52,
          "name": "E3",
          "ticks": 105984,
          "time": 127.38448799999998,
          "velocity": 0.7874015748031497
        },
        {
          "duration": 0.07692300000000785,
          "durationTicks": 64,
          "midi": 52,
          "name": "E3",
          "ticks": 106048,
          "time": 127.46141099999998,
          "velocity": 0.7874015748031497
        },
        {
          "duration": 0.07692299999999364,
          "durationTicks": 64,
          "midi": 52,
          "name": "E3",
          "ticks": 106112,
          "time": 127.53833399999999,
          "velocity": 0.7874015748031497
        },
        {
          "duration": 0.07692299999999364,
          "durationTicks": 64,
          "midi": 52,
          "name": "E3",
          "ticks": 106176,
          "time": 127.61525699999999,
          "velocity": 0.7874015748031497
        },
        {
          "duration": 0.07692300000000785,
          "durationTicks": 64,
          "midi": 52,
          "name": "E3",
          "ticks": 106240,
          "time": 127.69217999999998,
          "velocity": 0.7874015748031497
        },
        {
          "duration": 0.07692299999999364,
          "durationTicks": 64,
          "midi": 52,
          "name": "E3",
          "ticks": 106304,
          "time": 127.76910299999999,
          "velocity": 0.7874015748031497
        },
        {
          "duration": 0.07692300000000785,
          "durationTicks": 64,
          "midi": 52,
          "name": "E3",
          "ticks": 106368,
          "time": 127.84602599999998,
          "velocity": 0.7874015748031497
        },
        {
          "duration": 0.07692299999999364,
          "durationTicks": 64,
          "midi": 52,
          "name": "E3",
          "ticks": 106432,
          "time": 127.92294899999999,
          "velocity": 0.7874015748031497
        },
        {
          "duration": 0.07692299999999364,
          "durationTicks": 64,
          "midi": 52,
          "name": "E3",
          "ticks": 106496,
          "time": 127.99987199999998,
          "velocity": 0.7874015748031497
        },
        {
          "duration": 0.07692299999999364,
          "durationTicks": 64,
          "midi": 52,
          "name": "E3",
          "ticks": 106560,
          "time": 128.07679499999998,
          "velocity": 0.7874015748031497
        },
        {
          "duration": 0.07692300000002206,
          "durationTicks": 64,
          "midi": 52,
          "name": "E3",
          "ticks": 106624,
          "time": 128.15371799999997,
          "velocity": 0.7874015748031497
        },
        {
          "duration": 0.07692299999999364,
          "durationTicks": 64,
          "midi": 52,
          "name": "E3",
          "ticks": 106688,
          "time": 128.230641,
          "velocity": 0.7874015748031497
        },
        {
          "duration": 0.07692299999999364,
          "durationTicks": 64,
          "midi": 52,
          "name": "E3",
          "ticks": 106752,
          "time": 128.30756399999999,
          "velocity": 0.7874015748031497
        },
        {
          "duration": 0.07692300000002206,
          "durationTicks": 64,
          "midi": 52,
          "name": "E3",
          "ticks": 106816,
          "time": 128.38448699999998,
          "velocity": 0.7874015748031497
        },
        {
          "duration": 0.07692299999999364,
          "durationTicks": 64,
          "midi": 52,
          "name": "E3",
          "ticks": 106880,
          "time": 128.46141,
          "velocity": 0.7874015748031497
        },
        {
          "duration": 0.07692299999999364,
          "durationTicks": 64,
          "midi": 52,
          "name": "E3",
          "ticks": 106944,
          "time": 128.538333,
          "velocity": 0.7874015748031497
        },
        {
          "duration": 0.07692299999999364,
          "durationTicks": 64,
          "midi": 52,
          "name": "E3",
          "ticks": 107008,
          "time": 128.615256,
          "velocity": 0.7874015748031497
        },
        {
          "duration": 0.07692299999999364,
          "durationTicks": 64,
          "midi": 52,
          "name": "E3",
          "ticks": 107072,
          "time": 128.69217899999998,
          "velocity": 0.7874015748031497
        },
        {
          "duration": 0.30769200000000296,
          "durationTicks": 256,
          "midi": 52,
          "name": "E3",
          "ticks": 107136,
          "time": 128.76910199999998,
          "velocity": 0.7874015748031497
        },
        {
          "duration": 0.6153840000000059,
          "durationTicks": 512,
          "midi": 52,
          "name": "E3",
          "ticks": 107392,
          "time": 129.07679399999998,
          "velocity": 0.7874015748031497
        },
        {
          "duration": 0.07692300000002206,
          "durationTicks": 64,
          "midi": 64,
          "name": "E4",
          "ticks": 110592,
          "time": 132.92294399999997,
          "velocity": 0.7874015748031497
        },
        {
          "duration": 0.07692299999999364,
          "durationTicks": 64,
          "midi": 64,
          "name": "E4",
          "ticks": 110656,
          "time": 132.999867,
          "velocity": 0.7874015748031497
        },
        {
          "duration": 0.07692299999999364,
          "durationTicks": 64,
          "midi": 64,
          "name": "E4",
          "ticks": 110720,
          "time": 133.07679,
          "velocity": 0.7874015748031497
        },
        {
          "duration": 0.07692299999999364,
          "durationTicks": 64,
          "midi": 64,
          "name": "E4",
          "ticks": 110784,
          "time": 133.15371299999998,
          "velocity": 0.7874015748031497
        },
        {
          "duration": 0.07692299999999364,
          "durationTicks": 64,
          "midi": 64,
          "name": "E4",
          "ticks": 110848,
          "time": 133.23063599999998,
          "velocity": 0.7874015748031497
        },
        {
          "duration": 0.07692300000002206,
          "durationTicks": 64,
          "midi": 64,
          "name": "E4",
          "ticks": 110912,
          "time": 133.30755899999997,
          "velocity": 0.7874015748031497
        },
        {
          "duration": 0.07692299999999364,
          "durationTicks": 64,
          "midi": 64,
          "name": "E4",
          "ticks": 110976,
          "time": 133.384482,
          "velocity": 0.7874015748031497
        },
        {
          "duration": 0.07692299999999364,
          "durationTicks": 64,
          "midi": 64,
          "name": "E4",
          "ticks": 111040,
          "time": 133.46140499999998,
          "velocity": 0.7874015748031497
        },
        {
          "duration": 0.07692299999999364,
          "durationTicks": 64,
          "midi": 64,
          "name": "E4",
          "ticks": 111104,
          "time": 133.53832799999998,
          "velocity": 0.7874015748031497
        },
        {
          "duration": 0.07692300000002206,
          "durationTicks": 64,
          "midi": 64,
          "name": "E4",
          "ticks": 111168,
          "time": 133.61525099999997,
          "velocity": 0.7874015748031497
        },
        {
          "duration": 0.07692299999999364,
          "durationTicks": 64,
          "midi": 64,
          "name": "E4",
          "ticks": 111232,
          "time": 133.692174,
          "velocity": 0.7874015748031497
        },
        {
          "duration": 0.07692299999999364,
          "durationTicks": 64,
          "midi": 64,
          "name": "E4",
          "ticks": 111296,
          "time": 133.769097,
          "velocity": 0.7874015748031497
        },
        {
          "duration": 0.07692299999999364,
          "durationTicks": 64,
          "midi": 64,
          "name": "E4",
          "ticks": 111360,
          "time": 133.84601999999998,
          "velocity": 0.7874015748031497
        },
        {
          "duration": 0.07692299999999364,
          "durationTicks": 64,
          "midi": 64,
          "name": "E4",
          "ticks": 111424,
          "time": 133.92294299999998,
          "velocity": 0.7874015748031497
        },
        {
          "duration": 0.07692300000002206,
          "durationTicks": 64,
          "midi": 64,
          "name": "E4",
          "ticks": 111488,
          "time": 133.99986599999997,
          "velocity": 0.7874015748031497
        },
        {
          "duration": 0.07692299999999364,
          "durationTicks": 64,
          "midi": 64,
          "name": "E4",
          "ticks": 111552,
          "time": 134.076789,
          "velocity": 0.7874015748031497
        },
        {
          "duration": 0.07692299999999364,
          "durationTicks": 64,
          "midi": 64,
          "name": "E4",
          "ticks": 111616,
          "time": 134.15371199999998,
          "velocity": 0.7874015748031497
        },
        {
          "duration": 0.07692299999999364,
          "durationTicks": 64,
          "midi": 64,
          "name": "E4",
          "ticks": 111680,
          "time": 134.23063499999998,
          "velocity": 0.7874015748031497
        },
        {
          "duration": 0.07692300000002206,
          "durationTicks": 64,
          "midi": 64,
          "name": "E4",
          "ticks": 111744,
          "time": 134.30755799999997,
          "velocity": 0.7874015748031497
        },
        {
          "duration": 0.07692299999999364,
          "durationTicks": 64,
          "midi": 64,
          "name": "E4",
          "ticks": 111808,
          "time": 134.384481,
          "velocity": 0.7874015748031497
        },
        {
          "duration": 0.07692299999999364,
          "durationTicks": 64,
          "midi": 64,
          "name": "E4",
          "ticks": 111872,
          "time": 134.461404,
          "velocity": 0.7874015748031497
        },
        {
          "duration": 0.07692299999999364,
          "durationTicks": 64,
          "midi": 64,
          "name": "E4",
          "ticks": 111936,
          "time": 134.53832699999998,
          "velocity": 0.7874015748031497
        },
        {
          "duration": 0.07692299999999364,
          "durationTicks": 64,
          "midi": 64,
          "name": "E4",
          "ticks": 112000,
          "time": 134.61524999999997,
          "velocity": 0.7874015748031497
        },
        {
          "duration": 0.07692300000002206,
          "durationTicks": 64,
          "midi": 64,
          "name": "E4",
          "ticks": 112064,
          "time": 134.69217299999997,
          "velocity": 0.7874015748031497
        },
        {
          "duration": 0.07692299999999364,
          "durationTicks": 64,
          "midi": 64,
          "name": "E4",
          "ticks": 112128,
          "time": 134.769096,
          "velocity": 0.7874015748031497
        },
        {
          "duration": 0.07692299999999364,
          "durationTicks": 64,
          "midi": 64,
          "name": "E4",
          "ticks": 112192,
          "time": 134.84601899999998,
          "velocity": 0.7874015748031497
        },
        {
          "duration": 0.07692299999999364,
          "durationTicks": 64,
          "midi": 64,
          "name": "E4",
          "ticks": 112256,
          "time": 134.92294199999998,
          "velocity": 0.7874015748031497
        },
        {
          "duration": 0.07692300000002206,
          "durationTicks": 64,
          "midi": 64,
          "name": "E4",
          "ticks": 112320,
          "time": 134.99986499999997,
          "velocity": 0.7874015748031497
        },
        {
          "duration": 0.07692299999999364,
          "durationTicks": 64,
          "midi": 64,
          "name": "E4",
          "ticks": 112384,
          "time": 135.076788,
          "velocity": 0.7874015748031497
        },
        {
          "duration": 0.07692299999999364,
          "durationTicks": 64,
          "midi": 64,
          "name": "E4",
          "ticks": 112448,
          "time": 135.153711,
          "velocity": 0.7874015748031497
        },
        {
          "duration": 0.07692299999999364,
          "durationTicks": 64,
          "midi": 64,
          "name": "E4",
          "ticks": 112512,
          "time": 135.23063399999998,
          "velocity": 0.7874015748031497
        },
        {
          "duration": 0.07692300000002206,
          "durationTicks": 64,
          "midi": 64,
          "name": "E4",
          "ticks": 112576,
          "time": 135.30755699999997,
          "velocity": 0.7874015748031497
        },
        {
          "duration": 0.07692299999999364,
          "durationTicks": 64,
          "midi": 64,
          "name": "E4",
          "ticks": 112640,
          "time": 135.38448,
          "velocity": 0.7874015748031497
        },
        {
          "duration": 0.07692299999999364,
          "durationTicks": 64,
          "midi": 64,
          "name": "E4",
          "ticks": 112704,
          "time": 135.461403,
          "velocity": 0.7874015748031497
        },
        {
          "duration": 0.07692299999999364,
          "durationTicks": 64,
          "midi": 64,
          "name": "E4",
          "ticks": 112768,
          "time": 135.53832599999998,
          "velocity": 0.7874015748031497
        },
        {
          "duration": 0.07692299999999364,
          "durationTicks": 64,
          "midi": 64,
          "name": "E4",
          "ticks": 112832,
          "time": 135.61524899999998,
          "velocity": 0.7874015748031497
        },
        {
          "duration": 0.07692300000002206,
          "durationTicks": 64,
          "midi": 64,
          "name": "E4",
          "ticks": 112896,
          "time": 135.69217199999997,
          "velocity": 0.7874015748031497
        },
        {
          "duration": 0.07692299999999364,
          "durationTicks": 64,
          "midi": 64,
          "name": "E4",
          "ticks": 112960,
          "time": 135.769095,
          "velocity": 0.7874015748031497
        },
        {
          "duration": 0.07692299999999364,
          "durationTicks": 64,
          "midi": 64,
          "name": "E4",
          "ticks": 113024,
          "time": 135.846018,
          "velocity": 0.7874015748031497
        },
        {
          "duration": 0.07692300000002206,
          "durationTicks": 64,
          "midi": 64,
          "name": "E4",
          "ticks": 113088,
          "time": 135.92294099999998,
          "velocity": 0.7874015748031497
        },
        {
          "duration": 0.07692299999996521,
          "durationTicks": 64,
          "midi": 64,
          "name": "E4",
          "ticks": 113152,
          "time": 135.999864,
          "velocity": 0.7874015748031497
        },
        {
          "duration": 0.07692300000002206,
          "durationTicks": 64,
          "midi": 64,
          "name": "E4",
          "ticks": 113216,
          "time": 136.07678699999997,
          "velocity": 0.7874015748031497
        },
        {
          "duration": 0.30769200000000296,
          "durationTicks": 256,
          "midi": 64,
          "name": "E4",
          "ticks": 113280,
          "time": 136.15371,
          "velocity": 0.7874015748031497
        },
        {
          "duration": 0.6153839999999775,
          "durationTicks": 512,
          "midi": 64,
          "name": "E4",
          "ticks": 113536,
          "time": 136.461402,
          "velocity": 0.7874015748031497
        },
        {
          "duration": 0.07692299999999364,
          "durationTicks": 64,
          "midi": 52,
          "name": "E3",
          "ticks": 161280,
          "time": 193.84596,
          "velocity": 0.7874015748031497
        },
        {
          "duration": 0.07692299999999364,
          "durationTicks": 64,
          "midi": 52,
          "name": "E3",
          "ticks": 161344,
          "time": 193.92288299999998,
          "velocity": 0.7874015748031497
        },
        {
          "duration": 0.07692299999999364,
          "durationTicks": 64,
          "midi": 52,
          "name": "E3",
          "ticks": 161408,
          "time": 193.99980599999998,
          "velocity": 0.7874015748031497
        },
        {
          "duration": 0.07692299999999364,
          "durationTicks": 64,
          "midi": 52,
          "name": "E3",
          "ticks": 161472,
          "time": 194.07672899999997,
          "velocity": 0.7874015748031497
        },
        {
          "duration": 0.07692300000002206,
          "durationTicks": 64,
          "midi": 52,
          "name": "E3",
          "ticks": 161536,
          "time": 194.15365199999997,
          "velocity": 0.7874015748031497
        },
        {
          "duration": 0.07692299999999364,
          "durationTicks": 64,
          "midi": 52,
          "name": "E3",
          "ticks": 161600,
          "time": 194.230575,
          "velocity": 0.7874015748031497
        },
        {
          "duration": 0.07692299999999364,
          "durationTicks": 64,
          "midi": 52,
          "name": "E3",
          "ticks": 161664,
          "time": 194.30749799999998,
          "velocity": 0.7874015748031497
        },
        {
          "duration": 0.07692299999999364,
          "durationTicks": 64,
          "midi": 52,
          "name": "E3",
          "ticks": 161728,
          "time": 194.38442099999997,
          "velocity": 0.7874015748031497
        },
        {
          "duration": 0.07692299999999364,
          "durationTicks": 64,
          "midi": 52,
          "name": "E3",
          "ticks": 161792,
          "time": 194.46134399999997,
          "velocity": 0.7874015748031497
        },
        {
          "duration": 0.07692300000002206,
          "durationTicks": 64,
          "midi": 52,
          "name": "E3",
          "ticks": 161856,
          "time": 194.53826699999996,
          "velocity": 0.7874015748031497
        },
        {
          "duration": 0.07692299999999364,
          "durationTicks": 64,
          "midi": 52,
          "name": "E3",
          "ticks": 161920,
          "time": 194.61518999999998,
          "velocity": 0.7874015748031497
        },
        {
          "duration": 0.07692299999999364,
          "durationTicks": 64,
          "midi": 52,
          "name": "E3",
          "ticks": 161984,
          "time": 194.69211299999998,
          "velocity": 0.7874015748031497
        },
        {
          "duration": 0.07692300000002206,
          "durationTicks": 64,
          "midi": 52,
          "name": "E3",
          "ticks": 162048,
          "time": 194.76903599999997,
          "velocity": 0.7874015748031497
        },
        {
          "duration": 0.07692299999996521,
          "durationTicks": 64,
          "midi": 52,
          "name": "E3",
          "ticks": 162112,
          "time": 194.845959,
          "velocity": 0.7874015748031497
        },
        {
          "duration": 0.07692300000002206,
          "durationTicks": 64,
          "midi": 52,
          "name": "E3",
          "ticks": 162176,
          "time": 194.92288199999996,
          "velocity": 0.7874015748031497
        },
        {
          "duration": 0.07692299999999364,
          "durationTicks": 64,
          "midi": 52,
          "name": "E3",
          "ticks": 162240,
          "time": 194.99980499999998,
          "velocity": 0.7874015748031497
        },
        {
          "duration": 0.07692299999999364,
          "durationTicks": 64,
          "midi": 52,
          "name": "E3",
          "ticks": 162304,
          "time": 195.07672799999997,
          "velocity": 0.7874015748031497
        },
        {
          "duration": 0.07692300000002206,
          "durationTicks": 64,
          "midi": 52,
          "name": "E3",
          "ticks": 162368,
          "time": 195.15365099999997,
          "velocity": 0.7874015748031497
        },
        {
          "duration": 0.07692299999999364,
          "durationTicks": 64,
          "midi": 52,
          "name": "E3",
          "ticks": 162432,
          "time": 195.230574,
          "velocity": 0.7874015748031497
        },
        {
          "duration": 0.07692299999999364,
          "durationTicks": 64,
          "midi": 52,
          "name": "E3",
          "ticks": 162496,
          "time": 195.30749699999998,
          "velocity": 0.7874015748031497
        },
        {
          "duration": 0.07692299999999364,
          "durationTicks": 64,
          "midi": 52,
          "name": "E3",
          "ticks": 162560,
          "time": 195.38441999999998,
          "velocity": 0.7874015748031497
        },
        {
          "duration": 0.07692299999999364,
          "durationTicks": 64,
          "midi": 52,
          "name": "E3",
          "ticks": 162624,
          "time": 195.46134299999997,
          "velocity": 0.7874015748031497
        },
        {
          "duration": 0.07692300000002206,
          "durationTicks": 64,
          "midi": 52,
          "name": "E3",
          "ticks": 162688,
          "time": 195.53826599999996,
          "velocity": 0.7874015748031497
        },
        {
          "duration": 0.07692299999999364,
          "durationTicks": 64,
          "midi": 52,
          "name": "E3",
          "ticks": 162752,
          "time": 195.615189,
          "velocity": 0.7874015748031497
        },
        {
          "duration": 0.07692299999999364,
          "durationTicks": 64,
          "midi": 52,
          "name": "E3",
          "ticks": 162816,
          "time": 195.69211199999998,
          "velocity": 0.7874015748031497
        },
        {
          "duration": 0.07692299999999364,
          "durationTicks": 64,
          "midi": 52,
          "name": "E3",
          "ticks": 162880,
          "time": 195.76903499999997,
          "velocity": 0.7874015748031497
        },
        {
          "duration": 0.07692300000002206,
          "durationTicks": 64,
          "midi": 52,
          "name": "E3",
          "ticks": 162944,
          "time": 195.84595799999997,
          "velocity": 0.7874015748031497
        },
        {
          "duration": 0.07692299999999364,
          "durationTicks": 64,
          "midi": 52,
          "name": "E3",
          "ticks": 163008,
          "time": 195.922881,
          "velocity": 0.7874015748031497
        },
        {
          "duration": 0.07692299999999364,
          "durationTicks": 64,
          "midi": 52,
          "name": "E3",
          "ticks": 163072,
          "time": 195.99980399999998,
          "velocity": 0.7874015748031497
        },
        {
          "duration": 0.07692299999999364,
          "durationTicks": 64,
          "midi": 52,
          "name": "E3",
          "ticks": 163136,
          "time": 196.07672699999998,
          "velocity": 0.7874015748031497
        },
        {
          "duration": 0.07692300000002206,
          "durationTicks": 64,
          "midi": 52,
          "name": "E3",
          "ticks": 163200,
          "time": 196.15364999999997,
          "velocity": 0.7874015748031497
        },
        {
          "duration": 0.07692299999999364,
          "durationTicks": 64,
          "midi": 52,
          "name": "E3",
          "ticks": 163264,
          "time": 196.230573,
          "velocity": 0.7874015748031497
        },
        {
          "duration": 0.07692299999999364,
          "durationTicks": 64,
          "midi": 52,
          "name": "E3",
          "ticks": 163328,
          "time": 196.307496,
          "velocity": 0.7874015748031497
        },
        {
          "duration": 0.07692299999999364,
          "durationTicks": 64,
          "midi": 52,
          "name": "E3",
          "ticks": 163392,
          "time": 196.38441899999998,
          "velocity": 0.7874015748031497
        },
        {
          "duration": 0.07692299999999364,
          "durationTicks": 64,
          "midi": 52,
          "name": "E3",
          "ticks": 163456,
          "time": 196.46134199999997,
          "velocity": 0.7874015748031497
        },
        {
          "duration": 0.07692300000002206,
          "durationTicks": 64,
          "midi": 52,
          "name": "E3",
          "ticks": 163520,
          "time": 196.53826499999997,
          "velocity": 0.7874015748031497
        },
        {
          "duration": 0.07692299999999364,
          "durationTicks": 64,
          "midi": 52,
          "name": "E3",
          "ticks": 163584,
          "time": 196.615188,
          "velocity": 0.7874015748031497
        },
        {
          "duration": 0.07692299999999364,
          "durationTicks": 64,
          "midi": 52,
          "name": "E3",
          "ticks": 163648,
          "time": 196.69211099999998,
          "velocity": 0.7874015748031497
        },
        {
          "duration": 0.07692299999999364,
          "durationTicks": 64,
          "midi": 52,
          "name": "E3",
          "ticks": 163712,
          "time": 196.76903399999998,
          "velocity": 0.7874015748031497
        },
        {
          "duration": 0.07692300000002206,
          "durationTicks": 64,
          "midi": 52,
          "name": "E3",
          "ticks": 163776,
          "time": 196.84595699999997,
          "velocity": 0.7874015748031497
        },
        {
          "duration": 0.07692299999999364,
          "durationTicks": 64,
          "midi": 52,
          "name": "E3",
          "ticks": 163840,
          "time": 196.92288,
          "velocity": 0.7874015748031497
        },
        {
          "duration": 0.07692299999999364,
          "durationTicks": 64,
          "midi": 52,
          "name": "E3",
          "ticks": 163904,
          "time": 196.99980299999999,
          "velocity": 0.7874015748031497
        },
        {
          "duration": 0.30769200000000296,
          "durationTicks": 256,
          "midi": 52,
          "name": "E3",
          "ticks": 163968,
          "time": 197.07672599999998,
          "velocity": 0.7874015748031497
        },
        {
          "duration": 0.6153840000000059,
          "durationTicks": 512,
          "midi": 52,
          "name": "E3",
          "ticks": 164224,
          "time": 197.38441799999998,
          "velocity": 0.7874015748031497
        },
        {
          "duration": 0.07692299999999364,
          "durationTicks": 64,
          "midi": 64,
          "name": "E4",
          "ticks": 167424,
          "time": 201.23056799999998,
          "velocity": 0.7874015748031497
        },
        {
          "duration": 0.07692300000002206,
          "durationTicks": 64,
          "midi": 64,
          "name": "E4",
          "ticks": 167488,
          "time": 201.30749099999997,
          "velocity": 0.7874015748031497
        },
        {
          "duration": 0.07692299999999364,
          "durationTicks": 64,
          "midi": 64,
          "name": "E4",
          "ticks": 167552,
          "time": 201.384414,
          "velocity": 0.7874015748031497
        },
        {
          "duration": 0.07692299999999364,
          "durationTicks": 64,
          "midi": 64,
          "name": "E4",
          "ticks": 167616,
          "time": 201.461337,
          "velocity": 0.7874015748031497
        },
        {
          "duration": 0.07692299999999364,
          "durationTicks": 64,
          "midi": 64,
          "name": "E4",
          "ticks": 167680,
          "time": 201.53825999999998,
          "velocity": 0.7874015748031497
        },
        {
          "duration": 0.07692299999999364,
          "durationTicks": 64,
          "midi": 64,
          "name": "E4",
          "ticks": 167744,
          "time": 201.61518299999997,
          "velocity": 0.7874015748031497
        },
        {
          "duration": 0.07692300000002206,
          "durationTicks": 64,
          "midi": 64,
          "name": "E4",
          "ticks": 167808,
          "time": 201.69210599999997,
          "velocity": 0.7874015748031497
        },
        {
          "duration": 0.07692299999999364,
          "durationTicks": 64,
          "midi": 64,
          "name": "E4",
          "ticks": 167872,
          "time": 201.769029,
          "velocity": 0.7874015748031497
        },
        {
          "duration": 0.07692299999999364,
          "durationTicks": 64,
          "midi": 64,
          "name": "E4",
          "ticks": 167936,
          "time": 201.84595199999998,
          "velocity": 0.7874015748031497
        },
        {
          "duration": 0.07692299999999364,
          "durationTicks": 64,
          "midi": 64,
          "name": "E4",
          "ticks": 168000,
          "time": 201.92287499999998,
          "velocity": 0.7874015748031497
        },
        {
          "duration": 0.07692300000002206,
          "durationTicks": 64,
          "midi": 64,
          "name": "E4",
          "ticks": 168064,
          "time": 201.99979799999997,
          "velocity": 0.7874015748031497
        },
        {
          "duration": 0.07692299999999364,
          "durationTicks": 64,
          "midi": 64,
          "name": "E4",
          "ticks": 168128,
          "time": 202.076721,
          "velocity": 0.7874015748031497
        },
        {
          "duration": 0.07692299999999364,
          "durationTicks": 64,
          "midi": 64,
          "name": "E4",
          "ticks": 168192,
          "time": 202.15364399999999,
          "velocity": 0.7874015748031497
        },
        {
          "duration": 0.07692299999999364,
          "durationTicks": 64,
          "midi": 64,
          "name": "E4",
          "ticks": 168256,
          "time": 202.23056699999998,
          "velocity": 0.7874015748031497
        },
        {
          "duration": 0.07692299999999364,
          "durationTicks": 64,
          "midi": 64,
          "name": "E4",
          "ticks": 168320,
          "time": 202.30748999999997,
          "velocity": 0.7874015748031497
        },
        {
          "duration": 0.07692300000002206,
          "durationTicks": 64,
          "midi": 64,
          "name": "E4",
          "ticks": 168384,
          "time": 202.38441299999997,
          "velocity": 0.7874015748031497
        },
        {
          "duration": 0.07692299999999364,
          "durationTicks": 64,
          "midi": 64,
          "name": "E4",
          "ticks": 168448,
          "time": 202.461336,
          "velocity": 0.7874015748031497
        },
        {
          "duration": 0.07692299999999364,
          "durationTicks": 64,
          "midi": 64,
          "name": "E4",
          "ticks": 168512,
          "time": 202.53825899999998,
          "velocity": 0.7874015748031497
        },
        {
          "duration": 0.07692299999999364,
          "durationTicks": 64,
          "midi": 64,
          "name": "E4",
          "ticks": 168576,
          "time": 202.61518199999998,
          "velocity": 0.7874015748031497
        },
        {
          "duration": 0.07692300000002206,
          "durationTicks": 64,
          "midi": 64,
          "name": "E4",
          "ticks": 168640,
          "time": 202.69210499999997,
          "velocity": 0.7874015748031497
        },
        {
          "duration": 0.07692299999999364,
          "durationTicks": 64,
          "midi": 64,
          "name": "E4",
          "ticks": 168704,
          "time": 202.769028,
          "velocity": 0.7874015748031497
        },
        {
          "duration": 0.07692299999999364,
          "durationTicks": 64,
          "midi": 64,
          "name": "E4",
          "ticks": 168768,
          "time": 202.84595099999999,
          "velocity": 0.7874015748031497
        },
        {
          "duration": 0.07692299999999364,
          "durationTicks": 64,
          "midi": 64,
          "name": "E4",
          "ticks": 168832,
          "time": 202.92287399999998,
          "velocity": 0.7874015748031497
        },
        {
          "duration": 0.07692299999999364,
          "durationTicks": 64,
          "midi": 64,
          "name": "E4",
          "ticks": 168896,
          "time": 202.99979699999997,
          "velocity": 0.7874015748031497
        },
        {
          "duration": 0.07692300000002206,
          "durationTicks": 64,
          "midi": 64,
          "name": "E4",
          "ticks": 168960,
          "time": 203.07671999999997,
          "velocity": 0.7874015748031497
        },
        {
          "duration": 0.07692299999999364,
          "durationTicks": 64,
          "midi": 64,
          "name": "E4",
          "ticks": 169024,
          "time": 203.153643,
          "velocity": 0.7874015748031497
        },
        {
          "duration": 0.07692299999999364,
          "durationTicks": 64,
          "midi": 64,
          "name": "E4",
          "ticks": 169088,
          "time": 203.23056599999998,
          "velocity": 0.7874015748031497
        },
        {
          "duration": 0.07692299999999364,
          "durationTicks": 64,
          "midi": 64,
          "name": "E4",
          "ticks": 169152,
          "time": 203.30748899999998,
          "velocity": 0.7874015748031497
        },
        {
          "duration": 0.07692300000002206,
          "durationTicks": 64,
          "midi": 64,
          "name": "E4",
          "ticks": 169216,
          "time": 203.38441199999997,
          "velocity": 0.7874015748031497
        },
        {
          "duration": 0.07692299999999364,
          "durationTicks": 64,
          "midi": 64,
          "name": "E4",
          "ticks": 169280,
          "time": 203.461335,
          "velocity": 0.7874015748031497
        },
        {
          "duration": 0.07692299999999364,
          "durationTicks": 64,
          "midi": 64,
          "name": "E4",
          "ticks": 169344,
          "time": 203.53825799999998,
          "velocity": 0.7874015748031497
        },
        {
          "duration": 0.07692299999999364,
          "durationTicks": 64,
          "midi": 64,
          "name": "E4",
          "ticks": 169408,
          "time": 203.61518099999998,
          "velocity": 0.7874015748031497
        },
        {
          "duration": 0.07692300000002206,
          "durationTicks": 64,
          "midi": 64,
          "name": "E4",
          "ticks": 169472,
          "time": 203.69210399999997,
          "velocity": 0.7874015748031497
        },
        {
          "duration": 0.07692299999999364,
          "durationTicks": 64,
          "midi": 64,
          "name": "E4",
          "ticks": 169536,
          "time": 203.769027,
          "velocity": 0.7874015748031497
        },
        {
          "duration": 0.07692299999999364,
          "durationTicks": 64,
          "midi": 64,
          "name": "E4",
          "ticks": 169600,
          "time": 203.84595,
          "velocity": 0.7874015748031497
        },
        {
          "duration": 0.07692299999999364,
          "durationTicks": 64,
          "midi": 64,
          "name": "E4",
          "ticks": 169664,
          "time": 203.92287299999998,
          "velocity": 0.7874015748031497
        },
        {
          "duration": 0.07692299999999364,
          "durationTicks": 64,
          "midi": 64,
          "name": "E4",
          "ticks": 169728,
          "time": 203.99979599999998,
          "velocity": 0.7874015748031497
        },
        {
          "duration": 0.07692300000002206,
          "durationTicks": 64,
          "midi": 64,
          "name": "E4",
          "ticks": 169792,
          "time": 204.07671899999997,
          "velocity": 0.7874015748031497
        },
        {
          "duration": 0.07692299999999364,
          "durationTicks": 64,
          "midi": 64,
          "name": "E4",
          "ticks": 169856,
          "time": 204.153642,
          "velocity": 0.7874015748031497
        },
        {
          "duration": 0.07692299999999364,
          "durationTicks": 64,
          "midi": 64,
          "name": "E4",
          "ticks": 169920,
          "time": 204.23056499999998,
          "velocity": 0.7874015748031497
        },
        {
          "duration": 0.07692299999999364,
          "durationTicks": 64,
          "midi": 64,
          "name": "E4",
          "ticks": 169984,
          "time": 204.30748799999998,
          "velocity": 0.7874015748031497
        },
        {
          "duration": 0.07692299999999364,
          "durationTicks": 64,
          "midi": 64,
          "name": "E4",
          "ticks": 170048,
          "time": 204.38441099999997,
          "velocity": 0.7874015748031497
        },
        {
          "duration": 0.30769200000000296,
          "durationTicks": 256,
          "midi": 64,
          "name": "E4",
          "ticks": 170112,
          "time": 204.46133399999997,
          "velocity": 0.7874015748031497
        },
        {
          "duration": 0.6153840000000059,
          "durationTicks": 512,
          "midi": 64,
          "name": "E4",
          "ticks": 170368,
          "time": 204.76902599999997,
          "velocity": 0.7874015748031497
        }
      ]
    },
    {
      "channel": 0,
      "controlChanges": {
        "0": [
          {
            "number": 0,
            "ticks": 0,
            "time": 0,
            "value": 0
          }
        ]
      },
      "pitchBends": [],
      "instrument": {
        "family": "piano",
        "number": 0,
        "name": "acoustic grand piano"
      },
      "name": "",
      "notes": []
    },
    {
      "channel": 10,
      "controlChanges": {
        "7": [
          {
            "number": 7,
            "ticks": 0,
            "time": 0,
            "value": 0.6299212598425197
          }
        ],
        "10": [
          {
            "number": 10,
            "ticks": 0,
            "time": 0,
            "value": 0.15748031496062992
          }
        ]
      },
      "pitchBends": [],
      "instrument": {
        "family": "guitar",
        "number": 29,
        "name": "overdriven guitar"
      },
      "name": "",
      "notes": [
        {
          "duration": 0.07692300000000785,
          "durationTicks": 64,
          "midi": 52,
          "name": "E3",
          "ticks": 104456,
          "time": 125.54795137499998,
          "velocity": 0.7874015748031497
        },
        {
          "duration": 0.07692299999999364,
          "durationTicks": 64,
          "midi": 52,
          "name": "E3",
          "ticks": 104520,
          "time": 125.62487437499999,
          "velocity": 0.7874015748031497
        },
        {
          "duration": 0.07692299999999364,
          "durationTicks": 64,
          "midi": 52,
          "name": "E3",
          "ticks": 104584,
          "time": 125.70179737499998,
          "velocity": 0.7874015748031497
        },
        {
          "duration": 0.07692300000000785,
          "durationTicks": 64,
          "midi": 52,
          "name": "E3",
          "ticks": 104648,
          "time": 125.77872037499998,
          "velocity": 0.7874015748031497
        },
        {
          "duration": 0.07692299999999364,
          "durationTicks": 64,
          "midi": 52,
          "name": "E3",
          "ticks": 104712,
          "time": 125.85564337499999,
          "velocity": 0.7874015748031497
        },
        {
          "duration": 0.07692300000000785,
          "durationTicks": 64,
          "midi": 52,
          "name": "E3",
          "ticks": 104776,
          "time": 125.93256637499998,
          "velocity": 0.7874015748031497
        },
        {
          "duration": 0.07692299999999364,
          "durationTicks": 64,
          "midi": 52,
          "name": "E3",
          "ticks": 104840,
          "time": 126.00948937499999,
          "velocity": 0.7874015748031497
        },
        {
          "duration": 0.07692299999999364,
          "durationTicks": 64,
          "midi": 52,
          "name": "E3",
          "ticks": 104904,
          "time": 126.08641237499998,
          "velocity": 0.7874015748031497
        },
        {
          "duration": 0.07692300000000785,
          "durationTicks": 64,
          "midi": 52,
          "name": "E3",
          "ticks": 104968,
          "time": 126.16333537499997,
          "velocity": 0.7874015748031497
        },
        {
          "duration": 0.07692300000000785,
          "durationTicks": 64,
          "midi": 52,
          "name": "E3",
          "ticks": 105032,
          "time": 126.24025837499998,
          "velocity": 0.7874015748031497
        },
        {
          "duration": 0.07692299999999364,
          "durationTicks": 64,
          "midi": 52,
          "name": "E3",
          "ticks": 105096,
          "time": 126.31718137499999,
          "velocity": 0.7874015748031497
        },
        {
          "duration": 0.07692299999999364,
          "durationTicks": 64,
          "midi": 52,
          "name": "E3",
          "ticks": 105160,
          "time": 126.39410437499998,
          "velocity": 0.7874015748031497
        },
        {
          "duration": 0.07692300000000785,
          "durationTicks": 64,
          "midi": 52,
          "name": "E3",
          "ticks": 105224,
          "time": 126.47102737499998,
          "velocity": 0.7874015748031497
        },
        {
          "duration": 0.07692299999999364,
          "durationTicks": 64,
          "midi": 52,
          "name": "E3",
          "ticks": 105288,
          "time": 126.54795037499999,
          "velocity": 0.7874015748031497
        },
        {
          "duration": 0.07692300000000785,
          "durationTicks": 64,
          "midi": 52,
          "name": "E3",
          "ticks": 105352,
          "time": 126.62487337499998,
          "velocity": 0.7874015748031497
        },
        {
          "duration": 0.07692299999999364,
          "durationTicks": 64,
          "midi": 52,
          "name": "E3",
          "ticks": 105416,
          "time": 126.70179637499999,
          "velocity": 0.7874015748031497
        },
        {
          "duration": 0.07692300000000785,
          "durationTicks": 64,
          "midi": 52,
          "name": "E3",
          "ticks": 105480,
          "time": 126.77871937499998,
          "velocity": 0.7874015748031497
        },
        {
          "duration": 0.07692299999999364,
          "durationTicks": 64,
          "midi": 52,
          "name": "E3",
          "ticks": 105544,
          "time": 126.85564237499999,
          "velocity": 0.7874015748031497
        },
        {
          "duration": 0.07692300000000785,
          "durationTicks": 64,
          "midi": 52,
          "name": "E3",
          "ticks": 105608,
          "time": 126.93256537499998,
          "velocity": 0.7874015748031497
        },
        {
          "duration": 0.07692299999999364,
          "durationTicks": 64,
          "midi": 52,
          "name": "E3",
          "ticks": 105672,
          "time": 127.00948837499999,
          "velocity": 0.7874015748031497
        },
        {
          "duration": 0.07692299999999364,
          "durationTicks": 64,
          "midi": 52,
          "name": "E3",
          "ticks": 105736,
          "time": 127.08641137499998,
          "velocity": 0.7874015748031497
        },
        {
          "duration": 0.07692300000000785,
          "durationTicks": 64,
          "midi": 52,
          "name": "E3",
          "ticks": 105800,
          "time": 127.16333437499998,
          "velocity": 0.7874015748031497
        },
        {
          "duration": 0.07692299999999364,
          "durationTicks": 64,
          "midi": 52,
          "name": "E3",
          "ticks": 105864,
          "time": 127.24025737499998,
          "velocity": 0.7874015748031497
        },
        {
          "duration": 0.07692300000000785,
          "durationTicks": 64,
          "midi": 52,
          "name": "E3",
          "ticks": 105928,
          "time": 127.31718037499998,
          "velocity": 0.7874015748031497
        },
        {
          "duration": 0.07692299999999364,
          "durationTicks": 64,
          "midi": 52,
          "name": "E3",
          "ticks": 105992,
          "time": 127.39410337499999,
          "velocity": 0.7874015748031497
        },
        {
          "duration": 0.07692300000000785,
          "durationTicks": 64,
          "midi": 52,
          "name": "E3",
          "ticks": 106056,
          "time": 127.47102637499998,
          "velocity": 0.7874015748031497
        },
        {
          "duration": 0.07692299999999364,
          "durationTicks": 64,
          "midi": 52,
          "name": "E3",
          "ticks": 106120,
          "time": 127.54794937499999,
          "velocity": 0.7874015748031497
        },
        {
          "duration": 0.07692300000000785,
          "durationTicks": 64,
          "midi": 52,
          "name": "E3",
          "ticks": 106184,
          "time": 127.62487237499998,
          "velocity": 0.7874015748031497
        },
        {
          "duration": 0.07692299999999364,
          "durationTicks": 64,
          "midi": 52,
          "name": "E3",
          "ticks": 106248,
          "time": 127.70179537499999,
          "velocity": 0.7874015748031497
        },
        {
          "duration": 0.07692299999999364,
          "durationTicks": 64,
          "midi": 52,
          "name": "E3",
          "ticks": 106312,
          "time": 127.77871837499998,
          "velocity": 0.7874015748031497
        },
        {
          "duration": 0.07692300000000785,
          "durationTicks": 64,
          "midi": 52,
          "name": "E3",
          "ticks": 106376,
          "time": 127.85564137499998,
          "velocity": 0.7874015748031497
        },
        {
          "duration": 0.07692300000000785,
          "durationTicks": 64,
          "midi": 52,
          "name": "E3",
          "ticks": 106440,
          "time": 127.93256437499998,
          "velocity": 0.7874015748031497
        },
        {
          "duration": 0.07692299999999364,
          "durationTicks": 64,
          "midi": 52,
          "name": "E3",
          "ticks": 106504,
          "time": 128.009487375,
          "velocity": 0.7874015748031497
        },
        {
          "duration": 0.07692299999999364,
          "durationTicks": 64,
          "midi": 52,
          "name": "E3",
          "ticks": 106568,
          "time": 128.08641037499999,
          "velocity": 0.7874015748031497
        },
        {
          "duration": 0.07692299999999364,
          "durationTicks": 64,
          "midi": 52,
          "name": "E3",
          "ticks": 106632,
          "time": 128.16333337499998,
          "velocity": 0.7874015748031497
        },
        {
          "duration": 0.07692300000002206,
          "durationTicks": 64,
          "midi": 52,
          "name": "E3",
          "ticks": 106696,
          "time": 128.24025637499997,
          "velocity": 0.7874015748031497
        },
        {
          "duration": 0.07692299999999364,
          "durationTicks": 64,
          "midi": 52,
          "name": "E3",
          "ticks": 106760,
          "time": 128.317179375,
          "velocity": 0.7874015748031497
        },
        {
          "duration": 0.07692299999999364,
          "durationTicks": 64,
          "midi": 52,
          "name": "E3",
          "ticks": 106824,
          "time": 128.394102375,
          "velocity": 0.7874015748031497
        },
        {
          "duration": 0.07692299999999364,
          "durationTicks": 64,
          "midi": 52,
          "name": "E3",
          "ticks": 106888,
          "time": 128.47102537499998,
          "velocity": 0.7874015748031497
        },
        {
          "duration": 0.07692300000002206,
          "durationTicks": 64,
          "midi": 52,
          "name": "E3",
          "ticks": 106952,
          "time": 128.54794837499998,
          "velocity": 0.7874015748031497
        },
        {
          "duration": 0.07692299999999364,
          "durationTicks": 64,
          "midi": 52,
          "name": "E3",
          "ticks": 107016,
          "time": 128.624871375,
          "velocity": 0.7874015748031497
        },
        {
          "duration": 0.07692299999999364,
          "durationTicks": 64,
          "midi": 52,
          "name": "E3",
          "ticks": 107080,
          "time": 128.701794375,
          "velocity": 0.7874015748031497
        },
        {
          "duration": 0.30769200000000296,
          "durationTicks": 256,
          "midi": 52,
          "name": "E3",
          "ticks": 107144,
          "time": 128.77871737499999,
          "velocity": 0.7874015748031497
        },
        {
          "duration": 0.6057686249999961,
          "durationTicks": 504,
          "midi": 52,
          "name": "E3",
          "ticks": 107400,
          "time": 129.086409375,
          "velocity": 0.7874015748031497
        },
        {
          "duration": 0.07692299999999364,
          "durationTicks": 64,
          "midi": 52,
          "name": "E3",
          "ticks": 110600,
          "time": 132.93255937499998,
          "velocity": 0.7874015748031497
        },
        {
          "duration": 0.07692299999999364,
          "durationTicks": 64,
          "midi": 52,
          "name": "E3",
          "ticks": 110664,
          "time": 133.00948237499998,
          "velocity": 0.7874015748031497
        },
        {
          "duration": 0.07692300000002206,
          "durationTicks": 64,
          "midi": 52,
          "name": "E3",
          "ticks": 110728,
          "time": 133.08640537499997,
          "velocity": 0.7874015748031497
        },
        {
          "duration": 0.07692299999999364,
          "durationTicks": 64,
          "midi": 52,
          "name": "E3",
          "ticks": 110792,
          "time": 133.163328375,
          "velocity": 0.7874015748031497
        },
        {
          "duration": 0.07692299999999364,
          "durationTicks": 64,
          "midi": 52,
          "name": "E3",
          "ticks": 110856,
          "time": 133.24025137499999,
          "velocity": 0.7874015748031497
        },
        {
          "duration": 0.07692299999999364,
          "durationTicks": 64,
          "midi": 52,
          "name": "E3",
          "ticks": 110920,
          "time": 133.31717437499998,
          "velocity": 0.7874015748031497
        },
        {
          "duration": 0.07692300000002206,
          "durationTicks": 64,
          "midi": 52,
          "name": "E3",
          "ticks": 110984,
          "time": 133.39409737499997,
          "velocity": 0.7874015748031497
        },
        {
          "duration": 0.07692299999999364,
          "durationTicks": 64,
          "midi": 52,
          "name": "E3",
          "ticks": 111048,
          "time": 133.471020375,
          "velocity": 0.7874015748031497
        },
        {
          "duration": 0.07692299999999364,
          "durationTicks": 64,
          "midi": 52,
          "name": "E3",
          "ticks": 111112,
          "time": 133.547943375,
          "velocity": 0.7874015748031497
        },
        {
          "duration": 0.07692299999999364,
          "durationTicks": 64,
          "midi": 52,
          "name": "E3",
          "ticks": 111176,
          "time": 133.62486637499998,
          "velocity": 0.7874015748031497
        },
        {
          "duration": 0.07692300000002206,
          "durationTicks": 64,
          "midi": 52,
          "name": "E3",
          "ticks": 111240,
          "time": 133.70178937499998,
          "velocity": 0.7874015748031497
        },
        {
          "duration": 0.07692299999999364,
          "durationTicks": 64,
          "midi": 52,
          "name": "E3",
          "ticks": 111304,
          "time": 133.778712375,
          "velocity": 0.7874015748031497
        },
        {
          "duration": 0.07692299999999364,
          "durationTicks": 64,
          "midi": 52,
          "name": "E3",
          "ticks": 111368,
          "time": 133.855635375,
          "velocity": 0.7874015748031497
        },
        {
          "duration": 0.07692299999999364,
          "durationTicks": 64,
          "midi": 52,
          "name": "E3",
          "ticks": 111432,
          "time": 133.93255837499999,
          "velocity": 0.7874015748031497
        },
        {
          "duration": 0.07692299999999364,
          "durationTicks": 64,
          "midi": 52,
          "name": "E3",
          "ticks": 111496,
          "time": 134.00948137499998,
          "velocity": 0.7874015748031497
        },
        {
          "duration": 0.07692300000002206,
          "durationTicks": 64,
          "midi": 52,
          "name": "E3",
          "ticks": 111560,
          "time": 134.08640437499997,
          "velocity": 0.7874015748031497
        },
        {
          "duration": 0.07692299999999364,
          "durationTicks": 64,
          "midi": 52,
          "name": "E3",
          "ticks": 111624,
          "time": 134.163327375,
          "velocity": 0.7874015748031497
        },
        {
          "duration": 0.07692299999999364,
          "durationTicks": 64,
          "midi": 52,
          "name": "E3",
          "ticks": 111688,
          "time": 134.240250375,
          "velocity": 0.7874015748031497
        },
        {
          "duration": 0.07692299999999364,
          "durationTicks": 64,
          "midi": 52,
          "name": "E3",
          "ticks": 111752,
          "time": 134.31717337499998,
          "velocity": 0.7874015748031497
        },
        {
          "duration": 0.07692300000002206,
          "durationTicks": 64,
          "midi": 52,
          "name": "E3",
          "ticks": 111816,
          "time": 134.39409637499998,
          "velocity": 0.7874015748031497
        },
        {
          "duration": 0.07692299999999364,
          "durationTicks": 64,
          "midi": 52,
          "name": "E3",
          "ticks": 111880,
          "time": 134.471019375,
          "velocity": 0.7874015748031497
        },
        {
          "duration": 0.07692299999999364,
          "durationTicks": 64,
          "midi": 52,
          "name": "E3",
          "ticks": 111944,
          "time": 134.547942375,
          "velocity": 0.7874015748031497
        },
        {
          "duration": 0.07692299999999364,
          "durationTicks": 64,
          "midi": 52,
          "name": "E3",
          "ticks": 112008,
          "time": 134.62486537499998,
          "velocity": 0.7874015748031497
        },
        {
          "duration": 0.07692299999999364,
          "durationTicks": 64,
          "midi": 52,
          "name": "E3",
          "ticks": 112072,
          "time": 134.70178837499998,
          "velocity": 0.7874015748031497
        },
        {
          "duration": 0.07692300000002206,
          "durationTicks": 64,
          "midi": 52,
          "name": "E3",
          "ticks": 112136,
          "time": 134.77871137499997,
          "velocity": 0.7874015748031497
        },
        {
          "duration": 0.07692299999999364,
          "durationTicks": 64,
          "midi": 52,
          "name": "E3",
          "ticks": 112200,
          "time": 134.855634375,
          "velocity": 0.7874015748031497
        },
        {
          "duration": 0.07692299999999364,
          "durationTicks": 64,
          "midi": 52,
          "name": "E3",
          "ticks": 112264,
          "time": 134.932557375,
          "velocity": 0.7874015748031497
        },
        {
          "duration": 0.07692299999999364,
          "durationTicks": 64,
          "midi": 52,
          "name": "E3",
          "ticks": 112328,
          "time": 135.00948037499998,
          "velocity": 0.7874015748031497
        },
        {
          "duration": 0.07692300000002206,
          "durationTicks": 64,
          "midi": 52,
          "name": "E3",
          "ticks": 112392,
          "time": 135.08640337499997,
          "velocity": 0.7874015748031497
        },
        {
          "duration": 0.07692299999999364,
          "durationTicks": 64,
          "midi": 52,
          "name": "E3",
          "ticks": 112456,
          "time": 135.163326375,
          "velocity": 0.7874015748031497
        },
        {
          "duration": 0.07692299999999364,
          "durationTicks": 64,
          "midi": 52,
          "name": "E3",
          "ticks": 112520,
          "time": 135.240249375,
          "velocity": 0.7874015748031497
        },
        {
          "duration": 0.07692299999999364,
          "durationTicks": 64,
          "midi": 52,
          "name": "E3",
          "ticks": 112584,
          "time": 135.31717237499998,
          "velocity": 0.7874015748031497
        },
        {
          "duration": 0.07692299999999364,
          "durationTicks": 64,
          "midi": 52,
          "name": "E3",
          "ticks": 112648,
          "time": 135.39409537499998,
          "velocity": 0.7874015748031497
        },
        {
          "duration": 0.07692300000002206,
          "durationTicks": 64,
          "midi": 52,
          "name": "E3",
          "ticks": 112712,
          "time": 135.47101837499997,
          "velocity": 0.7874015748031497
        },
        {
          "duration": 0.07692299999999364,
          "durationTicks": 64,
          "midi": 52,
          "name": "E3",
          "ticks": 112776,
          "time": 135.547941375,
          "velocity": 0.7874015748031497
        },
        {
          "duration": 0.07692299999999364,
          "durationTicks": 64,
          "midi": 52,
          "name": "E3",
          "ticks": 112840,
          "time": 135.624864375,
          "velocity": 0.7874015748031497
        },
        {
          "duration": 0.07692299999999364,
          "durationTicks": 64,
          "midi": 52,
          "name": "E3",
          "ticks": 112904,
          "time": 135.70178737499998,
          "velocity": 0.7874015748031497
        },
        {
          "duration": 0.07692299999999364,
          "durationTicks": 64,
          "midi": 52,
          "name": "E3",
          "ticks": 112968,
          "time": 135.77871037499997,
          "velocity": 0.7874015748031497
        },
        {
          "duration": 0.07692300000002206,
          "durationTicks": 64,
          "midi": 52,
          "name": "E3",
          "ticks": 113032,
          "time": 135.85563337499997,
          "velocity": 0.7874015748031497
        },
        {
          "duration": 0.07692299999999364,
          "durationTicks": 64,
          "midi": 52,
          "name": "E3",
          "ticks": 113096,
          "time": 135.932556375,
          "velocity": 0.7874015748031497
        },
        {
          "duration": 0.07692299999999364,
          "durationTicks": 64,
          "midi": 52,
          "name": "E3",
          "ticks": 113160,
          "time": 136.00947937499998,
          "velocity": 0.7874015748031497
        },
        {
          "duration": 0.07692299999999364,
          "durationTicks": 64,
          "midi": 52,
          "name": "E3",
          "ticks": 113224,
          "time": 136.08640237499998,
          "velocity": 0.7874015748031497
        },
        {
          "duration": 0.30769200000000296,
          "durationTicks": 256,
          "midi": 52,
          "name": "E3",
          "ticks": 113288,
          "time": 136.16332537499997,
          "velocity": 0.7874015748031497
        },
        {
          "duration": 0.6153840000000059,
          "durationTicks": 512,
          "midi": 52,
          "name": "E3",
          "ticks": 113544,
          "time": 136.47101737499997,
          "velocity": 0.7874015748031497
        },
        {
          "duration": 0.07692299999999364,
          "durationTicks": 64,
          "midi": 52,
          "name": "E3",
          "ticks": 161288,
          "time": 193.85557537499997,
          "velocity": 0.7874015748031497
        },
        {
          "duration": 0.07692300000002206,
          "durationTicks": 64,
          "midi": 52,
          "name": "E3",
          "ticks": 161352,
          "time": 193.93249837499997,
          "velocity": 0.7874015748031497
        },
        {
          "duration": 0.07692299999999364,
          "durationTicks": 64,
          "midi": 52,
          "name": "E3",
          "ticks": 161416,
          "time": 194.009421375,
          "velocity": 0.7874015748031497
        },
        {
          "duration": 0.07692299999999364,
          "durationTicks": 64,
          "midi": 52,
          "name": "E3",
          "ticks": 161480,
          "time": 194.08634437499998,
          "velocity": 0.7874015748031497
        },
        {
          "duration": 0.07692299999999364,
          "durationTicks": 64,
          "midi": 52,
          "name": "E3",
          "ticks": 161544,
          "time": 194.16326737499998,
          "velocity": 0.7874015748031497
        },
        {
          "duration": 0.07692299999999364,
          "durationTicks": 64,
          "midi": 52,
          "name": "E3",
          "ticks": 161608,
          "time": 194.24019037499997,
          "velocity": 0.7874015748031497
        },
        {
          "duration": 0.07692300000002206,
          "durationTicks": 64,
          "midi": 52,
          "name": "E3",
          "ticks": 161672,
          "time": 194.31711337499996,
          "velocity": 0.7874015748031497
        },
        {
          "duration": 0.07692299999999364,
          "durationTicks": 64,
          "midi": 52,
          "name": "E3",
          "ticks": 161736,
          "time": 194.39403637499998,
          "velocity": 0.7874015748031497
        },
        {
          "duration": 0.07692299999999364,
          "durationTicks": 64,
          "midi": 52,
          "name": "E3",
          "ticks": 161800,
          "time": 194.47095937499998,
          "velocity": 0.7874015748031497
        },
        {
          "duration": 0.07692299999999364,
          "durationTicks": 64,
          "midi": 52,
          "name": "E3",
          "ticks": 161864,
          "time": 194.54788237499997,
          "velocity": 0.7874015748031497
        },
        {
          "duration": 0.07692300000002206,
          "durationTicks": 64,
          "midi": 52,
          "name": "E3",
          "ticks": 161928,
          "time": 194.62480537499997,
          "velocity": 0.7874015748031497
        },
        {
          "duration": 0.07692299999999364,
          "durationTicks": 64,
          "midi": 52,
          "name": "E3",
          "ticks": 161992,
          "time": 194.701728375,
          "velocity": 0.7874015748031497
        },
        {
          "duration": 0.07692299999999364,
          "durationTicks": 64,
          "midi": 52,
          "name": "E3",
          "ticks": 162056,
          "time": 194.77865137499998,
          "velocity": 0.7874015748031497
        },
        {
          "duration": 0.07692299999999364,
          "durationTicks": 64,
          "midi": 52,
          "name": "E3",
          "ticks": 162120,
          "time": 194.85557437499997,
          "velocity": 0.7874015748031497
        },
        {
          "duration": 0.07692300000002206,
          "durationTicks": 64,
          "midi": 52,
          "name": "E3",
          "ticks": 162184,
          "time": 194.93249737499997,
          "velocity": 0.7874015748031497
        },
        {
          "duration": 0.07692299999999364,
          "durationTicks": 64,
          "midi": 52,
          "name": "E3",
          "ticks": 162248,
          "time": 195.009420375,
          "velocity": 0.7874015748031497
        },
        {
          "duration": 0.07692299999999364,
          "durationTicks": 64,
          "midi": 52,
          "name": "E3",
          "ticks": 162312,
          "time": 195.08634337499998,
          "velocity": 0.7874015748031497
        },
        {
          "duration": 0.07692299999999364,
          "durationTicks": 64,
          "midi": 52,
          "name": "E3",
          "ticks": 162376,
          "time": 195.16326637499998,
          "velocity": 0.7874015748031497
        },
        {
          "duration": 0.07692299999999364,
          "durationTicks": 64,
          "midi": 52,
          "name": "E3",
          "ticks": 162440,
          "time": 195.24018937499997,
          "velocity": 0.7874015748031497
        },
        {
          "duration": 0.07692300000002206,
          "durationTicks": 64,
          "midi": 52,
          "name": "E3",
          "ticks": 162504,
          "time": 195.31711237499997,
          "velocity": 0.7874015748031497
        },
        {
          "duration": 0.07692299999999364,
          "durationTicks": 64,
          "midi": 52,
          "name": "E3",
          "ticks": 162568,
          "time": 195.394035375,
          "velocity": 0.7874015748031497
        },
        {
          "duration": 0.07692299999999364,
          "durationTicks": 64,
          "midi": 52,
          "name": "E3",
          "ticks": 162632,
          "time": 195.47095837499998,
          "velocity": 0.7874015748031497
        },
        {
          "duration": 0.07692299999999364,
          "durationTicks": 64,
          "midi": 52,
          "name": "E3",
          "ticks": 162696,
          "time": 195.54788137499997,
          "velocity": 0.7874015748031497
        },
        {
          "duration": 0.07692300000002206,
          "durationTicks": 64,
          "midi": 52,
          "name": "E3",
          "ticks": 162760,
          "time": 195.62480437499997,
          "velocity": 0.7874015748031497
        },
        {
          "duration": 0.07692299999999364,
          "durationTicks": 64,
          "midi": 52,
          "name": "E3",
          "ticks": 162824,
          "time": 195.701727375,
          "velocity": 0.7874015748031497
        },
        {
          "duration": 0.07692299999999364,
          "durationTicks": 64,
          "midi": 52,
          "name": "E3",
          "ticks": 162888,
          "time": 195.77865037499998,
          "velocity": 0.7874015748031497
        },
        {
          "duration": 0.07692299999999364,
          "durationTicks": 64,
          "midi": 52,
          "name": "E3",
          "ticks": 162952,
          "time": 195.85557337499998,
          "velocity": 0.7874015748031497
        },
        {
          "duration": 0.07692300000002206,
          "durationTicks": 64,
          "midi": 52,
          "name": "E3",
          "ticks": 163016,
          "time": 195.93249637499997,
          "velocity": 0.7874015748031497
        },
        {
          "duration": 0.07692299999999364,
          "durationTicks": 64,
          "midi": 52,
          "name": "E3",
          "ticks": 163080,
          "time": 196.009419375,
          "velocity": 0.7874015748031497
        },
        {
          "duration": 0.07692299999999364,
          "durationTicks": 64,
          "midi": 52,
          "name": "E3",
          "ticks": 163144,
          "time": 196.086342375,
          "velocity": 0.7874015748031497
        },
        {
          "duration": 0.07692299999999364,
          "durationTicks": 64,
          "midi": 52,
          "name": "E3",
          "ticks": 163208,
          "time": 196.16326537499998,
          "velocity": 0.7874015748031497
        },
        {
          "duration": 0.07692299999999364,
          "durationTicks": 64,
          "midi": 52,
          "name": "E3",
          "ticks": 163272,
          "time": 196.24018837499997,
          "velocity": 0.7874015748031497
        },
        {
          "duration": 0.07692300000002206,
          "durationTicks": 64,
          "midi": 52,
          "name": "E3",
          "ticks": 163336,
          "time": 196.31711137499997,
          "velocity": 0.7874015748031497
        },
        {
          "duration": 0.07692299999999364,
          "durationTicks": 64,
          "midi": 52,
          "name": "E3",
          "ticks": 163400,
          "time": 196.394034375,
          "velocity": 0.7874015748031497
        },
        {
          "duration": 0.07692299999999364,
          "durationTicks": 64,
          "midi": 52,
          "name": "E3",
          "ticks": 163464,
          "time": 196.47095737499998,
          "velocity": 0.7874015748031497
        },
        {
          "duration": 0.07692299999999364,
          "durationTicks": 64,
          "midi": 52,
          "name": "E3",
          "ticks": 163528,
          "time": 196.54788037499998,
          "velocity": 0.7874015748031497
        },
        {
          "duration": 0.07692300000002206,
          "durationTicks": 64,
          "midi": 52,
          "name": "E3",
          "ticks": 163592,
          "time": 196.62480337499997,
          "velocity": 0.7874015748031497
        },
        {
          "duration": 0.07692299999999364,
          "durationTicks": 64,
          "midi": 52,
          "name": "E3",
          "ticks": 163656,
          "time": 196.701726375,
          "velocity": 0.7874015748031497
        },
        {
          "duration": 0.07692299999999364,
          "durationTicks": 64,
          "midi": 52,
          "name": "E3",
          "ticks": 163720,
          "time": 196.778649375,
          "velocity": 0.7874015748031497
        },
        {
          "duration": 0.07692299999999364,
          "durationTicks": 64,
          "midi": 52,
          "name": "E3",
          "ticks": 163784,
          "time": 196.85557237499998,
          "velocity": 0.7874015748031497
        },
        {
          "duration": 0.07692299999999364,
          "durationTicks": 64,
          "midi": 52,
          "name": "E3",
          "ticks": 163848,
          "time": 196.93249537499997,
          "velocity": 0.7874015748031497
        },
        {
          "duration": 0.07692300000002206,
          "durationTicks": 64,
          "midi": 52,
          "name": "E3",
          "ticks": 163912,
          "time": 197.00941837499997,
          "velocity": 0.7874015748031497
        },
        {
          "duration": 0.30769200000000296,
          "durationTicks": 256,
          "midi": 52,
          "name": "E3",
          "ticks": 163976,
          "time": 197.086341375,
          "velocity": 0.7874015748031497
        },
        {
          "duration": 0.6057686249999961,
          "durationTicks": 504,
          "midi": 52,
          "name": "E3",
          "ticks": 164232,
          "time": 197.394033375,
          "velocity": 0.7874015748031497
        },
        {
          "duration": 0.07692299999999364,
          "durationTicks": 64,
          "midi": 52,
          "name": "E3",
          "ticks": 167432,
          "time": 201.240183375,
          "velocity": 0.7874015748031497
        },
        {
          "duration": 0.07692299999999364,
          "durationTicks": 64,
          "midi": 52,
          "name": "E3",
          "ticks": 167496,
          "time": 201.31710637499998,
          "velocity": 0.7874015748031497
        },
        {
          "duration": 0.07692299999999364,
          "durationTicks": 64,
          "midi": 52,
          "name": "E3",
          "ticks": 167560,
          "time": 201.39402937499997,
          "velocity": 0.7874015748031497
        },
        {
          "duration": 0.07692300000002206,
          "durationTicks": 64,
          "midi": 52,
          "name": "E3",
          "ticks": 167624,
          "time": 201.47095237499997,
          "velocity": 0.7874015748031497
        },
        {
          "duration": 0.07692299999999364,
          "durationTicks": 64,
          "midi": 52,
          "name": "E3",
          "ticks": 167688,
          "time": 201.547875375,
          "velocity": 0.7874015748031497
        },
        {
          "duration": 0.07692299999999364,
          "durationTicks": 64,
          "midi": 52,
          "name": "E3",
          "ticks": 167752,
          "time": 201.62479837499998,
          "velocity": 0.7874015748031497
        },
        {
          "duration": 0.07692299999999364,
          "durationTicks": 64,
          "midi": 52,
          "name": "E3",
          "ticks": 167816,
          "time": 201.70172137499998,
          "velocity": 0.7874015748031497
        },
        {
          "duration": 0.07692300000002206,
          "durationTicks": 64,
          "midi": 52,
          "name": "E3",
          "ticks": 167880,
          "time": 201.77864437499997,
          "velocity": 0.7874015748031497
        },
        {
          "duration": 0.07692299999999364,
          "durationTicks": 64,
          "midi": 52,
          "name": "E3",
          "ticks": 167944,
          "time": 201.855567375,
          "velocity": 0.7874015748031497
        },
        {
          "duration": 0.07692299999999364,
          "durationTicks": 64,
          "midi": 52,
          "name": "E3",
          "ticks": 168008,
          "time": 201.932490375,
          "velocity": 0.7874015748031497
        },
        {
          "duration": 0.07692299999999364,
          "durationTicks": 64,
          "midi": 52,
          "name": "E3",
          "ticks": 168072,
          "time": 202.00941337499998,
          "velocity": 0.7874015748031497
        },
        {
          "duration": 0.07692299999999364,
          "durationTicks": 64,
          "midi": 52,
          "name": "E3",
          "ticks": 168136,
          "time": 202.08633637499997,
          "velocity": 0.7874015748031497
        },
        {
          "duration": 0.07692300000002206,
          "durationTicks": 64,
          "midi": 52,
          "name": "E3",
          "ticks": 168200,
          "time": 202.16325937499997,
          "velocity": 0.7874015748031497
        },
        {
          "duration": 0.07692299999999364,
          "durationTicks": 64,
          "midi": 52,
          "name": "E3",
          "ticks": 168264,
          "time": 202.240182375,
          "velocity": 0.7874015748031497
        },
        {
          "duration": 0.07692299999999364,
          "durationTicks": 64,
          "midi": 52,
          "name": "E3",
          "ticks": 168328,
          "time": 202.31710537499998,
          "velocity": 0.7874015748031497
        },
        {
          "duration": 0.07692299999999364,
          "durationTicks": 64,
          "midi": 52,
          "name": "E3",
          "ticks": 168392,
          "time": 202.39402837499998,
          "velocity": 0.7874015748031497
        },
        {
          "duration": 0.07692300000002206,
          "durationTicks": 64,
          "midi": 52,
          "name": "E3",
          "ticks": 168456,
          "time": 202.47095137499997,
          "velocity": 0.7874015748031497
        },
        {
          "duration": 0.07692299999999364,
          "durationTicks": 64,
          "midi": 52,
          "name": "E3",
          "ticks": 168520,
          "time": 202.547874375,
          "velocity": 0.7874015748031497
        },
        {
          "duration": 0.07692299999999364,
          "durationTicks": 64,
          "midi": 52,
          "name": "E3",
          "ticks": 168584,
          "time": 202.62479737499999,
          "velocity": 0.7874015748031497
        },
        {
          "duration": 0.07692299999999364,
          "durationTicks": 64,
          "midi": 52,
          "name": "E3",
          "ticks": 168648,
          "time": 202.70172037499998,
          "velocity": 0.7874015748031497
        },
        {
          "duration": 0.07692299999999364,
          "durationTicks": 64,
          "midi": 52,
          "name": "E3",
          "ticks": 168712,
          "time": 202.77864337499997,
          "velocity": 0.7874015748031497
        },
        {
          "duration": 0.07692300000002206,
          "durationTicks": 64,
          "midi": 52,
          "name": "E3",
          "ticks": 168776,
          "time": 202.85556637499997,
          "velocity": 0.7874015748031497
        },
        {
          "duration": 0.07692299999999364,
          "durationTicks": 64,
          "midi": 52,
          "name": "E3",
          "ticks": 168840,
          "time": 202.932489375,
          "velocity": 0.7874015748031497
        },
        {
          "duration": 0.07692299999999364,
          "durationTicks": 64,
          "midi": 52,
          "name": "E3",
          "ticks": 168904,
          "time": 203.00941237499998,
          "velocity": 0.7874015748031497
        },
        {
          "duration": 0.07692299999999364,
          "durationTicks": 64,
          "midi": 52,
          "name": "E3",
          "ticks": 168968,
          "time": 203.08633537499998,
          "velocity": 0.7874015748031497
        },
        {
          "duration": 0.07692300000002206,
          "durationTicks": 64,
          "midi": 52,
          "name": "E3",
          "ticks": 169032,
          "time": 203.16325837499997,
          "velocity": 0.7874015748031497
        },
        {
          "duration": 0.07692299999999364,
          "durationTicks": 64,
          "midi": 52,
          "name": "E3",
          "ticks": 169096,
          "time": 203.240181375,
          "velocity": 0.7874015748031497
        },
        {
          "duration": 0.07692299999999364,
          "durationTicks": 64,
          "midi": 52,
          "name": "E3",
          "ticks": 169160,
          "time": 203.31710437499999,
          "velocity": 0.7874015748031497
        },
        {
          "duration": 0.07692299999999364,
          "durationTicks": 64,
          "midi": 52,
          "name": "E3",
          "ticks": 169224,
          "time": 203.39402737499998,
          "velocity": 0.7874015748031497
        },
        {
          "duration": 0.07692299999999364,
          "durationTicks": 64,
          "midi": 52,
          "name": "E3",
          "ticks": 169288,
          "time": 203.47095037499997,
          "velocity": 0.7874015748031497
        },
        {
          "duration": 0.07692300000002206,
          "durationTicks": 64,
          "midi": 52,
          "name": "E3",
          "ticks": 169352,
          "time": 203.54787337499997,
          "velocity": 0.7874015748031497
        },
        {
          "duration": 0.07692299999999364,
          "durationTicks": 64,
          "midi": 52,
          "name": "E3",
          "ticks": 169416,
          "time": 203.624796375,
          "velocity": 0.7874015748031497
        },
        {
          "duration": 0.07692299999999364,
          "durationTicks": 64,
          "midi": 52,
          "name": "E3",
          "ticks": 169480,
          "time": 203.70171937499998,
          "velocity": 0.7874015748031497
        },
        {
          "duration": 0.07692299999999364,
          "durationTicks": 64,
          "midi": 52,
          "name": "E3",
          "ticks": 169544,
          "time": 203.77864237499998,
          "velocity": 0.7874015748031497
        },
        {
          "duration": 0.07692300000002206,
          "durationTicks": 64,
          "midi": 52,
          "name": "E3",
          "ticks": 169608,
          "time": 203.85556537499997,
          "velocity": 0.7874015748031497
        },
        {
          "duration": 0.07692299999999364,
          "durationTicks": 64,
          "midi": 52,
          "name": "E3",
          "ticks": 169672,
          "time": 203.932488375,
          "velocity": 0.7874015748031497
        },
        {
          "duration": 0.07692299999999364,
          "durationTicks": 64,
          "midi": 52,
          "name": "E3",
          "ticks": 169736,
          "time": 204.00941137499998,
          "velocity": 0.7874015748031497
        },
        {
          "duration": 0.07692299999999364,
          "durationTicks": 64,
          "midi": 52,
          "name": "E3",
          "ticks": 169800,
          "time": 204.08633437499998,
          "velocity": 0.7874015748031497
        },
        {
          "duration": 0.07692299999999364,
          "durationTicks": 64,
          "midi": 52,
          "name": "E3",
          "ticks": 169864,
          "time": 204.16325737499997,
          "velocity": 0.7874015748031497
        },
        {
          "duration": 0.07692300000002206,
          "durationTicks": 64,
          "midi": 52,
          "name": "E3",
          "ticks": 169928,
          "time": 204.24018037499997,
          "velocity": 0.7874015748031497
        },
        {
          "duration": 0.07692299999999364,
          "durationTicks": 64,
          "midi": 52,
          "name": "E3",
          "ticks": 169992,
          "time": 204.317103375,
          "velocity": 0.7874015748031497
        },
        {
          "duration": 0.07692299999999364,
          "durationTicks": 64,
          "midi": 52,
          "name": "E3",
          "ticks": 170056,
          "time": 204.39402637499998,
          "velocity": 0.7874015748031497
        },
        {
          "duration": 0.30769200000000296,
          "durationTicks": 256,
          "midi": 52,
          "name": "E3",
          "ticks": 170120,
          "time": 204.47094937499998,
          "velocity": 0.7874015748031497
        },
        {
          "duration": 0.6153840000000059,
          "durationTicks": 512,
          "midi": 52,
          "name": "E3",
          "ticks": 170376,
          "time": 204.77864137499998,
          "velocity": 0.7874015748031497
        }
      ]
    },
    {
      "channel": 0,
      "controlChanges": {
        "0": [
          {
            "number": 0,
            "ticks": 0,
            "time": 0,
            "value": 0
          }
        ]
      },
      "pitchBends": [],
      "instrument": {
        "family": "piano",
        "number": 0,
        "name": "acoustic grand piano"
      },
      "name": "",
      "notes": []
    },
    {
      "channel": 11,
      "controlChanges": {
        "7": [
          {
            "number": 7,
            "ticks": 0,
            "time": 0,
            "value": 0.47244094488188976
          }
        ],
        "10": [
          {
            "number": 10,
            "ticks": 0,
            "time": 0,
            "value": 0.9448818897637795
          }
        ]
      },
      "pitchBends": [
        {
          "ticks": 6288,
          "time": 7.557684749999999,
          "value": -0.203125
        },
        {
          "ticks": 6288,
          "time": 7.557684749999999,
          "value": -0.203125
        },
        {
          "ticks": 6292,
          "time": 7.5624924374999996,
          "value": -0.171875
        },
        {
          "ticks": 6292,
          "time": 7.5624924374999996,
          "value": -0.171875
        },
        {
          "ticks": 6304,
          "time": 7.5769155,
          "value": -0.140625
        },
        {
          "ticks": 6304,
          "time": 7.5769155,
          "value": -0.140625
        },
        {
          "ticks": 6308,
          "time": 7.581723187499999,
          "value": -0.109375
        },
        {
          "ticks": 6308,
          "time": 7.581723187499999,
          "value": -0.109375
        },
        {
          "ticks": 6320,
          "time": 7.5961462499999985,
          "value": -0.078125
        },
        {
          "ticks": 6320,
          "time": 7.5961462499999985,
          "value": -0.078125
        },
        {
          "ticks": 6324,
          "time": 7.600953937499999,
          "value": -0.046875
        },
        {
          "ticks": 6324,
          "time": 7.600953937499999,
          "value": -0.046875
        },
        {
          "ticks": 6336,
          "time": 7.615376999999999,
          "value": -0.015625
        },
        {
          "ticks": 6336,
          "time": 7.615376999999999,
          "value": -0.015625
        },
        {
          "ticks": 6340,
          "time": 7.6201846875,
          "value": 0.015625
        },
        {
          "ticks": 6340,
          "time": 7.6201846875,
          "value": 0.015625
        },
        {
          "ticks": 9360,
          "time": 11.249988749999998,
          "value": -0.203125
        },
        {
          "ticks": 9364,
          "time": 11.2547964375,
          "value": -0.171875
        },
        {
          "ticks": 9376,
          "time": 11.2692195,
          "value": -0.140625
        },
        {
          "ticks": 9380,
          "time": 11.274027187499998,
          "value": -0.109375
        },
        {
          "ticks": 9392,
          "time": 11.288450249999999,
          "value": -0.078125
        },
        {
          "ticks": 9396,
          "time": 11.293257937499998,
          "value": -0.046875
        },
        {
          "ticks": 9408,
          "time": 11.307680999999999,
          "value": -0.015625
        },
        {
          "ticks": 9412,
          "time": 11.3124886875,
          "value": 0.015625
        },
        {
          "ticks": 12432,
          "time": 14.942292749999998,
          "value": -0.203125
        },
        {
          "ticks": 12436,
          "time": 14.947100437499998,
          "value": -0.171875
        },
        {
          "ticks": 12448,
          "time": 14.961523499999997,
          "value": -0.140625
        },
        {
          "ticks": 12452,
          "time": 14.9663311875,
          "value": -0.109375
        },
        {
          "ticks": 12464,
          "time": 14.980754249999999,
          "value": -0.078125
        },
        {
          "ticks": 12468,
          "time": 14.985561937499998,
          "value": -0.046875
        },
        {
          "ticks": 12480,
          "time": 14.999984999999999,
          "value": -0.015625
        },
        {
          "ticks": 12484,
          "time": 15.004792687499997,
          "value": 0.015625
        },
        {
          "ticks": 15504,
          "time": 18.634596749999996,
          "value": -0.203125
        },
        {
          "ticks": 15508,
          "time": 18.639404437499998,
          "value": -0.171875
        },
        {
          "ticks": 15520,
          "time": 18.6538275,
          "value": -0.140625
        },
        {
          "ticks": 15524,
          "time": 18.6586351875,
          "value": -0.109375
        },
        {
          "ticks": 15536,
          "time": 18.67305825,
          "value": -0.078125
        },
        {
          "ticks": 15540,
          "time": 18.6778659375,
          "value": -0.046875
        },
        {
          "ticks": 15552,
          "time": 18.692289,
          "value": -0.015625
        },
        {
          "ticks": 15556,
          "time": 18.697096687499997,
          "value": 0.015625
        },
        {
          "ticks": 18576,
          "time": 22.326900749999997,
          "value": -0.203125
        },
        {
          "ticks": 18580,
          "time": 22.331708437499998,
          "value": -0.171875
        },
        {
          "ticks": 18592,
          "time": 22.346131499999995,
          "value": -0.140625
        },
        {
          "ticks": 18596,
          "time": 22.3509391875,
          "value": -0.109375
        },
        {
          "ticks": 18608,
          "time": 22.365362249999997,
          "value": -0.078125
        },
        {
          "ticks": 18612,
          "time": 22.3701699375,
          "value": -0.046875
        },
        {
          "ticks": 18624,
          "time": 22.384593,
          "value": -0.015625
        },
        {
          "ticks": 18628,
          "time": 22.389400687499997,
          "value": 0.015625
        },
        {
          "ticks": 21648,
          "time": 26.019204749999997,
          "value": -0.203125
        },
        {
          "ticks": 21652,
          "time": 26.024012437499994,
          "value": -0.171875
        },
        {
          "ticks": 21664,
          "time": 26.038435499999995,
          "value": -0.140625
        },
        {
          "ticks": 21668,
          "time": 26.0432431875,
          "value": -0.109375
        },
        {
          "ticks": 21680,
          "time": 26.057666249999997,
          "value": -0.078125
        },
        {
          "ticks": 21684,
          "time": 26.0624739375,
          "value": -0.046875
        },
        {
          "ticks": 21696,
          "time": 26.076896999999995,
          "value": -0.015625
        },
        {
          "ticks": 21700,
          "time": 26.081704687499997,
          "value": 0.015625
        },
        {
          "ticks": 24720,
          "time": 29.711508749999997,
          "value": -0.203125
        },
        {
          "ticks": 24724,
          "time": 29.716316437499998,
          "value": -0.171875
        },
        {
          "ticks": 24736,
          "time": 29.7307395,
          "value": -0.140625
        },
        {
          "ticks": 24740,
          "time": 29.735547187499993,
          "value": -0.109375
        },
        {
          "ticks": 24752,
          "time": 29.749970249999993,
          "value": -0.078125
        },
        {
          "ticks": 24756,
          "time": 29.7547779375,
          "value": -0.046875
        },
        {
          "ticks": 24768,
          "time": 29.769200999999995,
          "value": -0.015625
        },
        {
          "ticks": 24772,
          "time": 29.7740086875,
          "value": 0.015625
        },
        {
          "ticks": 27792,
          "time": 33.40381274999999,
          "value": -0.203125
        },
        {
          "ticks": 27796,
          "time": 33.4086204375,
          "value": -0.171875
        },
        {
          "ticks": 27808,
          "time": 33.4230435,
          "value": -0.140625
        },
        {
          "ticks": 27812,
          "time": 33.427851187499996,
          "value": -0.109375
        },
        {
          "ticks": 27824,
          "time": 33.44227425,
          "value": -0.078125
        },
        {
          "ticks": 27828,
          "time": 33.447081937499995,
          "value": -0.046875
        },
        {
          "ticks": 27840,
          "time": 33.461504999999995,
          "value": -0.015625
        },
        {
          "ticks": 27844,
          "time": 33.4663126875,
          "value": 0.015625
        },
        {
          "ticks": 30864,
          "time": 37.09611674999999,
          "value": -0.203125
        },
        {
          "ticks": 30868,
          "time": 37.1009244375,
          "value": -0.171875
        },
        {
          "ticks": 30880,
          "time": 37.1153475,
          "value": -0.140625
        },
        {
          "ticks": 30884,
          "time": 37.120155187499996,
          "value": -0.109375
        },
        {
          "ticks": 30896,
          "time": 37.13457825,
          "value": -0.078125
        },
        {
          "ticks": 30900,
          "time": 37.139385937499995,
          "value": -0.046875
        },
        {
          "ticks": 30912,
          "time": 37.153808999999995,
          "value": -0.015625
        },
        {
          "ticks": 30916,
          "time": 37.1586166875,
          "value": 0.015625
        },
        {
          "ticks": 53904,
          "time": 64.78839674999999,
          "value": -0.203125
        },
        {
          "ticks": 53908,
          "time": 64.7932044375,
          "value": -0.171875
        },
        {
          "ticks": 53920,
          "time": 64.8076275,
          "value": -0.140625
        },
        {
          "ticks": 53924,
          "time": 64.8124351875,
          "value": -0.109375
        },
        {
          "ticks": 53936,
          "time": 64.82685824999999,
          "value": -0.078125
        },
        {
          "ticks": 53940,
          "time": 64.83166593749999,
          "value": -0.046875
        },
        {
          "ticks": 53952,
          "time": 64.84608899999999,
          "value": -0.015625
        },
        {
          "ticks": 53956,
          "time": 64.85089668749998,
          "value": 0.015625
        },
        {
          "ticks": 56976,
          "time": 68.48070074999998,
          "value": -0.203125
        },
        {
          "ticks": 56980,
          "time": 68.48550843749999,
          "value": -0.171875
        },
        {
          "ticks": 56992,
          "time": 68.49993149999999,
          "value": -0.140625
        },
        {
          "ticks": 56996,
          "time": 68.5047391875,
          "value": -0.109375
        },
        {
          "ticks": 57008,
          "time": 68.51916225,
          "value": -0.078125
        },
        {
          "ticks": 57012,
          "time": 68.5239699375,
          "value": -0.046875
        },
        {
          "ticks": 57024,
          "time": 68.53839299999999,
          "value": -0.015625
        },
        {
          "ticks": 57028,
          "time": 68.54320068749999,
          "value": 0.015625
        },
        {
          "ticks": 60048,
          "time": 72.17300474999999,
          "value": -0.203125
        },
        {
          "ticks": 60052,
          "time": 72.1778124375,
          "value": -0.171875
        },
        {
          "ticks": 60064,
          "time": 72.19223549999998,
          "value": -0.140625
        },
        {
          "ticks": 60068,
          "time": 72.19704318749999,
          "value": -0.109375
        },
        {
          "ticks": 60080,
          "time": 72.21146624999999,
          "value": -0.078125
        },
        {
          "ticks": 60084,
          "time": 72.21627393749999,
          "value": -0.046875
        },
        {
          "ticks": 60096,
          "time": 72.23069699999999,
          "value": -0.015625
        },
        {
          "ticks": 60100,
          "time": 72.2355046875,
          "value": 0.015625
        },
        {
          "ticks": 63120,
          "time": 75.86530875,
          "value": -0.203125
        },
        {
          "ticks": 63124,
          "time": 75.87011643749999,
          "value": -0.171875
        },
        {
          "ticks": 63136,
          "time": 75.88453949999999,
          "value": -0.140625
        },
        {
          "ticks": 63140,
          "time": 75.8893471875,
          "value": -0.109375
        },
        {
          "ticks": 63152,
          "time": 75.90377025,
          "value": -0.078125
        },
        {
          "ticks": 63156,
          "time": 75.90857793749998,
          "value": -0.046875
        },
        {
          "ticks": 63168,
          "time": 75.92300099999999,
          "value": -0.015625
        },
        {
          "ticks": 63172,
          "time": 75.92780868749999,
          "value": 0.015625
        },
        {
          "ticks": 66192,
          "time": 79.55761274999999,
          "value": -0.203125
        },
        {
          "ticks": 66196,
          "time": 79.5624204375,
          "value": -0.171875
        },
        {
          "ticks": 66208,
          "time": 79.5768435,
          "value": -0.140625
        },
        {
          "ticks": 66212,
          "time": 79.58165118749999,
          "value": -0.109375
        },
        {
          "ticks": 66224,
          "time": 79.59607424999999,
          "value": -0.078125
        },
        {
          "ticks": 66228,
          "time": 79.60088193749999,
          "value": -0.046875
        },
        {
          "ticks": 66240,
          "time": 79.61530499999999,
          "value": -0.015625
        },
        {
          "ticks": 66244,
          "time": 79.6201126875,
          "value": 0.015625
        },
        {
          "ticks": 69264,
          "time": 83.24991674999998,
          "value": -0.203125
        },
        {
          "ticks": 69268,
          "time": 83.25472443749999,
          "value": -0.171875
        },
        {
          "ticks": 69280,
          "time": 83.26914749999999,
          "value": -0.140625
        },
        {
          "ticks": 69284,
          "time": 83.27395518749998,
          "value": -0.109375
        },
        {
          "ticks": 69296,
          "time": 83.28837825,
          "value": -0.078125
        },
        {
          "ticks": 69300,
          "time": 83.2931859375,
          "value": -0.046875
        },
        {
          "ticks": 69312,
          "time": 83.30760899999999,
          "value": -0.015625
        },
        {
          "ticks": 69316,
          "time": 83.31241668749999,
          "value": 0.015625
        },
        {
          "ticks": 72336,
          "time": 86.94222074999999,
          "value": -0.203125
        },
        {
          "ticks": 72340,
          "time": 86.9470284375,
          "value": -0.171875
        },
        {
          "ticks": 72352,
          "time": 86.96145149999998,
          "value": -0.140625
        },
        {
          "ticks": 72356,
          "time": 86.96625918749999,
          "value": -0.109375
        },
        {
          "ticks": 72368,
          "time": 86.98068224999999,
          "value": -0.078125
        },
        {
          "ticks": 72372,
          "time": 86.98548993749999,
          "value": -0.046875
        },
        {
          "ticks": 72384,
          "time": 86.99991299999999,
          "value": -0.015625
        },
        {
          "ticks": 72388,
          "time": 87.0047206875,
          "value": 0.015625
        },
        {
          "ticks": 75408,
          "time": 90.63452475,
          "value": -0.203125
        },
        {
          "ticks": 75412,
          "time": 90.63933243749999,
          "value": -0.171875
        },
        {
          "ticks": 75424,
          "time": 90.65375549999999,
          "value": -0.140625
        },
        {
          "ticks": 75428,
          "time": 90.6585631875,
          "value": -0.109375
        },
        {
          "ticks": 75440,
          "time": 90.67298624999998,
          "value": -0.078125
        },
        {
          "ticks": 75444,
          "time": 90.67779393749998,
          "value": -0.046875
        },
        {
          "ticks": 75456,
          "time": 90.69221699999999,
          "value": -0.015625
        },
        {
          "ticks": 75460,
          "time": 90.69702468749999,
          "value": 0.015625
        },
        {
          "ticks": 78480,
          "time": 94.32682874999999,
          "value": -0.203125
        },
        {
          "ticks": 78484,
          "time": 94.33163643749998,
          "value": -0.171875
        },
        {
          "ticks": 78496,
          "time": 94.3460595,
          "value": -0.140625
        },
        {
          "ticks": 78500,
          "time": 94.35086718749999,
          "value": -0.109375
        },
        {
          "ticks": 78512,
          "time": 94.36529024999999,
          "value": -0.078125
        },
        {
          "ticks": 78516,
          "time": 94.37009793749999,
          "value": -0.046875
        },
        {
          "ticks": 78528,
          "time": 94.38452099999998,
          "value": -0.015625
        },
        {
          "ticks": 78532,
          "time": 94.38932868749998,
          "value": 0.015625
        },
        {
          "ticks": 101520,
          "time": 122.01910874999999,
          "value": -0.203125
        },
        {
          "ticks": 101524,
          "time": 122.02391643749999,
          "value": -0.171875
        },
        {
          "ticks": 101536,
          "time": 122.03833949999998,
          "value": -0.140625
        },
        {
          "ticks": 101540,
          "time": 122.04314718749998,
          "value": -0.109375
        },
        {
          "ticks": 101552,
          "time": 122.05757024999998,
          "value": -0.078125
        },
        {
          "ticks": 101556,
          "time": 122.06237793749999,
          "value": -0.046875
        },
        {
          "ticks": 101568,
          "time": 122.07680099999999,
          "value": -0.015625
        },
        {
          "ticks": 101572,
          "time": 122.08160868749998,
          "value": 0.015625
        },
        {
          "ticks": 104592,
          "time": 125.71141274999998,
          "value": -0.203125
        },
        {
          "ticks": 104596,
          "time": 125.71622043749998,
          "value": -0.171875
        },
        {
          "ticks": 104608,
          "time": 125.73064349999999,
          "value": -0.140625
        },
        {
          "ticks": 104612,
          "time": 125.73545118749999,
          "value": -0.109375
        },
        {
          "ticks": 104624,
          "time": 125.74987424999998,
          "value": -0.078125
        },
        {
          "ticks": 104628,
          "time": 125.75468193749998,
          "value": -0.046875
        },
        {
          "ticks": 104640,
          "time": 125.76910499999998,
          "value": -0.015625
        },
        {
          "ticks": 104644,
          "time": 125.77391268749999,
          "value": 0.015625
        },
        {
          "ticks": 107664,
          "time": 129.40371674999997,
          "value": -0.203125
        },
        {
          "ticks": 107668,
          "time": 129.40852443749998,
          "value": -0.171875
        },
        {
          "ticks": 107680,
          "time": 129.4229475,
          "value": -0.140625
        },
        {
          "ticks": 107684,
          "time": 129.4277551875,
          "value": -0.109375
        },
        {
          "ticks": 107696,
          "time": 129.44217824999998,
          "value": -0.078125
        },
        {
          "ticks": 107700,
          "time": 129.4469859375,
          "value": -0.046875
        },
        {
          "ticks": 107712,
          "time": 129.46140899999997,
          "value": -0.015625
        },
        {
          "ticks": 107716,
          "time": 129.46621668749998,
          "value": 0.015625
        },
        {
          "ticks": 110736,
          "time": 133.09602074999998,
          "value": -0.203125
        },
        {
          "ticks": 110740,
          "time": 133.10082843749998,
          "value": -0.171875
        },
        {
          "ticks": 110752,
          "time": 133.1152515,
          "value": -0.140625
        },
        {
          "ticks": 110756,
          "time": 133.12005918749998,
          "value": -0.109375
        },
        {
          "ticks": 110768,
          "time": 133.13448225,
          "value": -0.078125
        },
        {
          "ticks": 110772,
          "time": 133.1392899375,
          "value": -0.046875
        },
        {
          "ticks": 110784,
          "time": 133.15371299999998,
          "value": -0.015625
        },
        {
          "ticks": 110788,
          "time": 133.1585206875,
          "value": 0.015625
        },
        {
          "ticks": 113808,
          "time": 136.78832475,
          "value": -0.203125
        },
        {
          "ticks": 113812,
          "time": 136.7931324375,
          "value": -0.171875
        },
        {
          "ticks": 113824,
          "time": 136.80755549999998,
          "value": -0.140625
        },
        {
          "ticks": 113828,
          "time": 136.81236318749998,
          "value": -0.109375
        },
        {
          "ticks": 113840,
          "time": 136.82678625,
          "value": -0.078125
        },
        {
          "ticks": 113844,
          "time": 136.83159393749997,
          "value": -0.046875
        },
        {
          "ticks": 113856,
          "time": 136.846017,
          "value": -0.015625
        },
        {
          "ticks": 113860,
          "time": 136.8508246875,
          "value": 0.015625
        },
        {
          "ticks": 116880,
          "time": 140.48062875,
          "value": -0.203125
        },
        {
          "ticks": 116884,
          "time": 140.48543643749997,
          "value": -0.171875
        },
        {
          "ticks": 116896,
          "time": 140.49985949999999,
          "value": -0.140625
        },
        {
          "ticks": 116900,
          "time": 140.5046671875,
          "value": -0.109375
        },
        {
          "ticks": 116912,
          "time": 140.51909024999998,
          "value": -0.078125
        },
        {
          "ticks": 116916,
          "time": 140.52389793749998,
          "value": -0.046875
        },
        {
          "ticks": 116928,
          "time": 140.538321,
          "value": -0.015625
        },
        {
          "ticks": 116932,
          "time": 140.54312868749997,
          "value": 0.015625
        },
        {
          "ticks": 119952,
          "time": 144.17293274999997,
          "value": -0.203125
        },
        {
          "ticks": 119956,
          "time": 144.17774043749998,
          "value": -0.171875
        },
        {
          "ticks": 119968,
          "time": 144.1921635,
          "value": -0.140625
        },
        {
          "ticks": 119972,
          "time": 144.19697118749997,
          "value": -0.109375
        },
        {
          "ticks": 119984,
          "time": 144.21139424999998,
          "value": -0.078125
        },
        {
          "ticks": 119988,
          "time": 144.2162019375,
          "value": -0.046875
        },
        {
          "ticks": 120000,
          "time": 144.23062499999997,
          "value": -0.015625
        },
        {
          "ticks": 120004,
          "time": 144.23543268749998,
          "value": 0.015625
        },
        {
          "ticks": 123024,
          "time": 147.86523674999998,
          "value": -0.203125
        },
        {
          "ticks": 123028,
          "time": 147.87004443749998,
          "value": -0.171875
        },
        {
          "ticks": 123040,
          "time": 147.88446749999997,
          "value": -0.140625
        },
        {
          "ticks": 123044,
          "time": 147.88927518749998,
          "value": -0.109375
        },
        {
          "ticks": 123056,
          "time": 147.90369825,
          "value": -0.078125
        },
        {
          "ticks": 123060,
          "time": 147.90850593749997,
          "value": -0.046875
        },
        {
          "ticks": 123072,
          "time": 147.92292899999998,
          "value": -0.015625
        },
        {
          "ticks": 123076,
          "time": 147.9277366875,
          "value": 0.015625
        },
        {
          "ticks": 126096,
          "time": 151.55754075,
          "value": -0.203125
        },
        {
          "ticks": 126100,
          "time": 151.5623484375,
          "value": -0.171875
        },
        {
          "ticks": 126112,
          "time": 151.57677149999998,
          "value": -0.140625
        },
        {
          "ticks": 126116,
          "time": 151.58157918749998,
          "value": -0.109375
        },
        {
          "ticks": 126128,
          "time": 151.59600224999997,
          "value": -0.078125
        },
        {
          "ticks": 126132,
          "time": 151.60080993749997,
          "value": -0.046875
        },
        {
          "ticks": 126144,
          "time": 151.615233,
          "value": -0.015625
        },
        {
          "ticks": 126148,
          "time": 151.62004068749997,
          "value": 0.015625
        },
        {
          "ticks": 129168,
          "time": 155.24984474999997,
          "value": -0.203125
        },
        {
          "ticks": 129172,
          "time": 155.25465243749997,
          "value": -0.171875
        },
        {
          "ticks": 129184,
          "time": 155.26907549999999,
          "value": -0.140625
        },
        {
          "ticks": 129188,
          "time": 155.2738831875,
          "value": -0.109375
        },
        {
          "ticks": 129200,
          "time": 155.28830624999998,
          "value": -0.078125
        },
        {
          "ticks": 129204,
          "time": 155.29311393749998,
          "value": -0.046875
        },
        {
          "ticks": 129216,
          "time": 155.30753699999997,
          "value": -0.015625
        },
        {
          "ticks": 129220,
          "time": 155.31234468749997,
          "value": 0.015625
        },
        {
          "ticks": 132240,
          "time": 158.94214874999997,
          "value": -0.203125
        },
        {
          "ticks": 132244,
          "time": 158.94695643749998,
          "value": -0.171875
        },
        {
          "ticks": 132256,
          "time": 158.9613795,
          "value": -0.140625
        },
        {
          "ticks": 132260,
          "time": 158.96618718749997,
          "value": -0.109375
        },
        {
          "ticks": 132272,
          "time": 158.98061024999998,
          "value": -0.078125
        },
        {
          "ticks": 132276,
          "time": 158.9854179375,
          "value": -0.046875
        },
        {
          "ticks": 132288,
          "time": 158.99984099999998,
          "value": -0.015625
        },
        {
          "ticks": 132292,
          "time": 159.00464868749998,
          "value": 0.015625
        },
        {
          "ticks": 158352,
          "time": 190.32673274999996,
          "value": -0.203125
        },
        {
          "ticks": 158356,
          "time": 190.33154043749997,
          "value": -0.171875
        },
        {
          "ticks": 158368,
          "time": 190.34596349999998,
          "value": -0.140625
        },
        {
          "ticks": 158372,
          "time": 190.35077118749996,
          "value": -0.109375
        },
        {
          "ticks": 158384,
          "time": 190.36519424999997,
          "value": -0.078125
        },
        {
          "ticks": 158388,
          "time": 190.37000193749998,
          "value": -0.046875
        },
        {
          "ticks": 158400,
          "time": 190.38442499999996,
          "value": -0.015625
        },
        {
          "ticks": 158404,
          "time": 190.38923268749997,
          "value": 0.015625
        },
        {
          "ticks": 161424,
          "time": 194.01903674999997,
          "value": -0.203125
        },
        {
          "ticks": 161428,
          "time": 194.02384443749997,
          "value": -0.171875
        },
        {
          "ticks": 161440,
          "time": 194.03826749999996,
          "value": -0.140625
        },
        {
          "ticks": 161444,
          "time": 194.04307518749997,
          "value": -0.109375
        },
        {
          "ticks": 161456,
          "time": 194.05749824999998,
          "value": -0.078125
        },
        {
          "ticks": 161460,
          "time": 194.06230593749999,
          "value": -0.046875
        },
        {
          "ticks": 161472,
          "time": 194.07672899999997,
          "value": -0.015625
        },
        {
          "ticks": 161476,
          "time": 194.08153668749998,
          "value": 0.015625
        },
        {
          "ticks": 164496,
          "time": 197.71134074999998,
          "value": -0.203125
        },
        {
          "ticks": 164500,
          "time": 197.71614843749998,
          "value": -0.171875
        },
        {
          "ticks": 164512,
          "time": 197.73057149999997,
          "value": -0.140625
        },
        {
          "ticks": 164516,
          "time": 197.73537918749997,
          "value": -0.109375
        },
        {
          "ticks": 164528,
          "time": 197.74980225,
          "value": -0.078125
        },
        {
          "ticks": 164532,
          "time": 197.7546099375,
          "value": -0.046875
        },
        {
          "ticks": 164544,
          "time": 197.76903299999998,
          "value": -0.015625
        },
        {
          "ticks": 164548,
          "time": 197.77384068749998,
          "value": 0.015625
        },
        {
          "ticks": 167568,
          "time": 201.40364474999998,
          "value": -0.203125
        },
        {
          "ticks": 167572,
          "time": 201.4084524375,
          "value": -0.171875
        },
        {
          "ticks": 167584,
          "time": 201.42287549999998,
          "value": -0.140625
        },
        {
          "ticks": 167588,
          "time": 201.42768318749998,
          "value": -0.109375
        },
        {
          "ticks": 167600,
          "time": 201.44210624999997,
          "value": -0.078125
        },
        {
          "ticks": 167604,
          "time": 201.44691393749997,
          "value": -0.046875
        },
        {
          "ticks": 167616,
          "time": 201.461337,
          "value": -0.015625
        },
        {
          "ticks": 167620,
          "time": 201.4661446875,
          "value": 0.015625
        },
        {
          "ticks": 170640,
          "time": 205.09594875,
          "value": -0.203125
        },
        {
          "ticks": 170644,
          "time": 205.10075643749997,
          "value": -0.171875
        },
        {
          "ticks": 170656,
          "time": 205.11517949999998,
          "value": -0.140625
        },
        {
          "ticks": 170660,
          "time": 205.1199871875,
          "value": -0.109375
        },
        {
          "ticks": 170672,
          "time": 205.13441024999997,
          "value": -0.078125
        },
        {
          "ticks": 170676,
          "time": 205.13921793749998,
          "value": -0.046875
        },
        {
          "ticks": 170688,
          "time": 205.153641,
          "value": -0.015625
        },
        {
          "ticks": 170692,
          "time": 205.15844868749997,
          "value": 0.015625
        }
      ],
      "instrument": {
        "family": "organ",
        "number": 22,
        "name": "harmonica"
      },
      "name": "",
      "notes": [
        {
          "duration": 0.11538450000000022,
          "durationTicks": 96,
          "midi": 66,
          "name": "F#4",
          "ticks": 5808,
          "time": 6.980762249999999,
          "velocity": 0.7874015748031497
        },
        {
          "duration": 0.11538450000000022,
          "durationTicks": 96,
          "midi": 66,
          "name": "F#4",
          "ticks": 5808,
          "time": 6.980762249999999,
          "velocity": 0.7874015748031497
        },
        {
          "duration": 0.3461534999999998,
          "durationTicks": 288,
          "midi": 69,
          "name": "A4",
          "ticks": 5904,
          "time": 7.096146749999999,
          "velocity": 0.7874015748031497
        },
        {
          "duration": 0.3461534999999998,
          "durationTicks": 288,
          "midi": 69,
          "name": "A4",
          "ticks": 5904,
          "time": 7.096146749999999,
          "velocity": 0.7874015748031497
        },
        {
          "duration": 0.11538450000000022,
          "durationTicks": 96,
          "midi": 67,
          "name": "G4",
          "ticks": 6192,
          "time": 7.442300249999999,
          "velocity": 0.7874015748031497
        },
        {
          "duration": 0.11538450000000022,
          "durationTicks": 96,
          "midi": 67,
          "name": "G4",
          "ticks": 6192,
          "time": 7.442300249999999,
          "velocity": 0.7874015748031497
        },
        {
          "duration": 0.461538,
          "durationTicks": 384,
          "midi": 68,
          "name": "G#4",
          "ticks": 6288,
          "time": 7.557684749999999,
          "velocity": 0.7874015748031497
        },
        {
          "duration": 0.461538,
          "durationTicks": 384,
          "midi": 68,
          "name": "G#4",
          "ticks": 6288,
          "time": 7.557684749999999,
          "velocity": 0.7874015748031497
        },
        {
          "duration": 0.11538450000000111,
          "durationTicks": 96,
          "midi": 66,
          "name": "F#4",
          "ticks": 8880,
          "time": 10.673066249999998,
          "velocity": 0.7874015748031497
        },
        {
          "duration": 0.3461534999999998,
          "durationTicks": 288,
          "midi": 69,
          "name": "A4",
          "ticks": 8976,
          "time": 10.788450749999999,
          "velocity": 0.7874015748031497
        },
        {
          "duration": 0.11538449999999933,
          "durationTicks": 96,
          "midi": 67,
          "name": "G4",
          "ticks": 9264,
          "time": 11.134604249999999,
          "velocity": 0.7874015748031497
        },
        {
          "duration": 0.4615380000000009,
          "durationTicks": 384,
          "midi": 68,
          "name": "G#4",
          "ticks": 9360,
          "time": 11.249988749999998,
          "velocity": 0.7874015748031497
        },
        {
          "duration": 0.11538450000000111,
          "durationTicks": 96,
          "midi": 66,
          "name": "F#4",
          "ticks": 11952,
          "time": 14.365370249999998,
          "velocity": 0.7874015748031497
        },
        {
          "duration": 0.3461534999999998,
          "durationTicks": 288,
          "midi": 69,
          "name": "A4",
          "ticks": 12048,
          "time": 14.48075475,
          "velocity": 0.7874015748031497
        },
        {
          "duration": 0.11538449999999933,
          "durationTicks": 96,
          "midi": 67,
          "name": "G4",
          "ticks": 12336,
          "time": 14.826908249999999,
          "velocity": 0.7874015748031497
        },
        {
          "duration": 0.4615380000000009,
          "durationTicks": 384,
          "midi": 68,
          "name": "G#4",
          "ticks": 12432,
          "time": 14.942292749999998,
          "velocity": 0.7874015748031497
        },
        {
          "duration": 0.11538450000000111,
          "durationTicks": 96,
          "midi": 66,
          "name": "F#4",
          "ticks": 15024,
          "time": 18.057674249999998,
          "velocity": 0.7874015748031497
        },
        {
          "duration": 0.3461534999999998,
          "durationTicks": 288,
          "midi": 69,
          "name": "A4",
          "ticks": 15120,
          "time": 18.17305875,
          "velocity": 0.7874015748031497
        },
        {
          "duration": 0.11538449999999756,
          "durationTicks": 96,
          "midi": 67,
          "name": "G4",
          "ticks": 15408,
          "time": 18.51921225,
          "velocity": 0.7874015748031497
        },
        {
          "duration": 0.4615380000000009,
          "durationTicks": 384,
          "midi": 68,
          "name": "G#4",
          "ticks": 15504,
          "time": 18.634596749999996,
          "velocity": 0.7874015748031497
        },
        {
          "duration": 0.11538450000000111,
          "durationTicks": 96,
          "midi": 66,
          "name": "F#4",
          "ticks": 18096,
          "time": 21.749978249999998,
          "velocity": 0.7874015748031497
        },
        {
          "duration": 0.3461534999999998,
          "durationTicks": 288,
          "midi": 69,
          "name": "A4",
          "ticks": 18192,
          "time": 21.86536275,
          "velocity": 0.7874015748031497
        },
        {
          "duration": 0.11538449999999756,
          "durationTicks": 96,
          "midi": 67,
          "name": "G4",
          "ticks": 18480,
          "time": 22.21151625,
          "velocity": 0.7874015748031497
        },
        {
          "duration": 0.4615380000000009,
          "durationTicks": 384,
          "midi": 68,
          "name": "G#4",
          "ticks": 18576,
          "time": 22.326900749999997,
          "velocity": 0.7874015748031497
        },
        {
          "duration": 0.11538449999999756,
          "durationTicks": 96,
          "midi": 66,
          "name": "F#4",
          "ticks": 21168,
          "time": 25.442282249999998,
          "velocity": 0.7874015748031497
        },
        {
          "duration": 0.3461534999999998,
          "durationTicks": 288,
          "midi": 69,
          "name": "A4",
          "ticks": 21264,
          "time": 25.557666749999996,
          "velocity": 0.7874015748031497
        },
        {
          "duration": 0.11538450000000111,
          "durationTicks": 96,
          "midi": 67,
          "name": "G4",
          "ticks": 21552,
          "time": 25.903820249999995,
          "velocity": 0.7874015748031497
        },
        {
          "duration": 0.4615380000000009,
          "durationTicks": 384,
          "midi": 68,
          "name": "G#4",
          "ticks": 21648,
          "time": 26.019204749999997,
          "velocity": 0.7874015748031497
        },
        {
          "duration": 0.11538449999999756,
          "durationTicks": 96,
          "midi": 66,
          "name": "F#4",
          "ticks": 24240,
          "time": 29.134586249999998,
          "velocity": 0.7874015748031497
        },
        {
          "duration": 0.3461534999999998,
          "durationTicks": 288,
          "midi": 69,
          "name": "A4",
          "ticks": 24336,
          "time": 29.249970749999996,
          "velocity": 0.7874015748031497
        },
        {
          "duration": 0.11538450000000111,
          "durationTicks": 96,
          "midi": 67,
          "name": "G4",
          "ticks": 24624,
          "time": 29.596124249999995,
          "velocity": 0.7874015748031497
        },
        {
          "duration": 0.4615380000000009,
          "durationTicks": 384,
          "midi": 68,
          "name": "G#4",
          "ticks": 24720,
          "time": 29.711508749999997,
          "velocity": 0.7874015748031497
        },
        {
          "duration": 0.11538449999999756,
          "durationTicks": 96,
          "midi": 66,
          "name": "F#4",
          "ticks": 27312,
          "time": 32.82689025,
          "velocity": 0.7874015748031497
        },
        {
          "duration": 0.3461534999999998,
          "durationTicks": 288,
          "midi": 69,
          "name": "A4",
          "ticks": 27408,
          "time": 32.942274749999996,
          "velocity": 0.7874015748031497
        },
        {
          "duration": 0.11538449999999756,
          "durationTicks": 96,
          "midi": 67,
          "name": "G4",
          "ticks": 27696,
          "time": 33.288428249999996,
          "velocity": 0.7874015748031497
        },
        {
          "duration": 0.46153800000000444,
          "durationTicks": 384,
          "midi": 68,
          "name": "G#4",
          "ticks": 27792,
          "time": 33.40381274999999,
          "velocity": 0.7874015748031497
        },
        {
          "duration": 0.28846125000000455,
          "durationTicks": 240,
          "midi": 69,
          "name": "A4",
          "ticks": 32016,
          "time": 38.48073074999999,
          "velocity": 0.7874015748031497
        },
        {
          "duration": 0.46153799999999734,
          "durationTicks": 384,
          "midi": 71,
          "name": "B4",
          "ticks": 32400,
          "time": 38.94226875,
          "velocity": 0.7874015748031497
        },
        {
          "duration": 0.23076899999999512,
          "durationTicks": 192,
          "midi": 71,
          "name": "B4",
          "ticks": 34896,
          "time": 41.94226575,
          "velocity": 0.7874015748031497
        },
        {
          "duration": 0.46153800000000444,
          "durationTicks": 384,
          "midi": 69,
          "name": "A4",
          "ticks": 35088,
          "time": 42.17303474999999,
          "velocity": 0.7874015748031497
        },
        {
          "duration": 0.46153799999999734,
          "durationTicks": 384,
          "midi": 71,
          "name": "B4",
          "ticks": 35472,
          "time": 42.63457275,
          "velocity": 0.7874015748031497
        },
        {
          "duration": 0.23076899999999512,
          "durationTicks": 192,
          "midi": 71,
          "name": "B4",
          "ticks": 37968,
          "time": 45.63456975,
          "velocity": 0.7874015748031497
        },
        {
          "duration": 0.46153800000000444,
          "durationTicks": 384,
          "midi": 69,
          "name": "A4",
          "ticks": 38160,
          "time": 45.86533874999999,
          "velocity": 0.7874015748031497
        },
        {
          "duration": 0.46153799999999734,
          "durationTicks": 384,
          "midi": 71,
          "name": "B4",
          "ticks": 38544,
          "time": 46.32687675,
          "velocity": 0.7874015748031497
        },
        {
          "duration": 0.23076900000000222,
          "durationTicks": 192,
          "midi": 71,
          "name": "B4",
          "ticks": 41040,
          "time": 49.32687374999999,
          "velocity": 0.7874015748031497
        },
        {
          "duration": 0.46153799999999734,
          "durationTicks": 384,
          "midi": 69,
          "name": "A4",
          "ticks": 41232,
          "time": 49.55764274999999,
          "velocity": 0.7874015748031497
        },
        {
          "duration": 0.46153800000000444,
          "durationTicks": 384,
          "midi": 71,
          "name": "B4",
          "ticks": 41616,
          "time": 50.01918074999999,
          "velocity": 0.7874015748031497
        },
        {
          "duration": 0.11538449999999045,
          "durationTicks": 96,
          "midi": 66,
          "name": "F#4",
          "ticks": 53424,
          "time": 64.21147425,
          "velocity": 0.7874015748031497
        },
        {
          "duration": 0.46153800000000444,
          "durationTicks": 384,
          "midi": 69,
          "name": "A4",
          "ticks": 53520,
          "time": 64.32685874999999,
          "velocity": 0.7874015748031497
        },
        {
          "duration": 0.46153800000000444,
          "durationTicks": 384,
          "midi": 68,
          "name": "G#4",
          "ticks": 53904,
          "time": 64.78839674999999,
          "velocity": 0.7874015748031497
        },
        {
          "duration": 0.11538450000000466,
          "durationTicks": 96,
          "midi": 66,
          "name": "F#4",
          "ticks": 56496,
          "time": 67.90377824999999,
          "velocity": 0.7874015748031497
        },
        {
          "duration": 0.3461534999999998,
          "durationTicks": 288,
          "midi": 69,
          "name": "A4",
          "ticks": 56592,
          "time": 68.01916274999999,
          "velocity": 0.7874015748031497
        },
        {
          "duration": 0.11538449999999045,
          "durationTicks": 96,
          "midi": 67,
          "name": "G4",
          "ticks": 56880,
          "time": 68.36531624999999,
          "velocity": 0.7874015748031497
        },
        {
          "duration": 0.46153800000000444,
          "durationTicks": 384,
          "midi": 68,
          "name": "G#4",
          "ticks": 56976,
          "time": 68.48070074999998,
          "velocity": 0.7874015748031497
        },
        {
          "duration": 0.11538449999999045,
          "durationTicks": 96,
          "midi": 66,
          "name": "F#4",
          "ticks": 59568,
          "time": 71.59608225,
          "velocity": 0.7874015748031497
        },
        {
          "duration": 0.3461534999999998,
          "durationTicks": 288,
          "midi": 69,
          "name": "A4",
          "ticks": 59664,
          "time": 71.71146674999999,
          "velocity": 0.7874015748031497
        },
        {
          "duration": 0.11538450000000466,
          "durationTicks": 96,
          "midi": 67,
          "name": "G4",
          "ticks": 59952,
          "time": 72.05762024999999,
          "velocity": 0.7874015748031497
        },
        {
          "duration": 0.46153800000000444,
          "durationTicks": 384,
          "midi": 68,
          "name": "G#4",
          "ticks": 60048,
          "time": 72.17300474999999,
          "velocity": 0.7874015748031497
        },
        {
          "duration": 0.11538450000000466,
          "durationTicks": 96,
          "midi": 66,
          "name": "F#4",
          "ticks": 62640,
          "time": 75.28838624999999,
          "velocity": 0.7874015748031497
        },
        {
          "duration": 0.3461534999999998,
          "durationTicks": 288,
          "midi": 69,
          "name": "A4",
          "ticks": 62736,
          "time": 75.40377074999999,
          "velocity": 0.7874015748031497
        },
        {
          "duration": 0.11538450000000466,
          "durationTicks": 96,
          "midi": 67,
          "name": "G4",
          "ticks": 63024,
          "time": 75.74992424999999,
          "velocity": 0.7874015748031497
        },
        {
          "duration": 0.46153799999999023,
          "durationTicks": 384,
          "midi": 68,
          "name": "G#4",
          "ticks": 63120,
          "time": 75.86530875,
          "velocity": 0.7874015748031497
        },
        {
          "duration": 0.11538449999999045,
          "durationTicks": 96,
          "midi": 66,
          "name": "F#4",
          "ticks": 65712,
          "time": 78.98069025,
          "velocity": 0.7874015748031497
        },
        {
          "duration": 0.3461534999999998,
          "durationTicks": 288,
          "midi": 69,
          "name": "A4",
          "ticks": 65808,
          "time": 79.09607474999999,
          "velocity": 0.7874015748031497
        },
        {
          "duration": 0.11538450000000466,
          "durationTicks": 96,
          "midi": 67,
          "name": "G4",
          "ticks": 66096,
          "time": 79.44222824999999,
          "velocity": 0.7874015748031497
        },
        {
          "duration": 0.46153800000000444,
          "durationTicks": 384,
          "midi": 68,
          "name": "G#4",
          "ticks": 66192,
          "time": 79.55761274999999,
          "velocity": 0.7874015748031497
        },
        {
          "duration": 0.11538450000000466,
          "durationTicks": 96,
          "midi": 66,
          "name": "F#4",
          "ticks": 68784,
          "time": 82.67299424999999,
          "velocity": 0.7874015748031497
        },
        {
          "duration": 0.3461534999999998,
          "durationTicks": 288,
          "midi": 69,
          "name": "A4",
          "ticks": 68880,
          "time": 82.78837874999999,
          "velocity": 0.7874015748031497
        },
        {
          "duration": 0.11538449999999045,
          "durationTicks": 96,
          "midi": 67,
          "name": "G4",
          "ticks": 69168,
          "time": 83.13453224999999,
          "velocity": 0.7874015748031497
        },
        {
          "duration": 0.46153800000000444,
          "durationTicks": 384,
          "midi": 68,
          "name": "G#4",
          "ticks": 69264,
          "time": 83.24991674999998,
          "velocity": 0.7874015748031497
        },
        {
          "duration": 0.11538449999999045,
          "durationTicks": 96,
          "midi": 66,
          "name": "F#4",
          "ticks": 71856,
          "time": 86.36529825,
          "velocity": 0.7874015748031497
        },
        {
          "duration": 0.3461534999999998,
          "durationTicks": 288,
          "midi": 69,
          "name": "A4",
          "ticks": 71952,
          "time": 86.48068274999999,
          "velocity": 0.7874015748031497
        },
        {
          "duration": 0.11538450000000466,
          "durationTicks": 96,
          "midi": 67,
          "name": "G4",
          "ticks": 72240,
          "time": 86.82683624999999,
          "velocity": 0.7874015748031497
        },
        {
          "duration": 0.46153799999999023,
          "durationTicks": 384,
          "midi": 68,
          "name": "G#4",
          "ticks": 72336,
          "time": 86.94222074999999,
          "velocity": 0.7874015748031497
        },
        {
          "duration": 0.11538449999999045,
          "durationTicks": 96,
          "midi": 66,
          "name": "F#4",
          "ticks": 74928,
          "time": 90.05760224999999,
          "velocity": 0.7874015748031497
        },
        {
          "duration": 0.346153500000014,
          "durationTicks": 288,
          "midi": 69,
          "name": "A4",
          "ticks": 75024,
          "time": 90.17298674999998,
          "velocity": 0.7874015748031497
        },
        {
          "duration": 0.11538450000000466,
          "durationTicks": 96,
          "midi": 67,
          "name": "G4",
          "ticks": 75312,
          "time": 90.51914024999999,
          "velocity": 0.7874015748031497
        },
        {
          "duration": 0.46153799999999023,
          "durationTicks": 384,
          "midi": 68,
          "name": "G#4",
          "ticks": 75408,
          "time": 90.63452475,
          "velocity": 0.7874015748031497
        },
        {
          "duration": 0.46153800000000444,
          "durationTicks": 384,
          "midi": 69,
          "name": "A4",
          "ticks": 79632,
          "time": 95.71144274999999,
          "velocity": 0.7874015748031497
        },
        {
          "duration": 0.46153799999999023,
          "durationTicks": 384,
          "midi": 71,
          "name": "B4",
          "ticks": 80016,
          "time": 96.17298075,
          "velocity": 0.7874015748031497
        },
        {
          "duration": 0.23076899999999512,
          "durationTicks": 192,
          "midi": 71,
          "name": "B4",
          "ticks": 82512,
          "time": 99.17297774999999,
          "velocity": 0.7874015748031497
        },
        {
          "duration": 0.46153800000000444,
          "durationTicks": 384,
          "midi": 69,
          "name": "A4",
          "ticks": 82704,
          "time": 99.40374674999998,
          "velocity": 0.7874015748031497
        },
        {
          "duration": 0.46153800000000444,
          "durationTicks": 384,
          "midi": 71,
          "name": "B4",
          "ticks": 83088,
          "time": 99.86528474999999,
          "velocity": 0.7874015748031497
        },
        {
          "duration": 0.23076900000000933,
          "durationTicks": 192,
          "midi": 71,
          "name": "B4",
          "ticks": 85584,
          "time": 102.86528174999998,
          "velocity": 0.7874015748031497
        },
        {
          "duration": 0.46153800000000444,
          "durationTicks": 384,
          "midi": 69,
          "name": "A4",
          "ticks": 85776,
          "time": 103.09605074999999,
          "velocity": 0.7874015748031497
        },
        {
          "duration": 0.46153799999999023,
          "durationTicks": 384,
          "midi": 71,
          "name": "B4",
          "ticks": 86160,
          "time": 103.55758875,
          "velocity": 0.7874015748031497
        },
        {
          "duration": 0.23076899999999512,
          "durationTicks": 192,
          "midi": 71,
          "name": "B4",
          "ticks": 88656,
          "time": 106.55758574999999,
          "velocity": 0.7874015748031497
        },
        {
          "duration": 0.46153800000000444,
          "durationTicks": 384,
          "midi": 69,
          "name": "A4",
          "ticks": 88848,
          "time": 106.78835474999998,
          "velocity": 0.7874015748031497
        },
        {
          "duration": 0.46153800000000444,
          "durationTicks": 384,
          "midi": 71,
          "name": "B4",
          "ticks": 89232,
          "time": 107.24989274999999,
          "velocity": 0.7874015748031497
        },
        {
          "duration": 0.11538449999999045,
          "durationTicks": 96,
          "midi": 66,
          "name": "F#4",
          "ticks": 101040,
          "time": 121.44218624999999,
          "velocity": 0.7874015748031497
        },
        {
          "duration": 0.3461534999999998,
          "durationTicks": 288,
          "midi": 69,
          "name": "A4",
          "ticks": 101136,
          "time": 121.55757074999998,
          "velocity": 0.7874015748031497
        },
        {
          "duration": 0.11538450000000466,
          "durationTicks": 96,
          "midi": 67,
          "name": "G4",
          "ticks": 101424,
          "time": 121.90372424999998,
          "velocity": 0.7874015748031497
        },
        {
          "duration": 0.46153799999999023,
          "durationTicks": 384,
          "midi": 68,
          "name": "G#4",
          "ticks": 101520,
          "time": 122.01910874999999,
          "velocity": 0.7874015748031497
        },
        {
          "duration": 0.11538450000000466,
          "durationTicks": 96,
          "midi": 66,
          "name": "F#4",
          "ticks": 104112,
          "time": 125.13449024999998,
          "velocity": 0.7874015748031497
        },
        {
          "duration": 0.3461534999999998,
          "durationTicks": 288,
          "midi": 69,
          "name": "A4",
          "ticks": 104208,
          "time": 125.24987474999999,
          "velocity": 0.7874015748031497
        },
        {
          "duration": 0.11538449999999045,
          "durationTicks": 96,
          "midi": 67,
          "name": "G4",
          "ticks": 104496,
          "time": 125.59602824999999,
          "velocity": 0.7874015748031497
        },
        {
          "duration": 0.46153800000000444,
          "durationTicks": 384,
          "midi": 68,
          "name": "G#4",
          "ticks": 104592,
          "time": 125.71141274999998,
          "velocity": 0.7874015748031497
        },
        {
          "duration": 0.11538450000000466,
          "durationTicks": 96,
          "midi": 66,
          "name": "F#4",
          "ticks": 107184,
          "time": 128.82679424999998,
          "velocity": 0.7874015748031497
        },
        {
          "duration": 0.346153500000014,
          "durationTicks": 288,
          "midi": 69,
          "name": "A4",
          "ticks": 107280,
          "time": 128.94217874999998,
          "velocity": 0.7874015748031497
        },
        {
          "duration": 0.11538449999997624,
          "durationTicks": 96,
          "midi": 67,
          "name": "G4",
          "ticks": 107568,
          "time": 129.28833225,
          "velocity": 0.7874015748031497
        },
        {
          "duration": 0.46153800000001866,
          "durationTicks": 384,
          "midi": 68,
          "name": "G#4",
          "ticks": 107664,
          "time": 129.40371674999997,
          "velocity": 0.7874015748031497
        },
        {
          "duration": 0.11538450000000466,
          "durationTicks": 96,
          "midi": 66,
          "name": "F#4",
          "ticks": 110256,
          "time": 132.51909824999998,
          "velocity": 0.7874015748031497
        },
        {
          "duration": 0.34615349999998557,
          "durationTicks": 288,
          "midi": 69,
          "name": "A4",
          "ticks": 110352,
          "time": 132.63448275,
          "velocity": 0.7874015748031497
        },
        {
          "duration": 0.11538450000000466,
          "durationTicks": 96,
          "midi": 67,
          "name": "G4",
          "ticks": 110640,
          "time": 132.98063624999998,
          "velocity": 0.7874015748031497
        },
        {
          "duration": 0.46153800000001866,
          "durationTicks": 384,
          "midi": 68,
          "name": "G#4",
          "ticks": 110736,
          "time": 133.09602074999998,
          "velocity": 0.7874015748031497
        },
        {
          "duration": 0.11538450000000466,
          "durationTicks": 96,
          "midi": 66,
          "name": "F#4",
          "ticks": 113328,
          "time": 136.21140225,
          "velocity": 0.7874015748031497
        },
        {
          "duration": 0.34615349999998557,
          "durationTicks": 288,
          "midi": 69,
          "name": "A4",
          "ticks": 113424,
          "time": 136.32678675,
          "velocity": 0.7874015748031497
        },
        {
          "duration": 0.11538450000000466,
          "durationTicks": 96,
          "midi": 67,
          "name": "G4",
          "ticks": 113712,
          "time": 136.67294024999998,
          "velocity": 0.7874015748031497
        },
        {
          "duration": 0.46153799999999023,
          "durationTicks": 384,
          "midi": 68,
          "name": "G#4",
          "ticks": 113808,
          "time": 136.78832475,
          "velocity": 0.7874015748031497
        },
        {
          "duration": 0.11538450000000466,
          "durationTicks": 96,
          "midi": 66,
          "name": "F#4",
          "ticks": 116400,
          "time": 139.90370624999997,
          "velocity": 0.7874015748031497
        },
        {
          "duration": 0.346153500000014,
          "durationTicks": 288,
          "midi": 69,
          "name": "A4",
          "ticks": 116496,
          "time": 140.01909074999998,
          "velocity": 0.7874015748031497
        },
        {
          "duration": 0.11538450000000466,
          "durationTicks": 96,
          "midi": 67,
          "name": "G4",
          "ticks": 116784,
          "time": 140.36524425,
          "velocity": 0.7874015748031497
        },
        {
          "duration": 0.46153799999999023,
          "durationTicks": 384,
          "midi": 68,
          "name": "G#4",
          "ticks": 116880,
          "time": 140.48062875,
          "velocity": 0.7874015748031497
        },
        {
          "duration": 0.11538450000000466,
          "durationTicks": 96,
          "midi": 66,
          "name": "F#4",
          "ticks": 119472,
          "time": 143.59601024999998,
          "velocity": 0.7874015748031497
        },
        {
          "duration": 0.34615349999998557,
          "durationTicks": 288,
          "midi": 69,
          "name": "A4",
          "ticks": 119568,
          "time": 143.71139474999998,
          "velocity": 0.7874015748031497
        },
        {
          "duration": 0.11538450000000466,
          "durationTicks": 96,
          "midi": 67,
          "name": "G4",
          "ticks": 119856,
          "time": 144.05754824999997,
          "velocity": 0.7874015748031497
        },
        {
          "duration": 0.46153800000001866,
          "durationTicks": 384,
          "midi": 68,
          "name": "G#4",
          "ticks": 119952,
          "time": 144.17293274999997,
          "velocity": 0.7874015748031497
        },
        {
          "duration": 0.11538450000000466,
          "durationTicks": 96,
          "midi": 66,
          "name": "F#4",
          "ticks": 122544,
          "time": 147.28831424999998,
          "velocity": 0.7874015748031497
        },
        {
          "duration": 0.34615349999998557,
          "durationTicks": 288,
          "midi": 69,
          "name": "A4",
          "ticks": 122640,
          "time": 147.40369875,
          "velocity": 0.7874015748031497
        },
        {
          "duration": 0.11538450000000466,
          "durationTicks": 96,
          "midi": 67,
          "name": "G4",
          "ticks": 122928,
          "time": 147.74985224999998,
          "velocity": 0.7874015748031497
        },
        {
          "duration": 0.46153799999999023,
          "durationTicks": 384,
          "midi": 68,
          "name": "G#4",
          "ticks": 123024,
          "time": 147.86523674999998,
          "velocity": 0.7874015748031497
        },
        {
          "duration": 0.11538450000000466,
          "durationTicks": 96,
          "midi": 66,
          "name": "F#4",
          "ticks": 125616,
          "time": 150.98061824999996,
          "velocity": 0.7874015748031497
        },
        {
          "duration": 0.346153500000014,
          "durationTicks": 288,
          "midi": 69,
          "name": "A4",
          "ticks": 125712,
          "time": 151.09600274999997,
          "velocity": 0.7874015748031497
        },
        {
          "duration": 0.11538450000000466,
          "durationTicks": 96,
          "midi": 67,
          "name": "G4",
          "ticks": 126000,
          "time": 151.44215624999998,
          "velocity": 0.7874015748031497
        },
        {
          "duration": 0.46153799999999023,
          "durationTicks": 384,
          "midi": 68,
          "name": "G#4",
          "ticks": 126096,
          "time": 151.55754075,
          "velocity": 0.7874015748031497
        },
        {
          "duration": 0.11538450000000466,
          "durationTicks": 96,
          "midi": 66,
          "name": "F#4",
          "ticks": 128688,
          "time": 154.67292224999997,
          "velocity": 0.7874015748031497
        },
        {
          "duration": 0.346153500000014,
          "durationTicks": 288,
          "midi": 69,
          "name": "A4",
          "ticks": 128784,
          "time": 154.78830674999998,
          "velocity": 0.7874015748031497
        },
        {
          "duration": 0.11538449999997624,
          "durationTicks": 96,
          "midi": 67,
          "name": "G4",
          "ticks": 129072,
          "time": 155.13446025,
          "velocity": 0.7874015748031497
        },
        {
          "duration": 0.46153800000001866,
          "durationTicks": 384,
          "midi": 68,
          "name": "G#4",
          "ticks": 129168,
          "time": 155.24984474999997,
          "velocity": 0.7874015748031497
        },
        {
          "duration": 0.11538450000000466,
          "durationTicks": 96,
          "midi": 66,
          "name": "F#4",
          "ticks": 131760,
          "time": 158.36522624999998,
          "velocity": 0.7874015748031497
        },
        {
          "duration": 0.34615349999998557,
          "durationTicks": 288,
          "midi": 69,
          "name": "A4",
          "ticks": 131856,
          "time": 158.48061074999998,
          "velocity": 0.7874015748031497
        },
        {
          "duration": 0.11538450000000466,
          "durationTicks": 96,
          "midi": 67,
          "name": "G4",
          "ticks": 132144,
          "time": 158.82676424999997,
          "velocity": 0.7874015748031497
        },
        {
          "duration": 0.46153800000001866,
          "durationTicks": 384,
          "midi": 68,
          "name": "G#4",
          "ticks": 132240,
          "time": 158.94214874999997,
          "velocity": 0.7874015748031497
        },
        {
          "duration": 0.46153799999999023,
          "durationTicks": 384,
          "midi": 69,
          "name": "A4",
          "ticks": 136464,
          "time": 164.01906674999998,
          "velocity": 0.7874015748031497
        },
        {
          "duration": 0.46153800000001866,
          "durationTicks": 384,
          "midi": 71,
          "name": "B4",
          "ticks": 136848,
          "time": 164.48060474999997,
          "velocity": 0.7874015748031497
        },
        {
          "duration": 0.23076900000000933,
          "durationTicks": 192,
          "midi": 71,
          "name": "B4",
          "ticks": 139344,
          "time": 167.48060174999998,
          "velocity": 0.7874015748031497
        },
        {
          "duration": 0.46153799999999023,
          "durationTicks": 384,
          "midi": 69,
          "name": "A4",
          "ticks": 139536,
          "time": 167.71137075,
          "velocity": 0.7874015748031497
        },
        {
          "duration": 0.46153799999999023,
          "durationTicks": 384,
          "midi": 71,
          "name": "B4",
          "ticks": 139920,
          "time": 168.17290874999998,
          "velocity": 0.7874015748031497
        },
        {
          "duration": 0.23076900000000933,
          "durationTicks": 192,
          "midi": 71,
          "name": "B4",
          "ticks": 142416,
          "time": 171.17290574999998,
          "velocity": 0.7874015748031497
        },
        {
          "duration": 0.46153799999999023,
          "durationTicks": 384,
          "midi": 69,
          "name": "A4",
          "ticks": 142608,
          "time": 171.40367475,
          "velocity": 0.7874015748031497
        },
        {
          "duration": 0.46153799999999023,
          "durationTicks": 384,
          "midi": 71,
          "name": "B4",
          "ticks": 142992,
          "time": 171.86521274999998,
          "velocity": 0.7874015748031497
        },
        {
          "duration": 0.23076900000000933,
          "durationTicks": 192,
          "midi": 71,
          "name": "B4",
          "ticks": 145488,
          "time": 174.86520974999996,
          "velocity": 0.7874015748031497
        },
        {
          "duration": 0.46153800000001866,
          "durationTicks": 384,
          "midi": 69,
          "name": "A4",
          "ticks": 145680,
          "time": 175.09597874999997,
          "velocity": 0.7874015748031497
        },
        {
          "duration": 0.46153799999999023,
          "durationTicks": 384,
          "midi": 71,
          "name": "B4",
          "ticks": 146064,
          "time": 175.55751675,
          "velocity": 0.7874015748031497
        },
        {
          "duration": 0.11538450000000466,
          "durationTicks": 96,
          "midi": 66,
          "name": "F#4",
          "ticks": 157872,
          "time": 189.74981024999997,
          "velocity": 0.7874015748031497
        },
        {
          "duration": 0.346153500000014,
          "durationTicks": 288,
          "midi": 69,
          "name": "A4",
          "ticks": 157968,
          "time": 189.86519474999997,
          "velocity": 0.7874015748031497
        },
        {
          "duration": 0.11538449999997624,
          "durationTicks": 96,
          "midi": 67,
          "name": "G4",
          "ticks": 158256,
          "time": 190.21134825,
          "velocity": 0.7874015748031497
        },
        {
          "duration": 0.46153800000001866,
          "durationTicks": 384,
          "midi": 68,
          "name": "G#4",
          "ticks": 158352,
          "time": 190.32673274999996,
          "velocity": 0.7874015748031497
        },
        {
          "duration": 0.11538450000000466,
          "durationTicks": 96,
          "midi": 66,
          "name": "F#4",
          "ticks": 160944,
          "time": 193.44211424999997,
          "velocity": 0.7874015748031497
        },
        {
          "duration": 0.34615349999998557,
          "durationTicks": 288,
          "midi": 69,
          "name": "A4",
          "ticks": 161040,
          "time": 193.55749874999998,
          "velocity": 0.7874015748031497
        },
        {
          "duration": 0.11538450000000466,
          "durationTicks": 96,
          "midi": 67,
          "name": "G4",
          "ticks": 161328,
          "time": 193.90365224999996,
          "velocity": 0.7874015748031497
        },
        {
          "duration": 0.46153799999999023,
          "durationTicks": 384,
          "midi": 68,
          "name": "G#4",
          "ticks": 161424,
          "time": 194.01903674999997,
          "velocity": 0.7874015748031497
        },
        {
          "duration": 0.11538450000000466,
          "durationTicks": 96,
          "midi": 66,
          "name": "F#4",
          "ticks": 164016,
          "time": 197.13441824999998,
          "velocity": 0.7874015748031497
        },
        {
          "duration": 0.34615349999998557,
          "durationTicks": 288,
          "midi": 69,
          "name": "A4",
          "ticks": 164112,
          "time": 197.24980275,
          "velocity": 0.7874015748031497
        },
        {
          "duration": 0.11538450000000466,
          "durationTicks": 96,
          "midi": 67,
          "name": "G4",
          "ticks": 164400,
          "time": 197.59595624999997,
          "velocity": 0.7874015748031497
        },
        {
          "duration": 0.46153799999999023,
          "durationTicks": 384,
          "midi": 68,
          "name": "G#4",
          "ticks": 164496,
          "time": 197.71134074999998,
          "velocity": 0.7874015748031497
        },
        {
          "duration": 0.11538450000000466,
          "durationTicks": 96,
          "midi": 66,
          "name": "F#4",
          "ticks": 167088,
          "time": 200.82672225,
          "velocity": 0.7874015748031497
        },
        {
          "duration": 0.34615349999998557,
          "durationTicks": 288,
          "midi": 69,
          "name": "A4",
          "ticks": 167184,
          "time": 200.94210675,
          "velocity": 0.7874015748031497
        },
        {
          "duration": 0.11538450000000466,
          "durationTicks": 96,
          "midi": 67,
          "name": "G4",
          "ticks": 167472,
          "time": 201.28826024999998,
          "velocity": 0.7874015748031497
        },
        {
          "duration": 0.46153799999999023,
          "durationTicks": 384,
          "midi": 68,
          "name": "G#4",
          "ticks": 167568,
          "time": 201.40364474999998,
          "velocity": 0.7874015748031497
        },
        {
          "duration": 0.11538450000000466,
          "durationTicks": 96,
          "midi": 66,
          "name": "F#4",
          "ticks": 170160,
          "time": 204.51902624999997,
          "velocity": 0.7874015748031497
        },
        {
          "duration": 0.346153500000014,
          "durationTicks": 288,
          "midi": 69,
          "name": "A4",
          "ticks": 170256,
          "time": 204.63441074999997,
          "velocity": 0.7874015748031497
        },
        {
          "duration": 0.11538450000000466,
          "durationTicks": 96,
          "midi": 67,
          "name": "G4",
          "ticks": 170544,
          "time": 204.98056425,
          "velocity": 0.7874015748031497
        },
        {
          "duration": 0.46153799999999023,
          "durationTicks": 384,
          "midi": 68,
          "name": "G#4",
          "ticks": 170640,
          "time": 205.09594875,
          "velocity": 0.7874015748031497
        }
      ]
    }
  ]
}